<?xml version="1.0" encoding="UTF-8" standalone="no"?>
<svg
   xmlns:dc="http://purl.org/dc/elements/1.1/"
   xmlns:cc="http://creativecommons.org/ns#"
   xmlns:rdf="http://www.w3.org/1999/02/22-rdf-syntax-ns#"
   xmlns:svg="http://www.w3.org/2000/svg"
   xmlns="http://www.w3.org/2000/svg"
   viewBox="0 0 642.52002 971.33868"
   height="971.33868"
   width="642.52002"
   xml:space="preserve"
   id="svg2"
   version="1.1"><metadata
     id="metadata8"><rdf:RDF><cc:Work
         rdf:about=""><dc:format>image/svg+xml</dc:format><dc:type
           rdf:resource="http://purl.org/dc/dcmitype/StillImage" /></cc:Work></rdf:RDF></metadata><defs
     id="defs6"><clipPath
       id="clipPath22"
       clipPathUnits="userSpaceOnUse"><path
         id="path20"
         d="M 0,728.504 H 481.89 V 0 H 0 Z" /></clipPath><clipPath
       id="clipPath110"
       clipPathUnits="userSpaceOnUse"><path
         id="path108"
         d="m 82.849,130.522 c 10.181,-1.539 11.323,14.704 1.082,15.955 v 0 c -0.391,0.048 -0.767,0.071 -1.13,0.071 v 0 c -9.134,-0.002 -9.251,-14.622 0.048,-16.026" /></clipPath><clipPath
       id="clipPath126"
       clipPathUnits="userSpaceOnUse"><path
         id="path124"
         d="M 0,728.504 H 481.89 V 0 H 0 Z" /></clipPath><clipPath
       id="clipPath146"
       clipPathUnits="userSpaceOnUse"><path
         id="path144"
         d="m 100.086,130.522 c 10.181,-1.539 11.322,14.704 1.082,15.955 v 0 c -0.391,0.048 -0.767,0.071 -1.13,0.071 v 0 c -9.134,-0.002 -9.251,-14.622 0.048,-16.026" /></clipPath><clipPath
       id="clipPath162"
       clipPathUnits="userSpaceOnUse"><path
         id="path160"
         d="M 0,728.504 H 481.89 V 0 H 0 Z" /></clipPath><clipPath
       id="clipPath210"
       clipPathUnits="userSpaceOnUse"><path
         id="path208"
         d="M 178.942,101.943 C 174.289,92.248 150.869,85.027 145.071,82.97 v 0 c -5.643,-2.001 -6.807,-5.863 -14.105,-8.905 v 0 c -0.735,-0.035 -1.425,-0.081 -2.039,-0.148 v 0 c -7.9,-0.859 -20.467,-6.168 -37.344,-6.168 v 0 c -15.256,0 -35.276,3.461 -48.648,5.243 v 0 C 25.737,75.284 12.75,73.523 0,71.764 v 0 -12.335 c 1.989,0.478 3.998,0.976 6.004,1.474 v 0 c 12.14,3.014 24.183,6.029 31.161,4.506 v 0 c 15.131,-3.303 56.992,-6.761 74.792,-0.977 v 0 c 8.62,2.801 16.473,3.994 23.947,2.478 v 0 c 4.041,-0.822 10.166,-0.433 15.68,-0.045 v 0 c 4.561,0.321 8.705,0.642 10.906,0.28 v 0 c 6.234,-1.029 18.418,-0.946 22.51,-1.992 v 0 c 7.004,-1.79 31.241,-13.958 31.241,-13.958 v 0 c 1.16,0.586 2.055,2.553 2.055,2.553 v 0 C 209,60.311 190.686,68.263 183.625,70.241 v 0 c -7.061,1.98 -21.116,0.647 -29.316,2.055 v 0 c -2.611,0.448 -5.553,0.838 -8.535,1.141 v 0 c 2.245,3.299 4.152,5.543 6.524,7.3 v 0 c 9.184,6.803 22.91,6.524 27.468,21.206 v 0 c -0.07,0.099 -0.184,0.132 -0.306,0.132 v 0 c -0.244,0 -0.518,-0.132 -0.518,-0.132" /></clipPath><clipPath
       id="clipPath238"
       clipPathUnits="userSpaceOnUse"><path
         id="path236"
         d="M 0,728.504 H 481.89 V 0 H 0 Z" /></clipPath><clipPath
       id="clipPath478"
       clipPathUnits="userSpaceOnUse"><path
         id="path476"
         d="m 65.94,627.553 c -4.448,-1.898 -1.82,-9.065 2.566,-7.046 v 0 c 3.677,1.692 2.33,7.368 -1.099,7.368 v 0 c -0.454,0 -0.946,-0.1 -1.467,-0.322" /></clipPath><clipPath
       id="clipPath494"
       clipPathUnits="userSpaceOnUse"><path
         id="path492"
         d="M 0,728.504 H 481.89 V 0 H 0 Z" /></clipPath><clipPath
       id="clipPath510"
       clipPathUnits="userSpaceOnUse"><path
         id="path508"
         d="m 50.702,623.527 c -4.45,-1.898 -1.82,-9.065 2.564,-7.046 v 0 c 3.677,1.693 2.331,7.368 -1.098,7.368 v 0 c -0.454,0 -0.946,-0.1 -1.466,-0.322" /></clipPath><clipPath
       id="clipPath526"
       clipPathUnits="userSpaceOnUse"><path
         id="path524"
         d="M 0,728.504 H 481.89 V 0 H 0 Z" /></clipPath></defs><g
     transform="matrix(1.3333333,0,0,-1.3333333,0,971.33867)"
     id="g10"><path
       id="path12"
       style="fill:#80cee7;fill-opacity:1;fill-rule:nonzero;stroke:none"
       d="M 0,0 H 481.89 V 728.504 H 0 Z" /><path
       id="path14"
       style="fill:#ffffff;fill-opacity:1;fill-rule:nonzero;stroke:none"
       d="M 40.138,685.248 H 441.753 V 43.256 H 40.138 Z" /><g
       id="g16"><g
         clip-path="url(#clipPath22)"
         id="g18"><g
           transform="translate(7.6863,166.2687)"
           id="g24"><path
             id="path26"
             style="fill:#5aa03e;fill-opacity:1;fill-rule:nonzero;stroke:none"
             d="M 0,0 C 18.753,30.05 0.342,43.526 0.342,43.526 -10.454,35.366 0,0 0,0" /></g><g
           transform="translate(7.6863,113.0535)"
           id="g28"><path
             id="path30"
             style="fill:#5aa03e;fill-opacity:1;fill-rule:nonzero;stroke:none"
             d="M 0,0 C 22.706,22.825 36.673,14.939 36.673,14.939 31.162,-0.561 0,0 0,0" /></g><g
           transform="translate(24.9184,135.5356)"
           id="g32"><path
             id="path34"
             style="fill:#5aa03e;fill-opacity:1;fill-rule:nonzero;stroke:none"
             d="M 0,0 C 10.794,27.953 -3.185,41.943 -3.185,41.943 -12.864,25.806 0,0 0,0" /></g><g
           transform="translate(24.9184,135.5356)"
           id="g36"><path
             id="path38"
             style="fill:#5aa03e;fill-opacity:1;fill-rule:nonzero;stroke:none"
             d="M 0,0 C 16.15,21.53 30.652,20.012 30.652,20.012 28.133,1.848 12.955,4.17 0,0" /></g><g
           transform="translate(37.6881,158.7935)"
           id="g40"><path
             id="path42"
             style="fill:#5aa03e;fill-opacity:1;fill-rule:nonzero;stroke:none"
             d="M 0,0 C 9.426,30.387 -4.351,38.278 -4.351,38.278 -11.287,13.569 0,0 0,0" /></g><g
           transform="translate(37.6881,158.7935)"
           id="g44"><path
             id="path46"
             style="fill:#5aa03e;fill-opacity:1;fill-rule:nonzero;stroke:none"
             d="M 0,0 C 15.363,22.881 27.954,19.84 27.954,19.84 25.578,3.218 0,0 0,0" /></g><g
           transform="translate(45.9688,180.3132)"
           id="g48"><path
             id="path50"
             style="fill:#5aa03e;fill-opacity:1;fill-rule:nonzero;stroke:none"
             d="M 0,0 C 21.446,17.442 10.172,40.144 10.172,40.144 -5.171,30.696 0,0 0,0" /></g><g
           transform="translate(-15.4989,90.6514)"
           id="g52"><path
             id="path54"
             style="fill:#260f0f;fill-opacity:1;fill-rule:nonzero;stroke:none"
             d="m 0,0 c 0.125,0 0.251,0.04 0.356,0.125 36.004,28.757 58.699,66.561 67.452,112.358 0.059,0.309 -0.144,0.607 -0.453,0.667 -0.313,0.065 -0.607,-0.144 -0.666,-0.453 C 57.987,67.174 35.431,29.599 -0.356,1.015 -0.601,0.819 -0.641,0.46 -0.445,0.214 -0.333,0.073 -0.166,0 0,0" /></g><g
           transform="translate(7.6857,112.4836)"
           id="g56"><path
             id="path58"
             style="fill:#260f0f;fill-opacity:1;fill-rule:nonzero;stroke:none"
             d="m 0,0 c 0.077,0 0.156,0.016 0.23,0.047 14.827,6.521 28.302,11.837 28.437,11.89 0.293,0.115 0.437,0.446 0.321,0.74 -0.115,0.292 -0.447,0.435 -0.739,0.32 C 28.116,12.945 15.174,7.84 0.692,1.496 1.228,5.866 3.19,23.625 1.706,37.904 1.672,38.216 1.412,38.439 1.079,38.412 0.766,38.379 0.539,38.099 0.572,37.785 2.255,21.595 -0.536,0.855 -0.564,0.647 -0.592,0.442 -0.508,0.239 -0.343,0.114 -0.242,0.039 -0.122,0 0,0" /></g><g
           transform="translate(24.9186,134.9659)"
           id="g60"><path
             id="path62"
             style="fill:#260f0f;fill-opacity:1;fill-rule:nonzero;stroke:none"
             d="m 0,0 c 0.094,0 0.188,0.024 0.273,0.07 18.685,10.215 23.473,13.56 23.667,13.696 0.259,0.182 0.319,0.538 0.138,0.795 -0.182,0.258 -0.54,0.317 -0.794,0.138 C 23.237,14.666 18.47,11.341 0.557,1.525 0.484,5.858 0.083,23.994 -1.66,34.466 c -0.05,0.31 -0.337,0.518 -0.656,0.469 -0.31,-0.052 -0.521,-0.346 -0.469,-0.656 C -0.82,22.472 -0.573,0.782 -0.57,0.564 -0.569,0.364 -0.462,0.18 -0.288,0.079 -0.199,0.027 -0.099,0 0,0" /></g><g
           transform="translate(37.6875,158.2232)"
           id="g64"><path
             id="path66"
             style="fill:#260f0f;fill-opacity:1;fill-rule:nonzero;stroke:none"
             d="m 0,0 c 0.123,0 0.245,0.04 0.347,0.117 11.072,8.505 20.571,13.851 20.666,13.905 0.274,0.154 0.372,0.502 0.218,0.776 -0.155,0.273 -0.502,0.368 -0.777,0.218 C 20.362,14.964 11.317,9.874 0.583,1.732 0.609,5.8 0.491,19.629 -1.988,30.983 -2.055,31.29 -2.352,31.482 -2.666,31.418 -2.974,31.351 -3.168,31.047 -3.101,30.74 -0.205,17.472 -0.566,0.751 -0.57,0.583 -0.575,0.364 -0.454,0.162 -0.258,0.062 -0.177,0.021 -0.088,0 0,0" /></g><g
           transform="translate(88.1127,161.3958)"
           id="g68"><path
             id="path70"
             style="fill:#b15132;fill-opacity:1;fill-rule:nonzero;stroke:none"
             d="m 0,0 c 12.903,0 23.419,-4.646 28.592,-20.593 0.539,-1.663 -1.263,-1.756 -1.263,-1.756 2.953,-5.844 2.578,-7.091 1.901,-7.519 -0.677,-0.429 -1.422,-0.62 -1.422,-0.62 1.456,-3.436 -0.718,-7.021 -0.718,-7.021 9.296,-23.376 -7.346,-50.386 -12.927,-56.095 -8.936,-9.143 -48.25,-5.886 -52.504,2.872 -13.485,27.768 4.23,53.254 4.469,55.936 0.459,5.146 4.348,12.048 4.348,12.048 0,0 -1.711,0.495 -1.454,1.576 0.958,4.029 5.168,5.674 5.168,5.674 0,0 -1.338,0.833 -1.378,1.308 C -27.3,-12.864 -16.717,0 0,0" /></g><g
           transform="translate(54.8127,66.65)"
           id="g72"><path
             id="path74"
             style="fill:#ffd78b;fill-opacity:1;fill-rule:nonzero;stroke:none"
             d="m 0,0 c 0.29,0.124 11.796,1.78 19.697,15.721 6.189,10.921 3.788,23.482 10.438,30.216 6.648,6.734 18.171,2.442 24.457,-7.624 C 60.609,28.676 56.162,13.896 47.463,1.142 40.074,-6.418 11.934,-5.496 0,0" /></g><g
           transform="translate(91.883,149.54)"
           id="g76"><path
             id="path78"
             style="fill:#ffd78b;fill-opacity:1;fill-rule:nonzero;stroke:none"
             d="M 0,0 C -7.078,4.369 -18.069,6.261 -20.883,-9.635 -23.817,-26.21 -4.528,-29.085 0,-26.212 10.772,-29.863 21.778,-22.963 19.091,-9.515 16.902,1.436 8.199,5.326 0,0" /></g><g
           transform="translate(92.61,99.7982)"
           id="g80"><path
             id="path82"
             style="fill:#260f0f;fill-opacity:1;fill-rule:nonzero;stroke:none"
             d="m 0,0 c 0.525,0 1.021,0.108 1.454,0.353 0.8,0.45 1.951,1.738 0.684,5.304 C 2.05,5.906 1.778,6.034 1.526,5.947 1.278,5.859 1.147,5.584 1.236,5.335 2.001,3.183 1.911,1.709 0.985,1.187 -0.231,0.506 -2.653,1.426 -4.006,3.086 -4.174,3.291 -4.475,3.32 -4.68,3.154 -4.885,2.986 -4.916,2.686 -4.749,2.48 -3.619,1.096 -1.664,0 0,0" /></g><g
           transform="translate(97.3927,93.8711)"
           id="g84"><path
             id="path86"
             style="fill:#260f0f;fill-opacity:1;fill-rule:nonzero;stroke:none"
             d="M 0,0 C 0.229,0 0.459,0.035 0.679,0.11 1.687,0.453 2.797,1.703 2.637,5.615 3.306,5.306 4.083,5.29 4.705,5.632 5.339,5.978 6.667,7.196 5.336,11.021 5.249,11.272 4.977,11.399 4.727,11.317 4.477,11.23 4.345,10.957 4.431,10.707 5.188,8.533 5.118,6.949 4.245,6.471 3.699,6.172 2.903,6.382 2.467,6.936 2.335,7.102 2.112,7.161 1.914,7.084 1.718,7.006 1.596,6.807 1.613,6.597 2.012,2.077 0.878,1.189 0.372,1.016 -0.438,0.741 -1.529,1.444 -2.053,2.265 -2.198,2.487 -2.495,2.553 -2.715,2.411 -2.937,2.269 -3.003,1.972 -2.861,1.749 -2.254,0.799 -1.106,0 0,0" /></g><g
           transform="translate(48.2561,75.6906)"
           id="g88"><path
             id="path90"
             style="fill:#260f0f;fill-opacity:1;fill-rule:nonzero;stroke:none"
             d="m 0,0 c 0.036,0 0.074,0.004 0.111,0.012 0.248,0.06 24.864,6.3 23.136,39.351 -0.013,0.263 -0.218,0.481 -0.502,0.453 C 22.481,39.802 22.277,39.578 22.292,39.313 23.978,7.05 0.131,1.002 -0.111,0.945 -0.368,0.884 -0.527,0.625 -0.466,0.368 -0.414,0.148 -0.217,0 0,0" /></g><g
           transform="translate(46.7612,80.7176)"
           id="g92"><path
             id="path94"
             style="fill:#260f0f;fill-opacity:1;fill-rule:nonzero;stroke:none"
             d="m 0,0 c 0.057,0 0.115,0.01 0.171,0.031 0.166,0.064 16.634,6.552 18.508,25.776 0.026,0.263 -0.167,0.497 -0.43,0.522 -0.252,0.024 -0.497,-0.167 -0.522,-0.43 C 15.911,7.281 -0.01,0.987 -0.171,0.926 -0.418,0.832 -0.541,0.555 -0.448,0.308 -0.374,0.117 -0.193,0 0,0" /></g><g
           transform="translate(45.5431,88.1384)"
           id="g96"><path
             id="path98"
             style="fill:#260f0f;fill-opacity:1;fill-rule:nonzero;stroke:none"
             d="m 0,0 c 0.062,0 0.126,0.012 0.187,0.039 0.106,0.045 10.583,4.655 14.242,19.636 0.062,0.257 -0.095,0.517 -0.352,0.579 C 13.816,20.322 13.562,20.16 13.499,19.902 9.959,5.411 -0.087,0.963 -0.188,0.919 -0.43,0.815 -0.544,0.534 -0.44,0.29 -0.363,0.108 -0.186,0 0,0" /></g><g
           transform="translate(82.8489,130.5213)"
           id="g100"><path
             id="path102"
             style="fill:#ffffff;fill-opacity:1;fill-rule:nonzero;stroke:none"
             d="M 0,0 C 10.181,-1.538 11.323,14.704 1.082,15.956 -9.159,17.207 -9.668,1.461 0,0" /></g></g></g><g
       id="g104"><g
         clip-path="url(#clipPath110)"
         id="g106"><g
           transform="translate(82.6804,131.4976)"
           id="g112"><path
             id="path114"
             style="fill:#260f0f;fill-opacity:1;fill-rule:nonzero;stroke:none"
             d="M 0,0 C 8.059,-1.218 8.963,11.639 0.857,12.63 -7.249,13.62 -7.653,1.156 0,0" /></g><g
           transform="translate(85.0318,140.152)"
           id="g116"><path
             id="path118"
             style="fill:#ffffff;fill-opacity:1;fill-rule:nonzero;stroke:none"
             d="M 0,0 C 0.677,-0.885 2.364,-0.732 3.768,0.343 5.172,1.417 5.76,3.005 5.083,3.89 4.406,4.775 2.719,4.622 1.315,3.548 -0.089,2.473 -0.677,0.885 0,0" /></g></g></g><g
       id="g120"><g
         clip-path="url(#clipPath126)"
         id="g122"><g
           transform="translate(89.4294,150.8673)"
           id="g128"><path
             id="path130"
             style="fill:#260f0f;fill-opacity:1;fill-rule:nonzero;stroke:none"
             d="m 0,0 c -3.92,5.675 -9.622,3.89 -13.016,5.705 -1.288,0.688 -1.661,-0.659 -1.107,-1.287 -1.586,0.913 -2.843,0.15 -4.928,1.669 -0.942,0.686 -2.738,0.662 -2.134,-0.801 1.167,-2.828 4.847,-4.693 9.515,-4.284 C -8.091,1.315 -1.451,-0.774 0,0" /></g><g
           transform="translate(93.7045,150.5733)"
           id="g132"><path
             id="path134"
             style="fill:#260f0f;fill-opacity:1;fill-rule:nonzero;stroke:none"
             d="m 0,0 c 3.92,5.675 9.622,3.89 13.016,5.705 1.288,0.688 1.661,-0.659 1.107,-1.287 1.586,0.913 2.843,0.149 4.928,1.668 0.942,0.687 2.738,0.662 2.134,-0.8 C 20.018,2.458 16.338,0.593 11.67,1.001 8.091,1.314 1.451,-0.774 0,0" /></g><g
           transform="translate(100.086,130.5213)"
           id="g136"><path
             id="path138"
             style="fill:#ffffff;fill-opacity:1;fill-rule:nonzero;stroke:none"
             d="M 0,0 C 10.181,-1.538 11.323,14.704 1.082,15.956 -9.159,17.207 -9.668,1.461 0,0" /></g></g></g><g
       id="g140"><g
         clip-path="url(#clipPath146)"
         id="g142"><g
           transform="translate(99.9174,131.4976)"
           id="g148"><path
             id="path150"
             style="fill:#260f0f;fill-opacity:1;fill-rule:nonzero;stroke:none"
             d="M 0,0 C 8.059,-1.218 8.963,11.639 0.857,12.63 -7.249,13.62 -7.653,1.156 0,0" /></g><g
           transform="translate(102.2688,140.152)"
           id="g152"><path
             id="path154"
             style="fill:#ffffff;fill-opacity:1;fill-rule:nonzero;stroke:none"
             d="M 0,0 C 0.677,-0.885 2.364,-0.732 3.768,0.343 5.172,1.417 5.761,3.005 5.083,3.89 4.406,4.775 2.719,4.622 1.315,3.548 -0.088,2.473 -0.677,0.885 0,0" /></g></g></g><g
       id="g156"><g
         clip-path="url(#clipPath162)"
         id="g158"><g
           transform="translate(89.2499,131.5546)"
           id="g164"><path
             id="path166"
             style="fill:#ffb737;fill-opacity:1;fill-rule:nonzero;stroke:none"
             d="m 0,0 c 0.538,-0.607 0.279,-1.705 1.177,-2.024 0.898,-0.319 3.93,-0.239 3.93,-0.239 0.087,0.883 -0.499,1.536 -0.499,1.536 z" /></g><g
           transform="translate(92.8804,135.1164)"
           id="g168"><path
             id="path170"
             style="fill:#ffb737;fill-opacity:1;fill-rule:nonzero;stroke:none"
             d="m 0,0 c 1.057,-0.259 3.311,-5.147 3.311,-5.147 -2.872,0.14 -6.942,1.585 -6.942,1.585 C -2.893,-1.795 0,0 0,0" /></g><g
           transform="translate(93.282,129.9403)"
           id="g172"><path
             id="path174"
             style="fill:#260f0f;fill-opacity:1;fill-rule:nonzero;stroke:none"
             d="M 0,0 C 0.216,0 0.41,0.146 0.465,0.363 0.529,0.62 0.372,0.879 0.116,0.944 -1.125,1.252 -2.914,1.78 -3.432,1.935 -3.693,2.01 -3.952,1.865 -4.028,1.613 -4.104,1.359 -3.96,1.093 -3.707,1.017 -3.183,0.862 -1.376,0.328 -0.116,0.014 -0.077,0.005 -0.037,0 0,0" /></g><g
           transform="translate(51.6871,70.345)"
           id="g176"><path
             id="path178"
             style="fill:#b15132;fill-opacity:1;fill-rule:nonzero;stroke:none"
             d="m 0,0 29.457,-5.913 c -5.2,-23.371 -13.179,-31.599 -14.695,-33.35 -1.516,-1.751 -8.698,-0.594 -8.698,-0.594 0,0 -2.827,-4.186 -6.702,-2.833 -3.883,1.357 -2.953,4.868 -2.953,4.868 0,0 -3.118,2.172 -4.299,5.077 C -9.356,-29.139 -3.97,-11.171 0,0" /></g><g
           transform="translate(57.7515,30.0088)"
           id="g180"><path
             id="path182"
             style="fill:#260f0f;fill-opacity:1;fill-rule:nonzero;stroke:none"
             d="m 0,0 c 0.147,0 0.293,0.069 0.386,0.197 4.622,6.335 9.137,20.715 9.328,21.325 0.078,0.252 -0.063,0.52 -0.316,0.6 -0.252,0.072 -0.52,-0.063 -0.6,-0.316 C 8.752,21.659 4.142,6.967 -0.387,0.761 -0.542,0.547 -0.496,0.248 -0.282,0.092 -0.197,0.03 -0.098,0 0,0" /></g><g
           transform="translate(48.0965,32.0435)"
           id="g184"><path
             id="path186"
             style="fill:#260f0f;fill-opacity:1;fill-rule:nonzero;stroke:none"
             d="M 0,0 C 0.233,0 0.438,0.171 0.474,0.408 1.49,7.201 6.376,18.848 6.426,18.965 6.528,19.208 6.415,19.488 6.17,19.592 5.925,19.692 5.647,19.581 5.543,19.336 5.34,18.855 0.561,7.463 -0.474,0.55 -0.512,0.288 -0.333,0.045 -0.071,0.005 -0.047,0.001 -0.022,0 0,0" /></g><g
           transform="translate(154.6214,90.1338)"
           id="g188"><path
             id="path190"
             style="fill:#5aa03e;fill-opacity:1;fill-rule:nonzero;stroke:none"
             d="M 0,0 C 12.906,15.181 -1.756,23.59 -1.756,23.59 -10.434,16.258 -2.833,6.234 0,0" /></g><g
           transform="translate(152.8654,83.65)"
           id="g192"><path
             id="path194"
             style="fill:#260f0f;fill-opacity:1;fill-rule:nonzero;stroke:none"
             d="M 0,0 C 0.18,0 0.352,0.102 0.434,0.276 4.943,9.896 1.26,24.46 1.102,25.075 1.035,25.331 0.77,25.483 0.519,25.419 0.263,25.353 0.108,25.091 0.174,24.836 0.213,24.689 3.929,9.988 -0.434,0.682 -0.546,0.443 -0.443,0.157 -0.203,0.045 -0.137,0.015 -0.069,0 0,0" /></g><g
           transform="translate(42.9356,72.9915)"
           id="g196"><path
             id="path198"
             style="fill:#b15132;fill-opacity:1;fill-rule:nonzero;stroke:none"
             d="m 0,0 c 13.371,-1.782 33.392,-5.243 48.648,-5.243 16.876,0 29.444,5.309 37.344,6.168 5.708,0.621 17.179,-0.212 25.381,-1.62 8.201,-1.408 22.255,-0.076 29.316,-2.055 7.061,-1.979 25.375,-9.931 34.671,-16.494 0,0 -0.894,-1.967 -2.054,-2.553 0,0 -24.238,12.169 -31.241,13.959 -4.092,1.046 -16.276,0.962 -22.51,1.991 -4.862,0.803 -19.201,-1.735 -26.587,-0.235 -7.474,1.517 -15.327,0.323 -23.946,-2.477 -17.801,-5.784 -59.661,-2.326 -74.793,0.977 -13.466,2.939 -45.802,-11.023 -61.281,-9.268 l -0.35,13.316 C -44.71,-3.225 -27.894,3.717 0,0" /></g><g
           transform="translate(145.071,82.9702)"
           id="g200"><path
             id="path202"
             style="fill:#b15132;fill-opacity:1;fill-rule:nonzero;stroke:none"
             d="m 0,0 c 5.798,2.057 29.219,9.278 33.872,18.973 0,0 0.614,0.297 0.823,0 C 30.136,4.291 16.412,4.57 7.227,-2.233 4.522,-4.237 2.422,-6.874 -0.265,-10.985 l -16.567,1.073 C -6.988,-6.77 -6.285,-2.23 0,0" /></g></g></g><g
       id="g204"><g
         clip-path="url(#clipPath210)"
         id="g206"><g
           transform="translate(-19.0647,61.4001)"
           id="g212"><path
             id="path214"
             style="fill:#260f0f;fill-opacity:1;fill-rule:nonzero;stroke:none"
             d="m 0,0 c 12.545,0 23.197,2.864 32.149,5.27 6.381,1.714 11.891,3.196 16.514,3.196 3.617,0 7.178,-0.424 10.319,-0.798 7.627,-0.907 13.649,-1.625 16.038,3.796 0.107,0.242 -0.003,0.525 -0.245,0.631 -0.239,0.11 -0.525,-0.001 -0.631,-0.244 C 72.037,7.077 66.325,7.756 59.096,8.619 55.928,8.996 52.337,9.423 48.663,9.423 43.914,9.423 38.347,7.927 31.901,6.194 20.467,3.121 6.236,-0.702 -11.13,1.733 -11.408,1.773 -11.634,1.586 -11.67,1.325 -11.707,1.064 -11.524,0.822 -11.262,0.786 -7.35,0.236 -3.597,0 0,0" /></g><g
           transform="translate(70.1594,59.0712)"
           id="g216"><path
             id="path218"
             style="fill:#260f0f;fill-opacity:1;fill-rule:nonzero;stroke:none"
             d="m 0,0 c 0.074,0 0.147,0.016 0.216,0.051 0.237,0.12 0.33,0.408 0.212,0.643 -1.746,3.448 -4.896,5.843 -8.874,6.748 -5.32,1.207 -11.287,-0.342 -16.382,-4.252 -0.21,-0.162 -0.25,-0.462 -0.089,-0.672 0.162,-0.208 0.463,-0.248 0.672,-0.088 4.869,3.738 10.549,5.226 15.586,4.078 C -4.965,5.668 -2.041,3.45 -0.428,0.263 -0.343,0.096 -0.175,0 0,0" /></g><g
           transform="translate(137.9664,78.0446)"
           id="g220"><path
             id="path222"
             style="fill:#260f0f;fill-opacity:1;fill-rule:nonzero;stroke:none"
             d="M 0,0 C 5.62,0 10.11,1.076 11.043,7.794 11.08,8.055 10.897,8.297 10.635,8.333 10.356,8.372 10.13,8.186 10.095,7.926 9.239,1.754 5.324,0.758 -2.081,0.997 h -0.016 c -0.257,0 -0.47,-0.204 -0.479,-0.462 C -2.585,0.271 -2.378,0.049 -2.113,0.04 -1.395,0.016 -0.688,0 0,0" /></g><g
           transform="translate(188.6528,61.9661)"
           id="g224"><path
             id="path226"
             style="fill:#260f0f;fill-opacity:1;fill-rule:nonzero;stroke:none"
             d="m 0,0 c 0.096,0 0.192,0.029 0.276,0.087 0.215,0.152 0.268,0.452 0.115,0.667 l -0.624,0.897 c -2.315,3.335 -3.712,5.348 -9.322,6.06 -5.95,0.761 -13.215,-3.762 -13.522,-3.954 -0.223,-0.141 -0.29,-0.437 -0.149,-0.661 0.142,-0.223 0.436,-0.29 0.661,-0.15 0.071,0.046 7.273,4.531 12.89,3.815 5.187,-0.658 6.346,-2.329 8.655,-5.656 L -0.391,0.203 C -0.298,0.071 -0.15,0 0,0" /></g><g
           transform="translate(95.55,64.1343)"
           id="g228"><path
             id="path230"
             style="fill:#260f0f;fill-opacity:1;fill-rule:nonzero;stroke:none"
             d="m 0,0 c 2.07,0 4.295,0.393 6.9,1.277 4.188,1.42 7.726,1.644 10.849,1.841 3.166,0.201 5.899,0.374 8.487,1.71 3.265,1.684 5.302,3.481 5.738,5.059 0.157,0.571 0.101,1.097 -0.165,1.524 -0.141,0.225 -0.438,0.291 -0.66,0.153 -0.224,-0.14 -0.293,-0.435 -0.153,-0.66 0.152,-0.243 0.113,-0.55 0.055,-0.764 C 30.881,9.527 30.031,7.862 25.797,5.678 23.387,4.435 20.746,4.268 17.688,4.074 14.506,3.872 10.901,3.644 6.593,2.184 -1.499,-0.565 -5.574,1.55 -13.697,5.751 l -0.489,0.254 c -0.232,0.119 -0.522,0.029 -0.644,-0.206 -0.123,-0.235 -0.03,-0.524 0.205,-0.645 l 0.489,-0.253 C -8.527,1.999 -4.662,0 0,0" /></g></g></g><g
       id="g232"><g
         clip-path="url(#clipPath238)"
         id="g234"><g
           transform="translate(145.7738,72.9589)"
           id="g240"><path
             id="path242"
             style="fill:#260f0f;fill-opacity:1;fill-rule:nonzero;stroke:none"
             d="M 0,0 C 0.246,0 0.455,0.188 0.477,0.436 0.5,0.701 0.305,0.933 0.042,0.956 -0.238,0.98 -6.839,1.559 -9.418,1.601 -9.645,1.596 -9.901,1.394 -9.904,1.13 -9.908,0.865 -9.697,0.648 -9.433,0.643 -6.888,0.602 -0.11,0.008 -0.042,0.001 -0.027,0 -0.014,0 0,0" /></g><g
           transform="translate(83.1296,60.8453)"
           id="g244"><path
             id="path246"
             style="fill:#260f0f;fill-opacity:1;fill-rule:nonzero;stroke:none"
             d="M 0,0 C 0.333,0 0.663,0.001 0.996,0.003 1.26,0.004 1.474,0.219 1.472,0.484 1.471,0.747 1.257,0.96 0.994,0.96 H 0.991 C 0.662,0.959 0.329,0.958 -0.003,0.958 c -17.678,0 -36.716,2.078 -45.86,4.074 -0.263,0.055 -0.513,-0.107 -0.569,-0.365 -0.056,-0.258 0.107,-0.514 0.365,-0.57 C -36.875,2.09 -17.745,0 0,0" /></g><g
           transform="translate(67.2594,69.1338)"
           id="g248"><path
             id="path250"
             style="fill:#260f0f;fill-opacity:1;fill-rule:nonzero;stroke:none"
             d="M 0,0 C 0.238,0 0.445,0.177 0.475,0.419 0.507,0.682 0.322,0.921 0.06,0.954 -5.192,1.611 -10.483,2.374 -15.152,3.048 l -3.944,0.566 c -0.258,0.049 -0.503,-0.144 -0.541,-0.406 -0.037,-0.262 0.145,-0.504 0.407,-0.541 L -15.288,2.1 C -10.616,1.426 -5.32,0.662 -0.06,0.004 -0.039,0.001 -0.019,0 0,0" /></g><g
           transform="translate(196.9573,54.8772)"
           id="g252"><path
             id="path254"
             style="fill:#5aa03e;fill-opacity:1;fill-rule:nonzero;stroke:none"
             d="M 0,0 C 13.479,-12.484 -3.238,-24.968 -3.238,-24.968 -1.597,-18.923 -12.793,-7.194 0,0" /></g><g
           transform="translate(196.2681,37.9284)"
           id="g256"><path
             id="path258"
             style="fill:#260f0f;fill-opacity:1;fill-rule:nonzero;stroke:none"
             d="m 0,0 c 0.185,0 0.359,0.107 0.439,0.285 0.05,0.115 4.905,11.499 -2.313,24.131 -0.13,0.23 -0.421,0.309 -0.653,0.177 C -2.757,24.462 -2.836,24.17 -2.704,23.939 4.265,11.742 -0.39,0.78 -0.439,0.671 -0.545,0.429 -0.434,0.147 -0.192,0.04 -0.13,0.012 -0.065,0 0,0" /></g><g
           transform="translate(74.5612,68.7737)"
           id="g260"><path
             id="path262"
             style="fill:#ffb737;fill-opacity:1;fill-rule:nonzero;stroke:none"
             d="m 0,0 c 3.277,3.925 9.291,2.17 10.903,-0.982 1.611,-3.152 1.93,-8.588 -0.783,-10.386 -2.245,-1.487 -4.134,1.04 -4.134,1.04 C 3.717,-13.23 0.346,-9.56 0.346,-9.56 4.415,-4.29 3.617,-0.025 0,0" /></g><g
           transform="translate(80.5475,57.9677)"
           id="g264"><path
             id="path266"
             style="fill:#260f0f;fill-opacity:1;fill-rule:nonzero;stroke:none"
             d="M 0,0 C 0.1,0 0.199,0.031 0.285,0.095 4.268,3.053 2.643,7.4 2.626,7.443 2.53,7.689 2.258,7.81 2.007,7.716 1.762,7.622 1.638,7.345 1.733,7.098 1.79,6.947 3.101,3.379 -0.286,0.863 -0.498,0.706 -0.542,0.405 -0.384,0.193 -0.29,0.067 -0.146,0 0,0" /></g><g
           transform="translate(93.0793,67.7629)"
           id="g268"><path
             id="path270"
             style="fill:#ffb737;fill-opacity:1;fill-rule:nonzero;stroke:none"
             d="M 0,0 C 3.412,5.265 10.244,3.949 12.029,1.525 13.815,-0.899 15.341,-6.574 11.65,-8.589 10.38,-9.282 8.957,-8.286 8.957,-8.286 7.451,-10.826 4.04,-8.828 4.04,-8.828 7.451,-3.422 4.589,0.627 0,0" /></g><g
           transform="translate(102.0369,58.9976)"
           id="g272"><path
             id="path274"
             style="fill:#260f0f;fill-opacity:1;fill-rule:nonzero;stroke:none"
             d="M 0,0 C 0.117,0 0.234,0.042 0.327,0.128 2.234,1.904 1.531,6.506 0.916,8.125 0.823,8.372 0.547,8.498 0.299,8.403 0.052,8.31 -0.072,8.033 0.021,7.786 0.652,6.122 1.102,2.158 -0.327,0.829 -0.52,0.65 -0.531,0.347 -0.35,0.152 -0.256,0.051 -0.128,0 0,0" /></g><g
           transform="translate(490.7079,562.24)"
           id="g276"><path
             id="path278"
             style="fill:#006646;fill-opacity:1;fill-rule:nonzero;stroke:none"
             d="m 0,0 c -37.214,-0.002 -68.555,13.299 -88.651,37.738 -22.895,27.841 -29.174,67.949 -18.155,115.987 0.282,1.227 1.505,1.996 2.731,1.713 1.228,-0.282 1.996,-1.505 1.714,-2.733 -10.691,-46.609 -4.732,-85.363 17.233,-112.071 C -65.069,16.24 -33.13,3.461 4.8,4.636 6.075,4.718 7.11,3.687 7.15,2.428 7.19,1.169 6.201,0.116 4.942,0.078 3.285,0.026 1.635,0 0,0" /></g><g
           transform="translate(377.8108,639.9893)"
           id="g280"><path
             id="path282"
             style="fill:#5aa03e;fill-opacity:1;fill-rule:nonzero;stroke:none"
             d="M 0,0 C -15.25,-2.982 -19.927,-17.219 -19.927,-17.219 0.855,-14.796 0,0 0,0" /></g><g
           transform="translate(376.9081,642.7706)"
           id="g284"><path
             id="path286"
             style="fill:#5aa03e;fill-opacity:1;fill-rule:nonzero;stroke:none"
             d="M 0,0 C -9.881,-2.66 -16.912,2.755 -16.912,2.755 -7.411,10.927 0,0 0,0" /></g><g
           transform="translate(455.9703,634.7733)"
           id="g288"><path
             id="path290"
             style="fill:#006646;fill-opacity:1;fill-rule:nonzero;stroke:none"
             d="m 0,0 c -12.184,-0.001 -23.274,3.173 -32.591,9.495 -18.697,12.682 -28.992,36.682 -28.992,67.577 0,1.259 1.021,2.28 2.28,2.28 1.259,0 2.281,-1.021 2.281,-2.28 0,-29.336 9.585,-51.995 26.991,-63.804 C -14.123,2.476 7.611,1.696 31.164,11.066 32.33,11.535 33.661,10.961 34.126,9.791 34.592,8.62 34.021,7.294 32.851,6.829 21.394,2.271 10.304,0 0,0" /></g><g
           transform="translate(349.0694,726.8569)"
           id="g292"><path
             id="path294"
             style="fill:#5aa03e;fill-opacity:1;fill-rule:nonzero;stroke:none"
             d="m 0,0 c 6.58,-11.378 -4.38,-20.565 -2.16,-27.666 2.683,-8.581 9.951,-15.565 27.908,-11.717 0,0 1.853,-14.679 15.963,-14.679 9.192,0 31.177,14.668 36.342,13.967 12.712,-1.727 19.525,-14.49 37.485,-19.184 17.04,-4.454 30.022,13.673 30.022,13.673 21.662,-19.003 35.534,3.818 35.534,3.818 C 221.76,-28.314 156.011,7.221 156.011,7.221 133.968,55.107 70.879,14.252 70.879,14.252 25.82,64.419 -16.532,5.511 0,0" /></g><g
           transform="translate(437.6688,713.1275)"
           id="g296"><path
             id="path298"
             style="fill:#006646;fill-opacity:1;fill-rule:nonzero;stroke:none"
             d="M 0,0 C -12.399,-31.069 29.501,-15.25 29.501,-15.25 -6.556,-18.527 0,0 0,0" /></g><g
           transform="translate(390.7798,672.2246)"
           id="g300"><path
             id="path302"
             style="fill:#260f0f;fill-opacity:1;fill-rule:nonzero;stroke:none"
             d="m 0,0 c -14.445,0 -16.508,15.026 -16.528,15.178 -0.04,0.312 0.181,0.597 0.495,0.637 0.316,0.033 0.596,-0.182 0.637,-0.493 C -15.322,14.743 -13.431,1.14 0,1.14 c 4.846,0 13.553,4.291 21.234,8.076 6.787,3.344 12.644,6.229 15.186,5.886 0.311,-0.042 0.53,-0.33 0.488,-0.641 C 36.865,14.148 36.59,13.927 36.265,13.972 34.068,14.278 28.078,11.318 21.739,8.193 13.945,4.353 5.111,0 0,0" /></g><g
           transform="translate(445.3649,685.9063)"
           id="g304"><path
             id="path306"
             style="fill:#5aa03e;fill-opacity:1;fill-rule:nonzero;stroke:none"
             d="M 0,0 C -16.247,-6.128 -11.259,-19.033 -11.259,-19.033 1.568,-15.535 0,0 0,0" /></g><g
           transform="translate(363.844,694.5854)"
           id="g308"><path
             id="path310"
             style="fill:#5aa03e;fill-opacity:1;fill-rule:nonzero;stroke:none"
             d="M 0,0 C -16.247,-6.128 -11.259,-19.033 -11.259,-19.033 1.568,-15.535 0,0 0,0" /></g><g
           transform="translate(358.8922,692.5875)"
           id="g312"><path
             id="path314"
             style="fill:#5aa03e;fill-opacity:1;fill-rule:nonzero;stroke:none"
             d="M 0,0 C -2.149,-17.231 11.593,-18.831 11.593,-18.831 14.475,-5.852 0,0 0,0" /></g><g
           transform="translate(27.6094,652.7984)"
           id="g316"><path
             id="path318"
             style="fill:#006646;fill-opacity:1;fill-rule:nonzero;stroke:none"
             d="m 0,0 c -10.927,0 -25.994,3.048 -42.621,15.209 -0.846,0.619 -1.03,1.807 -0.412,2.653 0.62,0.847 1.807,1.031 2.654,0.412 C -21.979,4.815 -5.712,3.089 4.7,4.001 c 12.498,1.102 23.65,6.815 29.832,15.283 6.256,8.57 8.588,20.675 10.646,31.355 2.008,10.43 3.743,19.438 8.526,24.695 0.707,0.776 1.905,0.832 2.681,0.126 0.775,-0.705 0.832,-1.905 0.126,-2.681 C 52.448,68.311 50.727,59.378 48.905,49.921 46.773,38.85 44.356,26.302 37.599,17.046 30.78,7.706 18.606,1.416 5.033,0.219 3.475,0.082 1.793,0 0,0" /></g><g
           transform="translate(16.3693,618.6882)"
           id="g320"><path
             id="path322"
             style="fill:#006646;fill-opacity:1;fill-rule:nonzero;stroke:none"
             d="m 0,0 c -9.385,0 -19.449,0.981 -30.131,2.956 -1.031,0.191 -1.712,1.181 -1.521,2.212 0.191,1.031 1.181,1.714 2.212,1.521 38.704,-7.155 68.892,-0.978 87.298,17.869 17.8,18.229 23.918,48.198 16.785,82.222 -0.215,1.026 0.443,2.033 1.469,2.248 1.018,0.213 2.033,-0.442 2.246,-1.469 C 85.756,72.275 79.273,41.056 60.574,21.906 46.404,7.395 25.768,0 0,0" /></g><g
           transform="translate(116.3714,725.496)"
           id="g324"><path
             id="path326"
             style="fill:#5aa03e;fill-opacity:1;fill-rule:nonzero;stroke:none"
             d="m 0,0 c 11.033,-16.728 13.001,-25.622 -6.071,-24.228 -9.312,0.681 -30.941,3.418 -30.941,3.418 -6.33,-9.205 -19.38,1.314 -26.516,1.875 4.131,-7.521 -4.345,-7.381 -13.533,-12.137 -9.187,-4.756 -7.724,-9.857 -15.323,-12.707 -4.698,-1.762 -25.777,-1.579 -25.777,-1.579 -10.736,-10.934 -24.835,6.169 -13.288,11.428 -19.812,31.676 10.71,39.11 10.71,39.11 -6.552,31.856 42.09,35.512 56.913,13.446 3.203,7.948 9.254,2.61 9.254,2.61 C -33.093,45.438 6.163,20.05 0,0" /></g><g
           transform="translate(34.0381,727.1175)"
           id="g328"><path
             id="path330"
             style="fill:#006646;fill-opacity:1;fill-rule:nonzero;stroke:none"
             d="m 0,0 c 6.09,-8.7 -6.169,-6.169 -6.169,-6.169 8.067,-7.909 -13.129,-7.909 -13.129,-7.909 C -0.316,-19.456 -2.452,-8.7 -2.452,-8.7 11.943,-9.254 0,0 0,0" /></g><g
           transform="translate(72.172,700.4301)"
           id="g332"><path
             id="path334"
             style="fill:#260f0f;fill-opacity:1;fill-rule:nonzero;stroke:none"
             d="m 0,0 c -3.68,0 -7.783,1.661 -11.603,3.208 -2.899,1.174 -5.639,2.283 -7.763,2.45 -0.262,0.021 -0.456,0.249 -0.436,0.51 0.021,0.262 0.256,0.45 0.51,0.437 2.27,-0.179 5.075,-1.315 8.046,-2.518 6.507,-2.634 13.877,-5.618 18.043,0.438 0.1,0.146 0.275,0.224 0.45,0.202 C 7.463,4.7 28.969,1.983 38.162,1.311 38.424,1.292 38.62,1.065 38.601,0.803 38.581,0.543 38.384,0.346 38.093,0.365 29.453,0.997 9.993,3.426 7.411,3.749 5.405,0.981 2.827,0 0,0" /></g><g
           transform="translate(30.9855,692.3984)"
           id="g336"><path
             id="path338"
             style="fill:#5aa03e;fill-opacity:1;fill-rule:nonzero;stroke:none"
             d="M 0,0 C 7.504,-12.354 17.298,-6.296 17.298,-6.296 12.47,3.663 0,0 0,0" /></g><g
           transform="translate(104.6043,711.5181)"
           id="g340"><path
             id="path342"
             style="fill:#5aa03e;fill-opacity:1;fill-rule:nonzero;stroke:none"
             d="M 0,0 C -5.543,-13.35 5.129,-17.679 5.129,-17.679 10.318,-7.904 0,0 0,0" /></g><g
           transform="translate(32.7721,694.7348)"
           id="g344"><path
             id="path346"
             style="fill:#5aa03e;fill-opacity:1;fill-rule:nonzero;stroke:none"
             d="M 0,0 C -9.184,-11.162 -0.232,-18.406 -0.232,-18.406 7.574,-10.562 0,0 0,0" /></g><g
           transform="translate(88.9954,651.0432)"
           id="g348"><path
             id="path350"
             style="fill:#ffd78b;fill-opacity:1;fill-rule:nonzero;stroke:none"
             d="m 0,0 c -1.541,3.288 -4.807,6.799 -4.807,6.799 l -6.022,-4.77 C -8.343,-1.791 -6,-4.832 -6,-4.832 Z" /></g><g
           transform="translate(79.351,650.8484)"
           id="g352"><path
             id="path354"
             style="fill:#ffd78b;fill-opacity:1;fill-rule:nonzero;stroke:none"
             d="M 0,0 C 2.817,-1.065 2.736,1.589 2.736,1.589 5.337,1.178 4.985,3.48 4.985,3.48 6.32,3.48 7.225,4.295 6.711,5.672 5.958,7.689 2.736,9.706 0.082,6.37 -1.677,4.158 -1.949,0.737 0,0" /></g><g
           transform="translate(80.5368,650.2675)"
           id="g356"><path
             id="path358"
             style="fill:#260f0f;fill-opacity:1;fill-rule:nonzero;stroke:none"
             d="m 0,0 c -0.385,0 -0.819,0.091 -1.302,0.274 -0.17,0.064 -0.255,0.253 -0.191,0.423 0.064,0.17 0.252,0.256 0.424,0.191 C -0.284,0.591 0.304,0.581 0.684,0.851 1.234,1.244 1.222,2.151 1.221,2.16 1.218,2.258 1.259,2.352 1.332,2.417 1.406,2.482 1.505,2.509 1.601,2.495 2.314,2.382 2.828,2.479 3.134,2.781 3.582,3.224 3.475,4.004 3.474,4.012 3.46,4.106 3.488,4.203 3.551,4.275 3.613,4.347 3.704,4.389 3.799,4.389 4.429,4.389 4.93,4.59 5.173,4.94 5.382,5.241 5.398,5.655 5.217,6.138 5.154,6.308 5.24,6.497 5.41,6.561 5.578,6.623 5.769,6.538 5.833,6.367 6.16,5.491 5.948,4.903 5.714,4.565 5.397,4.109 4.835,3.82 4.143,3.749 4.136,3.367 4.046,2.76 3.6,2.317 3.199,1.918 2.617,1.745 1.855,1.803 1.801,1.384 1.625,0.715 1.066,0.316 0.771,0.105 0.414,0 0,0" /></g><g
           transform="translate(82.0865,652.1088)"
           id="g360"><path
             id="path362"
             style="fill:#260f0f;fill-opacity:1;fill-rule:nonzero;stroke:none"
             d="M 0,0 C -0.086,0 -0.171,0.033 -0.236,0.1 -1.463,1.365 -3.734,2.346 -3.757,2.355 -3.924,2.427 -4.001,2.62 -3.93,2.787 -3.859,2.955 -3.665,3.031 -3.498,2.96 -3.401,2.918 -1.084,1.918 0.236,0.558 0.362,0.427 0.36,0.219 0.229,0.093 0.165,0.031 0.082,0 0,0" /></g><g
           transform="translate(84.3358,653.9993)"
           id="g364"><path
             id="path366"
             style="fill:#260f0f;fill-opacity:1;fill-rule:nonzero;stroke:none"
             d="M 0,0 C -0.102,0 -0.202,0.047 -0.266,0.136 -1.581,1.953 -4.066,3.2 -4.092,3.213 -4.255,3.293 -4.32,3.49 -4.24,3.653 -4.159,3.817 -3.961,3.88 -3.799,3.802 -3.691,3.748 -1.141,2.469 0.266,0.521 0.372,0.374 0.34,0.169 0.193,0.063 0.134,0.02 0.067,0 0,0" /></g><g
           transform="translate(82.793,646.2111)"
           id="g368"><path
             id="path370"
             style="fill:#ffd78b;fill-opacity:1;fill-rule:nonzero;stroke:none"
             d="M 0,0 C 0,0 -3.797,1.166 -4.339,2.363 -5.027,3.88 -4.38,5.928 -3.748,6.452 -2.63,7.379 -0.314,7.487 0.257,6.802 0.942,5.98 -1.125,4.973 -1.319,4.809 -1.512,4.644 -1.029,2.774 -1.029,2.774 L 1.127,1.623 Z" /></g><g
           transform="translate(81.7638,648.6566)"
           id="g372"><path
             id="path374"
             style="fill:#260f0f;fill-opacity:1;fill-rule:nonzero;stroke:none"
             d="m 0,0 c -0.146,0 -0.28,0.098 -0.319,0.247 -0.534,2.069 -0.323,2.248 -0.184,2.367 0.039,0.032 0.135,0.094 0.269,0.175 C 0.077,2.977 1.023,3.548 1.093,3.963 1.101,4.011 1.099,4.067 1.033,4.146 0.62,4.643 -1.48,4.608 -2.509,3.754 -2.672,3.618 -2.855,3.303 -2.996,2.912 -3.058,2.742 -3.243,2.655 -3.417,2.715 c -0.171,0.062 -0.259,0.25 -0.197,0.421 0.184,0.511 0.428,0.91 0.686,1.124 1.2,0.995 3.747,1.169 4.467,0.307 C 1.714,4.356 1.784,4.11 1.741,3.854 1.622,3.141 0.636,2.546 0.106,2.226 0.062,2.199 0.024,2.176 -0.008,2.157 -0.011,1.879 0.148,1.071 0.319,0.411 0.364,0.235 0.258,0.056 0.082,0.01 0.055,0.003 0.027,0 0,0" /></g><g
           transform="translate(67.9943,547.3634)"
           id="g376"><path
             id="path378"
             style="fill:#ffd78b;fill-opacity:1;fill-rule:nonzero;stroke:none"
             d="m 0,0 c 0.164,-2.603 -0.793,-3.359 -1.973,-4.493 -0.986,-0.949 -2.323,-1.836 -2.939,-4.466 -0.617,-2.63 -1.54,-3.589 -2.904,-2.713 -0.937,0.602 -0.781,4.193 -0.781,4.193 0,0 -0.041,-4.373 -1.932,-3.784 -1.277,0.398 -0.822,4.729 -0.822,4.729 0,0 -0.282,-4.724 -2.513,-3.11 -1.287,0.931 -0.712,5.753 3.096,9.178 C -5.882,3.927 0,0 0,0" /></g><g
           transform="translate(59.5023,537.0748)"
           id="g380"><path
             id="path382"
             style="fill:#260f0f;fill-opacity:1;fill-rule:nonzero;stroke:none"
             d="M 0,0 C -0.178,0 -0.324,0.141 -0.329,0.32 -0.405,3.179 0.384,4.755 0.418,4.821 0.5,4.983 0.697,5.046 0.86,4.964 1.021,4.882 1.086,4.684 1.004,4.523 0.996,4.508 0.257,3.014 0.329,0.337 0.334,0.156 0.19,0.005 0.009,0 Z" /></g><g
           transform="translate(56.2324,538.1579)"
           id="g384"><path
             id="path386"
             style="fill:#260f0f;fill-opacity:1;fill-rule:nonzero;stroke:none"
             d="M 0,0 H -0.005 C -0.187,0.003 -0.331,0.152 -0.329,0.334 -0.287,3.098 0.462,4.461 0.494,4.517 0.583,4.675 0.78,4.732 0.941,4.643 1.099,4.555 1.156,4.355 1.068,4.196 1.061,4.183 0.368,2.903 0.329,0.324 0.326,0.144 0.179,0 0,0" /></g><g
           transform="translate(103.8908,529.2516)"
           id="g388"><path
             id="path390"
             style="fill:#b15132;fill-opacity:1;fill-rule:nonzero;stroke:none"
             d="m 0,0 c -0.042,0 -0.083,0.001 -0.125,0.001 -6.126,0.053 -10.777,2.045 -13.449,5.76 -2.908,4.043 -3.226,9.923 -0.918,17.005 3.952,12.133 -0.739,17.445 -10.779,23.002 -0.635,0.352 -0.866,1.152 -0.514,1.788 0.352,0.636 1.153,0.865 1.788,0.513 10.73,-5.939 16.48,-12.38 12.005,-26.118 -2.037,-6.252 -1.845,-11.319 0.553,-14.654 2.163,-3.007 6.083,-4.62 11.336,-4.666 0.035,0 0.07,-10e-4 0.104,-10e-4 6.326,0 12.972,4.975 13.207,9.913 0.034,0.724 0.627,1.288 1.376,1.251 0.725,-0.035 1.286,-0.65 1.251,-1.376 C 15.536,6.119 7.714,0 0,0" /></g><g
           transform="translate(109.6952,574.0823)"
           id="g392"><path
             id="path394"
             style="fill:#ffd78b;fill-opacity:1;fill-rule:nonzero;stroke:none"
             d="m 0,0 c 1.107,-2.361 2.31,-2.563 3.89,-2.991 1.321,-0.358 2.92,-0.493 4.725,-2.502 1.805,-2.01 3.076,-2.407 3.851,-0.982 0.531,0.977 -1.331,4.051 -1.331,4.051 0,0 2.138,-3.815 3.512,-2.389 0.929,0.963 -1.553,4.542 -1.553,4.542 0,0 2.519,-4.007 3.699,-1.519 0.681,1.436 -2.142,5.387 -7.128,6.559 C 3.269,6.272 0,0 0,0" /></g><g
           transform="translate(121.9303,569.1035)"
           id="g396"><path
             id="path398"
             style="fill:#260f0f;fill-opacity:1;fill-rule:nonzero;stroke:none"
             d="m 0,0 c -0.119,0 -0.234,0.065 -0.293,0.179 -1.223,2.382 -2.59,3.335 -2.604,3.345 -0.149,0.103 -0.188,0.307 -0.086,0.457 0.101,0.149 0.307,0.188 0.455,0.087 C -2.466,4.026 -1.015,3.024 0.293,0.479 0.375,0.318 0.312,0.119 0.151,0.036 0.102,0.012 0.051,0 0,0" /></g><g
           transform="translate(124.2763,571.6259)"
           id="g400"><path
             id="path402"
             style="fill:#260f0f;fill-opacity:1;fill-rule:nonzero;stroke:none"
             d="M 0,0 C -0.114,0 -0.225,0.06 -0.286,0.167 -1.56,2.409 -2.784,3.198 -2.796,3.206 -2.949,3.302 -2.995,3.505 -2.899,3.659 -2.803,3.812 -2.602,3.86 -2.447,3.763 -2.392,3.729 -1.08,2.894 0.286,0.491 0.376,0.333 0.32,0.133 0.163,0.043 0.111,0.014 0.056,0 0,0" /></g><g
           transform="translate(39.7149,569.9537)"
           id="g404"><path
             id="path406"
             style="fill:#ffd78b;fill-opacity:1;fill-rule:nonzero;stroke:none"
             d="m 0,0 c -1.434,-3.74 -0.613,-8.179 0.456,-9.494 1.069,-1.315 3.637,-1.438 3.637,-1.438 2.322,-0.945 2.857,0.945 2.857,0.945 1.274,-0.657 3.061,-0.288 2.26,1.5 -1.21,2.698 -1.767,4.911 -1.767,4.911 0,0 3.552,-2.445 4.046,-0.986 0.495,1.459 -5.053,6.329 -5.053,6.329 z" /></g><g
           transform="translate(46.6643,559.6381)"
           id="g408"><path
             id="path410"
             style="fill:#260f0f;fill-opacity:1;fill-rule:nonzero;stroke:none"
             d="m 0,0 c -0.097,0 -0.193,0.043 -0.258,0.125 -0.877,1.107 -2.204,3.972 -2.26,4.094 -0.076,0.164 -0.004,0.36 0.161,0.436 0.163,0.077 0.359,0.004 0.437,-0.161 C -1.908,4.465 -0.571,1.579 0.258,0.533 0.371,0.391 0.347,0.184 0.204,0.071 0.144,0.023 0.072,0 0,0" /></g><g
           transform="translate(43.808,558.6928)"
           id="g412"><path
             id="path414"
             style="fill:#260f0f;fill-opacity:1;fill-rule:nonzero;stroke:none"
             d="m 0,0 c -0.057,0 -0.116,0.015 -0.169,0.046 -2.061,1.23 -2.449,3.598 -2.464,3.699 -0.028,0.179 0.095,0.346 0.274,0.374 0.181,0.029 0.347,-0.094 0.376,-0.273 C -1.98,3.824 -1.622,1.679 0.169,0.611 0.325,0.518 0.375,0.316 0.283,0.161 0.221,0.057 0.111,0 0,0" /></g><g
           transform="translate(117.0731,578.6846)"
           id="g416"><path
             id="path418"
             style="fill:#b15132;fill-opacity:1;fill-rule:nonzero;stroke:none"
             d="m 0,0 c -0.184,-0.991 -3.323,-0.921 -3.323,-0.921 0,0 1.666,-1.525 1.412,-2.332 -0.298,-0.955 -3.209,-0.464 -3.209,-0.464 0,0 1.175,-2.692 0.359,-3.209 -0.868,-0.553 -1.946,0.359 -3.042,1.411 -4.454,4.261 -3.516,10.512 -8.066,11.994 -3.595,1.166 -7.725,-2.323 -14.318,-6.409 -3.498,-3.358 -9.837,-6.4 -15.001,-7.251 -10.644,-4.796 -3.297,-16.816 -3.56,-22.743 0.062,-1.666 -0.307,-2.832 -0.903,-3.095 -0.596,-0.272 -1.692,1.938 -2.411,2.201 -0.719,0.272 -2.043,-2.516 -2.622,-2.613 -0.569,-0.105 -0.911,2.017 -1.507,2.262 -0.597,0.246 -3.63,-1.499 -4.051,-1.069 -0.289,0.289 0.087,0.841 1.14,1.876 0.876,1.35 -2.709,8.802 -2.087,14.466 0.57,5.173 3.472,9.61 5.243,11.565 -6.12,4.147 -4.454,10.609 -6.725,20.551 -8.986,-2.911 -8.82,-13.818 -7.584,-22.918 0.668,-0.923 0.566,-2.658 0.158,-2.762 -0.846,-0.216 -1.742,1.02 -1.935,1.099 -0.193,0.088 -0.774,-1.836 -1.511,-2.116 -0.745,-0.29 -1.599,1.802 -1.818,1.89 -0.219,0.079 -1.336,-2.199 -2.486,-1.882 -0.509,0.141 0.052,1.807 0.245,2.789 0,0 -4.752,17.447 2.876,26.197 2.604,2.981 7.628,5.532 12.204,6.278 1.692,3.665 4.288,6.339 8.137,7.996 5.699,2.463 8.653,1.341 13.098,-0.965 10.758,7.54 10.434,31.651 7.742,34.238 -2.849,2.744 0.808,2.942 0.808,2.942 0,0 -0.889,2.142 -0.387,2.485 0.662,0.452 2.429,0 2.429,0 0,0 -0.075,1.701 1.227,1.701 2.192,-10e-4 2.288,-2.28 3.63,-4.498 2.797,-4.603 10.451,-28.214 -9.101,-43.68 0.982,-5.085 5.34,-4.98 6.33,-13.274 4.481,5.997 12.985,6.12 16.685,4.603 C -6.146,13.967 -3.665,6.251 -2.543,1.745 -2.271,0.649 0.193,0.999 0,0" /></g><g
           transform="translate(67.5559,599.611)"
           id="g420"><path
             id="path422"
             style="fill:#ffd78b;fill-opacity:1;fill-rule:nonzero;stroke:none"
             d="m 0,0 c -9.699,-3.123 -6.213,-22.465 1.754,-25.458 5.068,-1.905 13.805,1.273 15.37,6.527 C 19.426,-11.204 8.004,2.577 0,0" /></g><g
           transform="translate(86.6271,587.3939)"
           id="g424"><path
             id="path426"
             style="fill:#260f0f;fill-opacity:1;fill-rule:nonzero;stroke:none"
             d="m 0,0 c -0.026,0 -0.052,0.003 -0.079,0.01 -0.175,0.043 -0.283,0.22 -0.24,0.396 0.014,0.059 0.37,1.472 1.934,2.866 C 1.753,3.393 1.959,3.38 2.08,3.245 2.2,3.11 2.188,2.902 2.053,2.781 0.652,1.532 0.323,0.262 0.319,0.25 0.282,0.1 0.147,0 0,0" /></g><g
           transform="translate(74.4951,611.1614)"
           id="g428"><path
             id="path430"
             style="fill:#260f0f;fill-opacity:1;fill-rule:nonzero;stroke:none"
             d="m 0,0 c -3.77,1.84 -6.679,2.531 -11.807,0.314 -3.849,-1.657 -6.445,-4.331 -8.137,-7.996 -1.21,-0.197 -2.452,-0.524 -3.672,-0.948 C -12.312,-15.467 0,-7.453 0,0" /></g><g
           transform="translate(73.7773,633.2858)"
           id="g432"><path
             id="path434"
             style="fill:#ffd78b;fill-opacity:1;fill-rule:nonzero;stroke:none"
             d="m 0,0 3.752,-12.465 c 6.925,-2.293 11.341,2.909 10.784,9.259 C 13.944,3.556 6.666,6.576 0,0" /></g><g
           transform="translate(74.7394,629.7591)"
           id="g436"><path
             id="path438"
             style="fill:#260f0f;fill-opacity:1;fill-rule:nonzero;stroke:none"
             d="M 0,0 C -0.074,0 -0.149,0.025 -0.21,0.076 -0.35,0.192 -0.369,0.399 -0.253,0.539 1.668,2.849 4.489,4.375 6.934,4.426 8.113,4.442 9.102,4.104 9.693,3.451 9.815,3.316 9.804,3.108 9.669,2.986 9.535,2.864 9.328,2.875 9.205,3.01 8.745,3.519 7.962,3.793 6.948,3.769 5.23,3.733 2.444,2.756 0.253,0.119 0.187,0.04 0.094,0 0,0" /></g><g
           transform="translate(82.1319,628.9706)"
           id="g440"><path
             id="path442"
             style="fill:#260f0f;fill-opacity:1;fill-rule:nonzero;stroke:none"
             d="M 0,0 C -0.122,0 -0.239,0.068 -0.295,0.185 -1.738,3.149 -4.693,3.07 -4.815,3.069 -5.033,3.058 -5.149,3.203 -5.156,3.384 -5.164,3.565 -5.023,3.718 -4.842,3.725 -4.8,3.73 -1.341,3.835 0.295,0.473 0.375,0.31 0.307,0.113 0.144,0.033 0.098,0.011 0.049,0 0,0" /></g><g
           transform="translate(42.6316,624.6115)"
           id="g444"><path
             id="path446"
             style="fill:#ffd78b;fill-opacity:1;fill-rule:nonzero;stroke:none"
             d="m 0,0 0.969,-12.981 c -5.642,-4.624 -11.63,-1.352 -13.388,4.775 C -14.292,-1.683 -8.581,3.747 0,0" /></g><g
           transform="translate(33.0193,620.271)"
           id="g448"><path
             id="path450"
             style="fill:#260f0f;fill-opacity:1;fill-rule:nonzero;stroke:none"
             d="M 0,0 C -0.039,0 -0.08,0.007 -0.119,0.022 -0.288,0.087 -0.372,0.278 -0.307,0.447 0.011,1.27 0.801,1.945 1.92,2.348 4.221,3.177 7.401,2.764 10.022,1.297 10.18,1.209 10.236,1.008 10.147,0.85 10.059,0.69 9.859,0.634 9.7,0.724 6.71,2.398 3.761,2.312 2.143,1.729 1.206,1.392 0.554,0.852 0.307,0.21 0.256,0.08 0.132,0 0,0" /></g><g
           transform="translate(36.263,617.5646)"
           id="g452"><path
             id="path454"
             style="fill:#260f0f;fill-opacity:1;fill-rule:nonzero;stroke:none"
             d="M 0,0 C -0.009,0 -0.019,0 -0.029,0.001 -0.21,0.017 -0.344,0.176 -0.328,0.357 -0.007,4.081 3.269,5.225 3.302,5.237 3.473,5.293 3.659,5.202 3.718,5.03 3.776,4.859 3.683,4.672 3.512,4.614 3.394,4.573 0.61,3.586 0.327,0.3 0.313,0.129 0.169,0 0,0" /></g><g
           transform="translate(65.3445,603.1089)"
           id="g456"><path
             id="path458"
             style="fill:#b15132;fill-opacity:1;fill-rule:nonzero;stroke:none"
             d="m 0,0 c -9.648,-2.705 -21.996,3.767 -24.095,11.251 -2.099,7.485 2.479,19.803 14.446,23.158 C 2.319,37.765 12.634,29.624 14.732,22.139 16.831,14.654 9.648,2.705 0,0" /></g><g
           transform="translate(68.2674,637.0276)"
           id="g460"><path
             id="path462"
             style="fill:#b15132;fill-opacity:1;fill-rule:nonzero;stroke:none"
             d="m 0,0 c -3.133,0.888 -6.479,7.519 -9.315,3.163 0,0 -4.644,4.603 -8.578,1.871 -2.604,-1.808 0.604,-3.667 0.604,-3.667 -5.424,-0.67 -3.927,-5.219 -0.875,-4.73 z" /></g><g
           transform="translate(73.3781,620.1519)"
           id="g464"><path
             id="path466"
             style="fill:#ffd78b;fill-opacity:1;fill-rule:nonzero;stroke:none"
             d="m 0,0 c 4.891,15.271 -11.991,18.144 -15.328,8.154 -11.252,8.661 -20.227,-7.024 -8.92,-14.706 -3.267,-1.644 -2.792,-6.126 -0.551,-7.659 4.859,-2.925 11.252,-4.378 16.765,-2.832 5.546,1.555 10.274,6.164 12.896,11.224 C 6.74,-2.258 3.277,1.54 0,0" /></g><g
           transform="translate(68.5062,620.5069)"
           id="g468"><path
             id="path470"
             style="fill:#ffffff;fill-opacity:1;fill-rule:nonzero;stroke:none"
             d="M 0,0 C -4.385,-2.019 -7.015,5.148 -2.565,7.046 1.884,8.943 4.164,1.917 0,0" /></g></g></g><g
       id="g472"><g
         clip-path="url(#clipPath478)"
         id="g474"><g
           transform="translate(68.5555,621.1902)"
           id="g480"><path
             id="path482"
             style="fill:#260f0f;fill-opacity:1;fill-rule:nonzero;stroke:none"
             d="M 0,0 C -3.485,-1.604 -5.575,4.091 -2.039,5.599 1.497,7.107 3.309,1.524 0,0" /></g><g
           transform="translate(68.5993,625.1329)"
           id="g484"><path
             id="path486"
             style="fill:#ffffff;fill-opacity:1;fill-rule:nonzero;stroke:none"
             d="M 0,0 C 0.478,-0.21 1.136,0.235 1.47,0.994 1.803,1.753 1.685,2.538 1.206,2.748 0.728,2.958 0.07,2.513 -0.263,1.754 -0.596,0.996 -0.479,0.21 0,0" /></g></g></g><g
       id="g488"><g
         clip-path="url(#clipPath494)"
         id="g490"><g
           transform="translate(63.0283,630.1481)"
           id="g496"><path
             id="path498"
             style="fill:#260f0f;fill-opacity:1;fill-rule:nonzero;stroke:none"
             d="m 0,0 c -0.722,-0.883 0.261,-2.239 1.139,-1.56 0.639,0.494 1.793,1.105 2.696,1.116 C 4.941,-0.431 6.222,-0.89 6.542,-0.527 6.981,-0.03 5.609,1.397 4.057,1.587 2.52,1.776 1.009,1.232 0,0" /></g><g
           transform="translate(53.267,616.4813)"
           id="g500"><path
             id="path502"
             style="fill:#ffffff;fill-opacity:1;fill-rule:nonzero;stroke:none"
             d="M 0,0 C -4.385,-2.019 -7.015,5.148 -2.565,7.046 1.884,8.943 4.164,1.917 0,0" /></g></g></g><g
       id="g504"><g
         clip-path="url(#clipPath510)"
         id="g506"><g
           transform="translate(53.3163,617.1646)"
           id="g512"><path
             id="path514"
             style="fill:#260f0f;fill-opacity:1;fill-rule:nonzero;stroke:none"
             d="M 0,0 C -3.485,-1.604 -5.575,4.091 -2.039,5.599 1.497,7.107 3.309,1.524 0,0" /></g><g
           transform="translate(53.3601,621.1074)"
           id="g516"><path
             id="path518"
             style="fill:#ffffff;fill-opacity:1;fill-rule:nonzero;stroke:none"
             d="M 0,0 C 0.478,-0.21 1.136,0.235 1.469,0.994 1.803,1.753 1.685,2.538 1.206,2.748 0.728,2.958 0.07,2.513 -0.263,1.754 -0.596,0.996 -0.479,0.21 0,0" /></g></g></g><g
       id="g520"><g
         clip-path="url(#clipPath526)"
         id="g522"><g
           transform="translate(52.0601,627.598)"
           id="g528"><path
             id="path530"
             style="fill:#260f0f;fill-opacity:1;fill-rule:nonzero;stroke:none"
             d="m 0,0 c 1.108,-0.269 1.141,-1.945 0.031,-1.931 -0.808,0.009 -2.097,-0.199 -2.825,-0.734 -0.89,-0.655 -1.636,-1.793 -2.11,-1.697 -0.65,0.133 -0.415,2.099 0.71,3.185 C -3.081,-0.1 -1.547,0.376 0,0" /></g><g
           transform="translate(62.0915,611.4452)"
           id="g532"><path
             id="path534"
             style="fill:#260f0f;fill-opacity:1;fill-rule:nonzero;stroke:none"
             d="m 0,0 c -1.087,0 -2.141,0.495 -2.863,1.418 -0.112,0.143 -0.088,0.349 0.055,0.461 0.145,0.112 0.352,0.087 0.462,-0.056 C -1.298,0.485 0.311,0.454 1.36,0.989 2.354,1.496 3.23,2.685 2.71,4.506 2.659,4.681 2.76,4.863 2.935,4.912 3.111,4.965 3.292,4.862 3.342,4.687 3.861,2.871 3.201,1.189 1.658,0.403 1.125,0.131 0.558,0 0,0" /></g><g
           transform="translate(58.4166,617.9096)"
           id="g536"><path
             id="path538"
             style="fill:#260f0f;fill-opacity:1;fill-rule:nonzero;stroke:none"
             d="M 0,0 C -0.152,0 -0.288,0.105 -0.321,0.259 -0.628,1.672 0.249,2.653 1.194,2.966 2.15,3.283 3.457,3.019 4.065,1.685 4.141,1.52 4.068,1.325 3.903,1.25 3.738,1.175 3.542,1.247 3.468,1.413 3.026,2.381 2.115,2.578 1.401,2.342 0.704,2.111 0.1,1.42 0.321,0.399 0.36,0.221 0.247,0.046 0.069,0.007 0.046,0.003 0.023,0 0,0" /></g></g></g></g></svg>