<svg xmlns="http://www.w3.org/2000/svg" xmlns:xlink="http://www.w3.org/1999/xlink" width="1080" zoomAndPan="magnify" viewBox="0 0 810 809.999993" height="1080" preserveAspectRatio="xMidYMid meet" version="1.0"><defs><clipPath id="c172a80a45"><path d="M 309 523 L 546 523 L 546 648.542969 L 309 648.542969 Z M 309 523 " clip-rule="nonzero"/></clipPath></defs><path fill="#ee8de4" d="M 436.449219 274.210938 C 428.152344 274.191406 419.8125 274.183594 411.421875 274.191406 C 408.027344 274.191406 404.996094 272.351562 405.035156 268.640625 C 405.039062 267.886719 405.355469 266.734375 405.972656 265.171875 C 412.710938 248.179688 419.460938 231.191406 426.214844 214.207031 C 426.824219 212.675781 427.179688 211.816406 427.28125 211.632812 C 430.015625 206.792969 437.570312 208.515625 437.734375 214.140625 C 437.753906 214.925781 437.476562 216.046875 436.902344 217.5 C 430.910156 232.605469 424.910156 247.714844 418.90625 262.816406 C 418.882812 262.875 418.886719 262.929688 418.925781 262.980469 C 418.960938 263.03125 419.007812 263.058594 419.070312 263.058594 C 427.625 263.058594 436.203125 263.058594 444.800781 263.058594 C 447.386719 263.058594 449.878906 265.726562 449.9375 268.382812 C 449.949219 269.089844 449.699219 270.230469 449.191406 271.808594 C 442.28125 293.117188 435.367188 314.429688 428.445312 335.738281 C 427.980469 337.175781 427.488281 338.199219 426.96875 338.804688 C 423.765625 342.574219 417.449219 340.476562 417.261719 335.539062 C 417.230469 334.648438 417.539062 333.203125 418.1875 331.207031 C 424.277344 312.453125 430.421875 293.53125 436.613281 274.4375 C 436.632812 274.382812 436.625 274.328125 436.589844 274.28125 C 436.554688 274.234375 436.507812 274.210938 436.449219 274.210938 Z M 436.449219 274.210938 " fill-opacity="1" fill-rule="nonzero"/><path fill="#ee8de4" d="M 315.78125 291.878906 C 308.640625 285.503906 297.59375 289.128906 291.246094 294.578125 C 282.585938 302.019531 279.160156 312.941406 280.714844 324.125 C 280.730469 324.234375 280.683594 324.296875 280.574219 324.320312 L 270.613281 326.40625 C 270.480469 326.433594 270.40625 326.382812 270.390625 326.25 C 268.203125 309.820312 274.394531 294.390625 287.738281 284.457031 C 300.339844 275.070312 317.367188 274.359375 327.335938 288.175781 C 332.25 294.984375 332.050781 303.269531 330.738281 311.390625 C 330.109375 315.277344 329.476562 319.164062 328.839844 323.050781 C 327.414062 331.789062 331.042969 338.117188 337.410156 343.65625 C 337.464844 343.699219 337.492188 343.753906 337.496094 343.820312 C 337.5 343.886719 337.480469 343.941406 337.4375 343.984375 L 330.882812 350.539062 C 330.785156 350.640625 330.679688 350.636719 330.5625 350.53125 C 324.507812 345.011719 319.523438 338.683594 318.792969 330.261719 C 317.71875 317.929688 327.074219 301.957031 315.78125 291.878906 Z M 315.78125 291.878906 " fill-opacity="1" fill-rule="nonzero"/><path fill="#ee8de4" d="M 579.554688 297.253906 C 561.101562 315.132812 542.738281 333.160156 524.082031 350.8125 C 523.976562 350.914062 523.878906 350.921875 523.789062 350.832031 L 517.726562 344.769531 C 517.644531 344.683594 517.648438 344.59375 517.742188 344.496094 L 571.085938 289.222656 C 571.1875 289.121094 571.304688 289.066406 571.445312 289.066406 C 571.585938 289.0625 571.707031 289.109375 571.804688 289.207031 L 579.617188 296.980469 C 579.691406 297.054688 579.667969 297.144531 579.554688 297.253906 Z M 579.554688 297.253906 " fill-opacity="1" fill-rule="nonzero"/><path fill="#ee8de4" d="M 358.402344 363.78125 C 358.402344 364.289062 358.351562 364.792969 358.253906 365.289062 C 358.15625 365.789062 358.007812 366.273438 357.8125 366.742188 C 357.621094 367.210938 357.382812 367.65625 357.101562 368.078125 C 356.816406 368.5 356.496094 368.890625 356.140625 369.25 C 355.78125 369.609375 355.390625 369.929688 354.96875 370.210938 C 354.546875 370.492188 354.101562 370.730469 353.632812 370.925781 C 353.164062 371.117188 352.679688 371.265625 352.179688 371.363281 C 351.683594 371.464844 351.179688 371.511719 350.671875 371.511719 C 350.164062 371.511719 349.664062 371.464844 349.164062 371.363281 C 348.667969 371.265625 348.183594 371.117188 347.714844 370.925781 C 347.246094 370.730469 346.800781 370.492188 346.378906 370.210938 C 345.957031 369.929688 345.566406 369.609375 345.207031 369.25 C 344.847656 368.890625 344.527344 368.5 344.246094 368.078125 C 343.964844 367.65625 343.726562 367.210938 343.53125 366.742188 C 343.339844 366.273438 343.191406 365.789062 343.09375 365.289062 C 342.992188 364.792969 342.945312 364.289062 342.945312 363.78125 C 342.945312 363.277344 342.992188 362.773438 343.09375 362.273438 C 343.191406 361.777344 343.339844 361.292969 343.53125 360.824219 C 343.726562 360.355469 343.964844 359.910156 344.246094 359.488281 C 344.527344 359.066406 344.847656 358.675781 345.207031 358.316406 C 345.566406 357.957031 345.957031 357.636719 346.378906 357.355469 C 346.800781 357.074219 347.246094 356.835938 347.714844 356.640625 C 348.183594 356.449219 348.667969 356.300781 349.164062 356.203125 C 349.664062 356.101562 350.164062 356.054688 350.671875 356.054688 C 351.179688 356.054688 351.683594 356.101562 352.179688 356.203125 C 352.679688 356.300781 353.164062 356.449219 353.632812 356.640625 C 354.101562 356.835938 354.546875 357.074219 354.96875 357.355469 C 355.390625 357.636719 355.78125 357.957031 356.140625 358.316406 C 356.496094 358.675781 356.816406 359.066406 357.101562 359.488281 C 357.382812 359.910156 357.621094 360.355469 357.8125 360.824219 C 358.007812 361.292969 358.15625 361.777344 358.253906 362.273438 C 358.351562 362.773438 358.402344 363.277344 358.402344 363.78125 Z M 358.402344 363.78125 " fill-opacity="1" fill-rule="nonzero"/><path fill="#ee8de4" d="M 512.566406 363.855469 C 512.566406 364.363281 512.515625 364.867188 512.417969 365.363281 C 512.320312 365.863281 512.171875 366.34375 511.980469 366.8125 C 511.785156 367.28125 511.546875 367.726562 511.265625 368.148438 C 510.980469 368.570312 510.660156 368.960938 510.304688 369.320312 C 509.945312 369.679688 509.554688 370 509.132812 370.28125 C 508.710938 370.5625 508.265625 370.800781 507.796875 370.996094 C 507.328125 371.191406 506.84375 371.335938 506.34375 371.4375 C 505.847656 371.535156 505.34375 371.585938 504.835938 371.585938 C 504.328125 371.585938 503.828125 371.535156 503.328125 371.4375 C 502.832031 371.335938 502.347656 371.191406 501.878906 370.996094 C 501.410156 370.800781 500.964844 370.5625 500.542969 370.28125 C 500.121094 370 499.730469 369.679688 499.371094 369.320312 C 499.011719 368.960938 498.691406 368.570312 498.410156 368.148438 C 498.128906 367.726562 497.890625 367.28125 497.695312 366.8125 C 497.503906 366.34375 497.355469 365.863281 497.257812 365.363281 C 497.15625 364.867188 497.109375 364.363281 497.109375 363.855469 C 497.109375 363.347656 497.15625 362.84375 497.257812 362.347656 C 497.355469 361.851562 497.503906 361.367188 497.695312 360.898438 C 497.890625 360.429688 498.128906 359.984375 498.410156 359.5625 C 498.691406 359.140625 499.011719 358.75 499.371094 358.390625 C 499.730469 358.03125 500.121094 357.710938 500.542969 357.429688 C 500.964844 357.148438 501.410156 356.910156 501.878906 356.714844 C 502.347656 356.519531 502.832031 356.375 503.328125 356.273438 C 503.828125 356.175781 504.328125 356.125 504.835938 356.125 C 505.34375 356.125 505.847656 356.175781 506.34375 356.273438 C 506.84375 356.375 507.328125 356.519531 507.796875 356.714844 C 508.265625 356.910156 508.710938 357.148438 509.132812 357.429688 C 509.554688 357.710938 509.945312 358.03125 510.304688 358.390625 C 510.660156 358.75 510.980469 359.140625 511.265625 359.5625 C 511.546875 359.984375 511.785156 360.429688 511.980469 360.898438 C 512.171875 361.367188 512.320312 361.851562 512.417969 362.347656 C 512.515625 362.84375 512.566406 363.347656 512.566406 363.855469 Z M 512.566406 363.855469 " fill-opacity="1" fill-rule="nonzero"/><path fill="#ee8de4" d="M 494.871094 445.800781 C 494.871094 446.90625 494.84375 448.007812 494.789062 449.109375 C 494.734375 450.210938 494.65625 451.308594 494.546875 452.40625 C 494.4375 453.503906 494.304688 454.597656 494.140625 455.691406 C 493.980469 456.78125 493.792969 457.867188 493.578125 458.949219 C 493.359375 460.03125 493.121094 461.105469 492.851562 462.175781 C 492.582031 463.246094 492.289062 464.308594 491.96875 465.363281 C 491.648438 466.417969 491.304688 467.464844 490.933594 468.503906 C 490.558594 469.542969 490.164062 470.570312 489.742188 471.589844 C 489.320312 472.609375 488.871094 473.617188 488.402344 474.613281 C 487.929688 475.609375 487.433594 476.597656 486.914062 477.570312 C 486.394531 478.542969 485.851562 479.5 485.285156 480.445312 C 484.71875 481.390625 484.128906 482.324219 483.515625 483.242188 C 482.902344 484.15625 482.265625 485.058594 481.609375 485.945312 C 480.953125 486.832031 480.273438 487.699219 479.574219 488.550781 C 478.875 489.40625 478.15625 490.238281 477.414062 491.058594 C 476.675781 491.875 475.914062 492.671875 475.132812 493.453125 C 474.355469 494.230469 473.554688 494.992188 472.738281 495.734375 C 471.921875 496.472656 471.085938 497.195312 470.234375 497.894531 C 469.382812 498.59375 468.511719 499.273438 467.625 499.929688 C 466.742188 500.585938 465.839844 501.21875 464.921875 501.832031 C 464.003906 502.445312 463.074219 503.035156 462.128906 503.601562 C 461.183594 504.167969 460.222656 504.714844 459.25 505.234375 C 458.277344 505.753906 457.292969 506.25 456.296875 506.71875 C 455.296875 507.191406 454.289062 507.636719 453.273438 508.058594 C 452.253906 508.484375 451.222656 508.878906 450.1875 509.25 C 449.148438 509.621094 448.101562 509.96875 447.046875 510.289062 C 445.988281 510.609375 444.925781 510.902344 443.855469 511.171875 C 442.789062 511.4375 441.710938 511.679688 440.628906 511.894531 C 439.546875 512.109375 438.460938 512.300781 437.371094 512.460938 C 436.28125 512.621094 435.1875 512.757812 434.089844 512.867188 C 432.992188 512.972656 431.890625 513.054688 430.789062 513.109375 C 429.6875 513.164062 428.585938 513.191406 427.484375 513.191406 C 426.378906 513.191406 425.277344 513.164062 424.175781 513.109375 C 423.074219 513.054688 421.976562 512.972656 420.878906 512.867188 C 419.78125 512.757812 418.6875 512.621094 417.59375 512.460938 C 416.503906 512.300781 415.417969 512.109375 414.335938 511.894531 C 413.253906 511.679688 412.179688 511.4375 411.109375 511.171875 C 410.039062 510.902344 408.976562 510.609375 407.921875 510.289062 C 406.867188 509.96875 405.820312 509.621094 404.78125 509.25 C 403.742188 508.878906 402.714844 508.484375 401.695312 508.058594 C 400.675781 507.636719 399.667969 507.191406 398.671875 506.71875 C 397.675781 506.25 396.6875 505.753906 395.714844 505.234375 C 394.742188 504.714844 393.785156 504.167969 392.839844 503.601562 C 391.894531 503.035156 390.960938 502.445312 390.042969 501.832031 C 389.128906 501.21875 388.226562 500.585938 387.339844 499.929688 C 386.453125 499.273438 385.585938 498.59375 384.734375 497.894531 C 383.878906 497.195312 383.046875 496.472656 382.226562 495.734375 C 381.410156 494.992188 380.613281 494.234375 379.832031 493.453125 C 379.054688 492.671875 378.292969 491.875 377.550781 491.058594 C 376.8125 490.238281 376.089844 489.40625 375.390625 488.550781 C 374.691406 487.699219 374.011719 486.832031 373.355469 485.945312 C 372.699219 485.058594 372.066406 484.15625 371.453125 483.242188 C 370.839844 482.324219 370.25 481.390625 369.683594 480.445312 C 369.117188 479.5 368.570312 478.542969 368.050781 477.570312 C 367.53125 476.597656 367.035156 475.609375 366.566406 474.613281 C 366.09375 473.617188 365.648438 472.609375 365.226562 471.589844 C 364.804688 470.570312 364.40625 469.542969 364.035156 468.503906 C 363.664062 467.464844 363.316406 466.417969 362.996094 465.363281 C 362.675781 464.308594 362.382812 463.246094 362.113281 462.175781 C 361.847656 461.105469 361.605469 460.03125 361.390625 458.949219 C 361.175781 457.867188 360.988281 456.78125 360.824219 455.691406 C 360.664062 454.597656 360.527344 453.503906 360.417969 452.40625 C 360.3125 451.308594 360.230469 450.210938 360.175781 449.109375 C 360.121094 448.007812 360.09375 446.90625 360.09375 445.800781 C 360.09375 444.699219 360.121094 443.597656 360.175781 442.496094 C 360.230469 441.394531 360.3125 440.292969 360.417969 439.195312 C 360.527344 438.097656 360.664062 437.003906 360.824219 435.914062 C 360.988281 434.824219 361.175781 433.738281 361.390625 432.65625 C 361.605469 431.574219 361.847656 430.496094 362.113281 429.429688 C 362.382812 428.359375 362.675781 427.296875 362.996094 426.242188 C 363.316406 425.183594 363.664062 424.136719 364.035156 423.101562 C 364.40625 422.0625 364.804688 421.03125 365.226562 420.015625 C 365.648438 418.996094 366.09375 417.988281 366.566406 416.988281 C 367.035156 415.992188 367.53125 415.007812 368.050781 414.035156 C 368.570312 413.0625 369.117188 412.105469 369.683594 411.15625 C 370.25 410.210938 370.839844 409.28125 371.453125 408.363281 C 372.066406 407.445312 372.699219 406.542969 373.355469 405.660156 C 374.011719 404.773438 374.691406 403.902344 375.390625 403.050781 C 376.089844 402.199219 376.8125 401.363281 377.550781 400.546875 C 378.292969 399.730469 379.054688 398.929688 379.832031 398.152344 C 380.613281 397.371094 381.410156 396.613281 382.226562 395.871094 C 383.046875 395.128906 383.878906 394.410156 384.734375 393.710938 C 385.585938 393.011719 386.453125 392.332031 387.339844 391.675781 C 388.226562 391.019531 389.128906 390.382812 390.042969 389.769531 C 390.960938 389.15625 391.894531 388.566406 392.839844 388 C 393.785156 387.433594 394.742188 386.890625 395.714844 386.371094 C 396.6875 385.851562 397.675781 385.355469 398.671875 384.882812 C 399.667969 384.414062 400.675781 383.964844 401.695312 383.542969 C 402.714844 383.121094 403.742188 382.726562 404.78125 382.351562 C 405.820312 381.980469 406.867188 381.636719 407.921875 381.316406 C 408.976562 380.996094 410.039062 380.703125 411.109375 380.433594 C 412.179688 380.164062 413.253906 379.925781 414.335938 379.707031 C 415.417969 379.492188 416.503906 379.304688 417.59375 379.144531 C 418.6875 378.980469 419.78125 378.847656 420.878906 378.738281 C 421.976562 378.628906 423.074219 378.550781 424.175781 378.496094 C 425.277344 378.441406 426.378906 378.414062 427.484375 378.414062 C 428.585938 378.414062 429.6875 378.441406 430.789062 378.496094 C 431.890625 378.550781 432.992188 378.628906 434.089844 378.738281 C 435.1875 378.847656 436.28125 378.980469 437.371094 379.144531 C 438.460938 379.304688 439.546875 379.492188 440.628906 379.707031 C 441.710938 379.925781 442.789062 380.164062 443.855469 380.433594 C 444.925781 380.703125 445.988281 380.996094 447.046875 381.316406 C 448.101562 381.636719 449.148438 381.980469 450.1875 382.351562 C 451.222656 382.726562 452.253906 383.121094 453.273438 383.542969 C 454.289062 383.964844 455.296875 384.414062 456.296875 384.882812 C 457.292969 385.355469 458.277344 385.851562 459.25 386.371094 C 460.222656 386.890625 461.183594 387.433594 462.128906 388 C 463.074219 388.566406 464.003906 389.15625 464.921875 389.769531 C 465.839844 390.382812 466.742188 391.019531 467.625 391.675781 C 468.511719 392.332031 469.382812 393.011719 470.234375 393.710938 C 471.085938 394.410156 471.921875 395.128906 472.738281 395.871094 C 473.554688 396.613281 474.355469 397.371094 475.132812 398.152344 C 475.914062 398.929688 476.675781 399.730469 477.414062 400.546875 C 478.15625 401.363281 478.875 402.199219 479.574219 403.050781 C 480.273438 403.902344 480.953125 404.773438 481.609375 405.660156 C 482.265625 406.542969 482.902344 407.445312 483.515625 408.363281 C 484.128906 409.28125 484.71875 410.210938 485.285156 411.15625 C 485.851562 412.105469 486.394531 413.0625 486.914062 414.035156 C 487.433594 415.007812 487.929688 415.992188 488.402344 416.988281 C 488.871094 417.988281 489.320312 418.996094 489.742188 420.015625 C 490.164062 421.03125 490.558594 422.0625 490.933594 423.101562 C 491.304688 424.136719 491.648438 425.183594 491.96875 426.242188 C 492.289062 427.296875 492.582031 428.359375 492.851562 429.429688 C 493.121094 430.496094 493.363281 431.574219 493.578125 432.65625 C 493.792969 433.738281 493.980469 434.824219 494.140625 435.914062 C 494.304688 437.003906 494.4375 438.097656 494.546875 439.195312 C 494.65625 440.292969 494.734375 441.394531 494.789062 442.496094 C 494.84375 443.597656 494.871094 444.699219 494.871094 445.800781 Z M 483.714844 445.800781 C 483.714844 443.960938 483.625 442.125 483.445312 440.289062 C 483.261719 438.457031 482.992188 436.636719 482.632812 434.832031 C 482.273438 433.027344 481.828125 431.242188 481.292969 429.480469 C 480.757812 427.714844 480.136719 425.984375 479.433594 424.285156 C 478.730469 422.582031 477.941406 420.917969 477.074219 419.296875 C 476.207031 417.671875 475.261719 416.09375 474.238281 414.5625 C 473.214844 413.03125 472.117188 411.554688 470.949219 410.128906 C 469.78125 408.707031 468.546875 407.34375 467.246094 406.039062 C 465.941406 404.738281 464.578125 403.503906 463.15625 402.335938 C 461.730469 401.167969 460.253906 400.070312 458.722656 399.046875 C 457.191406 398.023438 455.613281 397.078125 453.992188 396.210938 C 452.367188 395.34375 450.703125 394.554688 449 393.851562 C 447.300781 393.148438 445.570312 392.527344 443.804688 391.992188 C 442.042969 391.457031 440.257812 391.011719 438.453125 390.652344 C 436.648438 390.292969 434.828125 390.023438 432.996094 389.84375 C 431.160156 389.660156 429.324219 389.570312 427.484375 389.570312 C 425.640625 389.570312 423.804688 389.660156 421.972656 389.84375 C 420.140625 390.023438 418.320312 390.292969 416.511719 390.652344 C 414.707031 391.011719 412.921875 391.457031 411.160156 391.992188 C 409.398438 392.527344 407.667969 393.148438 405.964844 393.851562 C 404.261719 394.554688 402.601562 395.34375 400.976562 396.210938 C 399.351562 397.078125 397.773438 398.023438 396.242188 399.046875 C 394.710938 400.070312 393.234375 401.167969 391.8125 402.335938 C 390.386719 403.503906 389.023438 404.738281 387.722656 406.039062 C 386.417969 407.34375 385.183594 408.707031 384.015625 410.128906 C 382.847656 411.554688 381.753906 413.03125 380.730469 414.5625 C 379.707031 416.09375 378.761719 417.671875 377.890625 419.296875 C 377.023438 420.917969 376.238281 422.582031 375.53125 424.285156 C 374.828125 425.984375 374.207031 427.714844 373.671875 429.480469 C 373.140625 431.242188 372.691406 433.027344 372.332031 434.832031 C 371.972656 436.636719 371.703125 438.457031 371.523438 440.289062 C 371.34375 442.125 371.253906 443.960938 371.253906 445.800781 C 371.253906 447.644531 371.34375 449.480469 371.523438 451.3125 C 371.703125 453.144531 371.972656 454.964844 372.332031 456.773438 C 372.691406 458.578125 373.140625 460.363281 373.671875 462.125 C 374.207031 463.886719 374.828125 465.621094 375.53125 467.320312 C 376.238281 469.023438 377.023438 470.683594 377.890625 472.308594 C 378.761719 473.933594 379.707031 475.511719 380.730469 477.042969 C 381.753906 478.574219 382.847656 480.050781 384.015625 481.472656 C 385.183594 482.898438 386.417969 484.261719 387.722656 485.5625 C 389.023438 486.867188 390.386719 488.101562 391.8125 489.269531 C 393.234375 490.4375 394.710938 491.535156 396.242188 492.554688 C 397.773438 493.578125 399.351562 494.523438 400.976562 495.394531 C 402.601562 496.261719 404.261719 497.046875 405.964844 497.753906 C 407.667969 498.457031 409.398438 499.078125 411.160156 499.613281 C 412.921875 500.144531 414.707031 500.59375 416.511719 500.953125 C 418.320312 501.3125 420.140625 501.582031 421.972656 501.761719 C 423.804688 501.941406 425.640625 502.03125 427.484375 502.03125 C 429.324219 502.03125 431.160156 501.941406 432.996094 501.761719 C 434.828125 501.582031 436.648438 501.3125 438.453125 500.953125 C 440.257812 500.59375 442.042969 500.144531 443.804688 499.613281 C 445.570312 499.078125 447.300781 498.457031 449 497.753906 C 450.703125 497.046875 452.367188 496.261719 453.992188 495.394531 C 455.613281 494.523438 457.191406 493.578125 458.722656 492.554688 C 460.253906 491.535156 461.730469 490.4375 463.15625 489.269531 C 464.578125 488.101562 465.941406 486.867188 467.246094 485.5625 C 468.546875 484.261719 469.78125 482.898438 470.949219 481.472656 C 472.117188 480.050781 473.214844 478.574219 474.238281 477.042969 C 475.261719 475.511719 476.207031 473.933594 477.074219 472.308594 C 477.941406 470.683594 478.730469 469.023438 479.433594 467.320312 C 480.136719 465.621094 480.757812 463.886719 481.292969 462.125 C 481.828125 460.363281 482.273438 458.578125 482.632812 456.773438 C 482.992188 454.964844 483.261719 453.144531 483.445312 451.3125 C 483.625 449.480469 483.714844 447.644531 483.714844 445.800781 Z M 483.714844 445.800781 " fill-opacity="1" fill-rule="nonzero"/><path fill="#ee8de4" d="M 269.148438 396.234375 C 271.242188 398.253906 273.414062 400.292969 272.980469 403.289062 C 272.421875 407.164062 268.15625 409.449219 264.707031 407.425781 C 264.253906 407.160156 263.496094 406.4375 262.433594 405.257812 C 249.871094 391.335938 226.941406 399.609375 225.890625 418.277344 C 225.734375 421.042969 225.292969 422.921875 222.839844 424.191406 C 221.015625 425.136719 218.527344 424.789062 216.414062 425.199219 C 205.671875 427.28125 198.144531 437.347656 199.460938 448.195312 C 200.699219 458.363281 208.992188 466.195312 219.226562 466.738281 C 223.503906 466.964844 225.671875 468.449219 225.867188 472.972656 C 226.742188 493.339844 252.3125 500.675781 264.160156 484.152344 C 268.648438 477.894531 277.949219 484.167969 272.816406 491.179688 C 256.09375 514.035156 220.03125 505.765625 215.179688 477.777344 C 215.148438 477.605469 215.050781 477.503906 214.878906 477.476562 C 192.09375 473.261719 180.390625 447.210938 193.757812 427.777344 C 198.804688 420.4375 205.867188 415.875 214.941406 414.089844 C 215.050781 414.066406 215.117188 414.003906 215.136719 413.898438 C 219.742188 388.503906 250.425781 378.175781 269.148438 396.234375 Z M 269.148438 396.234375 " fill-opacity="1" fill-rule="nonzero"/><path fill="#ee8de4" d="M 589.316406 407.359375 C 585.023438 409.871094 579.664062 405.882812 581.148438 401.042969 C 581.425781 400.132812 582.054688 399.128906 583.039062 398.023438 C 601.113281 377.738281 634.003906 387.386719 638.796875 413.90625 C 638.820312 414.035156 638.898438 414.109375 639.027344 414.136719 C 659.488281 417.667969 671.417969 439.5 663.152344 458.449219 C 658.734375 468.578125 650.023438 475.390625 639 477.515625 C 638.890625 477.535156 638.828125 477.597656 638.808594 477.707031 C 633.765625 504.980469 599.78125 513.96875 582.128906 492.496094 C 581.527344 491.761719 580.976562 491 580.476562 490.203125 C 577.183594 484.972656 583.328125 479.269531 588.242188 482.574219 C 588.726562 482.902344 589.382812 483.617188 590.207031 484.726562 C 602.082031 500.648438 627.453125 492.902344 628.089844 472.902344 C 628.175781 470.238281 629.085938 468.160156 631.683594 467.167969 C 632.214844 466.964844 633.179688 466.824219 634.574219 466.746094 C 650.511719 465.851562 660.253906 448.117188 651.261719 434.414062 C 647.621094 428.867188 641.246094 424.972656 634.394531 424.886719 C 630.863281 424.839844 628.273438 422.902344 628.078125 419.320312 C 627.960938 417.273438 627.800781 415.804688 627.589844 414.914062 C 623.589844 398.066406 602.761719 392.261719 591.179688 405.636719 C 590.441406 406.492188 589.820312 407.066406 589.316406 407.359375 Z M 589.316406 407.359375 " fill-opacity="1" fill-rule="nonzero"/><path fill="#ee8de4" d="M 262.253906 417.605469 L 318.65625 431.5625 C 319.003906 431.648438 319.34375 431.769531 319.667969 431.921875 C 319.996094 432.078125 320.304688 432.261719 320.59375 432.472656 C 320.886719 432.6875 321.152344 432.929688 321.394531 433.195312 C 321.636719 433.460938 321.851562 433.75 322.039062 434.058594 C 322.226562 434.367188 322.378906 434.691406 322.5 435.03125 C 322.625 435.371094 322.710938 435.71875 322.765625 436.074219 C 322.820312 436.429688 322.839844 436.789062 322.820312 437.148438 C 322.804688 437.511719 322.753906 437.863281 322.667969 438.214844 L 322.625 438.382812 C 322.539062 438.730469 322.417969 439.070312 322.265625 439.394531 C 322.113281 439.722656 321.929688 440.03125 321.714844 440.320312 C 321.5 440.613281 321.261719 440.878906 320.996094 441.121094 C 320.726562 441.363281 320.441406 441.578125 320.132812 441.765625 C 319.824219 441.953125 319.5 442.105469 319.160156 442.226562 C 318.820312 442.351562 318.472656 442.4375 318.117188 442.492188 C 317.757812 442.546875 317.398438 442.566406 317.039062 442.550781 C 316.679688 442.53125 316.324219 442.480469 315.972656 442.394531 L 259.574219 428.4375 C 259.222656 428.351562 258.886719 428.230469 258.558594 428.078125 C 258.234375 427.921875 257.925781 427.738281 257.632812 427.527344 C 257.34375 427.3125 257.078125 427.070312 256.835938 426.804688 C 256.589844 426.539062 256.375 426.25 256.191406 425.941406 C 256.003906 425.632812 255.851562 425.308594 255.726562 424.96875 C 255.605469 424.628906 255.515625 424.28125 255.464844 423.925781 C 255.410156 423.570312 255.390625 423.210938 255.40625 422.851562 C 255.421875 422.492188 255.476562 422.136719 255.5625 421.785156 L 255.601562 421.617188 C 255.691406 421.269531 255.808594 420.929688 255.964844 420.605469 C 256.117188 420.277344 256.300781 419.96875 256.515625 419.679688 C 256.726562 419.386719 256.96875 419.121094 257.234375 418.878906 C 257.5 418.636719 257.789062 418.421875 258.097656 418.234375 C 258.40625 418.046875 258.730469 417.894531 259.070312 417.773438 C 259.410156 417.648438 259.757812 417.5625 260.113281 417.507812 C 260.46875 417.453125 260.828125 417.433594 261.1875 417.449219 C 261.550781 417.46875 261.90625 417.519531 262.253906 417.605469 Z M 262.253906 417.605469 " fill-opacity="1" fill-rule="nonzero"/><path fill="#ee8de4" d="M 535.300781 431.5625 L 591.707031 417.605469 C 592.054688 417.519531 592.410156 417.46875 592.769531 417.449219 C 593.132812 417.433594 593.488281 417.453125 593.847656 417.507812 C 594.203125 417.558594 594.550781 417.648438 594.890625 417.769531 C 595.230469 417.894531 595.554688 418.046875 595.863281 418.234375 C 596.171875 418.421875 596.457031 418.636719 596.726562 418.878906 C 596.992188 419.121094 597.230469 419.386719 597.445312 419.675781 C 597.660156 419.96875 597.84375 420.277344 597.996094 420.601562 C 598.152344 420.929688 598.269531 421.265625 598.355469 421.617188 L 598.398438 421.785156 C 598.484375 422.132812 598.535156 422.488281 598.554688 422.851562 C 598.570312 423.210938 598.550781 423.570312 598.496094 423.925781 C 598.445312 424.28125 598.355469 424.628906 598.234375 424.96875 C 598.109375 425.308594 597.957031 425.632812 597.769531 425.941406 C 597.582031 426.25 597.367188 426.539062 597.125 426.804688 C 596.882812 427.070312 596.617188 427.3125 596.324219 427.523438 C 596.035156 427.738281 595.726562 427.921875 595.402344 428.074219 C 595.074219 428.230469 594.734375 428.347656 594.386719 428.4375 L 537.980469 442.394531 C 537.628906 442.480469 537.273438 442.53125 536.914062 442.550781 C 536.554688 442.566406 536.195312 442.546875 535.839844 442.492188 C 535.480469 442.441406 535.132812 442.351562 534.792969 442.230469 C 534.457031 442.105469 534.132812 441.953125 533.824219 441.765625 C 533.515625 441.578125 533.226562 441.363281 532.960938 441.121094 C 532.691406 440.878906 532.453125 440.613281 532.238281 440.324219 C 532.023438 440.03125 531.839844 439.722656 531.6875 439.398438 C 531.535156 439.070312 531.414062 438.734375 531.328125 438.382812 L 531.285156 438.214844 C 531.199219 437.867188 531.148438 437.511719 531.132812 437.148438 C 531.113281 436.789062 531.132812 436.429688 531.1875 436.074219 C 531.242188 435.71875 531.328125 435.371094 531.453125 435.03125 C 531.574219 434.691406 531.730469 434.367188 531.914062 434.058594 C 532.101562 433.75 532.316406 433.460938 532.558594 433.195312 C 532.800781 432.929688 533.070312 432.6875 533.359375 432.476562 C 533.648438 432.261719 533.957031 432.078125 534.285156 431.925781 C 534.609375 431.769531 534.949219 431.652344 535.300781 431.5625 Z M 535.300781 431.5625 " fill-opacity="1" fill-rule="nonzero"/><path fill="#ee8de4" d="M 259.585938 463.214844 L 315.941406 449.164062 C 316.292969 449.074219 316.648438 449.023438 317.007812 449.003906 C 317.371094 448.988281 317.726562 449.007812 318.085938 449.058594 C 318.441406 449.113281 318.789062 449.199219 319.128906 449.324219 C 319.46875 449.445312 319.792969 449.597656 320.101562 449.785156 C 320.414062 449.96875 320.699219 450.183594 320.96875 450.425781 C 321.234375 450.667969 321.476562 450.9375 321.691406 451.226562 C 321.90625 451.515625 322.089844 451.824219 322.242188 452.152344 C 322.398438 452.476562 322.519531 452.816406 322.605469 453.164062 L 322.644531 453.324219 C 322.734375 453.675781 322.785156 454.03125 322.800781 454.390625 C 322.820312 454.753906 322.800781 455.109375 322.75 455.46875 C 322.695312 455.824219 322.609375 456.171875 322.484375 456.511719 C 322.363281 456.851562 322.210938 457.175781 322.023438 457.484375 C 321.839844 457.796875 321.625 458.082031 321.382812 458.351562 C 321.136719 458.617188 320.871094 458.859375 320.582031 459.074219 C 320.292969 459.289062 319.984375 459.472656 319.65625 459.625 C 319.332031 459.78125 318.992188 459.902344 318.640625 459.988281 L 262.285156 474.039062 C 261.9375 474.125 261.582031 474.179688 261.21875 474.195312 C 260.859375 474.214844 260.5 474.195312 260.144531 474.140625 C 259.785156 474.089844 259.4375 474 259.097656 473.878906 C 258.757812 473.757812 258.433594 473.601562 258.125 473.417969 C 257.816406 473.230469 257.527344 473.015625 257.261719 472.773438 C 256.992188 472.53125 256.753906 472.265625 256.539062 471.976562 C 256.324219 471.6875 256.140625 471.378906 255.984375 471.050781 C 255.832031 470.722656 255.710938 470.386719 255.625 470.035156 L 255.582031 469.875 C 255.496094 469.527344 255.445312 469.171875 255.425781 468.808594 C 255.410156 468.449219 255.425781 468.089844 255.480469 467.734375 C 255.535156 467.378906 255.621094 467.027344 255.742188 466.6875 C 255.867188 466.347656 256.019531 466.023438 256.207031 465.714844 C 256.390625 465.40625 256.605469 465.117188 256.847656 464.851562 C 257.089844 464.582031 257.355469 464.34375 257.648438 464.128906 C 257.9375 463.914062 258.246094 463.730469 258.570312 463.574219 C 258.898438 463.421875 259.238281 463.300781 259.585938 463.214844 Z M 259.585938 463.214844 " fill-opacity="1" fill-rule="nonzero"/><path fill="#ee8de4" d="M 538.015625 449.164062 L 594.375 463.21875 C 594.722656 463.304688 595.0625 463.425781 595.386719 463.578125 C 595.714844 463.734375 596.023438 463.917969 596.3125 464.132812 C 596.601562 464.347656 596.871094 464.585938 597.113281 464.855469 C 597.355469 465.121094 597.570312 465.410156 597.753906 465.71875 C 597.941406 466.027344 598.09375 466.351562 598.214844 466.691406 C 598.339844 467.03125 598.425781 467.378906 598.480469 467.738281 C 598.53125 468.09375 598.550781 468.453125 598.535156 468.8125 C 598.515625 469.175781 598.464844 469.527344 598.375 469.878906 L 598.335938 470.039062 C 598.25 470.390625 598.128906 470.726562 597.976562 471.054688 C 597.820312 471.378906 597.636719 471.6875 597.421875 471.980469 C 597.207031 472.269531 596.964844 472.535156 596.699219 472.777344 C 596.433594 473.019531 596.144531 473.234375 595.835938 473.421875 C 595.527344 473.605469 595.199219 473.761719 594.859375 473.882812 C 594.523438 474.003906 594.171875 474.09375 593.816406 474.144531 C 593.460938 474.199219 593.101562 474.21875 592.742188 474.199219 C 592.378906 474.183594 592.023438 474.128906 591.675781 474.042969 L 535.316406 459.992188 C 534.96875 459.902344 534.628906 459.785156 534.304688 459.628906 C 533.976562 459.476562 533.667969 459.292969 533.378906 459.078125 C 533.089844 458.863281 532.820312 458.621094 532.578125 458.355469 C 532.335938 458.085938 532.121094 457.796875 531.9375 457.488281 C 531.75 457.179688 531.597656 456.855469 531.476562 456.515625 C 531.351562 456.175781 531.265625 455.828125 531.210938 455.472656 C 531.160156 455.113281 531.140625 454.753906 531.15625 454.394531 C 531.175781 454.035156 531.226562 453.679688 531.316406 453.328125 L 531.355469 453.167969 C 531.441406 452.820312 531.5625 452.480469 531.714844 452.152344 C 531.871094 451.828125 532.054688 451.519531 532.269531 451.230469 C 532.484375 450.9375 532.726562 450.671875 532.992188 450.429688 C 533.257812 450.1875 533.546875 449.972656 533.855469 449.789062 C 534.167969 449.601562 534.492188 449.449219 534.832031 449.324219 C 535.171875 449.203125 535.519531 449.117188 535.875 449.0625 C 536.230469 449.007812 536.589844 448.992188 536.953125 449.007812 C 537.3125 449.027344 537.667969 449.078125 538.015625 449.164062 Z M 538.015625 449.164062 " fill-opacity="1" fill-rule="nonzero"/><g clip-path="url(#c172a80a45)"><path fill="#ee8de4" d="M 311.753906 647.730469 C 309.945312 646.390625 309.460938 644.878906 309.460938 642.523438 C 309.457031 625.695312 309.457031 608.871094 309.460938 592.046875 C 309.460938 589.167969 309.515625 586.972656 309.628906 585.457031 C 312.414062 547.808594 345.554688 520.441406 382.945312 524.011719 C 389.140625 524.601562 394.878906 527.746094 400.671875 529.554688 C 418.453125 535.101562 436.242188 535.128906 454.039062 529.636719 C 458.074219 528.386719 462.914062 526.054688 466.871094 525.070312 C 471.507812 523.914062 476.441406 523.472656 481.667969 523.753906 C 517.921875 525.691406 545.46875 554.539062 545.492188 590.914062 C 545.5 608.003906 545.503906 625.09375 545.5 642.183594 C 545.5 646.277344 543.730469 648.792969 539.378906 648.792969 C 464.359375 648.792969 389.339844 648.792969 314.324219 648.792969 C 313.566406 648.792969 312.710938 648.4375 311.753906 647.730469 Z M 360.53125 588.769531 C 362.324219 584.207031 368.867188 584.085938 370.777344 588.667969 C 371.078125 589.390625 371.230469 590.472656 371.234375 591.914062 C 371.234375 607.125 371.234375 622.320312 371.234375 637.496094 C 371.234375 637.601562 371.289062 637.65625 371.398438 637.65625 L 483.5625 637.65625 C 483.671875 637.65625 483.722656 637.601562 483.722656 637.496094 C 483.734375 622.539062 483.730469 607.582031 483.722656 592.625 C 483.71875 590.84375 483.875 589.542969 484.191406 588.726562 C 485.949219 584.183594 492.535156 584.113281 494.414062 588.683594 C 494.714844 589.421875 494.867188 590.535156 494.863281 592.023438 C 494.855469 607.167969 494.855469 622.320312 494.871094 637.476562 C 494.875 637.597656 494.925781 637.65625 495.027344 637.65625 L 534.203125 637.65625 C 534.304688 637.65625 534.355469 637.597656 534.355469 637.476562 C 534.375 622.3125 534.375 607.148438 534.355469 591.988281 C 534.351562 589.089844 534.285156 586.894531 534.152344 585.398438 C 531.515625 555.664062 506.148438 534.066406 476.734375 534.839844 C 474.980469 534.886719 473.203125 535.085938 471.410156 535.441406 C 467.402344 536.234375 463.375 538.25 459.355469 539.613281 C 436.738281 547.304688 412.304688 546.488281 390.246094 537.621094 C 384.8125 535.4375 380.507812 534.625 374.59375 534.863281 C 344.65625 536.058594 320.753906 559.8125 320.601562 590.066406 C 320.558594 598.339844 320.566406 614.152344 320.621094 637.507812 C 320.621094 637.613281 320.667969 637.664062 320.757812 637.664062 L 359.933594 637.660156 C 360.042969 637.660156 360.09375 637.605469 360.09375 637.5 C 360.101562 622.304688 360.101562 607.117188 360.09375 591.929688 C 360.09375 590.5625 360.238281 589.507812 360.53125 588.769531 Z M 360.53125 588.769531 " fill-opacity="1" fill-rule="nonzero"/></g></svg>