<svg version="1.0" preserveAspectRatio="xMidYMid meet" viewBox="183.06 176.579998474 476.28 419.579996374" zoomAndPan="magnify" xmlns:xlink="http://www.w3.org/1999/xlink" xmlns="http://www.w3.org/2000/svg" style="max-height: 500px" width="476.28" height="419.579996374"><defs><clipPath id="82568f5be6"><path clip-rule="nonzero" d="M 213.378906 359 L 475 359 L 475 589.628906 L 213.378906 589.628906 Z M 213.378906 359"/></clipPath><clipPath id="1f3bc70342"><path clip-rule="nonzero" d="M 576 285 L 610.878906 285 L 610.878906 298 L 576 298 Z M 576 285"/></clipPath></defs><rect fill-opacity="1" height="971.999992" y="-80.999999" fill="#ffffff" width="972" x="-81"/><rect fill-opacity="1" height="971.999992" y="-80.999999" fill="#ffffff" width="972" x="-81"/><g clip-path="url(#82568f5be6)"><path fill-rule="nonzero" fill-opacity="1" d="M 250.664062 589.539062 C 249.527344 589.539062 248.394531 589.230469 247.394531 588.613281 C 245.5625 587.480469 244.449219 585.480469 244.449219 583.328125 L 244.449219 558.472656 L 219.59375 558.472656 C 216.160156 558.472656 213.378906 555.6875 213.378906 552.257812 L 213.378906 365.839844 C 213.378906 362.410156 216.160156 359.628906 219.59375 359.628906 L 378.824219 359.628906 C 382.253906 359.628906 385.039062 362.410156 385.039062 365.839844 C 385.039062 369.273438 382.253906 372.054688 378.824219 372.054688 L 225.808594 372.054688 L 225.808594 546.042969 L 250.664062 546.042969 C 254.09375 546.042969 256.875 548.824219 256.875 552.257812 L 256.875 573.273438 L 310.023438 546.699219 C 310.886719 546.265625 311.835938 546.042969 312.800781 546.042969 L 461.933594 546.042969 L 461.933594 521.1875 C 461.933594 517.757812 464.714844 514.972656 468.148438 514.972656 C 471.578125 514.972656 474.363281 517.757812 474.363281 521.1875 L 474.363281 552.257812 C 474.363281 555.6875 471.578125 558.472656 468.148438 558.472656 L 314.269531 558.472656 L 253.441406 588.882812 C 252.566406 589.324219 251.613281 589.539062 250.664062 589.539062 Z M 250.664062 589.539062" fill="#c1ff72"/></g><path fill-rule="nonzero" fill-opacity="1" d="M 374.941406 409.339844 L 250.664062 409.339844 C 247.230469 409.339844 244.449219 406.554688 244.449219 403.125 C 244.449219 399.691406 247.230469 396.910156 250.664062 396.910156 L 374.941406 396.910156 C 378.371094 396.910156 381.152344 399.691406 381.152344 403.125 C 381.152344 406.554688 378.371094 409.339844 374.941406 409.339844 Z M 374.941406 409.339844" fill="#c1ff72"/><path fill-rule="nonzero" fill-opacity="1" d="M 374.941406 446.621094 L 250.664062 446.621094 C 247.230469 446.621094 244.449219 443.839844 244.449219 440.40625 C 244.449219 436.976562 247.230469 434.195312 250.664062 434.195312 L 374.941406 434.195312 C 378.371094 434.195312 381.152344 436.976562 381.152344 440.40625 C 381.152344 443.839844 378.371094 446.621094 374.941406 446.621094 Z M 374.941406 446.621094" fill="#c1ff72"/><path fill-rule="nonzero" fill-opacity="1" d="M 374.941406 483.90625 L 250.664062 483.90625 C 247.230469 483.90625 244.449219 481.121094 244.449219 477.691406 C 244.449219 474.257812 247.230469 471.476562 250.664062 471.476562 L 374.941406 471.476562 C 378.371094 471.476562 381.152344 474.257812 381.152344 477.691406 C 381.152344 481.121094 378.371094 483.90625 374.941406 483.90625 Z M 374.941406 483.90625" fill="#c1ff72"/><path fill-rule="nonzero" fill-opacity="1" d="M 374.941406 521.1875 L 250.664062 521.1875 C 247.230469 521.1875 244.449219 518.40625 244.449219 514.972656 C 244.449219 511.542969 247.230469 508.761719 250.664062 508.761719 L 374.941406 508.761719 C 378.371094 508.761719 381.152344 511.542969 381.152344 514.972656 C 381.152344 518.40625 378.371094 521.1875 374.941406 521.1875 Z M 374.941406 521.1875" fill="#c1ff72"/><path fill-rule="nonzero" fill-opacity="1" d="M 505.429688 465.261719 L 430.863281 465.261719 C 427.433594 465.261719 424.652344 462.480469 424.652344 459.050781 C 424.652344 437.160156 415.1875 416.339844 398.6875 401.929688 C 387.957031 392.558594 379.359375 381.332031 373.136719 368.5625 C 366.007812 353.925781 362.4375 338.203125 362.511719 321.828125 C 362.648438 293.667969 373.6875 267.246094 393.601562 247.433594 C 413.511719 227.621094 439.988281 216.707031 468.148438 216.707031 C 526.394531 216.707031 573.785156 264.097656 573.785156 322.34375 C 573.785156 352.746094 560.664062 381.695312 537.792969 401.765625 C 521.175781 416.347656 511.644531 437.226562 511.644531 459.050781 C 511.644531 462.480469 508.863281 465.261719 505.429688 465.261719 Z M 436.859375 452.835938 L 499.4375 452.835938 C 501.085938 429.722656 511.871094 407.980469 529.597656 392.425781 C 549.78125 374.710938 561.355469 349.171875 561.355469 322.34375 C 561.355469 270.949219 519.542969 229.136719 468.148438 229.136719 C 417 229.136719 375.1875 270.742188 374.941406 321.886719 C 374.871094 336.339844 378.023438 350.214844 384.308594 363.121094 C 389.800781 374.386719 397.390625 384.292969 406.863281 392.566406 C 424.5 407.96875 435.226562 429.664062 436.859375 452.835938 Z M 436.859375 452.835938" fill="#c1ff72"/><path fill-rule="nonzero" fill-opacity="1" d="M 505.429688 490.117188 L 430.863281 490.117188 C 427.433594 490.117188 424.652344 487.335938 424.652344 483.90625 L 424.652344 459.050781 C 424.652344 455.617188 427.433594 452.835938 430.863281 452.835938 L 505.429688 452.835938 C 508.863281 452.835938 511.644531 455.617188 511.644531 459.050781 L 511.644531 483.90625 C 511.644531 487.335938 508.863281 490.117188 505.429688 490.117188 Z M 437.078125 477.691406 L 499.21875 477.691406 L 499.21875 465.261719 L 437.078125 465.261719 Z M 437.078125 477.691406" fill="#c1ff72"/><path fill-rule="nonzero" fill-opacity="1" d="M 468.148438 527.402344 C 451.015625 527.402344 437.078125 513.464844 437.078125 496.332031 L 437.078125 483.90625 C 437.078125 480.472656 439.859375 477.691406 443.292969 477.691406 L 493.003906 477.691406 C 496.433594 477.691406 499.21875 480.472656 499.21875 483.90625 L 499.21875 496.332031 C 499.21875 513.464844 485.28125 527.402344 468.148438 527.402344 Z M 449.507812 490.117188 L 449.507812 496.332031 C 449.507812 506.609375 457.871094 514.972656 468.148438 514.972656 C 478.425781 514.972656 486.789062 506.609375 486.789062 496.332031 L 486.789062 490.117188 Z M 449.507812 490.117188" fill="#c1ff72"/><path fill-rule="nonzero" fill-opacity="1" d="M 468.148438 465.261719 C 464.714844 465.261719 461.933594 462.480469 461.933594 459.050781 L 461.933594 378.269531 C 461.933594 374.835938 464.714844 372.054688 468.148438 372.054688 C 471.578125 372.054688 474.363281 374.835938 474.363281 378.269531 L 474.363281 459.050781 C 474.363281 462.480469 471.578125 465.261719 468.148438 465.261719 Z M 468.148438 465.261719" fill="#c1ff72"/><path fill-rule="nonzero" fill-opacity="1" d="M 468.148438 384.484375 C 451.015625 384.484375 437.078125 370.542969 437.078125 353.414062 C 437.078125 336.28125 451.015625 322.34375 468.148438 322.34375 C 485.28125 322.34375 499.21875 336.28125 499.21875 353.414062 C 499.21875 370.542969 485.28125 384.484375 468.148438 384.484375 Z M 468.148438 334.773438 C 457.871094 334.773438 449.507812 343.132812 449.507812 353.414062 C 449.507812 363.691406 457.871094 372.054688 468.148438 372.054688 C 478.425781 372.054688 486.789062 363.691406 486.789062 353.414062 C 486.789062 343.132812 478.425781 334.773438 468.148438 334.773438 Z M 468.148438 334.773438" fill="#c1ff72"/><path fill-rule="nonzero" fill-opacity="1" d="M 399.796875 226.027344 C 398.207031 226.027344 396.613281 225.421875 395.402344 224.210938 L 379.867188 208.675781 C 377.441406 206.246094 377.441406 202.3125 379.867188 199.886719 C 382.292969 197.460938 386.226562 197.460938 388.652344 199.886719 L 404.1875 215.421875 C 406.617188 217.847656 406.617188 221.78125 404.1875 224.210938 C 402.976562 225.421875 401.386719 226.027344 399.796875 226.027344 Z M 399.796875 226.027344" fill="#c1ff72"/><path fill-rule="nonzero" fill-opacity="1" d="M 364.339844 251.558594 C 363.320312 251.558594 362.285156 251.308594 361.328125 250.777344 L 342.125 240.109375 C 339.125 238.441406 338.042969 234.660156 339.710938 231.660156 C 341.375 228.660156 345.160156 227.578125 348.160156 229.246094 L 367.363281 239.914062 C 370.363281 241.582031 371.445312 245.363281 369.777344 248.363281 C 368.644531 250.40625 366.523438 251.558594 364.339844 251.558594 Z M 364.339844 251.558594" fill="#c1ff72"/><path fill-rule="nonzero" fill-opacity="1" d="M 353.191406 297.488281 L 331.441406 297.488281 C 328.011719 297.488281 325.230469 294.707031 325.230469 291.273438 C 325.230469 287.84375 328.011719 285.0625 331.441406 285.0625 L 353.191406 285.0625 C 356.625 285.0625 359.40625 287.84375 359.40625 291.273438 C 359.40625 294.707031 356.625 297.488281 353.191406 297.488281 Z M 353.191406 297.488281" fill="#c1ff72"/><path fill-rule="nonzero" fill-opacity="1" d="M 536.5 226.027344 C 534.910156 226.027344 533.320312 225.421875 532.105469 224.210938 C 529.679688 221.78125 529.679688 217.847656 532.105469 215.421875 L 547.640625 199.886719 C 550.070312 197.460938 554.003906 197.460938 556.429688 199.886719 C 558.855469 202.3125 558.855469 206.246094 556.429688 208.675781 L 540.894531 224.210938 C 539.679688 225.421875 538.089844 226.027344 536.5 226.027344 Z M 536.5 226.027344" fill="#c1ff72"/><path fill-rule="nonzero" fill-opacity="1" d="M 571.953125 251.558594 C 569.769531 251.558594 567.652344 250.40625 566.519531 248.363281 C 564.851562 245.363281 565.933594 241.578125 568.933594 239.914062 L 588.136719 229.246094 C 591.136719 227.578125 594.917969 228.65625 596.585938 231.660156 C 598.253906 234.660156 597.171875 238.441406 594.171875 240.109375 L 574.96875 250.777344 C 574.011719 251.308594 572.976562 251.558594 571.953125 251.558594 Z M 571.953125 251.558594" fill="#c1ff72"/><g clip-path="url(#1f3bc70342)"><path fill-rule="nonzero" fill-opacity="1" d="M 604.851562 297.488281 L 583.105469 297.488281 C 579.671875 297.488281 576.890625 294.707031 576.890625 291.273438 C 576.890625 287.84375 579.671875 285.0625 583.105469 285.0625 L 604.851562 285.0625 C 608.285156 285.0625 611.066406 287.84375 611.066406 291.273438 C 611.066406 294.707031 608.285156 297.488281 604.851562 297.488281 Z M 604.851562 297.488281" fill="#c1ff72"/></g></svg>