<svg xmlns="http://www.w3.org/2000/svg" xmlns:xlink="http://www.w3.org/1999/xlink" width="1080" zoomAndPan="magnify" viewBox="0 0 810 809.999993" height="1080" preserveAspectRatio="xMidYMid meet" version="1.0"><defs><clipPath id="6cd45c99b1"><path d="M 244.621094 243 L 565.621094 243 L 565.621094 567 L 244.621094 567 Z M 244.621094 243 " clip-rule="nonzero"/></clipPath></defs><rect x="-81" width="972" fill="#ffffff" y="-80.999999" height="971.999992" fill-opacity="1"/><rect x="-81" width="972" fill="#ffffff" y="-80.999999" height="971.999992" fill-opacity="1"/><g clip-path="url(#6cd45c99b1)"><path fill="#dfc7c5" d="M 289.90625 464.160156 L 289.90625 469.957031 C 289.90625 473.144531 287.300781 475.75 284.113281 475.75 L 276.59375 475.75 C 273.410156 475.75 270.800781 473.144531 270.800781 469.957031 L 270.800781 464.160156 C 267.53125 464.160156 264.859375 461.679688 264.859375 458.367188 L 264.859375 452.574219 C 261.671875 452.574219 259.066406 449.964844 259.066406 446.78125 L 259.066406 444.992188 L 301.644531 444.992188 L 301.644531 446.78125 C 301.644531 449.96875 299.035156 452.574219 295.851562 452.574219 L 295.851562 458.367188 C 295.847656 461.679688 293.179688 464.160156 289.90625 464.160156 Z M 424.835938 438.726562 L 424.835938 454.148438 L 439.609375 454.148438 C 444.164062 454.148438 447.886719 457.125 447.886719 460.761719 L 447.886719 467.375 L 362.105469 467.375 L 362.105469 460.761719 C 362.105469 457.125 365.832031 454.148438 370.382812 454.148438 L 385.15625 454.148438 L 385.15625 438.726562 L 351.574219 438.726562 C 346.238281 438.726562 341.871094 434.359375 341.871094 429.019531 L 341.871094 362.25 C 341.871094 356.910156 346.238281 352.542969 351.574219 352.542969 L 458.417969 352.542969 C 463.757812 352.542969 468.125 356.910156 468.125 362.25 L 468.125 429.019531 C 468.125 434.359375 463.757812 438.726562 458.417969 438.726562 Z M 449.78125 416.640625 L 449.78125 367.492188 C 449.78125 366.886719 449.289062 366.394531 448.6875 366.394531 L 361.308594 366.394531 C 360.703125 366.394531 360.210938 366.886719 360.210938 367.492188 L 360.210938 416.640625 Z M 363.691406 336.179688 L 446.300781 336.179688 C 447.335938 336.179688 448.226562 335.761719 448.882812 334.960938 C 449.539062 334.160156 449.777344 333.207031 449.578125 332.191406 C 445.449219 311.34375 427.058594 295.621094 404.996094 295.621094 C 382.933594 295.621094 364.546875 311.34375 360.417969 332.191406 C 360.214844 333.207031 360.457031 334.160156 361.113281 334.960938 C 361.765625 335.761719 362.65625 336.179688 363.691406 336.179688 Z M 404.996094 288.941406 C 417.6875 288.941406 427.976562 278.652344 427.976562 265.960938 C 427.976562 253.269531 417.6875 242.980469 404.996094 242.980469 C 392.304688 242.980469 382.015625 253.269531 382.015625 265.960938 C 382.019531 278.652344 392.304688 288.941406 404.996094 288.941406 Z M 516.902344 360.34375 C 519.734375 359.851562 522.644531 359.59375 525.613281 359.59375 C 526.492188 359.59375 527.363281 359.617188 528.230469 359.660156 C 511.992188 319.914062 477.304688 290.183594 435.421875 280.386719 C 433.738281 283.933594 431.453125 287.136719 428.695312 289.871094 C 467.800781 297.542969 500.773438 324.015625 516.902344 360.34375 Z M 465.476562 482.621094 C 438.851562 483.289062 423.792969 491.863281 410.339844 507.101562 L 410.339844 566.953125 C 425.496094 558.65625 445.546875 555.90625 465.601562 555.644531 C 467.425781 555.621094 468.898438 554.128906 468.898438 552.304688 L 468.898438 485.960938 C 468.898438 485.027344 468.558594 484.222656 467.890625 483.570312 C 467.222656 482.917969 466.410156 482.597656 465.476562 482.621094 Z M 344.546875 482.640625 C 343.609375 482.605469 342.789062 482.921875 342.113281 483.574219 C 341.4375 484.230469 341.09375 485.035156 341.09375 485.976562 L 341.09375 552.304688 C 341.09375 554.128906 342.566406 555.621094 344.390625 555.644531 C 364.445312 555.90625 384.496094 558.65625 399.652344 566.953125 L 399.652344 506.078125 C 389.089844 493.925781 370.035156 483.507812 344.546875 482.640625 Z M 279.539062 434.304688 L 281.167969 434.304688 L 281.167969 400.390625 L 279.539062 400.390625 Z M 262.96875 386.761719 C 262.96875 388.371094 264.304688 389.703125 265.910156 389.703125 L 268.855469 389.703125 L 268.855469 386.761719 C 268.855469 385.15625 267.519531 383.820312 265.910156 383.820312 C 264.304688 383.820312 262.96875 385.15625 262.96875 386.761719 Z M 300.253906 473.289062 C 299.421875 477.332031 297.097656 480.839844 293.890625 483.214844 C 303.519531 497.789062 315.953125 510.367188 330.410156 520.171875 L 330.410156 506.992188 C 318.375 497.726562 308.128906 486.28125 300.253906 473.289062 Z M 381.300781 289.871094 C 378.542969 287.136719 376.257812 283.929688 374.570312 280.382812 C 339.601562 288.5625 309.429688 310.695312 290.941406 341.375 C 294.539062 342.21875 297.972656 343.476562 301.191406 345.101562 C 319.101562 316.503906 348.089844 296.386719 381.300781 289.871094 Z M 297.738281 386.761719 C 297.738281 385.15625 296.402344 383.820312 294.796875 383.820312 C 293.191406 383.820312 291.855469 385.15625 291.855469 386.761719 L 291.855469 389.703125 L 294.796875 389.703125 C 296.40625 389.703125 297.738281 388.371094 297.738281 386.761719 Z M 565.292969 409.957031 C 565.292969 431.871094 547.527344 449.636719 525.613281 449.636719 C 503.699219 449.636719 485.933594 431.871094 485.933594 409.957031 C 485.933594 388.042969 503.699219 370.277344 525.613281 370.277344 C 547.527344 370.277344 565.292969 388.042969 565.292969 409.957031 Z M 547.828125 410.074219 C 547.839844 407.132812 545.464844 404.742188 542.527344 404.730469 L 530.957031 404.664062 L 530.957031 390.914062 C 530.957031 387.964844 528.5625 385.570312 525.613281 385.570312 C 522.664062 385.570312 520.269531 387.964844 520.269531 390.914062 L 520.269531 409.957031 C 520.269531 413.089844 522.941406 415.535156 526.054688 415.28125 L 542.484375 415.375 C 545.425781 415.386719 547.816406 413.011719 547.828125 410.074219 Z M 268.855469 400.390625 L 265.910156 400.390625 C 258.40625 400.390625 252.285156 394.269531 252.285156 386.761719 C 252.285156 379.253906 258.40625 373.132812 265.910156 373.132812 C 273.417969 373.132812 279.539062 379.253906 279.539062 386.761719 L 279.539062 389.703125 L 281.167969 389.703125 L 281.167969 386.761719 C 281.167969 379.253906 287.289062 373.132812 294.796875 373.132812 C 302.304688 373.132812 308.425781 379.253906 308.425781 386.761719 C 308.425781 394.269531 302.304688 400.390625 294.796875 400.390625 L 291.855469 400.390625 L 291.855469 434.304688 L 301.644531 434.304688 C 303.359375 405.117188 316.007812 406.300781 316.007812 386.5 C 316.007812 366.808594 300.046875 350.847656 280.355469 350.847656 C 260.664062 350.847656 244.699219 366.808594 244.699219 386.5 C 244.699219 406.300781 257.347656 405.117188 259.066406 434.304688 L 268.855469 434.304688 Z M 516.902344 459.570312 C 508.621094 478.226562 495.746094 494.550781 479.585938 506.992188 L 479.585938 520.171875 C 501.300781 505.445312 518.296875 484.570312 528.230469 460.257812 C 527.363281 460.300781 526.492188 460.324219 525.613281 460.324219 C 522.644531 460.324219 519.734375 460.066406 516.902344 459.570312 Z M 516.902344 459.570312 " fill-opacity="1" fill-rule="nonzero"/></g></svg>