<svg xmlns="http://www.w3.org/2000/svg" xmlns:xlink="http://www.w3.org/1999/xlink" width="1080" zoomAndPan="magnify" viewBox="0 0 810 809.999993" height="1080" preserveAspectRatio="xMidYMid meet" version="1.0"><defs><clipPath id="6a6f6362b1"><path d="M 362 255.757812 L 448 255.757812 L 448 342 L 362 342 Z M 362 255.757812 " clip-rule="nonzero"/></clipPath><clipPath id="802ea4db76"><path d="M 243 372 L 567 372 L 567 554.257812 L 243 554.257812 Z M 243 372 " clip-rule="nonzero"/></clipPath></defs><g clip-path="url(#6a6f6362b1)"><path fill="#00bf63" d="M 405 341.757812 C 428.777344 341.757812 448 322.535156 448 298.757812 C 448 274.980469 428.777344 255.757812 405 255.757812 C 381.222656 255.757812 362 274.980469 362 298.757812 C 362 322.535156 381.222656 341.757812 405 341.757812 Z M 405 265.875 C 423.210938 265.875 437.882812 280.546875 437.882812 298.757812 C 437.882812 316.96875 423.210938 331.640625 405 331.640625 C 386.789062 331.640625 372.117188 316.96875 372.117188 298.757812 C 372.117188 280.546875 386.789062 265.875 405 265.875 Z M 405 265.875 " fill-opacity="1" fill-rule="nonzero"/></g><g clip-path="url(#802ea4db76)"><path fill="#00bf63" d="M 563.34375 412.078125 L 519.332031 374.640625 C 517.5625 373.125 515.03125 372.113281 512.753906 372.113281 C 511.238281 372.113281 509.972656 372.367188 508.453125 373.125 C 504.914062 374.894531 502.636719 378.4375 502.636719 382.230469 L 502.636719 400.949219 C 463.683594 406.007812 430.546875 425.230469 408.792969 454.828125 C 408.542969 455.078125 407.023438 456.851562 405 459.886719 C 383.246094 427.003906 348.847656 406.007812 307.363281 400.695312 L 307.363281 382.230469 C 307.363281 378.183594 305.085938 374.640625 301.546875 373.125 C 300.28125 372.367188 298.761719 372.113281 297.246094 372.113281 C 294.96875 372.113281 292.4375 372.871094 290.667969 374.640625 L 246.65625 412.078125 C 244.378906 414.101562 243.113281 416.882812 243.113281 419.667969 L 243.113281 422.195312 C 243.113281 425.230469 244.378906 428.015625 246.65625 429.785156 L 290.667969 467.472656 C 292.4375 468.992188 294.96875 470.003906 297.246094 470.003906 C 298.761719 470.003906 300.027344 469.75 301.546875 468.992188 C 305.085938 467.21875 307.363281 463.679688 307.363281 459.886719 L 307.363281 444.457031 C 352.640625 453.308594 379.199219 489.734375 379.199219 544.117188 C 379.199219 545.128906 379.707031 548.417969 379.707031 549.175781 C 379.707031 551.957031 381.980469 554.234375 384.765625 554.234375 C 385.523438 554.234375 420.683594 554.234375 420.683594 554.234375 C 426.246094 554.234375 430.800781 549.679688 430.800781 544.117188 C 430.800781 489.984375 457.359375 453.308594 502.636719 444.457031 L 502.636719 459.886719 C 502.636719 463.933594 504.914062 467.472656 508.453125 468.992188 C 509.71875 469.496094 511.238281 470.003906 512.753906 470.003906 C 515.03125 470.003906 517.5625 469.242188 519.332031 467.472656 L 563.34375 429.785156 C 565.621094 427.761719 566.886719 424.980469 566.886719 422.195312 L 566.886719 419.667969 C 566.886719 416.882812 565.621094 414.101562 563.34375 412.078125 Z M 297.246094 432.820312 L 297.246094 459.886719 L 253.230469 422.449219 L 253.230469 419.917969 L 297.246094 382.230469 L 297.246094 410.054688 C 339.992188 413.089844 377.175781 434.335938 399.183594 469.75 C 394.375 478.601562 388.8125 490.996094 385.015625 506.933594 C 372.875 461.402344 338.726562 436.613281 297.246094 432.820312 Z M 556.769531 422.449219 L 512.753906 460.136719 L 512.753906 432.820312 C 461.152344 437.625 420.683594 474.808594 420.683594 544.117188 L 389.824219 544.117188 C 391.089844 509.96875 402.21875 484.675781 409.804688 471.773438 C 431.558594 435.097656 469.25 413.34375 512.753906 410.054688 L 512.753906 382.230469 L 556.769531 419.917969 Z M 556.769531 422.449219 " fill-opacity="1" fill-rule="nonzero"/></g><path fill="#00bf63" d="M 402.722656 417.894531 C 398.675781 417.894531 396.148438 419.917969 396.148438 424.21875 C 396.148438 428.265625 398.421875 430.289062 402.722656 430.289062 C 407.023438 430.289062 409.046875 428.265625 409.046875 424.21875 C 409.046875 419.917969 407.023438 417.894531 402.722656 417.894531 Z M 402.722656 417.894531 " fill-opacity="1" fill-rule="nonzero"/><path fill="#00bf63" d="M 425.234375 380.964844 C 425.234375 370.34375 417.648438 364.523438 404.746094 364.523438 C 392.101562 364.523438 384.765625 370.847656 384.765625 381.726562 C 384.765625 384.507812 387.292969 387.035156 390.074219 387.035156 C 393.113281 387.035156 395.386719 384.761719 395.386719 381.726562 C 395.386719 376.414062 399.183594 373.882812 404.492188 373.882812 C 410.816406 373.882812 414.359375 376.414062 414.359375 381.21875 C 414.359375 391.335938 395.386719 392.09375 395.386719 403.984375 C 395.386719 406.511719 396.398438 409.546875 398.929688 412.078125 C 399.941406 413.089844 401.207031 413.597656 402.722656 413.597656 C 405.253906 413.597656 408.035156 411.824219 408.035156 408.535156 C 408.035156 407.523438 407.78125 406.511719 407.277344 405.753906 C 406.519531 404.742188 406.265625 404.238281 406.265625 403.476562 C 406.519531 397.40625 425.234375 396.394531 425.234375 380.964844 Z M 425.234375 380.964844 " fill-opacity="1" fill-rule="nonzero"/><path fill="#00bf63" d="M 334.175781 374.894531 C 334.175781 353.902344 352.386719 341.507812 371.105469 339.484375 C 368.070312 336.953125 365.289062 333.917969 362.757812 330.628906 C 342.015625 335.6875 324.058594 351.371094 324.058594 374.894531 L 324.058594 393.613281 C 327.597656 394.371094 330.886719 395.382812 334.175781 396.394531 Z M 334.175781 374.894531 " fill-opacity="1" fill-rule="nonzero"/><path fill="#00bf63" d="M 438.894531 339.484375 C 457.613281 341.507812 475.824219 353.648438 475.824219 374.894531 L 475.824219 396.394531 C 479.113281 395.382812 482.402344 394.371094 485.941406 393.613281 L 485.941406 374.894531 C 485.941406 351.371094 467.984375 335.6875 447.242188 330.882812 C 444.964844 333.917969 442.183594 336.953125 438.894531 339.484375 Z M 438.894531 339.484375 " fill-opacity="1" fill-rule="nonzero"/></svg>