<svg xmlns="http://www.w3.org/2000/svg" xmlns:xlink="http://www.w3.org/1999/xlink" width="1080" zoomAndPan="magnify" viewBox="0 0 810 809.999993" height="1080" preserveAspectRatio="xMidYMid meet" version="1.0"><defs><clipPath id="d84ec1bedd"><path d="M 303.75 243 L 506.25 243 L 506.25 567 L 303.75 567 Z M 303.75 243 " clip-rule="nonzero"/></clipPath></defs><g clip-path="url(#d84ec1bedd)"><path fill="#f0c0bf" d="M 324.539062 352.507812 L 324.542969 352.507812 C 330.0625 352.507812 335.355469 354.703125 339.257812 358.605469 C 343.160156 362.507812 345.355469 367.800781 345.355469 373.320312 L 345.355469 411.738281 C 345.355469 413.878906 346.292969 415.914062 347.925781 417.304688 L 382.363281 446.65625 C 383.6875 447.785156 385.367188 448.402344 387.105469 448.402344 L 422.828125 448.402344 C 424.566406 448.402344 426.25 447.785156 427.574219 446.65625 L 462.007812 417.304688 C 463.640625 415.914062 464.578125 413.878906 464.578125 411.738281 L 464.578125 373.320312 C 464.578125 367.800781 466.773438 362.507812 470.675781 358.605469 C 474.578125 354.703125 479.875 352.507812 485.394531 352.507812 C 490.914062 352.507812 496.210938 354.703125 500.113281 358.605469 C 504.015625 362.507812 506.210938 367.800781 506.210938 373.320312 L 506.210938 426.101562 C 506.210938 431.328125 503.90625 436.292969 499.914062 439.667969 L 453.828125 478.628906 C 453.121094 479.226562 452.714844 480.101562 452.714844 481.023438 L 452.714844 561.722656 C 452.714844 564.609375 450.375 566.949219 447.492188 566.949219 L 362.261719 566.949219 C 359.375 566.949219 357.039062 564.609375 357.039062 561.722656 L 357.039062 481.21875 C 357.039062 480.300781 356.636719 479.425781 355.9375 478.832031 L 309.964844 439.652344 C 306.007812 436.277344 303.726562 431.335938 303.726562 426.132812 L 303.726562 373.320312 C 303.726562 367.800781 305.917969 362.507812 309.820312 358.605469 C 313.722656 354.703125 319.019531 352.507812 324.539062 352.507812 Z M 485.394531 362.957031 C 482.644531 362.957031 480.007812 364.046875 478.0625 365.992188 C 476.121094 367.9375 475.027344 370.574219 475.027344 373.320312 L 475.027344 411.738281 C 475.027344 416.941406 472.746094 421.882812 468.789062 425.257812 L 434.351562 454.609375 C 431.136719 457.347656 427.050781 458.851562 422.828125 458.851562 L 387.105469 458.851562 C 382.882812 458.851562 378.796875 457.347656 375.585938 454.609375 L 341.148438 425.257812 C 337.1875 421.882812 334.90625 416.941406 334.90625 411.738281 L 334.90625 373.320312 C 334.90625 370.574219 333.8125 367.9375 331.871094 365.992188 C 329.925781 364.046875 327.289062 362.957031 324.542969 362.957031 L 324.539062 362.957031 C 321.789062 362.957031 319.152344 364.046875 317.210938 365.992188 C 315.265625 367.9375 314.171875 370.574219 314.171875 373.320312 L 314.171875 426.132812 C 314.171875 428.273438 315.113281 430.308594 316.742188 431.699219 L 362.714844 470.878906 C 365.742188 473.460938 367.484375 477.238281 367.484375 481.21875 L 367.484375 556.5 C 367.484375 556.5 442.265625 556.5 442.265625 556.5 L 442.265625 481.023438 C 442.265625 477.027344 444.027344 473.234375 447.082031 470.652344 L 493.167969 431.6875 C 494.8125 430.296875 495.761719 428.253906 495.761719 426.101562 L 495.761719 373.320312 C 495.761719 370.574219 494.667969 367.9375 492.726562 365.992188 C 490.78125 364.046875 488.144531 362.957031 485.394531 362.957031 Z M 404.96875 365.832031 C 424.410156 365.832031 440.273438 382.035156 440.273438 402.097656 C 440.273438 422.15625 424.410156 438.363281 404.96875 438.363281 C 385.527344 438.363281 369.660156 422.15625 369.660156 402.097656 C 369.660156 382.035156 385.527344 365.832031 404.96875 365.832031 Z M 404.96875 376.277344 C 391.199219 376.277344 380.109375 387.890625 380.109375 402.097656 C 380.109375 416.300781 391.199219 427.914062 404.96875 427.914062 C 418.734375 427.914062 429.828125 416.300781 429.828125 402.097656 C 429.828125 387.890625 418.734375 376.277344 404.96875 376.277344 Z M 390.96875 302.273438 L 396.152344 286.324219 C 397.394531 282.503906 400.953125 279.917969 404.96875 279.917969 C 408.980469 279.917969 412.539062 282.503906 413.78125 286.324219 L 418.964844 302.273438 L 435.734375 302.273438 C 439.75 302.273438 443.308594 304.859375 444.550781 308.675781 C 445.789062 312.496094 444.429688 316.679688 441.183594 319.039062 L 427.613281 328.898438 L 432.796875 344.847656 C 434.039062 348.667969 432.679688 352.851562 429.429688 355.210938 C 426.183594 357.570312 421.785156 357.570312 418.535156 355.210938 L 404.96875 345.351562 L 391.398438 355.210938 C 388.152344 357.570312 383.753906 357.570312 380.503906 355.210938 C 377.253906 352.851562 375.894531 348.667969 377.136719 344.847656 L 382.320312 328.898438 L 368.75 319.039062 C 365.503906 316.679688 364.144531 312.496094 365.386719 308.675781 C 366.625 304.859375 370.183594 302.273438 374.199219 302.273438 Z M 377.832031 312.722656 L 389.15625 320.949219 C 392.402344 323.308594 393.761719 327.492188 392.523438 331.308594 L 388.195312 344.621094 L 399.519531 336.394531 C 402.769531 334.035156 407.167969 334.035156 410.414062 336.394531 L 421.738281 344.621094 L 417.414062 331.308594 C 416.171875 327.492188 417.53125 323.308594 420.78125 320.949219 L 432.101562 312.722656 L 418.105469 312.722656 C 414.089844 312.722656 410.53125 310.136719 409.292969 306.316406 L 404.96875 293.007812 L 400.640625 306.316406 C 399.402344 310.136719 395.84375 312.722656 391.828125 312.722656 Z M 399.742188 248.277344 C 399.742188 245.394531 402.085938 243.050781 404.96875 243.050781 C 407.851562 243.050781 410.191406 245.394531 410.191406 248.277344 L 410.191406 265.820312 C 410.191406 268.703125 407.851562 271.046875 404.96875 271.046875 C 402.085938 271.046875 399.742188 268.703125 399.742188 265.820312 Z M 365.355469 260.289062 C 363.914062 257.792969 364.773438 254.59375 367.269531 253.152344 C 369.765625 251.710938 372.964844 252.570312 374.40625 255.066406 L 383.175781 270.261719 C 384.617188 272.757812 383.761719 275.953125 381.265625 277.394531 C 378.769531 278.839844 375.570312 277.980469 374.128906 275.484375 Z M 341.582031 287.886719 C 339.085938 286.445312 338.230469 283.246094 339.671875 280.75 C 341.113281 278.253906 344.3125 277.398438 346.808594 278.839844 L 362 287.613281 C 364.5 289.050781 365.355469 292.25 363.914062 294.746094 C 362.472656 297.246094 359.273438 298.101562 356.777344 296.660156 Z M 435.53125 255.066406 C 436.972656 252.570312 440.167969 251.710938 442.664062 253.152344 C 445.164062 254.59375 446.019531 257.792969 444.578125 260.289062 L 435.804688 275.484375 C 434.363281 277.980469 431.167969 278.839844 428.667969 277.394531 C 426.171875 275.953125 425.316406 272.757812 426.757812 270.261719 Z M 463.128906 278.839844 C 465.625 277.398438 468.820312 278.253906 470.261719 280.75 C 471.707031 283.246094 470.847656 286.445312 468.351562 287.886719 L 453.15625 296.660156 C 450.660156 298.101562 447.460938 297.246094 446.019531 294.746094 C 444.578125 292.25 445.4375 289.050781 447.933594 287.613281 Z M 463.128906 278.839844 " fill-opacity="1" fill-rule="evenodd"/></g></svg>