<svg version="1.0" preserveAspectRatio="xMidYMid meet" viewBox="162 189.539998362 461.7 453.59999608000004" zoomAndPan="magnify" xmlns:xlink="http://www.w3.org/1999/xlink" xmlns="http://www.w3.org/2000/svg" style="max-height: 500px" width="461.7" height="453.59999608000004"><defs><clipPath id="ff0dcf25ff"><path clip-rule="nonzero" d="M 179.203125 200.847656 L 611.953125 200.847656 L 611.953125 633.597656 L 179.203125 633.597656 Z M 179.203125 200.847656"/></clipPath></defs><rect fill-opacity="1" height="971.999992" y="-80.999999" fill="#ffffff" width="972" x="-81"/><rect fill-opacity="1" height="971.999992" y="-80.999999" fill="#ffffff" width="972" x="-81"/><g clip-path="url(#ff0dcf25ff)"><path fill-rule="nonzero" fill-opacity="1" d="M 232.007812 352.777344 C 232.007812 349.804688 234.425781 347.386719 237.398438 347.386719 L 309.417969 347.386719 C 312.390625 347.386719 314.804688 349.804688 314.804688 352.777344 C 314.804688 355.75 312.390625 358.164062 309.417969 358.164062 L 237.398438 358.164062 C 234.425781 358.164062 232.007812 355.757812 232.007812 352.777344 Z M 237.398438 382.351562 L 309.472656 382.351562 C 312.445312 382.351562 314.859375 379.9375 314.859375 376.964844 C 314.859375 373.992188 312.445312 371.578125 309.472656 371.578125 L 237.398438 371.578125 C 234.425781 371.578125 232.007812 373.992188 232.007812 376.964844 C 232.007812 379.9375 234.425781 382.351562 237.398438 382.351562 Z M 304.964844 401.15625 C 304.964844 404.128906 307.378906 406.542969 310.351562 406.542969 L 330.769531 406.542969 C 333.742188 406.542969 336.160156 404.128906 336.160156 401.15625 C 336.160156 398.183594 333.742188 395.769531 330.769531 395.769531 L 310.351562 395.769531 C 307.371094 395.769531 304.964844 398.175781 304.964844 401.15625 Z M 237.398438 406.542969 L 282.847656 406.542969 C 285.820312 406.542969 288.238281 404.128906 288.238281 401.15625 C 288.238281 398.183594 285.820312 395.769531 282.847656 395.769531 L 237.398438 395.769531 C 234.425781 395.769531 232.007812 398.183594 232.007812 401.15625 C 232.007812 404.128906 234.425781 406.542969 237.398438 406.542969 Z M 237.398438 430.722656 L 338.464844 430.722656 C 341.4375 430.722656 343.855469 428.308594 343.855469 425.335938 C 343.855469 422.363281 341.4375 419.949219 338.464844 419.949219 L 237.398438 419.949219 C 234.425781 419.949219 232.007812 422.363281 232.007812 425.335938 C 232.007812 428.308594 234.425781 430.722656 237.398438 430.722656 Z M 237.398438 454.914062 L 259.164062 454.914062 C 262.132812 454.914062 264.550781 452.5 264.550781 449.527344 C 264.550781 446.554688 262.132812 444.140625 259.164062 444.140625 L 237.398438 444.140625 C 234.425781 444.140625 232.007812 446.554688 232.007812 449.527344 C 232.007812 452.5 234.425781 454.914062 237.398438 454.914062 Z M 338.476562 444.140625 L 284.132812 444.140625 C 281.160156 444.140625 278.746094 446.554688 278.746094 449.527344 C 278.746094 452.5 281.160156 454.914062 284.132812 454.914062 L 338.476562 454.914062 C 341.449219 454.914062 343.863281 452.5 343.863281 449.527344 C 343.863281 446.554688 341.449219 444.140625 338.476562 444.140625 Z M 237.398438 479.09375 L 338.464844 479.09375 C 341.4375 479.09375 343.855469 476.679688 343.855469 473.707031 C 343.855469 470.734375 341.4375 468.320312 338.464844 468.320312 L 237.398438 468.320312 C 234.425781 468.320312 232.007812 470.734375 232.007812 473.707031 C 232.007812 476.679688 234.425781 479.09375 237.398438 479.09375 Z M 422.800781 358.164062 L 494.820312 358.164062 C 497.792969 358.164062 500.207031 355.75 500.207031 352.777344 C 500.207031 349.804688 497.792969 347.386719 494.820312 347.386719 L 422.800781 347.386719 C 419.828125 347.386719 417.410156 349.804688 417.410156 352.777344 C 417.410156 355.75 419.828125 358.164062 422.800781 358.164062 Z M 494.820312 371.578125 L 422.746094 371.578125 C 419.773438 371.578125 417.359375 373.992188 417.359375 376.964844 C 417.359375 379.9375 419.773438 382.351562 422.746094 382.351562 L 494.820312 382.351562 C 497.792969 382.351562 500.207031 379.9375 500.207031 376.964844 C 500.207031 373.992188 497.792969 371.578125 494.820312 371.578125 Z M 401.445312 406.542969 L 421.875 406.542969 C 424.847656 406.542969 427.261719 404.128906 427.261719 401.15625 C 427.261719 398.183594 424.847656 395.769531 421.875 395.769531 L 401.445312 395.769531 C 398.472656 395.769531 396.058594 398.183594 396.058594 401.15625 C 396.058594 404.128906 398.472656 406.542969 401.445312 406.542969 Z M 494.820312 395.769531 L 449.367188 395.769531 C 446.394531 395.769531 443.980469 398.183594 443.980469 401.15625 C 443.980469 404.128906 446.394531 406.542969 449.367188 406.542969 L 494.820312 406.542969 C 497.792969 406.542969 500.207031 404.128906 500.207031 401.15625 C 500.207031 398.183594 497.792969 395.769531 494.820312 395.769531 Z M 494.820312 419.949219 L 393.742188 419.949219 C 390.769531 419.949219 388.355469 422.363281 388.355469 425.335938 C 388.355469 428.308594 390.769531 430.722656 393.742188 430.722656 L 494.820312 430.722656 C 497.792969 430.722656 500.207031 428.308594 500.207031 425.335938 C 500.207031 422.363281 497.792969 419.949219 494.820312 419.949219 Z M 393.742188 454.914062 L 448.085938 454.914062 C 451.054688 454.914062 453.472656 452.5 453.472656 449.527344 C 453.472656 446.554688 451.054688 444.140625 448.085938 444.140625 L 393.742188 444.140625 C 390.769531 444.140625 388.355469 446.554688 388.355469 449.527344 C 388.355469 452.5 390.769531 454.914062 393.742188 454.914062 Z M 491.21875 444.140625 L 473.046875 444.140625 C 470.074219 444.140625 467.660156 446.554688 467.660156 449.527344 C 467.660156 452.5 470.074219 454.914062 473.046875 454.914062 L 491.21875 454.914062 C 494.191406 454.914062 496.609375 452.5 496.609375 449.527344 C 496.609375 446.554688 494.191406 444.140625 491.21875 444.140625 Z M 476.367188 468.320312 L 393.742188 468.320312 C 390.769531 468.320312 388.355469 470.734375 388.355469 473.707031 C 388.355469 476.679688 390.769531 479.09375 393.742188 479.09375 L 476.367188 479.09375 C 479.339844 479.09375 481.757812 476.679688 481.757812 473.707031 C 481.757812 470.734375 479.339844 468.320312 476.367188 468.320312 Z M 611.570312 599.8125 L 611.570312 623.605469 C 611.570312 629.136719 607.070312 633.644531 601.53125 633.644531 L 501.589844 633.644531 C 496.058594 633.644531 491.550781 629.144531 491.550781 623.605469 L 491.550781 599.8125 C 491.550781 594.28125 496.050781 589.773438 501.589844 589.773438 L 504.140625 589.773438 C 506.699219 586.691406 508.730469 583.273438 510.183594 579.617188 L 493.277344 566.398438 C 491.964844 565.375 491.203125 563.8125 491.203125 562.152344 L 491.203125 553.082031 L 408.628906 553.082031 L 395.367188 572.148438 C 392.511719 576.25 388.011719 578.601562 383.011719 578.601562 L 349.214844 578.601562 C 344.222656 578.601562 339.714844 576.25 336.859375 572.148438 L 323.597656 553.082031 L 194.019531 553.082031 C 185.847656 553.082031 179.203125 546.4375 179.203125 538.269531 L 179.203125 347.074219 C 179.203125 338.902344 185.847656 332.257812 194.019531 332.257812 L 204.378906 332.257812 L 204.378906 329.949219 C 204.378906 320.585938 211.996094 312.972656 221.359375 312.972656 L 309.914062 312.972656 C 300.933594 300.957031 295.96875 286.285156 295.96875 270.992188 C 295.96875 232.320312 327.429688 200.847656 366.113281 200.847656 C 404.796875 200.847656 436.257812 232.3125 436.257812 270.992188 C 436.257812 286.285156 431.292969 300.957031 422.3125 312.972656 L 510.867188 312.972656 C 520.230469 312.972656 527.847656 320.585938 527.847656 329.949219 L 527.847656 332.257812 L 538.199219 332.257812 C 546.371094 332.257812 553.015625 338.902344 553.015625 347.074219 L 553.015625 446.625 L 563.773438 446.625 C 574.125 446.625 583.839844 451.746094 589.765625 460.3125 C 590.988281 462.070312 591.042969 464.378906 589.917969 466.199219 L 582.429688 478.351562 C 586.460938 482.964844 588.914062 489 588.914062 495.597656 L 588.914062 498.210938 L 609.898438 514.742188 C 611.09375 515.683594 611.835938 517.085938 611.9375 518.605469 C 611.980469 519.230469 612 519.851562 612 520.460938 C 612 534.828125 600.398438 546.589844 585.582031 547.246094 C 584.59375 547.292969 583.597656 547.058594 582.726562 546.574219 C 578.390625 544.167969 575.121094 541.976562 572.5 540.207031 C 570.714844 539.011719 569.222656 538.007812 567.792969 537.199219 C 569.339844 547.078125 575.292969 551.109375 582.546875 556.019531 C 590.710938 561.542969 600.863281 568.410156 600.863281 585.257812 L 600.863281 589.761719 L 601.53125 589.761719 C 607.070312 589.773438 611.570312 594.28125 611.570312 599.8125 Z M 578.75 463.804688 C 575.785156 460.734375 571.980469 458.640625 567.832031 457.816406 L 567.832031 469.863281 C 569.921875 470.285156 571.917969 470.960938 573.792969 471.839844 Z M 527.847656 343.035156 L 527.847656 448.53125 C 532.203125 447.300781 536.78125 446.625 541.523438 446.625 L 542.238281 446.625 L 542.238281 347.074219 C 542.238281 344.847656 540.425781 343.035156 538.199219 343.035156 Z M 510.859375 323.746094 L 412.328125 323.746094 C 412.070312 323.972656 411.808594 324.203125 411.546875 324.429688 C 406.195312 328.980469 402.660156 334.476562 400.980469 340.816406 C 404.382812 342.496094 406.726562 345.988281 406.726562 350.027344 L 406.726562 375.285156 C 406.726562 380.953125 402.121094 385.558594 396.453125 385.558594 L 389.640625 385.558594 C 387.859375 394.863281 380.6875 402.269531 371.511719 404.386719 L 371.511719 516.207031 C 379.050781 507.945312 389.898438 502.746094 401.949219 502.746094 L 491.21875 502.746094 L 491.21875 496.945312 C 491.21875 478.070312 501.671875 461.605469 517.082031 452.992188 L 517.082031 329.949219 C 517.070312 326.53125 514.277344 323.746094 510.859375 323.746094 Z M 336.265625 374.773438 L 395.949219 374.773438 L 395.949219 350.523438 L 336.265625 350.523438 Z M 351.039062 274.683594 C 351.039062 270.382812 347.535156 266.882812 343.234375 266.882812 C 338.933594 266.882812 335.429688 270.382812 335.429688 274.683594 L 335.429688 275.023438 C 335.429688 279.328125 338.933594 282.828125 343.234375 282.828125 L 351.039062 282.828125 Z M 361.8125 339.746094 L 370.414062 339.746094 L 370.414062 293.59375 L 361.8125 293.59375 Z M 353.738281 385.550781 C 355.582031 390.605469 360.421875 394.222656 366.105469 394.222656 C 371.789062 394.222656 376.628906 390.605469 378.46875 385.550781 Z M 306.742188 270.992188 C 306.742188 288.421875 314.367188 304.90625 327.65625 316.222656 C 335.097656 322.5625 340.019531 330.625 342.058594 339.746094 L 351.027344 339.746094 L 351.027344 293.59375 L 343.226562 293.59375 C 332.980469 293.59375 324.648438 285.261719 324.648438 275.015625 L 324.648438 274.675781 C 324.648438 264.429688 332.980469 256.097656 343.226562 256.097656 C 353.46875 256.097656 361.804688 264.429688 361.804688 274.675781 L 361.804688 282.808594 L 370.40625 282.808594 L 370.40625 274.675781 C 370.40625 264.429688 378.738281 256.097656 388.984375 256.097656 C 399.230469 256.097656 407.5625 264.429688 407.5625 274.675781 L 407.5625 275.015625 C 407.5625 285.261719 399.230469 293.59375 388.984375 293.59375 L 381.179688 293.59375 L 381.179688 339.746094 L 390.152344 339.746094 C 392.199219 330.625 397.109375 322.5625 404.554688 316.222656 C 417.84375 304.90625 425.464844 288.421875 425.464844 270.992188 C 425.464844 238.253906 398.832031 211.625 366.09375 211.625 C 333.375 211.625 306.742188 238.253906 306.742188 270.992188 Z M 388.984375 282.820312 C 393.285156 282.820312 396.785156 279.316406 396.785156 275.015625 L 396.785156 274.675781 C 396.785156 270.375 393.285156 266.871094 388.984375 266.871094 C 384.683594 266.871094 381.179688 270.375 381.179688 274.675781 L 381.179688 282.808594 L 388.984375 282.808594 Z M 215.15625 496.542969 C 215.15625 499.960938 217.9375 502.746094 221.359375 502.746094 L 330.285156 502.746094 C 342.328125 502.746094 353.183594 507.9375 360.726562 516.195312 L 360.726562 404.386719 C 351.550781 402.269531 344.367188 394.863281 342.597656 385.558594 L 335.773438 385.558594 C 330.105469 385.558594 325.5 380.953125 325.5 375.285156 L 325.5 350.027344 C 325.5 345.988281 327.851562 342.496094 331.246094 340.816406 C 329.566406 334.484375 326.03125 328.980469 320.679688 324.429688 C 320.417969 324.203125 320.15625 323.972656 319.898438 323.746094 L 221.359375 323.746094 C 217.9375 323.746094 215.15625 326.53125 215.15625 329.949219 Z M 491.203125 542.316406 L 491.203125 513.519531 L 401.929688 513.519531 C 385.148438 513.519531 371.492188 527.179688 371.492188 543.960938 C 371.492188 546.933594 369.078125 549.347656 366.105469 549.347656 C 363.132812 549.347656 360.714844 546.933594 360.714844 543.960938 C 360.714844 527.179688 347.058594 513.519531 330.277344 513.519531 L 221.359375 513.519531 C 211.996094 513.519531 204.378906 505.90625 204.378906 496.542969 L 204.378906 343.035156 L 194.019531 343.035156 C 191.792969 343.035156 189.976562 344.847656 189.976562 347.074219 L 189.976562 538.285156 C 189.976562 540.511719 191.792969 542.328125 194.019531 542.328125 L 326.40625 542.328125 C 328.167969 542.328125 329.820312 543.1875 330.824219 544.632812 L 345.695312 566.003906 C 346.554688 567.234375 347.707031 567.835938 349.207031 567.835938 L 383.003906 567.835938 C 384.503906 567.835938 385.652344 567.234375 386.515625 566.003906 L 401.382812 544.632812 C 402.390625 543.1875 404.042969 542.328125 405.800781 542.328125 L 491.203125 542.328125 Z M 512.761719 567.972656 C 512.804688 567.234375 512.832031 566.488281 512.832031 565.746094 L 512.832031 502.460938 C 512.832031 488.386719 521.929688 475.84375 534.96875 471.230469 C 535.722656 466.011719 537.921875 461.261719 541.144531 457.417969 C 519.515625 457.617188 501.976562 475.269531 501.976562 496.953125 L 501.976562 559.546875 Z M 517.214844 589.773438 L 590.097656 589.773438 L 590.097656 585.265625 C 590.097656 574.140625 584.40625 570.289062 576.511719 564.953125 C 568.0625 559.242188 557.65625 552.1875 556.707031 534.460938 C 556.507812 534.460938 556.320312 534.453125 556.113281 534.453125 C 544.601562 534.453125 535.226562 525.085938 535.226562 513.566406 C 535.226562 509.09375 536.617188 504.839844 539.25 501.238281 C 541.011719 498.839844 544.378906 498.320312 546.773438 500.070312 C 549.171875 501.820312 549.691406 505.199219 547.941406 507.59375 C 546.667969 509.328125 546.003906 511.394531 546.003906 513.558594 C 546.003906 519.132812 550.535156 523.667969 556.113281 523.667969 C 567.183594 523.667969 571.933594 526.855469 578.507812 531.265625 C 580.777344 532.789062 583.3125 534.488281 586.5625 536.355469 C 594.5 535.367188 600.632812 529.199219 601.1875 521.59375 L 580.195312 505.054688 C 578.902344 504.03125 578.140625 502.476562 578.140625 500.824219 L 578.140625 495.589844 C 578.140625 487.050781 571.1875 480.101562 562.648438 480.101562 L 562.441406 480.101562 C 559.472656 480.101562 557.054688 477.683594 557.054688 474.714844 L 557.054688 459.132812 C 550.347656 461.273438 545.464844 467.671875 545.464844 475.207031 L 545.464844 475.34375 C 545.464844 477.875 543.695312 480.066406 541.226562 480.605469 C 531.023438 482.832031 523.617188 492.007812 523.617188 502.433594 L 523.617188 565.71875 C 523.617188 574.257812 521.382812 582.5 517.214844 589.773438 Z M 600.792969 600.546875 L 502.328125 600.546875 L 502.328125 622.871094 L 600.792969 622.871094 Z M 600.792969 600.546875" fill="#ebe7dd"/></g></svg>