<svg version="1.0" preserveAspectRatio="xMidYMid meet" viewBox="230.04 231.659997998 345.06 341.81999704599997" zoomAndPan="magnify" xmlns:xlink="http://www.w3.org/1999/xlink" xmlns="http://www.w3.org/2000/svg" style="max-height: 500px" width="345.06" height="341.81999704599997"><defs><clipPath id="5ae258a3e4"><path clip-rule="nonzero" d="M 245.835938 243 L 563.835938 243 L 563.835938 566 L 245.835938 566 Z M 245.835938 243"/></clipPath></defs><rect fill-opacity="1" height="971.999992" y="-80.999999" fill="#ffffff" width="972" x="-81"/><rect fill-opacity="1" height="971.999992" y="-80.999999" fill="#ffffff" width="972" x="-81"/><g clip-path="url(#5ae258a3e4)"><path fill-rule="nonzero" fill-opacity="1" d="M 410.382812 508.796875 L 410.382812 523.109375 L 455.691406 523.109375 C 463.503906 523.109375 469.886719 516.734375 469.886719 508.914062 L 469.886719 480.429688 C 469.886719 469.484375 460.929688 460.507812 449.984375 460.507812 L 443.152344 460.507812 C 438.601562 463.082031 433.347656 464.5625 427.734375 464.5625 C 422.164062 464.5625 416.929688 463.101562 412.382812 460.546875 C 401.949219 461.117188 393.5625 469.839844 393.5625 480.429688 L 393.5625 493.1875 L 396.984375 499.089844 L 401.179688 499.089844 L 401.179688 482.414062 C 401.179688 479.722656 403.347656 477.554688 406.039062 477.554688 C 408.722656 477.554688 410.902344 479.722656 410.902344 482.414062 L 410.902344 499.089844 L 443.34375 499.089844 L 443.34375 482.414062 C 443.34375 479.722656 445.511719 477.554688 448.1875 477.554688 C 450.878906 477.554688 453.046875 479.722656 453.046875 482.414062 L 453.046875 503.949219 C 453.046875 506.644531 450.878906 508.8125 448.1875 508.8125 Z M 400.652344 523.101562 L 400.652344 508.789062 L 393.054688 508.789062 C 390.394531 508.789062 387.796875 508.734375 385.652344 510.601562 C 380.792969 514.851562 383.722656 523.101562 390.375 523.101562 Z M 493.941406 332.496094 L 505.164062 343.714844 C 507.074219 345.605469 507.074219 348.675781 505.164062 350.585938 C 503.273438 352.472656 500.183594 352.472656 498.296875 350.585938 L 487.074219 339.363281 C 478.179688 343.589844 466.71875 337.335938 466.71875 326.410156 C 466.71875 315.777344 477.824219 309.125 487.074219 313.460938 L 498.941406 301.59375 C 500.832031 299.703125 503.921875 299.703125 505.808594 301.59375 C 507.71875 303.480469 507.71875 306.570312 505.808594 308.460938 L 493.898438 320.371094 C 495.628906 324.113281 495.832031 328.542969 493.941406 332.496094 Z M 485.851562 271.300781 L 485.851562 278.425781 C 485.851562 281.121094 483.683594 283.285156 480.992188 283.285156 C 478.308594 283.285156 476.128906 281.121094 476.128906 278.425781 L 476.128906 271.300781 C 465.144531 272.265625 454.402344 276.515625 445.464844 284.015625 L 450.503906 289.058594 C 452.414062 290.945312 452.414062 294.015625 450.503906 295.925781 C 448.617188 297.8125 445.527344 297.8125 443.636719 295.925781 L 438.597656 290.882812 C 431.097656 299.820312 426.867188 310.570312 425.902344 321.550781 L 433.027344 321.550781 C 435.699219 321.550781 437.886719 323.738281 437.886719 326.410156 C 437.886719 329.089844 435.699219 331.273438 433.027344 331.273438 L 425.902344 331.273438 C 426.867188 342.257812 431.097656 353 438.597656 361.9375 L 443.636719 356.898438 C 445.527344 355.007812 448.617188 355.007812 450.503906 356.898438 C 452.414062 358.785156 452.414062 361.875 450.503906 363.765625 L 445.464844 368.804688 C 454.402344 376.304688 465.152344 380.535156 476.128906 381.5 L 476.128906 374.394531 C 476.128906 371.703125 478.316406 369.535156 480.992188 369.535156 C 483.683594 369.535156 485.851562 371.703125 485.851562 374.394531 L 485.851562 381.5 C 496.835938 380.535156 507.582031 376.304688 516.519531 368.804688 L 511.476562 363.765625 C 509.585938 361.875 509.585938 358.785156 511.476562 356.898438 C 513.386719 355.007812 516.457031 355.007812 518.367188 356.898438 L 523.386719 361.9375 C 530.90625 353 535.136719 342.25 536.101562 331.273438 L 528.976562 331.273438 C 526.296875 331.273438 524.113281 329.085938 524.113281 326.410156 C 524.113281 323.738281 526.300781 321.550781 528.976562 321.550781 L 536.101562 321.550781 C 535.136719 310.5625 530.90625 299.820312 523.386719 290.882812 L 518.367188 295.925781 C 516.457031 297.8125 513.386719 297.8125 511.476562 295.925781 C 509.585938 294.015625 509.585938 290.945312 511.476562 289.058594 L 516.519531 284.015625 C 507.582031 276.515625 496.832031 272.257812 485.851562 271.300781 Z M 484.214844 323.1875 C 481.359375 320.335938 476.433594 322.363281 476.433594 326.417969 C 476.433594 330.472656 481.359375 332.5 484.214844 329.648438 C 485.984375 327.871094 486.003906 325.097656 484.214844 323.1875 Z M 480.984375 261.378906 Z M 480.984375 261.378906 L 481.121094 261.378906 C 517.304688 261.632812 546.046875 290.625 546.046875 326.417969 C 546.046875 344.703125 538.800781 360.277344 526.988281 372.402344 C 526.753906 372.402344 510.273438 391.457031 480.984375 391.457031 C 445.0625 391.457031 415.941406 362.347656 415.941406 326.417969 C 415.941406 297.125 435 280.648438 435 280.410156 C 447.386719 268.363281 462.40625 261.59375 480.984375 261.378906 Z M 480.984375 243.226562 C 526.925781 243.226562 564.171875 280.46875 564.171875 326.410156 C 564.171875 372.355469 526.925781 409.597656 480.984375 409.597656 C 435.039062 409.597656 397.796875 372.355469 397.796875 326.410156 C 397.796875 280.46875 435.039062 243.226562 480.984375 243.226562 Z M 532.933594 274.46875 C 504.253906 245.789062 457.742188 245.789062 429.039062 274.46875 C 400.359375 303.148438 400.359375 349.660156 429.039062 378.363281 C 457.742188 407.042969 504.253906 407.042969 532.933594 378.363281 C 561.613281 349.660156 561.613281 303.148438 532.933594 274.46875 Z M 427.742188 402.019531 C 445.027344 402.019531 459.019531 416.015625 459.019531 433.277344 C 459.019531 439.855469 456.992188 445.957031 453.527344 450.992188 C 468.171875 452.761719 479.609375 465.304688 479.609375 480.421875 L 479.609375 508.90625 C 479.609375 522.074219 468.878906 532.824219 455.691406 532.824219 L 411.851562 532.824219 L 380.4375 564.554688 C 378.214844 566.773438 374.355469 566.441406 372.660156 563.308594 L 339.902344 506.539062 C 339.214844 505.414062 338.980469 504 339.410156 502.625 L 351.417969 463.234375 C 352.5 459.695312 356.929688 458.664062 359.464844 461.207031 L 359.484375 461.207031 L 369.605469 471.304688 L 372.296875 468.570312 C 374.519531 466.347656 378.382812 466.679688 380.074219 469.8125 L 384.070312 476.742188 C 385.445312 465.660156 392.964844 456.464844 403.179688 452.644531 C 398.964844 447.332031 396.449219 440.597656 396.449219 433.277344 C 396.457031 416.019531 410.476562 402.019531 427.742188 402.019531 Z M 442.976562 418.046875 C 434.574219 409.644531 420.910156 409.644531 412.507812 418.046875 C 402.839844 427.714844 404.339844 443.875 416.367188 451.589844 C 424.753906 456.984375 436.054688 455.464844 442.976562 448.519531 C 451.402344 440.109375 451.402344 426.472656 442.976562 418.046875 Z M 373.3125 481.351562 L 350.082031 504.839844 L 378.011719 553.226562 L 398.207031 532.832031 C 395.902344 532.832031 390.589844 532.96875 388.269531 532.691406 C 378.484375 531.53125 372.132812 522.039062 373.761719 512.875 C 374.042969 511.4375 374.492188 510.019531 375.136719 508.679688 L 377.304688 505.332031 C 379.625 502.519531 382.855469 500.375 386.105469 499.601562 L 374.730469 479.914062 Z M 362.761719 478.222656 L 358.332031 473.789062 L 354.394531 486.6875 Z M 336.089844 349.9375 C 344.375 349.9375 351.507812 354.839844 354.75 361.890625 C 364.160156 353.445312 378.742188 353.738281 387.796875 362.777344 L 401.359375 376.339844 C 403.25 378.230469 403.25 381.320312 401.359375 383.207031 L 390.277344 394.292969 C 396.695312 402.167969 396.597656 414.097656 388.882812 421.792969 C 381.1875 429.507812 369.257812 429.605469 361.382812 423.1875 L 349.652344 434.917969 C 347.765625 436.804688 344.671875 436.804688 342.785156 434.917969 L 329.222656 421.355469 C 320.445312 412.578125 319.910156 398.597656 327.589844 389.167969 C 326.25 388.554688 324.972656 387.804688 323.8125 386.925781 L 282.355469 422.792969 C 290.917969 433.324219 287.054688 449.1875 274.558594 454.601562 L 293.925781 496.179688 L 321.230469 496.179688 C 330.660156 496.179688 338.355469 503.894531 338.355469 513.324219 L 338.355469 525.609375 C 338.355469 528.28125 336.1875 530.46875 333.492188 530.46875 L 258.097656 530.46875 C 255.425781 530.46875 253.238281 528.28125 253.238281 525.609375 L 253.238281 513.324219 C 253.238281 503.894531 260.953125 496.179688 270.382812 496.179688 L 283.195312 496.179688 L 264.589844 456.199219 C 254.097656 455.296875 245.847656 446.476562 245.847656 435.75 C 245.847656 420.910156 261.042969 411.144531 274.410156 416.832031 L 317.617188 379.472656 C 311.050781 366 320.792969 349.9375 336.089844 349.9375 Z M 356.328125 374.015625 C 354.847656 382.519531 348.140625 389.230469 339.632812 390.707031 L 336.089844 394.25 C 330.542969 399.796875 330.542969 408.9375 336.089844 414.484375 L 346.230469 424.605469 L 391.046875 379.785156 L 380.929688 369.667969 C 375.359375 364.097656 366.242188 364.097656 360.695312 369.667969 Z M 343.742188 362.835938 C 336.929688 356.023438 325.257812 360.867188 325.257812 370.472656 C 325.257812 380.117188 336.953125 384.902344 343.742188 378.132812 C 347.957031 373.894531 347.957031 367.042969 343.742188 362.835938 Z M 383.355469 401.214844 L 368.292969 416.277344 C 374.964844 420.824219 385.179688 416.394531 385.179688 407.265625 C 385.179688 405.035156 384.535156 402.953125 383.355469 401.214844 Z M 274.042969 428.089844 C 267.25 421.296875 255.578125 426.136719 255.578125 435.75 C 255.578125 445.414062 267.308594 450.136719 274.042969 443.410156 C 278.273438 439.167969 278.273438 432.320312 274.042969 428.089844 Z M 262.960938 520.742188 L 328.625 520.742188 L 328.625 513.316406 C 328.625 509.242188 325.277344 505.894531 321.222656 505.894531 L 270.382812 505.894531 C 266.308594 505.894531 262.960938 509.242188 262.960938 513.316406 Z M 262.960938 520.742188" fill="#8c52ff"/></g></svg>