<svg xmlns="http://www.w3.org/2000/svg" xmlns:xlink="http://www.w3.org/1999/xlink" width="1080" zoomAndPan="magnify" viewBox="0 0 810 809.999993" height="1080" preserveAspectRatio="xMidYMid meet" version="1.0"><rect x="-81" width="972" fill="#ffffff" y="-80.999999" height="971.999992" fill-opacity="1"/><rect x="-81" width="972" fill="#ffffff" y="-80.999999" height="971.999992" fill-opacity="1"/><path fill="#c2dcf2" d="M 553.421875 324.171875 L 546.261719 328.347656 L 538.433594 314.597656 C 536.992188 312.101562 533.828125 311.230469 531.335938 312.671875 C 528.839844 314.089844 527.988281 317.253906 529.410156 319.75 L 537.296875 333.582031 L 435.195312 393.273438 C 434.304688 382.136719 428.523438 372.035156 419.417969 365.6875 L 537.785156 296.503906 C 538.25 296.222656 538.859375 296.140625 539.40625 296.300781 C 539.976562 296.445312 540.441406 296.808594 540.746094 297.335938 L 554.234375 321.007812 C 554.863281 322.121094 554.496094 323.542969 553.421875 324.171875 Z M 399.378906 389.945312 C 400.675781 390.898438 401.792969 392.117188 402.519531 393.578125 C 403.375 395.199219 403.699219 397.003906 403.617188 398.808594 L 393.171875 399.457031 Z M 411.769531 388.832031 C 410.1875 385.746094 407.816406 383.234375 405.015625 381.304688 L 410.714844 372.5625 C 419.84375 377.410156 425.339844 387.085938 424.871094 397.53125 L 413.980469 398.179688 C 413.941406 394.976562 413.269531 391.75 411.769531 388.832031 Z M 563.238281 315.875 L 549.773438 292.207031 C 548.089844 289.265625 545.371094 287.15625 542.125 286.28125 C 538.921875 285.390625 535.433594 285.855469 532.550781 287.539062 L 406.3125 361.328125 C 406.191406 361.390625 406.132812 361.53125 406.03125 361.589844 C 405.625 361.875 405.300781 362.199219 404.996094 362.585938 C 404.875 362.726562 404.691406 362.808594 404.570312 362.972656 L 378.851562 402.421875 C 377.777344 404.0625 377.714844 406.171875 378.710938 407.875 C 379.644531 409.476562 381.347656 410.453125 383.191406 410.453125 C 383.292969 410.453125 383.394531 410.453125 383.496094 410.433594 L 430.125 407.613281 C 430.328125 407.59375 430.492188 407.46875 430.695312 407.429688 C 431.179688 407.347656 431.648438 407.226562 432.09375 407.003906 C 432.195312 406.964844 432.316406 406.964844 432.417969 406.902344 L 546.914062 339.992188 C 546.914062 339.992188 546.914062 339.992188 546.933594 339.992188 C 546.933594 339.992188 546.933594 339.992188 546.933594 339.96875 L 558.65625 333.136719 C 564.640625 329.648438 566.6875 321.898438 563.238281 315.875 Z M 455.882812 311.796875 L 383.191406 311.796875 C 380.332031 311.796875 378 309.464844 378 306.605469 C 378 303.746094 380.332031 301.414062 383.191406 301.414062 L 455.882812 301.414062 C 458.746094 301.414062 461.078125 303.746094 461.078125 306.605469 C 461.078125 309.464844 458.746094 311.796875 455.882812 311.796875 Z M 357.230469 400.066406 C 360.089844 400.066406 362.421875 402.398438 362.421875 405.257812 C 362.421875 408.121094 360.089844 410.453125 357.230469 410.453125 L 331.269531 410.453125 C 328.410156 410.453125 326.078125 408.121094 326.078125 405.257812 C 326.078125 402.398438 328.410156 400.066406 331.269531 400.066406 Z M 372.808594 379.296875 L 331.269531 379.296875 C 328.410156 379.296875 326.078125 376.964844 326.078125 374.105469 C 326.078125 371.246094 328.410156 368.914062 331.269531 368.914062 L 372.808594 368.914062 C 375.667969 368.914062 378 371.246094 378 374.105469 C 378 376.964844 375.667969 379.296875 372.808594 379.296875 Z M 403.960938 348.144531 L 331.269531 348.144531 C 328.410156 348.144531 326.078125 345.8125 326.078125 342.953125 C 326.078125 340.09375 328.410156 337.757812 331.269531 337.757812 L 403.960938 337.757812 C 406.820312 337.757812 409.152344 340.09375 409.152344 342.953125 C 409.152344 345.8125 406.820312 348.144531 403.960938 348.144531 Z M 326.078125 306.605469 C 326.078125 303.746094 328.410156 301.414062 331.269531 301.414062 L 352.039062 301.414062 C 354.898438 301.414062 357.230469 303.746094 357.230469 306.605469 C 357.230469 309.464844 354.898438 311.796875 352.039062 311.796875 L 331.269531 311.796875 C 328.410156 311.796875 326.078125 309.464844 326.078125 306.605469 Z M 283.847656 392.339844 C 285.269531 394.8125 284.4375 397.976562 281.941406 399.417969 C 281.132812 399.90625 280.238281 400.128906 279.347656 400.128906 C 277.5625 400.128906 275.816406 399.195312 274.84375 397.53125 L 243.691406 343.582031 C 243 342.382812 242.816406 340.964844 243.183594 339.625 C 243.527344 338.308594 244.398438 337.171875 245.597656 336.480469 L 276.75 318.511719 C 279.222656 317.09375 282.410156 317.921875 283.847656 320.417969 C 285.269531 322.914062 284.417969 326.078125 281.941406 327.515625 L 255.292969 342.871094 Z M 538.273438 466.9375 C 539.710938 469.414062 538.839844 472.597656 536.367188 474.039062 L 510.402344 489.046875 C 509.59375 489.511719 508.699219 489.734375 507.808594 489.734375 C 506.023438 489.734375 504.277344 488.804688 503.324219 487.140625 C 501.863281 484.664062 502.738281 481.480469 505.210938 480.0625 L 526.691406 467.648438 L 503.304688 427.164062 C 501.863281 424.691406 502.738281 421.527344 505.210938 420.066406 C 507.6875 418.644531 510.871094 419.496094 512.308594 421.972656 Z M 377.207031 553.949219 L 369.296875 540.257812 L 400.878906 540.257812 Z M 404.753906 256.589844 L 412.664062 270.257812 L 381.082031 270.257812 Z M 487.039062 389.683594 C 484.179688 389.683594 481.847656 392.015625 481.847656 394.875 L 481.847656 529.875 L 305.308594 529.875 L 305.308594 280.644531 L 481.847656 280.644531 L 481.847656 296.222656 C 481.847656 299.082031 484.179688 301.414062 487.039062 301.414062 C 489.898438 301.414062 492.230469 299.082031 492.230469 296.222656 L 492.230469 275.453125 C 492.230469 272.59375 489.898438 270.257812 487.039062 270.257812 L 424.667969 270.257812 L 411.160156 246.894531 C 409.722656 244.417969 406.539062 243.566406 404.0625 244.988281 L 360.3125 270.257812 L 300.117188 270.257812 C 297.253906 270.257812 294.921875 272.59375 294.921875 275.453125 L 294.921875 535.066406 C 294.921875 537.925781 297.253906 540.257812 300.117188 540.257812 L 357.292969 540.257812 L 370.800781 563.625 C 371.773438 565.289062 373.515625 566.222656 375.300781 566.222656 C 376.195312 566.222656 377.085938 565.996094 377.898438 565.53125 L 421.648438 540.257812 L 487.039062 540.257812 C 489.898438 540.257812 492.230469 537.925781 492.230469 535.066406 L 492.230469 394.875 C 492.230469 392.015625 489.898438 389.683594 487.039062 389.683594 " fill-opacity="1" fill-rule="nonzero"/></svg>