<svg xmlns="http://www.w3.org/2000/svg" xmlns:xlink="http://www.w3.org/1999/xlink" width="1080" zoomAndPan="magnify" viewBox="0 0 810 809.999993" height="1080" preserveAspectRatio="xMidYMid meet" version="1.0"><rect x="-81" width="972" fill="#ffffff" y="-80.999999" height="971.999992" fill-opacity="1"/><rect x="-81" width="972" fill="#ffffff" y="-80.999999" height="971.999992" fill-opacity="1"/><path fill="#c1ff72" d="M 378.34375 444.832031 L 333.222656 444.832031 C 326.046875 444.832031 320.175781 438.960938 320.175781 431.785156 L 320.175781 342.070312 C 320.175781 334.894531 326.046875 329.023438 333.222656 329.023438 L 358.074219 329.023438 L 359.359375 331.910156 C 358.726562 333.269531 358.152344 334.652344 357.636719 336.0625 C 357.636719 336.0625 354.6875 337.199219 354.6875 337.199219 C 351.707031 338.34375 349.476562 340.757812 348.515625 343.683594 L 338.171875 343.683594 C 337.242188 343.683594 336.484375 344.414062 336.484375 345.328125 L 336.484375 419.121094 L 473.515625 419.121094 L 473.515625 345.328125 C 473.515625 344.414062 472.757812 343.683594 471.839844 343.683594 L 461.484375 343.683594 C 460.523438 340.757812 458.292969 338.34375 455.3125 337.199219 L 452.371094 336.066406 C 451.859375 334.652344 451.285156 333.265625 450.648438 331.902344 C 450.648438 331.902344 451.828125 329.238281 451.921875 329.023438 L 476.777344 329.023438 C 483.953125 329.023438 489.824219 334.894531 489.824219 342.070312 L 489.824219 431.785156 C 489.824219 438.960938 483.953125 444.832031 476.777344 444.832031 L 431.667969 444.832031 L 431.667969 465.554688 L 451.515625 465.554688 C 457.628906 465.554688 462.636719 469.550781 462.636719 474.433594 L 462.636719 483.324219 L 347.371094 483.324219 L 347.371094 474.433594 C 347.371094 469.550781 352.382812 465.554688 358.496094 465.554688 L 378.34375 465.554688 Z M 414.273438 314.414062 C 418.382812 315.390625 422.304688 317.015625 425.90625 319.234375 L 433.46875 315.871094 L 442.375 324.777344 L 439.023438 332.339844 C 441.246094 335.941406 442.867188 339.863281 443.84375 343.984375 L 451.558594 346.953125 L 451.558594 359.550781 L 443.84375 362.519531 C 442.867188 366.628906 441.230469 370.550781 439.023438 374.152344 L 442.375 381.714844 L 433.46875 390.621094 L 425.90625 387.269531 C 422.316406 389.492188 418.382812 391.113281 414.273438 392.089844 L 411.304688 399.804688 L 398.707031 399.804688 L 395.738281 392.089844 C 391.617188 391.113281 387.695312 389.476562 384.09375 387.269531 L 376.53125 390.621094 L 367.625 381.714844 L 370.988281 374.152344 C 368.769531 370.5625 367.144531 366.628906 366.15625 362.519531 L 358.441406 359.550781 L 358.441406 346.953125 L 366.15625 343.984375 C 367.144531 339.863281 368.769531 335.941406 370.988281 332.339844 L 367.625 324.777344 L 376.53125 315.871094 L 384.09375 319.234375 C 387.695312 317.015625 391.617188 315.390625 395.726562 314.414062 L 398.707031 306.6875 L 411.304688 306.6875 Z M 405 331.273438 C 392.859375 331.273438 383.027344 341.105469 383.027344 353.246094 C 383.027344 365.386719 392.859375 375.230469 405 375.230469 C 417.140625 375.230469 426.984375 365.386719 426.984375 353.246094 C 426.984375 341.105469 417.140625 331.273438 405 331.273438 Z M 288.449219 243 C 313.554688 243 333.898438 263.347656 333.898438 288.449219 C 333.898438 313.554688 313.554688 333.898438 288.449219 333.898438 C 263.347656 333.898438 243 313.554688 243 288.449219 C 243 263.347656 263.347656 243 288.449219 243 Z M 313.027344 313.367188 C 319.460938 307.019531 323.449219 298.199219 323.449219 288.449219 C 323.449219 269.117188 307.78125 253.453125 288.449219 253.453125 C 269.117188 253.453125 253.453125 269.117188 253.453125 288.449219 C 253.453125 298.199219 257.4375 307.019531 263.871094 313.367188 C 268.65625 304.71875 277.871094 298.863281 288.449219 298.863281 C 299.027344 298.863281 308.242188 304.71875 313.027344 313.367188 Z M 288.449219 292.332031 C 280.632812 292.332031 274.246094 285.941406 274.246094 278.128906 C 274.246094 270.3125 280.632812 263.921875 288.449219 263.921875 C 296.265625 263.921875 302.65625 270.3125 302.65625 278.128906 C 302.65625 285.941406 296.265625 292.332031 288.449219 292.332031 Z M 256.597656 356.574219 C 254.734375 356.957031 252.722656 356.304688 251.457031 354.71875 C 249.652344 352.46875 250.019531 349.175781 252.273438 347.375 L 264.980469 337.207031 C 266.441406 336.042969 268.410156 335.742188 270.148438 336.421875 C 271.886719 337.101562 273.132812 338.65625 273.414062 340.503906 L 275.859375 356.59375 C 276.292969 359.445312 274.332031 362.113281 271.480469 362.546875 C 269.425781 362.859375 267.46875 361.925781 266.371094 360.316406 C 261.828125 374.398438 259.378906 389.414062 259.378906 405 C 259.378906 426.96875 264.253906 447.8125 272.980469 466.5 C 274.203125 469.113281 273.070312 472.222656 270.457031 473.445312 C 267.84375 474.664062 264.730469 473.535156 263.511719 470.921875 C 254.15625 450.890625 248.925781 428.550781 248.925781 405 C 248.925781 388.097656 251.617188 371.820312 256.597656 356.574219 Z M 453.425781 256.597656 C 453.042969 254.734375 453.695312 252.722656 455.28125 251.457031 C 457.53125 249.652344 460.824219 250.019531 462.625 252.273438 L 472.792969 264.980469 C 473.957031 266.441406 474.257812 268.410156 473.578125 270.148438 C 472.898438 271.886719 471.34375 273.132812 469.496094 273.414062 L 453.40625 275.859375 C 450.554688 276.296875 447.886719 274.332031 447.453125 271.480469 C 447.140625 269.425781 448.074219 267.46875 449.683594 266.371094 C 435.601562 261.828125 420.585938 259.378906 405 259.378906 C 383.03125 259.378906 362.1875 264.253906 343.5 272.980469 C 340.886719 274.203125 337.777344 273.070312 336.554688 270.457031 C 335.335938 267.84375 336.464844 264.730469 339.078125 263.511719 C 359.109375 254.15625 381.449219 248.925781 405 248.925781 C 421.902344 248.925781 438.179688 251.617188 453.425781 256.597656 Z M 543.628906 449.683594 C 548.171875 435.601562 550.621094 420.585938 550.621094 405 C 550.621094 383.03125 545.746094 362.1875 537.019531 343.5 C 535.796875 340.886719 536.929688 337.777344 539.542969 336.554688 C 542.15625 335.335938 545.269531 336.464844 546.488281 339.078125 C 555.84375 359.109375 561.074219 381.449219 561.074219 405 C 561.074219 421.902344 558.382812 438.179688 553.402344 453.425781 C 555.265625 453.042969 557.277344 453.695312 558.542969 455.28125 C 560.347656 457.53125 559.980469 460.824219 557.726562 462.625 L 545.019531 472.792969 C 543.558594 473.957031 541.589844 474.257812 539.851562 473.578125 C 538.113281 472.898438 536.867188 471.34375 536.585938 469.496094 L 534.140625 453.40625 C 533.703125 450.554688 535.667969 447.886719 538.519531 447.453125 C 540.574219 447.140625 542.53125 448.074219 543.628906 449.683594 Z M 360.316406 543.628906 C 374.398438 548.171875 389.414062 550.621094 405 550.621094 C 426.96875 550.621094 447.8125 545.746094 466.5 537.019531 C 469.113281 535.796875 472.222656 536.929688 473.445312 539.542969 C 474.664062 542.15625 473.535156 545.269531 470.921875 546.488281 C 450.890625 555.84375 428.550781 561.074219 405 561.074219 C 388.097656 561.074219 371.820312 558.382812 356.574219 553.402344 C 356.957031 555.265625 356.304688 557.277344 354.71875 558.542969 C 352.46875 560.347656 349.175781 559.980469 347.375 557.726562 L 337.207031 545.019531 C 336.042969 543.558594 335.742188 541.589844 336.421875 539.851562 C 337.101562 538.113281 338.65625 536.867188 340.503906 536.585938 L 356.59375 534.140625 C 359.445312 533.703125 362.113281 535.667969 362.546875 538.519531 C 362.859375 540.574219 361.925781 542.53125 360.316406 543.628906 Z M 288.449219 476.101562 C 313.554688 476.101562 333.898438 496.445312 333.898438 521.550781 C 333.898438 546.652344 313.554688 567 288.449219 567 C 263.347656 567 243 546.652344 243 521.550781 C 243 496.445312 263.347656 476.101562 288.449219 476.101562 Z M 313.027344 546.464844 C 319.460938 540.121094 323.449219 531.300781 323.449219 521.550781 C 323.449219 502.21875 307.78125 486.550781 288.449219 486.550781 C 269.117188 486.550781 253.453125 502.21875 253.453125 521.550781 C 253.453125 531.300781 257.4375 540.121094 263.871094 546.464844 C 268.65625 537.820312 277.871094 531.964844 288.449219 531.964844 C 299.027344 531.964844 308.242188 537.820312 313.027344 546.464844 Z M 288.449219 525.433594 C 280.632812 525.433594 274.246094 519.042969 274.246094 511.226562 C 274.246094 503.414062 280.632812 497.023438 288.449219 497.023438 C 296.265625 497.023438 302.65625 503.414062 302.65625 511.226562 C 302.65625 519.042969 296.265625 525.433594 288.449219 525.433594 Z M 521.550781 476.101562 C 546.652344 476.101562 567 496.445312 567 521.550781 C 567 546.652344 546.652344 567 521.550781 567 C 496.445312 567 476.101562 546.652344 476.101562 521.550781 C 476.101562 496.445312 496.445312 476.101562 521.550781 476.101562 Z M 546.128906 546.464844 C 552.5625 540.121094 556.546875 531.300781 556.546875 521.550781 C 556.546875 502.21875 540.882812 486.550781 521.550781 486.550781 C 502.21875 486.550781 486.550781 502.21875 486.550781 521.550781 C 486.550781 531.300781 490.539062 540.121094 496.972656 546.464844 C 501.757812 537.820312 510.972656 531.964844 521.550781 531.964844 C 532.128906 531.964844 541.34375 537.820312 546.128906 546.464844 Z M 521.550781 525.433594 C 513.734375 525.433594 507.34375 519.042969 507.34375 511.226562 C 507.34375 503.414062 513.734375 497.023438 521.550781 497.023438 C 529.367188 497.023438 535.753906 503.414062 535.753906 511.226562 C 535.753906 519.042969 529.367188 525.433594 521.550781 525.433594 Z M 521.550781 243 C 546.652344 243 567 263.347656 567 288.449219 C 567 313.554688 546.652344 333.898438 521.550781 333.898438 C 496.445312 333.898438 476.101562 313.554688 476.101562 288.449219 C 476.101562 263.347656 496.445312 243 521.550781 243 Z M 546.128906 313.367188 C 552.5625 307.019531 556.546875 298.199219 556.546875 288.449219 C 556.546875 269.117188 540.882812 253.453125 521.550781 253.453125 C 502.21875 253.453125 486.550781 269.117188 486.550781 288.449219 C 486.550781 298.199219 490.539062 307.019531 496.972656 313.367188 C 501.757812 304.71875 510.972656 298.863281 521.550781 298.863281 C 532.128906 298.863281 541.34375 304.71875 546.128906 313.367188 Z M 521.550781 292.332031 C 513.734375 292.332031 507.34375 285.941406 507.34375 278.128906 C 507.34375 270.3125 513.734375 263.921875 521.550781 263.921875 C 529.367188 263.921875 535.753906 270.3125 535.753906 278.128906 C 535.753906 285.941406 529.367188 292.332031 521.550781 292.332031 Z M 521.550781 292.332031 " fill-opacity="1" fill-rule="evenodd"/></svg>