<svg xmlns="http://www.w3.org/2000/svg" width="451.394" height="451.394" viewBox="0 0 451.394 451.394"><path d="M56.424,197.485a65.828,65.828,0,1,1,65.828,65.828A65.828,65.828,0,0,1,56.424,197.485Zm65.828,103.444A122.394,122.394,0,0,0,0,423.182a28.212,28.212,0,1,0,56.424,0,65.828,65.828,0,0,1,131.657,0,28.212,28.212,0,1,0,56.424,0A122.394,122.394,0,0,0,122.252,300.929ZM347.949,0H187.422A103.791,103.791,0,0,0,97.84,51.7a28.2,28.2,0,1,0,48.826,28.25,47.232,47.232,0,0,1,40.757-23.529H347.949a47.074,47.074,0,0,1,47.02,47.02V253.909a47.074,47.074,0,0,1-47.02,47.02h-9.4v-9.4a28.21,28.21,0,0,0-28.212-28.212H272.717A28.21,28.21,0,0,0,244.5,291.525v37.616a28.21,28.21,0,0,0,28.212,28.212h75.232A103.567,103.567,0,0,0,451.394,253.909V103.444A103.567,103.567,0,0,0,347.949,0Z" fill="#fff"/></svg>