<svg xmlns="http://www.w3.org/2000/svg" width="34.545" height="24.147" viewBox="0 0 34.545 24.147"><g transform="translate(-0.001 -64.225)"><g transform="translate(0.001 64.225)"><g transform="translate(0 0)"><path d="M32.243,72.1,24.88,66.584a13.444,13.444,0,0,0-15.213,0L2.29,72.109c-3.05,2.284-3.049,6-.014,8.294L9.7,86a13.308,13.308,0,0,0,15.154,0l7.419-5.6C35.312,78.107,35.3,74.392,32.243,72.1Zm-2.054,5.548-7.419,5.6a9.877,9.877,0,0,1-10.993,0l-7.42-5.6c-1.2-.909-1.2-1.87,0-2.773l7.378-5.525a10.014,10.014,0,0,1,11.072,0l7.363,5.515C31.394,75.778,31.4,76.735,30.189,77.647Z" transform="translate(-0.001 -64.225)" fill="#bec7cf"/></g></g><g transform="translate(11.227 70.201)"><g transform="translate(0 0)"><path d="M144.729,138.04a6.044,6.044,0,1,0,6.044,6.044A6.044,6.044,0,0,0,144.729,138.04Zm0,8.635a2.59,2.59,0,1,1,2.59-2.59A2.59,2.59,0,0,1,144.729,146.675Z" transform="translate(-138.685 -138.04)" fill="#bec7cf"/></g></g></g></svg>