<svg xmlns="http://www.w3.org/2000/svg" width="39.874" height="34.919" viewBox="0 0 39.874 34.919"><g transform="translate(0 -21.206)"><g transform="translate(0 21.206)"><path d="M37.053,24.124a9.409,9.409,0,0,0-13.622,0l-.105.117-3.388,3.668-3.493-3.587a9.4,9.4,0,0,0-13.622,0,10.22,10.22,0,0,0,0,14.1L16.677,54.558a4.128,4.128,0,0,0,6.484-.012L37.053,38.225A10.22,10.22,0,0,0,37.053,24.124Zm-3.6,10.643-.105.117-13.435,15.8L6.5,35.059,6.4,34.954a5.241,5.241,0,0,1,0-7.173,4.409,4.409,0,0,1,6.449,0l3.517,3.61,3.668,3.762,7.045-7.629a4.405,4.405,0,0,1,6.379.07A5.218,5.218,0,0,1,33.454,34.767Z" transform="translate(0 -21.206)" fill="#6d2ef1"/></g></g></svg>