<svg xmlns="http://www.w3.org/2000/svg" width="43.958" height="44" viewBox="0 0 43.958 44"><path d="M21.729,7.342A14.822,14.822,0,0,0,7.331,21.46,14.576,14.576,0,0,0,12.37,33.051a7.057,7.057,0,0,1,2.279,5.438,5.5,5.5,0,0,0,5.5,5.5H23.81a5.5,5.5,0,0,0,5.5-5.5V37.8a6.437,6.437,0,0,1,2.349-4.812,14.638,14.638,0,0,0,.6-21.442A14.465,14.465,0,0,0,21.729,7.342ZM25.643,38.49a1.833,1.833,0,0,1-1.832,1.832H20.146a1.864,1.864,0,0,1-1.832-1.959,11.417,11.417,0,0,0-.141-1.706h7.545a9.514,9.514,0,0,0-.075,1.145Zm3.595-8.251a11.039,11.039,0,0,0-2.272,2.754H23.81V25.326a5.489,5.489,0,0,0,3.665-5.16,1.832,1.832,0,0,0-3.665,0,1.832,1.832,0,1,1-3.665,0,1.832,1.832,0,0,0-3.665,0,5.489,5.489,0,0,0,3.665,5.16v7.666h-3.2a10.014,10.014,0,0,0-2.177-2.708,10.939,10.939,0,0,1-3.778-8.692,11.114,11.114,0,0,1,10.8-10.585h.187A10.983,10.983,0,0,1,29.24,30.241ZM30.746,4.544,33.009.861a1.831,1.831,0,0,1,3.12,1.918L33.866,6.463a1.831,1.831,0,1,1-3.12-1.917Zm12.145,7.6-3.542,1.6a1.8,1.8,0,0,1-.751.163,1.832,1.832,0,0,1-.755-3.5l3.542-1.6a1.831,1.831,0,0,1,1.506,3.338ZM7.675,2.778A1.832,1.832,0,1,1,10.8.863l2.257,3.685A1.832,1.832,0,1,1,9.933,6.461L7.675,2.776ZM6.79,12.949A1.828,1.828,0,0,1,5.137,13.99a1.789,1.789,0,0,1-.79-.181L1.053,12.231a1.831,1.831,0,0,1,1.581-3.3L5.929,10.5a1.83,1.83,0,0,1,.861,2.442Z" transform="translate(-0.011 0.013)" fill="#f90"/></svg>