<svg xmlns="http://www.w3.org/2000/svg" width="38" height="37.471" viewBox="0 0 38 37.471"><path d="M29.292,0H8.708A8.72,8.72,0,0,0,0,8.708v14.25a8.72,8.72,0,0,0,8.708,8.708h1.963l5.7,4.8a3.985,3.985,0,0,0,2.652,1.007,3.814,3.814,0,0,0,2.543-.952l5.871-4.853h1.856A8.72,8.72,0,0,0,38,22.958V8.708A8.72,8.72,0,0,0,29.292,0ZM33.25,22.958a3.962,3.962,0,0,1-3.958,3.958H26.581a2.379,2.379,0,0,0-1.514.545l-6.061,5.014-5.938-5a2.37,2.37,0,0,0-1.53-.559H8.708A3.962,3.962,0,0,1,4.75,22.958V8.708A3.962,3.962,0,0,1,8.708,4.75H29.292A3.962,3.962,0,0,1,33.25,8.708ZM21.375,24.542A2.375,2.375,0,1,1,19,22.167,2.376,2.376,0,0,1,21.375,24.542Zm3.748-13.52a6.379,6.379,0,0,1-3.464,7.394.7.7,0,0,0-.358.385A2.377,2.377,0,0,1,19,20.583a2.4,2.4,0,0,1-.594-.074A2.377,2.377,0,0,1,16.7,17.616,5.428,5.428,0,0,1,19.662,14.1a1.587,1.587,0,0,0,.861-1.9,1.539,1.539,0,0,0-1.062-1.064,1.741,1.741,0,0,0-1.37.2,1.574,1.574,0,0,0-.722,1.005,2.375,2.375,0,1,1-4.655-.947,6.341,6.341,0,0,1,2.859-4.087,6.442,6.442,0,0,1,5.076-.77A6.312,6.312,0,0,1,25.123,11.022Z" fill="#bec7cf"/></svg>