<svg xmlns="http://www.w3.org/2000/svg" width="428.587" height="428.587" viewBox="0 0 428.587 428.587"><path d="M125,44.555a26.785,26.785,0,0,1,26.787-26.787H401.8a26.787,26.787,0,1,1,0,53.573H151.791A26.785,26.785,0,0,1,125,44.555Zm26.787,187.507h17.858a26.787,26.787,0,0,0,0-53.573H151.791a26.787,26.787,0,1,0,0,53.573ZM53.573,0H35.716A35.706,35.706,0,0,0,0,35.716V53.573A35.706,35.706,0,0,0,35.716,89.289H53.573A35.706,35.706,0,0,0,89.289,53.573V35.716A35.706,35.706,0,0,0,53.573,0Zm0,160.72H35.716A35.706,35.706,0,0,0,0,196.436v17.858a35.706,35.706,0,0,0,35.716,35.716H53.573a35.706,35.706,0,0,0,35.716-35.716V196.436A35.706,35.706,0,0,0,53.573,160.72ZM223.223,339.3H151.791a26.787,26.787,0,1,0,0,53.573h71.431a26.787,26.787,0,1,0,0-53.573ZM53.573,321.44H35.8A35.706,35.706,0,0,0,.089,357.156v17.858A35.706,35.706,0,0,0,35.8,410.729H53.573a35.706,35.706,0,0,0,35.716-35.716V357.156A35.706,35.706,0,0,0,53.573,321.44ZM362.71,120.219a44.359,44.359,0,0,0-31.573-13.072H331.1a43.989,43.989,0,0,0-31.162,12.7l-59.574,57.27A26.794,26.794,0,0,0,277.51,215.74l26.072-25.072V401.8a26.787,26.787,0,1,0,53.573,0V190.025l25.822,25.483A26.79,26.79,0,0,0,420.6,177.364l-57.913-57.145Z" fill="#fff"/></svg>