<svg xmlns="http://www.w3.org/2000/svg" xmlns:xlink="http://www.w3.org/1999/xlink" width="153" height="153" viewBox="0 0 153 153"><defs><linearGradient id="a" x1="0.088" y1="0.132" x2="0.784" y2="1.058" gradientUnits="objectBoundingBox"><stop offset="0" stop-color="#eeb0e8"/><stop offset="1" stop-color="#b19ef8"/></linearGradient></defs><path d="M44.625,15.906a9.562,9.562,0,0,1,9.563-9.562h89.25a9.563,9.563,0,0,1,0,19.125H54.188A9.562,9.562,0,0,1,44.625,15.906Zm9.563,66.938h6.375a9.563,9.563,0,0,0,0-19.125H54.188a9.563,9.563,0,0,0,0,19.125ZM19.125,0H12.75A12.746,12.746,0,0,0,0,12.75v6.375a12.746,12.746,0,0,0,12.75,12.75h6.375a12.746,12.746,0,0,0,12.75-12.75V12.75A12.746,12.746,0,0,0,19.125,0Zm0,57.375H12.75A12.746,12.746,0,0,0,0,70.125V76.5A12.746,12.746,0,0,0,12.75,89.25h6.375A12.746,12.746,0,0,0,31.875,76.5V70.125A12.746,12.746,0,0,0,19.125,57.375Zm60.563,63.75h-25.5a9.562,9.562,0,1,0,0,19.125h25.5a9.562,9.562,0,1,0,0-19.125ZM19.125,114.75H12.782A12.747,12.747,0,0,0,.032,127.5v6.375a12.746,12.746,0,0,0,12.75,12.75h6.343a12.746,12.746,0,0,0,12.75-12.75V127.5A12.747,12.747,0,0,0,19.125,114.75ZM129.483,42.917a15.836,15.836,0,0,0-11.271-4.667H118.2a15.7,15.7,0,0,0-11.124,4.533L85.807,63.227a9.565,9.565,0,0,0,13.26,13.789l9.308-8.951v75.372a9.562,9.562,0,1,0,19.125,0v-75.6l9.218,9.1A9.564,9.564,0,0,0,150.15,63.317l-20.674-20.4Z" opacity="0.27" fill="url(#a)"/></svg>