<svg xmlns="http://www.w3.org/2000/svg" width="38.23" height="34.73" viewBox="0 0 38.23 34.73"><g transform="translate(0 -21.547)"><g transform="translate(0 21.547)"><g transform="translate(0 0)"><path d="M34.657,42.356V26.745a5.2,5.2,0,0,0-5.2-5.2H5.2A5.2,5.2,0,0,0,0,26.742v8.676H3.465V26.742a1.753,1.753,0,0,1,1.814-1.729A1.735,1.735,0,0,1,7.01,26.745V49.288H34.657V45.821H31.191v0H13.861v3.463H10.4V45.821h.08V26.745a5.184,5.184,0,0,0-.3-1.733H29.459a1.731,1.731,0,0,1,1.733,1.733V42.356Z" transform="translate(0 -21.547)" fill="#bec7cf"/></g></g><g transform="translate(13.861 28.494)"><g transform="translate(0 0)"><rect width="13.861" height="3.465" fill="#bec7cf"/></g></g><g transform="translate(13.861 35.425)"><rect width="6.931" height="3.465" fill="#bec7cf"/></g><g transform="translate(24.257 35.425)"><rect width="3.465" height="3.465" fill="#bec7cf"/></g><g transform="translate(6.964 45.803)"><path d="M92.635,320.249v5.228a1.7,1.7,0,0,1-1.7,1.7,1.76,1.76,0,0,1-1.727-1.758v-5.21H85.74v5.21a5.226,5.226,0,0,0,4.58,5.184v.063H111.8a5.2,5.2,0,0,0,5.2-5.194v-5.28Zm20.906,5.225A1.732,1.732,0,0,1,111.8,327.2h-16a5.17,5.17,0,0,0,.294-1.726v-1.771l17.441-.039v1.807Z" transform="translate(-85.74 -320.194)" fill="#bec7cf"/></g></g></svg>