<svg xmlns="http://www.w3.org/2000/svg" width="34.495" height="31.333" viewBox="0 0 34.495 31.333"><g transform="translate(0 6.246)"><g transform="translate(0 0)"><path d="M31.358,106.492H3.137A3.139,3.139,0,0,0,0,109.631V128.44a3.136,3.136,0,0,0,3.137,3.139h28.22a3.139,3.139,0,0,0,3.137-3.139V109.631A3.136,3.136,0,0,0,31.358,106.492Zm0,21.951q-28.222,0-28.222,0,0-18.812,0-18.812,28.222,0,28.222,0Q31.357,128.443,31.358,128.443Z" transform="translate(0 -106.492)" fill="#6d2ef1"/></g></g><g transform="translate(6.292 9.382)"><g transform="translate(0 0)"><rect width="3.136" height="18.815" fill="#6d2ef1"/></g></g><g transform="translate(25.087 9.382)"><g transform="translate(0 0)"><rect width="3.136" height="18.815" fill="#6d2ef1"/></g></g><g transform="translate(6.272 12.518)"><g transform="translate(0 0)"><path d="M85.333,191.826v9.408H97.877v-9.408Zm9.408,6.272H88.469v-3.136h6.272Z" transform="translate(-85.333 -191.826)" fill="#6d2ef1"/></g></g><g transform="translate(9.412)"><g transform="translate(0 0)"><path d="M139.9,21.508h-7.932a3.913,3.913,0,0,0-3.912,3.907v2.339H131.2V25.415a.777.777,0,0,1,.776-.771H139.9a.775.775,0,0,1,.776.771v2.339h3.136V25.415A3.911,3.911,0,0,0,139.9,21.508Z" transform="translate(-128.061 -21.508)" fill="#6d2ef1"/></g></g></svg>