<svg xmlns="http://www.w3.org/2000/svg" width="33.973" height="34" viewBox="0 0 33.973 34"><g transform="translate(-0.152)"><g transform="translate(0.152)"><path d="M5.819,7.557a1.89,1.89,0,1,1,.006-3.78H30.318V0H5.825A5.663,5.663,0,0,0,.152,5.667c0,.09,0,.18,0,.269v22.34a5.671,5.671,0,0,0,5.662,5.666L28.454,34a5.65,5.65,0,0,0,5.672-5.649V7.557Zm24.53,20.794a1.873,1.873,0,0,1-1.886,1.872L5.824,30.166a1.9,1.9,0,0,1-1.9-1.89V11.01a5.651,5.651,0,0,0,1.89.323h24.53Z" transform="translate(-0.152)" fill="#bec7cf"/></g><g transform="translate(20.876 15.158)"><path d="M239.956,175.024h5.858v-3.777h-5.858a5.67,5.67,0,1,0,0,11.339h5.858v-3.777h-5.858a1.893,1.893,0,1,1,0-3.786Z" transform="translate(-234.285 -171.247)" fill="#bec7cf"/></g></g></svg>