<svg xmlns="http://www.w3.org/2000/svg" xmlns:xlink="http://www.w3.org/1999/xlink" width="1080" zoomAndPan="magnify" viewBox="0 0 810 809.999993" height="1080" preserveAspectRatio="xMidYMid meet" version="1.0"><path fill="#a5d8dc" d="M 533.136719 272.945312 C 522.425781 263.328125 507.894531 258.730469 493.316406 260.296875 C 469.800781 262.859375 451.089844 281.460938 448.792969 304.558594 C 447.171875 320.917969 453.808594 336.960938 466.613281 347.464844 C 469.488281 349.867188 471.160156 353.316406 471.160156 356.976562 L 471.160156 360.789062 C 467.65625 361.574219 465.042969 364.710938 465.042969 368.417969 L 465.042969 373.644531 C 465.042969 377.984375 468.546875 381.484375 472.882812 381.484375 L 473.5625 381.484375 C 475.757812 390.472656 483.335938 397.160156 492.480469 397.160156 L 505.542969 397.160156 C 514.691406 397.160156 522.265625 390.472656 524.460938 381.484375 L 525.140625 381.484375 C 529.480469 381.484375 532.980469 377.984375 532.980469 373.644531 L 532.980469 368.417969 C 532.980469 364.710938 530.367188 361.574219 526.867188 360.789062 L 526.867188 356.976562 C 526.867188 353.316406 528.484375 349.867188 531.308594 347.570312 C 542.855469 338.109375 549.492188 324.261719 549.492188 309.523438 C 549.492188 295.625 543.484375 282.296875 533.085938 272.945312 Z M 524.722656 339.46875 C 519.445312 343.753906 516.464844 350.128906 516.464844 356.976562 L 516.464844 360.582031 L 504.289062 360.582031 L 504.289062 345.058594 C 504.289062 343.441406 503.558594 341.925781 502.304688 340.929688 L 482.65625 325.566406 C 482.027344 325.046875 481.664062 324.3125 481.664062 323.53125 L 481.664062 321.859375 C 481.664062 320.394531 482.917969 319.246094 484.484375 319.246094 L 485.738281 319.246094 C 486.679688 319.246094 487.566406 319.714844 488.089844 320.445312 C 490.546875 324.050781 494.675781 326.246094 499.066406 326.246094 C 503.453125 326.246094 507.582031 324.105469 510.039062 320.445312 C 510.5625 319.664062 511.449219 319.246094 512.390625 319.246094 L 513.644531 319.246094 C 515.210938 319.246094 516.464844 320.445312 516.464844 321.859375 L 516.464844 324.050781 C 516.464844 324.730469 516.207031 325.359375 515.683594 325.882812 L 504.445312 336.90625 L 511.761719 344.378906 L 523 333.355469 C 525.507812 330.898438 526.917969 327.554688 526.917969 324.050781 L 526.917969 321.859375 C 526.917969 314.644531 520.960938 308.792969 513.644531 308.792969 L 512.390625 308.792969 C 507.949219 308.792969 503.871094 310.933594 501.417969 314.59375 C 500.683594 315.691406 499.535156 315.796875 499.066406 315.796875 C 498.59375 315.796875 497.445312 315.691406 496.714844 314.59375 C 494.257812 310.988281 490.128906 308.792969 485.738281 308.792969 L 484.484375 308.792969 C 477.167969 308.792969 471.210938 314.644531 471.210938 321.859375 L 471.210938 323.53125 C 471.210938 327.554688 473.039062 331.265625 476.226562 333.773438 L 493.839844 347.570312 L 493.839844 360.527344 L 481.664062 360.527344 L 481.664062 356.921875 C 481.664062 350.128906 478.632812 343.753906 473.300781 339.363281 C 463.214844 331.054688 457.9375 318.410156 459.242188 305.554688 C 461.019531 287.628906 476.175781 272.628906 494.519531 270.644531 C 506.121094 269.390625 517.71875 273.046875 526.238281 280.730469 C 534.496094 288.097656 539.199219 298.601562 539.199219 309.523438 C 539.199219 321.125 533.972656 332.046875 524.828125 339.46875 Z M 524.722656 339.46875 " fill-opacity="1" fill-rule="nonzero"/><path fill="#a5d8dc" d="M 493.839844 243 L 504.289062 243 L 504.289062 256.324219 L 493.839844 256.324219 Z M 493.839844 243 " fill-opacity="1" fill-rule="nonzero"/><path fill="#a5d8dc" d="M 447.390625 266.179688 L 454.808594 258.816406 L 464.269531 268.347656 L 456.851562 275.710938 Z M 447.390625 266.179688 " fill-opacity="1" fill-rule="nonzero"/><path fill="#a5d8dc" d="M 533.816406 268.089844 L 543.542969 258.832031 L 550.75 266.402344 L 541.019531 275.664062 Z M 533.816406 268.089844 " fill-opacity="1" fill-rule="nonzero"/><path fill="#a5d8dc" d="M 431.128906 304.296875 L 444.714844 304.296875 L 444.714844 314.75 L 431.128906 314.75 Z M 431.128906 304.296875 " fill-opacity="1" fill-rule="nonzero"/><path fill="#a5d8dc" d="M 553.414062 304.296875 L 567 304.296875 L 567 314.75 L 553.414062 314.75 Z M 553.414062 304.296875 " fill-opacity="1" fill-rule="nonzero"/><path fill="#a5d8dc" d="M 279.582031 493.839844 C 259.355469 493.839844 243 510.195312 243 530.417969 C 243 550.644531 259.355469 567 279.582031 567 C 299.804688 567 316.160156 550.644531 316.160156 530.417969 C 316.160156 510.195312 299.804688 493.839844 279.582031 493.839844 Z M 278.066406 544.582031 C 277.019531 545.625 275.714844 546.097656 274.355469 546.097656 C 272.996094 546.097656 271.691406 545.574219 270.644531 544.582031 L 260.191406 534.128906 L 267.5625 526.761719 L 274.300781 533.503906 L 291.496094 516.308594 L 298.863281 523.679688 L 277.960938 544.582031 Z M 278.066406 544.582031 " fill-opacity="1" fill-rule="nonzero"/><path fill="#a5d8dc" d="M 441.582031 493.839844 C 421.355469 493.839844 405 510.195312 405 530.417969 C 405 550.644531 421.355469 567 441.582031 567 C 461.804688 567 478.160156 550.644531 478.160156 530.417969 C 478.160156 510.195312 461.804688 493.839844 441.582031 493.839844 Z M 440.066406 544.582031 C 439.019531 545.625 437.714844 546.097656 436.355469 546.097656 C 434.996094 546.097656 433.691406 545.574219 432.644531 544.582031 L 422.191406 534.128906 L 429.5625 526.761719 L 436.300781 533.503906 L 453.496094 516.308594 L 460.863281 523.679688 L 439.960938 544.582031 Z M 440.066406 544.582031 " fill-opacity="1" fill-rule="nonzero"/><path fill="#a5d8dc" d="M 326.613281 389.324219 C 326.613281 409.546875 342.96875 425.902344 363.195312 425.902344 C 383.417969 425.902344 399.773438 409.546875 399.773438 389.324219 C 399.773438 369.097656 383.417969 352.742188 363.195312 352.742188 C 342.96875 352.742188 326.613281 369.097656 326.613281 389.324219 Z M 382.582031 382.582031 L 361.679688 403.484375 C 360.632812 404.53125 359.328125 405 357.96875 405 C 356.609375 405 355.300781 404.476562 354.257812 403.484375 L 343.804688 393.03125 L 351.175781 385.664062 L 357.914062 392.40625 L 375.109375 375.214844 L 382.476562 382.582031 Z M 382.582031 382.582031 " fill-opacity="1" fill-rule="nonzero"/><path fill="#a5d8dc" d="M 321.386719 525.195312 L 399.773438 525.195312 L 399.773438 535.644531 L 321.386719 535.644531 Z M 321.386719 525.195312 " fill-opacity="1" fill-rule="nonzero"/><path fill="#a5d8dc" d="M 509.515625 452.03125 L 290.03125 452.03125 C 281.410156 452.03125 274.355469 444.976562 274.355469 436.355469 L 274.355469 410.226562 C 274.355469 401.601562 281.410156 394.546875 290.03125 394.546875 L 321.386719 394.546875 L 321.386719 384.097656 L 290.03125 384.097656 C 275.609375 384.097656 263.902344 395.800781 263.902344 410.226562 L 263.902344 436.355469 C 263.902344 450.777344 275.609375 462.484375 290.03125 462.484375 L 509.515625 462.484375 C 518.140625 462.484375 525.195312 469.539062 525.195312 478.160156 L 525.195312 509.515625 C 525.195312 518.140625 518.140625 525.195312 509.515625 525.195312 L 483.386719 525.195312 L 483.386719 535.644531 L 509.515625 535.644531 C 523.9375 535.644531 535.644531 523.9375 535.644531 509.515625 L 535.644531 478.160156 C 535.644531 463.738281 523.9375 452.03125 509.515625 452.03125 Z M 509.515625 452.03125 " fill-opacity="1" fill-rule="nonzero"/><path fill="#a5d8dc" d="M 405 384.097656 L 462.484375 384.097656 L 462.484375 394.546875 L 405 394.546875 Z M 405 384.097656 " fill-opacity="1" fill-rule="nonzero"/></svg>