<svg xmlns="http://www.w3.org/2000/svg" xmlns:xlink="http://www.w3.org/1999/xlink" width="816" zoomAndPan="magnify" viewBox="0 0 612 791.999994" height="1056" preserveAspectRatio="xMidYMid meet" version="1.0"><defs><clipPath id="a92cbd1708"><path d="M 102.050781 374 L 521 374 L 521 530 L 102.050781 530 Z M 102.050781 374 " clip-rule="nonzero"/></clipPath><clipPath id="20df4d9057"><path d="M 102.050781 160 L 521 160 L 521 336 L 102.050781 336 Z M 102.050781 160 " clip-rule="nonzero"/></clipPath></defs><g clip-path="url(#a92cbd1708)"><path fill="#fcfabe" d="M 520.914062 374.777344 L 520.914062 498.273438 C 520.914062 499.285156 520.863281 500.289062 520.765625 501.292969 C 520.664062 502.296875 520.519531 503.292969 520.320312 504.285156 C 520.125 505.273438 519.878906 506.25 519.585938 507.21875 C 519.292969 508.183594 518.953125 509.132812 518.566406 510.0625 C 518.183594 510.996094 517.75 511.90625 517.273438 512.796875 C 516.800781 513.6875 516.28125 514.550781 515.722656 515.390625 C 515.160156 516.226562 514.558594 517.039062 513.921875 517.816406 C 513.28125 518.597656 512.601562 519.34375 511.890625 520.058594 C 511.175781 520.769531 510.429688 521.449219 509.648438 522.085938 C 508.871094 522.726562 508.0625 523.328125 507.222656 523.886719 C 506.382812 524.449219 505.519531 524.96875 504.628906 525.441406 C 503.738281 525.917969 502.828125 526.347656 501.894531 526.734375 C 500.964844 527.121094 500.015625 527.460938 499.050781 527.753906 C 498.085938 528.046875 497.105469 528.292969 496.117188 528.488281 C 495.128906 528.683594 494.128906 528.832031 493.125 528.933594 C 492.121094 529.03125 491.117188 529.078125 490.105469 529.078125 L 132.515625 529.078125 C 131.507812 529.078125 130.5 529.03125 129.496094 528.933594 C 128.492188 528.832031 127.496094 528.683594 126.503906 528.488281 C 125.515625 528.292969 124.539062 528.046875 123.574219 527.753906 C 122.605469 527.460938 121.660156 527.121094 120.726562 526.734375 C 119.792969 526.347656 118.882812 525.917969 117.992188 525.441406 C 117.105469 524.96875 116.238281 524.449219 115.402344 523.886719 C 114.5625 523.328125 113.753906 522.726562 112.972656 522.085938 C 112.191406 521.449219 111.445312 520.769531 110.730469 520.058594 C 110.019531 519.34375 109.34375 518.597656 108.703125 517.816406 C 108.0625 517.039062 107.460938 516.226562 106.902344 515.390625 C 106.339844 514.550781 105.824219 513.6875 105.347656 512.796875 C 104.871094 511.90625 104.441406 510.996094 104.054688 510.0625 C 103.667969 509.132812 103.328125 508.183594 103.035156 507.21875 C 102.742188 506.25 102.5 505.273438 102.300781 504.285156 C 102.105469 503.292969 101.957031 502.296875 101.859375 501.292969 C 101.757812 500.289062 101.710938 499.285156 101.710938 498.273438 L 101.710938 374.777344 L 261.980469 374.777344 C 262.121094 376.300781 262.328125 377.8125 262.609375 379.3125 C 262.886719 380.816406 263.234375 382.300781 263.652344 383.773438 C 264.070312 385.242188 264.550781 386.691406 265.101562 388.117188 C 265.652344 389.542969 266.269531 390.9375 266.949219 392.304688 C 267.628906 393.675781 268.371094 395.007812 269.171875 396.308594 C 269.976562 397.609375 270.839844 398.867188 271.757812 400.089844 C 272.679688 401.308594 273.652344 402.484375 274.679688 403.613281 C 275.710938 404.742188 276.789062 405.824219 277.917969 406.855469 C 279.046875 407.882812 280.21875 408.859375 281.4375 409.78125 C 282.65625 410.703125 283.917969 411.566406 285.214844 412.371094 C 286.511719 413.175781 287.847656 413.917969 289.214844 414.601562 C 290.582031 415.28125 291.976562 415.898438 293.402344 416.453125 C 294.828125 417.003906 296.273438 417.488281 297.746094 417.910156 C 299.214844 418.328125 300.699219 418.675781 302.203125 418.957031 C 303.703125 419.238281 305.214844 419.449219 306.738281 419.589844 C 308.257812 419.730469 309.78125 419.800781 311.3125 419.800781 C 312.839844 419.800781 314.363281 419.730469 315.886719 419.589844 C 317.40625 419.449219 318.917969 419.238281 320.421875 418.957031 C 321.921875 418.675781 323.410156 418.328125 324.878906 417.910156 C 326.347656 417.488281 327.796875 417.003906 329.21875 416.453125 C 330.644531 415.898438 332.039062 415.28125 333.40625 414.601562 C 334.777344 413.917969 336.109375 413.175781 337.40625 412.371094 C 338.707031 411.566406 339.964844 410.703125 341.183594 409.78125 C 342.402344 408.859375 343.578125 407.882812 344.707031 406.855469 C 345.835938 405.824219 346.914062 404.742188 347.941406 403.613281 C 348.96875 402.484375 349.945312 401.308594 350.863281 400.089844 C 351.785156 398.867188 352.644531 397.609375 353.449219 396.308594 C 354.253906 395.007812 354.992188 393.675781 355.675781 392.304688 C 356.355469 390.9375 356.96875 389.542969 357.519531 388.117188 C 358.070312 386.691406 358.554688 385.242188 358.96875 383.773438 C 359.386719 382.300781 359.734375 380.816406 360.015625 379.3125 C 360.292969 377.8125 360.503906 376.300781 360.640625 374.777344 Z M 520.914062 374.777344 " fill-opacity="1" fill-rule="nonzero"/></g><path fill="#fcfabe" d="M 345.617188 322.910156 L 345.617188 370.316406 C 345.722656 371.851562 345.722656 373.382812 345.617188 374.914062 C 345.484375 375.9375 345.308594 376.957031 345.085938 377.964844 C 344.863281 378.972656 344.597656 379.96875 344.285156 380.953125 C 343.972656 381.9375 343.617188 382.90625 343.21875 383.859375 C 342.816406 384.8125 342.375 385.746094 341.890625 386.65625 C 341.40625 387.570312 340.882812 388.457031 340.320312 389.324219 C 339.753906 390.1875 339.152344 391.027344 338.511719 391.835938 C 337.875 392.648438 337.199219 393.429688 336.488281 394.179688 C 335.777344 394.929688 335.035156 395.644531 334.261719 396.328125 C 333.484375 397.007812 332.679688 397.65625 331.847656 398.265625 C 331.015625 398.875 330.15625 399.449219 329.269531 399.980469 C 328.382812 400.511719 327.476562 401.003906 326.546875 401.453125 C 325.617188 401.90625 324.671875 402.3125 323.703125 402.675781 C 322.738281 403.042969 321.757812 403.363281 320.761719 403.640625 C 319.765625 403.914062 318.761719 404.144531 317.746094 404.332031 C 316.730469 404.515625 315.707031 404.65625 314.679688 404.75 C 313.648438 404.84375 312.617188 404.890625 311.585938 404.890625 C 310.554688 404.890625 309.523438 404.84375 308.492188 404.75 C 307.464844 404.65625 306.441406 404.515625 305.425781 404.332031 C 304.410156 404.144531 303.40625 403.914062 302.410156 403.640625 C 301.414062 403.363281 300.433594 403.042969 299.46875 402.675781 C 298.5 402.3125 297.554688 401.90625 296.625 401.453125 C 295.695312 401.003906 294.785156 400.511719 293.902344 399.980469 C 293.015625 399.449219 292.15625 398.875 291.324219 398.265625 C 290.492188 397.65625 289.6875 397.007812 288.910156 396.328125 C 288.136719 395.644531 287.394531 394.929688 286.683594 394.179688 C 285.972656 393.429688 285.296875 392.648438 284.65625 391.835938 C 284.019531 391.027344 283.414062 390.1875 282.851562 389.324219 C 282.289062 388.457031 281.761719 387.570312 281.28125 386.65625 C 280.796875 385.746094 280.355469 384.8125 279.953125 383.859375 C 279.554688 382.90625 279.199219 381.9375 278.886719 380.953125 C 278.574219 379.96875 278.304688 378.972656 278.085938 377.964844 C 277.863281 376.957031 277.6875 375.9375 277.554688 374.914062 C 277.335938 373.390625 277.222656 371.859375 277.210938 370.316406 L 277.210938 322.910156 C 277.210938 322.339844 277.269531 321.777344 277.378906 321.222656 C 277.488281 320.664062 277.652344 320.125 277.871094 319.601562 C 278.085938 319.078125 278.355469 318.578125 278.667969 318.105469 C 278.984375 317.632812 279.34375 317.199219 279.746094 316.796875 C 280.144531 316.394531 280.582031 316.035156 281.054688 315.722656 C 281.527344 315.40625 282.023438 315.140625 282.550781 314.921875 C 283.074219 314.703125 283.613281 314.539062 284.171875 314.429688 C 284.726562 314.320312 285.289062 314.265625 285.855469 314.265625 L 337.3125 314.265625 C 337.867188 314.285156 338.414062 314.359375 338.953125 314.488281 C 339.492188 314.613281 340.011719 314.792969 340.515625 315.019531 C 341.023438 315.246094 341.5 315.519531 341.953125 315.835938 C 342.40625 316.15625 342.824219 316.515625 343.207031 316.914062 C 343.589844 317.3125 343.929688 317.746094 344.230469 318.210938 C 344.53125 318.675781 344.785156 319.164062 344.992188 319.679688 C 345.199219 320.191406 345.355469 320.71875 345.460938 321.261719 C 345.5625 321.808594 345.617188 322.355469 345.617188 322.910156 Z M 345.617188 322.910156 " fill-opacity="1" fill-rule="nonzero"/><g clip-path="url(#20df4d9057)"><path fill="#fcfabe" d="M 490.105469 247.851562 L 414.226562 247.851562 L 414.226562 210.390625 C 414.222656 208.769531 414.140625 207.15625 413.980469 205.542969 C 413.820312 203.933594 413.582031 202.335938 413.265625 200.746094 C 412.949219 199.160156 412.554688 197.589844 412.085938 196.042969 C 411.613281 194.492188 411.070312 192.972656 410.449219 191.476562 C 409.828125 189.980469 409.140625 188.519531 408.375 187.089844 C 407.613281 185.660156 406.78125 184.273438 405.882812 182.925781 C 404.984375 181.582031 404.023438 180.28125 403 179.027344 C 401.972656 177.777344 400.886719 176.578125 399.746094 175.429688 C 398.601562 174.285156 397.40625 173.195312 396.15625 172.167969 C 394.90625 171.136719 393.609375 170.171875 392.265625 169.269531 C 390.921875 168.367188 389.535156 167.535156 388.109375 166.765625 C 386.683594 166 385.222656 165.304688 383.730469 164.683594 C 382.238281 164.058594 380.714844 163.507812 379.167969 163.035156 C 377.621094 162.558594 376.054688 162.160156 374.464844 161.839844 C 372.878906 161.519531 371.28125 161.277344 369.671875 161.109375 C 368.058594 160.945312 366.445312 160.859375 364.828125 160.855469 L 257.796875 160.855469 C 256.175781 160.859375 254.5625 160.945312 252.953125 161.109375 C 251.339844 161.277344 249.742188 161.519531 248.15625 161.839844 C 246.570312 162.160156 245.003906 162.558594 243.453125 163.035156 C 241.90625 163.507812 240.386719 164.058594 238.890625 164.683594 C 237.398438 165.304688 235.9375 166 234.511719 166.765625 C 233.085938 167.535156 231.703125 168.367188 230.355469 169.269531 C 229.011719 170.171875 227.714844 171.136719 226.464844 172.167969 C 225.21875 173.195312 224.019531 174.285156 222.878906 175.429688 C 221.734375 176.578125 220.648438 177.777344 219.625 179.027344 C 218.597656 180.28125 217.636719 181.582031 216.738281 182.925781 C 215.839844 184.273438 215.007812 185.660156 214.246094 187.089844 C 213.484375 188.519531 212.792969 189.980469 212.171875 191.476562 C 211.554688 192.972656 211.007812 194.492188 210.539062 196.042969 C 210.066406 197.589844 209.675781 199.160156 209.355469 200.746094 C 209.039062 202.335938 208.800781 203.933594 208.640625 205.542969 C 208.480469 207.15625 208.398438 208.769531 208.398438 210.390625 L 208.398438 247.851562 L 132.925781 247.851562 C 131.917969 247.847656 130.914062 247.894531 129.910156 247.992188 C 128.90625 248.089844 127.910156 248.234375 126.921875 248.429688 C 125.929688 248.625 124.953125 248.867188 123.988281 249.15625 C 123.023438 249.449219 122.074219 249.785156 121.144531 250.171875 C 120.210938 250.554688 119.300781 250.984375 118.410156 251.457031 C 117.519531 251.929688 116.65625 252.449219 115.816406 253.007812 C 114.976562 253.566406 114.167969 254.164062 113.390625 254.800781 C 112.609375 255.441406 111.863281 256.117188 111.148438 256.828125 C 110.433594 257.539062 109.757812 258.285156 109.117188 259.066406 C 108.476562 259.84375 107.875 260.652344 107.316406 261.488281 C 106.753906 262.328125 106.238281 263.191406 105.761719 264.078125 C 105.285156 264.96875 104.855469 265.878906 104.46875 266.808594 C 104.082031 267.738281 103.742188 268.6875 103.449219 269.652344 C 103.15625 270.617188 102.910156 271.59375 102.714844 272.582031 C 102.515625 273.570312 102.367188 274.566406 102.269531 275.570312 C 102.171875 276.574219 102.121094 277.578125 102.121094 278.585938 L 102.121094 335.738281 L 261.773438 335.738281 L 261.773438 323.320312 C 261.773438 322.53125 261.8125 321.742188 261.890625 320.953125 C 261.96875 320.167969 262.085938 319.386719 262.238281 318.609375 C 262.394531 317.832031 262.585938 317.066406 262.816406 316.308594 C 263.042969 315.554688 263.3125 314.808594 263.613281 314.078125 C 263.917969 313.347656 264.253906 312.632812 264.628906 311.9375 C 265 311.238281 265.40625 310.5625 265.84375 309.902344 C 266.285156 309.246094 266.753906 308.609375 267.257812 308 C 267.757812 307.386719 268.289062 306.804688 268.847656 306.242188 C 269.40625 305.683594 269.992188 305.152344 270.605469 304.652344 C 271.214844 304.148438 271.851562 303.679688 272.507812 303.238281 C 273.167969 302.800781 273.84375 302.394531 274.542969 302.023438 C 275.238281 301.648438 275.953125 301.3125 276.683594 301.007812 C 277.414062 300.707031 278.160156 300.441406 278.914062 300.210938 C 279.671875 299.980469 280.4375 299.789062 281.214844 299.632812 C 281.988281 299.480469 282.769531 299.363281 283.558594 299.285156 C 284.347656 299.207031 285.136719 299.171875 285.925781 299.171875 L 336.695312 299.171875 C 337.488281 299.171875 338.277344 299.207031 339.0625 299.285156 C 339.851562 299.363281 340.632812 299.480469 341.40625 299.632812 C 342.183594 299.789062 342.949219 299.980469 343.707031 300.210938 C 344.464844 300.441406 345.207031 300.707031 345.9375 301.007812 C 346.667969 301.3125 347.382812 301.648438 348.082031 302.023438 C 348.777344 302.394531 349.457031 302.800781 350.113281 303.238281 C 350.773438 303.679688 351.40625 304.148438 352.019531 304.652344 C 352.628906 305.152344 353.214844 305.683594 353.773438 306.242188 C 354.332031 306.804688 354.863281 307.386719 355.367188 308 C 355.867188 308.609375 356.335938 309.246094 356.777344 309.902344 C 357.214844 310.5625 357.621094 311.238281 357.996094 311.9375 C 358.367188 312.632812 358.707031 313.347656 359.007812 314.078125 C 359.3125 314.808594 359.578125 315.554688 359.808594 316.308594 C 360.035156 317.066406 360.230469 317.832031 360.382812 318.609375 C 360.539062 319.386719 360.652344 320.167969 360.730469 320.953125 C 360.808594 321.742188 360.847656 322.53125 360.847656 323.320312 L 360.847656 335.738281 L 520.914062 335.738281 L 520.914062 278.585938 C 520.914062 277.578125 520.863281 276.574219 520.765625 275.570312 C 520.664062 274.566406 520.515625 273.570312 520.320312 272.582031 C 520.125 271.59375 519.878906 270.617188 519.585938 269.652344 C 519.292969 268.6875 518.953125 267.738281 518.566406 266.808594 C 518.179688 265.878906 517.75 264.96875 517.273438 264.078125 C 516.796875 263.191406 516.277344 262.328125 515.71875 261.488281 C 515.15625 260.652344 514.558594 259.84375 513.917969 259.066406 C 513.277344 258.285156 512.597656 257.539062 511.886719 256.828125 C 511.171875 256.117188 510.425781 255.441406 509.644531 254.804688 C 508.867188 254.164062 508.054688 253.566406 507.214844 253.007812 C 506.378906 252.449219 505.511719 251.929688 504.625 251.457031 C 503.734375 250.984375 502.824219 250.554688 501.890625 250.171875 C 500.957031 249.785156 500.011719 249.449219 499.046875 249.15625 C 498.078125 248.867188 497.101562 248.625 496.113281 248.429688 C 495.125 248.234375 494.128906 248.089844 493.125 247.992188 C 492.121094 247.894531 491.117188 247.847656 490.105469 247.851562 Z M 239.476562 210.390625 C 239.480469 209.789062 239.511719 209.191406 239.570312 208.597656 C 239.632812 208 239.722656 207.40625 239.839844 206.820312 C 239.960938 206.234375 240.105469 205.652344 240.28125 205.078125 C 240.457031 204.507812 240.660156 203.941406 240.890625 203.390625 C 241.121094 202.835938 241.378906 202.296875 241.660156 201.769531 C 241.945312 201.238281 242.253906 200.726562 242.585938 200.226562 C 242.917969 199.730469 243.277344 199.25 243.65625 198.785156 C 244.035156 198.324219 244.4375 197.878906 244.863281 197.457031 C 245.285156 197.03125 245.730469 196.628906 246.191406 196.25 C 246.65625 195.871094 247.136719 195.511719 247.632812 195.179688 C 248.132812 194.84375 248.644531 194.539062 249.175781 194.253906 C 249.703125 193.972656 250.242188 193.714844 250.796875 193.484375 C 251.347656 193.253906 251.914062 193.050781 252.484375 192.875 C 253.058594 192.699219 253.640625 192.550781 254.226562 192.433594 C 254.8125 192.316406 255.40625 192.226562 256.003906 192.164062 C 256.597656 192.105469 257.195312 192.074219 257.796875 192.070312 L 364.828125 192.070312 C 365.425781 192.074219 366.023438 192.105469 366.621094 192.164062 C 367.214844 192.226562 367.808594 192.316406 368.394531 192.433594 C 368.984375 192.550781 369.5625 192.699219 370.136719 192.875 C 370.710938 193.050781 371.273438 193.253906 371.828125 193.484375 C 372.378906 193.714844 372.921875 193.972656 373.449219 194.253906 C 373.976562 194.539062 374.488281 194.84375 374.988281 195.179688 C 375.484375 195.511719 375.964844 195.871094 376.429688 196.25 C 376.890625 196.628906 377.335938 197.03125 377.761719 197.457031 C 378.183594 197.878906 378.585938 198.324219 378.964844 198.785156 C 379.347656 199.25 379.703125 199.730469 380.035156 200.226562 C 380.371094 200.726562 380.679688 201.238281 380.960938 201.769531 C 381.246094 202.296875 381.503906 202.835938 381.734375 203.390625 C 381.964844 203.941406 382.164062 204.507812 382.339844 205.078125 C 382.515625 205.652344 382.664062 206.234375 382.78125 206.820312 C 382.902344 207.40625 382.988281 208 383.050781 208.597656 C 383.113281 209.191406 383.144531 209.789062 383.144531 210.390625 L 383.144531 247.851562 L 239.476562 247.851562 Z M 239.476562 210.390625 " fill-opacity="1" fill-rule="nonzero"/></g></svg>