<svg xmlns="http://www.w3.org/2000/svg" xmlns:xlink="http://www.w3.org/1999/xlink" width="816" zoomAndPan="magnify" viewBox="0 0 612 791.999994" height="1056" preserveAspectRatio="xMidYMid meet" version="1.0"><defs><clipPath id="85f265a2e3"><path d="M 71.882812 552 L 191 552 L 191 586.667969 L 71.882812 586.667969 Z M 71.882812 552 " clip-rule="nonzero"/></clipPath><clipPath id="d729c7a674"><path d="M 228 107.417969 L 297 107.417969 L 297 177 L 228 177 Z M 228 107.417969 " clip-rule="nonzero"/></clipPath></defs><g clip-path="url(#85f265a2e3)"><path fill="#bfa9c8" d="M 81.285156 577.523438 L 181.386719 577.523438 L 181.386719 561.4375 L 81.285156 561.4375 Z M 186.089844 586.929688 L 76.582031 586.929688 C 73.980469 586.929688 71.875 584.828125 71.875 582.226562 L 71.875 556.734375 C 71.875 554.136719 73.980469 552.03125 76.582031 552.03125 L 186.089844 552.03125 C 188.6875 552.03125 190.792969 554.136719 190.792969 556.734375 L 190.792969 582.226562 C 190.792969 584.828125 188.6875 586.929688 186.089844 586.929688 " fill-opacity="1" fill-rule="nonzero"/></g><path fill="#bfa9c8" d="M 153.28125 521.65625 L 253.382812 521.65625 L 253.382812 505.5625 L 153.28125 505.5625 Z M 258.085938 531.0625 L 148.578125 531.0625 C 145.980469 531.0625 143.875 528.953125 143.875 526.359375 L 143.875 500.859375 C 143.875 498.265625 145.980469 496.15625 148.578125 496.15625 L 258.085938 496.15625 C 260.683594 496.15625 262.792969 498.265625 262.792969 500.859375 L 262.792969 526.359375 C 262.792969 528.953125 260.683594 531.0625 258.085938 531.0625 " fill-opacity="1" fill-rule="nonzero"/><path fill="#bfa9c8" d="M 225.277344 465.78125 L 325.382812 465.78125 L 325.382812 449.695312 L 225.277344 449.695312 Z M 330.085938 475.1875 L 220.574219 475.1875 C 217.976562 475.1875 215.871094 473.082031 215.871094 470.484375 L 215.871094 444.992188 C 215.871094 442.394531 217.976562 440.289062 220.574219 440.289062 L 330.085938 440.289062 C 332.683594 440.289062 334.789062 442.394531 334.789062 444.992188 L 334.789062 470.484375 C 334.789062 473.082031 332.683594 475.1875 330.085938 475.1875 " fill-opacity="1" fill-rule="nonzero"/><path fill="#bfa9c8" d="M 297.277344 409.914062 L 397.378906 409.914062 L 397.378906 393.824219 L 297.277344 393.824219 Z M 402.082031 419.320312 L 292.574219 419.320312 C 289.976562 419.320312 287.871094 417.214844 287.871094 414.617188 L 287.871094 389.121094 C 287.871094 386.523438 289.976562 384.414062 292.574219 384.414062 L 402.082031 384.414062 C 404.679688 384.414062 406.785156 386.523438 406.785156 389.121094 L 406.785156 414.617188 C 406.785156 417.214844 404.679688 419.320312 402.082031 419.320312 " fill-opacity="1" fill-rule="nonzero"/><path fill="#bfa9c8" d="M 369.277344 354.039062 L 469.375 354.039062 L 469.375 337.953125 L 369.277344 337.953125 Z M 474.078125 363.445312 L 364.570312 363.445312 C 361.96875 363.445312 359.867188 361.339844 359.867188 358.742188 L 359.867188 333.25 C 359.867188 330.652344 361.96875 328.546875 364.570312 328.546875 L 474.078125 328.546875 C 476.679688 328.546875 478.78125 330.652344 478.78125 333.25 L 478.78125 358.742188 C 478.78125 361.339844 476.679688 363.445312 474.078125 363.445312 " fill-opacity="1" fill-rule="nonzero"/><path fill="#bfa9c8" d="M 441.273438 298.167969 L 541.375 298.167969 L 541.375 282.082031 L 441.273438 282.082031 Z M 546.078125 307.574219 L 436.570312 307.574219 C 433.972656 307.574219 431.863281 305.472656 431.863281 302.871094 L 431.863281 277.378906 C 431.863281 274.78125 433.972656 272.675781 436.570312 272.675781 L 546.078125 272.675781 C 548.675781 272.675781 550.78125 274.78125 550.78125 277.378906 L 550.78125 302.871094 C 550.78125 305.472656 548.675781 307.574219 546.078125 307.574219 " fill-opacity="1" fill-rule="nonzero"/><path fill="#bfa9c8" d="M 216.582031 420.398438 L 237.101562 420.398438 L 261.027344 303.839844 C 261.296875 302.542969 262.097656 301.417969 263.234375 300.738281 C 264.375 300.0625 265.746094 299.898438 267.011719 300.285156 L 314.679688 314.863281 C 316.652344 315.472656 318.003906 317.296875 318.003906 319.363281 L 318.003906 367.105469 L 335.921875 367.105469 L 335.921875 296.53125 L 288.550781 282.601562 C 286.546875 282.011719 285.171875 280.171875 285.171875 278.082031 L 285.171875 218.757812 C 285.171875 217.0625 286.089844 215.488281 287.574219 214.65625 C 289.054688 213.824219 290.867188 213.855469 292.320312 214.742188 L 325.121094 234.699219 L 383.132812 234.699219 L 383.132812 219.039062 L 328.914062 219.039062 C 328.082031 219.039062 327.261719 218.820312 326.539062 218.398438 L 288.589844 196.214844 L 232.496094 196.214844 L 189.035156 244.992188 L 163.246094 303.660156 L 178.4375 306.984375 L 203.84375 252.214844 C 204.039062 251.796875 204.292969 251.410156 204.601562 251.0625 L 226.828125 226.117188 C 228.128906 224.65625 230.191406 224.152344 232.015625 224.851562 C 233.839844 225.546875 235.046875 227.292969 235.046875 229.242188 L 235.046875 293.984375 C 235.046875 294.21875 235.03125 294.441406 234.996094 294.667969 Z M 240.9375 429.804688 L 211.140625 429.804688 C 209.773438 429.804688 208.472656 429.210938 207.578125 428.175781 C 206.6875 427.140625 206.285156 425.769531 206.484375 424.417969 L 225.640625 293.648438 L 225.640625 241.59375 L 212.085938 256.804688 L 185.382812 314.359375 C 184.457031 316.359375 182.265625 317.449219 180.113281 316.976562 L 155.621094 311.628906 C 154.246094 311.328125 153.074219 310.421875 152.433594 309.164062 C 151.796875 307.910156 151.753906 306.429688 152.320312 305.136719 L 180.722656 240.527344 C 180.921875 240.074219 181.1875 239.65625 181.515625 239.289062 L 226.472656 188.835938 C 226.796875 188.363281 227.207031 187.960938 227.675781 187.636719 C 228.402344 187.09375 229.28125 186.773438 230.203125 186.722656 C 230.609375 186.699219 231.011719 186.726562 231.40625 186.808594 L 289.875 186.808594 C 290.835938 186.808594 291.730469 187.09375 292.472656 187.589844 L 330.1875 209.632812 L 387.835938 209.632812 C 390.433594 209.632812 392.539062 211.742188 392.539062 214.335938 L 392.539062 239.402344 C 392.539062 242.003906 390.433594 244.105469 387.835938 244.105469 L 323.777344 244.105469 C 322.773438 244.105469 321.839844 243.789062 321.074219 243.25 L 294.578125 227.125 L 294.578125 274.566406 L 341.953125 288.5 C 343.957031 289.089844 345.328125 290.925781 345.328125 293.011719 L 345.328125 371.808594 C 345.328125 374.40625 343.222656 376.511719 340.625 376.511719 L 313.300781 376.511719 C 310.703125 376.511719 308.597656 374.40625 308.597656 371.808594 L 308.597656 322.84375 L 269.203125 310.796875 L 245.542969 426.046875 C 245.09375 428.234375 243.171875 429.804688 240.9375 429.804688 " fill-opacity="1" fill-rule="nonzero"/><g clip-path="url(#d729c7a674)"><path fill="#bfa9c8" d="M 262.585938 116.890625 C 248.84375 116.890625 237.660156 128.070312 237.660156 141.816406 C 237.660156 155.558594 248.84375 166.738281 262.585938 166.738281 C 276.328125 166.738281 287.511719 155.558594 287.511719 141.816406 C 287.511719 128.070312 276.328125 116.890625 262.585938 116.890625 Z M 262.585938 176.144531 C 243.652344 176.144531 228.253906 160.746094 228.253906 141.816406 C 228.253906 122.882812 243.652344 107.484375 262.585938 107.484375 C 281.515625 107.484375 296.917969 122.882812 296.917969 141.816406 C 296.917969 160.746094 281.515625 176.144531 262.585938 176.144531 " fill-opacity="1" fill-rule="nonzero"/></g><path fill="#bfa9c8" d="M 116.546875 367.210938 L 186.535156 382.722656 L 196.339844 338.476562 L 126.351562 322.964844 Z M 190.105469 393.035156 C 189.765625 393.035156 189.425781 393 189.089844 392.925781 L 109.917969 375.375 C 108.699219 375.109375 107.640625 374.363281 106.96875 373.3125 C 106.296875 372.261719 106.074219 370.988281 106.34375 369.769531 L 118.1875 316.335938 C 118.75 313.804688 121.257812 312.203125 123.796875 312.761719 L 202.96875 330.3125 C 205.503906 330.875 207.105469 333.386719 206.542969 335.921875 L 194.699219 389.347656 C 194.429688 390.566406 193.6875 391.632812 192.636719 392.296875 C 191.875 392.789062 190.996094 393.035156 190.105469 393.035156 " fill-opacity="1" fill-rule="nonzero"/><path fill="#bfa9c8" d="M 155.621094 319.816406 L 171.144531 323.261719 L 171.226562 322.882812 C 172.132812 318.796875 169.546875 314.738281 165.464844 313.835938 L 164.75 313.675781 C 160.667969 312.773438 156.609375 315.359375 155.703125 319.441406 Z M 174.71875 333.570312 C 174.378906 333.570312 174.035156 333.535156 173.699219 333.460938 L 148.992188 327.984375 C 146.457031 327.421875 144.855469 324.910156 145.417969 322.371094 L 146.519531 317.40625 C 148.546875 308.257812 157.636719 302.464844 166.785156 304.492188 L 167.5 304.648438 C 176.648438 306.679688 182.4375 315.769531 180.410156 324.917969 L 179.308594 329.886719 C 179.039062 331.105469 178.296875 332.164062 177.246094 332.835938 C 176.484375 333.324219 175.605469 333.570312 174.71875 333.570312 " fill-opacity="1" fill-rule="nonzero"/><path fill="#bfa9c8" d="M 125.867188 325.152344 L 131.4375 330.488281 C 146.546875 344.980469 168.25 349.789062 188.066406 343.042969 L 195.921875 340.371094 L 196.339844 338.476562 L 126.351562 322.964844 Z M 169.992188 355.457031 C 153.457031 355.457031 137.304688 349.148438 124.925781 337.28125 L 117.449219 330.113281 C 116.261719 328.976562 115.753906 327.304688 116.113281 325.699219 L 118.1875 316.335938 C 118.457031 315.117188 119.199219 314.058594 120.25 313.386719 C 121.300781 312.71875 122.578125 312.496094 123.796875 312.761719 L 202.96875 330.3125 C 205.503906 330.875 207.105469 333.386719 206.542969 335.921875 L 204.535156 344.992188 C 204.175781 346.59375 203.011719 347.890625 201.457031 348.425781 L 191.097656 351.953125 C 184.171875 354.308594 177.046875 355.457031 169.992188 355.457031 " fill-opacity="1" fill-rule="nonzero"/></svg>