<svg xmlns="http://www.w3.org/2000/svg" xmlns:xlink="http://www.w3.org/1999/xlink" width="1080" zoomAndPan="magnify" viewBox="0 0 810 809.999993" height="1080" preserveAspectRatio="xMidYMid meet" version="1.0"><path fill="#5ce1e6" d="M 482.273438 566.996094 L 391.339844 566.996094 C 387.039062 566.996094 383.386719 563.941406 382.648438 559.710938 C 379.441406 541.34375 375.453125 528.089844 372.253906 525.125 C 366.863281 520.097656 354.199219 521.441406 344.015625 522.507812 C 340.59375 522.871094 337.355469 523.214844 334.445312 523.328125 C 309.46875 524.597656 308.015625 508.519531 306.582031 492.949219 C 306.035156 487.011719 305.472656 480.867188 303.753906 475.011719 C 301.464844 467.179688 297.207031 464.375 293.097656 461.671875 C 288.929688 458.925781 284.207031 455.808594 284.621094 447.925781 C 284.820312 444.109375 287.820312 440.789062 291.625 436.578125 C 297.488281 430.089844 305.523438 421.199219 305.550781 407.148438 C 305.5625 403.507812 305.1875 398.632812 304.824219 393.929688 C 304.523438 390.132812 304.25 386.539062 304.148438 383.460938 C 304.078125 381.109375 304.109375 378.738281 304.238281 376.386719 C 304.339844 374.601562 305.875 373.257812 307.640625 373.339844 C 309.417969 373.441406 310.78125 374.964844 310.6875 376.742188 C 310.566406 378.910156 310.539062 381.101562 310.609375 383.261719 C 310.699219 386.199219 310.972656 389.710938 311.265625 393.433594 C 311.636719 398.269531 312.019531 403.265625 312.011719 407.171875 C 311.972656 423.691406 302.613281 434.058594 296.417969 440.910156 C 293.824219 443.777344 291.148438 446.742188 291.070312 448.265625 C 290.855469 452.285156 292.523438 453.554688 296.648438 456.269531 C 301.019531 459.15625 306.996094 463.09375 309.953125 473.195312 C 311.851562 479.65625 312.464844 486.40625 313.011719 492.351562 C 314.472656 508.257812 315.351562 517.847656 334.15625 516.878906 C 336.878906 516.765625 340.019531 516.445312 343.339844 516.089844 C 355.429688 514.820312 369.117188 513.375 376.65625 520.390625 C 382.257812 525.585938 386.464844 544.035156 389.007812 558.601562 C 389.210938 559.722656 390.1875 560.539062 391.339844 560.539062 L 482.273438 560.539062 C 483.03125 560.539062 483.726562 560.195312 484.183594 559.589844 C 484.445312 559.246094 484.839844 558.511719 484.554688 557.542969 C 481.496094 546.996094 476.199219 526.828125 475.148438 510.238281 C 474.492188 499.984375 477.480469 484.882812 484.445312 475.839844 C 510.453125 442.101562 519.125 415.515625 514.371094 384.078125 C 514.007812 381.707031 513.613281 379.457031 513.148438 377.226562 C 512.773438 375.480469 513.90625 373.761719 515.652344 373.398438 C 517.398438 373.035156 519.101562 374.167969 519.464844 375.914062 C 519.960938 378.265625 520.375 380.617188 520.75 383.109375 C 525.734375 416.042969 516.410156 444.957031 489.5625 479.785156 C 483.636719 487.476562 481.035156 501 481.589844 509.824219 C 482.609375 525.808594 487.765625 545.449219 490.761719 555.734375 C 491.539062 558.410156 491.027344 561.234375 489.351562 563.464844 C 487.664062 565.714844 485.089844 566.996094 482.273438 566.996094 " fill-opacity="1" fill-rule="nonzero"/><path fill="#5ce1e6" d="M 326.625 480.25 L 307.621094 480.25 C 305.835938 480.25 304.390625 478.808594 304.390625 477.023438 C 304.390625 475.234375 305.835938 473.792969 307.621094 473.792969 L 326.625 473.792969 C 328.410156 473.792969 329.855469 475.234375 329.855469 477.023438 C 329.855469 478.808594 328.410156 480.25 326.625 480.25 " fill-opacity="1" fill-rule="nonzero"/><path fill="#5ce1e6" d="M 329.804688 412.09375 C 329.804688 415.164062 327.320312 417.65625 324.253906 417.65625 C 321.183594 417.65625 318.691406 415.164062 318.691406 412.09375 C 318.691406 409.027344 321.183594 406.542969 324.253906 406.542969 C 327.320312 406.542969 329.804688 409.027344 329.804688 412.09375 " fill-opacity="1" fill-rule="nonzero"/><path fill="#5ce1e6" d="M 417.460938 381.714844 C 407.175781 381.714844 397.074219 377.960938 390.320312 370.824219 C 376.261719 355.96875 376.292969 333.300781 390.382812 319.203125 C 402.039062 307.554688 420.992188 307.554688 432.640625 319.203125 C 442.207031 328.78125 442.207031 344.351562 432.640625 353.921875 C 424.726562 361.832031 411.859375 361.832031 403.945312 353.921875 C 397.375 347.351562 397.375 336.640625 403.945312 330.0625 C 409.464844 324.539062 418.4375 324.550781 423.960938 330.0625 C 428.621094 334.722656 428.621094 342.3125 423.960938 346.976562 C 422.699219 348.238281 420.648438 348.238281 419.386719 346.976562 C 418.125 345.714844 418.125 343.675781 419.386719 342.414062 C 421.539062 340.265625 421.539062 336.773438 419.386719 334.632812 C 416.390625 331.625 411.515625 331.636719 408.519531 334.632812 C 404.460938 338.691406 404.460938 345.300781 408.519531 349.359375 C 413.90625 354.75 422.675781 354.75 428.078125 349.359375 C 435.121094 342.304688 435.121094 330.828125 428.078125 323.773438 C 418.933594 314.640625 404.078125 314.640625 394.953125 323.773438 C 383.347656 335.371094 383.375 354.09375 395.011719 366.386719 C 404.359375 376.265625 421.628906 378.222656 434.316406 370.855469 C 435.859375 369.957031 437.828125 370.484375 438.726562 372.027344 C 439.625 373.570312 439.097656 375.550781 437.554688 376.449219 C 431.4375 380 424.402344 381.714844 417.460938 381.714844 " fill-opacity="1" fill-rule="nonzero"/><path fill="#5ce1e6" d="M 444.679688 368.917969 C 443.890625 368.917969 443.09375 368.625 442.46875 368.039062 C 441.167969 366.828125 441.105469 364.78125 442.316406 363.480469 C 443.589844 362.125 444.597656 360.886719 445.75 358.875 C 446.636719 357.320312 448.617188 356.789062 450.160156 357.664062 C 451.703125 358.554688 452.25 360.53125 451.359375 362.074219 C 449.816406 364.78125 448.363281 366.476562 447.03125 367.898438 C 446.394531 368.574219 445.539062 368.917969 444.679688 368.917969 " fill-opacity="1" fill-rule="nonzero"/><path fill="#5ce1e6" d="M 492.992188 372.339844 C 488.148438 372.339844 483.457031 370.777344 479.53125 367.796875 C 475.574219 364.8125 473.019531 360.460938 472.332031 355.546875 C 471.65625 350.640625 472.929688 345.753906 475.917969 341.800781 C 478.410156 338.5 482.042969 336.371094 486.140625 335.792969 C 490.238281 335.21875 494.316406 336.289062 497.617188 338.78125 C 500.402344 340.882812 502.199219 343.9375 502.671875 347.390625 C 503.15625 350.84375 502.269531 354.273438 500.160156 357.050781 C 498.371094 359.410156 495.777344 360.933594 492.851562 361.347656 C 489.933594 361.761719 487.007812 360.996094 484.636719 359.210938 C 483.214844 358.128906 482.941406 356.109375 484.011719 354.6875 C 485.089844 353.265625 487.109375 352.980469 488.53125 354.0625 C 489.523438 354.808594 490.734375 355.121094 491.953125 354.949219 C 493.183594 354.777344 494.265625 354.144531 495.011719 353.152344 C 496.070312 351.75 496.515625 350.023438 496.273438 348.277344 C 496.042969 346.542969 495.125 345 493.71875 343.9375 C 491.800781 342.476562 489.421875 341.859375 487.027344 342.191406 C 484.636719 342.527344 482.527344 343.765625 481.0625 345.695312 C 479.117188 348.269531 478.289062 351.457031 478.734375 354.65625 C 479.175781 357.867188 480.84375 360.703125 483.425781 362.652344 C 486.828125 365.214844 491.027344 366.316406 495.234375 365.71875 C 499.441406 365.132812 503.175781 362.945312 505.75 359.542969 C 512.5625 350.53125 510.765625 337.753906 501.644531 330.457031 C 496.726562 326.527344 489.621094 325.277344 482.628906 327.113281 C 476.097656 328.839844 470.910156 333.058594 468.769531 338.410156 C 468.105469 340.0625 466.21875 340.871094 464.574219 340.203125 C 462.917969 339.546875 462.109375 337.660156 462.777344 336.007812 C 465.722656 328.660156 472.355469 323.148438 480.984375 320.878906 C 489.945312 318.515625 499.179688 320.210938 505.679688 325.410156 C 517.550781 334.90625 519.839844 351.609375 510.90625 363.4375 C 507.292969 368.210938 502.046875 371.300781 496.121094 372.117188 C 495.074219 372.269531 494.023438 372.339844 492.992188 372.339844 " fill-opacity="1" fill-rule="nonzero"/><path fill="#5ce1e6" d="M 464.875 316.457031 C 461.929688 316.457031 459.050781 315.597656 456.539062 313.945312 C 453.148438 311.703125 450.828125 308.28125 450.007812 304.304688 C 448.585938 297.390625 453.058594 290.597656 459.96875 289.175781 C 465.863281 287.953125 471.628906 291.769531 472.839844 297.652344 C 473.34375 300.097656 472.867188 302.597656 471.484375 304.6875 C 470.113281 306.777344 468.003906 308.199219 465.5625 308.707031 C 463.804688 309.070312 462.109375 307.9375 461.746094 306.191406 C 461.382812 304.445312 462.511719 302.742188 464.257812 302.378906 C 465.015625 302.226562 465.671875 301.78125 466.097656 301.136719 C 466.519531 300.488281 466.671875 299.714844 466.511719 298.957031 C 466.015625 296.5625 463.664062 295.007812 461.273438 295.503906 C 457.839844 296.210938 455.628906 299.570312 456.335938 303.003906 C 456.8125 305.292969 458.144531 307.261719 460.089844 308.554688 C 462.039062 309.835938 464.378906 310.28125 466.660156 309.804688 C 473 308.503906 477.097656 302.285156 475.796875 295.9375 C 474.101562 287.671875 466.046875 282.394531 457.425781 283.917969 C 452.804688 284.734375 448.605469 288.125 446.183594 292.980469 C 443.921875 297.503906 443.730469 302.476562 445.667969 306.292969 C 446.464844 307.878906 445.832031 309.824219 444.246094 310.632812 C 442.652344 311.429688 440.703125 310.804688 439.894531 309.210938 C 437 303.496094 437.179688 296.523438 440.402344 290.09375 C 443.730469 283.414062 449.675781 278.730469 456.296875 277.558594 C 468.378906 275.417969 479.710938 282.929688 482.125 294.636719 C 484.140625 304.476562 477.792969 314.113281 467.964844 316.132812 C 466.933594 316.34375 465.894531 316.457031 464.875 316.457031 " fill-opacity="1" fill-rule="nonzero"/><path fill="#5ce1e6" d="M 456.378906 354.0625 C 455.710938 354.0625 455.046875 353.859375 454.46875 353.4375 C 453.027344 352.386719 452.714844 350.359375 453.773438 348.925781 C 456.042969 345.816406 456.800781 344.929688 456.921875 344.785156 C 458.101562 343.445312 460.132812 343.304688 461.484375 344.484375 C 462.828125 345.65625 462.96875 347.695312 461.785156 349.035156 C 461.765625 349.054688 461.101562 349.84375 458.980469 352.738281 C 458.34375 353.597656 457.367188 354.0625 456.378906 354.0625 " fill-opacity="1" fill-rule="nonzero"/><path fill="#5ce1e6" d="M 380.277344 370.3125 C 379.703125 370.3125 379.128906 370.160156 378.59375 369.835938 C 376.9375 368.816406 375.101562 367.578125 372.878906 365.367188 C 371.617188 364.105469 371.617188 362.066406 372.878906 360.804688 C 374.140625 359.53125 376.179688 359.53125 377.441406 360.792969 C 379.097656 362.4375 380.398438 363.367188 381.972656 364.328125 C 383.496094 365.265625 383.972656 367.253906 383.035156 368.765625 C 382.429688 369.765625 381.367188 370.3125 380.277344 370.3125 " fill-opacity="1" fill-rule="nonzero"/><path fill="#5ce1e6" d="M 329.148438 374.921875 C 328.117188 374.921875 327.070312 374.851562 326.019531 374.703125 C 320.09375 373.882812 314.847656 370.796875 311.234375 366.023438 C 302.300781 354.191406 304.59375 337.488281 316.460938 327.992188 C 322.972656 322.796875 332.207031 321.097656 341.160156 323.460938 C 349.789062 325.730469 356.417969 331.242188 359.367188 338.589844 C 360.03125 340.246094 359.226562 342.132812 357.570312 342.789062 C 355.925781 343.445312 354.027344 342.648438 353.371094 340.992188 C 351.230469 335.644531 346.042969 331.425781 339.515625 329.699219 C 332.519531 327.863281 325.414062 329.113281 320.5 333.039062 C 311.375 340.335938 309.578125 353.113281 316.390625 362.136719 C 318.953125 365.527344 322.6875 367.71875 326.90625 368.304688 C 331.125 368.898438 335.316406 367.796875 338.714844 365.234375 C 341.300781 363.285156 342.964844 360.449219 343.410156 357.242188 C 343.855469 354.042969 343.027344 350.851562 341.078125 348.277344 C 339.613281 346.351562 337.503906 345.109375 335.113281 344.777344 C 332.722656 344.445312 330.339844 345.058594 328.421875 346.523438 C 327.019531 347.582031 326.101562 349.125 325.867188 350.863281 C 325.617188 352.609375 326.070312 354.335938 327.128906 355.738281 C 327.875 356.726562 328.957031 357.363281 330.1875 357.535156 C 331.410156 357.707031 332.621094 357.394531 333.609375 356.644531 C 335.03125 355.566406 337.050781 355.847656 338.132812 357.273438 C 339.199219 358.695312 338.929688 360.714844 337.503906 361.792969 C 335.144531 363.578125 332.214844 364.335938 329.289062 363.933594 C 326.363281 363.519531 323.769531 361.996094 321.984375 359.632812 C 319.882812 356.859375 318.984375 353.425781 319.46875 349.972656 C 319.945312 346.523438 321.742188 343.464844 324.527344 341.367188 C 327.828125 338.871094 331.894531 337.8125 336 338.378906 C 340.097656 338.953125 343.734375 341.082031 346.226562 344.382812 C 349.210938 348.339844 350.484375 353.222656 349.808594 358.128906 C 349.121094 363.042969 346.570312 367.394531 342.613281 370.382812 C 338.6875 373.359375 333.992188 374.921875 329.148438 374.921875 " fill-opacity="1" fill-rule="nonzero"/><path fill="#5ce1e6" d="M 366.875 357.855469 C 366.085938 357.855469 365.289062 357.574219 364.664062 356.988281 C 361.992188 354.484375 360.628906 351.992188 360.476562 351.71875 C 359.636719 350.15625 360.234375 348.199219 361.796875 347.351562 C 363.371094 346.511719 365.332031 347.109375 366.167969 348.671875 C 366.167969 348.683594 367.179688 350.488281 369.085938 352.277344 C 370.386719 353.488281 370.457031 355.535156 369.238281 356.835938 C 368.601562 357.515625 367.742188 357.855469 366.875 357.855469 " fill-opacity="1" fill-rule="nonzero"/><path fill="#5ce1e6" d="M 445.929688 327.960938 C 445.800781 327.960938 445.667969 327.953125 445.527344 327.941406 C 443.761719 327.71875 442.5 326.105469 442.722656 324.339844 C 442.710938 324.339844 442.851562 322.625 442.21875 319.070312 C 441.894531 317.316406 443.066406 315.628906 444.8125 315.316406 C 446.585938 314.992188 448.253906 316.164062 448.566406 317.910156 C 449.394531 322.441406 449.179688 324.710938 449.128906 325.125 C 448.929688 326.761719 447.535156 327.960938 445.929688 327.960938 " fill-opacity="1" fill-rule="nonzero"/><path fill="#5ce1e6" d="M 357.265625 319.039062 C 356.246094 319.039062 355.207031 318.929688 354.179688 318.71875 C 344.347656 316.699219 338 307.058594 340.019531 297.21875 C 342.429688 285.503906 353.773438 278.003906 365.84375 280.144531 C 372.464844 281.3125 378.410156 285.996094 381.742188 292.679688 C 384.960938 299.105469 385.144531 306.082031 382.246094 311.792969 C 381.4375 313.386719 379.492188 314.015625 377.894531 313.21875 C 376.3125 312.410156 375.675781 310.460938 376.472656 308.878906 C 378.410156 305.0625 378.21875 300.085938 375.957031 295.566406 C 373.535156 290.710938 369.335938 287.320312 364.714844 286.5 C 356.105469 284.976562 348.042969 290.257812 346.347656 298.523438 C 345.042969 304.871094 349.140625 311.085938 355.480469 312.390625 C 357.761719 312.863281 360.101562 312.417969 362.050781 311.136719 C 364 309.847656 365.332031 307.878906 365.804688 305.585938 C 366.511719 302.15625 364.300781 298.792969 360.871094 298.089844 C 358.476562 297.605469 356.117188 299.136719 355.632812 301.539062 C 355.46875 302.296875 355.621094 303.074219 356.046875 303.71875 C 356.46875 304.367188 357.125 304.808594 357.882812 304.960938 C 359.628906 305.324219 360.757812 307.03125 360.394531 308.777344 C 360.03125 310.523438 358.335938 311.652344 356.582031 311.289062 C 354.136719 310.785156 352.027344 309.363281 350.65625 307.273438 C 349.273438 305.183594 348.800781 302.679688 349.304688 300.238281 C 350.515625 294.355469 356.289062 290.558594 362.171875 291.761719 C 369.085938 293.183594 373.554688 299.976562 372.132812 306.890625 C 371.316406 310.867188 368.996094 314.285156 365.601562 316.527344 C 363.089844 318.183594 360.214844 319.039062 357.265625 319.039062 " fill-opacity="1" fill-rule="nonzero"/><path fill="#5ce1e6" d="M 374.554688 328.871094 C 372.78125 328.871094 371.347656 327.457031 371.324219 325.679688 C 371.324219 325.390625 371.335938 322.714844 372.6875 318.210938 C 373.191406 316.507812 375 315.546875 376.707031 316.054688 C 378.410156 316.558594 379.378906 318.363281 378.867188 320.070312 C 377.816406 323.601562 377.785156 325.632812 377.785156 325.652344 C 377.765625 327.417969 376.332031 328.859375 374.554688 328.871094 " fill-opacity="1" fill-rule="nonzero"/><path fill="#5ce1e6" d="M 405.53125 295.101562 C 404.328125 295.101562 403.179688 294.425781 402.613281 293.273438 C 401.644531 291.253906 399.714844 288.238281 396.03125 285.300781 C 390.574219 280.949219 387.253906 274.148438 387.152344 267.101562 C 387.058594 260.632812 389.59375 254.882812 394.296875 250.90625 C 403.652344 242.980469 417.238281 243.757812 425.210938 252.679688 C 428.449219 256.304688 430.085938 260.976562 429.824219 265.820312 C 429.550781 270.675781 427.410156 275.136719 423.789062 278.378906 C 420.761719 281.082031 416.863281 282.445312 412.796875 282.230469 C 408.75 282 405.027344 280.214844 402.3125 277.1875 C 400.03125 274.644531 398.878906 271.351562 399.070312 267.929688 C 399.261719 264.519531 400.777344 261.378906 403.320312 259.101562 C 405.488281 257.152344 408.304688 256.183594 411.191406 256.335938 C 414.089844 256.496094 416.761719 257.789062 418.699219 259.949219 C 422.144531 263.804688 421.808594 269.726562 417.964844 273.167969 C 416.632812 274.359375 414.59375 274.25 413.414062 272.917969 C 412.222656 271.585938 412.332031 269.546875 413.664062 268.355469 C 414.238281 267.839844 414.582031 267.132812 414.625 266.355469 C 414.664062 265.578125 414.402344 264.84375 413.886719 264.257812 C 413.101562 263.378906 412.007812 262.855469 410.828125 262.792969 C 409.617188 262.734375 408.507812 263.117188 407.628906 263.914062 C 406.359375 265.042969 405.621094 266.597656 405.519531 268.292969 C 405.429688 269.980469 405.996094 271.613281 407.125 272.875 C 408.6875 274.621094 410.828125 275.652344 413.160156 275.78125 C 415.511719 275.902344 417.742188 275.117188 419.476562 273.5625 C 421.820312 271.472656 423.203125 268.597656 423.375 265.46875 C 423.546875 262.339844 422.484375 259.320312 420.398438 256.992188 C 414.765625 250.691406 405.136719 250.1875 398.464844 255.828125 C 395.277344 258.535156 393.550781 262.511719 393.609375 267.003906 C 393.691406 272.140625 396.09375 277.085938 400.058594 280.242188 C 404.691406 283.9375 407.175781 287.84375 408.4375 290.46875 C 409.214844 292.074219 408.539062 294 406.933594 294.777344 C 406.480469 295 405.996094 295.101562 405.53125 295.101562 " fill-opacity="1" fill-rule="nonzero"/><path fill="#5ce1e6" d="M 410.820312 307.929688 C 409.335938 307.929688 407.992188 306.910156 407.660156 305.394531 C 407.660156 305.394531 407.316406 303.902344 406.296875 301.519531 C 405.589844 299.875 406.359375 297.976562 407.992188 297.28125 C 409.648438 296.574219 411.535156 297.339844 412.230469 298.976562 C 413.492188 301.921875 413.925781 303.800781 413.96875 304.003906 C 414.359375 305.75 413.261719 307.472656 411.515625 307.859375 C 411.28125 307.90625 411.039062 307.929688 410.820312 307.929688 " fill-opacity="1" fill-rule="nonzero"/><path fill="#5ce1e6" d="M 375.464844 344.957031 C 374.28125 344.957031 373.144531 344.3125 372.566406 343.183594 C 372.355469 342.75 370.457031 338.863281 370.429688 335.066406 C 370.417969 333.28125 371.851562 331.828125 373.636719 331.816406 C 373.648438 331.816406 373.648438 331.816406 373.65625 331.816406 C 375.433594 331.816406 376.878906 333.25 376.886719 335.027344 C 376.898438 336.976562 377.96875 339.527344 378.339844 340.277344 C 379.148438 341.871094 378.5 343.808594 376.90625 344.617188 C 376.441406 344.847656 375.949219 344.957031 375.464844 344.957031 " fill-opacity="1" fill-rule="nonzero"/><path fill="#5ce1e6" d="M 443.550781 343.9375 C 443.105469 343.9375 442.652344 343.847656 442.21875 343.65625 C 440.59375 342.917969 439.875 341.003906 440.601562 339.378906 C 440.613281 339.367188 441.683594 336.933594 441.855469 334.320312 C 441.964844 332.535156 443.4375 331.191406 445.285156 331.304688 C 447.0625 331.414062 448.414062 332.949219 448.292969 334.734375 C 448.0625 338.5 446.648438 341.6875 446.496094 342.042969 C 445.953125 343.234375 444.769531 343.9375 443.550781 343.9375 " fill-opacity="1" fill-rule="nonzero"/></svg>