<svg xmlns:rdf="http://www.w3.org/1999/02/22-rdf-syntax-ns#" xmlns="http://www.w3.org/2000/svg" height="452.62" width="699.88" version="1.1" xmlns:cc="http://creativecommons.org/ns#" xmlns:xlink="http://www.w3.org/1999/xlink" xmlns:dc="http://purl.org/dc/elements/1.1/">
 <g transform="translate(-27.468239,-255.01746)">
  <rect style="color:#000000;enable-background:accumulate;" height="150.87" width="699.88" y="556.76" x="27.468" fill="#078930"/>
  <rect style="color:#000000;enable-background:accumulate;" height="150.87" width="699.88" y="405.89" x="27.468" fill="#FFF"/>
  <rect style="color:#000000;enable-background:accumulate;" height="150.87" width="699.88" y="255.02" x="27.468" fill="#0f47af"/>
  <path style="color:#000000;enable-background:accumulate;" d="m27.469,255.03,0,452.59,226.24-226.3z" fill="#da121a"/>
  <g id="g3067" stroke-linejoin="round" stroke-dashoffset="0" stroke="#666" stroke-linecap="round" stroke-dasharray="none" stroke-miterlimit="4" stroke-width="0.5">
   <path style="color:#000000;enable-background:accumulate;" d="m407.55,527.17c-0.9037,0.0252-1.5988,0.33538-1.9603,0.93239-0.37056,0.61185-0.11082,1.3156,0.47813,2.0559,1.5155-0.11437,3.7249,0.59976,6.0722,2.0081,2.1713,1.3029,3.7244,2.7805,4.3271,4.1358,0.44834-0.0161,0.81821-0.16287,1.0997-0.52594,1.3994-1.805-0.5633-4.4164-4.1597-6.5743-2.2478-1.3486-4.3509-2.0742-5.8571-2.032zm56.061-61.822c-12.368,9.3018-22.33,19.285-26.536,23.739-6.7701,7.1683-19.964,23.53-28.879,38.131,1.4354,0.14183,3.2745,0.822,5.2116,1.9842,1.6365,0.98196,2.9302,2.0575,3.7294,3.1079,2.8552-7.8142,15-23.547,24.193-36.338,5.8523-8.1424,15.002-16.452,26.201-26.369-0.86287-2.0063-1.8462-3.3096-3.9206-4.2553z" fill="#ae6c1e"/>
   <path style="color:#000000;enable-background:accumulate;" d="m473.13,464.63c-0.76895-1.682-1.6576-2.8361-3.3469-3.7055m0.54992,6.1917c-0.82124-1.8615-1.7586-3.1027-3.6577-4.0163m-3.0624,2.2583c7.8859-5.931,16.756-11.591,25.748-15.377-7.8389,7.3113-15.201,13.753-21.836,19.628-0.86287-2.0063-1.8377-3.3055-3.9121-4.2513zm-56.632,69.724c-1.1057,1.029-1.8935,1.5175-2.9405,1.9364-0.11808,1.1808-0.76473,5.1763-1.267,7.1481,1.2758,0.18612,2.4055,0.82926,3.2274,1.7451,1.2916-1.5013,4.3549-4.4266,5.2833-5.2116-0.21891-0.97163-0.26285-1.8272-0.11954-3.0361-0.75206-0.44837-1.5011-0.93063-2.2233-1.3388-0.67373-0.38082-1.3369-0.80777-1.9603-1.2431zm0.40123,14.417a5.3911,5.3911,0,1,1,-10.782,0,5.3911,5.3911,0,1,1,10.782,0zm-3.0644-18.425c-0.92035,1.5198,1.8741,3.6894,4.6314,5.2479s6.0699,4.0843,7.3567,2.4245c1.3994-1.805-0.57245-4.4136-4.1689-6.5715-3.5964-2.1578-6.8552-2.6927-7.8192-1.1009z" fill="#d8e5ea"/>
  </g>
  <path stroke-linejoin="round" style="enable-background:accumulate;color:#000000;" d="m449.45,430.12-12.933,0.10003-22.602-0.36829,18.701,12.699,10.522,7.5207,10.405-7.6825,18.502-12.987zm-6.634-21.609-6.2993,21.709-3.9016,12.331-7.3349,21.381,17.857-13.86,18.069,13.582-7.6644-21.265z" stroke-dashoffset="0" stroke="#F00" stroke-linecap="butt" stroke-miterlimit="4" stroke-dasharray="none" stroke-width="2" fill="none"/>
  <use xlink:href="#g3067" transform="matrix(-1,0,0,1,885.95491,0)" height="452.61835" width="699.875" y="0" x="0"/>
 </g>
</svg>
