<?xml version="1.0" encoding="UTF-8"?>
<svg version="1.1" xmlns="http://www.w3.org/2000/svg" width="373" height="271">
<path d="M0 0 C123.09 0 246.18 0 373 0 C373 89.43 373 178.86 373 271 C249.91 271 126.82 271 0 271 C0 181.57 0 92.14 0 0 Z " fill="#06A806" transform="translate(0,0)"/>
<path d="M0 0 C123.09 0 246.18 0 373 0 C373 31.68 373 63.36 373 96 C249.91 96 126.82 96 0 96 C0 64.32 0 32.64 0 0 Z " fill="#FDFD0A" transform="translate(0,0)"/>
<path d="M0 0 C123.09 0 246.18 0 373 0 C373 26.4 373 52.8 373 80 C188.365 80.495 188.365 80.495 0 81 C0 54.27 0 27.54 0 0 Z " fill="#090A0C" transform="translate(0,96)"/>
<path d="M0 0 C46.86 0 93.72 0 142 0 C142 0.33 142 0.66 142 1 C138.37 1.33 134.74 1.66 131 2 C131 3.32 131 4.64 131 6 C131.5775 6.226875 132.155 6.45375 132.75 6.6875 C135.60828941 8.35483549 137.02965122 10.35234383 139 13 C143.13705535 18.65333816 143.13705535 18.65333816 149 22 C149 23.98 149 25.96 149 28 C150.19625 27.95875 151.3925 27.9175 152.625 27.875 C156.42329953 27.86148292 159.44975618 28.57990247 163 30 C162.65524143 35.80145456 161.93888432 40.79667763 159.69921875 46.171875 C158.72249828 48.72553522 158.33789226 51.29686195 158 54 C157.34 54 156.68 54 156 54 C155.67 57.63 155.34 61.26 155 65 C154.34 65 153.68 65 153 65 C152.7834375 66.3921875 152.7834375 66.3921875 152.5625 67.8125 C152 71 152 71 151 74 C155.29 74 159.58 74 164 74 C164.33 71.69 164.66 69.38 165 67 C165.66 67 166.32 67 167 67 C167.03738281 66.38511719 167.07476562 65.77023438 167.11328125 65.13671875 C167.21189453 63.92435547 167.21189453 63.92435547 167.3125 62.6875 C167.37050781 61.88699219 167.42851562 61.08648437 167.48828125 60.26171875 C168.09531655 57.57871542 169.05434783 56.86623779 171 55 C171.77813652 52.96658113 171.77813652 52.96658113 172.1875 50.8125 C172.455625 49.554375 172.72375 48.29625 173 47 C176.36202939 48.42609159 178.23675579 50.14348515 180.5625 52.9375 C184.53626574 57.99079055 184.53626574 57.99079055 190 61 C191.35827971 62.64639965 192.69254251 64.31295807 194 66 C194.66 66.33 195.32 66.66 196 67 C196 67.66 196 68.32 196 69 C196.7425 69.28875 197.485 69.5775 198.25 69.875 C199.61125 70.431875 199.61125 70.431875 201 71 C201.7425 71.268125 202.485 71.53625 203.25 71.8125 C205 73 205 73 206 78 C138.02 78 70.04 78 0 78 C0 52.26 0 26.52 0 0 Z " fill="#060709" transform="translate(2,97)"/>
<path d="M0 0 C1.12966798 0.00037972 2.25933596 0.00075944 3.42323631 0.00115067 C4.72105051 -0.00084038 6.01886472 -0.00283143 7.35600662 -0.00488281 C8.81511783 -0.00202921 10.27422887 0.0009164 11.73333973 0.00394398 C13.2686287 0.00350841 14.8039176 0.00263377 16.3392061 0.00135481 C20.57834161 -0.000893 24.8174521 0.00313503 29.05658442 0.00813287 C33.620345 0.0124331 38.18410406 0.01099126 42.74786609 0.0102306 C50.66162748 0.00970509 58.57538065 0.01285468 66.48913997 0.01846844 C77.93124588 0.02657982 89.37334779 0.02919829 100.81545626 0.03045643 C119.37747741 0.03264752 137.93949418 0.03930915 156.50151294 0.04875904 C174.53764553 0.05793169 192.57377693 0.06501324 210.60991138 0.06926686 C211.72081101 0.06952958 212.83171065 0.0697923 213.9762739 0.07006299 C219.54907777 0.07136798 225.12188164 0.0726317 230.69468552 0.07387489 C276.95996895 0.08424928 323.22524749 0.10194324 369.49052662 0.1241985 C369.49052662 5.7341985 369.49052662 11.3441985 369.49052662 17.1241985 C322.1169481 17.14698689 274.74337031 17.16469565 227.3697874 17.17526383 C221.78316205 17.17651461 216.19653671 17.17780892 210.60991138 17.17913014 C209.497665 17.17939245 208.38541861 17.17965476 207.23946779 17.17992502 C189.20499939 17.18428218 171.17053416 17.19216997 153.13606764 17.20135129 C134.6456701 17.21068656 116.15527423 17.21625384 97.66487443 17.21828699 C86.24555874 17.21966248 74.82625202 17.22401448 63.40693908 17.23211496 C55.58758027 17.23738086 47.76822612 17.23900315 39.94886566 17.23769987 C35.43036607 17.23705625 30.91188219 17.23807676 26.39338535 17.24340397 C22.26379753 17.24823741 18.13423612 17.24853752 14.00464713 17.24509739 C12.50396578 17.24467164 11.00328285 17.24596785 9.50260467 17.24908168 C7.47615233 17.25304483 5.44969014 17.25035522 3.42323631 17.24724633 C1.72873434 17.24781591 1.72873434 17.24781591 0 17.24839699 C-2.50947338 17.1241985 -2.50947338 17.1241985 -3.50947338 16.1241985 C-3.60922371 13.61283745 -3.64829521 11.13516435 -3.63447338 8.6241985 C-3.63834057 7.92165943 -3.64220776 7.21912037 -3.64619213 6.49529225 C-3.63402366 0.17985458 -3.63402366 0.17985458 0 0 Z " fill="#EFF3EF" transform="translate(3.5094733834266663,175.8758015036583)"/>
<path d="M0 0 C122.76 0 245.52 0 372 0 C372 5.28 372 10.56 372 16 C249.24 16 126.48 16 0 16 C0 10.72 0 5.44 0 0 Z " fill="#FEFEF8" transform="translate(1,80)"/>
<path d="M0 0 C9.27734375 -0.09765625 9.27734375 -0.09765625 12 0 C12.33 0.33 12.66 0.66 13 1 C14.46275405 1.09822116 15.93019289 1.12798364 17.39624023 1.12939453 C18.33068466 1.13254669 19.26512909 1.13569885 20.22789001 1.13894653 C21.24452225 1.1369223 22.26115448 1.13489807 23.30859375 1.1328125 C24.34564957 1.13376923 25.38270538 1.13472595 26.45118713 1.13571167 C28.64950623 1.13639369 30.84782732 1.13453791 33.04614258 1.13037109 C36.41947949 1.12502854 39.79268292 1.1303126 43.16601562 1.13671875 C45.2968753 1.13605787 47.42773488 1.13477649 49.55859375 1.1328125 C51.08050575 1.13584885 51.08050575 1.13584885 52.63316345 1.13894653 C54.03955833 1.13421829 54.03955833 1.13421829 55.47436523 1.12939453 C56.30185776 1.12859894 57.12935028 1.12780334 57.98191833 1.12698364 C60.07050959 1.1273127 60.07050959 1.1273127 62 0 C65.3 0 68.6 0 72 0 C72 7.26 72 14.52 72 22 C67 24 67 24 63 24 C63 24.66 63 25.32 63 26 C61.68 26 60.36 26 59 26 C59.33 27.0725 59.66 28.145 60 29.25 C61 33 61 33 61 37 C61.66 37 62.32 37 63 37 C63.495 41.95 63.495 41.95 64 47 C64.66 47 65.32 47 66 47 C66.12117188 47.58007812 66.24234375 48.16015625 66.3671875 48.7578125 C67.12452417 52.2881665 67.89883178 55.70244642 69.0625 59.125 C70.13038567 62.3998494 70.59031236 65.58593634 71 69 C67.37 69 63.74 69 60 69 C59.74605469 68.10539062 59.49210937 67.21078125 59.23046875 66.2890625 C58.88628906 65.07992187 58.54210937 63.87078125 58.1875 62.625 C58.00735352 61.98884766 57.82720703 61.35269531 57.64160156 60.69726562 C56.57345836 56.94269502 55.43815758 53.21796678 54.25 49.5 C53.15187987 45.90291459 52.70070115 42.79111882 53 39 C51.68 39 50.36 39 49 39 C48.34 35.37 47.68 31.74 47 28 C36.11 27.505 36.11 27.505 25 27 C24.67 28.98 24.34 30.96 24 33 C23.34 33 22.68 33 22 33 C22.01160156 33.62648437 22.02320313 34.25296875 22.03515625 34.8984375 C22.04417969 35.71570313 22.05320313 36.53296875 22.0625 37.375 C22.07410156 38.18710938 22.08570313 38.99921875 22.09765625 39.8359375 C22 42 22 42 21 44 C20.34 44 19.68 44 19 44 C19 45.32 19 46.64 19 48 C18.34 48 17.68 48 17 48 C17.061875 49.134375 17.12375 50.26875 17.1875 51.4375 C17.19893556 57.87571776 14.8412679 63.3174642 12 69 C8.37 69 4.74 69 1 69 C1.66 66.03 2.32 63.06 3 60 C3.66 60 4.32 60 5 60 C5.33 56.37 5.66 52.74 6 49 C6.66 49 7.32 49 8 49 C8.04898438 48.32453125 8.09796875 47.6490625 8.1484375 46.953125 C8.22320312 46.06109375 8.29796875 45.1690625 8.375 44.25 C8.44460937 43.36828125 8.51421875 42.4865625 8.5859375 41.578125 C9.00539293 38.9664214 9.79911957 37.32898022 11 35 C11.42663286 33.26186612 11.80076859 31.51011335 12.125 29.75 C12.558125 27.39875 12.558125 27.39875 13 25 C8.71 24.34 4.42 23.68 0 23 C0 15.41 0 7.82 0 0 Z " fill="#F7F70B" transform="translate(152,102)"/>
<path d="M0 0 C123.09 0 246.18 0 373 0 C373 0.33 373 0.66 373 1 C250.57 1 128.14 1 2 1 C2 26.74 2 52.48 2 79 C69.98 79 137.96 79 208 79 C207.67 77.35 207.34 75.7 207 74 C204.6859613 72.72412505 204.6859613 72.72412505 202 72 C200.65949948 71.34786461 199.32338632 70.68620031 198 70 C198 69.34 198 68.68 198 68 C197.01 67.67 196.02 67.34 195 67 C195 66.34 195 65.68 195 65 C194.01 64.67 193.02 64.34 192 64 C192 63.34 192 62.68 192 62 C191.443125 61.938125 190.88625 61.87625 190.3125 61.8125 C187.00931958 60.6519231 185.28105267 58.59786554 183 56 C183 55.34 183 54.68 183 54 C181.68 53.34 180.36 52.68 179 52 C179 51.34 179 50.68 179 50 C178.01 49.67 177.02 49.34 176 49 C175.81824219 49.63808594 175.63648438 50.27617187 175.44921875 50.93359375 C175.19785156 51.75988281 174.94648438 52.58617187 174.6875 53.4375 C174.44386719 54.26121094 174.20023438 55.08492187 173.94921875 55.93359375 C173.63597656 56.61550781 173.32273438 57.29742187 173 58 C172.01 58.33 171.02 58.66 170 59 C169.67 61.97 169.34 64.94 169 68 C168.34 68 167.68 68 167 68 C166.67 70.31 166.34 72.62 166 75 C165.34 74.67 164.68 74.34 164 74 C164.19335938 73.47792969 164.38671875 72.95585937 164.5859375 72.41796875 C166.7287785 66.36073009 167.99288223 60.33891775 169 54 C169.66 54 170.32 54 171 54 C171 52.68 171 51.36 171 50 C171.66 50 172.32 50 173 50 C173.33 46.37 173.66 42.74 174 39 C174.66 39 175.32 39 176 39 C176.33 37.02 176.66 35.04 177 33 C184.26 33 191.52 33 199 33 C200.87404046 37.68510114 201.19157797 40.11476189 201 45 C202.32 45 203.64 45 205 45 C205.12117187 45.73605469 205.24234375 46.47210938 205.3671875 47.23046875 C205.53476563 48.20628906 205.70234375 49.18210938 205.875 50.1875 C206.03742188 51.15042969 206.19984375 52.11335938 206.3671875 53.10546875 C206.9839638 55.92664923 207.86947242 58.34925541 209 61 C209.55772979 62.49410182 210.10004549 63.99406988 210.625 65.5 C210.88539063 66.2321875 211.14578125 66.964375 211.4140625 67.71875 C212 70 212 70 212 75 C215.3 74.67 218.6 74.34 222 74 C221.67 71.69 221.34 69.38 221 67 C221.66 67 222.32 67 223 67 C223.33 69.97 223.66 72.94 224 76 C221.36 76.33 218.72 76.66 216 77 C216 77.66 216 78.32 216 79 C225.24 79 234.48 79 244 79 C244 79.33 244 79.66 244 80 C163.48 80.33 82.96 80.66 0 81 C0 54.27 0 27.54 0 0 Z " fill="#0E0F0D" transform="translate(0,96)"/>
<path d="M0 0 C123.09 0 246.18 0 373 0 C373 0.99 373 1.98 373 3 C249.91 3 126.82 3 0 3 C0 2.01 0 1.02 0 0 Z " fill="#0C0C08" transform="translate(0,0)"/>
<path d="M0 0 C123.09 0 246.18 0 373 0 C373 0.33 373 0.66 373 1 C250.57 1 128.14 1 2 1 C2 26.74 2 52.48 2 79 C71.96 79 141.92 79 214 79 C213.01 78.01 212.02 77.02 211 76 C208.7205219 71.4410438 207.47693383 67.10320218 206.46875 62.12109375 C206.0064069 59.82333825 206.0064069 59.82333825 204.9375 57 C203.7003935 53.04125919 203.3479051 49.1199288 203 45 C203.66 45 204.32 45 205 45 C205.12117187 45.73605469 205.24234375 46.47210938 205.3671875 47.23046875 C205.53476563 48.20628906 205.70234375 49.18210938 205.875 50.1875 C206.03742188 51.15042969 206.19984375 52.11335938 206.3671875 53.10546875 C206.9839638 55.92664923 207.86947242 58.34925541 209 61 C209.55772979 62.49410182 210.10004549 63.99406988 210.625 65.5 C210.88539063 66.2321875 211.14578125 66.964375 211.4140625 67.71875 C212 70 212 70 212 75 C215.3 74.67 218.6 74.34 222 74 C221.67 71.69 221.34 69.38 221 67 C221.66 67 222.32 67 223 67 C223.33 69.97 223.66 72.94 224 76 C221.36 76.33 218.72 76.66 216 77 C216 77.66 216 78.32 216 79 C225.24 79 234.48 79 244 79 C244 79.33 244 79.66 244 80 C163.48 80.33 82.96 80.66 0 81 C0 54.27 0 27.54 0 0 Z " fill="#5B5C5D" transform="translate(0,96)"/>
<path d="M0 0 C119.295 0.495 119.295 0.495 241 1 C241 1.33 241 1.66 241 2 C226.29182125 2.18102732 211.58348455 2.34583499 196.875 2.5 C195.7425951 2.51187725 194.6101902 2.5237545 193.44347 2.53599167 C149.77417221 2.98888853 106.10870773 3.08773818 62.4375 3.0625 C61.6815665 3.06207577 60.92563299 3.06165154 60.14679241 3.06121445 C40.76451177 3.05015214 21.38227111 3.02659558 2 3 C2 27.42 2 51.84 2 77 C1.34 77 0.68 77 0 77 C0 51.59 0 26.18 0 0 Z " fill="#21AB21" transform="translate(0,192)"/>
<path d="M0 0 C9.27734375 -0.09765625 9.27734375 -0.09765625 12 0 C12.33 0.33 12.66 0.66 13 1 C14.46275405 1.09822116 15.93019289 1.12798364 17.39624023 1.12939453 C18.33068466 1.13254669 19.26512909 1.13569885 20.22789001 1.13894653 C21.24452225 1.1369223 22.26115448 1.13489807 23.30859375 1.1328125 C24.34564957 1.13376923 25.38270538 1.13472595 26.45118713 1.13571167 C28.64950623 1.13639369 30.84782732 1.13453791 33.04614258 1.13037109 C36.41947949 1.12502854 39.79268292 1.1303126 43.16601562 1.13671875 C45.2968753 1.13605787 47.42773488 1.13477649 49.55859375 1.1328125 C51.08050575 1.13584885 51.08050575 1.13584885 52.63316345 1.13894653 C54.03955833 1.13421829 54.03955833 1.13421829 55.47436523 1.12939453 C56.30185776 1.12859894 57.12935028 1.12780334 57.98191833 1.12698364 C60.07050959 1.1273127 60.07050959 1.1273127 62 0 C65.3 0 68.6 0 72 0 C72 7.26 72 14.52 72 22 C71.67 22 71.34 22 71 22 C71 15.07 71 8.14 71 1 C69.68 1.66 68.36 2.32 67 3 C55.81916268 4.56975994 44.27187726 4.10114352 33 4.125 C32.27890045 4.12767883 31.5578009 4.13035767 30.81484985 4.13311768 C20.41576488 4.16234974 11.07792416 3.8794069 1 1 C1.33 8.26 1.66 15.52 2 23 C1.34 23 0.68 23 0 23 C0 15.41 0 7.82 0 0 Z " fill="#BBBB2F" transform="translate(152,102)"/>
<path d="M0 0 C0.66 0 1.32 0 2 0 C2.12117188 0.73605469 2.24234375 1.47210938 2.3671875 2.23046875 C2.61855469 3.69419922 2.61855469 3.69419922 2.875 5.1875 C3.11863281 6.63189453 3.11863281 6.63189453 3.3671875 8.10546875 C3.9839638 10.92664923 4.86947242 13.34925541 6 16 C6.55772979 17.49410182 7.10004549 18.99406988 7.625 20.5 C7.88539063 21.2321875 8.14578125 21.964375 8.4140625 22.71875 C9 25 9 25 9 30 C12.3 29.67 15.6 29.34 19 29 C18.505 25.535 18.505 25.535 18 22 C18.66 22 19.32 22 20 22 C20.495 26.455 20.495 26.455 21 31 C17.04 31.495 17.04 31.495 13 32 C13 32.66 13 33.32 13 34 C22.24 34 31.48 34 41 34 C41 34.33 41 34.66 41 35 C13.61 35 -13.78 35 -42 35 C-42 34.67 -42 34.34 -42 34 C-24.51 34 -7.02 34 11 34 C10.01 33.01 9.02 32.02 8 31 C5.7205219 26.4410438 4.47693383 22.10320218 3.46875 17.12109375 C3.0064069 14.82333825 3.0064069 14.82333825 1.9375 12 C0.7003935 8.04125919 0.3479051 4.1199288 0 0 Z " fill="#292A2C" transform="translate(203,141)"/>
<path d="M0 0 C1.43791516 0.14168137 2.8753237 0.28851043 4.3125 0.4375 C5.11300781 0.51871094 5.91351563 0.59992188 6.73828125 0.68359375 C9 1 9 1 12 2 C11.65524143 7.80145456 10.93888432 12.79667763 8.69921875 18.171875 C7.72249828 20.72553522 7.33789226 23.29686195 7 26 C6.34 26 5.68 26 5 26 C4.67 29.63 4.34 33.26 4 37 C3.34 37 2.68 37 2 37 C1.67 38.98 1.34 40.96 1 43 C-0.10844919 39.67465243 0.15545644 37.37817425 1 34 C1.66 34 2.32 34 3 34 C3.33 30.7 3.66 27.4 4 24 C4.66 24 5.32 24 6 24 C6 22.02 6 20.04 6 18 C5.34 18 4.68 18 4 18 C4 16.02 4 14.04 4 12 C4.66 12 5.32 12 6 12 C6 9.69 6 7.38 6 5 C3.03 4.505 3.03 4.505 0 4 C0 2.68 0 1.36 0 0 Z " fill="#252627" transform="translate(153,125)"/>
<path d="M0 0 C-4.75890529 2.37945265 -7.54838765 3.10095578 -13 3 C-12.73323796 4.98491642 -12.73323796 4.98491642 -12 7 C-11.01 7.33 -10.02 7.66 -9 8 C-9 8.66 -9 9.32 -9 10 C-8.01 10.33 -7.02 10.66 -6 11 C-5.67 11.99 -5.34 12.98 -5 14 C-3.36955876 15.65637688 -3.36955876 15.65637688 -1.4375 17.1875 C-0.303125 18.115625 0.83125 19.04375 2 20 C2 14.72 2 9.44 2 4 C2.99 4.33 3.98 4.66 5 5 C4.34 5 3.68 5 3 5 C3 12.59 3 20.18 3 28 C2.67 28 2.34 28 2 28 C2 26.02 2 24.04 2 22 C0.68 21.67 -0.64 21.34 -2 21 C-2 20.34 -2 19.68 -2 19 C-2.99 18.67 -3.98 18.34 -5 18 C-5 17.34 -5 16.68 -5 16 C-5.99 15.67 -6.98 15.34 -8 15 C-9.3540932 13.01399663 -10.68457624 11.01182457 -12 9 C-13.6292274 7.29671681 -15.28641357 5.61838719 -17 4 C-16.67 3.01 -16.34 2.02 -16 1 C-14.27111445 0.83044205 -12.54187557 0.66448486 -10.8125 0.5 C-9.84957031 0.4071875 -8.88664063 0.314375 -7.89453125 0.21875 C-5.24812333 0.01875156 -2.65239135 -0.03879183 0 0 Z " fill="#282924" transform="translate(149,97)"/>
<path d="M0 0 C0.66 0 1.32 0 2 0 C1.938125 0.928125 1.87625 1.85625 1.8125 2.8125 C1.67622737 5.97943248 1.67622737 5.97943248 3.5 7.75 C3.995 8.1625 4.49 8.575 5 9 C5 9.66 5 10.32 5 11 C4.01 10.67 3.02 10.34 2 10 C1.81824219 10.63808594 1.63648438 11.27617187 1.44921875 11.93359375 C1.19785156 12.75988281 0.94648438 13.58617187 0.6875 14.4375 C0.44386719 15.26121094 0.20023438 16.08492187 -0.05078125 16.93359375 C-0.36402344 17.61550781 -0.67726562 18.29742187 -1 19 C-1.99 19.33 -2.98 19.66 -4 20 C-4.33 22.97 -4.66 25.94 -5 29 C-5.66 29 -6.32 29 -7 29 C-7.33 31.31 -7.66 33.62 -8 36 C-8.66 35.67 -9.32 35.34 -10 35 C-9.70996094 34.21689453 -9.70996094 34.21689453 -9.4140625 33.41796875 C-7.2712215 27.36073009 -6.00711777 21.33891775 -5 15 C-4.34 15 -3.68 15 -3 15 C-3 13.68 -3 12.36 -3 11 C-2.34 11 -1.68 11 -1 11 C-0.67 7.37 -0.34 3.74 0 0 Z " fill="#393A24" transform="translate(174,135)"/>
<path d="M0 0 C0.99 0.33 1.98 0.66 3 1 C3 1.66 3 2.32 3 3 C3.66 3.185625 4.32 3.37125 5 3.5625 C8.59864857 5.28685244 11.06842304 7.58478069 14.00390625 10.25390625 C16.5256028 12.45977388 19.18520925 14.19049166 22 16 C22.66 16.66 23.32 17.32 24 18 C24.66 17.34 25.32 16.68 26 16 C26 17.32 26 18.64 26 20 C26.99 20.33 27.98 20.66 29 21 C29 21.66 29 22.32 29 23 C27.02 23 25.04 23 23 23 C22.938125 22.21625 22.87625 21.4325 22.8125 20.625 C22.544375 19.75875 22.27625 18.8925 22 18 C19.6859613 16.72412505 19.6859613 16.72412505 17 16 C15.65949948 15.34786461 14.32338632 14.68620031 13 14 C13 13.34 13 12.68 13 12 C12.01 11.67 11.02 11.34 10 11 C10 10.34 10 9.68 10 9 C9.01 8.67 8.02 8.34 7 8 C7 7.34 7 6.68 7 6 C6.401875 5.896875 5.80375 5.79375 5.1875 5.6875 C2.68741714 4.90175967 1.62464918 4.03081147 0 2 C0 1.34 0 0.68 0 0 Z " fill="#202123" transform="translate(185,152)"/>
<path d="M0 0 C0 7.26 0 14.52 0 22 C-0.33 22 -0.66 22 -1 22 C-1 15.07 -1 8.14 -1 1 C-2.98 1.99 -2.98 1.99 -5 3 C-7.07550049 3.24050903 -7.07550049 3.24050903 -9.30957031 3.22705078 C-10.5704245 3.22682419 -10.5704245 3.22682419 -11.85675049 3.22659302 C-12.75480408 3.21627045 -13.65285767 3.20594788 -14.578125 3.1953125 C-15.5046991 3.1924826 -16.43127319 3.18965271 -17.38592529 3.18673706 C-20.34074909 3.17555611 -23.29526805 3.15045527 -26.25 3.125 C-28.25520395 3.11496751 -30.26041266 3.10584213 -32.265625 3.09765625 C-37.17720051 3.07562358 -42.08854859 3.04110795 -47 3 C-47 2.67 -47 2.34 -47 2 C-45.95021973 1.97494385 -44.90043945 1.9498877 -43.81884766 1.92407227 C-39.93118676 1.83003733 -36.04370619 1.7298072 -32.15625 1.62768555 C-30.47237358 1.58432183 -28.78845277 1.5426478 -27.10449219 1.50268555 C-24.68671276 1.44501766 -22.26915705 1.3813135 -19.8515625 1.31640625 C-19.0963028 1.29969376 -18.34104309 1.28298126 -17.56289673 1.26576233 C-11.23057243 1.08548247 -6.81474576 0 0 0 Z " fill="#9C9D2C" transform="translate(224,102)"/>
<path d="M0 0 C0.66 0 1.32 0 2 0 C2.12117187 0.73605469 2.24234375 1.47210938 2.3671875 2.23046875 C2.53476563 3.20628906 2.70234375 4.18210938 2.875 5.1875 C3.03742188 6.15042969 3.19984375 7.11335937 3.3671875 8.10546875 C3.9839638 10.92664923 4.86947242 13.34925541 6 16 C6.55772979 17.49410182 7.10004549 18.99406988 7.625 20.5 C7.88539063 21.2321875 8.14578125 21.964375 8.4140625 22.71875 C9 25 9 25 9 30 C12.3 29.67 15.6 29.34 19 29 C18.67 26.69 18.34 24.38 18 22 C18.66 22 19.32 22 20 22 C20.33 24.97 20.66 27.94 21 31 C16.71 31 12.42 31 8 31 C5.84562294 26.3974672 4.4757725 22.09746329 3.46875 17.12109375 C3.0064069 14.82333825 3.0064069 14.82333825 1.9375 12 C0.7003935 8.04125919 0.3479051 4.1199288 0 0 Z " fill="#7D7D33" transform="translate(203,141)"/>
<path d="M0 0 C1.3609623 2.7219246 0.70366248 4.1831957 0.0625 7.125 C-0.13214844 8.03507813 -0.32679688 8.94515625 -0.52734375 9.8828125 C-0.68332031 10.58148438 -0.83929688 11.28015625 -1 12 C-1.66 12 -2.32 12 -3 12 C-3.33 15.63 -3.66 19.26 -4 23 C-4.66 23 -5.32 23 -6 23 C-6.33 24.98 -6.66 26.96 -7 29 C-8.10844919 25.67465243 -7.84454356 23.37817425 -7 20 C-6.34 20 -5.68 20 -5 20 C-4.67 16.7 -4.34 13.4 -4 10 C-3.34 10 -2.68 10 -2 10 C-1.93941406 9.36191406 -1.87882813 8.72382813 -1.81640625 8.06640625 C-1.73261719 7.24011719 -1.64882812 6.41382813 -1.5625 5.5625 C-1.48128906 4.73878906 -1.40007812 3.91507813 -1.31640625 3.06640625 C-1 1 -1 1 0 0 Z " fill="#7F8023" transform="translate(161,139)"/>
<path d="M0 0 C2.97 0.33 5.94 0.66 9 1 C9.9765625 7.8359375 9.9765625 7.8359375 10 10 C9.34 10.66 8.68 11.32 8 12 C8 9.36 8 6.72 8 4 C6.35 3.67 4.7 3.34 3 3 C2.67 3.66 2.34 4.32 2 5 C1.34 4.67 0.68 4.34 0 4 C0 2.68 0 1.36 0 0 Z " fill="#242518" transform="translate(153,125)"/>
<path d="M0 0 C0.66 0 1.32 0 2 0 C1.34 4.62 0.68 9.24 0 14 C-0.66 14 -1.32 14 -2 14 C-2.33 16.31 -2.66 18.62 -3 21 C-3.66 20.67 -4.32 20.34 -5 20 C-4.80664062 19.47792969 -4.61328125 18.95585937 -4.4140625 18.41796875 C-2.2712215 12.36073009 -1.00711777 6.33891775 0 0 Z " fill="#7A7B23" transform="translate(169,150)"/>
<path d="M0 0 C0.33 0.99 0.66 1.98 1 3 C4.3 3 7.6 3 11 3 C10.67 3.66 10.34 4.32 10 5 C6.37 5 2.74 5 -1 5 C-0.67 3.35 -0.34 1.7 0 0 Z " fill="#D4D428" transform="translate(154,166)"/>
<path d="M0 0 C0.103125 0.639375 0.20625 1.27875 0.3125 1.9375 C0.539375 2.618125 0.76625 3.29875 1 4 C1.99 4.33 2.98 4.66 4 5 C4 5.66 4 6.32 4 7 C2.02 7 0.04 7 -2 7 C-2.33 5.68 -2.66 4.36 -3 3 C-2.01 3 -1.02 3 0 3 C0 2.01 0 1.02 0 0 Z " fill="#1A1B1C" transform="translate(210,168)"/>
<path d="M0 0 C0.99 0 1.98 0 3 0 C2.88601335 1.62580966 2.75844341 3.25067157 2.625 4.875 C2.52058594 6.23238281 2.52058594 6.23238281 2.4140625 7.6171875 C2 10 2 10 0 12 C0 8.04 0 4.08 0 0 Z " fill="#71722B" transform="translate(162,127)"/>
</svg>
