<svg xmlns="http://www.w3.org/2000/svg" viewBox="0 0 64 64"><path fill="#fff" d="M4.3 16.9h55.4v2.7H4.3z"/><path fill="#f21c1c" d="M59.7 14.1v2.8H4.3v-2.8h12z"/><path fill="#fff" d="M4.3 22.4h55.4v2.7H4.3z"/><path fill="#f21c1c" d="M4.3 19.6h55.4v2.7H4.3z"/><path fill="#fff" d="M4.3 27.9h55.4v2.7H4.3z"/><path fill="#f21c1c" d="M4.3 25.1h55.4v2.7H4.3z"/><path fill="#fff" d="M4.3 33.4h55.4v2.7H4.3z"/><path fill="#f21c1c" d="M4.3 30.6h55.4v2.7H4.3z"/><path fill="#fff" d="M4.3 38.9h55.4v2.7H4.3z"/><path fill="#f21c1c" d="M4.3 36.1h55.4v2.7H4.3z"/><path fill="#fff" d="M4.3 44.4h55.4v2.7H4.3z"/><path fill="#f21c1c" d="M4.3 41.6h55.4v2.7H4.3zM4.3 47.1h55.4v2.7H4.3z"/><path fill="#29235c" d="M4.3 14.1h31.1v19.2H4.3z"/><path fill="#fff" d="M8.2 29.9zm1.9 0zm0 0h-.7l-.2-.8-.2.8h-.7c.1 0 .6.5.6.5l-.2.8.6-.5.6.5-.2-.8c-.2-.1.4-.5.4-.5zm-1.9-3.6zm1.9 0zm0 0h-.7l-.2-.8-.2.8h-.7c.1 0 .6.5.6.5l-.2.8.6-.5.6.5-.2-.8c-.2 0 .4-.4.4-.5zm-1.9-3.5zm1.9 0zm0 0h-.7l-.3-.8-.2.8h-.7c.1 0 .6.5.6.5l-.3.7.6-.5.7.5-.2-.8c-.1.1.5-.4.5-.4zm-1.9-3.5zm1.9 0zm0 0h-.7l-.2-.8-.2.8h-.7c.1 0 .6.5.6.5l-.2.8.4-.6.6.5-.2-.8.6-.4zm-1.9-3.5zm1.9 0zm0 0h-.7l-.3-.8-.2.8h-.7c.1 0 .6.5.6.5l-.3.7.6-.5.7.5-.2-.8c-.1 0 .5-.4.5-.4zM5.5 31.5zm1.9 0zm0 0h-.7l-.2-.8-.2.8h-.7c.1 0 .6.5.6.5l-.2.8.6-.5.6.5L7 32c-.1-.1.4-.5.4-.5zM5.5 28zm1.9 0zm0 0h-.7l-.2-.8-.3.8h-.7c.1 0 .6.5.6.5l-.2.8.6-.5.6.5-.2-.8c0-.1.5-.5.5-.5zm-1.9-3.6zm1.9 0zm0 0h-.7l-.2-.8-.2.8h-.7c.1 0 .6.5.6.5l-.2.8.6-.5.6.5-.2-.8c-.1 0 .4-.5.4-.5zm-1.9-3.5zm1.9 0zm0 0h-.7l-.2-.8-.2.8h-.7c.1 0 .6.5.6.5l-.2.8.6-.5.6.5-.2-.8c-.1 0 .4-.5.4-.5zm-1.9-3.5zm1.9 0zm0 0h-.7l-.2-.8-.2.8h-.7c.1 0 .6.5.6.5l-.2.8.6-.5.6.5-.2-.8c-.1-.1.4-.5.4-.5zm3.4 14.1zm2 0zm0 0h-.7l-.2-.8-.2.8H11c.1 0 .6.5.6.5l-.2.8.6-.5.6.5-.2-.8c-.2-.1.3-.5.4-.5zm-2-3.5zm2 0zm0 0h-.7l-.2-.8-.3.8h-.7c.1 0 .6.5.6.5l-.2.8.6-.5.6.5-.2-.8c-.1-.1.4-.5.5-.5zm-2-3.6zm2 0zm0 0h-.7l-.2-.8-.2.8H11c.1 0 .6.5.6.5l-.2.8.6-.5.6.5-.2-.8c-.2 0 .3-.5.4-.5zm-2-3.5zm2 0zm0 0h-.7l-.2-.8-.2.8H11c.1 0 .6.5.6.5l-.2.8.6-.5.6.5-.2-.8c-.2 0 .3-.5.4-.5zm-2-3.5zm2 0zm0 0h-.7l-.2-.8-.2.8H11c.1 0 .6.5.6.5l-.2.8.6-.5.6.5-.2-.8c-.2-.1.3-.5.4-.5zm.7 12.5zm1.9 0zm0 0h-.7l-.2-.8-.2.8h-.7c.1 0 .6.5.6.5l-.2.8.6-.5.6.5-.2-.8c-.1-.1.4-.5.4-.5zm-1.9-3.6zm1.9 0zm0 0h-.7l-.2-.8-.2.8h-.7c.1 0 .6.5.6.5l-.2.8.6-.5.6.5-.2-.8c-.1 0 .4-.4.4-.5zm-1.9-3.5zm1.9 0zm0 0h-.7l-.2-.8-.2.8h-.7c.1 0 .6.5.6.5l-.4.7.6-.5.6.5-.2-.8c.1.1.6-.4.6-.4zm-1.9-3.5zm1.9 0zm0 0h-.7l-.2-.8-.2.8h-.7c.1 0 .6.5.6.5l-.2.8.6-.5.6.5-.2-.8c-.1-.1.4-.5.4-.5zM13.5 15.8zm1.9 0zm0 0h-.7l-.2-.8-.2.8h-.7c.1 0 .6.5.6.5l-.4.7.6-.5.6.5-.2-.8c.1 0 .6-.4.6-.4zM16.2 31.5zm1.9 0zm0 0h-.7l-.2-.8-.2.8h-.7c.1 0 .6.5.6.5l-.2.8.6-.5.6.5-.2-.8c-.2-.1.4-.5.4-.5zM16.2 28zm1.9 0zm0 0h-.7l-.2-.8-.3.8h-.7c.1 0 .6.5.6.5l-.2.8.6-.5.6.5-.2-.8c-.1-.1.5-.5.5-.5zM16.2 24.4zm1.9 0zm0 0h-.7l-.2-.8-.2.8h-.7c.1 0 .6.5.6.5l-.2.8.6-.5.6.5-.2-.8c-.2 0 .4-.5.4-.5zM16.2 20.9zm1.9 0zm0 0h-.7l-.2-.8-.2.8h-.7c.1 0 .6.5.6.5l-.2.8.6-.5.6.5-.2-.8c-.2 0 .4-.5.4-.5zM16.2 17.4zm1.9 0zm0 0h-.7l-.2-.8-.2.8h-.7c.1 0 .6.5.6.5l-.2.8.6-.5.6.5-.2-.8c-.2-.1.4-.5.4-.5zM18.8 29.9zm2 0zm0 0h-.7l-.2-.8-.2.8H19c.1 0 .6.5.6.5l-.2.8.6-.5.6.5-.2-.8c-.2-.1.3-.5.4-.5zM18.8 26.3zm2 0zm0 0h-.7l-.2-.8-.2.8H19c.1 0 .6.5.6.5l-.2.8.6-.5.6.5-.2-.8c-.2 0 .3-.4.4-.5zM18.8 22.8zm2 0zm0 0h-.7l-.3-.8-.2.8h-.7c.1 0 .6.5.6.5l-.3.7.6-.5.6.5-.2-.8c0 .1.5-.4.6-.4zM18.8 19.3zm2 0zm0 0h-.7l-.2-.8-.2.8H19c.1 0 .6.5.6.5l-.2.8.6-.5.6.5-.2-.8c-.2-.1.3-.5.4-.5zM18.8 15.8zm2 0zm0 0h-.7l-.3-.8-.2.8h-.7c.1 0 .6.5.6.5l-.3.7.6-.5.6.5-.2-.8s.5-.4.6-.4zM21.5 31.5zm2 0c-.1 0-.1 0 0 0-.1 0 0 0 0 0zm-.1 0h-.7l-.2-.8-.2.8h-.7c.1 0 .6.5.6.5l-.2.8.6-.5.6.5-.2-.8c-.1-.1.4-.5.4-.5zM21.5 28zm2 0c-.1 0-.1 0 0 0-.1 0 0 0 0 0zm-.1 0h-.7l-.2-.8-.3.8h-.7c.1 0 .6.5.6.5l-.2.8.6-.5.6.5-.2-.8c0-.1.5-.5.5-.5zM21.5 24.4zm2 0c-.1 0-.1 0 0 0-.1 0 0 0 0 0zm-.1 0h-.7l-.2-.8-.2.8h-.7c.1 0 .6.5.6.5l-.2.8.6-.5.6.5-.2-.8c-.1 0 .4-.5.4-.5zM21.5 20.9zm2 0c-.1 0-.1 0 0 0-.1 0 0 0 0 0zm-.1 0h-.7l-.2-.8-.2.8h-.7c.1 0 .6.5.6.5l-.2.8.6-.5.6.5-.2-.8c-.1 0 .4-.5.4-.5zM21.5 17.4zm2 0c-.1 0-.1 0 0 0-.1 0 0 0 0 0zm-.1 0h-.7l-.2-.8-.2.8h-.7c.1 0 .6.5.6.5l-.2.8.6-.5.6.5-.2-.8c-.1-.1.4-.5.4-.5zM24.2 29.9zm1.9 0zm0 0h-.7l-.2-.8-.2.8h-.7c.1 0 .6.5.6.5l-.2.8.6-.5.6.5-.2-.8c-.2-.1.4-.5.4-.5zM24.2 26.3zm1.9 0zm0 0h-.7l-.2-.8-.2.8h-.7c.1 0 .6.5.6.5l-.2.8.6-.5.6.5-.2-.8c-.2 0 .4-.4.4-.5zM24.2 22.8zm1.9 0zm0 0h-.7l-.3-.8-.2.8h-.7c.1 0 .6.5.6.5l-.3.7.6-.5.6.5-.2-.8c0 .1.6-.4.6-.4zM24.2 19.3zm1.9 0zm0 0h-.7l-.2-.8-.2.8h-.7c.1 0 .6.5.6.5l-.2.8.6-.5.6.5-.2-.8c-.2-.1.4-.5.4-.5zM24.2 15.8zm1.9 0zm0 0h-.7l-.3-.8-.2.8h-.7c.1 0 .6.5.6.5l-.3.7.6-.5.6.5-.2-.8.6-.4zM26.8 31.5zm2 0zm0 0h-.7l-.2-.8-.2.8H27c.1 0 .6.5.6.5l-.2.8.6-.5.6.5-.2-.8c-.2-.1.3-.5.4-.5zM26.8 28zm2 0zm0 0h-.7l-.2-.8-.3.8h-.7c.1 0 .6.5.6.5l-.2.8.6-.5.6.5-.2-.8c-.1-.1.4-.5.5-.5zM26.8 24.4zm2 0zm0 0h-.7l-.2-.8-.2.8H27c.1 0 .6.5.6.5l-.2.8.6-.5.6.5-.2-.8c-.2 0 .3-.5.4-.5zM26.8 20.9zm2 0zm0 0h-.7l-.2-.8-.2.8H27c.1 0 .6.5.6.5l-.2.8.6-.5.6.5-.2-.8c-.2 0 .3-.5.4-.5zM26.8 17.4zm2 0zm0 0h-.7l-.2-.8-.2.8H27c.1 0 .6.5.6.5l-.2.8.6-.5.6.5-.2-.8c-.2-.1.3-.5.4-.5zM29.5 29.9zm2 0zm0 0h-.7l-.2-.8-.2.8h-.7c.1 0 .6.5.6.5l-.2.8.6-.5.6.5-.2-.8c-.2-.1.3-.5.4-.5zM29.5 26.3zm2 0zm0 0h-.7l-.2-.8-.2.8h-.7c.1 0 .6.5.6.5l-.2.8.6-.5.6.5-.2-.8c-.2 0 .3-.4.4-.5zM29.5 22.8zm2 0zm0 0h-.7l-.3-.8-.2.8h-.7c.1 0 .6.5.6.5l-.3.7.6-.5.6.5-.2-.8c0 .1.5-.4.6-.4zM29.5 19.3zm2 0zm0 0h-.7l-.2-.8-.2.8h-.7c.1 0 .6.5.6.5l-.2.8.6-.5.6.5-.2-.8c-.2-.1.3-.5.4-.5zM29.5 15.8zm2 0zm0 0h-.7l-.3-.8-.2.8h-.7c.1 0 .6.5.6.5l-.3.7.6-.5.6.5-.2-.8s.5-.4.6-.4zM32.2 31.5zm1.9 0zm0 0h-.7l-.2-.8-.2.8h-.7c.1 0 .6.5.6.5l-.2.8.6-.5.6.5-.2-.8c-.2-.1.4-.5.4-.5zM32.2 28zm1.9 0zm0 0h-.7l-.2-.8-.3.8h-.7c.1 0 .6.5.6.5l-.2.8.6-.5.6.5-.2-.8c-.1-.1.5-.5.5-.5zM32.2 24.4zm1.9 0zm0 0h-.7l-.2-.8-.2.8h-.7c.1 0 .6.5.6.5l-.2.8.6-.5.6.5-.2-.8c-.2 0 .4-.5.4-.5zM32.2 20.9zm1.9 0zm0 0h-.7l-.2-.8-.2.8h-.7c.1 0 .6.5.6.5l-.2.8.6-.5.6.5-.2-.8c-.2 0 .4-.5.4-.5zM32.2 17.4zm1.9 0zm0 0h-.7l-.2-.8-.2.8h-.7c.1 0 .6.5.6.5l-.2.8.6-.5.6.5-.2-.8c-.2-.1.4-.5.4-.5z"/></svg>