<svg xmlns="http://www.w3.org/2000/svg" viewBox="0 0 900 600"><path fill="#27ae60" d="M0 600V400h900v200z"/><path fill="#fff" d="M0 400V200h900v200z"/><path fill="#f39c12" d="M0 200V0h900v200z"/><g transform="translate(151.333 524) scale(1.16667)"><circle r="20" fill="#008" transform="matrix(3.75 0 0 3.75 256 -192)"/><circle r="17.5" fill="#fff" transform="matrix(3.75 0 0 3.75 256 -192)"/><circle r="3.5" fill="#008" transform="matrix(3.75 0 0 3.75 256 -192)"/><g fill="#008"><g transform="matrix(3.75 0 0 3.75 256 -192)"><circle r=".875" transform="rotate(7.5 -8.75 133.5)"/><path d="M0 17.5.6 7 0 2l-.6 5L0 17.5z"/></g><g transform="rotate(15 857.192 876.257) scale(3.75)"><circle r=".875" transform="rotate(7.5 -8.75 133.5)"/><path d="M0 17.5.6 7 0 2l-.6 5L0 17.5z"/></g><g transform="rotate(30 486.277 381.702) scale(3.75)"><circle r=".875" transform="rotate(7.5 -8.75 133.5)"/><path d="M0 17.5.6 7 0 2l-.6 5L0 17.5z"/></g><g transform="rotate(45 359.764 213.02) scale(3.75)"><circle r=".875" transform="rotate(7.5 -8.75 133.5)"/><path d="M0 17.5.6 7 0 2l-.6 5L0 17.5z"/></g><g transform="rotate(60 294.277 125.703) scale(3.75)"><circle r=".875" transform="rotate(7.5 -8.75 133.5)"/><path d="M0 17.5.6 7 0 2l-.6 5L0 17.5z"/></g><g transform="rotate(75 253.11 70.813) scale(3.75)"><circle r=".875" transform="rotate(7.5 -8.75 133.5)"/><path d="M0 17.5.6 7 0 2l-.6 5L0 17.5z"/></g><g transform="rotate(90 224 32) scale(3.75)"><circle r=".875" transform="rotate(7.5 -8.75 133.5)"/><path d="M0 17.5.6 7 0 2l-.6 5L0 17.5z"/></g><g transform="rotate(105 201.663 2.218) scale(3.75)"><circle r=".875" transform="rotate(7.5 -8.75 133.5)"/><path d="M0 17.5.6 7 0 2l-.6 5L0 17.5z"/></g></g><g fill="#008"><g transform="rotate(120 183.426 -22.1) scale(3.75)"><circle r=".875" transform="rotate(7.5 -8.75 133.5)"/><path d="M0 17.5.6 7 0 2l-.6 5L0 17.5z"/></g><g transform="rotate(135 167.765 -42.98) scale(3.75)"><circle r=".875" transform="rotate(7.5 -8.75 133.5)"/><path d="M0 17.5.6 7 0 2l-.6 5L0 17.5z"/></g><g transform="rotate(150 153.723 -61.703) scale(3.75)"><circle r=".875" transform="rotate(7.5 -8.75 133.5)"/><path d="M0 17.5.6 7 0 2l-.6 5L0 17.5z"/></g><g transform="rotate(165 140.639 -79.148) scale(3.75)"><circle r=".875" transform="rotate(7.5 -8.75 133.5)"/><path d="M0 17.5.6 7 0 2l-.6 5L0 17.5z"/></g><g transform="rotate(180 128 -96) scale(3.75)"><circle r=".875" transform="rotate(7.5 -8.75 133.5)"/><path d="M0 17.5.6 7 0 2l-.6 5L0 17.5z"/></g><g transform="rotate(-165 115.361 -112.852) scale(3.75)"><circle r=".875" transform="rotate(7.5 -8.75 133.5)"/><path d="M0 17.5.6 7 0 2l-.6 5L0 17.5z"/></g><g transform="rotate(-150 102.277 -130.297) scale(3.75)"><circle r=".875" transform="rotate(7.5 -8.75 133.5)"/><path d="M0 17.5.6 7 0 2l-.6 5L0 17.5z"/></g><g transform="rotate(-135 88.235 -149.02) scale(3.75)"><circle r=".875" transform="rotate(7.5 -8.75 133.5)"/><path d="M0 17.5.6 7 0 2l-.6 5L0 17.5z"/></g></g><g fill="#008"><g transform="rotate(-120 72.574 -169.9) scale(3.75)"><circle r=".875" transform="rotate(7.5 -8.75 133.5)"/><path d="M0 17.5.6 7 0 2l-.6 5L0 17.5z"/></g><g transform="rotate(-105 54.337 -194.218) scale(3.75)"><circle r=".875" transform="rotate(7.5 -8.75 133.5)"/><path d="M0 17.5.6 7 0 2l-.6 5L0 17.5z"/></g><g transform="rotate(-90 32 -224) scale(3.75)"><circle r=".875" transform="rotate(7.5 -8.75 133.5)"/><path d="M0 17.5.6 7 0 2l-.6 5L0 17.5z"/></g><g transform="rotate(-75 2.89 -262.813) scale(3.75)"><circle r=".875" transform="rotate(7.5 -8.75 133.5)"/><path d="M0 17.5.6 7 0 2l-.6 5L0 17.5z"/></g><g transform="rotate(-60 -38.277 -317.703) scale(3.75)"><circle r=".875" transform="rotate(7.5 -8.75 133.5)"/><path d="M0 17.5.6 7 0 2l-.6 5L0 17.5z"/></g><g transform="rotate(-45 -103.764 -405.02) scale(3.75)"><circle r=".875" transform="rotate(7.5 -8.75 133.5)"/><path d="M0 17.5.6 7 0 2l-.6 5L0 17.5z"/></g><g transform="rotate(-30 -230.277 -573.703) scale(3.75)"><circle r=".875" transform="rotate(7.5 -8.75 133.5)"/><path d="M0 17.5.6 7 0 2l-.6 5L0 17.5z"/></g><g transform="rotate(-15 -601.192 -1068.257) scale(3.75)"><circle r=".875" transform="rotate(7.5 -8.75 133.5)"/><path d="M0 17.5.6 7 0 2l-.6 5L0 17.5z"/></g></g></g></svg>