<svg xmlns="http://www.w3.org/2000/svg" xmlns:xlink="http://www.w3.org/1999/xlink" width="816" zoomAndPan="magnify" viewBox="0 0 612 791.999994" height="1056" preserveAspectRatio="xMidYMid meet" version="1.0"><defs><clipPath id="e3920740a0"><path d="M 210 207.0625 L 366 207.0625 L 366 363 L 210 363 Z M 210 207.0625 " clip-rule="nonzero"/></clipPath><clipPath id="e7cf5f6269"><path d="M 85 351 L 490 351 L 490 636.0625 L 85 636.0625 Z M 85 351 " clip-rule="nonzero"/></clipPath></defs><g clip-path="url(#e3920740a0)"><path fill="#7ea7fc" d="M 365.09375 284.578125 C 365.09375 285.84375 365.0625 287.113281 365 288.378906 C 364.9375 289.648438 364.84375 290.910156 364.722656 292.175781 C 364.597656 293.4375 364.441406 294.695312 364.253906 295.949219 C 364.070312 297.203125 363.851562 298.453125 363.605469 299.699219 C 363.355469 300.941406 363.078125 302.179688 362.769531 303.410156 C 362.464844 304.640625 362.125 305.863281 361.757812 307.078125 C 361.386719 308.292969 360.992188 309.496094 360.5625 310.691406 C 360.136719 311.882812 359.679688 313.066406 359.195312 314.238281 C 358.707031 315.410156 358.195312 316.570312 357.652344 317.71875 C 357.109375 318.863281 356.539062 319.996094 355.941406 321.117188 C 355.34375 322.234375 354.71875 323.339844 354.066406 324.425781 C 353.414062 325.515625 352.734375 326.585938 352.03125 327.640625 C 351.324219 328.695312 350.597656 329.734375 349.839844 330.75 C 349.085938 331.769531 348.304688 332.769531 347.5 333.75 C 346.695312 334.730469 345.867188 335.691406 345.015625 336.632812 C 344.164062 337.570312 343.289062 338.488281 342.390625 339.386719 C 341.492188 340.285156 340.574219 341.160156 339.636719 342.011719 C 338.695312 342.863281 337.734375 343.691406 336.753906 344.496094 C 335.773438 345.300781 334.773438 346.082031 333.753906 346.835938 C 332.734375 347.59375 331.699219 348.320312 330.644531 349.027344 C 329.589844 349.730469 328.519531 350.410156 327.429688 351.0625 C 326.34375 351.714844 325.238281 352.339844 324.121094 352.9375 C 323 353.535156 321.867188 354.105469 320.722656 354.648438 C 319.574219 355.191406 318.414062 355.703125 317.242188 356.191406 C 316.070312 356.675781 314.886719 357.132812 313.695312 357.558594 C 312.5 357.988281 311.296875 358.382812 310.082031 358.753906 C 308.867188 359.121094 307.644531 359.460938 306.414062 359.765625 C 305.183594 360.074219 303.945312 360.351562 302.703125 360.601562 C 301.457031 360.847656 300.207031 361.066406 298.953125 361.25 C 297.699219 361.4375 296.441406 361.59375 295.179688 361.71875 C 293.914062 361.839844 292.652344 361.933594 291.382812 361.996094 C 290.117188 362.058594 288.847656 362.089844 287.582031 362.089844 C 286.3125 362.089844 285.042969 362.058594 283.777344 361.996094 C 282.507812 361.933594 281.246094 361.839844 279.984375 361.71875 C 278.71875 361.59375 277.460938 361.4375 276.207031 361.25 C 274.953125 361.066406 273.703125 360.847656 272.457031 360.601562 C 271.214844 360.351562 269.976562 360.074219 268.746094 359.765625 C 267.515625 359.460938 266.292969 359.121094 265.078125 358.753906 C 263.863281 358.382812 262.660156 357.988281 261.464844 357.558594 C 260.273438 357.132812 259.089844 356.675781 257.917969 356.191406 C 256.746094 355.703125 255.585938 355.191406 254.4375 354.648438 C 253.292969 354.105469 252.160156 353.535156 251.039062 352.9375 C 249.921875 352.339844 248.816406 351.714844 247.730469 351.0625 C 246.640625 350.410156 245.570312 349.730469 244.515625 349.027344 C 243.460938 348.320312 242.425781 347.59375 241.40625 346.835938 C 240.386719 346.082031 239.386719 345.300781 238.40625 344.496094 C 237.425781 343.691406 236.464844 342.863281 235.523438 342.011719 C 234.585938 341.160156 233.667969 340.285156 232.769531 339.386719 C 231.871094 338.488281 230.996094 337.570312 230.144531 336.632812 C 229.292969 335.691406 228.464844 334.730469 227.660156 333.75 C 226.855469 332.769531 226.074219 331.769531 225.320312 330.75 C 224.566406 329.734375 223.835938 328.695312 223.128906 327.640625 C 222.425781 326.585938 221.746094 325.515625 221.09375 324.425781 C 220.441406 323.339844 219.816406 322.234375 219.21875 321.117188 C 218.621094 319.996094 218.050781 318.863281 217.507812 317.71875 C 216.964844 316.570312 216.453125 315.410156 215.964844 314.238281 C 215.480469 313.066406 215.023438 311.882812 214.597656 310.691406 C 214.171875 309.496094 213.773438 308.292969 213.402344 307.078125 C 213.035156 305.863281 212.699219 304.640625 212.390625 303.410156 C 212.082031 302.179688 211.804688 300.941406 211.554688 299.699219 C 211.308594 298.453125 211.089844 297.203125 210.90625 295.949219 C 210.71875 294.695312 210.5625 293.4375 210.4375 292.175781 C 210.316406 290.910156 210.222656 289.648438 210.160156 288.378906 C 210.097656 287.113281 210.066406 285.84375 210.066406 284.578125 C 210.066406 283.308594 210.097656 282.039062 210.160156 280.773438 C 210.222656 279.507812 210.316406 278.242188 210.4375 276.980469 C 210.5625 275.714844 210.71875 274.457031 210.90625 273.203125 C 211.089844 271.949219 211.308594 270.699219 211.554688 269.453125 C 211.804688 268.210938 212.082031 266.972656 212.390625 265.742188 C 212.699219 264.511719 213.035156 263.289062 213.402344 262.074219 C 213.773438 260.859375 214.171875 259.65625 214.597656 258.460938 C 215.023438 257.269531 215.480469 256.085938 215.964844 254.914062 C 216.453125 253.742188 216.964844 252.582031 217.507812 251.433594 C 218.050781 250.289062 218.621094 249.15625 219.21875 248.035156 C 219.816406 246.917969 220.441406 245.8125 221.09375 244.726562 C 221.746094 243.636719 222.425781 242.566406 223.128906 241.511719 C 223.835938 240.457031 224.566406 239.421875 225.320312 238.402344 C 226.074219 237.382812 226.855469 236.382812 227.660156 235.402344 C 228.464844 234.421875 229.292969 233.460938 230.144531 232.519531 C 230.996094 231.582031 231.871094 230.664062 232.769531 229.765625 C 233.667969 228.867188 234.585938 227.996094 235.523438 227.140625 C 236.464844 226.289062 237.425781 225.460938 238.40625 224.65625 C 239.386719 223.851562 240.386719 223.070312 241.40625 222.316406 C 242.425781 221.5625 243.460938 220.832031 244.515625 220.125 C 245.570312 219.421875 246.640625 218.742188 247.730469 218.089844 C 248.816406 217.4375 249.921875 216.8125 251.039062 216.214844 C 252.160156 215.617188 253.292969 215.046875 254.4375 214.503906 C 255.585938 213.960938 256.746094 213.449219 257.917969 212.960938 C 259.089844 212.476562 260.273438 212.019531 261.464844 211.59375 C 262.660156 211.167969 263.863281 210.769531 265.078125 210.398438 C 266.292969 210.03125 267.515625 209.695312 268.746094 209.386719 C 269.976562 209.078125 271.214844 208.800781 272.457031 208.550781 C 273.703125 208.304688 274.953125 208.085938 276.207031 207.902344 C 277.460938 207.714844 278.71875 207.558594 279.984375 207.4375 C 281.246094 207.3125 282.507812 207.21875 283.777344 207.15625 C 285.042969 207.09375 286.3125 207.0625 287.582031 207.0625 C 288.847656 207.0625 290.117188 207.09375 291.382812 207.15625 C 292.652344 207.21875 293.914062 207.3125 295.179688 207.4375 C 296.441406 207.558594 297.699219 207.714844 298.953125 207.902344 C 300.207031 208.085938 301.457031 208.304688 302.703125 208.550781 C 303.945312 208.800781 305.183594 209.078125 306.414062 209.386719 C 307.644531 209.695312 308.867188 210.03125 310.082031 210.398438 C 311.296875 210.769531 312.5 211.167969 313.695312 211.59375 C 314.886719 212.019531 316.070312 212.476562 317.242188 212.960938 C 318.414062 213.449219 319.574219 213.960938 320.722656 214.503906 C 321.867188 215.046875 323 215.617188 324.121094 216.214844 C 325.238281 216.8125 326.34375 217.4375 327.429688 218.089844 C 328.519531 218.742188 329.589844 219.421875 330.644531 220.125 C 331.699219 220.832031 332.734375 221.5625 333.753906 222.316406 C 334.773438 223.070312 335.773438 223.851562 336.753906 224.65625 C 337.734375 225.460938 338.695312 226.289062 339.636719 227.140625 C 340.574219 227.996094 341.492188 228.867188 342.390625 229.765625 C 343.289062 230.664062 344.164062 231.582031 345.015625 232.519531 C 345.867188 233.460938 346.695312 234.421875 347.5 235.402344 C 348.304688 236.382812 349.085938 237.382812 349.839844 238.402344 C 350.597656 239.421875 351.324219 240.457031 352.03125 241.511719 C 352.734375 242.566406 353.414062 243.636719 354.066406 244.726562 C 354.71875 245.8125 355.34375 246.917969 355.941406 248.035156 C 356.539062 249.15625 357.109375 250.289062 357.652344 251.433594 C 358.195312 252.582031 358.707031 253.742188 359.195312 254.914062 C 359.679688 256.085938 360.136719 257.269531 360.5625 258.460938 C 360.992188 259.65625 361.386719 260.859375 361.757812 262.074219 C 362.125 263.289062 362.464844 264.511719 362.769531 265.742188 C 363.078125 266.972656 363.355469 268.210938 363.605469 269.453125 C 363.851562 270.699219 364.070312 271.949219 364.253906 273.203125 C 364.441406 274.457031 364.597656 275.714844 364.722656 276.980469 C 364.84375 278.242188 364.9375 279.507812 365 280.773438 C 365.0625 282.039062 365.09375 283.308594 365.09375 284.578125 Z M 365.09375 284.578125 " fill-opacity="1" fill-rule="nonzero"/></g><g clip-path="url(#e7cf5f6269)"><path fill="#7ea7fc" d="M 472.941406 567.78125 L 472.941406 511.328125 C 482.871094 507.082031 489.789062 497.660156 489.789062 486.695312 L 489.789062 466.65625 C 489.789062 455.691406 482.871094 446.273438 472.941406 442.023438 L 472.941406 392.421875 C 472.941406 386.5 469.296875 382.742188 464.273438 382.742188 C 463.007812 382.742188 461.652344 382.980469 460.246094 383.484375 L 417.84375 398.667969 C 400.265625 376.675781 376.78125 360.117188 349.023438 351.621094 C 332.824219 366.484375 311.246094 375.570312 287.582031 375.570312 C 263.925781 375.570312 242.355469 366.492188 226.15625 351.644531 C 197.21875 360.496094 172.90625 378.082031 155.105469 401.476562 L 115 388 C 113.65625 387.550781 112.363281 387.335938 111.144531 387.335938 C 105.984375 387.335938 102.21875 391.1875 102.21875 397.1875 L 102.21875 442.023438 C 92.289062 446.273438 85.371094 455.691406 85.371094 466.65625 L 85.371094 486.695312 C 85.371094 497.660156 92.289062 507.082031 102.21875 511.328125 L 102.21875 565.398438 C 102.21875 572.8125 107.992188 580.742188 115.046875 583.019531 L 273.773438 634.300781 C 277.40625 635.476562 282.242188 636.066406 287.046875 636.066406 C 291.5625 636.066406 296.050781 635.542969 299.488281 634.492188 L 460.050781 585.214844 C 467.140625 583.039062 472.941406 575.195312 472.941406 567.78125 Z M 280.839844 622.113281 C 279.640625 621.917969 278.609375 621.699219 277.914062 621.472656 L 119.191406 570.195312 C 117.691406 569.707031 115.703125 566.972656 115.703125 565.398438 L 115.703125 513.667969 C 130.734375 512.839844 142.664062 501.101562 142.664062 486.695312 L 142.664062 466.65625 C 142.664062 452.253906 130.734375 440.511719 115.703125 439.683594 L 115.703125 402.457031 L 269.527344 454.140625 C 273.34375 455.425781 277.335938 456.046875 280.839844 456.332031 Z M 459.460938 439.683594 C 444.429688 440.511719 432.496094 452.253906 432.496094 466.65625 L 432.496094 486.695312 C 432.496094 501.101562 444.429688 512.839844 459.460938 513.667969 L 459.460938 567.78125 C 459.460938 569.257812 457.511719 571.894531 456.097656 572.328125 L 295.535156 621.601562 C 295.179688 621.710938 294.746094 621.804688 294.320312 621.898438 L 294.320312 455.976562 C 297.785156 455.515625 301.042969 454.804688 303.835938 453.804688 L 459.460938 398.085938 Z M 459.460938 439.683594 " fill-opacity="1" fill-rule="nonzero"/></g></svg>