<svg xmlns="http://www.w3.org/2000/svg" xmlns:xlink="http://www.w3.org/1999/xlink" width="1080" zoomAndPan="magnify" viewBox="0 0 810 809.999993" height="1080" preserveAspectRatio="xMidYMid meet" version="1.0"><defs><clipPath id="19f8eeffe2"><path d="M 244 443 L 566 443 L 566 565.074219 L 244 565.074219 Z M 244 443 " clip-rule="nonzero"/></clipPath></defs><path fill="#737373" d="M 515.269531 398.207031 C 512.902344 397.121094 510.789062 395.648438 508.996094 393.726562 L 494.785156 378.492188 L 482.941406 405.121094 L 487.292969 410.5 C 496.191406 421.511719 509.828125 427.71875 523.976562 427.207031 L 531.660156 426.953125 L 543.566406 400.320312 L 522.761719 399.871094 C 520.199219 399.808594 517.640625 399.234375 515.269531 398.207031 Z M 515.269531 398.207031 " fill-opacity="1" fill-rule="nonzero"/><path fill="#737373" d="M 483.964844 391.421875 C 484.988281 389.183594 484.734375 387.390625 483.773438 386.238281 L 491.328125 369.335938 L 511.683594 391.167969 C 514.566406 394.238281 518.597656 396.03125 522.824219 396.160156 L 562.003906 396.992188 C 564.628906 397.054688 566.035156 393.917969 564.242188 392 L 537.546875 363.445312 C 534.667969 360.375 530.632812 358.582031 526.410156 358.453125 L 487.230469 357.621094 C 484.605469 357.558594 483.199219 360.695312 484.988281 362.613281 L 489.472656 367.417969 L 481.53125 385.085938 C 479.933594 384.894531 478.332031 386.046875 477.628906 387.644531 C 476.15625 390.910156 478.140625 391.421875 476.027344 398.144531 C 475.769531 401.410156 483.132812 393.34375 483.964844 391.421875 Z M 483.964844 391.421875 " fill-opacity="1" fill-rule="nonzero"/><path fill="#737373" d="M 404.902344 436.234375 C 429.488281 436.234375 449.394531 408.964844 449.394531 384.378906 C 449.394531 359.796875 429.488281 339.824219 404.902344 339.824219 C 380.320312 339.824219 360.410156 359.734375 360.410156 384.378906 C 360.410156 408.964844 380.320312 436.234375 404.902344 436.234375 Z M 404.902344 436.234375 " fill-opacity="1" fill-rule="nonzero"/><g clip-path="url(#19f8eeffe2)"><path fill="#737373" d="M 544.910156 452.816406 L 511.300781 464.59375 L 457.589844 444.8125 C 457.398438 444.75 457.207031 444.683594 457.015625 444.621094 C 454.515625 443.660156 451.894531 443.085938 449.074219 443.085938 L 360.796875 443.085938 C 357.980469 443.085938 355.289062 443.660156 352.859375 444.621094 C 352.664062 444.683594 352.472656 444.75 352.28125 444.8125 L 298.570312 464.59375 L 264.898438 452.816406 C 257.085938 450.0625 248.507812 454.160156 245.820312 461.96875 C 243.066406 469.78125 247.230469 478.359375 255.039062 481.109375 L 293.769531 494.683594 C 295.371094 495.257812 297.035156 495.515625 298.761719 495.515625 C 300.492188 495.515625 302.285156 495.195312 303.949219 494.617188 L 337.367188 482.328125 L 329.683594 547.945312 C 328.148438 556.90625 334.996094 565.167969 344.152344 565.167969 L 465.914062 565.167969 C 475.003906 565.167969 481.917969 556.90625 480.378906 547.945312 L 472.699219 482.328125 L 506.117188 494.617188 C 507.78125 495.257812 509.507812 495.515625 511.300781 495.515625 C 512.964844 495.515625 514.628906 495.257812 516.292969 494.683594 L 555.023438 481.109375 C 562.835938 478.359375 566.933594 469.84375 564.179688 462.035156 C 561.296875 454.160156 552.71875 450.0625 544.910156 452.816406 Z M 544.910156 452.816406 " fill-opacity="1" fill-rule="nonzero"/></g><path fill="#737373" d="M 283.71875 371.257812 C 283.910156 371.191406 284.101562 371.066406 284.230469 370.871094 C 284.296875 370.808594 284.296875 370.746094 284.359375 370.746094 C 284.421875 370.617188 284.488281 370.488281 284.550781 370.359375 C 284.613281 370.234375 284.613281 370.039062 284.613281 369.914062 C 284.613281 369.464844 284.296875 369.144531 283.847656 369.015625 C 283.65625 368.953125 283.398438 368.953125 283.144531 368.953125 L 265.792969 371.769531 C 265.730469 371.769531 265.601562 371.832031 265.539062 371.832031 C 265.28125 371.898438 265.027344 372.089844 264.898438 372.28125 C 264.640625 372.539062 264.511719 372.859375 264.511719 373.242188 C 264.511719 373.496094 264.640625 373.753906 264.898438 373.945312 C 265.027344 374.011719 265.152344 374.074219 265.28125 374.136719 C 265.347656 374.136719 265.410156 374.203125 265.472656 374.203125 C 265.601562 374.265625 265.792969 374.265625 265.984375 374.203125 L 283.335938 371.386719 C 283.460938 371.320312 283.589844 371.320312 283.71875 371.257812 Z M 283.71875 371.257812 " fill-opacity="1" fill-rule="nonzero"/><path fill="#737373" d="M 287.75 381.5 C 287.816406 381.5 287.878906 381.4375 287.945312 381.4375 C 288.519531 381.179688 288.902344 380.667969 288.839844 380.089844 C 288.777344 379.386719 288.136719 379.003906 287.367188 379.132812 L 270.019531 381.949219 C 269.25 382.074219 268.675781 382.714844 268.738281 383.355469 C 268.800781 383.996094 269.441406 384.445312 270.210938 384.316406 L 287.558594 381.5 C 287.625 381.5 287.6875 381.5 287.75 381.5 Z M 287.75 381.5 " fill-opacity="1" fill-rule="nonzero"/><path fill="#737373" d="M 273.410156 392.574219 C 273.15625 392.832031 273.027344 393.152344 273.027344 393.535156 C 273.09375 394.238281 273.730469 394.625 274.5 394.496094 L 291.847656 391.679688 C 291.914062 391.679688 291.976562 391.679688 292.042969 391.613281 C 292.105469 391.613281 292.167969 391.550781 292.234375 391.550781 C 292.425781 391.488281 292.617188 391.359375 292.746094 391.167969 C 293 390.910156 293.195312 390.589844 293.128906 390.207031 C 293.066406 389.566406 292.425781 389.117188 291.65625 389.246094 L 274.308594 392.0625 C 273.988281 392.125 273.667969 392.320312 273.410156 392.574219 Z M 273.410156 392.574219 " fill-opacity="1" fill-rule="nonzero"/><path fill="#737373" d="M 278.277344 402.304688 C 278.085938 402.371094 277.957031 402.433594 277.828125 402.5625 C 277.445312 402.816406 277.253906 403.265625 277.253906 403.648438 C 277.253906 403.90625 277.382812 404.164062 277.636719 404.355469 C 277.765625 404.417969 277.894531 404.480469 278.019531 404.546875 C 278.214844 404.609375 278.46875 404.675781 278.726562 404.609375 L 296.074219 401.792969 C 296.203125 401.792969 296.332031 401.730469 296.457031 401.664062 C 296.648438 401.601562 296.84375 401.472656 296.96875 401.28125 C 297.035156 401.21875 297.035156 401.152344 297.097656 401.152344 C 297.164062 401.023438 297.226562 400.898438 297.289062 400.769531 C 297.355469 400.640625 297.355469 400.449219 297.355469 400.320312 C 297.355469 400.191406 297.289062 400.066406 297.226562 399.9375 C 297.097656 399.679688 296.84375 399.554688 296.585938 399.425781 C 296.394531 399.359375 296.136719 399.359375 295.882812 399.359375 L 278.535156 402.175781 C 278.46875 402.242188 278.40625 402.304688 278.277344 402.304688 Z M 278.277344 402.304688 " fill-opacity="1" fill-rule="nonzero"/><path fill="#737373" d="M 262.015625 416.644531 C 262.082031 416.773438 262.144531 416.902344 262.207031 417.09375 C 264.511719 422.152344 271.363281 424.007812 277.574219 421.445312 L 307.214844 409.15625 L 309.003906 408.386719 L 309.070312 408.386719 L 338.644531 395.96875 C 344.792969 393.40625 348.25 387.199219 346.328125 381.949219 C 346.265625 381.820312 346.199219 381.691406 346.199219 381.5 L 329.554688 341.679688 L 324.433594 344.496094 L 322.640625 340.144531 L 317.902344 343.34375 L 316.113281 338.992188 L 292.359375 356.019531 C 290.25 357.558594 289.097656 360.308594 289.097656 363.320312 C 286.917969 361.207031 284.230469 360.054688 281.605469 360.503906 L 252.925781 365.238281 L 254.71875 369.59375 L 249.085938 370.746094 L 250.878906 375.097656 L 245.308594 376.761719 Z M 320.914062 343.792969 L 336.726562 381.5625 C 338.199219 385.085938 337.238281 389.183594 334.546875 391.039062 L 323.21875 397.503906 L 330.644531 392.125 C 333.910156 389.757812 334.867188 384.507812 332.882812 379.769531 L 318.542969 345.457031 Z M 291.914062 361.398438 C 292.167969 359.734375 292.9375 358.390625 293.898438 357.683594 L 314.382812 342.832031 L 330.257812 380.859375 C 332.050781 385.085938 331.027344 389.117188 329.105469 390.527344 L 308.621094 405.378906 L 292.746094 367.351562 C 292.042969 365.625 291.785156 363.960938 291.847656 362.488281 C 291.847656 362.101562 291.914062 361.71875 291.914062 361.398438 Z M 281.605469 362.808594 C 282.757812 362.613281 284.230469 363 285.640625 364.023438 C 285.894531 364.214844 286.214844 364.472656 286.472656 364.726562 C 287.558594 365.75 288.585938 367.097656 289.289062 368.761719 L 305.164062 406.785156 L 280.199219 410.882812 C 277.765625 411.269531 274.246094 409.15625 272.515625 404.929688 L 256.640625 366.902344 Z M 255.613281 371.707031 L 269.953125 406.019531 C 271.941406 410.820312 276.292969 413.765625 280.324219 413.125 L 289.417969 411.589844 L 276.867188 415.109375 C 273.605469 415.75 270.082031 413.507812 268.609375 409.988281 L 252.796875 372.21875 Z M 255.613281 371.707031 " fill-opacity="1" fill-rule="nonzero"/><path fill="#737373" d="M 298.507812 365.046875 C 298.636719 364.984375 298.761719 364.917969 298.890625 364.855469 L 313.101562 354.484375 C 313.742188 354.035156 313.871094 353.269531 313.421875 352.757812 C 313.359375 352.691406 313.292969 352.628906 313.230469 352.5625 C 313.101562 352.4375 312.910156 352.4375 312.71875 352.371094 C 312.460938 352.308594 312.207031 352.308594 311.949219 352.4375 C 311.757812 352.5 311.628906 352.5625 311.503906 352.691406 L 297.289062 363.0625 C 296.648438 363.511719 296.523438 364.277344 296.96875 364.792969 C 297.289062 365.238281 297.929688 365.304688 298.507812 365.046875 Z M 298.507812 365.046875 " fill-opacity="1" fill-rule="nonzero"/><path fill="#737373" d="M 301.132812 374.96875 C 301.324219 375.164062 301.578125 375.289062 301.835938 375.355469 C 301.898438 375.355469 301.964844 375.355469 302.027344 375.355469 C 302.027344 375.355469 301.964844 375.355469 301.964844 375.355469 C 302.027344 375.355469 302.15625 375.355469 302.21875 375.355469 C 302.285156 375.355469 302.285156 375.355469 302.285156 375.355469 C 302.285156 375.355469 302.347656 375.355469 302.347656 375.355469 C 302.347656 375.355469 302.347656 375.355469 302.285156 375.355469 C 302.410156 375.355469 302.539062 375.289062 302.605469 375.289062 C 302.730469 375.226562 302.859375 375.164062 302.925781 375.097656 L 317.136719 364.726562 C 317.777344 364.277344 317.902344 363.511719 317.457031 363 C 317.136719 362.613281 316.558594 362.488281 315.984375 362.679688 C 315.792969 362.742188 315.664062 362.808594 315.472656 362.933594 L 301.257812 373.304688 C 300.875 373.691406 300.683594 374.457031 301.132812 374.96875 Z M 301.132812 374.96875 " fill-opacity="1" fill-rule="nonzero"/><path fill="#737373" d="M 305.355469 385.085938 C 305.742188 385.46875 306.316406 385.597656 306.894531 385.339844 C 306.894531 385.339844 306.957031 385.339844 306.957031 385.339844 C 307.019531 385.339844 307.019531 385.277344 307.019531 385.277344 C 307.085938 385.214844 307.214844 385.214844 307.277344 385.148438 L 321.488281 374.777344 C 322.128906 374.328125 322.257812 373.5625 321.808594 373.050781 C 321.679688 372.921875 321.554688 372.792969 321.359375 372.730469 C 321.234375 372.664062 320.976562 372.601562 320.847656 372.601562 C 320.527344 372.601562 320.144531 372.730469 319.890625 372.921875 L 305.742188 383.355469 C 305.101562 383.804688 304.972656 384.574219 305.355469 385.085938 Z M 305.355469 385.085938 " fill-opacity="1" fill-rule="nonzero"/><path fill="#737373" d="M 309.644531 395.265625 C 310.03125 395.710938 310.671875 395.777344 311.246094 395.519531 C 311.375 395.457031 311.503906 395.390625 311.628906 395.328125 L 325.84375 384.957031 C 325.90625 384.894531 326.035156 384.828125 326.097656 384.699219 C 326.164062 384.574219 326.226562 384.507812 326.289062 384.445312 C 326.417969 384.253906 326.417969 384.0625 326.417969 383.867188 C 326.417969 383.742188 326.417969 383.613281 326.355469 383.546875 C 326.289062 383.421875 326.226562 383.292969 326.164062 383.226562 C 326.097656 383.164062 326.035156 383.101562 325.96875 383.035156 C 325.84375 382.910156 325.648438 382.910156 325.457031 382.84375 C 325.203125 382.78125 324.945312 382.78125 324.691406 382.910156 C 324.625 382.910156 324.5625 382.972656 324.433594 383.035156 C 324.371094 383.101562 324.304688 383.101562 324.179688 383.164062 L 309.964844 393.535156 C 309.324219 393.984375 309.199219 394.75 309.644531 395.265625 Z M 309.644531 395.265625 " fill-opacity="1" fill-rule="nonzero"/><path fill="#737373" d="M 376.417969 309.542969 C 376.542969 309.734375 376.734375 309.863281 376.863281 310.054688 C 383.90625 317.546875 393.445312 321.835938 403.75 322.15625 C 403.945312 322.15625 404.136719 322.15625 404.390625 322.15625 C 404.582031 322.15625 404.710938 322.15625 404.902344 322.15625 C 405.097656 322.15625 405.222656 322.15625 405.417969 322.15625 C 416.8125 322.027344 427.117188 316.84375 434.097656 308.777344 C 435.054688 307.625 436.015625 306.472656 436.847656 305.191406 C 440.816406 299.367188 443.25 292.324219 443.441406 284.769531 C 443.699219 276.574219 441.394531 268.699219 436.847656 262.105469 C 436.015625 260.890625 435.121094 259.675781 434.097656 258.523438 C 433.710938 258.074219 433.328125 257.625 432.945312 257.242188 C 425.902344 249.75 416.363281 245.460938 406.054688 245.144531 C 395.75 244.824219 385.953125 248.535156 378.464844 255.640625 C 377.761719 256.34375 377.054688 257.050781 376.417969 257.753906 C 375.390625 258.84375 374.429688 260.058594 373.597656 261.273438 C 369.183594 267.421875 366.683594 274.78125 366.429688 282.59375 C 366.171875 291.105469 368.734375 299.367188 373.597656 306.152344 C 374.496094 307.238281 375.390625 308.390625 376.417969 309.542969 Z M 415.722656 315.882812 C 418.347656 312.679688 420.460938 308.390625 422.0625 303.269531 C 424.683594 303.976562 427.117188 304.808594 429.292969 305.832031 C 429.613281 305.960938 429.933594 306.152344 430.253906 306.34375 C 426.351562 310.695312 421.355469 314.027344 415.722656 315.882812 Z M 433.070312 302.757812 C 430.253906 301.222656 426.925781 299.941406 423.148438 298.980469 C 424.109375 294.628906 424.683594 289.828125 424.75 284.769531 L 438.960938 284.769531 C 438.707031 291.363281 436.59375 297.574219 433.070312 302.757812 Z M 433.070312 264.476562 C 436.273438 269.148438 438.257812 274.527344 438.769531 280.222656 L 424.683594 280.222656 C 424.492188 276 423.980469 271.964844 423.148438 268.253906 C 426.925781 267.292969 430.253906 266.011719 433.070312 264.476562 Z M 429.679688 260.25 C 429.871094 260.441406 430.0625 260.636719 430.253906 260.890625 C 429.933594 261.082031 429.613281 261.210938 429.230469 261.402344 C 427.054688 262.425781 424.621094 263.257812 421.996094 263.964844 C 420.394531 258.84375 418.21875 254.554688 415.59375 251.351562 C 420.972656 253.015625 425.773438 256.089844 429.679688 260.25 Z M 407.402344 250.265625 C 410.28125 251.542969 413.035156 254.554688 415.210938 258.96875 C 416.105469 260.761719 416.875 262.746094 417.578125 264.859375 C 414.316406 265.4375 410.859375 265.691406 407.273438 265.757812 Z M 407.273438 270.238281 C 411.304688 270.171875 415.210938 269.851562 418.796875 269.214844 C 419.5625 272.671875 420.074219 276.382812 420.269531 280.222656 L 407.207031 280.222656 Z M 407.144531 284.707031 L 420.269531 284.707031 C 420.203125 289.378906 419.691406 293.859375 418.730469 298.019531 C 415.082031 297.382812 411.113281 296.996094 407.015625 296.996094 Z M 407.082031 301.476562 C 410.730469 301.476562 414.316406 301.796875 417.644531 302.375 C 417.003906 304.488281 416.171875 306.472656 415.273438 308.265625 C 412.96875 312.9375 410.023438 316.074219 406.953125 317.164062 Z M 380.320312 307.113281 C 382.625 305.894531 385.25 304.871094 388.066406 304.039062 C 389.605469 308.839844 391.714844 312.875 394.214844 315.945312 C 388.964844 314.152344 384.226562 311.207031 380.320312 307.113281 Z M 402.472656 316.96875 C 399.589844 315.691406 396.835938 312.679688 394.660156 308.265625 C 393.828125 306.597656 393.125 304.808594 392.484375 302.886719 C 395.683594 302.183594 399.078125 301.734375 402.597656 301.542969 Z M 402.597656 297.0625 C 398.628906 297.253906 394.851562 297.765625 391.203125 298.535156 C 390.179688 294.242188 389.605469 289.570312 389.539062 284.640625 L 402.664062 284.640625 Z M 402.726562 280.222656 L 389.667969 280.222656 C 389.859375 276.191406 390.371094 272.222656 391.269531 268.636719 C 394.917969 269.40625 398.824219 269.917969 402.855469 270.171875 Z M 402.917969 250.070312 L 402.792969 265.691406 C 399.207031 265.5 395.683594 265.050781 392.421875 264.347656 C 393.0625 262.425781 393.765625 260.636719 394.597656 258.96875 C 396.964844 254.296875 399.910156 251.160156 402.917969 250.070312 Z M 381.601562 258.84375 C 385.25 255.386719 389.605469 252.824219 394.214844 251.289062 C 391.714844 254.359375 389.605469 258.394531 388.066406 263.195312 C 385.25 262.363281 382.625 261.339844 380.320312 260.121094 C 380.707031 259.675781 381.152344 259.226562 381.601562 258.84375 Z M 377.375 263.644531 C 377.503906 263.707031 377.695312 263.835938 377.886719 263.898438 C 380.578125 265.371094 383.585938 266.589844 386.914062 267.546875 C 386.019531 271.453125 385.378906 275.742188 385.1875 280.222656 L 371.101562 280.222656 C 371.679688 274.207031 373.855469 268.445312 377.375 263.644531 Z M 385.058594 284.707031 C 385.121094 290.082031 385.761719 295.140625 386.851562 299.683594 C 383.585938 300.644531 380.511719 301.863281 377.824219 303.335938 C 377.695312 303.398438 377.503906 303.527344 377.375 303.589844 C 373.34375 298.085938 371.101562 291.554688 370.910156 284.707031 C 370.910156 284.707031 385.058594 284.707031 385.058594 284.707031 Z M 385.058594 284.707031 " fill-opacity="1" fill-rule="nonzero"/><path fill="#737373" d="M 514.886719 319.273438 C 515.847656 320.621094 517.382812 321.324219 518.917969 321.324219 C 519.945312 321.324219 520.96875 321.003906 521.863281 320.363281 C 524.105469 318.699219 524.554688 315.625 522.953125 313.386719 C 520.519531 310.054688 517.894531 306.792969 515.207031 303.65625 C 513.414062 301.605469 510.210938 301.351562 508.164062 303.140625 C 506.117188 304.933594 505.859375 308.136719 507.652344 310.183594 C 510.210938 313.128906 512.644531 316.136719 514.886719 319.273438 Z M 514.886719 319.273438 " fill-opacity="1" fill-rule="nonzero"/><path fill="#737373" d="M 286.664062 322.285156 C 287.558594 322.925781 288.519531 323.179688 289.542969 323.179688 C 291.082031 323.179688 292.679688 322.410156 293.640625 321.066406 C 295.882812 317.929688 298.25 314.859375 300.746094 311.914062 C 302.539062 309.800781 302.285156 306.664062 300.171875 304.871094 C 298.058594 303.078125 294.921875 303.335938 293.128906 305.445312 C 290.441406 308.582031 287.878906 311.914062 285.511719 315.242188 C 283.847656 317.546875 284.421875 320.683594 286.664062 322.285156 Z M 286.664062 322.285156 " fill-opacity="1" fill-rule="nonzero"/><path fill="#737373" d="M 530.1875 345.96875 C 531.019531 347.890625 532.8125 348.980469 534.796875 348.980469 C 535.4375 348.980469 536.140625 348.851562 536.78125 348.59375 C 539.339844 347.507812 540.492188 344.5625 539.40625 342.066406 C 537.804688 338.289062 535.949219 334.511719 534.027344 330.863281 C 532.746094 328.429688 529.675781 327.53125 527.242188 328.8125 C 524.808594 330.09375 523.914062 333.167969 525.191406 335.597656 C 526.984375 338.929688 528.648438 342.449219 530.1875 345.96875 Z M 530.1875 345.96875 " fill-opacity="1" fill-rule="nonzero"/><path fill="#737373" d="M 484.988281 289.441406 C 488.0625 291.683594 491.136719 294.117188 494.015625 296.613281 C 494.976562 297.445312 496.128906 297.828125 497.28125 297.828125 C 498.691406 297.828125 500.097656 297.253906 501.058594 296.101562 C 502.851562 293.988281 502.660156 290.851562 500.546875 289.058594 C 497.410156 286.371094 494.144531 283.746094 490.816406 281.3125 C 488.574219 279.710938 485.4375 280.160156 483.835938 282.402344 C 482.300781 284.640625 482.8125 287.777344 484.988281 289.441406 Z M 484.988281 289.441406 " fill-opacity="1" fill-rule="nonzero"/><path fill="#737373" d="M 310.796875 299.367188 C 311.949219 299.367188 313.167969 298.917969 314.128906 298.085938 C 317.007812 295.523438 320.015625 293.089844 323.089844 290.722656 C 325.265625 289.058594 325.714844 285.921875 324.113281 283.746094 C 322.449219 281.570312 319.3125 281.121094 317.136719 282.785156 C 313.871094 285.28125 310.605469 287.90625 307.535156 290.660156 C 305.484375 292.515625 305.292969 295.652344 307.148438 297.699219 C 308.046875 298.789062 309.390625 299.367188 310.796875 299.367188 Z M 310.796875 299.367188 " fill-opacity="1" fill-rule="nonzero"/><path fill="#737373" d="M 272.324219 350.773438 C 272.964844 351.027344 273.605469 351.15625 274.246094 351.15625 C 276.230469 351.15625 278.085938 350.003906 278.851562 348.019531 C 280.324219 344.433594 281.925781 340.914062 283.65625 337.519531 C 284.933594 335.085938 283.976562 332.078125 281.476562 330.796875 C 279.046875 329.519531 276.035156 330.542969 274.757812 332.976562 C 272.898438 336.625 271.105469 340.464844 269.570312 344.242188 C 268.546875 346.800781 269.761719 349.746094 272.324219 350.773438 Z M 272.324219 350.773438 " fill-opacity="1" fill-rule="nonzero"/><path fill="#737373" d="M 336.789062 280.929688 C 337.621094 280.929688 338.453125 280.738281 339.222656 280.289062 C 342.550781 278.433594 346.070312 276.703125 349.59375 275.167969 C 352.089844 274.015625 353.242188 271.070312 352.089844 268.574219 C 350.9375 266.078125 347.992188 264.925781 345.496094 266.011719 C 341.71875 267.675781 338.003906 269.535156 334.355469 271.519531 C 331.925781 272.863281 331.089844 275.871094 332.371094 278.304688 C 333.332031 280.03125 335.0625 280.929688 336.789062 280.929688 Z M 336.789062 280.929688 " fill-opacity="1" fill-rule="nonzero"/><path fill="#737373" d="M 458.230469 274.269531 C 461.75 275.742188 465.273438 277.472656 468.664062 279.265625 C 469.433594 279.648438 470.203125 279.839844 470.96875 279.839844 C 472.761719 279.839844 474.492188 278.878906 475.386719 277.152344 C 476.667969 274.71875 475.769531 271.710938 473.339844 270.429688 C 469.691406 268.507812 465.914062 266.714844 462.136719 265.117188 C 459.574219 264.027344 456.695312 265.242188 455.605469 267.742188 C 454.515625 270.238281 455.667969 273.183594 458.230469 274.269531 Z M 458.230469 274.269531 " fill-opacity="1" fill-rule="nonzero"/></svg>