<svg xmlns="http://www.w3.org/2000/svg" xmlns:xlink="http://www.w3.org/1999/xlink" width="1080" zoomAndPan="magnify" viewBox="0 0 810 809.999993" height="1080" preserveAspectRatio="xMidYMid meet" version="1.0"><defs><clipPath id="038f651bf9"><path d="M 401 248.46875 L 409 248.46875 L 409 283 L 401 283 Z M 401 248.46875 " clip-rule="nonzero"/></clipPath><clipPath id="d347ad8894"><path d="M 243 290 L 567 290 L 567 561.21875 L 243 561.21875 Z M 243 290 " clip-rule="nonzero"/></clipPath></defs><g clip-path="url(#038f651bf9)"><path fill="#18e9d6" d="M 405.003906 282.453125 C 406.988281 282.453125 408.59375 280.84375 408.59375 278.863281 L 408.59375 252.070312 C 408.59375 250.085938 406.988281 248.476562 405.003906 248.476562 C 403.011719 248.476562 401.40625 250.085938 401.40625 252.070312 L 401.40625 278.863281 C 401.40625 280.84375 403.011719 282.453125 405.003906 282.453125 " fill-opacity="1" fill-rule="nonzero"/></g><path fill="#18e9d6" d="M 363.640625 289.363281 C 364.339844 290.347656 365.445312 290.871094 366.570312 290.871094 C 367.292969 290.871094 368.019531 290.652344 368.65625 290.199219 C 370.269531 289.050781 370.648438 286.804688 369.496094 285.1875 L 353.941406 263.378906 C 352.785156 261.761719 350.546875 261.382812 348.925781 262.539062 C 347.3125 263.691406 346.9375 265.9375 348.085938 267.550781 L 363.640625 289.363281 " fill-opacity="1" fill-rule="nonzero"/><path fill="#18e9d6" d="M 318.515625 308.808594 L 342.449219 320.84375 C 342.96875 321.105469 343.519531 321.226562 344.058594 321.226562 C 345.375 321.226562 346.644531 320.5 347.273438 319.246094 C 348.167969 317.476562 347.453125 315.3125 345.675781 314.421875 L 321.746094 302.382812 C 319.960938 301.492188 317.808594 302.207031 316.917969 303.980469 C 316.027344 305.753906 316.742188 307.914062 318.515625 308.808594 " fill-opacity="1" fill-rule="nonzero"/><path fill="#18e9d6" d="M 441.347656 290.199219 C 441.980469 290.652344 442.707031 290.871094 443.433594 290.871094 C 444.558594 290.871094 445.660156 290.347656 446.367188 289.363281 L 461.917969 267.550781 C 463.070312 265.9375 462.691406 263.691406 461.078125 262.539062 C 459.460938 261.386719 457.21875 261.765625 456.0625 263.378906 L 440.507812 285.1875 C 439.359375 286.804688 439.734375 289.050781 441.347656 290.199219 " fill-opacity="1" fill-rule="nonzero"/><path fill="#18e9d6" d="M 462.726562 319.246094 C 463.359375 320.5 464.628906 321.226562 465.945312 321.226562 C 466.484375 321.226562 467.039062 321.105469 467.554688 320.84375 L 491.488281 308.808594 C 493.261719 307.914062 493.976562 305.753906 493.085938 303.980469 C 492.191406 302.214844 490.03125 301.492188 488.257812 302.382812 L 464.324219 314.421875 C 462.554688 315.3125 461.839844 317.476562 462.726562 319.246094 " fill-opacity="1" fill-rule="nonzero"/><path fill="#18e9d6" d="M 305.074219 424.339844 C 305.492188 424.191406 347.425781 410.5 376.53125 432.449219 C 377.179688 432.9375 377.9375 433.175781 378.691406 433.175781 C 379.785156 433.175781 380.859375 432.679688 381.566406 431.742188 C 382.761719 430.160156 382.445312 427.90625 380.859375 426.707031 C 348.6875 402.449219 304.636719 416.902344 302.78125 417.523438 C 300.898438 418.160156 299.890625 420.195312 300.523438 422.078125 C 301.15625 423.957031 303.191406 424.976562 305.074219 424.339844 " fill-opacity="1" fill-rule="nonzero"/><path fill="#18e9d6" d="M 376.53125 475.601562 C 377.179688 476.089844 377.941406 476.328125 378.691406 476.328125 C 379.785156 476.328125 380.859375 475.832031 381.566406 474.894531 C 382.761719 473.308594 382.445312 471.054688 380.859375 469.859375 C 348.6875 445.601562 304.636719 460.050781 302.78125 460.675781 C 300.898438 461.316406 299.890625 463.347656 300.523438 465.230469 C 301.15625 467.109375 303.191406 468.136719 305.074219 467.492188 C 305.492188 467.351562 347.425781 453.652344 376.53125 475.601562 " fill-opacity="1" fill-rule="nonzero"/><path fill="#18e9d6" d="M 428.433594 431.742188 C 429.144531 432.679688 430.21875 433.175781 431.3125 433.175781 C 432.0625 433.175781 432.824219 432.9375 433.472656 432.449219 C 462.578125 410.5 504.507812 424.195312 504.925781 424.339844 C 506.816406 424.976562 508.84375 423.957031 509.476562 422.078125 C 510.109375 420.195312 509.101562 418.160156 507.21875 417.523438 C 505.363281 416.902344 461.316406 402.441406 429.140625 426.707031 C 427.558594 427.90625 427.242188 430.160156 428.433594 431.742188 " fill-opacity="1" fill-rule="nonzero"/><path fill="#18e9d6" d="M 507.21875 460.675781 C 505.359375 460.050781 461.308594 445.601562 429.140625 469.859375 C 427.558594 471.054688 427.242188 473.308594 428.433594 474.894531 C 429.144531 475.832031 430.21875 476.328125 431.3125 476.328125 C 432.0625 476.328125 432.824219 476.089844 433.472656 475.601562 C 462.578125 453.652344 504.507812 467.351562 504.925781 467.492188 C 506.816406 468.136719 508.84375 467.113281 509.476562 465.230469 C 510.109375 463.347656 509.101562 461.316406 507.21875 460.675781 " fill-opacity="1" fill-rule="nonzero"/><g clip-path="url(#d347ad8894)"><path fill="#18e9d6" d="M 559.734375 540.707031 C 538.09375 532.292969 454.21875 504.058594 415.0625 554.324219 L 394.9375 554.324219 C 355.792969 504.0625 271.90625 532.296875 250.265625 540.707031 L 250.265625 370.703125 C 253.1875 368.992188 259.964844 365.554688 267.78125 365.152344 L 267.78125 515.699219 C 267.78125 516.84375 268.328125 517.921875 269.253906 518.601562 C 270.175781 519.277344 271.367188 519.480469 272.460938 519.128906 C 273.335938 518.855469 361.023438 491.925781 402.324219 537.941406 C 402.335938 537.953125 402.347656 537.960938 402.359375 537.972656 C 402.378906 537.996094 402.402344 538.015625 402.421875 538.035156 C 402.519531 538.136719 402.617188 538.226562 402.726562 538.316406 C 402.753906 538.339844 402.78125 538.359375 402.8125 538.382812 C 403.078125 538.589844 403.367188 538.753906 403.671875 538.875 C 403.6875 538.882812 403.699219 538.890625 403.71875 538.894531 C 403.730469 538.90625 403.75 538.90625 403.765625 538.910156 C 403.949219 538.976562 404.136719 539.03125 404.328125 539.066406 C 404.355469 539.074219 404.378906 539.078125 404.410156 539.078125 C 404.601562 539.113281 404.804688 539.132812 405.003906 539.132812 C 405.195312 539.132812 405.386719 539.113281 405.578125 539.082031 C 405.613281 539.078125 405.644531 539.074219 405.679688 539.066406 C 405.859375 539.03125 406.035156 538.984375 406.207031 538.921875 C 406.25 538.90625 406.285156 538.894531 406.324219 538.875 C 406.5 538.808594 406.667969 538.726562 406.832031 538.632812 C 406.855469 538.617188 406.878906 538.601562 406.902344 538.582031 C 407.183594 538.410156 407.449219 538.195312 407.675781 537.941406 C 448.988281 491.925781 536.667969 518.855469 537.539062 519.128906 C 538.640625 519.484375 539.832031 519.277344 540.746094 518.601562 C 541.671875 517.921875 542.21875 516.84375 542.21875 515.699219 L 542.21875 365.023438 C 549.53125 364.769531 555.992188 364.875 559.734375 364.988281 Z M 274.972656 349.375 C 285.5625 346.460938 327.628906 336.226562 364.164062 346.292969 C 365.914062 351.953125 368.828125 357.234375 372.78125 361.761719 C 377.3125 366.953125 379.808594 373.925781 379.8125 381.390625 L 379.820312 392.960938 C 379.820312 394.945312 381.429688 396.554688 383.414062 396.554688 L 426.589844 396.554688 C 428.574219 396.554688 430.183594 394.945312 430.183594 392.957031 L 430.183594 380.792969 C 430.183594 373.886719 432.835938 366.953125 437.644531 361.277344 C 437.644531 361.277344 437.644531 361.277344 437.648438 361.273438 C 441.433594 356.804688 444.199219 351.722656 445.875 346.285156 C 482.398438 336.230469 524.441406 346.460938 535.027344 349.375 L 535.027344 510.929688 C 516.539062 505.960938 448.9375 491.121094 408.59375 526.902344 L 408.59375 413.117188 L 426.105469 413.117188 C 428.097656 413.117188 429.703125 411.507812 429.703125 409.523438 C 429.703125 407.539062 428.097656 405.929688 426.105469 405.929688 L 383.894531 405.929688 C 381.910156 405.929688 380.300781 407.539062 380.300781 409.523438 C 380.300781 411.507812 381.910156 413.117188 383.894531 413.117188 L 401.40625 413.117188 L 401.40625 526.914062 C 361.070312 491.125 293.464844 505.957031 274.972656 510.929688 Z M 381.300781 307.132812 C 388.949219 300.296875 398.820312 297.171875 409.121094 298.316406 C 425.589844 300.160156 438.742188 313.484375 440.386719 329.992188 C 440.804688 334.1875 440.5 338.316406 439.523438 342.257812 C 439.472656 342.410156 439.433594 342.570312 439.402344 342.734375 C 438.074219 347.789062 435.632812 352.523438 432.15625 356.625 C 426.25 363.601562 422.992188 372.1875 422.992188 380.792969 L 422.992188 389.363281 L 387.007812 389.363281 L 387.003906 381.386719 C 386.996094 372.183594 383.871094 363.53125 378.195312 357.03125 C 374.5625 352.875 371.984375 347.949219 370.605469 342.679688 C 370.582031 342.582031 370.558594 342.480469 370.527344 342.378906 C 369.8125 339.546875 369.433594 336.621094 369.433594 333.65625 C 369.433594 323.542969 373.761719 313.878906 381.300781 307.132812 Z M 563.515625 357.9375 C 563.097656 357.910156 553.851562 357.441406 542.21875 357.828125 L 542.21875 346.675781 C 542.21875 345.105469 541.199219 343.71875 539.703125 343.246094 C 537.640625 342.597656 490.574219 328.03125 447.492188 338.445312 C 447.824219 335.441406 447.847656 332.375 447.542969 329.28125 C 445.5625 309.417969 429.742188 293.390625 409.917969 291.171875 C 397.742188 289.792969 385.5625 293.671875 376.511719 301.773438 C 367.441406 309.882812 362.246094 321.5 362.246094 333.65625 C 362.246094 335.265625 362.347656 336.867188 362.523438 338.449219 C 319.441406 328.03125 272.359375 342.59375 270.296875 343.246094 C 268.800781 343.71875 267.78125 345.105469 267.78125 346.675781 L 267.78125 357.9375 C 255.089844 358.417969 245.054688 365.457031 244.601562 365.777344 C 243.644531 366.453125 243.078125 367.546875 243.078125 368.714844 L 243.078125 546.054688 C 243.078125 547.265625 243.6875 548.394531 244.703125 549.058594 C 245.71875 549.726562 247 549.832031 248.105469 549.347656 C 249.125 548.902344 350.074219 505.730469 390.261719 560.058594 C 390.941406 560.972656 392.011719 561.515625 393.152344 561.515625 L 416.847656 561.515625 C 417.988281 561.515625 419.058594 560.972656 419.738281 560.058594 C 459.925781 505.730469 560.875 548.90625 561.894531 549.347656 C 563 549.828125 564.28125 549.722656 565.296875 549.058594 C 566.3125 548.394531 566.921875 547.265625 566.921875 546.054688 L 566.921875 361.523438 C 566.921875 359.613281 565.425781 358.035156 563.515625 357.9375 " fill-opacity="1" fill-rule="nonzero"/></g></svg>