<svg viewBox="109.512 103.68 575.424 579.312" version="1.0" preserveAspectRatio="xMidYMid meet" zoomAndPan="magnify" xmlns:xlink="http://www.w3.org/1999/xlink" xmlns="http://www.w3.org/2000/svg" style="max-height: 500px" width="575.424" height="579.312"><defs><clipPath id="997da868e4"><path clip-rule="nonzero" d="M 116.542969 110.847656 L 678.292969 110.847656 L 678.292969 672.597656 L 116.542969 672.597656 Z M 116.542969 110.847656"/></clipPath></defs><rect fill-opacity="1" height="971.999992" y="-80.999999" fill="#ffffff" width="972" x="-81"/><rect fill-opacity="1" height="971.999992" y="-80.999999" fill="#ffffff" width="972" x="-81"/><g clip-path="url(#997da868e4)"><path fill-rule="nonzero" fill-opacity="1" d="M 671.449219 110.816406 L 123.609375 110.816406 C 123.144531 110.816406 122.683594 110.859375 122.226562 110.953125 C 121.769531 111.042969 121.324219 111.175781 120.894531 111.355469 C 120.460938 111.535156 120.054688 111.753906 119.667969 112.011719 C 119.277344 112.269531 118.917969 112.566406 118.589844 112.894531 C 118.261719 113.222656 117.964844 113.582031 117.707031 113.96875 C 117.449219 114.355469 117.230469 114.765625 117.050781 115.195312 C 116.875 115.628906 116.738281 116.070312 116.648438 116.527344 C 116.558594 116.984375 116.511719 117.449219 116.511719 117.914062 L 116.511719 665.753906 C 116.511719 666.21875 116.558594 666.683594 116.648438 667.140625 C 116.738281 667.597656 116.875 668.039062 117.050781 668.472656 C 117.230469 668.902344 117.449219 669.308594 117.707031 669.699219 C 117.964844 670.085938 118.261719 670.445312 118.589844 670.773438 C 118.917969 671.101562 119.277344 671.398438 119.664062 671.65625 C 120.054688 671.914062 120.460938 672.132812 120.894531 672.3125 C 121.324219 672.492188 121.769531 672.625 122.226562 672.714844 C 122.683594 672.808594 123.144531 672.851562 123.609375 672.851562 L 671.449219 672.851562 C 671.917969 672.851562 672.378906 672.808594 672.835938 672.714844 C 673.292969 672.625 673.734375 672.492188 674.167969 672.3125 C 674.597656 672.132812 675.007812 671.914062 675.394531 671.65625 C 675.78125 671.398438 676.140625 671.101562 676.46875 670.773438 C 676.800781 670.445312 677.09375 670.085938 677.351562 669.699219 C 677.613281 669.308594 677.832031 668.902344 678.007812 668.472656 C 678.1875 668.039062 678.320312 667.597656 678.414062 667.140625 C 678.503906 666.683594 678.550781 666.21875 678.550781 665.753906 L 678.550781 117.914062 C 678.550781 117.449219 678.503906 116.984375 678.414062 116.527344 C 678.320312 116.070312 678.1875 115.628906 678.007812 115.195312 C 677.832031 114.765625 677.613281 114.355469 677.351562 113.96875 C 677.09375 113.582031 676.800781 113.222656 676.46875 112.894531 C 676.140625 112.566406 675.78125 112.269531 675.394531 112.011719 C 675.007812 111.753906 674.597656 111.535156 674.167969 111.355469 C 673.734375 111.175781 673.292969 111.042969 672.835938 110.953125 C 672.378906 110.859375 671.917969 110.816406 671.449219 110.816406 Z M 664.351562 658.65625 L 404.796875 658.65625 L 404.796875 566.515625 C 415.046875 572.667969 426.765625 576.21875 437.347656 576.390625 C 437.605469 576.390625 437.863281 576.402344 438.121094 576.402344 C 438.585938 576.402344 439.046875 576.359375 439.503906 576.269531 C 439.960938 576.175781 440.40625 576.042969 440.835938 575.863281 C 441.265625 575.683594 441.675781 575.46875 442.0625 575.207031 C 442.449219 574.949219 442.808594 574.65625 443.140625 574.324219 C 443.46875 573.996094 443.761719 573.636719 444.023438 573.25 C 444.28125 572.863281 444.5 572.453125 444.679688 572.023438 C 444.855469 571.589844 444.992188 571.148438 445.082031 570.691406 C 445.171875 570.234375 445.21875 569.773438 445.21875 569.304688 C 445.21875 568.839844 445.171875 568.378906 445.082031 567.921875 C 444.992188 567.464844 444.855469 567.019531 444.679688 566.589844 C 444.5 566.160156 444.28125 565.75 444.023438 565.363281 C 443.761719 564.972656 443.46875 564.617188 443.140625 564.285156 C 442.808594 563.957031 442.449219 563.664062 442.0625 563.402344 C 441.675781 563.144531 441.265625 562.925781 440.835938 562.746094 C 440.40625 562.570312 439.960938 562.433594 439.503906 562.34375 C 439.046875 562.253906 438.585938 562.207031 438.121094 562.207031 C 437.898438 562.207031 437.671875 562.195312 437.453125 562.191406 C 429.023438 562.03125 419.113281 558.824219 410.796875 553.539062 C 409.804688 552.902344 408.746094 552.410156 407.621094 552.0625 C 406.496094 551.714844 405.34375 551.519531 404.164062 551.480469 C 402.988281 551.441406 401.824219 551.558594 400.679688 551.832031 C 399.53125 552.105469 398.441406 552.527344 397.410156 553.09375 C 396.375 553.664062 395.4375 554.355469 394.589844 555.175781 C 393.742188 555.996094 393.019531 556.914062 392.421875 557.929688 C 391.824219 558.945312 391.367188 560.019531 391.058594 561.15625 C 390.75 562.292969 390.597656 563.453125 390.597656 564.632812 L 390.597656 658.65625 L 130.707031 658.65625 L 130.707031 399.097656 L 222.847656 399.097656 C 216.621094 409.476562 213.050781 421.355469 212.964844 432.035156 C 212.964844 432.164062 212.957031 432.296875 212.957031 432.421875 C 212.957031 432.890625 213.003906 433.351562 213.09375 433.808594 C 213.183594 434.265625 213.320312 434.710938 213.496094 435.140625 C 213.675781 435.570312 213.894531 435.980469 214.152344 436.367188 C 214.414062 436.753906 214.707031 437.113281 215.035156 437.441406 C 215.367188 437.773438 215.722656 438.066406 216.113281 438.324219 C 216.5 438.585938 216.910156 438.804688 217.339844 438.980469 C 217.769531 439.160156 218.214844 439.292969 218.671875 439.386719 C 219.128906 439.476562 219.589844 439.523438 220.054688 439.523438 C 220.523438 439.523438 220.984375 439.476562 221.441406 439.386719 C 221.898438 439.292969 222.339844 439.160156 222.773438 438.980469 C 223.203125 438.804688 223.613281 438.585938 224 438.324219 C 224.386719 438.066406 224.746094 437.773438 225.074219 437.441406 C 225.40625 437.113281 225.699219 436.753906 225.957031 436.367188 C 226.21875 435.980469 226.4375 435.570312 226.613281 435.140625 C 226.792969 434.710938 226.925781 434.265625 227.019531 433.808594 C 227.109375 433.351562 227.15625 432.890625 227.15625 432.421875 C 227.15625 432.3125 227.160156 432.199219 227.164062 432.089844 C 227.242188 423.910156 230.238281 414.285156 235.234375 406.0625 C 235.429688 405.738281 235.625 405.414062 235.828125 405.097656 C 236.460938 404.105469 236.953125 403.042969 237.300781 401.917969 C 237.652344 400.792969 237.84375 399.640625 237.882812 398.464844 C 237.921875 397.285156 237.804688 396.121094 237.53125 394.976562 C 237.257812 393.832031 236.835938 392.742188 236.269531 391.707031 C 235.703125 390.675781 235.007812 389.734375 234.1875 388.886719 C 233.367188 388.042969 232.449219 387.320312 231.433594 386.71875 C 230.417969 386.121094 229.34375 385.667969 228.207031 385.359375 C 227.066406 385.046875 225.910156 384.894531 224.730469 384.898438 L 130.707031 384.898438 L 130.707031 125.011719 L 390.265625 125.011719 L 390.265625 217.152344 C 379.761719 210.847656 367.71875 207.261719 356.9375 207.261719 C 356.472656 207.261719 356.011719 207.308594 355.554688 207.398438 C 355.097656 207.488281 354.652344 207.625 354.222656 207.800781 C 353.792969 207.980469 353.382812 208.199219 352.996094 208.457031 C 352.609375 208.71875 352.25 209.011719 351.917969 209.339844 C 351.589844 209.671875 351.296875 210.03125 351.035156 210.417969 C 350.777344 210.804688 350.558594 211.214844 350.382812 211.644531 C 350.203125 212.074219 350.066406 212.519531 349.976562 212.976562 C 349.886719 213.433594 349.839844 213.894531 349.839844 214.359375 C 349.839844 214.828125 349.886719 215.289062 349.976562 215.746094 C 350.066406 216.203125 350.203125 216.648438 350.382812 217.078125 C 350.558594 217.507812 350.777344 217.917969 351.035156 218.304688 C 351.296875 218.691406 351.589844 219.050781 351.917969 219.378906 C 352.25 219.710938 352.609375 220.003906 352.996094 220.261719 C 353.382812 220.523438 353.792969 220.742188 354.222656 220.917969 C 354.652344 221.097656 355.097656 221.230469 355.554688 221.324219 C 356.011719 221.414062 356.472656 221.460938 356.9375 221.460938 C 365.507812 221.460938 375.726562 224.703125 384.261719 230.128906 C 385.253906 230.761719 386.316406 231.253906 387.441406 231.605469 C 388.566406 231.953125 389.71875 232.148438 390.894531 232.1875 C 392.074219 232.226562 393.234375 232.109375 394.382812 231.832031 C 395.527344 231.558594 396.617188 231.140625 397.652344 230.570312 C 398.683594 230.003906 399.625 229.308594 400.46875 228.488281 C 401.316406 227.667969 402.039062 226.753906 402.636719 225.738281 C 403.238281 224.722656 403.691406 223.644531 404 222.507812 C 404.3125 221.371094 404.464844 220.214844 404.460938 219.035156 L 404.460938 125.011719 L 664.351562 125.011719 L 664.351562 384.570312 L 572.214844 384.570312 C 574.726562 380.425781 576.785156 376.066406 578.386719 371.492188 C 579.988281 366.917969 581.101562 362.226562 581.726562 357.421875 C 581.972656 355.371094 582.097656 353.3125 582.101562 351.246094 C 582.101562 350.808594 582.0625 350.375 581.984375 349.949219 C 581.902344 349.519531 581.785156 349.101562 581.628906 348.695312 C 581.472656 348.289062 581.28125 347.902344 581.050781 347.53125 C 580.824219 347.160156 580.566406 346.8125 580.273438 346.488281 C 579.980469 346.164062 579.660156 345.871094 579.316406 345.605469 C 578.96875 345.339844 578.601562 345.109375 578.214844 344.914062 C 577.824219 344.714844 577.421875 344.554688 577.003906 344.433594 C 576.585938 344.308594 576.160156 344.226562 575.726562 344.183594 C 575.683594 344.183594 575.636719 344.183594 575.589844 344.175781 C 575.394531 344.160156 575.203125 344.144531 575 344.144531 C 574.53125 344.144531 574.070312 344.191406 573.613281 344.28125 C 573.15625 344.371094 572.710938 344.507812 572.28125 344.6875 C 571.851562 344.863281 571.441406 345.082031 571.054688 345.34375 C 570.667969 345.601562 570.308594 345.894531 569.980469 346.226562 C 569.648438 346.554688 569.355469 346.914062 569.097656 347.300781 C 568.835938 347.6875 568.617188 348.097656 568.441406 348.527344 C 568.261719 348.957031 568.128906 349.402344 568.035156 349.859375 C 567.945312 350.316406 567.898438 350.777344 567.898438 351.246094 C 567.894531 352.910156 567.785156 354.570312 567.566406 356.222656 C 566.46875 363.761719 563.949219 370.792969 560 377.308594 C 559.746094 377.730469 559.492188 378.152344 559.230469 378.566406 C 558.59375 379.558594 558.101562 380.617188 557.753906 381.746094 C 557.40625 382.871094 557.210938 384.023438 557.171875 385.199219 C 557.132812 386.378906 557.25 387.539062 557.523438 388.6875 C 557.796875 389.832031 558.21875 390.921875 558.785156 391.957031 C 559.355469 392.988281 560.046875 393.929688 560.867188 394.773438 C 561.6875 395.621094 562.605469 396.34375 563.621094 396.941406 C 564.636719 397.542969 565.710938 397.996094 566.851562 398.304688 C 567.988281 398.613281 569.144531 398.769531 570.324219 398.765625 L 664.347656 398.765625 Z M 664.351562 658.65625" fill="#ff94e3"/></g><path fill-rule="nonzero" fill-opacity="1" d="M 438.121094 481.347656 C 433.296875 481.386719 428.554688 482.019531 423.886719 483.242188 C 423.757812 483.277344 423.625 483.304688 423.496094 483.339844 C 423.183594 483.417969 422.875 483.511719 422.5625 483.597656 C 422.164062 483.710938 421.761719 483.816406 421.359375 483.933594 L 421.265625 483.964844 C 415.472656 485.707031 409.984375 488.132812 404.796875 491.242188 L 404.796875 398.765625 L 498.828125 398.765625 C 500.007812 398.765625 501.164062 398.609375 502.296875 398.300781 C 503.433594 397.988281 504.507812 397.535156 505.523438 396.933594 C 506.535156 396.335938 507.453125 395.613281 508.269531 394.765625 C 509.089844 393.921875 509.78125 392.984375 510.351562 391.949219 C 510.917969 390.917969 511.335938 389.832031 511.613281 388.6875 C 511.886719 387.542969 512.003906 386.378906 511.96875 385.203125 C 511.929688 384.027344 511.738281 382.875 511.390625 381.75 C 511.042969 380.625 510.554688 379.566406 509.925781 378.574219 C 506.28125 372.851562 503.722656 366.679688 502.246094 360.058594 C 502.21875 359.925781 502.183594 359.792969 502.15625 359.660156 C 502.121094 359.492188 502.097656 359.324219 502.0625 359.15625 C 501.757812 357.625 501.53125 356.082031 501.386719 354.527344 C 501.386719 354.476562 501.382812 354.425781 501.378906 354.371094 C 501.289062 353.308594 501.238281 352.265625 501.238281 351.242188 C 501.238281 350.777344 501.191406 350.316406 501.101562 349.859375 C 501.011719 349.402344 500.875 348.957031 500.699219 348.527344 C 500.519531 348.097656 500.300781 347.6875 500.042969 347.300781 C 499.78125 346.910156 499.488281 346.554688 499.160156 346.222656 C 498.828125 345.894531 498.472656 345.601562 498.082031 345.339844 C 497.695312 345.082031 497.285156 344.863281 496.855469 344.683594 C 496.425781 344.507812 495.980469 344.371094 495.523438 344.28125 C 495.066406 344.191406 494.605469 344.144531 494.140625 344.144531 C 493.671875 344.144531 493.210938 344.191406 492.753906 344.28125 C 492.296875 344.371094 491.855469 344.507812 491.421875 344.683594 C 490.992188 344.863281 490.582031 345.082031 490.195312 345.339844 C 489.808594 345.601562 489.449219 345.894531 489.121094 346.222656 C 488.789062 346.554688 488.496094 346.910156 488.238281 347.300781 C 487.976562 347.6875 487.757812 348.097656 487.582031 348.527344 C 487.402344 348.957031 487.269531 349.402344 487.175781 349.859375 C 487.085938 350.316406 487.039062 350.777344 487.039062 351.242188 C 487.039062 351.914062 487.054688 352.59375 487.082031 353.277344 C 487.097656 353.636719 487.125 354.003906 487.148438 354.367188 C 487.167969 354.6875 487.179688 355.011719 487.207031 355.335938 C 487.234375 355.699219 487.277344 356.0625 487.316406 356.425781 C 487.347656 356.757812 487.375 357.082031 487.414062 357.414062 C 487.464844 357.839844 487.53125 358.269531 487.589844 358.699219 C 487.625 358.972656 487.65625 359.238281 487.699219 359.511719 C 487.777344 360.011719 487.871094 360.515625 487.960938 361.019531 C 488 361.222656 488.027344 361.421875 488.066406 361.621094 C 488.136719 361.992188 488.21875 362.359375 488.300781 362.730469 C 488.375 363.070312 488.4375 363.40625 488.515625 363.746094 C 488.5625 363.964844 488.621094 364.183594 488.671875 364.402344 C 488.792969 364.890625 488.910156 365.382812 489.027344 365.875 C 489.058594 365.980469 489.089844 366.085938 489.117188 366.195312 C 490.871094 372.679688 493.472656 378.804688 496.925781 384.566406 L 404.460938 384.566406 L 404.460938 290.535156 C 404.460938 289.355469 404.304688 288.199219 403.996094 287.066406 C 403.683594 285.929688 403.230469 284.855469 402.628906 283.839844 C 402.03125 282.828125 401.308594 281.914062 400.460938 281.09375 C 399.617188 280.273438 398.679688 279.582031 397.648438 279.015625 C 396.617188 278.449219 395.527344 278.027344 394.382812 277.753906 C 393.238281 277.476562 392.078125 277.359375 390.898438 277.398438 C 389.722656 277.433594 388.574219 277.625 387.449219 277.972656 C 386.324219 278.320312 385.261719 278.808594 384.269531 279.441406 C 378.007812 283.4375 371.222656 286.117188 363.921875 287.480469 C 363.824219 287.496094 363.726562 287.515625 363.628906 287.53125 C 363.355469 287.578125 363.085938 287.613281 362.8125 287.652344 C 362.515625 287.695312 362.214844 287.746094 361.917969 287.785156 C 361.765625 287.804688 361.621094 287.816406 361.46875 287.835938 C 361.054688 287.886719 360.640625 287.933594 360.226562 287.972656 C 360.082031 287.984375 359.941406 287.988281 359.796875 288 C 358.832031 288.078125 357.875 288.121094 356.941406 288.121094 C 356.476562 288.121094 356.015625 288.164062 355.558594 288.257812 C 355.101562 288.347656 354.65625 288.480469 354.226562 288.660156 C 353.796875 288.839844 353.386719 289.058594 353 289.316406 C 352.613281 289.574219 352.253906 289.871094 351.921875 290.199219 C 351.59375 290.527344 351.300781 290.886719 351.039062 291.273438 C 350.78125 291.664062 350.5625 292.070312 350.382812 292.503906 C 350.207031 292.933594 350.070312 293.375 349.980469 293.832031 C 349.890625 294.289062 349.84375 294.753906 349.84375 295.21875 C 349.84375 295.683594 349.890625 296.144531 349.980469 296.601562 C 350.070312 297.0625 350.207031 297.503906 350.382812 297.933594 C 350.5625 298.367188 350.78125 298.773438 351.039062 299.164062 C 351.300781 299.550781 351.59375 299.910156 351.921875 300.238281 C 352.253906 300.566406 352.613281 300.863281 353 301.121094 C 353.386719 301.378906 353.796875 301.597656 354.226562 301.777344 C 354.65625 301.957031 355.101562 302.089844 355.558594 302.179688 C 356.015625 302.273438 356.476562 302.316406 356.941406 302.316406 C 357.617188 302.316406 358.292969 302.304688 358.976562 302.277344 C 359.355469 302.261719 359.734375 302.230469 360.117188 302.207031 C 360.421875 302.1875 360.726562 302.175781 361.03125 302.152344 C 361.441406 302.117188 361.855469 302.070312 362.265625 302.03125 C 362.550781 302.003906 362.828125 301.980469 363.113281 301.949219 C 363.542969 301.898438 363.972656 301.832031 364.40625 301.773438 C 364.675781 301.734375 364.941406 301.703125 365.210938 301.664062 C 365.582031 301.605469 365.953125 301.535156 366.324219 301.46875 C 366.660156 301.410156 366.992188 301.359375 367.324219 301.296875 C 367.601562 301.242188 367.882812 301.179688 368.160156 301.121094 C 368.589844 301.035156 369.015625 300.949219 369.445312 300.855469 C 369.585938 300.820312 369.730469 300.78125 369.871094 300.75 C 377.097656 299.027344 383.898438 296.257812 390.269531 292.429688 L 390.269531 384.90625 L 296.230469 384.90625 C 295.054688 384.90625 293.898438 385.0625 292.761719 385.375 C 291.628906 385.683594 290.554688 386.140625 289.539062 386.738281 C 288.527344 387.335938 287.613281 388.058594 286.792969 388.90625 C 285.972656 389.75 285.28125 390.6875 284.714844 391.71875 C 284.148438 392.75 283.726562 393.839844 283.453125 394.984375 C 283.179688 396.128906 283.058594 397.289062 283.097656 398.464844 C 283.132812 399.640625 283.324219 400.792969 283.671875 401.917969 C 284.015625 403.042969 284.503906 404.101562 285.136719 405.09375 C 288.839844 410.90625 291.421875 417.175781 292.882812 423.910156 C 292.886719 423.941406 292.894531 423.972656 292.902344 424.003906 C 292.964844 424.292969 293.011719 424.574219 293.066406 424.863281 C 293.121094 425.148438 293.183594 425.453125 293.230469 425.738281 C 293.328125 426.3125 293.414062 426.878906 293.484375 427.445312 C 293.527344 427.75 293.554688 428.054688 293.585938 428.355469 C 293.613281 428.613281 293.648438 428.875 293.671875 429.132812 C 293.695312 429.386719 293.707031 429.636719 293.722656 429.890625 C 293.765625 430.484375 293.789062 431.070312 293.804688 431.652344 C 293.804688 431.90625 293.820312 432.164062 293.820312 432.417969 C 293.820312 432.882812 293.867188 433.34375 293.957031 433.800781 C 294.046875 434.257812 294.183594 434.703125 294.359375 435.132812 C 294.539062 435.566406 294.757812 435.972656 295.015625 436.363281 C 295.277344 436.75 295.570312 437.109375 295.898438 437.4375 C 296.230469 437.765625 296.589844 438.0625 296.976562 438.320312 C 297.363281 438.578125 297.773438 438.796875 298.203125 438.976562 C 298.632812 439.15625 299.078125 439.289062 299.535156 439.378906 C 299.992188 439.472656 300.453125 439.515625 300.917969 439.515625 C 301.386719 439.515625 301.847656 439.472656 302.304688 439.378906 C 302.761719 439.289062 303.207031 439.15625 303.636719 438.976562 C 304.066406 438.796875 304.476562 438.578125 304.863281 438.320312 C 305.25 438.0625 305.609375 437.765625 305.9375 437.4375 C 306.269531 437.109375 306.5625 436.75 306.820312 436.363281 C 307.082031 435.972656 307.300781 435.566406 307.476562 435.132812 C 307.65625 434.703125 307.789062 434.257812 307.882812 433.800781 C 307.972656 433.34375 308.019531 432.882812 308.019531 432.417969 C 308.019531 431.746094 308.003906 431.066406 307.976562 430.386719 C 307.964844 430.054688 307.9375 429.722656 307.917969 429.390625 C 307.894531 429.035156 307.878906 428.679688 307.851562 428.324219 C 307.8125 427.835938 307.757812 427.339844 307.707031 426.847656 C 307.683594 426.644531 307.667969 426.445312 307.644531 426.246094 C 307.566406 425.578125 307.476562 424.90625 307.371094 424.234375 C 307.371094 424.203125 307.363281 424.175781 307.359375 424.144531 C 307.261719 423.519531 307.152344 422.894531 307.035156 422.269531 C 307.019531 422.191406 307.007812 422.113281 306.992188 422.03125 C 306.890625 421.492188 306.773438 420.949219 306.652344 420.40625 C 306.617188 420.242188 306.585938 420.078125 306.550781 419.910156 C 306.457031 419.5 306.351562 419.09375 306.25 418.683594 C 306.175781 418.382812 306.109375 418.082031 306.03125 417.78125 C 305.96875 417.546875 305.894531 417.296875 305.828125 417.054688 C 305.699219 416.582031 305.574219 416.117188 305.433594 415.648438 C 305.421875 415.613281 305.410156 415.574219 305.398438 415.53125 C 303.65625 409.746094 301.234375 404.261719 298.128906 399.082031 L 390.601562 399.082031 L 390.601562 493.113281 C 390.601562 494.292969 390.753906 495.449219 391.0625 496.585938 C 391.371094 497.722656 391.828125 498.796875 392.425781 499.8125 C 393.023438 500.828125 393.746094 501.746094 394.589844 502.566406 C 395.4375 503.386719 396.375 504.082031 397.40625 504.648438 C 398.4375 505.21875 399.527344 505.640625 400.671875 505.914062 C 401.816406 506.1875 402.980469 506.308594 404.15625 506.273438 C 405.332031 506.234375 406.484375 506.042969 407.613281 505.695312 C 408.738281 505.347656 409.796875 504.859375 410.792969 504.226562 C 416.257812 500.75 422.140625 498.257812 428.441406 496.746094 C 431.621094 495.976562 434.847656 495.574219 438.121094 495.542969 C 438.585938 495.542969 439.046875 495.496094 439.503906 495.40625 C 439.964844 495.316406 440.40625 495.179688 440.835938 495 C 441.269531 494.824219 441.675781 494.605469 442.066406 494.34375 C 442.453125 494.085938 442.8125 493.792969 443.140625 493.460938 C 443.46875 493.132812 443.765625 492.773438 444.023438 492.386719 C 444.28125 492 444.5 491.589844 444.679688 491.160156 C 444.859375 490.730469 444.992188 490.285156 445.082031 489.828125 C 445.175781 489.371094 445.21875 488.910156 445.21875 488.441406 C 445.21875 487.976562 445.175781 487.515625 445.082031 487.058594 C 444.992188 486.601562 444.859375 486.15625 444.679688 485.726562 C 444.5 485.296875 444.28125 484.886719 444.023438 484.5 C 443.765625 484.113281 443.46875 483.753906 443.140625 483.421875 C 442.8125 483.09375 442.453125 482.800781 442.066406 482.539062 C 441.675781 482.28125 441.269531 482.0625 440.835938 481.886719 C 440.40625 481.707031 439.964844 481.570312 439.503906 481.480469 C 439.046875 481.390625 438.585938 481.34375 438.121094 481.34375 Z M 438.121094 481.347656" fill="#ff94e3"/><path fill-rule="nonzero" fill-opacity="1" d="M 463.710938 312.976562 C 466.332031 314.675781 469.011719 316.277344 471.746094 317.78125 C 474.484375 319.285156 477.269531 320.691406 480.109375 321.996094 C 482.945312 323.300781 485.824219 324.503906 488.75 325.601562 C 491.671875 326.699219 494.632812 327.6875 497.628906 328.574219 C 500.621094 329.460938 503.644531 330.234375 506.695312 330.902344 C 509.746094 331.570312 512.816406 332.128906 515.910156 332.578125 C 519 333.023438 522.101562 333.359375 525.214844 333.582031 C 528.332031 333.808594 531.449219 333.917969 534.574219 333.917969 C 537.695312 333.917969 540.816406 333.808594 543.929688 333.582031 C 547.046875 333.359375 550.148438 333.023438 553.238281 332.578125 C 556.328125 332.128906 559.402344 331.570312 562.453125 330.902344 C 565.503906 330.234375 568.523438 329.460938 571.519531 328.574219 C 574.515625 327.6875 577.472656 326.699219 580.398438 325.601562 C 583.320312 324.503906 586.203125 323.300781 589.039062 321.996094 C 591.875 320.691406 594.664062 319.285156 597.398438 317.78125 C 600.136719 316.277344 602.816406 314.675781 605.4375 312.976562 C 610.707031 309.558594 615.742188 305.820312 620.542969 301.769531 C 625.347656 297.71875 629.875 293.382812 634.132812 288.761719 C 638.394531 284.144531 642.347656 279.273438 645.992188 274.160156 C 649.640625 269.042969 652.957031 263.722656 655.933594 258.191406 C 656.21875 257.667969 656.433594 257.121094 656.582031 256.542969 C 656.730469 255.96875 656.800781 255.382812 656.800781 254.789062 C 656.800781 254.195312 656.730469 253.609375 656.582031 253.035156 C 656.433594 252.460938 656.21875 251.910156 655.933594 251.390625 C 652.957031 245.859375 649.640625 240.535156 645.992188 235.417969 C 642.347656 230.304688 638.394531 225.4375 634.132812 220.816406 C 629.875 216.195312 625.347656 211.863281 620.542969 207.808594 C 615.742188 203.757812 610.707031 200.023438 605.4375 196.601562 C 602.816406 194.90625 600.136719 193.304688 597.398438 191.796875 C 594.664062 190.292969 591.875 188.886719 589.039062 187.582031 C 586.203125 186.277344 583.320312 185.078125 580.398438 183.980469 C 577.472656 182.882812 574.515625 181.890625 571.519531 181.003906 C 568.523438 180.121094 565.503906 179.34375 562.453125 178.675781 C 559.402344 178.007812 556.328125 177.449219 553.238281 177.003906 C 550.148438 176.554688 547.046875 176.21875 543.929688 175.996094 C 540.816406 175.773438 537.695312 175.660156 534.574219 175.660156 C 531.449219 175.660156 528.332031 175.773438 525.21875 175.996094 C 522.101562 176.21875 519 176.554688 515.910156 177.003906 C 512.816406 177.449219 509.746094 178.007812 506.695312 178.675781 C 503.644531 179.34375 500.621094 180.121094 497.628906 181.003906 C 494.632812 181.890625 491.671875 182.882812 488.75 183.980469 C 485.824219 185.078125 482.945312 186.277344 480.109375 187.582031 C 477.269531 188.886719 474.484375 190.292969 471.746094 191.796875 C 469.011719 193.304688 466.332031 194.90625 463.710938 196.601562 C 458.441406 200.023438 453.40625 203.757812 448.601562 207.808594 C 443.800781 211.863281 439.269531 216.195312 435.011719 220.816406 C 430.753906 225.4375 426.800781 230.304688 423.152344 235.417969 C 419.507812 240.535156 416.191406 245.859375 413.210938 251.390625 C 412.925781 251.910156 412.710938 252.460938 412.566406 253.035156 C 412.417969 253.609375 412.34375 254.195312 412.34375 254.789062 C 412.34375 255.382812 412.417969 255.96875 412.566406 256.542969 C 412.710938 257.121094 412.925781 257.667969 413.210938 258.191406 C 416.191406 263.722656 419.507812 269.042969 423.152344 274.160156 C 426.800781 279.273438 430.753906 284.144531 435.011719 288.761719 C 439.269531 293.382812 443.800781 297.71875 448.601562 301.769531 C 453.40625 305.820312 458.441406 309.558594 463.710938 312.976562 Z M 534.578125 189.855469 C 578.214844 189.855469 617.945312 214.054688 641.566406 254.789062 C 617.945312 295.527344 578.21875 319.722656 534.578125 319.722656 C 490.941406 319.722656 451.214844 295.527344 427.59375 254.789062 C 451.207031 214.054688 490.9375 189.859375 534.574219 189.859375 Z M 534.578125 189.855469" fill="#ff94e3"/><path fill-rule="nonzero" fill-opacity="1" d="M 496.5 295.59375 C 499.050781 297.988281 501.804688 300.121094 504.761719 301.996094 C 507.71875 303.867188 510.824219 305.445312 514.078125 306.730469 C 517.332031 308.015625 520.679688 308.984375 524.117188 309.632812 C 527.558594 310.285156 531.027344 310.605469 534.527344 310.597656 C 535.183594 310.597656 535.84375 310.585938 536.503906 310.566406 C 537.566406 310.527344 538.628906 310.460938 539.691406 310.363281 C 540.753906 310.265625 541.808594 310.136719 542.863281 309.980469 C 543.917969 309.820312 544.964844 309.632812 546.007812 309.414062 C 547.050781 309.195312 548.089844 308.945312 549.117188 308.667969 C 550.144531 308.390625 551.164062 308.085938 552.175781 307.75 C 553.1875 307.414062 554.1875 307.046875 555.179688 306.65625 C 556.167969 306.261719 557.148438 305.839844 558.113281 305.390625 C 559.078125 304.941406 560.03125 304.464844 560.972656 303.960938 C 561.910156 303.457031 562.832031 302.925781 563.742188 302.367188 C 564.648438 301.8125 565.542969 301.230469 566.417969 300.621094 C 567.292969 300.011719 568.148438 299.378906 568.988281 298.722656 C 569.828125 298.066406 570.644531 297.386719 571.445312 296.679688 C 572.246094 295.976562 573.023438 295.25 573.785156 294.5 C 574.542969 293.753906 575.277344 292.984375 575.992188 292.191406 C 576.707031 291.402344 577.398438 290.589844 578.066406 289.761719 C 578.730469 288.929688 579.375 288.082031 579.996094 287.214844 C 580.613281 286.347656 581.207031 285.460938 581.777344 284.5625 C 582.34375 283.660156 582.886719 282.742188 583.402344 281.808594 C 583.917969 280.878906 584.40625 279.933594 584.867188 278.972656 C 585.332031 278.011719 585.765625 277.039062 586.171875 276.054688 C 586.578125 275.066406 586.953125 274.070312 587.304688 273.066406 C 587.652344 272.058594 587.972656 271.042969 588.261719 270.015625 C 588.554688 268.992188 588.8125 267.960938 589.046875 266.917969 C 589.277344 265.878906 589.480469 264.832031 589.652344 263.78125 C 589.820312 262.730469 589.964844 261.671875 590.074219 260.613281 C 590.1875 259.554688 590.265625 258.492188 590.316406 257.429688 C 590.367188 256.363281 590.386719 255.296875 590.375 254.234375 C 590.367188 253.167969 590.324219 252.101562 590.253906 251.039062 C 590.179688 249.976562 590.078125 248.917969 589.945312 247.859375 C 589.8125 246.800781 589.652344 245.75 589.460938 244.699219 C 589.265625 243.652344 589.042969 242.613281 588.792969 241.574219 C 588.539062 240.539062 588.257812 239.511719 587.945312 238.496094 C 587.636719 237.476562 587.292969 236.464844 586.925781 235.464844 C 586.558594 234.464844 586.160156 233.476562 585.734375 232.5 C 585.308594 231.523438 584.855469 230.5625 584.375 229.609375 C 583.894531 228.660156 583.386719 227.722656 582.851562 226.800781 C 582.316406 225.878906 581.757812 224.972656 581.167969 224.082031 C 580.582031 223.195312 579.972656 222.320312 579.335938 221.464844 C 578.699219 220.613281 578.039062 219.777344 577.355469 218.960938 C 576.671875 218.140625 575.964844 217.34375 575.234375 216.570312 C 574.503906 215.792969 573.753906 215.039062 572.980469 214.304688 C 572.207031 213.570312 571.414062 212.859375 570.597656 212.171875 C 569.785156 211.484375 568.953125 210.820312 568.101562 210.179688 C 567.25 209.539062 566.378906 208.925781 565.492188 208.335938 C 564.605469 207.746094 563.703125 207.179688 562.78125 206.640625 C 561.863281 206.101562 560.929688 205.589844 559.980469 205.105469 C 559.03125 204.621094 558.070312 204.164062 557.09375 203.734375 C 556.121094 203.304688 555.132812 202.902344 554.136719 202.527344 C 553.136719 202.152344 552.128906 201.808594 551.113281 201.492188 C 550.09375 201.179688 549.066406 200.890625 548.035156 200.632812 C 547 200.378906 545.957031 200.148438 544.910156 199.953125 C 543.863281 199.753906 542.8125 199.589844 541.757812 199.449219 C 540.699219 199.3125 539.640625 199.207031 538.578125 199.128906 C 537.515625 199.054688 536.449219 199.007812 535.382812 198.992188 C 534.320312 198.976562 533.253906 198.992188 532.1875 199.039062 C 531.125 199.082031 530.0625 199.160156 529 199.265625 C 527.941406 199.371094 526.886719 199.507812 525.832031 199.675781 C 524.78125 199.84375 523.734375 200.039062 522.691406 200.265625 C 521.652344 200.492188 520.617188 200.75 519.589844 201.035156 C 518.5625 201.320312 517.546875 201.636719 516.539062 201.980469 C 515.53125 202.324219 514.53125 202.699219 513.546875 203.101562 C 512.558594 203.5 511.582031 203.929688 510.621094 204.386719 C 509.660156 204.847656 508.710938 205.332031 507.773438 205.84375 C 506.839844 206.355469 505.921875 206.890625 505.015625 207.457031 C 504.113281 208.019531 503.226562 208.609375 502.355469 209.226562 C 501.488281 209.839844 500.636719 210.480469 499.800781 211.144531 C 498.96875 211.808594 498.152344 212.496094 497.359375 213.207031 C 496.566406 213.917969 495.792969 214.648438 495.039062 215.402344 C 494.289062 216.160156 493.558594 216.933594 492.851562 217.730469 C 492.144531 218.527344 491.460938 219.34375 490.796875 220.179688 C 490.136719 221.015625 489.5 221.871094 488.890625 222.742188 C 488.277344 223.613281 487.691406 224.503906 487.128906 225.410156 C 486.570312 226.316406 486.035156 227.238281 485.527344 228.171875 C 485.015625 229.109375 484.535156 230.0625 484.082031 231.023438 C 483.628906 231.988281 483.203125 232.964844 482.804688 233.953125 C 482.40625 234.941406 482.039062 235.941406 481.695312 236.949219 C 481.355469 237.960938 481.042969 238.980469 480.761719 240.007812 C 480.480469 241.035156 480.226562 242.070312 480.003906 243.109375 C 479.78125 244.152344 479.589844 245.199219 479.425781 246.253906 C 479.261719 247.304688 479.128906 248.363281 479.027344 249.425781 C 478.925781 250.484375 478.851562 251.546875 478.8125 252.613281 C 478.769531 253.675781 478.757812 254.742188 478.777344 255.808594 C 478.796875 256.871094 478.847656 257.9375 478.925781 259 C 479.007812 260.0625 479.117188 261.121094 479.257812 262.175781 C 479.398438 263.234375 479.570312 264.285156 479.773438 265.332031 C 479.972656 266.378906 480.203125 267.417969 480.464844 268.449219 C 480.726562 269.484375 481.015625 270.507812 481.335938 271.527344 C 481.65625 272.542969 482.003906 273.546875 482.378906 274.546875 C 482.757812 275.542969 483.164062 276.527344 483.597656 277.5 C 484.03125 278.472656 484.492188 279.433594 484.980469 280.378906 C 485.46875 281.328125 485.984375 282.261719 486.527344 283.175781 C 487.066406 284.09375 487.636719 284.996094 488.230469 285.882812 C 488.824219 286.765625 489.441406 287.632812 490.085938 288.484375 C 490.726562 289.332031 491.394531 290.164062 492.085938 290.972656 C 492.777344 291.785156 493.492188 292.574219 494.226562 293.347656 C 494.964844 294.117188 495.722656 294.867188 496.5 295.59375 Z M 533.136719 213.207031 C 533.625 213.1875 534.105469 213.179688 534.59375 213.179688 C 535.496094 213.183594 536.398438 213.210938 537.300781 213.269531 C 538.199219 213.328125 539.097656 213.417969 539.996094 213.535156 C 540.890625 213.652344 541.78125 213.800781 542.667969 213.976562 C 543.554688 214.152344 544.433594 214.355469 545.304688 214.589844 C 546.179688 214.820312 547.042969 215.082031 547.898438 215.371094 C 548.753906 215.660156 549.601562 215.976562 550.4375 216.324219 C 551.269531 216.667969 552.09375 217.039062 552.90625 217.433594 C 553.714844 217.832031 554.515625 218.257812 555.296875 218.707031 C 556.082031 219.15625 556.847656 219.632812 557.601562 220.132812 C 558.355469 220.632812 559.089844 221.15625 559.808594 221.703125 C 560.527344 222.25 561.226562 222.820312 561.90625 223.414062 C 562.589844 224.007812 563.25 224.621094 563.890625 225.257812 C 564.53125 225.894531 565.152344 226.550781 565.75 227.226562 C 566.351562 227.902344 566.925781 228.597656 567.480469 229.3125 C 568.03125 230.027344 568.5625 230.757812 569.066406 231.507812 C 569.574219 232.257812 570.054688 233.019531 570.511719 233.800781 C 570.964844 234.582031 571.394531 235.375 571.800781 236.183594 C 572.203125 236.992188 572.582031 237.8125 572.933594 238.644531 C 573.285156 239.476562 573.605469 240.320312 573.902344 241.171875 C 574.199219 242.027344 574.464844 242.886719 574.707031 243.757812 C 574.945312 244.628906 575.15625 245.507812 575.339844 246.394531 C 575.523438 247.277344 575.675781 248.167969 575.800781 249.0625 C 575.925781 249.957031 576.019531 250.855469 576.085938 251.753906 C 576.152344 252.65625 576.191406 253.558594 576.199219 254.460938 C 576.207031 255.367188 576.183594 256.269531 576.132812 257.171875 C 576.082031 258.070312 576 258.972656 575.890625 259.867188 C 575.78125 260.765625 575.640625 261.65625 575.472656 262.542969 C 575.304688 263.433594 575.109375 264.3125 574.882812 265.1875 C 574.660156 266.0625 574.40625 266.929688 574.125 267.789062 C 573.84375 268.644531 573.53125 269.496094 573.195312 270.332031 C 572.859375 271.171875 572.496094 271.996094 572.105469 272.8125 C 571.714844 273.625 571.296875 274.425781 570.855469 275.214844 C 570.410156 276.003906 569.941406 276.773438 569.449219 277.53125 C 568.957031 278.289062 568.4375 279.027344 567.898438 279.75 C 567.355469 280.476562 566.792969 281.179688 566.203125 281.867188 C 565.617188 282.550781 565.007812 283.21875 564.378906 283.867188 C 563.746094 284.511719 563.097656 285.136719 562.425781 285.742188 C 561.753906 286.347656 561.0625 286.929688 560.355469 287.488281 C 559.644531 288.046875 558.917969 288.585938 558.171875 289.097656 C 557.429688 289.609375 556.667969 290.097656 555.894531 290.558594 C 555.117188 291.023438 554.328125 291.457031 553.523438 291.871094 C 552.71875 292.28125 551.902344 292.664062 551.074219 293.023438 C 550.242188 293.382812 549.402344 293.710938 548.550781 294.015625 C 547.703125 294.320312 546.839844 294.59375 545.972656 294.84375 C 545.105469 295.089844 544.226562 295.308594 543.34375 295.5 C 542.460938 295.6875 541.574219 295.851562 540.679688 295.984375 C 539.785156 296.117188 538.890625 296.21875 537.988281 296.292969 C 537.089844 296.367188 536.1875 296.410156 535.28125 296.425781 C 534.378906 296.441406 533.476562 296.429688 532.574219 296.386719 C 531.671875 296.34375 530.773438 296.269531 529.875 296.167969 C 528.976562 296.066406 528.082031 295.933594 527.195312 295.773438 C 526.304688 295.613281 525.421875 295.425781 524.546875 295.207031 C 523.667969 294.988281 522.800781 294.746094 521.9375 294.46875 C 521.078125 294.195312 520.226562 293.894531 519.386719 293.5625 C 518.546875 293.234375 517.714844 292.878906 516.898438 292.496094 C 516.078125 292.109375 515.273438 291.699219 514.484375 291.265625 C 513.691406 290.828125 512.917969 290.367188 512.15625 289.882812 C 511.394531 289.394531 510.648438 288.882812 509.921875 288.347656 C 509.195312 287.8125 508.484375 287.253906 507.792969 286.675781 C 507.101562 286.09375 506.429688 285.492188 505.777344 284.867188 C 505.125 284.242188 504.492188 283.59375 503.882812 282.929688 C 503.273438 282.261719 502.683594 281.578125 502.117188 280.875 C 501.554688 280.167969 501.011719 279.445312 500.492188 278.707031 C 499.972656 277.96875 499.480469 277.210938 499.007812 276.441406 C 498.539062 275.667969 498.097656 274.882812 497.679688 274.082031 C 497.257812 273.28125 496.867188 272.46875 496.503906 271.640625 C 496.136719 270.8125 495.800781 269.976562 495.488281 269.128906 C 495.175781 268.28125 494.894531 267.421875 494.640625 266.554688 C 494.382812 265.691406 494.15625 264.816406 493.960938 263.933594 C 493.761719 263.054688 493.59375 262.164062 493.453125 261.273438 C 493.3125 260.382812 493.199219 259.484375 493.117188 258.585938 C 493.035156 257.6875 492.984375 256.785156 492.960938 255.882812 C 492.9375 254.976562 492.945312 254.074219 492.980469 253.171875 C 493.015625 252.269531 493.078125 251.371094 493.171875 250.46875 C 493.269531 249.570312 493.390625 248.675781 493.542969 247.789062 C 493.695312 246.898438 493.875 246.011719 494.085938 245.132812 C 494.296875 244.253906 494.535156 243.382812 494.800781 242.519531 C 495.070312 241.65625 495.363281 240.804688 495.683594 239.960938 C 496.007812 239.117188 496.355469 238.285156 496.734375 237.460938 C 497.109375 236.640625 497.511719 235.832031 497.941406 235.039062 C 498.371094 234.242188 498.824219 233.460938 499.304688 232.695312 C 499.785156 231.933594 500.289062 231.183594 500.816406 230.449219 C 501.347656 229.71875 501.898438 229.003906 502.472656 228.304688 C 503.046875 227.609375 503.644531 226.933594 504.265625 226.273438 C 504.882812 225.617188 505.523438 224.980469 506.183594 224.363281 C 506.84375 223.746094 507.523438 223.152344 508.226562 222.582031 C 508.925781 222.011719 509.640625 221.460938 510.375 220.9375 C 511.113281 220.410156 511.863281 219.910156 512.628906 219.433594 C 513.398438 218.957031 514.179688 218.507812 514.976562 218.082031 C 515.773438 217.65625 516.585938 217.257812 517.40625 216.886719 C 518.230469 216.511719 519.066406 216.167969 519.910156 215.847656 C 520.757812 215.53125 521.609375 215.242188 522.476562 214.976562 C 523.339844 214.714844 524.210938 214.480469 525.089844 214.277344 C 525.972656 214.070312 526.855469 213.894531 527.746094 213.746094 C 528.640625 213.597656 529.535156 213.476562 530.433594 213.386719 C 531.332031 213.296875 532.234375 213.238281 533.136719 213.207031 Z M 533.136719 213.207031" fill="#ff94e3"/><path fill-rule="nonzero" fill-opacity="1" d="M 515.109375 275.652344 C 516.414062 276.878906 517.820312 277.96875 519.332031 278.925781 C 520.84375 279.882812 522.429688 280.691406 524.09375 281.347656 C 525.761719 282.003906 527.472656 282.5 529.230469 282.832031 C 530.988281 283.164062 532.761719 283.328125 534.550781 283.324219 C 534.886719 283.324219 535.222656 283.324219 535.5625 283.308594 C 536.652344 283.269531 537.734375 283.171875 538.8125 283.007812 C 539.890625 282.847656 540.957031 282.625 542.011719 282.339844 C 543.0625 282.054688 544.097656 281.710938 545.109375 281.308594 C 546.125 280.90625 547.113281 280.449219 548.074219 279.929688 C 549.035156 279.414062 549.960938 278.847656 550.859375 278.222656 C 551.753906 277.601562 552.609375 276.929688 553.429688 276.210938 C 554.246094 275.488281 555.023438 274.722656 555.753906 273.914062 C 556.484375 273.105469 557.167969 272.257812 557.800781 271.371094 C 558.433594 270.480469 559.015625 269.5625 559.542969 268.605469 C 560.070312 267.652344 560.542969 266.671875 560.957031 265.664062 C 561.375 264.652344 561.730469 263.625 562.027344 262.574219 C 562.324219 261.527344 562.5625 260.464844 562.738281 259.386719 C 562.914062 258.3125 563.027344 257.226562 563.078125 256.140625 C 563.128906 255.050781 563.121094 253.960938 563.046875 252.871094 C 562.972656 251.785156 562.839844 250.703125 562.640625 249.632812 C 562.445312 248.558594 562.1875 247.5 561.867188 246.457031 C 561.546875 245.414062 561.171875 244.394531 560.734375 243.394531 C 560.300781 242.394531 559.808594 241.421875 559.261719 240.476562 C 558.714844 239.535156 558.117188 238.625 557.464844 237.75 C 556.8125 236.875 556.113281 236.039062 555.367188 235.246094 C 554.621094 234.453125 553.832031 233.703125 552.996094 232.996094 C 552.164062 232.292969 551.292969 231.640625 550.386719 231.035156 C 549.476562 230.429688 548.539062 229.878906 547.566406 229.382812 C 546.597656 228.886719 545.601562 228.449219 544.578125 228.066406 C 543.558594 227.683594 542.515625 227.359375 541.460938 227.097656 C 540.402344 226.835938 539.332031 226.632812 538.25 226.492188 C 537.167969 226.351562 536.082031 226.273438 534.992188 226.257812 C 533.898438 226.242188 532.8125 226.289062 531.726562 226.398438 C 530.640625 226.507812 529.566406 226.675781 528.5 226.910156 C 527.433594 227.140625 526.386719 227.433594 525.355469 227.785156 C 524.324219 228.136719 523.3125 228.546875 522.328125 229.015625 C 521.34375 229.484375 520.386719 230.007812 519.464844 230.585938 C 518.539062 231.164062 517.648438 231.792969 516.796875 232.472656 C 515.941406 233.152344 515.132812 233.875 514.363281 234.648438 C 513.59375 235.421875 512.867188 236.234375 512.191406 237.089844 C 511.515625 237.945312 510.890625 238.839844 510.316406 239.765625 C 509.742188 240.691406 509.222656 241.648438 508.757812 242.636719 C 508.292969 243.625 507.886719 244.632812 507.539062 245.667969 C 507.191406 246.699219 506.902344 247.75 506.671875 248.816406 C 506.445312 249.882812 506.277344 250.960938 506.171875 252.046875 C 506.066406 253.128906 506.027344 254.21875 506.046875 255.308594 C 506.066406 256.398438 506.148438 257.484375 506.292969 258.566406 C 506.4375 259.648438 506.640625 260.714844 506.910156 261.773438 C 507.175781 262.832031 507.503906 263.871094 507.886719 264.890625 C 508.273438 265.910156 508.71875 266.90625 509.21875 267.875 C 509.71875 268.84375 510.269531 269.78125 510.878906 270.6875 C 511.484375 271.59375 512.144531 272.460938 512.851562 273.289062 C 513.558594 274.121094 514.308594 274.910156 515.109375 275.652344 Z M 534.078125 240.464844 C 534.25 240.457031 534.417969 240.453125 534.589844 240.453125 C 535.210938 240.453125 535.832031 240.492188 536.453125 240.574219 C 537.070312 240.65625 537.679688 240.773438 538.285156 240.933594 C 538.886719 241.09375 539.476562 241.292969 540.054688 241.53125 C 540.632812 241.765625 541.191406 242.039062 541.730469 242.351562 C 542.273438 242.660156 542.792969 243.003906 543.289062 243.382812 C 543.785156 243.757812 544.253906 244.167969 544.699219 244.605469 C 545.140625 245.042969 545.554688 245.507812 545.9375 246.003906 C 546.320312 246.496094 546.671875 247.011719 546.984375 247.546875 C 547.300781 248.085938 547.582031 248.640625 547.824219 249.21875 C 548.066406 249.792969 548.273438 250.378906 548.4375 250.980469 C 548.605469 251.582031 548.730469 252.191406 548.816406 252.808594 C 548.90625 253.425781 548.953125 254.046875 548.957031 254.671875 C 548.964844 255.292969 548.929688 255.917969 548.855469 256.535156 C 548.78125 257.15625 548.664062 257.765625 548.511719 258.371094 C 548.355469 258.976562 548.164062 259.566406 547.929688 260.144531 C 547.699219 260.726562 547.429688 261.285156 547.125 261.832031 C 546.820312 262.375 546.480469 262.898438 546.109375 263.398438 C 545.734375 263.898438 545.332031 264.371094 544.894531 264.816406 C 544.460938 265.265625 544 265.683594 543.511719 266.070312 C 543.019531 266.457031 542.507812 266.808594 541.972656 267.128906 C 541.4375 267.449219 540.886719 267.734375 540.3125 267.984375 C 539.742188 268.230469 539.152344 268.441406 538.554688 268.613281 C 537.953125 268.785156 537.347656 268.917969 536.730469 269.007812 C 536.113281 269.101562 535.492188 269.152344 534.867188 269.164062 C 534.246094 269.175781 533.625 269.148438 533.003906 269.078125 C 532.382812 269.007812 531.769531 268.898438 531.164062 268.75 C 530.558594 268.601562 529.964844 268.414062 529.386719 268.1875 C 528.804688 267.960938 528.238281 267.695312 527.691406 267.394531 C 527.144531 267.097656 526.621094 266.761719 526.117188 266.394531 C 525.613281 266.023438 525.136719 265.625 524.6875 265.195312 C 524.234375 264.761719 523.8125 264.304688 523.421875 263.820312 C 523.03125 263.332031 522.671875 262.824219 522.347656 262.292969 C 522.023438 261.761719 521.734375 261.207031 521.480469 260.636719 C 521.226562 260.070312 521.011719 259.484375 520.835938 258.886719 C 520.65625 258.289062 520.519531 257.679688 520.421875 257.066406 C 520.324219 256.449219 520.265625 255.828125 520.25 255.207031 C 520.234375 254.582031 520.257812 253.960938 520.320312 253.339844 C 520.382812 252.71875 520.488281 252.105469 520.632812 251.5 C 520.777344 250.890625 520.957031 250.296875 521.179688 249.714844 C 521.402344 249.128906 521.660156 248.5625 521.957031 248.015625 C 522.25 247.464844 522.582031 246.9375 522.945312 246.429688 C 523.308594 245.925781 523.703125 245.441406 524.132812 244.988281 C 524.558594 244.535156 525.011719 244.109375 525.496094 243.710938 C 525.976562 243.316406 526.480469 242.953125 527.011719 242.625 C 527.542969 242.292969 528.089844 242 528.65625 241.742188 C 529.226562 241.484375 529.808594 241.265625 530.40625 241.082031 C 531 240.898438 531.605469 240.757812 532.222656 240.652344 C 532.835938 240.550781 533.457031 240.484375 534.078125 240.464844 Z M 534.078125 240.464844" fill="#ff94e3"/><path fill-rule="nonzero" fill-opacity="1" d="M 366.476562 464.660156 L 356.675781 464.660156 L 356.675781 447.460938 C 356.675781 446.914062 356.613281 446.375 356.488281 445.84375 C 356.363281 445.3125 356.179688 444.800781 355.9375 444.3125 C 355.695312 443.824219 355.402344 443.367188 355.054688 442.945312 C 354.707031 442.527344 354.316406 442.148438 353.882812 441.816406 C 353.449219 441.488281 352.984375 441.207031 352.488281 440.984375 C 351.988281 440.761719 351.472656 440.597656 350.9375 440.492188 C 350.402344 440.386719 349.859375 440.34375 349.316406 440.363281 C 348.769531 440.386719 348.234375 440.46875 347.707031 440.609375 L 260.488281 464.398438 L 173.265625 440.609375 C 172.738281 440.46875 172.203125 440.386719 171.660156 440.363281 C 171.113281 440.34375 170.574219 440.386719 170.039062 440.492188 C 169.5 440.597656 168.984375 440.761719 168.488281 440.984375 C 167.988281 441.207031 167.523438 441.488281 167.089844 441.816406 C 166.65625 442.148438 166.265625 442.527344 165.917969 442.945312 C 165.570312 443.367188 165.277344 443.824219 165.035156 444.3125 C 164.792969 444.800781 164.609375 445.3125 164.484375 445.84375 C 164.363281 446.375 164.300781 446.914062 164.300781 447.460938 L 164.300781 464.660156 L 154.496094 464.660156 C 154.03125 464.660156 153.566406 464.703125 153.109375 464.792969 C 152.652344 464.886719 152.210938 465.019531 151.777344 465.199219 C 151.347656 465.378906 150.941406 465.59375 150.550781 465.855469 C 150.164062 466.113281 149.804688 466.40625 149.476562 466.738281 C 149.148438 467.066406 148.851562 467.425781 148.59375 467.8125 C 148.335938 468.199219 148.117188 468.609375 147.9375 469.039062 C 147.757812 469.472656 147.625 469.914062 147.535156 470.371094 C 147.441406 470.828125 147.398438 471.289062 147.398438 471.757812 L 147.398438 610.296875 C 147.398438 610.765625 147.441406 611.226562 147.535156 611.683594 C 147.625 612.140625 147.757812 612.582031 147.9375 613.015625 C 148.117188 613.445312 148.335938 613.855469 148.59375 614.242188 C 148.851562 614.628906 149.148438 614.988281 149.476562 615.316406 C 149.804688 615.648438 150.164062 615.941406 150.550781 616.199219 C 150.941406 616.457031 151.347656 616.675781 151.777344 616.855469 C 152.210938 617.035156 152.652344 617.167969 153.109375 617.261719 C 153.566406 617.351562 154.03125 617.394531 154.496094 617.394531 L 366.476562 617.394531 C 366.945312 617.394531 367.40625 617.351562 367.863281 617.261719 C 368.320312 617.167969 368.761719 617.035156 369.195312 616.855469 C 369.625 616.675781 370.035156 616.457031 370.421875 616.199219 C 370.808594 615.941406 371.167969 615.648438 371.496094 615.316406 C 371.828125 614.988281 372.121094 614.628906 372.378906 614.242188 C 372.636719 613.855469 372.855469 613.445312 373.035156 613.015625 C 373.214844 612.582031 373.347656 612.140625 373.441406 611.683594 C 373.53125 611.226562 373.574219 610.765625 373.574219 610.296875 L 373.574219 471.757812 C 373.574219 471.289062 373.53125 470.828125 373.4375 470.371094 C 373.347656 469.914062 373.214844 469.472656 373.035156 469.039062 C 372.855469 468.609375 372.636719 468.199219 372.378906 467.8125 C 372.121094 467.425781 371.828125 467.066406 371.496094 466.738281 C 371.167969 466.40625 370.808594 466.113281 370.421875 465.855469 C 370.035156 465.59375 369.625 465.378906 369.195312 465.199219 C 368.761719 465.019531 368.320312 464.886719 367.863281 464.792969 C 367.40625 464.703125 366.945312 464.660156 366.476562 464.660156 Z M 342.476562 471.710938 C 342.476562 471.726562 342.476562 471.742188 342.476562 471.757812 C 342.476562 471.773438 342.476562 471.789062 342.476562 471.804688 L 342.476562 580.574219 L 267.585938 601.003906 L 267.585938 477.179688 L 342.476562 456.753906 Z M 178.5 456.753906 L 253.390625 477.179688 L 253.390625 601.003906 L 178.5 580.578125 Z M 161.597656 478.855469 L 164.300781 478.855469 L 164.300781 585.996094 C 164.300781 586.773438 164.425781 587.535156 164.675781 588.269531 C 164.925781 589.007812 165.289062 589.6875 165.757812 590.304688 C 166.230469 590.921875 166.792969 591.449219 167.4375 591.886719 C 168.082031 592.320312 168.78125 592.640625 169.53125 592.84375 L 207.484375 603.195312 L 161.59375 603.195312 Z M 359.382812 603.199219 L 313.492188 603.199219 L 351.441406 592.847656 C 352.195312 592.640625 352.890625 592.320312 353.539062 591.886719 C 354.183594 591.453125 354.742188 590.925781 355.214844 590.308594 C 355.6875 589.6875 356.050781 589.011719 356.296875 588.273438 C 356.546875 587.535156 356.671875 586.777344 356.671875 586 L 356.671875 478.855469 L 359.378906 478.855469 Z M 359.382812 603.199219" fill="#ff94e3"/><path fill-rule="nonzero" fill-opacity="1" d="M 251.660156 344.429688 L 269.164062 344.445312 L 269.171875 344.445312 C 270.175781 344.445312 271.167969 344.347656 272.152344 344.152344 C 273.136719 343.957031 274.089844 343.667969 275.015625 343.285156 C 275.945312 342.898438 276.824219 342.429688 277.65625 341.875 C 278.492188 341.316406 279.261719 340.683594 279.972656 339.976562 C 280.679688 339.265625 281.316406 338.496094 281.871094 337.664062 C 282.429688 336.828125 282.902344 335.949219 283.285156 335.023438 C 283.667969 334.097656 283.960938 333.144531 284.15625 332.160156 C 284.351562 331.175781 284.449219 330.183594 284.453125 329.183594 L 284.453125 322.746094 C 284.445312 322.535156 284.496094 322.34375 284.605469 322.167969 C 284.71875 321.988281 284.867188 321.859375 285.058594 321.773438 C 286.839844 321.121094 288.621094 320.382812 290.347656 319.585938 C 290.542969 319.507812 290.746094 319.492188 290.949219 319.539062 C 291.15625 319.585938 291.332031 319.683594 291.476562 319.839844 L 296.03125 324.398438 C 296.738281 325.105469 297.511719 325.738281 298.34375 326.296875 C 299.179688 326.851562 300.058594 327.324219 300.984375 327.707031 C 301.910156 328.089844 302.867188 328.378906 303.847656 328.574219 C 304.832031 328.773438 305.824219 328.871094 306.828125 328.871094 C 307.832031 328.871094 308.824219 328.773438 309.808594 328.582031 C 310.789062 328.386719 311.746094 328.097656 312.671875 327.714844 C 313.597656 327.332031 314.480469 326.863281 315.316406 326.308594 C 316.148438 325.753906 316.921875 325.121094 317.632812 324.414062 L 330.019531 312.046875 C 330.730469 311.335938 331.359375 310.566406 331.917969 309.730469 C 332.476562 308.898438 332.945312 308.019531 333.328125 307.089844 C 333.710938 306.164062 334.003906 305.210938 334.199219 304.226562 C 334.394531 303.246094 334.492188 302.25 334.492188 301.25 C 334.496094 300.246094 334.398438 299.253906 334.203125 298.269531 C 334.007812 297.285156 333.71875 296.332031 333.335938 295.40625 C 332.957031 294.476562 332.488281 293.597656 331.929688 292.761719 C 331.375 291.929688 330.742188 291.15625 330.035156 290.445312 L 325.488281 285.890625 C 325.332031 285.742188 325.234375 285.566406 325.1875 285.363281 C 325.140625 285.15625 325.15625 284.953125 325.234375 284.757812 C 326.035156 283.039062 326.773438 281.261719 327.429688 279.476562 C 327.515625 279.285156 327.648438 279.132812 327.824219 279.023438 C 328 278.914062 328.195312 278.863281 328.402344 278.871094 L 334.847656 278.871094 C 335.847656 278.871094 336.839844 278.769531 337.824219 278.574219 C 338.804688 278.378906 339.761719 278.089844 340.6875 277.703125 C 341.613281 277.320312 342.492188 276.851562 343.324219 276.292969 C 344.160156 275.738281 344.929688 275.105469 345.640625 274.398438 C 346.347656 273.6875 346.980469 272.917969 347.539062 272.085938 C 348.097656 271.253906 348.566406 270.375 348.953125 269.449219 C 349.335938 268.523438 349.628906 267.570312 349.824219 266.585938 C 350.023438 265.601562 350.121094 264.609375 350.125 263.609375 L 350.140625 246.105469 C 350.136719 245.101562 350.039062 244.109375 349.84375 243.125 C 349.648438 242.140625 349.359375 241.1875 348.976562 240.261719 C 348.59375 239.335938 348.121094 238.453125 347.566406 237.621094 C 347.007812 236.785156 346.378906 236.015625 345.667969 235.304688 C 344.960938 234.597656 344.191406 233.960938 343.355469 233.40625 C 342.523438 232.847656 341.644531 232.375 340.71875 231.992188 C 339.792969 231.605469 338.839844 231.316406 337.855469 231.117188 C 336.871094 230.921875 335.878906 230.820312 334.875 230.820312 L 328.441406 230.820312 C 328.234375 230.828125 328.039062 230.773438 327.863281 230.664062 C 327.6875 230.554688 327.554688 230.402344 327.46875 230.210938 C 326.816406 228.429688 326.078125 226.652344 325.28125 224.921875 C 325.203125 224.726562 325.1875 224.527344 325.234375 224.320312 C 325.28125 224.113281 325.382812 223.9375 325.535156 223.796875 L 330.09375 219.246094 C 330.800781 218.535156 331.433594 217.765625 331.992188 216.933594 C 332.546875 216.097656 333.019531 215.21875 333.402344 214.292969 C 333.785156 213.367188 334.078125 212.410156 334.273438 211.429688 C 334.46875 210.445312 334.566406 209.453125 334.566406 208.449219 C 334.570312 207.445312 334.472656 206.453125 334.277344 205.46875 C 334.082031 204.488281 333.796875 203.53125 333.414062 202.605469 C 333.03125 201.679688 332.5625 200.796875 332.003906 199.964844 C 331.449219 199.128906 330.820312 198.355469 330.109375 197.644531 L 317.746094 185.265625 C 316.316406 183.828125 314.667969 182.71875 312.796875 181.941406 C 310.921875 181.164062 308.972656 180.777344 306.949219 180.78125 L 306.9375 180.78125 C 304.914062 180.773438 302.964844 181.160156 301.09375 181.933594 C 299.222656 182.707031 297.574219 183.8125 296.144531 185.246094 L 291.585938 189.796875 C 291.441406 189.949219 291.265625 190.046875 291.058594 190.09375 C 290.855469 190.140625 290.652344 190.125 290.457031 190.046875 C 288.730469 189.246094 286.953125 188.507812 285.171875 187.851562 C 284.980469 187.765625 284.832031 187.636719 284.722656 187.457031 C 284.609375 187.28125 284.558594 187.085938 284.566406 186.878906 L 284.566406 180.441406 C 284.566406 179.441406 284.46875 178.445312 284.273438 177.464844 C 284.078125 176.480469 283.789062 175.527344 283.402344 174.597656 C 283.019531 173.671875 282.550781 172.792969 281.992188 171.960938 C 281.4375 171.125 280.804688 170.355469 280.097656 169.644531 C 279.386719 168.933594 278.617188 168.300781 277.785156 167.742188 C 276.953125 167.183594 276.070312 166.714844 275.144531 166.328125 C 274.21875 165.945312 273.265625 165.652344 272.28125 165.457031 C 271.300781 165.257812 270.308594 165.160156 269.304688 165.15625 L 251.800781 165.144531 L 251.789062 165.144531 C 250.785156 165.144531 249.792969 165.242188 248.808594 165.4375 C 247.828125 165.632812 246.871094 165.921875 245.945312 166.304688 C 245.019531 166.6875 244.140625 167.15625 243.304688 167.714844 C 242.472656 168.273438 241.703125 168.902344 240.992188 169.613281 C 240.285156 170.320312 239.652344 171.09375 239.09375 171.925781 C 238.535156 172.757812 238.066406 173.636719 237.679688 174.5625 C 237.296875 175.488281 237.007812 176.445312 236.8125 177.425781 C 236.613281 178.410156 236.515625 179.402344 236.515625 180.40625 L 236.515625 186.84375 C 236.523438 187.050781 236.472656 187.242188 236.359375 187.421875 C 236.25 187.597656 236.097656 187.730469 235.90625 187.8125 C 234.117188 188.472656 232.335938 189.207031 230.621094 190 C 230.425781 190.078125 230.222656 190.09375 230.015625 190.046875 C 229.8125 190 229.636719 189.902344 229.492188 189.746094 L 224.941406 185.191406 C 223.511719 183.753906 221.863281 182.644531 219.992188 181.867188 C 218.121094 181.089844 216.171875 180.703125 214.144531 180.707031 L 214.136719 180.707031 C 212.109375 180.703125 210.164062 181.085938 208.292969 181.859375 C 206.417969 182.632812 204.769531 183.738281 203.339844 185.171875 L 190.960938 197.53125 C 190.25 198.238281 189.617188 199.011719 189.058594 199.84375 C 188.5 200.679688 188.03125 201.558594 187.644531 202.484375 C 187.261719 203.410156 186.972656 204.363281 186.773438 205.347656 C 186.578125 206.332031 186.480469 207.324219 186.476562 208.328125 C 186.476562 209.332031 186.574219 210.324219 186.769531 211.308594 C 186.964844 212.292969 187.253906 213.246094 187.636719 214.175781 C 188.019531 215.101562 188.488281 215.980469 189.046875 216.816406 C 189.601562 217.652344 190.234375 218.421875 190.945312 219.132812 L 195.492188 223.6875 C 195.582031 223.78125 195.65625 223.886719 195.714844 224.003906 C 195.851562 224.269531 195.859375 224.542969 195.742188 224.820312 C 194.9375 226.554688 194.207031 228.332031 193.546875 230.101562 C 193.460938 230.292969 193.332031 230.445312 193.15625 230.554688 C 192.976562 230.664062 192.785156 230.714844 192.574219 230.707031 L 186.128906 230.707031 C 185.125 230.710938 184.132812 230.808594 183.148438 231.003906 C 182.164062 231.199219 181.210938 231.488281 180.285156 231.871094 C 179.359375 232.253906 178.480469 232.722656 177.644531 233.28125 C 176.8125 233.835938 176.039062 234.46875 175.332031 235.179688 C 174.621094 235.886719 173.988281 236.65625 173.433594 237.492188 C 172.875 238.324219 172.40625 239.203125 172.019531 240.128906 C 171.636719 241.054688 171.347656 242.011719 171.148438 242.992188 C 170.953125 243.976562 170.855469 244.96875 170.855469 245.972656 L 170.839844 263.472656 C 170.839844 264.476562 170.9375 265.46875 171.132812 266.453125 C 171.324219 267.4375 171.613281 268.390625 171.996094 269.320312 C 172.378906 270.246094 172.851562 271.125 173.40625 271.960938 C 173.964844 272.796875 174.597656 273.566406 175.304688 274.277344 C 176.011719 274.988281 176.785156 275.621094 177.617188 276.179688 C 178.453125 276.738281 179.332031 277.207031 180.257812 277.59375 C 181.183594 277.976562 182.140625 278.269531 183.121094 278.464844 C 184.105469 278.660156 185.097656 278.757812 186.101562 278.761719 L 192.535156 278.761719 C 192.746094 278.753906 192.9375 278.804688 193.117188 278.914062 C 193.292969 279.027344 193.425781 279.179688 193.507812 279.371094 C 194.164062 281.152344 194.902344 282.929688 195.695312 284.65625 C 195.773438 284.851562 195.789062 285.050781 195.742188 285.257812 C 195.695312 285.464844 195.597656 285.640625 195.441406 285.785156 L 190.886719 290.332031 C 190.175781 291.039062 189.542969 291.8125 188.984375 292.644531 C 188.425781 293.480469 187.953125 294.359375 187.570312 295.285156 C 187.1875 296.210938 186.894531 297.167969 186.699219 298.148438 C 186.503906 299.132812 186.402344 300.125 186.402344 301.128906 C 186.402344 302.132812 186.5 303.125 186.695312 304.109375 C 186.886719 305.09375 187.175781 306.046875 187.5625 306.976562 C 187.945312 307.902344 188.414062 308.78125 188.96875 309.617188 C 189.527344 310.453125 190.160156 311.222656 190.867188 311.933594 L 203.234375 324.320312 C 204.664062 325.757812 206.3125 326.867188 208.183594 327.644531 C 210.054688 328.421875 212.003906 328.808594 214.03125 328.804688 L 214.042969 328.804688 C 216.070312 328.808594 218.015625 328.425781 219.886719 327.652344 C 221.757812 326.875 223.40625 325.773438 224.835938 324.339844 L 229.394531 319.789062 C 229.539062 319.636719 229.710938 319.535156 229.917969 319.488281 C 230.125 319.445312 230.324219 319.460938 230.519531 319.539062 C 232.242188 320.335938 234.019531 321.074219 235.804688 321.734375 C 235.996094 321.820312 236.148438 321.949219 236.257812 322.128906 C 236.367188 322.304688 236.421875 322.496094 236.414062 322.707031 L 236.414062 329.144531 C 236.414062 330.144531 236.511719 331.136719 236.707031 332.121094 C 236.902344 333.101562 237.191406 334.058594 237.574219 334.984375 C 237.957031 335.910156 238.425781 336.789062 238.984375 337.621094 C 239.539062 338.457031 240.171875 339.226562 240.878906 339.9375 C 241.585938 340.648438 242.355469 341.28125 243.1875 341.839844 C 244.019531 342.394531 244.898438 342.867188 245.824219 343.253906 C 246.75 343.640625 247.703125 343.929688 248.683594 344.128906 C 249.667969 344.328125 250.660156 344.425781 251.660156 344.429688 Z M 236.488281 306.660156 C 234.484375 305.730469 232.382812 305.269531 230.171875 305.269531 C 228.144531 305.273438 226.195312 305.660156 224.320312 306.433594 C 222.445312 307.207031 220.792969 308.3125 219.355469 309.742188 L 214.796875 314.292969 C 214.699219 314.390625 214.582031 314.46875 214.449219 314.523438 C 214.316406 314.578125 214.179688 314.605469 214.035156 314.605469 C 213.894531 314.605469 213.757812 314.578125 213.625 314.523438 C 213.492188 314.46875 213.375 314.390625 213.277344 314.292969 L 200.910156 301.902344 C 200.808594 301.804688 200.730469 301.6875 200.675781 301.554688 C 200.621094 301.421875 200.59375 301.285156 200.59375 301.144531 C 200.59375 301 200.621094 300.863281 200.675781 300.730469 C 200.730469 300.597656 200.808594 300.484375 200.910156 300.382812 L 205.464844 295.832031 C 206.011719 295.285156 206.515625 294.703125 206.972656 294.078125 C 207.433594 293.457031 207.84375 292.804688 208.203125 292.117188 C 208.5625 291.433594 208.867188 290.726562 209.117188 289.992188 C 209.371094 289.261719 209.566406 288.515625 209.703125 287.753906 C 209.84375 286.996094 209.921875 286.226562 209.945312 285.453125 C 209.964844 284.679688 209.929688 283.910156 209.832031 283.144531 C 209.738281 282.375 209.585938 281.621094 209.375 280.875 C 209.164062 280.132812 208.898438 279.40625 208.578125 278.703125 C 207.941406 277.324219 207.351562 275.898438 206.828125 274.472656 C 206.558594 273.75 206.234375 273.050781 205.859375 272.378906 C 205.480469 271.703125 205.054688 271.0625 204.582031 270.453125 C 204.109375 269.84375 203.589844 269.273438 203.027344 268.742188 C 202.46875 268.210938 201.871094 267.722656 201.234375 267.285156 C 200.601562 266.84375 199.9375 266.453125 199.242188 266.113281 C 198.550781 265.773438 197.832031 265.488281 197.097656 265.257812 C 196.359375 265.027344 195.609375 264.855469 194.84375 264.738281 C 194.082031 264.621094 193.3125 264.5625 192.542969 264.5625 L 186.109375 264.5625 C 185.964844 264.5625 185.828125 264.535156 185.695312 264.480469 C 185.5625 264.425781 185.449219 264.347656 185.347656 264.246094 C 185.246094 264.148438 185.167969 264.03125 185.113281 263.898438 C 185.058594 263.765625 185.03125 263.628906 185.03125 263.484375 L 185.046875 245.980469 C 185.046875 245.839844 185.074219 245.703125 185.128906 245.570312 C 185.183594 245.4375 185.261719 245.320312 185.359375 245.222656 C 185.460938 245.121094 185.578125 245.042969 185.710938 244.988281 C 185.84375 244.933594 185.980469 244.90625 186.121094 244.90625 L 192.570312 244.90625 C 193.34375 244.90625 194.109375 244.847656 194.871094 244.734375 C 195.636719 244.617188 196.386719 244.445312 197.121094 244.214844 C 197.859375 243.984375 198.574219 243.699219 199.269531 243.359375 C 199.960938 243.023438 200.625 242.632812 201.261719 242.195312 C 201.894531 241.753906 202.492188 241.269531 203.054688 240.742188 C 203.617188 240.210938 204.132812 239.640625 204.609375 239.035156 C 205.082031 238.425781 205.511719 237.785156 205.886719 237.109375 C 206.265625 236.4375 206.589844 235.742188 206.863281 235.019531 C 207.382812 233.597656 207.972656 232.179688 208.617188 230.792969 C 209.085938 229.78125 209.4375 228.730469 209.675781 227.644531 C 209.910156 226.554688 210.023438 225.453125 210.015625 224.335938 C 210.011719 223.222656 209.878906 222.121094 209.628906 221.035156 C 209.378906 219.949219 209.011719 218.902344 208.527344 217.898438 C 207.773438 216.3125 206.777344 214.898438 205.535156 213.65625 L 200.984375 209.097656 C 200.882812 208.996094 200.804688 208.882812 200.75 208.75 C 200.695312 208.617188 200.667969 208.480469 200.667969 208.335938 C 200.667969 208.195312 200.695312 208.058594 200.75 207.925781 C 200.804688 207.792969 200.882812 207.675781 200.984375 207.574219 L 213.371094 195.207031 C 213.582031 194.996094 213.832031 194.890625 214.132812 194.894531 C 214.429688 194.890625 214.683594 194.996094 214.894531 195.210938 L 219.445312 199.765625 C 219.992188 200.316406 220.574219 200.816406 221.199219 201.277344 C 221.820312 201.734375 222.472656 202.144531 223.160156 202.503906 C 223.84375 202.863281 224.550781 203.167969 225.285156 203.421875 C 226.015625 203.671875 226.761719 203.867188 227.523438 204.003906 C 228.28125 204.144531 229.050781 204.222656 229.824219 204.246094 C 230.597656 204.265625 231.367188 204.230469 232.132812 204.132812 C 232.902344 204.039062 233.65625 203.886719 234.402344 203.675781 C 235.144531 203.464844 235.871094 203.199219 236.574219 202.878906 C 237.949219 202.242188 239.371094 201.65625 240.800781 201.128906 C 241.527344 200.859375 242.226562 200.535156 242.898438 200.160156 C 243.574219 199.78125 244.214844 199.355469 244.824219 198.882812 C 245.433594 198.40625 246.003906 197.890625 246.535156 197.328125 C 247.066406 196.769531 247.550781 196.171875 247.992188 195.535156 C 248.433594 194.902344 248.824219 194.238281 249.160156 193.542969 C 249.5 192.847656 249.785156 192.132812 250.015625 191.398438 C 250.246094 190.660156 250.421875 189.910156 250.539062 189.144531 C 250.652344 188.382812 250.710938 187.613281 250.710938 186.84375 L 250.710938 180.40625 C 250.710938 180.261719 250.738281 180.125 250.792969 179.996094 C 250.847656 179.863281 250.925781 179.746094 251.027344 179.644531 C 251.128906 179.542969 251.246094 179.464844 251.378906 179.410156 C 251.507812 179.359375 251.644531 179.332031 251.789062 179.332031 L 269.292969 179.34375 C 269.433594 179.34375 269.570312 179.371094 269.703125 179.425781 C 269.835938 179.480469 269.953125 179.558594 270.054688 179.660156 C 270.152344 179.761719 270.230469 179.878906 270.285156 180.011719 C 270.339844 180.140625 270.367188 180.28125 270.367188 180.421875 L 270.367188 186.859375 C 270.367188 187.632812 270.425781 188.398438 270.539062 189.164062 C 270.65625 189.925781 270.828125 190.675781 271.058594 191.414062 C 271.285156 192.152344 271.570312 192.867188 271.910156 193.5625 C 272.246094 194.253906 272.636719 194.921875 273.074219 195.554688 C 273.511719 196.191406 274 196.789062 274.527344 197.351562 C 275.058594 197.914062 275.628906 198.429688 276.234375 198.90625 C 276.84375 199.382812 277.484375 199.808594 278.160156 200.1875 C 278.832031 200.5625 279.53125 200.886719 280.253906 201.160156 C 281.675781 201.683594 283.101562 202.277344 284.480469 202.917969 C 285.183594 203.238281 285.90625 203.503906 286.652344 203.714844 C 287.394531 203.929688 288.152344 204.082031 288.917969 204.179688 C 289.683594 204.277344 290.457031 204.3125 291.226562 204.292969 C 292 204.273438 292.769531 204.195312 293.53125 204.058594 C 294.289062 203.921875 295.039062 203.726562 295.769531 203.476562 C 296.5 203.226562 297.210938 202.921875 297.894531 202.5625 C 298.582031 202.207031 299.234375 201.796875 299.859375 201.339844 C 300.480469 200.882812 301.066406 200.378906 301.613281 199.832031 L 306.171875 195.285156 C 306.273438 195.183594 306.386719 195.105469 306.519531 195.050781 C 306.652344 194.996094 306.789062 194.96875 306.933594 194.96875 C 307.074219 194.96875 307.210938 194.996094 307.34375 195.050781 C 307.476562 195.105469 307.59375 195.183594 307.695312 195.285156 L 320.0625 207.671875 C 320.160156 207.773438 320.238281 207.890625 320.292969 208.019531 C 320.347656 208.152344 320.375 208.289062 320.375 208.433594 C 320.375 208.574219 320.347656 208.714844 320.292969 208.84375 C 320.238281 208.976562 320.160156 209.09375 320.0625 209.195312 L 315.503906 213.746094 C 314.953125 214.292969 314.453125 214.875 313.992188 215.5 C 313.535156 216.121094 313.125 216.773438 312.765625 217.460938 C 312.40625 218.144531 312.101562 218.851562 311.851562 219.582031 C 311.597656 220.316406 311.402344 221.0625 311.265625 221.820312 C 311.128906 222.582031 311.046875 223.351562 311.027344 224.121094 C 311.003906 224.894531 311.039062 225.664062 311.136719 226.433594 C 311.230469 227.199219 311.382812 227.957031 311.59375 228.699219 C 311.804688 229.445312 312.070312 230.167969 312.390625 230.871094 C 313.027344 232.253906 313.617188 233.675781 314.140625 235.101562 C 314.410156 235.828125 314.734375 236.523438 315.113281 237.199219 C 315.488281 237.875 315.914062 238.515625 316.386719 239.125 C 316.863281 239.734375 317.378906 240.304688 317.941406 240.835938 C 318.5 241.367188 319.097656 241.851562 319.734375 242.292969 C 320.367188 242.734375 321.03125 243.121094 321.726562 243.460938 C 322.421875 243.800781 323.136719 244.085938 323.875 244.316406 C 324.609375 244.546875 325.359375 244.722656 326.125 244.835938 C 326.886719 244.953125 327.65625 245.011719 328.425781 245.011719 L 334.863281 245.011719 C 335.003906 245.011719 335.140625 245.039062 335.273438 245.09375 C 335.40625 245.148438 335.523438 245.226562 335.625 245.328125 C 335.722656 245.429688 335.800781 245.546875 335.855469 245.679688 C 335.910156 245.808594 335.9375 245.949219 335.9375 246.089844 L 335.921875 263.59375 C 335.921875 263.734375 335.894531 263.871094 335.839844 264.003906 C 335.785156 264.136719 335.707031 264.253906 335.609375 264.351562 C 335.507812 264.453125 335.390625 264.53125 335.257812 264.585938 C 335.128906 264.640625 334.988281 264.667969 334.847656 264.667969 L 328.398438 264.667969 C 327.628906 264.667969 326.859375 264.726562 326.097656 264.84375 C 325.335938 264.957031 324.585938 265.132812 323.847656 265.359375 C 323.109375 265.589844 322.394531 265.875 321.703125 266.210938 C 321.007812 266.550781 320.34375 266.9375 319.710938 267.378906 C 319.074219 267.816406 318.476562 268.300781 317.914062 268.832031 C 317.355469 269.359375 316.835938 269.929688 316.363281 270.539062 C 315.886719 271.148438 315.460938 271.789062 315.082031 272.460938 C 314.707031 273.132812 314.382812 273.832031 314.109375 274.554688 C 313.582031 275.984375 312.992188 277.40625 312.351562 278.78125 C 312.03125 279.484375 311.765625 280.210938 311.550781 280.953125 C 311.339844 281.699219 311.1875 282.453125 311.089844 283.21875 C 310.992188 283.988281 310.953125 284.757812 310.976562 285.53125 C 310.996094 286.304688 311.074219 287.070312 311.210938 287.832031 C 311.347656 288.59375 311.542969 289.339844 311.792969 290.070312 C 312.042969 290.800781 312.347656 291.511719 312.707031 292.195312 C 313.0625 292.882812 313.472656 293.535156 313.929688 294.160156 C 314.386719 294.78125 314.886719 295.367188 315.433594 295.914062 L 319.984375 300.472656 C 320.085938 300.574219 320.164062 300.6875 320.21875 300.820312 C 320.273438 300.953125 320.300781 301.089844 320.300781 301.234375 C 320.300781 301.375 320.273438 301.511719 320.21875 301.644531 C 320.164062 301.777344 320.085938 301.894531 319.984375 301.996094 L 307.597656 314.359375 C 307.496094 314.460938 307.378906 314.539062 307.25 314.59375 C 307.117188 314.648438 306.980469 314.675781 306.835938 314.675781 C 306.695312 314.675781 306.558594 314.648438 306.425781 314.59375 C 306.292969 314.539062 306.175781 314.460938 306.074219 314.359375 L 301.523438 309.800781 C 300.980469 309.253906 300.394531 308.753906 299.773438 308.292969 C 299.148438 307.835938 298.496094 307.425781 297.8125 307.066406 C 297.125 306.707031 296.417969 306.402344 295.6875 306.152344 C 294.957031 305.898438 294.210938 305.703125 293.449219 305.566406 C 292.6875 305.429688 291.921875 305.347656 291.148438 305.328125 C 290.375 305.304688 289.605469 305.339844 288.835938 305.4375 C 288.070312 305.53125 287.3125 305.6875 286.570312 305.894531 C 285.824219 306.105469 285.101562 306.371094 284.398438 306.691406 C 283.015625 307.328125 281.59375 307.917969 280.167969 308.441406 C 279.441406 308.710938 278.746094 309.035156 278.070312 309.414062 C 277.394531 309.789062 276.753906 310.214844 276.144531 310.6875 C 275.535156 311.164062 274.964844 311.679688 274.433594 312.242188 C 273.902344 312.804688 273.417969 313.402344 272.976562 314.035156 C 272.535156 314.667969 272.148438 315.335938 271.808594 316.027344 C 271.46875 316.722656 271.183594 317.4375 270.953125 318.175781 C 270.722656 318.910156 270.546875 319.660156 270.433594 320.425781 C 270.316406 321.1875 270.257812 321.957031 270.257812 322.730469 L 270.257812 329.164062 C 270.257812 329.308594 270.230469 329.445312 270.175781 329.578125 C 270.121094 329.707031 270.042969 329.824219 269.941406 329.925781 C 269.839844 330.027344 269.722656 330.105469 269.59375 330.160156 C 269.460938 330.214844 269.324219 330.242188 269.179688 330.242188 L 251.675781 330.226562 C 251.535156 330.226562 251.398438 330.199219 251.265625 330.144531 C 251.132812 330.089844 251.015625 330.011719 250.914062 329.910156 C 250.816406 329.808594 250.738281 329.691406 250.683594 329.5625 C 250.628906 329.429688 250.601562 329.292969 250.601562 329.148438 L 250.601562 322.710938 C 250.601562 321.9375 250.546875 321.171875 250.429688 320.40625 C 250.3125 319.644531 250.140625 318.894531 249.914062 318.15625 C 249.683594 317.417969 249.398438 316.703125 249.0625 316.007812 C 248.722656 315.316406 248.335938 314.648438 247.894531 314.015625 C 247.457031 313.378906 246.972656 312.78125 246.441406 312.21875 C 245.910156 311.65625 245.34375 311.140625 244.734375 310.664062 C 244.125 310.1875 243.484375 309.761719 242.808594 309.382812 C 242.136719 309.007812 241.4375 308.683594 240.714844 308.410156 C 239.289062 307.886719 237.867188 307.296875 236.488281 306.660156 Z M 236.488281 306.660156" fill="#ff94e3"/><path fill-rule="nonzero" fill-opacity="1" d="M 260.4375 295.820312 C 261.324219 295.820312 262.210938 295.792969 263.097656 295.734375 C 263.980469 295.679688 264.863281 295.59375 265.746094 295.476562 C 266.625 295.363281 267.5 295.21875 268.371094 295.046875 C 269.238281 294.875 270.101562 294.675781 270.960938 294.449219 C 271.816406 294.222656 272.667969 293.964844 273.507812 293.683594 C 274.347656 293.398438 275.179688 293.089844 276 292.753906 C 276.820312 292.417969 277.628906 292.054688 278.425781 291.664062 C 279.222656 291.273438 280.007812 290.859375 280.777344 290.417969 C 281.546875 289.980469 282.304688 289.515625 283.042969 289.027344 C 283.78125 288.535156 284.507812 288.023438 285.210938 287.488281 C 285.917969 286.953125 286.609375 286.394531 287.277344 285.8125 C 287.949219 285.230469 288.601562 284.628906 289.230469 284.003906 C 289.863281 283.382812 290.472656 282.738281 291.0625 282.078125 C 291.652344 281.414062 292.21875 280.734375 292.765625 280.03125 C 293.308594 279.332031 293.832031 278.617188 294.332031 277.882812 C 294.828125 277.148438 295.304688 276.402344 295.753906 275.636719 C 296.203125 274.871094 296.628906 274.09375 297.027344 273.300781 C 297.429688 272.507812 297.800781 271.707031 298.148438 270.890625 C 298.496094 270.074219 298.816406 269.246094 299.109375 268.410156 C 299.40625 267.574219 299.671875 266.726562 299.910156 265.871094 C 300.148438 265.019531 300.359375 264.15625 300.542969 263.289062 C 300.726562 262.421875 300.878906 261.546875 301.007812 260.667969 C 301.132812 259.792969 301.230469 258.910156 301.300781 258.027344 C 301.367188 257.140625 301.40625 256.253906 301.417969 255.367188 C 301.429688 254.480469 301.414062 253.59375 301.367188 252.710938 C 301.320312 251.824219 301.246094 250.941406 301.144531 250.058594 C 301.039062 249.179688 300.90625 248.300781 300.746094 247.429688 C 300.585938 246.554688 300.398438 245.691406 300.183594 244.828125 C 299.964844 243.96875 299.722656 243.117188 299.449219 242.273438 C 299.175781 241.429688 298.878906 240.59375 298.550781 239.769531 C 298.226562 238.945312 297.871094 238.128906 297.492188 237.328125 C 297.113281 236.527344 296.710938 235.738281 296.28125 234.960938 C 295.847656 234.1875 295.394531 233.425781 294.914062 232.679688 C 294.433594 231.933594 293.933594 231.203125 293.40625 230.488281 C 292.878906 229.777344 292.328125 229.082031 291.753906 228.402344 C 291.183594 227.722656 290.589844 227.066406 289.976562 226.425781 C 289.359375 225.789062 288.726562 225.167969 288.070312 224.570312 C 287.414062 223.972656 286.742188 223.398438 286.046875 222.84375 C 285.355469 222.289062 284.644531 221.757812 283.917969 221.25 C 283.191406 220.742188 282.449219 220.257812 281.691406 219.796875 C 280.929688 219.335938 280.160156 218.902344 279.371094 218.492188 C 278.585938 218.082031 277.785156 217.699219 276.972656 217.339844 C 276.164062 216.980469 275.339844 216.652344 274.507812 216.347656 C 273.675781 216.042969 272.832031 215.765625 271.980469 215.515625 C 271.128906 215.265625 270.269531 215.042969 269.40625 214.847656 C 268.539062 214.65625 267.667969 214.488281 266.792969 214.351562 C 265.917969 214.214844 265.035156 214.105469 264.152344 214.023438 C 263.269531 213.945312 262.382812 213.894531 261.496094 213.871094 C 260.609375 213.847656 259.722656 213.855469 258.835938 213.886719 C 257.953125 213.921875 257.066406 213.984375 256.183594 214.078125 C 255.300781 214.171875 254.425781 214.292969 253.550781 214.441406 C 252.675781 214.589844 251.804688 214.765625 250.945312 214.972656 C 250.082031 215.179688 249.226562 215.410156 248.378906 215.671875 C 247.53125 215.933594 246.691406 216.222656 245.863281 216.539062 C 245.03125 216.851562 244.214844 217.195312 243.410156 217.5625 C 242.601562 217.933594 241.808594 218.328125 241.027344 218.746094 C 240.246094 219.167969 239.476562 219.613281 238.726562 220.082031 C 237.972656 220.550781 237.238281 221.046875 236.515625 221.5625 C 235.796875 222.082031 235.09375 222.621094 234.410156 223.1875 C 233.722656 223.75 233.058594 224.335938 232.410156 224.941406 C 231.761719 225.546875 231.136719 226.175781 230.53125 226.824219 C 229.921875 227.46875 229.339844 228.136719 228.777344 228.820312 C 228.210938 229.507812 227.671875 230.210938 227.15625 230.929688 C 226.636719 231.652344 226.144531 232.386719 225.675781 233.140625 C 225.203125 233.894531 224.757812 234.660156 224.339844 235.441406 C 223.917969 236.222656 223.527344 237.015625 223.15625 237.824219 C 222.789062 238.632812 222.445312 239.449219 222.132812 240.277344 C 221.816406 241.109375 221.527344 241.945312 221.269531 242.792969 C 221.007812 243.640625 220.773438 244.496094 220.570312 245.359375 C 220.363281 246.222656 220.1875 247.09375 220.039062 247.964844 C 219.890625 248.839844 219.769531 249.71875 219.675781 250.601562 C 219.585938 251.484375 219.523438 252.367188 219.488281 253.253906 C 219.453125 254.140625 219.449219 255.027344 219.472656 255.914062 C 219.496094 256.800781 219.546875 257.6875 219.628906 258.570312 C 219.707031 259.453125 219.816406 260.332031 219.957031 261.210938 C 220.09375 262.085938 220.261719 262.957031 220.453125 263.824219 C 220.648438 264.6875 220.871094 265.546875 221.121094 266.398438 C 221.371094 267.25 221.648438 268.089844 221.953125 268.921875 C 222.257812 269.757812 222.589844 270.578125 222.949219 271.390625 C 223.308594 272.203125 223.691406 273 224.101562 273.789062 C 224.511719 274.574219 224.945312 275.347656 225.40625 276.105469 C 225.867188 276.863281 226.351562 277.605469 226.859375 278.332031 C 227.367188 279.058594 227.898438 279.769531 228.453125 280.460938 C 229.007812 281.152344 229.585938 281.828125 230.183594 282.480469 C 230.78125 283.136719 231.402344 283.773438 232.042969 284.386719 C 232.679688 285 233.339844 285.59375 234.019531 286.167969 C 234.695312 286.738281 235.390625 287.289062 236.105469 287.816406 C 236.820312 288.339844 237.550781 288.84375 238.296875 289.324219 C 239.042969 289.804688 239.804688 290.257812 240.578125 290.6875 C 241.355469 291.117188 242.144531 291.523438 242.945312 291.902344 C 243.75 292.277344 244.5625 292.632812 245.386719 292.957031 C 246.210938 293.28125 247.046875 293.582031 247.890625 293.851562 C 248.734375 294.125 249.589844 294.367188 250.449219 294.585938 C 251.308594 294.800781 252.175781 294.988281 253.046875 295.148438 C 253.921875 295.308594 254.796875 295.441406 255.679688 295.542969 C 256.558594 295.648438 257.441406 295.722656 258.328125 295.765625 C 259.035156 295.804688 259.738281 295.824219 260.4375 295.820312 Z M 233.683594 256.175781 C 233.636719 255.269531 233.636719 254.363281 233.683594 253.457031 C 233.726562 252.550781 233.820312 251.648438 233.957031 250.75 C 234.09375 249.855469 234.273438 248.964844 234.5 248.085938 C 234.726562 247.207031 235 246.34375 235.3125 245.492188 C 235.628906 244.640625 235.984375 243.808594 236.382812 242.992188 C 236.78125 242.179688 237.222656 241.386719 237.699219 240.613281 C 238.179688 239.84375 238.695312 239.101562 239.25 238.382812 C 239.804688 237.664062 240.394531 236.976562 241.019531 236.316406 C 241.644531 235.660156 242.300781 235.035156 242.988281 234.441406 C 243.679688 233.851562 244.394531 233.296875 245.140625 232.777344 C 245.882812 232.257812 246.652344 231.777344 247.445312 231.335938 C 248.238281 230.894531 249.050781 230.496094 249.886719 230.136719 C 250.71875 229.777344 251.570312 229.464844 252.433594 229.191406 C 253.300781 228.917969 254.175781 228.691406 255.066406 228.507812 C 255.953125 228.324219 256.851562 228.1875 257.753906 228.09375 C 258.65625 228 259.5625 227.953125 260.46875 227.953125 C 260.949219 227.953125 261.429688 227.964844 261.917969 227.992188 C 262.734375 228.039062 263.546875 228.125 264.359375 228.25 C 265.167969 228.371094 265.96875 228.53125 266.765625 228.726562 C 267.558594 228.921875 268.34375 229.15625 269.117188 229.421875 C 269.890625 229.6875 270.652344 229.992188 271.398438 230.328125 C 272.144531 230.664062 272.875 231.03125 273.589844 231.433594 C 274.300781 231.835938 274.996094 232.269531 275.667969 232.738281 C 276.34375 233.203125 276.992188 233.695312 277.621094 234.222656 C 278.25 234.746094 278.855469 235.296875 279.433594 235.878906 C 280.011719 236.457031 280.5625 237.0625 281.085938 237.691406 C 281.609375 238.320312 282.101562 238.972656 282.566406 239.648438 C 283.03125 240.320312 283.464844 241.015625 283.867188 241.730469 C 284.265625 242.441406 284.636719 243.171875 284.96875 243.921875 C 285.304688 244.667969 285.605469 245.429688 285.871094 246.203125 C 286.136719 246.976562 286.367188 247.761719 286.5625 248.558594 C 286.757812 249.351562 286.914062 250.15625 287.035156 250.964844 C 287.15625 251.773438 287.242188 252.589844 287.289062 253.40625 C 287.339844 254.34375 287.335938 255.277344 287.289062 256.214844 C 287.238281 257.152344 287.140625 258.082031 286.992188 259.007812 C 286.84375 259.933594 286.648438 260.851562 286.40625 261.753906 C 286.160156 262.660156 285.871094 263.550781 285.535156 264.425781 C 285.199219 265.300781 284.816406 266.15625 284.390625 266.992188 C 283.964844 267.828125 283.496094 268.636719 282.984375 269.421875 C 282.472656 270.210938 281.921875 270.964844 281.332031 271.695312 C 280.738281 272.421875 280.113281 273.117188 279.449219 273.78125 C 278.785156 274.445312 278.089844 275.070312 277.359375 275.660156 C 276.628906 276.25 275.871094 276.796875 275.085938 277.308594 C 274.296875 277.820312 273.488281 278.285156 272.652344 278.710938 C 271.816406 279.136719 270.960938 279.515625 270.085938 279.851562 C 269.207031 280.1875 268.316406 280.476562 267.410156 280.71875 C 266.507812 280.960938 265.589844 281.152344 264.664062 281.300781 C 263.738281 281.445312 262.804688 281.542969 261.871094 281.589844 C 260.933594 281.640625 259.996094 281.640625 259.058594 281.589844 C 258.242188 281.539062 257.429688 281.453125 256.621094 281.332031 C 255.808594 281.207031 255.007812 281.050781 254.210938 280.851562 C 253.417969 280.65625 252.632812 280.425781 251.859375 280.160156 C 251.085938 279.890625 250.324219 279.589844 249.578125 279.253906 C 248.832031 278.917969 248.101562 278.550781 247.386719 278.148438 C 246.675781 277.746094 245.980469 277.308594 245.308594 276.84375 C 244.632812 276.378906 243.984375 275.882812 243.355469 275.359375 C 242.726562 274.835938 242.121094 274.28125 241.542969 273.703125 C 240.964844 273.125 240.414062 272.519531 239.890625 271.890625 C 239.367188 271.261719 238.871094 270.609375 238.40625 269.933594 C 237.945312 269.261719 237.511719 268.566406 237.109375 267.851562 C 236.707031 267.136719 236.339844 266.40625 236.003906 265.660156 C 235.667969 264.914062 235.371094 264.152344 235.101562 263.378906 C 234.835938 262.605469 234.605469 261.820312 234.414062 261.023438 C 234.21875 260.226562 234.058594 259.425781 233.9375 258.617188 C 233.816406 257.804688 233.730469 256.992188 233.683594 256.175781 Z M 233.683594 256.175781" fill="#ff94e3"/><path fill-rule="nonzero" fill-opacity="1" d="M 470.636719 493.039062 C 470.304688 493.363281 470.003906 493.71875 469.738281 494.101562 C 469.472656 494.484375 469.246094 494.890625 469.058594 495.316406 C 468.871094 495.742188 468.730469 496.183594 468.632812 496.640625 C 468.53125 497.097656 468.480469 497.554688 468.46875 498.023438 C 468.460938 498.488281 468.5 498.949219 468.582031 499.410156 C 468.664062 499.867188 468.792969 500.316406 468.960938 500.75 C 469.132812 501.183594 469.34375 501.59375 469.597656 501.988281 C 469.847656 502.378906 470.136719 502.742188 470.460938 503.078125 C 474.113281 506.863281 483.394531 518.917969 482.472656 529.078125 C 482.074219 533.46875 479.714844 537.160156 475.257812 540.359375 C 474.878906 540.628906 474.527344 540.9375 474.210938 541.277344 C 473.890625 541.617188 473.609375 541.984375 473.363281 542.382812 C 473.117188 542.777344 472.914062 543.195312 472.75 543.628906 C 472.585938 544.066406 472.464844 544.515625 472.390625 544.976562 C 472.316406 545.433594 472.285156 545.898438 472.300781 546.363281 C 472.316406 546.828125 472.378906 547.289062 472.484375 547.742188 C 472.589844 548.199219 472.738281 548.636719 472.933594 549.0625 C 473.125 549.484375 473.355469 549.886719 473.628906 550.265625 C 473.902344 550.644531 474.207031 550.992188 474.546875 551.3125 C 474.886719 551.628906 475.257812 551.914062 475.652344 552.15625 C 476.050781 552.402344 476.464844 552.609375 476.902344 552.773438 C 477.339844 552.9375 477.785156 553.054688 478.246094 553.132812 C 478.707031 553.207031 479.167969 553.238281 479.636719 553.222656 C 480.101562 553.207031 480.5625 553.144531 481.015625 553.039062 C 481.46875 552.933594 481.910156 552.78125 482.332031 552.589844 C 482.757812 552.398438 483.160156 552.164062 483.539062 551.894531 C 491.324219 546.304688 495.84375 538.859375 496.617188 530.359375 C 498.273438 512.039062 482.484375 495.09375 480.679688 493.222656 C 480.355469 492.886719 480 492.585938 479.617188 492.320312 C 479.234375 492.054688 478.832031 491.828125 478.402344 491.640625 C 477.976562 491.453125 477.535156 491.3125 477.078125 491.210938 C 476.621094 491.113281 476.160156 491.058594 475.695312 491.050781 C 475.230469 491.042969 474.765625 491.082031 474.308594 491.164062 C 473.847656 491.246094 473.402344 491.371094 472.96875 491.542969 C 472.535156 491.714844 472.121094 491.925781 471.730469 492.175781 C 471.335938 492.429688 470.972656 492.71875 470.636719 493.039062 Z M 470.636719 493.039062" fill="#ff94e3"/><path fill-rule="nonzero" fill-opacity="1" d="M 507.175781 544.855469 C 496.074219 555.371094 485.933594 558.414062 484.097656 557.429688 C 483.757812 557.109375 483.390625 556.824219 483 556.574219 C 482.605469 556.324219 482.1875 556.117188 481.753906 555.949219 C 481.320312 555.78125 480.871094 555.660156 480.414062 555.578125 C 479.953125 555.5 479.492188 555.464844 479.023438 555.476562 C 478.558594 555.488281 478.097656 555.546875 477.644531 555.648438 C 477.1875 555.75 476.746094 555.898438 476.320312 556.085938 C 475.894531 556.277344 475.492188 556.503906 475.109375 556.773438 C 474.730469 557.042969 474.378906 557.347656 474.058594 557.683594 C 473.738281 558.023438 473.453125 558.386719 473.203125 558.78125 C 472.953125 559.175781 472.746094 559.589844 472.578125 560.027344 C 472.410156 560.460938 472.285156 560.910156 472.207031 561.367188 C 472.128906 561.828125 472.09375 562.289062 472.105469 562.757812 C 472.117188 563.222656 472.175781 563.683594 472.277344 564.136719 C 472.378906 564.59375 472.527344 565.03125 472.714844 565.457031 C 472.902344 565.886719 473.132812 566.289062 473.402344 566.667969 C 473.671875 567.050781 473.972656 567.402344 474.3125 567.722656 C 475.753906 569.074219 477.402344 570.097656 479.25 570.796875 C 481.101562 571.492188 483.015625 571.8125 484.992188 571.753906 C 494.867188 571.753906 507.070312 564.511719 516.933594 555.167969 C 519.882812 552.375 524.167969 550.609375 528.597656 549.503906 C 528.226562 549.816406 527.863281 550.128906 527.476562 550.441406 C 527.109375 550.734375 526.777344 551.058594 526.472656 551.417969 C 526.171875 551.777344 525.90625 552.160156 525.679688 552.570312 C 525.453125 552.984375 525.269531 553.410156 525.128906 553.859375 C 524.988281 554.304688 524.894531 554.761719 524.84375 555.230469 C 524.792969 555.695312 524.785156 556.160156 524.828125 556.628906 C 524.871094 557.09375 524.957031 557.554688 525.089844 558.003906 C 525.222656 558.453125 525.398438 558.886719 525.617188 559.300781 C 525.835938 559.714844 526.09375 560.105469 526.386719 560.46875 C 526.683594 560.832031 527.011719 561.164062 527.375 561.464844 C 527.734375 561.761719 528.121094 562.023438 528.535156 562.246094 C 528.945312 562.46875 529.378906 562.648438 529.828125 562.785156 C 530.273438 562.921875 530.730469 563.011719 531.199219 563.058594 C 531.664062 563.105469 532.132812 563.105469 532.597656 563.058594 C 533.066406 563.011719 533.523438 562.921875 533.972656 562.785156 C 534.417969 562.648438 534.851562 562.46875 535.261719 562.246094 C 535.675781 562.023438 536.0625 561.761719 536.425781 561.464844 C 542.519531 556.699219 547.707031 551.09375 551.988281 544.648438 C 552.011719 544.613281 552.035156 544.574219 552.054688 544.539062 C 554.210938 541.320312 555.832031 537.851562 556.917969 534.132812 C 558.007812 530.414062 558.511719 526.621094 558.429688 522.75 C 557.777344 504.054688 541.972656 492.042969 538.808594 489.824219 C 531.394531 484.675781 524.324219 479.089844 517.597656 473.066406 C 516.386719 466.003906 516.332031 459.042969 519.015625 454.492188 C 519.761719 453.226562 522.027344 449.375 530.578125 448.808594 C 542.859375 447.996094 556.378906 459.84375 563.492188 477.628906 C 573.253906 502.039062 571.636719 538.160156 537.808594 566.328125 C 537.453125 566.625 537.125 566.957031 536.832031 567.320312 C 536.539062 567.679688 536.285156 568.070312 536.066406 568.480469 C 535.851562 568.894531 535.675781 569.324219 535.546875 569.769531 C 535.414062 570.21875 535.324219 570.671875 535.285156 571.136719 C 535.242188 571.601562 535.246094 572.066406 535.292969 572.53125 C 535.34375 572.992188 535.4375 573.445312 535.574219 573.890625 C 535.714844 574.335938 535.894531 574.765625 536.117188 575.175781 C 536.339844 575.582031 536.601562 575.96875 536.898438 576.324219 C 537.195312 576.683594 537.527344 577.007812 537.890625 577.300781 C 538.25 577.59375 538.640625 577.851562 539.050781 578.066406 C 539.464844 578.285156 539.894531 578.457031 540.339844 578.589844 C 540.789062 578.722656 541.246094 578.808594 541.707031 578.851562 C 542.171875 578.894531 542.636719 578.890625 543.101562 578.84375 C 543.5625 578.792969 544.019531 578.699219 544.460938 578.558594 C 544.90625 578.421875 545.335938 578.242188 545.746094 578.019531 C 546.152344 577.796875 546.539062 577.535156 546.894531 577.238281 C 564.460938 562.613281 576.144531 544.253906 580.683594 524.148438 C 581.652344 519.851562 582.292969 515.511719 582.609375 511.121094 C 582.921875 506.730469 582.910156 502.339844 582.570312 497.949219 C 582.230469 493.5625 581.566406 489.222656 580.578125 484.929688 C 579.589844 480.640625 578.289062 476.449219 576.671875 472.355469 C 567.15625 448.554688 548.242188 433.40625 529.636719 434.640625 C 516.371094 435.523438 509.878906 442.015625 506.769531 447.308594 C 495.582031 466.347656 510.394531 498.90625 512.121094 502.558594 C 512.3125 502.953125 512.539062 503.324219 512.796875 503.675781 C 513.058594 504.027344 513.347656 504.351562 513.667969 504.652344 C 513.984375 504.949219 514.328125 505.214844 514.699219 505.449219 C 515.066406 505.683594 515.457031 505.882812 515.859375 506.046875 C 516.265625 506.210938 516.683594 506.335938 517.113281 506.421875 C 517.539062 506.507812 517.972656 506.554688 518.410156 506.558594 C 518.847656 506.566406 519.28125 506.53125 519.714844 506.457031 C 520.144531 506.382812 520.5625 506.269531 520.972656 506.117188 C 521.382812 505.964844 521.777344 505.777344 522.152344 505.554688 C 522.527344 505.328125 522.878906 505.070312 523.207031 504.78125 C 523.535156 504.492188 523.832031 504.175781 524.101562 503.832031 C 524.371094 503.488281 524.605469 503.121094 524.808594 502.734375 C 525.007812 502.34375 525.171875 501.941406 525.300781 501.523438 C 525.429688 501.105469 525.515625 500.679688 525.5625 500.242188 C 525.613281 499.808594 525.621094 499.375 525.585938 498.9375 C 525.554688 498.503906 525.484375 498.074219 525.371094 497.648438 C 527.035156 498.875 528.792969 500.140625 530.652344 501.449219 C 532 502.398438 543.8125 511.035156 544.242188 523.25 C 544.3125 526.902344 543.535156 530.359375 541.902344 533.628906 C 533.816406 533.703125 517.417969 535.15625 507.175781 544.855469 Z M 507.175781 544.855469" fill="#ff94e3"/><path fill-rule="nonzero" fill-opacity="1" d="M 479.753906 449.90625 C 479.550781 450.3125 479.382812 450.734375 479.257812 451.171875 C 479.132812 451.609375 479.050781 452.058594 479.011719 452.511719 C 478.972656 452.964844 478.976562 453.417969 479.023438 453.871094 C 479.074219 454.324219 479.164062 454.769531 479.296875 455.207031 C 479.433594 455.640625 479.605469 456.0625 479.820312 456.464844 C 480.035156 456.867188 480.289062 457.242188 480.574219 457.597656 C 480.863281 457.949219 481.179688 458.273438 481.53125 458.566406 C 481.878906 458.859375 482.253906 459.113281 482.652344 459.335938 C 483.054688 459.554688 483.46875 459.734375 483.902344 459.875 C 484.335938 460.015625 484.78125 460.113281 485.234375 460.167969 C 485.6875 460.222656 486.140625 460.234375 486.59375 460.199219 C 487.046875 460.167969 487.496094 460.09375 487.9375 459.972656 C 488.375 459.855469 488.800781 459.695312 489.210938 459.492188 C 489.621094 459.292969 490.007812 459.054688 490.371094 458.78125 C 490.734375 458.503906 491.066406 458.195312 491.371094 457.859375 C 491.675781 457.519531 491.945312 457.152344 492.179688 456.761719 C 492.875 455.507812 509.628906 426.113281 542.164062 428.609375 C 563.933594 430.28125 582.316406 446.480469 590.160156 470.898438 C 600.394531 502.765625 592.109375 552.945312 538.164062 598.207031 C 537.808594 598.507812 537.488281 598.835938 537.195312 599.195312 C 531.628906 606.089844 513.671875 623.667969 497.609375 622.175781 C 488.761719 621.355469 480.890625 614.675781 474.222656 602.316406 C 474 601.90625 473.738281 601.523438 473.441406 601.164062 C 473.144531 600.804688 472.816406 600.476562 472.453125 600.183594 C 472.09375 599.890625 471.707031 599.632812 471.292969 599.414062 C 470.882812 599.195312 470.453125 599.019531 470.007812 598.886719 C 469.558594 598.753906 469.105469 598.664062 468.640625 598.621094 C 468.175781 598.578125 467.710938 598.578125 467.25 598.628906 C 466.785156 598.675781 466.332031 598.765625 465.886719 598.90625 C 465.441406 599.042969 465.011719 599.222656 464.601562 599.441406 C 464.191406 599.664062 463.808594 599.921875 463.449219 600.21875 C 463.089844 600.515625 462.761719 600.847656 462.46875 601.207031 C 462.171875 601.570312 461.917969 601.957031 461.699219 602.367188 C 461.480469 602.78125 461.304688 603.210938 461.171875 603.65625 C 461.039062 604.101562 460.949219 604.558594 460.90625 605.023438 C 460.863281 605.488281 460.863281 605.949219 460.910156 606.414062 C 460.957031 606.878906 461.050781 607.332031 461.1875 607.777344 C 461.324219 608.222656 461.503906 608.652344 461.726562 609.0625 C 470.800781 625.878906 482.449219 635.050781 496.347656 636.316406 C 497.425781 636.414062 498.496094 636.460938 499.566406 636.460938 C 523.453125 636.460938 544.328125 612.800781 547.789062 608.660156 C 574.152344 586.417969 592.230469 561.648438 601.523438 535.019531 C 609.746094 511.449219 610.492188 487.773438 603.675781 466.550781 C 594.035156 436.535156 570.882812 416.570312 543.25 414.449219 C 501.484375 411.253906 480.617188 448.324219 479.753906 449.90625 Z M 479.753906 449.90625" fill="#ff94e3"/></svg>