<svg xmlns="http://www.w3.org/2000/svg" xmlns:xlink="http://www.w3.org/1999/xlink" width="1080" zoomAndPan="magnify" viewBox="0 0 810 809.999993" height="1080" preserveAspectRatio="xMidYMid meet" version="1.0"><defs><clipPath id="717c51666c"><path d="M 163 187.175781 L 599 187.175781 L 599 673.175781 L 163 673.175781 Z M 163 187.175781 " clip-rule="nonzero"/></clipPath></defs><rect x="-81" width="972" fill="#ffffff" y="-80.999999" height="971.999992" fill-opacity="1"/><rect x="-81" width="972" fill="#ffffff" y="-80.999999" height="971.999992" fill-opacity="1"/><g clip-path="url(#717c51666c)"><path fill="#162f62" d="M 598.144531 447.890625 C 597.941406 444.726562 597.316406 441.648438 596.269531 438.652344 C 594.511719 433.640625 591.757812 429.253906 588.011719 425.484375 C 586.554688 424.03125 584.980469 422.71875 583.285156 421.546875 C 581.59375 420.375 579.808594 419.359375 577.9375 418.503906 C 576.0625 417.652344 574.128906 416.96875 572.132812 416.460938 C 570.136719 415.953125 568.113281 415.625 566.058594 415.476562 C 565.773438 413.847656 565.375 412.242188 564.871094 410.664062 C 563.132812 405.324219 560.253906 400.695312 556.238281 396.777344 L 555.550781 396.089844 C 554.085938 394.707031 552.515625 393.464844 550.835938 392.359375 C 549.160156 391.25 547.398438 390.296875 545.550781 389.5 C 543.707031 388.699219 541.808594 388.0625 539.851562 387.59375 C 537.894531 387.125 535.914062 386.832031 533.90625 386.707031 L 531.53125 386.582031 C 529.238281 386.574219 526.964844 386.792969 524.714844 387.234375 C 522.464844 387.675781 520.28125 388.335938 518.160156 389.210938 C 516.039062 390.085938 514.023438 391.160156 512.117188 392.433594 C 510.210938 393.707031 508.445312 395.152344 506.824219 396.777344 L 425.136719 478.539062 L 367.230469 478.582031 L 367.230469 454.101562 C 375.503906 450.996094 383.558594 447.394531 391.390625 443.296875 C 399.222656 439.199219 406.773438 434.636719 414.046875 429.613281 C 421.316406 424.585938 428.25 419.132812 434.851562 413.253906 C 441.453125 407.375 447.667969 401.113281 453.496094 394.46875 C 457.382812 393.597656 461.210938 392.523438 464.984375 391.242188 C 468.757812 389.957031 472.449219 388.480469 476.0625 386.800781 C 479.671875 385.121094 483.1875 383.257812 486.597656 381.199219 C 490.011719 379.144531 493.304688 376.914062 496.476562 374.503906 C 499.648438 372.097656 502.683594 369.523438 505.578125 366.789062 C 508.476562 364.054688 511.21875 361.171875 513.804688 358.144531 C 516.390625 355.113281 518.808594 351.957031 521.058594 348.667969 C 523.304688 345.378906 525.371094 341.980469 527.253906 338.46875 C 528.726562 335.472656 530.0625 332.410156 531.257812 329.289062 C 532.449219 326.171875 533.496094 323 534.398438 319.785156 C 535.296875 316.566406 536.050781 313.3125 536.652344 310.027344 C 537.25 306.738281 537.699219 303.433594 537.996094 300.105469 C 538.292969 296.777344 538.433594 293.441406 538.421875 290.101562 C 538.410156 286.757812 538.246094 283.425781 537.925781 280.097656 C 537.605469 276.773438 537.136719 273.46875 536.511719 270.1875 C 535.886719 266.902344 535.113281 263.65625 534.191406 260.445312 C 534.167969 259.921875 534.097656 259.402344 533.980469 258.890625 C 533.863281 258.378906 533.703125 257.878906 533.496094 257.394531 C 533.289062 256.914062 533.042969 256.453125 532.753906 256.011719 C 532.464844 255.574219 532.140625 255.164062 531.777344 254.785156 C 531.414062 254.402344 531.019531 254.058594 530.59375 253.75 C 530.171875 253.441406 529.722656 253.171875 529.246094 252.945312 C 528.773438 252.714844 528.285156 252.53125 527.777344 252.390625 C 527.273438 252.25 526.757812 252.15625 526.234375 252.109375 C 526.015625 252.109375 525.796875 252.058594 525.570312 252.058594 L 525.453125 252.058594 C 524.136719 252.082031 522.871094 252.34375 521.65625 252.839844 C 518.402344 253.65625 515.195312 254.613281 512.03125 255.71875 C 508.867188 256.820312 505.757812 258.066406 502.703125 259.449219 C 499.652344 260.832031 496.667969 262.351562 493.753906 264.007812 C 490.835938 265.660156 488.003906 267.441406 485.246094 269.351562 C 482.492188 271.261719 479.832031 273.292969 477.257812 275.441406 C 474.6875 277.59375 472.21875 279.855469 469.851562 282.226562 C 467.484375 284.601562 465.230469 287.074219 463.085938 289.652344 C 460.941406 292.230469 458.921875 294.898438 457.015625 297.65625 C 455.011719 300.679688 453.15625 303.789062 451.457031 306.996094 C 449.753906 310.199219 448.214844 313.476562 446.835938 316.832031 C 445.457031 320.1875 444.25 323.605469 443.207031 327.078125 C 442.164062 330.554688 441.296875 334.070312 440.597656 337.632812 C 439.902344 341.191406 439.382812 344.777344 439.039062 348.386719 C 438.699219 352 438.53125 355.617188 438.546875 359.246094 C 438.558594 362.875 438.75 366.492188 439.117188 370.101562 C 439.488281 373.707031 440.035156 377.289062 440.753906 380.84375 C 435.769531 386.640625 430.464844 392.125 424.839844 397.296875 C 419.214844 402.472656 413.304688 407.296875 407.113281 411.777344 C 400.921875 416.257812 394.488281 420.363281 387.8125 424.089844 C 381.140625 427.816406 374.273438 431.140625 367.210938 434.0625 L 367.210938 393.96875 C 374.121094 388.09375 420.640625 347.269531 417.90625 286.316406 C 416.398438 252.328125 394.261719 211.164062 363.578125 189.472656 C 362.699219 188.945312 361.769531 188.546875 360.785156 188.273438 C 359.796875 187.996094 358.792969 187.859375 357.773438 187.859375 C 356.75 187.859375 355.746094 187.996094 354.761719 188.273438 C 353.773438 188.546875 352.84375 188.945312 351.96875 189.472656 C 321.320312 211.101562 299.082031 252.144531 297.621094 286.304688 C 295 347.152344 341.617188 387.730469 348.464844 393.503906 L 348.464844 433.898438 C 341.4375 430.976562 334.605469 427.652344 327.96875 423.933594 C 321.328125 420.210938 314.929688 416.117188 308.769531 411.648438 C 302.605469 407.179688 296.726562 402.371094 291.128906 397.21875 C 285.527344 392.0625 280.246094 386.601562 275.285156 380.832031 C 276.003906 377.277344 276.550781 373.695312 276.917969 370.085938 C 277.289062 366.480469 277.480469 362.859375 277.492188 359.234375 C 277.507812 355.605469 277.339844 351.988281 276.996094 348.375 C 276.65625 344.765625 276.136719 341.179688 275.4375 337.617188 C 274.742188 334.058594 273.875 330.539062 272.832031 327.066406 C 271.789062 323.589844 270.578125 320.175781 269.203125 316.820312 C 267.824219 313.464844 266.285156 310.1875 264.582031 306.980469 C 262.882812 303.777344 261.027344 300.664062 259.019531 297.644531 C 257.078125 294.820312 255.007812 292.09375 252.808594 289.460938 C 250.613281 286.828125 248.300781 284.304688 245.871094 281.882812 C 243.445312 279.464844 240.910156 277.164062 238.265625 274.976562 C 235.625 272.792969 232.890625 270.734375 230.058594 268.800781 C 227.226562 266.871094 224.3125 265.070312 221.316406 263.40625 C 218.316406 261.746094 215.25 260.222656 212.113281 258.839844 C 208.972656 257.460938 205.78125 256.226562 202.527344 255.140625 C 199.277344 254.054688 195.980469 253.121094 192.644531 252.339844 C 191.710938 252.121094 190.765625 252.046875 189.8125 252.113281 C 189.320312 252.0625 188.832031 252.050781 188.339844 252.085938 C 187.847656 252.121094 187.363281 252.199219 186.882812 252.324219 C 186.40625 252.445312 185.945312 252.609375 185.496094 252.816406 C 185.050781 253.023438 184.625 253.269531 184.21875 253.550781 C 183.816406 253.835938 183.441406 254.152344 183.097656 254.503906 C 182.75 254.855469 182.4375 255.234375 182.160156 255.644531 C 181.882812 256.050781 181.644531 256.480469 181.445312 256.929688 C 181.246094 257.382812 181.089844 257.847656 180.972656 258.324219 C 179.222656 264.945312 178.039062 271.664062 177.429688 278.480469 C 176.816406 285.300781 176.785156 292.121094 177.332031 298.945312 C 177.878906 305.769531 178.996094 312.5 180.6875 319.136719 C 182.375 325.769531 184.613281 332.214844 187.398438 338.46875 C 189.273438 342.089844 209.582031 380.089844 251.703125 392.9375 C 255.660156 394.148438 259.679688 395.09375 263.761719 395.78125 C 269.523438 402.242188 275.652344 408.335938 282.144531 414.058594 C 288.640625 419.78125 295.457031 425.09375 302.59375 429.992188 C 309.730469 434.894531 317.132812 439.347656 324.804688 443.355469 C 332.480469 447.363281 340.367188 450.894531 348.464844 453.953125 L 348.464844 478.601562 L 276.710938 478.652344 L 276.273438 478.589844 C 271.21875 478.226562 266.316406 478.9375 261.574219 480.714844 C 257.058594 482.371094 253.078125 484.875 249.625 488.222656 L 166.3125 571.484375 C 165.417969 572.367188 164.738281 573.390625 164.273438 574.554688 C 163.804688 575.71875 163.589844 576.925781 163.621094 578.179688 L 163.621094 663.167969 L 163.558594 663.921875 C 163.5625 664.527344 163.625 665.128906 163.746094 665.722656 C 163.871094 666.316406 164.046875 666.894531 164.28125 667.453125 C 164.515625 668.011719 164.800781 668.542969 165.140625 669.046875 C 165.476562 669.550781 165.859375 670.019531 166.289062 670.449219 C 166.71875 670.875 167.183594 671.261719 167.6875 671.597656 C 168.191406 671.9375 168.722656 672.222656 169.285156 672.457031 C 169.84375 672.691406 170.421875 672.867188 171.015625 672.988281 C 171.609375 673.109375 172.210938 673.171875 172.816406 673.175781 L 248.25 673.113281 C 249.511719 673.125 250.722656 672.882812 251.886719 672.394531 C 253.046875 671.90625 254.066406 671.207031 254.941406 670.300781 L 273.207031 651.222656 L 445.464844 607.875 C 451.792969 605.707031 457.589844 602.558594 462.851562 598.433594 C 468.34375 594.207031 473.492188 589.597656 478.300781 584.609375 L 588.011719 474.960938 C 590.539062 472.425781 592.625 469.566406 594.265625 466.386719 C 595.742188 463.535156 596.804688 460.542969 597.464844 457.402344 C 598.121094 454.261719 598.351562 451.09375 598.144531 447.890625 Z M 518.039062 273.382812 C 518.453125 275.699219 518.777344 278.027344 519.007812 280.371094 C 519.242188 282.714844 519.382812 285.0625 519.433594 287.414062 C 519.484375 289.765625 519.445312 292.121094 519.316406 294.46875 C 519.183594 296.820312 518.964844 299.160156 518.652344 301.496094 C 518.339844 303.828125 517.941406 306.144531 517.449219 308.449219 C 516.957031 310.75 516.378906 313.03125 515.710938 315.285156 C 515.046875 317.542969 514.292969 319.773438 513.453125 321.972656 C 512.613281 324.171875 511.691406 326.332031 510.683594 328.460938 C 509.675781 330.589844 508.589844 332.675781 507.421875 334.71875 C 506.253906 336.761719 505.007812 338.757812 503.6875 340.707031 C 502.363281 342.652344 500.96875 344.546875 499.5 346.386719 C 498.03125 348.226562 496.492188 350.003906 494.886719 351.726562 C 493.28125 353.445312 491.609375 355.101562 489.875 356.695312 C 488.140625 358.285156 486.347656 359.808594 484.496094 361.257812 C 482.644531 362.710938 480.738281 364.089844 478.78125 365.398438 C 476.820312 366.703125 474.816406 367.929688 472.761719 369.082031 C 481.371094 355.78125 488.414062 341.695312 493.890625 326.828125 C 498.0625 315.476562 479.933594 310.566406 475.792969 321.824219 C 471.027344 334.738281 464.925781 346.980469 457.480469 358.558594 C 457.5 356.242188 457.609375 353.925781 457.808594 351.617188 C 458.003906 349.304688 458.289062 347.007812 458.664062 344.71875 C 459.035156 342.429688 459.496094 340.160156 460.039062 337.90625 C 460.585938 335.652344 461.214844 333.421875 461.929688 331.214844 C 462.648438 329.011719 463.445312 326.835938 464.328125 324.691406 C 465.207031 322.546875 466.167969 320.4375 467.210938 318.367188 C 468.253906 316.292969 469.371094 314.265625 470.566406 312.277344 C 471.761719 310.292969 473.035156 308.355469 474.378906 306.464844 C 475.722656 304.574219 477.136719 302.738281 478.617188 300.957031 C 480.101562 299.175781 481.652344 297.453125 483.265625 295.789062 C 484.882812 294.125 486.558594 292.527344 488.292969 290.988281 C 490.03125 289.453125 491.824219 287.984375 493.671875 286.585938 C 495.519531 285.1875 497.417969 283.859375 499.371094 282.605469 C 501.320312 281.347656 503.3125 280.167969 505.351562 279.066406 C 507.390625 277.964844 509.472656 276.941406 511.589844 275.996094 C 513.707031 275.050781 515.855469 274.1875 518.039062 273.40625 Z M 196.710938 273 C 198.933594 273.753906 201.125 274.59375 203.28125 275.515625 C 205.4375 276.4375 207.558594 277.441406 209.640625 278.53125 C 211.71875 279.617188 213.753906 280.78125 215.746094 282.023438 C 217.734375 283.269531 219.675781 284.585938 221.5625 285.980469 C 223.453125 287.375 225.285156 288.835938 227.0625 290.371094 C 228.835938 291.90625 230.550781 293.507812 232.203125 295.175781 C 233.855469 296.84375 235.441406 298.570312 236.960938 300.359375 C 238.476562 302.148438 239.925781 303.996094 241.300781 305.894531 C 242.679688 307.796875 243.980469 309.746094 245.207031 311.75 C 246.433594 313.75 247.578125 315.796875 248.644531 317.886719 C 249.714844 319.976562 250.699219 322.105469 251.605469 324.269531 C 252.507812 326.4375 253.328125 328.636719 254.058594 330.863281 C 254.792969 333.09375 255.441406 335.347656 256 337.628906 C 256.5625 339.90625 257.03125 342.203125 257.414062 344.519531 C 257.796875 346.835938 258.089844 349.164062 258.292969 351.5 C 258.496094 353.839844 258.609375 356.179688 258.632812 358.527344 C 251.191406 346.972656 245.089844 334.75 240.324219 321.855469 C 236.183594 310.597656 218.050781 315.496094 222.230469 326.859375 C 227.898438 342.226562 235.238281 356.746094 244.253906 370.417969 C 242.109375 369.296875 240.015625 368.09375 237.964844 366.808594 C 235.917969 365.519531 233.925781 364.152344 231.984375 362.707031 C 230.046875 361.261719 228.164062 359.742188 226.347656 358.148438 C 224.527344 356.554688 222.777344 354.890625 221.089844 353.15625 C 219.402344 351.421875 217.789062 349.621094 216.242188 347.761719 C 214.699219 345.898438 213.230469 343.976562 211.839844 342 C 210.449219 340.019531 209.140625 337.988281 207.910156 335.90625 C 206.679688 333.824219 205.535156 331.695312 204.472656 329.523438 C 203.414062 327.347656 202.4375 325.136719 201.554688 322.882812 C 200.667969 320.632812 199.875 318.351562 199.171875 316.035156 C 198.464844 313.722656 197.855469 311.382812 197.335938 309.019531 C 196.820312 306.660156 196.394531 304.277344 196.066406 301.882812 C 195.738281 299.484375 195.503906 297.082031 195.367188 294.664062 C 195.226562 292.25 195.1875 289.832031 195.238281 287.414062 C 195.292969 284.996094 195.441406 282.585938 195.6875 280.179688 C 195.933594 277.773438 196.273438 275.378906 196.710938 273 Z M 519.898438 409.847656 C 521.449219 408.320312 523.230469 407.144531 525.246094 406.324219 C 527.257812 405.5 529.355469 405.089844 531.53125 405.09375 L 532.40625 405.09375 C 534.441406 405.191406 536.390625 405.652344 538.257812 406.472656 C 540.121094 407.289062 541.777344 408.417969 543.226562 409.847656 C 545.097656 411.726562 546.472656 413.917969 547.355469 416.417969 C 547.625 417.230469 547.792969 418.0625 547.855469 418.917969 C 544.421875 420.617188 541.335938 422.804688 538.597656 425.484375 L 462.226562 501.871094 C 460.511719 496.859375 457.78125 492.480469 454.035156 488.734375 C 451.8125 486.5625 449.351562 484.707031 446.652344 483.167969 Z M 316.277344 288.691406 C 316.453125 284.808594 316.835938 280.945312 317.429688 277.105469 C 318.023438 273.261719 318.820312 269.460938 319.824219 265.707031 C 320.828125 261.949219 322.03125 258.261719 323.4375 254.632812 C 324.839844 251.007812 326.433594 247.46875 328.21875 244.015625 C 330.003906 240.5625 331.972656 237.214844 334.117188 233.972656 C 336.265625 230.734375 338.582031 227.617188 341.066406 224.628906 C 343.550781 221.636719 346.191406 218.789062 348.980469 216.082031 C 351.773438 213.378906 354.703125 210.832031 357.773438 208.445312 C 360.839844 210.832031 363.769531 213.378906 366.5625 216.082031 C 369.355469 218.789062 371.992188 221.636719 374.476562 224.628906 C 376.960938 227.617188 379.277344 230.734375 381.425781 233.972656 C 383.574219 237.214844 385.539062 240.5625 387.324219 244.015625 C 389.109375 247.46875 390.707031 251.007812 392.109375 254.632812 C 393.511719 258.261719 394.714844 261.949219 395.71875 265.707031 C 396.722656 269.460938 397.519531 273.261719 398.113281 277.105469 C 398.707031 280.945312 399.089844 284.808594 399.265625 288.691406 C 399.359375 292.375 399.261719 296.050781 398.980469 299.71875 C 398.699219 303.390625 398.230469 307.039062 397.574219 310.660156 C 396.917969 314.285156 396.082031 317.863281 395.0625 321.402344 C 394.042969 324.941406 392.847656 328.417969 391.472656 331.832031 C 390.101562 335.246094 388.554688 338.585938 386.84375 341.84375 C 385.128906 345.101562 383.253906 348.265625 381.21875 351.332031 C 379.179688 354.398438 376.996094 357.355469 374.65625 360.199219 C 372.320312 363.042969 369.84375 365.761719 367.230469 368.355469 L 367.230469 289.804688 C 367.230469 289.191406 367.167969 288.582031 367.050781 287.976562 C 366.929688 287.371094 366.75 286.785156 366.515625 286.214844 C 366.28125 285.648438 365.992188 285.105469 365.648438 284.59375 C 365.304688 284.082031 364.917969 283.609375 364.480469 283.171875 C 364.046875 282.738281 363.570312 282.347656 363.058594 282.003906 C 362.546875 281.664062 362.007812 281.375 361.4375 281.136719 C 360.867188 280.902344 360.28125 280.726562 359.675781 280.605469 C 359.074219 280.484375 358.464844 280.425781 357.847656 280.425781 C 357.230469 280.425781 356.621094 280.484375 356.015625 280.605469 C 355.414062 280.726562 354.824219 280.902344 354.257812 281.136719 C 353.6875 281.375 353.148438 281.664062 352.632812 282.003906 C 352.121094 282.347656 351.648438 282.738281 351.210938 283.171875 C 350.777344 283.609375 350.386719 284.082031 350.046875 284.59375 C 349.703125 285.105469 349.414062 285.648438 349.179688 286.214844 C 348.941406 286.785156 348.765625 287.371094 348.644531 287.976562 C 348.523438 288.582031 348.464844 289.191406 348.464844 289.804688 L 348.464844 368.5 C 345.839844 365.90625 343.351562 363.183594 341.003906 360.339844 C 338.65625 357.492188 336.460938 354.53125 334.414062 351.460938 C 332.367188 348.390625 330.484375 345.222656 328.761719 341.957031 C 327.042969 338.691406 325.492188 335.351562 324.109375 331.925781 C 322.730469 328.503906 321.527344 325.019531 320.503906 321.476562 C 319.480469 317.929688 318.636719 314.34375 317.980469 310.710938 C 317.320312 307.082031 316.851562 303.425781 316.566406 299.746094 C 316.28125 296.066406 316.1875 292.382812 316.277344 288.691406 Z M 579.757812 450.269531 C 579.75 452.449219 579.328125 454.546875 578.496094 456.558594 C 577.660156 458.574219 576.476562 460.355469 574.941406 461.902344 L 465.105469 571.738281 C 460.964844 576.054688 456.523438 580.035156 451.78125 583.683594 C 448.355469 586.441406 444.582031 588.589844 440.460938 590.125 L 266.203125 633.972656 C 264.332031 634.402344 262.769531 635.339844 261.511719 636.785156 L 244.371094 654.675781 L 182.074219 654.675781 L 182.074219 581.933594 L 262.449219 501.496094 C 263.28125 500.691406 264.1875 499.988281 265.171875 499.382812 C 266.15625 498.773438 267.191406 498.277344 268.28125 497.894531 C 269.371094 497.511719 270.488281 497.25 271.636719 497.109375 C 272.785156 496.964844 273.933594 496.949219 275.082031 497.054688 L 429.328125 496.992188 C 431.347656 496.992188 433.300781 497.351562 435.1875 498.074219 C 437.074219 498.796875 438.769531 499.832031 440.273438 501.183594 L 440.898438 501.808594 C 442.339844 503.21875 443.480469 504.839844 444.324219 506.671875 C 445.164062 508.503906 445.648438 510.429688 445.777344 512.441406 L 445.777344 513.441406 C 445.773438 515.628906 445.347656 517.730469 444.503906 519.746094 C 443.65625 521.765625 442.457031 523.539062 440.898438 525.074219 C 439.371094 526.621094 437.605469 527.8125 435.597656 528.648438 C 433.589844 529.484375 431.5 529.898438 429.328125 529.890625 L 322.871094 529.890625 C 322.261719 529.890625 321.660156 529.949219 321.0625 530.070312 C 320.46875 530.1875 319.890625 530.363281 319.328125 530.597656 C 318.765625 530.828125 318.234375 531.113281 317.726562 531.453125 C 317.222656 531.789062 316.753906 532.171875 316.324219 532.601562 C 315.894531 533.03125 315.511719 533.5 315.171875 534.003906 C 314.835938 534.511719 314.550781 535.042969 314.316406 535.605469 C 314.085938 536.167969 313.910156 536.746094 313.789062 537.34375 C 313.671875 537.9375 313.613281 538.542969 313.613281 539.148438 C 313.613281 539.757812 313.671875 540.359375 313.789062 540.953125 C 313.910156 541.550781 314.085938 542.128906 314.316406 542.691406 C 314.550781 543.253906 314.835938 543.785156 315.171875 544.292969 C 315.511719 544.796875 315.894531 545.265625 316.324219 545.695312 C 316.753906 546.125 317.222656 546.507812 317.726562 546.847656 C 318.234375 547.183594 318.765625 547.46875 319.328125 547.703125 C 319.890625 547.933594 320.46875 548.109375 321.0625 548.226562 C 321.660156 548.347656 322.261719 548.40625 322.871094 548.40625 L 429.328125 548.40625 C 431.625 548.410156 433.898438 548.191406 436.148438 547.746094 C 438.402344 547.296875 440.589844 546.636719 442.710938 545.753906 C 444.828125 544.875 446.84375 543.792969 448.75 542.515625 C 450.65625 541.234375 452.417969 539.777344 454.035156 538.148438 C 456.164062 535.945312 457.980469 533.503906 459.476562 530.828125 L 551.671875 438.621094 C 553.203125 437.0625 554.980469 435.867188 557 435.03125 C 559.019531 434.195312 561.121094 433.785156 563.304688 433.804688 L 564.117188 433.804688 C 566.15625 433.890625 568.109375 434.34375 569.976562 435.164062 C 571.84375 435.984375 573.5 437.117188 574.941406 438.558594 C 576.371094 440.011719 577.5 441.671875 578.328125 443.53125 C 579.15625 445.394531 579.632812 447.34375 579.757812 449.378906 Z M 579.757812 450.269531 " fill-opacity="1" fill-rule="nonzero"/></g></svg>