<svg xmlns="http://www.w3.org/2000/svg" xmlns:xlink="http://www.w3.org/1999/xlink" width="1080" zoomAndPan="magnify" viewBox="0 0 810 809.999993" height="1080" preserveAspectRatio="xMidYMid meet" version="1.0"><defs><clipPath id="509e1622b7"><path d="M 572 230.996094 L 601 230.996094 L 601 249 L 572 249 Z M 572 230.996094 " clip-rule="nonzero"/></clipPath><clipPath id="b6cee9358b"><path d="M 625 483 L 654.324219 483 L 654.324219 502 L 625 502 Z M 625 483 " clip-rule="nonzero"/></clipPath><clipPath id="1ffa5f54df"><path d="M 208.824219 301 L 238 301 L 238 320 L 208.824219 320 Z M 208.824219 301 " clip-rule="nonzero"/></clipPath><clipPath id="755688c9e8"><path d="M 267 577 L 292 577 L 292 602.996094 L 267 602.996094 Z M 267 577 " clip-rule="nonzero"/></clipPath></defs><path fill="#f0c0bf" d="M 388.246094 430.675781 C 384.398438 430.675781 380.792969 428.851562 378.84375 425.917969 C 377.644531 424.113281 376.59375 421.242188 377.515625 417.183594 C 376.050781 417.246094 374.71875 417.308594 373.457031 417.363281 C 368.15625 417.613281 364.1875 417.800781 357.363281 417.699219 C 357.078125 417.695312 356.808594 417.636719 356.550781 417.523438 C 356.289062 417.410156 356.0625 417.25 355.867188 417.046875 C 355.675781 416.839844 355.527344 416.609375 355.425781 416.34375 C 355.324219 416.078125 355.277344 415.804688 355.289062 415.523438 C 355.417969 411.640625 355.835938 408.171875 356.242188 404.816406 C 356.546875 402.261719 356.839844 399.8125 357.015625 397.199219 C 356.96875 397.199219 356.921875 397.195312 356.871094 397.195312 C 351.503906 397.035156 340.339844 396.703125 340.09375 384.714844 C 340.015625 382.933594 340.289062 381.210938 340.914062 379.542969 C 341.535156 377.875 342.460938 376.394531 343.683594 375.101562 C 347.132812 371.578125 352.628906 370.457031 357.652344 372.285156 C 359.332031 364.398438 359.355469 356.511719 357.722656 348.617188 C 357.632812 348.421875 357.574219 348.214844 357.546875 348 C 357.484375 347.324219 357.683594 346.734375 358.152344 346.238281 C 358.324219 346.058594 358.527344 345.914062 358.753906 345.804688 C 358.980469 345.695312 359.21875 345.628906 359.46875 345.605469 C 359.71875 345.582031 359.964844 345.605469 360.207031 345.667969 C 360.453125 345.734375 360.675781 345.839844 360.882812 345.984375 C 361.867188 346.144531 364.21875 346.328125 366.324219 346.496094 C 370.675781 346.839844 376.085938 347.265625 379.800781 348.066406 C 379.964844 348.101562 380.125 348.152344 380.273438 348.226562 C 380.425781 348.296875 380.566406 348.386719 380.695312 348.496094 C 380.824219 348.601562 380.941406 348.722656 381.042969 348.855469 C 381.144531 348.988281 381.226562 349.132812 381.292969 349.285156 C 381.359375 349.441406 381.410156 349.601562 381.4375 349.765625 C 381.464844 349.929688 381.472656 350.097656 381.460938 350.265625 C 381.453125 350.429688 381.421875 350.59375 381.371094 350.753906 C 381.320312 350.914062 381.25 351.066406 381.164062 351.210938 C 379.613281 353.78125 379.246094 358.820312 381.167969 362.230469 C 382.835938 365.179688 385.855469 366.398438 390.316406 365.757812 C 394.34375 365.183594 395.035156 360.253906 395.523438 353.863281 C 395.625 352.539062 395.722656 351.292969 395.871094 350.222656 C 395.914062 349.953125 396 349.699219 396.136719 349.464844 C 396.277344 349.230469 396.453125 349.027344 396.667969 348.859375 C 396.882812 348.691406 397.121094 348.570312 397.382812 348.496094 C 397.644531 348.417969 397.910156 348.394531 398.183594 348.421875 C 401.242188 348.75 404.566406 348.96875 408.085938 349.203125 C 413.011719 349.523438 418.109375 349.859375 422.78125 350.527344 C 423.039062 350.566406 423.28125 350.648438 423.507812 350.773438 C 423.734375 350.902344 423.933594 351.066406 424.097656 351.265625 C 424.265625 351.464844 424.390625 351.691406 424.476562 351.9375 C 424.558594 352.183594 424.59375 352.4375 424.585938 352.695312 C 424.488281 355.121094 424.433594 357.554688 424.382812 359.988281 C 424.25 366.105469 424.113281 372.425781 423.230469 378.605469 C 423.1875 378.890625 423.09375 379.15625 422.941406 379.40625 C 422.789062 379.652344 422.59375 379.859375 422.355469 380.027344 C 422.117188 380.191406 421.855469 380.304688 421.574219 380.363281 C 421.289062 380.421875 421.003906 380.421875 420.71875 380.363281 C 417.164062 379.628906 412.339844 381.203125 410.335938 383.753906 C 409.898438 384.269531 409.601562 384.855469 409.445312 385.515625 C 409.289062 386.171875 409.292969 386.832031 409.457031 387.488281 C 410.550781 391.964844 414.160156 394.320312 420.816406 394.90625 C 421.257812 394.945312 421.648438 395.105469 421.988281 395.390625 C 422.324219 395.675781 422.550781 396.03125 422.667969 396.457031 C 424.4375 403.035156 422.878906 412.445312 422.363281 415.171875 C 422.277344 415.621094 422.066406 416 421.734375 416.3125 C 421.402344 416.621094 421.011719 416.808594 420.558594 416.863281 C 414.519531 417.664062 408.457031 418.089844 402.363281 418.148438 C 400.929688 418.148438 399.582031 418.117188 398.332031 418.050781 C 399.046875 422.167969 397.945312 424.917969 396.75 426.59375 C 394.898438 429.183594 391.796875 430.675781 388.246094 430.675781 Z M 380.445312 412.855469 C 380.621094 412.855469 380.789062 412.878906 380.957031 412.917969 C 381.128906 412.960938 381.289062 413.023438 381.441406 413.105469 C 381.59375 413.1875 381.734375 413.285156 381.863281 413.402344 C 381.992188 413.519531 382.101562 413.652344 382.199219 413.796875 C 382.296875 413.941406 382.371094 414.09375 382.429688 414.257812 C 382.488281 414.421875 382.523438 414.589844 382.542969 414.761719 C 382.558594 414.933594 382.554688 415.109375 382.527344 415.277344 C 382.5 415.449219 382.453125 415.617188 382.386719 415.777344 C 381.0625 418.925781 381.046875 421.628906 382.347656 423.585938 C 383.527344 425.363281 385.789062 426.464844 388.246094 426.464844 C 390.417969 426.464844 392.269531 425.621094 393.324219 424.144531 C 394.605469 422.347656 394.683594 419.671875 393.5625 416.398438 C 393.503906 416.230469 393.46875 416.058594 393.453125 415.878906 C 393.4375 415.703125 393.445312 415.527344 393.476562 415.351562 C 393.507812 415.179688 393.558594 415.007812 393.632812 414.847656 C 393.707031 414.6875 393.796875 414.535156 393.910156 414.398438 C 394.019531 414.257812 394.144531 414.136719 394.289062 414.03125 C 394.429688 413.921875 394.582031 413.835938 394.746094 413.769531 C 394.910156 413.699219 395.082031 413.652344 395.257812 413.628906 C 395.433594 413.605469 395.609375 413.601562 395.785156 413.621094 C 401.082031 414.21875 409.59375 413.929688 418.492188 412.878906 C 419.191406 408.5625 419.609375 402.988281 418.902344 398.925781 C 411.359375 397.894531 406.816406 394.390625 405.367188 388.484375 C 405.046875 387.199219 405.03125 385.910156 405.324219 384.617188 C 405.617188 383.328125 406.183594 382.171875 407.027344 381.152344 C 409.609375 377.863281 414.542969 375.75 419.324219 375.972656 C 419.941406 370.671875 420.058594 365.203125 420.171875 359.894531 C 420.214844 358.074219 420.25 356.257812 420.3125 354.445312 C 416.308594 353.957031 411.996094 353.671875 407.808594 353.398438 C 405.023438 353.214844 402.363281 353.039062 399.828125 352.8125 C 399.792969 353.253906 399.757812 353.710938 399.722656 354.179688 C 399.277344 360.011719 398.605469 368.832031 390.910156 369.921875 C 384.824219 370.777344 380.011719 368.742188 377.503906 364.296875 C 375.324219 360.433594 375.246094 355.453125 376.386719 351.726562 C 373.191406 351.257812 369.28125 350.949219 365.992188 350.6875 C 364.472656 350.570312 363.285156 350.472656 362.347656 350.386719 C 363.683594 358.941406 363.28125 367.414062 361.140625 375.804688 C 361.101562 375.960938 361.042969 376.113281 360.96875 376.253906 C 360.890625 376.398438 360.800781 376.53125 360.695312 376.652344 C 360.589844 376.773438 360.46875 376.882812 360.339844 376.980469 C 360.207031 377.074219 360.066406 377.152344 359.917969 377.214844 C 359.769531 377.277344 359.613281 377.320312 359.453125 377.347656 C 359.296875 377.375 359.132812 377.382812 358.972656 377.375 C 358.8125 377.363281 358.652344 377.335938 358.5 377.289062 C 358.34375 377.242188 358.195312 377.179688 358.054688 377.097656 C 354.121094 374.832031 349.414062 375.269531 346.691406 378.042969 C 345.074219 379.695312 344.246094 381.972656 344.300781 384.625 C 344.453125 392.015625 350.140625 392.78125 356.996094 392.988281 C 357.921875 393.015625 358.75 393.042969 359.429688 393.105469 C 359.699219 393.128906 359.953125 393.203125 360.191406 393.328125 C 360.433594 393.449219 360.640625 393.613281 360.816406 393.816406 C 360.996094 394.015625 361.128906 394.246094 361.21875 394.5 C 361.308594 394.753906 361.347656 395.015625 361.335938 395.285156 C 361.191406 398.878906 360.796875 402.152344 360.417969 405.316406 C 360.101562 407.941406 359.777344 410.632812 359.601562 413.511719 C 365.058594 413.535156 368.621094 413.378906 373.265625 413.160156 C 375.351562 413.0625 377.632812 412.957031 380.367188 412.855469 Z M 380.445312 412.855469 " fill-opacity="1" fill-rule="nonzero"/><path fill="#f0c0bf" d="M 482.96875 420.3125 L 482.882812 420.3125 C 477.941406 420.117188 468.703125 419.660156 462.414062 418.773438 C 462.128906 418.734375 461.867188 418.640625 461.621094 418.492188 C 461.375 418.34375 461.167969 418.152344 461 417.921875 C 460.832031 417.6875 460.71875 417.433594 460.65625 417.152344 C 460.589844 416.875 460.585938 416.59375 460.636719 416.3125 C 461.304688 412.660156 460.296875 409.671875 457.808594 407.886719 C 457.1875 407.453125 456.515625 407.105469 455.800781 406.851562 C 455.082031 406.601562 454.34375 406.449219 453.585938 406.394531 C 452.828125 406.34375 452.074219 406.398438 451.332031 406.550781 C 450.585938 406.707031 449.875 406.957031 449.199219 407.308594 C 447.492188 408.261719 445.515625 410.328125 445.816406 414.742188 C 445.859375 415.367188 445.664062 415.902344 445.230469 416.355469 C 444.792969 416.792969 444.261719 417.007812 443.640625 416.992188 C 439.15625 416.824219 424.855469 416.707031 421.304688 416.753906 C 421.027344 416.742188 420.765625 416.683594 420.511719 416.574219 C 420.261719 416.46875 420.035156 416.316406 419.839844 416.125 C 419.640625 415.933594 419.488281 415.714844 419.371094 415.464844 C 419.253906 415.214844 419.1875 414.953125 419.171875 414.679688 C 419.167969 414.402344 419.214844 414.132812 419.320312 413.871094 C 419.421875 413.613281 419.570312 413.382812 419.765625 413.183594 C 419.960938 412.984375 420.183594 412.828125 420.441406 412.71875 C 420.695312 412.609375 420.964844 412.550781 421.242188 412.546875 C 424.378906 412.503906 435.769531 412.582031 441.628906 412.722656 C 441.949219 408.695312 443.894531 405.449219 447.152344 403.632812 C 448.175781 403.085938 449.253906 402.6875 450.390625 402.445312 C 451.523438 402.199219 452.667969 402.113281 453.824219 402.183594 C 454.984375 402.257812 456.109375 402.488281 457.203125 402.875 C 458.296875 403.261719 459.316406 403.792969 460.261719 404.464844 C 463.550781 406.816406 465.230469 410.53125 465.035156 414.863281 C 470.132812 415.457031 476.527344 415.820312 480.988281 416.019531 C 481.089844 414.523438 481.214844 413.027344 481.339844 411.535156 C 481.632812 407.960938 481.941406 404.277344 481.882812 400.617188 C 476.582031 399.230469 470.601562 397.195312 471.195312 389.449219 C 471.277344 387.804688 471.6875 386.246094 472.414062 384.769531 C 473.144531 383.296875 474.132812 382.023438 475.386719 380.957031 C 477.945312 378.8125 481.535156 377.636719 485.445312 377.621094 C 485.882812 372.851562 486.3125 363.601562 486.492188 359.535156 C 480.5 359.011719 471.964844 358.523438 469.574219 359.058594 C 469.179688 359.148438 468.792969 359.125 468.414062 358.992188 C 468.03125 358.859375 467.714844 358.636719 467.464844 358.324219 C 467.210938 358.007812 467.0625 357.652344 467.015625 357.25 C 466.96875 356.851562 467.035156 356.46875 467.207031 356.105469 C 468.839844 352.671875 469.96875 347.964844 466.089844 345.046875 C 462.285156 342.191406 455.285156 342.289062 451.957031 345.242188 C 449.851562 347.109375 449.78125 349.765625 451.738281 353.148438 C 451.933594 353.480469 452.027344 353.84375 452.023438 354.230469 C 452.019531 354.617188 451.914062 354.972656 451.710938 355.304688 C 451.511719 355.632812 451.238281 355.886719 450.894531 356.066406 C 450.554688 356.246094 450.1875 356.324219 449.804688 356.304688 C 444.535156 356.019531 421.980469 355.265625 421.753906 355.257812 C 421.476562 355.25 421.214844 355.1875 420.964844 355.074219 C 420.714844 354.960938 420.492188 354.804688 420.304688 354.605469 C 420.113281 354.40625 419.96875 354.175781 419.871094 353.917969 C 419.769531 353.664062 419.722656 353.398438 419.726562 353.121094 C 419.730469 352.847656 419.789062 352.582031 419.898438 352.328125 C 420.003906 352.074219 420.15625 351.851562 420.351562 351.660156 C 420.550781 351.464844 420.773438 351.316406 421.027344 351.210938 C 421.285156 351.105469 421.546875 351.054688 421.824219 351.054688 L 421.894531 351.054688 C 422.683594 351.082031 438.578125 351.605469 446.617188 351.941406 C 444.984375 346.636719 447.714844 343.375 449.164062 342.09375 C 453.964844 337.835938 463.238281 337.644531 468.617188 341.683594 C 470.585938 343.160156 474.464844 347.164062 472.277344 354.628906 C 478.160156 354.511719 487.585938 355.398438 488.886719 355.527344 C 489.152344 355.554688 489.40625 355.628906 489.644531 355.753906 C 489.882812 355.875 490.089844 356.039062 490.265625 356.242188 C 490.441406 356.445312 490.574219 356.671875 490.664062 356.925781 C 490.753906 357.179688 490.792969 357.4375 490.78125 357.707031 C 490.753906 358.425781 490.0625 375.390625 489.402344 380.109375 C 489.359375 380.378906 489.273438 380.628906 489.136719 380.863281 C 489 381.09375 488.824219 381.296875 488.609375 381.464844 C 488.398438 381.628906 488.160156 381.753906 487.902344 381.832031 C 487.644531 381.90625 487.378906 381.933594 487.109375 381.910156 C 483.574219 381.550781 480.203125 382.410156 478.089844 384.179688 C 477.269531 384.882812 476.625 385.71875 476.15625 386.691406 C 475.683594 387.664062 475.429688 388.6875 475.386719 389.769531 C 475.058594 394.074219 477.761719 395.222656 484.007812 396.816406 L 484.457031 396.933594 C 484.90625 397.046875 485.277344 397.28125 485.570312 397.640625 C 485.859375 398 486.019531 398.410156 486.039062 398.871094 C 486.242188 403.3125 485.878906 407.671875 485.527344 411.882812 C 485.351562 414.019531 485.171875 416.164062 485.070312 418.3125 C 485.058594 418.582031 484.996094 418.839844 484.882812 419.085938 C 484.769531 419.332031 484.617188 419.546875 484.417969 419.734375 C 484.222656 419.917969 484 420.0625 483.75 420.164062 C 483.5 420.261719 483.238281 420.3125 482.96875 420.3125 Z M 482.96875 420.3125 " fill-opacity="1" fill-rule="nonzero"/><path fill="#f0c0bf" d="M 471.21875 478.894531 C 466.914062 478.863281 462.632812 478.542969 458.371094 477.941406 C 458.09375 477.90625 457.835938 477.816406 457.59375 477.675781 C 457.351562 477.535156 457.148438 477.355469 456.976562 477.132812 C 456.808594 476.910156 456.6875 476.664062 456.617188 476.394531 C 456.542969 476.125 456.527344 475.851562 456.5625 475.578125 C 456.601562 475.300781 456.6875 475.039062 456.828125 474.800781 C 456.96875 474.558594 457.152344 474.351562 457.371094 474.183594 C 457.59375 474.011719 457.839844 473.890625 458.109375 473.820312 C 458.378906 473.75 458.652344 473.730469 458.929688 473.769531 C 467.652344 474.933594 473.136719 474.796875 477.242188 474.386719 C 477.574219 469.320312 477.8125 457.28125 477.410156 455.125 C 477.339844 454.746094 477.371094 454.378906 477.503906 454.015625 C 477.632812 453.65625 477.847656 453.355469 478.144531 453.109375 C 478.441406 452.867188 478.78125 452.714844 479.160156 452.660156 C 479.539062 452.601562 479.90625 452.640625 480.261719 452.785156 C 485.273438 454.800781 489.296875 454.417969 491.597656 451.722656 C 493.648438 449.320312 493.882812 445.464844 492.148438 442.566406 C 490.152344 439.226562 486.042969 437.953125 480.839844 439.078125 C 480.667969 439.117188 480.496094 439.132812 480.320312 439.125 C 480.144531 439.117188 479.96875 439.089844 479.800781 439.039062 C 479.632812 438.988281 479.472656 438.921875 479.320312 438.832031 C 479.167969 438.742188 479.03125 438.632812 478.90625 438.507812 C 478.78125 438.382812 478.675781 438.246094 478.585938 438.09375 C 478.496094 437.941406 478.425781 437.78125 478.375 437.613281 C 478.328125 437.445312 478.296875 437.273438 478.292969 437.09375 C 478.285156 436.917969 478.300781 436.746094 478.339844 436.574219 C 478.816406 434.394531 479.128906 430.800781 479.433594 427.328125 C 479.773438 423.433594 480.09375 419.753906 480.664062 417.824219 C 480.742188 417.554688 480.871094 417.3125 481.046875 417.097656 C 481.21875 416.882812 481.429688 416.707031 481.675781 416.574219 C 481.921875 416.441406 482.179688 416.359375 482.457031 416.328125 C 482.734375 416.300781 483.007812 416.324219 483.277344 416.402344 C 483.542969 416.480469 483.785156 416.609375 484 416.785156 C 484.21875 416.960938 484.394531 417.167969 484.527344 417.414062 C 484.660156 417.65625 484.742188 417.917969 484.773438 418.195312 C 484.804688 418.472656 484.777344 418.746094 484.699219 419.011719 C 484.25 420.539062 483.933594 424.175781 483.625 427.695312 C 483.421875 430.050781 483.207031 432.460938 482.941406 434.527344 C 488.582031 434.097656 493.253906 436.210938 495.761719 440.410156 C 498.4375 444.882812 498.042969 450.660156 494.796875 454.457031 C 493.328125 456.183594 489.324219 459.621094 481.789062 457.707031 C 481.953125 463.589844 481.5625 474.21875 481.285156 476.539062 C 481.226562 477.015625 481.027344 477.425781 480.683594 477.769531 C 480.34375 478.109375 479.933594 478.3125 479.457031 478.371094 C 476.722656 478.722656 473.976562 478.898438 471.21875 478.894531 Z M 471.21875 478.894531 " fill-opacity="1" fill-rule="nonzero"/><path fill="#f0c0bf" d="M 439.390625 476.535156 C 439.3125 476.535156 439.234375 476.53125 439.15625 476.523438 C 426.976562 475.15625 416.976562 473.699219 411.730469 472.53125 C 411.460938 472.46875 411.210938 472.355469 410.988281 472.195312 C 410.761719 472.035156 410.574219 471.835938 410.425781 471.601562 C 410.277344 471.367188 410.179688 471.113281 410.132812 470.839844 C 410.085938 470.566406 410.09375 470.292969 410.152344 470.019531 C 410.214844 469.75 410.324219 469.5 410.484375 469.273438 C 410.640625 469.046875 410.839844 468.859375 411.070312 468.707031 C 411.304688 468.558594 411.558594 468.457031 411.832031 468.410156 C 412.105469 468.359375 412.378906 468.363281 412.648438 468.421875 C 417.753906 469.5625 427.589844 470.992188 439.621094 472.335938 C 439.890625 472.367188 440.140625 472.445312 440.378906 472.570312 C 440.617188 472.699219 440.820312 472.863281 440.996094 473.070312 C 441.171875 473.273438 441.300781 473.503906 441.386719 473.761719 C 441.472656 474.015625 441.507812 474.277344 441.492188 474.546875 C 441.476562 474.816406 441.414062 475.070312 441.300781 475.316406 C 441.1875 475.558594 441.03125 475.773438 440.835938 475.960938 C 440.640625 476.144531 440.417969 476.285156 440.167969 476.386719 C 439.917969 476.484375 439.660156 476.535156 439.390625 476.535156 Z M 439.390625 476.535156 " fill-opacity="1" fill-rule="nonzero"/><path fill="#f0c0bf" d="M 388.898438 487.179688 C 383.269531 487.179688 377.402344 484.214844 376.621094 478.179688 C 376.402344 476.488281 376.832031 474.761719 377.214844 473.234375 C 377.644531 471.519531 377.816406 470.5625 377.585938 470.207031 C 376.703125 470.148438 374.535156 470.292969 373.433594 470.363281 C 372.480469 470.425781 371.65625 470.488281 371.28125 470.46875 L 369.144531 470.46875 C 364.160156 470.457031 358.519531 470.476562 353.628906 468.5625 C 353.226562 468.40625 352.90625 468.152344 352.660156 467.796875 C 352.417969 467.441406 352.292969 467.050781 352.292969 466.621094 C 352.171875 450.179688 354.835938 419.828125 355.367188 413.914062 C 355.390625 413.632812 355.464844 413.371094 355.59375 413.121094 C 355.722656 412.871094 355.894531 412.660156 356.109375 412.480469 C 356.324219 412.300781 356.566406 412.167969 356.832031 412.089844 C 357.101562 412.007812 357.375 411.980469 357.652344 412.007812 C 357.929688 412.035156 358.191406 412.113281 358.441406 412.242188 C 358.6875 412.371094 358.898438 412.542969 359.078125 412.757812 C 359.257812 412.972656 359.386719 413.210938 359.46875 413.476562 C 359.554688 413.742188 359.582031 414.015625 359.558594 414.292969 C 358.144531 429.925781 356.535156 452.214844 356.492188 465.105469 C 360.355469 466.269531 364.839844 466.246094 369.136719 466.261719 L 371.316406 466.265625 C 371.640625 466.246094 372.347656 466.222656 373.160156 466.171875 C 377.226562 465.90625 378.546875 465.910156 379.449219 466.394531 C 382.804688 468.195312 381.898438 471.84375 381.292969 474.261719 C 380.992188 475.480469 380.675781 476.742188 380.792969 477.648438 C 381.367188 482.078125 386.753906 483.253906 390 482.925781 C 395.953125 482.355469 396.53125 478.589844 396.777344 472.457031 C 396.816406 471.382812 396.859375 470.351562 396.960938 469.410156 C 397.007812 468.972656 397.171875 468.589844 397.460938 468.257812 C 397.746094 467.925781 398.101562 467.707031 398.523438 467.597656 C 402.023438 466.683594 405.472656 467.328125 408.808594 467.949219 C 409.957031 468.164062 411.066406 468.371094 412.148438 468.511719 C 412.578125 465.726562 413.046875 462.960938 413.515625 460.195312 C 414.144531 456.457031 414.777344 452.726562 415.3125 448.949219 C 415.367188 448.574219 415.507812 448.238281 415.746094 447.941406 C 415.980469 447.644531 416.273438 447.425781 416.625 447.289062 C 416.980469 447.148438 417.34375 447.109375 417.71875 447.164062 C 418.089844 447.222656 418.425781 447.371094 418.722656 447.609375 C 420.597656 449.128906 424.746094 450.375 427.894531 449.820312 C 432.792969 448.957031 433.601562 445.28125 433.722656 443.742188 C 434.214844 437.476562 430.746094 435.527344 427.746094 434.992188 C 426.027344 434.6875 424.289062 434.976562 422.890625 435.207031 C 421.292969 435.476562 419.90625 435.710938 418.8125 434.804688 C 418.195312 434.292969 417.882812 433.632812 417.878906 432.828125 C 417.753906 427.738281 418.199219 417.066406 418.457031 414.179688 C 418.480469 413.902344 418.554688 413.640625 418.683594 413.390625 C 418.8125 413.140625 418.984375 412.929688 419.199219 412.75 C 419.414062 412.570312 419.65625 412.441406 419.921875 412.359375 C 420.191406 412.277344 420.464844 412.25 420.742188 412.277344 C 421.019531 412.304688 421.28125 412.378906 421.527344 412.511719 C 421.777344 412.640625 421.988281 412.8125 422.167969 413.027344 C 422.347656 413.238281 422.476562 413.480469 422.558594 413.746094 C 422.640625 414.011719 422.671875 414.285156 422.644531 414.5625 C 422.425781 417.015625 422.050781 425.792969 422.0625 431.082031 C 422.109375 431.074219 422.152344 431.0625 422.195312 431.058594 C 423.816406 430.789062 426.046875 430.40625 428.480469 430.851562 C 434.953125 432 438.472656 436.941406 437.914062 444.070312 C 437.507812 449.234375 433.949219 453.023438 428.621094 453.96875 C 425.347656 454.542969 421.761719 453.828125 419.019531 452.621094 C 418.589844 455.390625 418.125 458.144531 417.660156 460.902344 C 417.089844 464.28125 416.515625 467.664062 416.011719 471.085938 C 415.96875 471.339844 415.882812 471.578125 415.753906 471.800781 C 415.625 472.023438 415.460938 472.214844 415.261719 472.378906 C 415.0625 472.546875 414.84375 472.671875 414.601562 472.757812 C 414.359375 472.84375 414.109375 472.886719 413.851562 472.882812 C 411.890625 472.761719 409.953125 472.496094 408.03125 472.085938 C 405.566406 471.632812 403.21875 471.195312 401.027344 471.414062 C 401.007812 471.808594 400.992188 472.214844 400.976562 472.625 C 400.761719 478.015625 400.433594 486.15625 390.398438 487.117188 C 389.90625 487.15625 389.402344 487.179688 388.898438 487.179688 Z M 388.898438 487.179688 " fill-opacity="1" fill-rule="nonzero"/><path fill="#f0c0bf" d="M 458.371094 478.390625 C 458.308594 478.390625 458.242188 478.386719 458.179688 478.382812 C 457.902344 478.355469 457.640625 478.28125 457.390625 478.152344 C 457.144531 478.019531 456.929688 477.847656 456.75 477.636719 C 456.574219 477.421875 456.441406 477.179688 456.359375 476.914062 C 456.277344 476.648438 456.246094 476.375 456.273438 476.097656 L 456.328125 475.480469 C 456.621094 472.410156 456.949219 468.929688 454.242188 466.433594 C 452.292969 464.640625 448.851562 462.917969 446.558594 463.113281 C 443.574219 463.371094 441.707031 464.261719 441.011719 465.757812 C 440.042969 467.851562 439.855469 471.589844 440.5 472.164062 C 440.742188 472.304688 440.945312 472.484375 441.117188 472.707031 C 441.285156 472.925781 441.40625 473.171875 441.480469 473.441406 C 441.550781 473.710938 441.570312 473.984375 441.535156 474.261719 C 441.496094 474.539062 441.410156 474.796875 441.269531 475.039062 C 441.128906 475.28125 440.949219 475.484375 440.730469 475.65625 C 440.507812 475.824219 440.261719 475.945312 439.992188 476.019531 C 439.722656 476.089844 439.449219 476.109375 439.175781 476.074219 C 438.898438 476.035156 438.636719 475.949219 438.394531 475.808594 C 434.410156 473.53125 436.148438 466.242188 437.195312 463.984375 C 438.574219 461.023438 441.597656 459.320312 446.191406 458.917969 C 450.058594 458.566406 454.53125 460.980469 457.09375 463.339844 C 461.335938 467.25 460.84375 472.441406 460.519531 475.878906 L 460.460938 476.472656 C 460.4375 476.734375 460.367188 476.980469 460.253906 477.21875 C 460.136719 477.453125 459.980469 477.660156 459.789062 477.835938 C 459.59375 478.015625 459.375 478.152344 459.132812 478.246094 C 458.886719 478.339844 458.632812 478.390625 458.371094 478.390625 Z M 458.371094 478.390625 " fill-opacity="1" fill-rule="nonzero"/><path fill="#f0c0bf" d="M 496.757812 272.453125 L 494.222656 270.152344 C 494.691406 269.636719 495.273438 268.921875 495.941406 268.101562 C 498.546875 264.914062 502.484375 260.097656 506.519531 258.429688 C 511.332031 256.453125 517.042969 256.941406 522 257.6875 L 527.632812 258.542969 C 535.679688 259.773438 545.699219 261.300781 552.152344 262.039062 C 557.699219 262.65625 562.109375 261.042969 567.851562 258.027344 L 569.441406 261.054688 C 563.269531 264.296875 558.144531 266.144531 551.761719 265.4375 C 545.25 264.695312 535.195312 263.160156 527.117188 261.921875 L 521.492188 261.070312 C 517 260.394531 511.863281 259.921875 507.828125 261.59375 C 504.59375 262.925781 500.980469 267.34375 498.59375 270.265625 C 497.878906 271.140625 497.257812 271.902344 496.757812 272.453125 Z M 496.757812 272.453125 " fill-opacity="1" fill-rule="nonzero"/><path fill="#f0c0bf" d="M 498.046875 359.636719 L 497.554688 359.378906 C 492.875 356.921875 491.558594 353.542969 491.28125 351.144531 C 490.6875 346.003906 494.207031 340.425781 497.960938 337.175781 C 499.585938 335.773438 502.980469 332.710938 506.652344 329.394531 C 513.195312 323.492188 517.882812 319.277344 519.859375 317.652344 C 518.761719 299.722656 508.015625 296.949219 503.386719 296.59375 C 501.402344 296.472656 482.113281 299.175781 478.6875 300.140625 C 477.964844 301.746094 476.042969 307.394531 474.472656 312.007812 C 471.769531 319.957031 469.933594 325.285156 469.050781 326.855469 C 466.882812 330.707031 461.679688 333.019531 457.757812 333.535156 C 454.664062 333.953125 452.160156 333.335938 450.675781 331.824219 C 450 331.128906 450.042969 330.132812 450.167969 328.90625 C 450.65625 324.023438 457.773438 289.957031 461.636719 287.332031 C 474.890625 278.332031 496.332031 269.25 502.589844 266.679688 L 503.890625 269.84375 C 497.710938 272.382812 476.539062 281.347656 463.558594 290.167969 C 461.238281 292.671875 453.664062 324.347656 453.511719 329.726562 C 454.3125 330.203125 455.6875 330.367188 457.3125 330.144531 C 460.984375 329.664062 464.746094 327.527344 466.066406 325.179688 C 466.863281 323.769531 469.285156 316.640625 471.234375 310.910156 C 475.46875 298.457031 475.773438 297.910156 476.515625 297.375 C 478.519531 295.933594 502.304688 293.078125 503.523438 293.171875 C 508.027344 293.519531 522.386719 296.328125 523.328125 318.382812 L 523.367188 319.328125 L 522.585938 319.867188 C 521.507812 320.605469 514.25 327.15625 508.949219 331.9375 C 505.25 335.273438 501.835938 338.355469 500.207031 339.769531 C 497.230469 342.34375 494.234375 346.875 494.683594 350.753906 C 494.929688 352.886719 496.238281 354.660156 498.578125 356.035156 C 504.363281 353.921875 541.191406 330.660156 549.070312 324.710938 C 552.359375 322.226562 559.828125 315.375 565.28125 310.371094 C 567.589844 308.253906 569.597656 306.414062 570.894531 305.261719 C 575.703125 300.984375 588.820312 293.40625 589.539062 293.109375 L 590.835938 296.277344 C 590.015625 296.679688 577.566406 303.910156 573.167969 307.816406 C 571.878906 308.960938 569.886719 310.792969 567.59375 312.894531 C 561.785156 318.226562 554.550781 324.859375 551.132812 327.441406 C 545.191406 331.925781 503.625 358.816406 498.605469 359.5625 Z M 498.046875 359.636719 " fill-opacity="1" fill-rule="nonzero"/><path fill="#f0c0bf" d="M 499.855469 338.941406 C 497.953125 338.695312 492.160156 335.722656 490.957031 334.527344 C 490.347656 333.925781 489.078125 331.625 485.035156 324.042969 C 482.867188 319.980469 480.628906 315.78125 479.636719 314.203125 C 478.253906 312.003906 480.105469 307.089844 484.503906 297.585938 L 485.203125 296.078125 L 488.3125 297.5 L 487.609375 299.023438 C 486.125 302.230469 482.1875 310.753906 482.605469 312.53125 C 483.589844 314.0625 485.757812 318.128906 488.054688 322.429688 C 490.089844 326.246094 492.875 331.472656 493.425781 332.160156 C 494.136719 332.816406 499.175781 335.402344 500.296875 335.550781 Z M 499.855469 338.941406 " fill-opacity="1" fill-rule="nonzero"/><path fill="#f0c0bf" d="M 509.445312 330.320312 C 509.171875 330.167969 508.476562 329.894531 507.660156 329.5625 C 505.660156 328.753906 504.066406 328.089844 503.25 327.53125 L 502.847656 327.261719 L 502.648438 326.824219 C 502.332031 326.121094 501.957031 325.316406 501.546875 324.4375 C 499.820312 320.742188 497.457031 315.675781 496.621094 312.09375 L 496.488281 311.527344 L 496.730469 310.992188 C 499.125 305.753906 501.640625 300.859375 504.304688 295.675781 L 504.804688 294.707031 L 507.847656 296.269531 L 507.351562 297.242188 C 504.796875 302.207031 502.378906 306.902344 500.09375 311.871094 C 500.960938 315.089844 503.078125 319.628906 504.648438 322.992188 C 504.972656 323.679688 505.273438 324.328125 505.546875 324.917969 C 506.351562 325.339844 507.875 325.960938 508.945312 326.394531 C 509.933594 326.796875 510.769531 327.140625 511.101562 327.324219 Z M 509.445312 330.320312 " fill-opacity="1" fill-rule="nonzero"/><path fill="#f0c0bf" d="M 519.871094 315.253906 C 519.117188 314.992188 518.488281 314.820312 517.84375 314.644531 C 515.65625 314.066406 513.546875 313.28125 511.511719 312.285156 L 510.210938 311.675781 L 510.582031 310.292969 C 510.800781 309.480469 511.144531 308.503906 511.53125 307.390625 C 512.34375 305.21875 512.992188 303 513.480469 300.730469 L 516.839844 301.382812 C 516.324219 303.8125 515.628906 306.191406 514.761719 308.519531 C 514.601562 308.972656 514.453125 309.394531 514.316406 309.796875 C 515.753906 310.429688 517.230469 310.945312 518.75 311.335938 C 519.464844 311.535156 520.164062 311.726562 521.003906 312.019531 Z M 519.871094 315.253906 " fill-opacity="1" fill-rule="nonzero"/><path fill="#f0c0bf" d="M 514.628906 326.855469 C 513.46875 326.765625 504.53125 325.4375 502.171875 324.21875 L 503.742188 321.179688 C 505.226562 321.945312 513.300781 323.320312 514.898438 323.441406 Z M 514.628906 326.855469 " fill-opacity="1" fill-rule="nonzero"/><path fill="#f0c0bf" d="M 588.75 307.640625 C 586.203125 307.640625 582.957031 305.640625 579.210938 301.730469 L 581.679688 299.363281 C 585.773438 303.632812 588.382812 304.566406 589.140625 304.128906 C 590.902344 303.132812 589.941406 293.804688 581.765625 278.761719 C 574.199219 264.835938 566.300781 258.691406 563.523438 259.574219 C 563.246094 259.660156 562.765625 260.664062 563.011719 263.199219 L 559.601562 263.527344 C 559.117188 258.488281 560.894531 256.824219 562.46875 256.316406 C 568.957031 254.226562 578.324219 265.257812 584.769531 277.128906 C 591.175781 288.914062 596.605469 303.835938 590.824219 307.109375 C 590.179688 307.46875 589.488281 307.644531 588.75 307.640625 Z M 588.75 307.640625 " fill-opacity="1" fill-rule="nonzero"/><path fill="#f0c0bf" d="M 603.75 307.460938 C 601.417969 307.460938 598.457031 305.570312 594.761719 301.75 L 597.226562 299.371094 C 601.597656 303.894531 603.644531 304.15625 603.964844 303.988281 C 604.304688 303.792969 605.179688 301.667969 603.179688 294.804688 C 601.414062 288.761719 598.078125 281.253906 593.785156 273.667969 C 589.492188 266.082031 584.769531 259.355469 580.496094 254.734375 C 575.652344 249.496094 573.375 249.136719 573.023438 249.335938 C 572.828125 249.445312 572.335938 250.351562 572.621094 252.980469 L 569.21875 253.347656 C 568.828125 249.722656 569.539062 247.371094 571.339844 246.351562 C 574.019531 244.835938 577.839844 246.820312 583.007812 252.40625 C 587.457031 257.222656 592.34375 264.171875 596.761719 271.980469 C 601.183594 279.789062 604.628906 287.554688 606.460938 293.84375 C 608.597656 301.15625 608.328125 305.449219 605.648438 306.96875 C 605.058594 307.300781 604.425781 307.464844 603.75 307.460938 Z M 603.75 307.460938 " fill-opacity="1" fill-rule="nonzero"/><path fill="#f0c0bf" d="M 562.171875 256.441406 L 576.5625 248.558594 L 578.207031 251.558594 L 563.816406 259.445312 Z M 562.171875 256.441406 " fill-opacity="1" fill-rule="nonzero"/><path fill="#f0c0bf" d="M 589.105469 304.152344 L 604.085938 295.226562 L 605.839844 298.167969 L 590.859375 307.09375 Z M 589.105469 304.152344 " fill-opacity="1" fill-rule="nonzero"/><g clip-path="url(#509e1622b7)"><path fill="#f0c0bf" d="M 572.214844 245.957031 L 599.292969 230.996094 L 600.949219 233.992188 L 573.871094 248.953125 Z M 572.214844 245.957031 " fill-opacity="1" fill-rule="nonzero"/></g><path fill="#f0c0bf" d="M 603.605469 304.480469 L 630.683594 289.519531 L 632.339844 292.515625 L 605.261719 307.476562 Z M 603.605469 304.480469 " fill-opacity="1" fill-rule="nonzero"/><path fill="#f0c0bf" d="M 596.492188 295.949219 C 594.613281 295.949219 592.921875 294.1875 592.472656 291.761719 C 592.25 290.644531 592.339844 289.550781 592.742188 288.484375 C 592.941406 287.921875 593.261719 287.441406 593.710938 287.046875 C 594.160156 286.652344 594.675781 286.390625 595.257812 286.265625 L 595.808594 286.214844 C 597.6875 286.214844 599.378906 287.972656 599.828125 290.402344 C 600.328125 293.101562 599.105469 295.515625 597.046875 295.902344 Z M 595.910156 289.78125 C 595.761719 290.226562 595.738281 290.679688 595.835938 291.136719 C 595.910156 291.621094 596.109375 292.050781 596.429688 292.421875 C 596.535156 291.957031 596.546875 291.492188 596.460938 291.023438 C 596.390625 290.558594 596.207031 290.144531 595.910156 289.78125 Z M 595.910156 289.78125 " fill-opacity="1" fill-rule="nonzero"/><path fill="#f0c0bf" d="M 612.96875 489.128906 C 606.976562 485.558594 602.71875 482.167969 599.996094 476.335938 C 597.226562 470.375 593.273438 460.96875 590.097656 453.410156 L 587.917969 448.238281 C 586.148438 444.050781 583.863281 439.421875 580.34375 436.859375 C 577.515625 434.796875 571.867188 434.023438 568.128906 433.511719 C 567.007812 433.359375 566.03125 433.222656 565.292969 433.082031 L 565.941406 429.722656 C 566.625 429.851562 567.542969 429.976562 568.59375 430.121094 C 572.671875 430.679688 578.832031 431.523438 582.355469 434.089844 C 586.550781 437.148438 589.117188 442.285156 591.074219 446.902344 L 593.253906 452.089844 C 596.417969 459.621094 600.355469 468.992188 603.101562 474.894531 C 605.460938 479.957031 609.148438 482.867188 614.722656 486.191406 Z M 612.96875 489.128906 " fill-opacity="1" fill-rule="nonzero"/><path fill="#f0c0bf" d="M 594.101562 525.757812 C 593.332031 525.269531 580.671875 518.425781 575.035156 516.710938 C 573.398438 516.21875 570.832031 515.480469 567.878906 514.636719 C 560.261719 512.453125 550.792969 509.738281 546.792969 508.164062 C 539.867188 505.4375 495.238281 484.03125 491.972656 480.132812 L 491.613281 479.707031 L 491.578125 479.148438 C 491.226562 473.875 493.421875 470.988281 495.324219 469.5 C 499.394531 466.308594 506 466.40625 510.726562 467.90625 C 512.757812 468.550781 517.09375 469.832031 521.804688 471.222656 C 530.304688 473.738281 536.382812 475.542969 538.808594 476.386719 C 553.53125 466.085938 550.285156 455.472656 548.171875 451.339844 C 547.226562 449.558594 534.925781 434.578125 532.25 432.128906 C 530.511719 432.347656 524.691406 433.660156 519.9375 434.730469 C 511.738281 436.574219 506.234375 437.789062 504.433594 437.855469 C 499.980469 438.066406 495.320312 434.785156 492.839844 431.710938 C 490.882812 429.292969 490.089844 426.832031 490.609375 424.78125 C 490.84375 423.84375 491.71875 423.355469 492.835938 422.816406 C 497.253906 420.6875 530.027344 408.996094 534.273438 410.898438 C 548.863281 417.5 567.8125 431.042969 573.269531 435.039062 L 571.25 437.800781 C 565.859375 433.855469 547.152344 420.480469 532.863281 414.019531 C 529.480469 413.34375 498.539062 423.425781 493.871094 426.105469 C 493.886719 427.035156 494.464844 428.28125 495.496094 429.558594 C 497.828125 432.4375 501.539062 434.589844 504.308594 434.4375 C 505.925781 434.378906 513.277344 432.722656 519.183594 431.390625 C 532.007812 428.503906 532.628906 428.472656 533.476562 428.828125 C 535.746094 429.777344 550.589844 448.519531 551.160156 449.671875 C 553.21875 453.691406 558.320312 467.40625 540 479.722656 L 539.210938 480.25 L 538.347656 479.863281 C 537.148438 479.332031 527.722656 476.542969 520.835938 474.511719 C 516.09375 473.105469 511.734375 471.816406 509.6875 471.167969 C 505.933594 469.96875 500.503906 469.789062 497.433594 472.195312 C 495.746094 473.519531 494.914062 475.558594 494.960938 478.269531 C 499.789062 482.105469 538.859375 501.367188 548.046875 504.980469 C 551.894531 506.496094 561.675781 509.296875 568.824219 511.34375 C 571.796875 512.203125 574.382812 512.9375 576.027344 513.4375 C 582.191406 515.3125 595.5 522.542969 596.125 523 Z M 594.101562 525.757812 " fill-opacity="1" fill-rule="nonzero"/><path fill="#f0c0bf" d="M 510.207031 470.445312 C 509.425781 468.691406 508.9375 462.199219 509.328125 460.546875 C 509.523438 459.710938 510.816406 457.433594 515.164062 450.042969 C 517.503906 446.0625 519.921875 441.953125 520.75 440.285156 C 521.90625 437.953125 527.058594 436.964844 537.460938 435.757812 L 539.117188 435.5625 L 539.527344 438.960938 L 537.859375 439.15625 C 534.34375 439.566406 525.023438 440.648438 523.726562 441.9375 C 522.933594 443.582031 520.59375 447.5625 518.117188 451.777344 C 515.929688 455.496094 512.933594 460.589844 512.636719 461.414062 C 512.445312 462.363281 512.875 468.015625 513.332031 469.046875 Z M 510.207031 470.445312 " fill-opacity="1" fill-rule="nonzero"/><path fill="#f0c0bf" d="M 522.570312 474.117188 C 522.558594 473.804688 522.429688 473.066406 522.28125 472.195312 C 521.957031 470.605469 521.765625 469 521.710938 467.375 L 521.734375 466.898438 L 522.003906 466.496094 C 522.433594 465.867188 522.917969 465.136719 523.441406 464.34375 C 525.699219 460.929688 528.789062 456.257812 531.417969 453.664062 L 531.835938 453.253906 L 532.414062 453.183594 C 538.101562 452.496094 543.5625 452.085938 549.335938 451.652344 L 550.523438 451.5625 L 550.78125 454.976562 L 549.589844 455.066406 C 544.058594 455.480469 538.824219 455.871094 533.421875 456.511719 C 531.117188 458.9375 528.347656 463.128906 526.296875 466.234375 C 525.882812 466.855469 525.496094 467.441406 525.140625 467.96875 C 525.203125 468.878906 525.46875 470.5 525.660156 471.636719 C 525.832031 472.691406 525.976562 473.585938 525.992188 473.964844 Z M 522.570312 474.117188 " fill-opacity="1" fill-rule="nonzero"/><path fill="#f0c0bf" d="M 540.863281 475.144531 C 540.695312 474.363281 540.507812 473.738281 540.324219 473.09375 C 539.671875 470.929688 539.242188 468.71875 539.027344 466.464844 L 538.867188 465.039062 L 540.246094 464.632812 C 541.050781 464.394531 542.0625 464.175781 543.210938 463.925781 C 545.488281 463.484375 547.722656 462.878906 549.917969 462.113281 L 551.109375 465.320312 C 548.765625 466.144531 546.375 466.796875 543.933594 467.269531 C 543.46875 467.371094 543.027344 467.464844 542.617188 467.5625 C 542.824219 469.113281 543.15625 470.640625 543.613281 472.140625 C 543.820312 472.855469 544.023438 473.554688 544.207031 474.425781 Z M 540.863281 475.144531 " fill-opacity="1" fill-rule="nonzero"/><path fill="#f0c0bf" d="M 528.234375 476.734375 C 527.722656 475.742188 524.167969 467.351562 523.972656 464.734375 L 527.386719 464.480469 C 527.507812 466.167969 530.554688 473.757812 531.277344 475.175781 Z M 528.234375 476.734375 " fill-opacity="1" fill-rule="nonzero"/><path fill="#f0c0bf" d="M 586.855469 531.914062 C 586.144531 531.921875 585.476562 531.75 584.851562 531.40625 C 582.101562 529.882812 581.589844 525.484375 583.371094 518.695312 L 586.683594 519.5625 C 585.179688 525.292969 585.757812 527.996094 586.511719 528.414062 C 588.289062 529.40625 595.746094 523.695312 604.300781 508.878906 C 612.230469 495.15625 613.367188 485.207031 611.144531 483.300781 C 610.917969 483.113281 609.816406 483.222656 607.78125 484.757812 L 605.722656 482.023438 C 609.765625 478.980469 612.109375 479.625 613.367188 480.699219 C 618.527344 485.117188 614.019531 498.894531 607.261719 510.585938 C 602.40625 519.003906 593.179688 531.914062 586.855469 531.914062 Z M 586.855469 531.914062 " fill-opacity="1" fill-rule="nonzero"/><path fill="#f0c0bf" d="M 594.53125 544.4375 C 593.882812 544.441406 593.277344 544.289062 592.710938 543.972656 C 590.160156 542.558594 589.761719 538.628906 591.484375 531.972656 L 594.796875 532.828125 C 593.21875 538.917969 594.058594 540.808594 594.371094 540.984375 C 596.003906 541.851562 604.878906 534.574219 614.921875 516.46875 C 624.96875 498.347656 626.429688 486.9375 624.839844 486.054688 C 624.648438 485.953125 623.617188 486 621.515625 487.617188 L 619.425781 484.910156 C 622.3125 482.683594 624.695312 482.058594 626.496094 483.0625 C 633.070312 486.710938 623.753906 507.59375 617.914062 518.128906 C 612.570312 527.761719 601.429688 544.433594 594.53125 544.4375 Z M 594.53125 544.4375 " fill-opacity="1" fill-rule="nonzero"/><path fill="#f0c0bf" d="M 611.40625 483.484375 L 613.105469 480.515625 L 627.34375 488.667969 L 625.644531 491.636719 Z M 611.40625 483.484375 " fill-opacity="1" fill-rule="nonzero"/><path fill="#f0c0bf" d="M 584.886719 531.429688 L 586.480469 528.398438 L 601.914062 536.519531 L 600.320312 539.546875 Z M 584.886719 531.429688 " fill-opacity="1" fill-rule="nonzero"/><g clip-path="url(#b6cee9358b)"><path fill="#f0c0bf" d="M 625.601562 486.578125 L 627.292969 483.601562 L 654.191406 498.886719 L 652.5 501.863281 Z M 625.601562 486.578125 " fill-opacity="1" fill-rule="nonzero"/></g><path fill="#f0c0bf" d="M 592.074219 543.910156 L 593.765625 540.933594 L 620.664062 556.21875 L 618.972656 559.195312 Z M 592.074219 543.910156 " fill-opacity="1" fill-rule="nonzero"/><path fill="#f0c0bf" d="M 600.152344 531.902344 C 599.164062 531.929688 598.332031 531.578125 597.65625 530.851562 C 597.273438 530.394531 597.023438 529.875 596.910156 529.289062 C 596.796875 528.703125 596.832031 528.125 597.019531 527.558594 C 597.351562 526.46875 597.945312 525.546875 598.804688 524.800781 C 600.769531 523.023438 603.585938 522.792969 604.945312 524.304688 C 605.332031 524.757812 605.582031 525.28125 605.695312 525.867188 C 605.808594 526.453125 605.773438 527.03125 605.585938 527.601562 C 605.253906 528.691406 604.660156 529.609375 603.800781 530.359375 C 602.777344 531.332031 601.5625 531.847656 600.152344 531.902344 Z M 602.285156 526.707031 C 601.828125 526.808594 601.429688 527.019531 601.09375 527.34375 C 600.734375 527.648438 600.476562 528.019531 600.320312 528.464844 C 600.769531 528.34375 601.164062 528.128906 601.511719 527.820312 C 601.855469 527.507812 602.113281 527.136719 602.28125 526.707031 Z M 602.285156 526.707031 " fill-opacity="1" fill-rule="nonzero"/><path fill="#f0c0bf" d="M 344.269531 283.113281 C 343.761719 282.5625 343.128906 281.808594 342.402344 280.941406 C 339.984375 278.046875 336.328125 273.671875 333.074219 272.371094 C 329.027344 270.753906 323.898438 271.273438 319.414062 271.996094 L 313.816406 272.910156 C 305.742188 274.230469 295.699219 275.875 289.1875 276.691406 C 282.796875 277.488281 277.667969 275.679688 271.460938 272.503906 L 273.019531 269.457031 C 278.792969 272.414062 283.21875 274 288.761719 273.292969 C 295.207031 272.484375 305.21875 270.847656 313.261719 269.53125 L 318.867188 268.617188 C 323.808594 267.820312 329.519531 267.257812 334.347656 269.195312 C 338.398438 270.816406 342.386719 275.589844 345.027344 278.746094 C 345.707031 279.558594 346.296875 280.269531 346.773438 280.777344 Z M 344.269531 283.113281 " fill-opacity="1" fill-rule="nonzero"/><path fill="#f0c0bf" d="M 343.917969 370.304688 L 343.363281 370.230469 C 338.328125 369.535156 296.476562 343.101562 290.492188 338.679688 C 287.039062 336.132812 279.726562 329.5625 273.847656 324.289062 C 271.539062 322.21875 269.539062 320.421875 268.242188 319.296875 C 263.808594 315.441406 251.277344 308.339844 250.394531 307.921875 L 251.714844 304.765625 C 252.441406 305.054688 265.644531 312.5 270.488281 316.710938 C 271.796875 317.847656 273.8125 319.65625 276.132812 321.742188 C 281.648438 326.691406 289.203125 333.472656 292.527344 335.925781 C 300.464844 341.789062 337.527344 364.644531 343.351562 366.703125 C 345.671875 365.300781 346.960938 363.515625 347.1875 361.382812 C 347.59375 357.496094 344.546875 352.996094 341.546875 350.453125 C 339.898438 349.058594 336.445312 346.011719 332.707031 342.707031 C 327.359375 337.988281 320.035156 331.523438 318.953125 330.796875 L 318.167969 330.269531 L 318.195312 329.320312 C 318.898438 307.269531 333.21875 304.296875 337.59375 303.90625 C 339.015625 303.8125 362.765625 306.386719 364.777344 307.808594 C 365.519531 308.335938 365.828125 308.878906 370.191406 321.269531 C 372.207031 326.976562 374.714844 334.09375 375.519531 335.492188 C 376.867188 337.832031 380.65625 339.925781 384.335938 340.367188 C 385.964844 340.5625 387.332031 340.390625 388.125 339.910156 C 387.914062 334.53125 379.996094 302.9375 377.546875 300.375 C 364.582031 291.789062 343.308594 283.042969 337.101562 280.570312 L 338.371094 277.394531 C 344.660156 279.898438 366.203125 288.757812 379.542969 297.609375 C 383.429688 300.183594 390.921875 334.171875 391.464844 339.042969 C 391.601562 340.277344 391.65625 341.273438 390.988281 341.976562 C 389.523438 343.503906 387.019531 344.144531 383.929688 343.769531 C 380.003906 343.296875 374.773438 341.042969 372.5625 337.207031 C 371.660156 335.648438 369.761719 330.335938 366.96875 322.40625 C 365.332031 317.75 363.320312 312.042969 362.605469 310.539062 C 359.753906 309.714844 340.023438 307.082031 338.054688 307.304688 C 333.277344 307.726562 322.5625 310.625 321.65625 328.554688 C 323.652344 330.160156 328.378906 334.320312 334.976562 340.144531 C 338.691406 343.425781 342.125 346.453125 343.761719 347.84375 C 347.554688 351.050781 351.132812 356.589844 350.597656 361.738281 C 350.34375 364.144531 349.066406 367.53125 344.410156 370.039062 Z M 343.917969 370.304688 " fill-opacity="1" fill-rule="nonzero"/><path fill="#f0c0bf" d="M 341.886719 349.628906 L 341.410156 346.242188 C 342.523438 346.082031 347.542969 343.441406 348.308594 342.710938 C 348.785156 342.085938 351.515625 336.84375 353.503906 333.011719 C 355.757812 328.675781 357.882812 324.578125 358.921875 322.886719 C 359.257812 321.25 355.21875 312.765625 353.699219 309.570312 L 352.984375 308.0625 L 356.085938 306.609375 L 356.792969 308.101562 C 361.296875 317.5625 363.203125 322.457031 361.84375 324.675781 C 360.871094 326.265625 358.667969 330.496094 356.542969 334.589844 C 352.585938 342.203125 351.347656 344.507812 350.742188 345.121094 C 349.539062 346.332031 343.777344 349.367188 341.886719 349.628906 Z M 341.886719 349.628906 " fill-opacity="1" fill-rule="nonzero"/><path fill="#f0c0bf" d="M 332.207031 341.109375 L 330.519531 338.132812 C 330.847656 337.945312 331.683594 337.589844 332.667969 337.175781 C 333.730469 336.734375 335.246094 336.097656 336.050781 335.667969 C 336.316406 335.070312 336.613281 334.414062 336.929688 333.714844 C 338.460938 330.339844 340.527344 325.789062 341.355469 322.5625 C 339 317.589844 336.519531 312.890625 333.898438 307.925781 L 333.429688 307.042969 L 336.460938 305.449219 L 336.925781 306.328125 C 339.660156 311.507812 342.246094 316.402344 344.710938 321.648438 L 344.957031 322.175781 L 344.832031 322.746094 C 344.039062 326.339844 341.730469 331.417969 340.046875 335.128906 C 339.644531 336.015625 339.273438 336.828125 338.964844 337.542969 L 338.769531 337.984375 L 338.371094 338.261719 C 336.96875 339.074219 335.507812 339.765625 333.988281 340.335938 C 333.175781 340.675781 332.480469 340.957031 332.207031 341.109375 Z M 332.207031 341.109375 " fill-opacity="1" fill-rule="nonzero"/><path fill="#f0c0bf" d="M 321.617188 326.160156 L 320.449219 322.941406 C 321.289062 322.640625 321.984375 322.4375 322.703125 322.234375 C 324.214844 321.824219 325.683594 321.296875 327.109375 320.648438 C 326.972656 320.253906 326.820312 319.832031 326.660156 319.394531 C 325.765625 317.066406 325.042969 314.691406 324.496094 312.257812 L 327.847656 311.570312 C 328.363281 313.835938 329.039062 316.054688 329.875 318.226562 C 330.273438 319.320312 330.625 320.292969 330.851562 321.101562 L 331.238281 322.480469 L 329.945312 323.101562 C 327.921875 324.117188 325.820312 324.925781 323.640625 325.527344 C 322.996094 325.707031 322.371094 325.886719 321.617188 326.160156 Z M 321.617188 326.160156 " fill-opacity="1" fill-rule="nonzero"/><path fill="#f0c0bf" d="M 326.980469 337.703125 L 326.683594 334.292969 C 328.273438 334.152344 336.324219 332.699219 337.8125 331.910156 L 339.414062 334.933594 C 337.101562 336.160156 328.097656 337.605469 326.980469 337.703125 Z M 326.980469 337.703125 " fill-opacity="1" fill-rule="nonzero"/><path fill="#f0c0bf" d="M 252.605469 319.292969 C 251.886719 319.300781 251.210938 319.128906 250.578125 318.785156 C 244.761719 315.574219 250.027344 300.589844 256.308594 288.738281 C 262.625 276.800781 271.90625 265.679688 278.386719 267.6875 C 279.96875 268.179688 281.757812 269.828125 281.324219 274.867188 L 277.914062 274.574219 C 278.132812 272.035156 277.640625 271.039062 277.363281 270.953125 C 274.539062 270.042969 266.746094 276.332031 259.332031 290.339844 C 251.320312 305.472656 250.460938 314.8125 252.230469 315.789062 C 252.988281 316.203125 255.589844 315.257812 259.636719 310.9375 L 262.136719 313.285156 C 258.402344 317.257812 255.160156 319.292969 252.605469 319.292969 Z M 252.605469 319.292969 " fill-opacity="1" fill-rule="nonzero"/><path fill="#f0c0bf" d="M 237.609375 319.277344 C 236.949219 319.28125 236.332031 319.125 235.753906 318.804688 C 229.167969 315.171875 238.4375 294.269531 244.257812 283.71875 C 248.59375 275.863281 253.402344 268.863281 257.796875 264 C 262.90625 258.351562 266.699219 256.335938 269.40625 257.820312 C 271.214844 258.820312 271.949219 261.164062 271.601562 264.789062 L 268.191406 264.457031 C 268.445312 261.824219 267.949219 260.921875 267.75 260.8125 C 267.40625 260.632812 265.136719 260.988281 260.339844 266.296875 C 256.113281 270.96875 251.46875 277.742188 247.257812 285.375 C 237.246094 303.515625 235.816406 314.929688 237.410156 315.808594 C 237.726562 315.988281 239.785156 315.675781 244.09375 311.117188 L 246.578125 313.464844 C 242.90625 317.355469 239.945312 319.277344 237.609375 319.277344 Z M 237.609375 319.277344 " fill-opacity="1" fill-rule="nonzero"/><path fill="#f0c0bf" d="M 262.59375 263.09375 L 264.207031 260.078125 L 278.679688 267.8125 L 277.066406 270.828125 Z M 262.59375 263.09375 " fill-opacity="1" fill-rule="nonzero"/><path fill="#f0c0bf" d="M 235.464844 310.007812 L 237.1875 307.046875 L 252.261719 315.808594 L 250.542969 318.765625 Z M 235.464844 310.007812 " fill-opacity="1" fill-rule="nonzero"/><path fill="#f0c0bf" d="M 239.664062 245.777344 L 241.285156 242.765625 L 268.523438 257.433594 L 266.902344 260.445312 Z M 239.664062 245.777344 " fill-opacity="1" fill-rule="nonzero"/><g clip-path="url(#1ffa5f54df)"><path fill="#f0c0bf" d="M 208.90625 304.644531 L 210.527344 301.632812 L 237.769531 316.296875 L 236.148438 319.308594 Z M 208.90625 304.644531 " fill-opacity="1" fill-rule="nonzero"/></g><path fill="#f0c0bf" d="M 244.761719 307.683594 L 244.238281 307.636719 C 243.351562 307.46875 242.65625 307.011719 242.148438 306.265625 C 241.761719 305.660156 241.5 305 241.371094 304.292969 C 241.242188 303.585938 241.25 302.878906 241.394531 302.171875 C 241.820312 299.71875 243.503906 297.9375 245.402344 297.9375 L 245.917969 297.984375 C 246.503906 298.105469 247.023438 298.359375 247.476562 298.75 C 247.929688 299.140625 248.257812 299.617188 248.460938 300.179688 C 248.875 301.242188 248.976562 302.335938 248.761719 303.457031 C 248.335938 305.90625 246.65625 307.683594 244.761719 307.683594 Z M 245.304688 301.511719 C 245.011719 301.878906 244.832031 302.292969 244.765625 302.761719 C 244.671875 303.21875 244.703125 303.671875 244.851562 304.113281 C 245.132812 303.742188 245.3125 303.328125 245.394531 302.867188 C 245.472656 302.410156 245.445312 301.957031 245.304688 301.511719 Z M 245.304688 301.511719 " fill-opacity="1" fill-rule="nonzero"/><path fill="#f0c0bf" d="M 254.035156 534.511719 L 251.449219 532.269531 C 255.699219 527.367188 258.285156 523.445312 258.9375 517.898438 C 259.699219 511.429688 260.496094 501.289062 261.140625 493.140625 L 261.589844 487.550781 C 261.992188 482.558594 262.8125 476.882812 265.839844 472.65625 C 268.382812 469.113281 273.96875 466.375 277.664062 464.566406 C 278.621094 464.097656 279.449219 463.695312 280.0625 463.351562 L 281.726562 466.34375 C 281.074219 466.707031 280.1875 467.140625 279.167969 467.640625 C 275.78125 469.300781 270.660156 471.808594 268.625 474.648438 C 266.082031 478.195312 265.363281 483.300781 265 487.828125 L 264.554688 493.414062 C 263.90625 501.589844 263.101562 511.765625 262.335938 518.300781 C 261.585938 524.695312 258.601562 529.242188 254.035156 534.511719 Z M 254.035156 534.511719 " fill-opacity="1" fill-rule="nonzero"/><path fill="#f0c0bf" d="M 283.398438 563.429688 L 280.652344 561.390625 C 281.101562 560.757812 291.480469 549.722656 296.734375 546.015625 C 298.140625 545.023438 300.367188 543.507812 302.925781 541.761719 C 309.066406 537.582031 317.476562 531.851562 320.65625 529.207031 C 328.242188 522.894531 359.292969 492.367188 362.683594 487.199219 C 361.878906 484.609375 360.449219 482.929688 358.433594 482.203125 C 354.765625 480.890625 349.660156 482.761719 346.472656 485.070312 C 344.726562 486.335938 340.960938 488.949219 336.875 491.78125 C 330.996094 495.855469 322.953125 501.429688 321.988281 502.3125 L 321.285156 502.949219 L 320.375 502.695312 C 299.121094 496.746094 299.660156 482.128906 300.332031 477.789062 C 300.53125 476.390625 308.753906 453.933594 310.613281 452.324219 C 311.296875 451.726562 311.898438 451.554688 324.996094 450.277344 C 331.015625 449.6875 338.511719 448.957031 340.0625 448.503906 C 342.652344 447.753906 345.59375 444.574219 346.902344 441.109375 C 347.480469 439.574219 347.640625 438.210938 347.363281 437.320312 C 342.085938 436.238281 309.511719 436.386719 306.445312 438.148438 C 295 448.699219 281.4375 467.257812 277.554688 472.695312 L 274.769531 470.707031 C 278.699219 465.203125 292.441406 446.402344 304.226562 435.550781 C 307.664062 432.394531 342.457031 433.238281 347.316406 433.875 C 348.546875 434.035156 349.527344 434.222656 350.046875 435.039062 C 351.179688 436.824219 351.199219 439.410156 350.101562 442.316406 C 348.707031 446.015625 345.265625 450.558594 341.015625 451.792969 C 339.289062 452.292969 333.679688 452.867188 325.324219 453.6875 C 320.40625 454.167969 314.378906 454.753906 312.742188 455.09375 C 311.253906 457.675781 304.058594 476.292969 303.738281 478.160156 C 303.003906 482.898438 303.253906 493.996094 320.457031 499.160156 C 322.492188 497.605469 327.671875 493.996094 334.921875 488.972656 C 338.984375 486.152344 342.730469 483.558594 344.46875 482.296875 C 348.488281 479.390625 354.726562 477.238281 359.59375 478.984375 C 361.867188 479.800781 364.855469 481.851562 366.179688 486.972656 L 366.316406 487.515625 L 366.109375 488.03125 C 364.230469 492.761719 328.566406 527.082031 322.847656 531.839844 C 319.539062 534.585938 311.398438 540.136719 304.855469 544.59375 C 302.3125 546.328125 300.105469 547.828125 298.707031 548.8125 C 293.898438 552.203125 284.015625 562.671875 283.398438 563.429688 Z M 283.398438 563.429688 " fill-opacity="1" fill-rule="nonzero"/><path fill="#f0c0bf" d="M 345.753906 484.546875 L 342.347656 484.199219 C 342.460938 483.082031 341.09375 477.582031 340.566406 476.660156 C 340.074219 476.046875 335.636719 472.152344 332.394531 469.308594 C 328.71875 466.082031 325.246094 463.03125 323.847656 461.621094 C 322.347656 460.898438 313.171875 462.792969 309.71875 463.503906 L 308.039062 463.84375 L 307.367188 460.492188 L 309.03125 460.152344 C 319.273438 458.046875 324.464844 457.367188 326.285156 459.214844 C 327.597656 460.542969 331.1875 463.6875 334.65625 466.738281 C 341.097656 472.390625 343.039062 474.144531 343.488281 474.878906 C 344.375 476.324219 345.949219 482.640625 345.753906 484.546875 Z M 345.753906 484.546875 " fill-opacity="1" fill-rule="nonzero"/><path fill="#f0c0bf" d="M 331.871094 492.835938 C 331.769531 492.472656 331.621094 491.585938 331.457031 490.539062 C 331.292969 489.464844 331.03125 487.777344 330.800781 486.882812 C 330.292969 486.484375 329.734375 486.046875 329.140625 485.582031 C 326.222656 483.28125 322.289062 480.179688 319.339844 478.597656 C 313.953125 479.695312 308.796875 480.980469 303.347656 482.339844 L 302.378906 482.582031 L 301.550781 479.261719 L 302.519531 479.019531 C 308.203125 477.601562 313.574219 476.261719 319.253906 475.121094 L 319.824219 475.003906 L 320.347656 475.265625 C 323.65625 476.898438 328.046875 480.363281 331.257812 482.890625 C 332.011719 483.484375 332.707031 484.035156 333.3125 484.5 L 333.691406 484.792969 L 333.863281 485.238281 C 334.324219 486.804688 334.648438 488.394531 334.835938 490.011719 C 334.972656 490.878906 335.078125 491.613281 335.164062 491.910156 Z M 331.871094 492.835938 " fill-opacity="1" fill-rule="nonzero"/><path fill="#f0c0bf" d="M 314.71875 498.988281 C 314.621094 498.101562 314.59375 497.378906 314.566406 496.636719 C 314.53125 495.066406 314.367188 493.511719 314.078125 491.96875 C 313.660156 492.011719 313.21875 492.058594 312.75 492.109375 C 310.277344 492.421875 307.796875 492.550781 305.304688 492.503906 L 305.441406 489.085938 C 307.765625 489.125 310.082031 488.996094 312.386719 488.703125 C 313.546875 488.578125 314.574219 488.472656 315.410156 488.445312 L 316.847656 488.398438 L 317.140625 489.804688 C 317.644531 492.011719 317.925781 494.246094 317.988281 496.507812 C 318.011719 497.171875 318.035156 497.824219 318.121094 498.621094 Z M 314.71875 498.988281 " fill-opacity="1" fill-rule="nonzero"/><path fill="#f0c0bf" d="M 330.609375 496.171875 L 327.226562 495.648438 C 327.472656 494.066406 327.980469 485.890625 327.574219 484.269531 L 330.890625 483.433594 C 331.542969 486.011719 330.789062 495.019531 330.609375 496.171875 Z M 330.609375 496.171875 " fill-opacity="1" fill-rule="nonzero"/><path fill="#f0c0bf" d="M 290.347656 567.25 C 284.320312 567.25 274.199219 560.25 266.179688 553.105469 C 256.101562 544.117188 247.5 532.449219 251.011719 526.636719 C 251.867188 525.222656 253.886719 523.871094 258.6875 525.496094 L 257.59375 528.738281 C 255.175781 527.929688 254.085938 528.164062 253.941406 528.410156 C 252.425781 530.917969 256.628906 540.003906 268.460938 550.550781 C 281.242188 561.945312 290.101562 565.003906 291.476562 563.523438 C 292.0625 562.886719 291.761719 560.140625 288.539062 555.167969 L 291.410156 553.308594 C 295.230469 559.199219 296.125 563.535156 293.992188 565.847656 C 293.511719 566.332031 292.957031 566.695312 292.320312 566.941406 C 291.683594 567.1875 291.027344 567.289062 290.347656 567.25 Z M 290.347656 567.25 " fill-opacity="1" fill-rule="nonzero"/><path fill="#f0c0bf" d="M 287.160156 581.53125 C 284.828125 581.53125 281.628906 580.371094 277.503906 578.039062 C 271.800781 574.816406 265.027344 569.6875 258.433594 563.601562 C 251.839844 557.511719 246.1875 551.171875 242.519531 545.742188 C 238.253906 539.429688 237.195312 535.261719 239.289062 532.996094 C 240.691406 531.484375 243.144531 531.328125 246.578125 532.53125 L 245.445312 535.757812 C 242.949219 534.882812 241.953125 535.152344 241.800781 535.320312 C 241.535156 535.609375 241.351562 537.90625 245.351562 543.828125 C 248.878906 549.042969 254.347656 555.175781 260.757812 561.085938 C 267.164062 567 273.710938 571.960938 279.191406 575.0625 C 285.410156 578.578125 287.679688 578.210938 287.953125 577.921875 C 288.195312 577.660156 288.402344 575.597656 284.996094 570.3125 L 287.871094 568.457031 C 291.601562 574.242188 292.449219 578.097656 290.464844 580.246094 C 290.035156 580.6875 289.53125 581.023438 288.953125 581.246094 C 288.375 581.472656 287.777344 581.566406 287.160156 581.53125 Z M 287.160156 581.53125 " fill-opacity="1" fill-rule="nonzero"/><path fill="#f0c0bf" d="M 240.238281 538.589844 L 251.199219 526.378906 L 253.746094 528.664062 L 242.785156 540.875 Z M 240.238281 538.589844 " fill-opacity="1" fill-rule="nonzero"/><path fill="#f0c0bf" d="M 279.394531 576.042969 L 291.5 563.496094 L 293.964844 565.871094 L 281.859375 578.421875 Z M 279.394531 576.042969 " fill-opacity="1" fill-rule="nonzero"/><path fill="#f0c0bf" d="M 217.953125 556.710938 L 238.699219 533.757812 L 241.238281 536.054688 L 220.496094 559.007812 Z M 217.953125 556.710938 " fill-opacity="1" fill-rule="nonzero"/><g clip-path="url(#755688c9e8)"><path fill="#f0c0bf" d="M 267.769531 600.632812 L 288.511719 577.683594 L 291.050781 579.980469 L 270.308594 602.929688 Z M 267.769531 600.632812 " fill-opacity="1" fill-rule="nonzero"/></g><path fill="#f0c0bf" d="M 278.152344 571.335938 C 277.285156 571.324219 276.457031 571.144531 275.667969 570.792969 C 273.148438 569.6875 271.839844 567.320312 272.683594 565.398438 C 273.503906 563.523438 276.226562 562.875 278.667969 563.941406 C 281.1875 565.046875 282.5 567.414062 281.65625 569.335938 C 281.105469 570.589844 279.796875 571.335938 278.152344 571.335938 Z M 275.957031 566.835938 C 276.242188 567.210938 276.605469 567.484375 277.042969 567.660156 C 277.46875 567.847656 277.914062 567.929688 278.378906 567.898438 C 278.09375 567.523438 277.730469 567.25 277.292969 567.074219 C 276.867188 566.886719 276.421875 566.808594 275.957031 566.835938 Z M 275.957031 566.835938 " fill-opacity="1" fill-rule="nonzero"/><path fill="#f0c0bf" d="M 385.972656 401.785156 L 385.921875 401.785156 C 385.644531 401.78125 385.382812 401.71875 385.128906 401.609375 C 384.875 401.496094 384.652344 401.339844 384.464844 401.140625 C 384.273438 400.9375 384.128906 400.710938 384.027344 400.453125 C 383.929688 400.195312 383.882812 399.925781 383.890625 399.648438 C 384.054688 392.972656 384.300781 386.890625 385.019531 377.214844 C 385.039062 376.9375 385.109375 376.675781 385.234375 376.429688 C 385.359375 376.183594 385.527344 375.96875 385.734375 375.789062 C 385.945312 375.609375 386.183594 375.476562 386.445312 375.386719 C 386.707031 375.300781 386.976562 375.269531 387.253906 375.289062 C 387.527344 375.308594 387.789062 375.382812 388.035156 375.507812 C 388.285156 375.632812 388.496094 375.796875 388.675781 376.007812 C 388.859375 376.21875 388.992188 376.453125 389.078125 376.71875 C 389.164062 376.980469 389.195312 377.25 389.175781 377.523438 C 388.460938 387.160156 388.222656 392.972656 388.058594 399.753906 C 388.050781 400.023438 387.992188 400.285156 387.886719 400.535156 C 387.777344 400.785156 387.625 401.003906 387.429688 401.195312 C 387.234375 401.382812 387.011719 401.53125 386.757812 401.632812 C 386.507812 401.734375 386.246094 401.785156 385.972656 401.785156 Z M 385.972656 401.785156 " fill-opacity="1" fill-rule="nonzero"/><path fill="#f0c0bf" d="M 397.171875 380.148438 C 397.132812 380.148438 397.089844 380.148438 397.050781 380.148438 C 394.910156 380.019531 392.457031 379.804688 389.898438 379.578125 C 385.324219 379.175781 380.59375 378.761719 376.675781 378.761719 C 376.398438 378.765625 376.128906 378.714844 375.867188 378.609375 C 375.609375 378.507812 375.382812 378.355469 375.183594 378.160156 C 374.984375 377.964844 374.828125 377.738281 374.722656 377.480469 C 374.613281 377.222656 374.558594 376.957031 374.558594 376.675781 C 374.558594 376.398438 374.613281 376.128906 374.722656 375.871094 C 374.828125 375.613281 374.984375 375.386719 375.183594 375.191406 C 375.382812 374.996094 375.609375 374.84375 375.867188 374.742188 C 376.128906 374.636719 376.398438 374.585938 376.675781 374.59375 C 380.777344 374.59375 385.597656 375.015625 390.265625 375.425781 C 392.78125 375.648438 395.191406 375.863281 397.292969 375.984375 C 397.5625 376 397.820312 376.066406 398.066406 376.183594 C 398.308594 376.300781 398.523438 376.457031 398.703125 376.65625 C 398.886719 376.855469 399.027344 377.085938 399.121094 377.339844 C 399.214844 377.589844 399.257812 377.855469 399.25 378.125 C 399.242188 378.394531 399.183594 378.652344 399.074219 378.902344 C 398.96875 379.148438 398.816406 379.367188 398.621094 379.558594 C 398.429688 379.746094 398.207031 379.890625 397.957031 379.996094 C 397.703125 380.097656 397.445312 380.148438 397.171875 380.148438 Z M 397.171875 380.148438 " fill-opacity="1" fill-rule="nonzero"/><path fill="#f0c0bf" d="M 468.921875 453.417969 C 468.59375 453.417969 468.304688 453.316406 468.046875 453.109375 C 467.792969 452.902344 467.632812 452.640625 467.5625 452.320312 C 467.066406 449.988281 466.542969 447.3125 466 444.527344 C 465.441406 441.648438 464.871094 438.707031 464.273438 435.90625 C 463.066406 438.808594 461.792969 441.570312 460.554688 444.265625 C 459.417969 446.742188 458.324219 449.121094 457.367188 451.425781 C 457.261719 451.707031 457.078125 451.925781 456.824219 452.085938 C 456.566406 452.242188 456.289062 452.308594 455.992188 452.277344 C 455.695312 452.257812 455.429688 452.152344 455.203125 451.964844 C 454.972656 451.777344 454.820312 451.539062 454.742188 451.25 C 453.238281 445.667969 451.433594 439.703125 449.632812 434.339844 C 447.882812 440.390625 445.636719 448.398438 445.328125 450.261719 C 445.296875 450.441406 445.234375 450.613281 445.136719 450.769531 C 445.039062 450.925781 444.914062 451.054688 444.765625 451.164062 C 444.613281 451.269531 444.449219 451.34375 444.269531 451.386719 C 444.089844 451.429688 443.910156 451.433594 443.730469 451.402344 C 443.546875 451.371094 443.378906 451.308594 443.222656 451.210938 C 443.066406 451.113281 442.933594 450.992188 442.828125 450.839844 C 442.71875 450.691406 442.644531 450.527344 442.605469 450.347656 C 442.5625 450.167969 442.558594 449.988281 442.585938 449.804688 C 443.066406 446.90625 447.191406 432.730469 448.1875 429.378906 C 448.273438 429.089844 448.4375 428.855469 448.675781 428.671875 C 448.914062 428.488281 449.183594 428.394531 449.484375 428.382812 C 449.78125 428.382812 450.054688 428.464844 450.300781 428.632812 C 450.546875 428.800781 450.722656 429.027344 450.828125 429.308594 C 452.703125 434.554688 454.664062 440.734375 456.371094 446.734375 C 456.90625 445.550781 457.464844 444.339844 458.03125 443.105469 C 459.839844 439.175781 461.707031 435.109375 463.34375 430.714844 C 463.453125 430.433594 463.632812 430.207031 463.890625 430.042969 C 464.144531 429.875 464.425781 429.800781 464.730469 429.816406 C 465.035156 429.832031 465.304688 429.941406 465.539062 430.136719 C 465.773438 430.335938 465.925781 430.582031 465.996094 430.878906 C 466.960938 434.921875 467.859375 439.535156 468.730469 443.996094 C 469.269531 446.765625 469.789062 449.421875 470.285156 451.738281 C 470.324219 451.921875 470.324219 452.101562 470.292969 452.28125 C 470.257812 452.464844 470.191406 452.632812 470.089844 452.785156 C 469.992188 452.941406 469.863281 453.070312 469.714844 453.175781 C 469.5625 453.28125 469.394531 453.351562 469.214844 453.390625 C 469.117188 453.410156 469.019531 453.417969 468.921875 453.417969 Z M 468.921875 453.417969 " fill-opacity="1" fill-rule="nonzero"/><path fill="#f0c0bf" d="M 461.089844 394.738281 C 461.007812 394.738281 460.925781 394.734375 460.84375 394.726562 C 456.84375 394.253906 453.28125 394.40625 449.507812 394.574219 C 447.722656 394.648438 445.929688 394.726562 444.078125 394.738281 L 444.066406 394.738281 C 443.800781 394.738281 443.542969 394.691406 443.292969 394.589844 C 443.046875 394.492188 442.824219 394.351562 442.632812 394.167969 C 442.4375 393.984375 442.285156 393.773438 442.175781 393.53125 C 442.0625 393.289062 442 393.035156 441.984375 392.769531 C 441.726562 388.070312 441.824219 381.132812 441.90625 375.007812 C 441.945312 372.285156 441.980469 369.734375 441.980469 367.644531 C 441.980469 367.382812 442.027344 367.128906 442.125 366.882812 C 442.21875 366.640625 442.355469 366.421875 442.535156 366.230469 C 442.714844 366.035156 442.921875 365.882812 443.15625 365.769531 C 443.390625 365.652344 443.640625 365.585938 443.902344 365.566406 C 449.410156 365.132812 454.800781 365.480469 460.019531 365.8125 L 461.5625 365.90625 C 461.839844 365.925781 462.101562 365.996094 462.351562 366.117188 C 462.597656 366.238281 462.8125 366.402344 462.996094 366.609375 C 463.179688 366.816406 463.316406 367.050781 463.40625 367.3125 C 463.496094 367.574219 463.53125 367.84375 463.515625 368.121094 C 463.496094 368.394531 463.421875 368.65625 463.300781 368.902344 C 463.179688 369.148438 463.011719 369.363281 462.808594 369.546875 C 462.601562 369.726562 462.367188 369.863281 462.105469 369.957031 C 461.847656 370.046875 461.578125 370.085938 461.304688 370.070312 L 459.75 369.96875 C 455.222656 369.601562 450.683594 369.476562 446.140625 369.601562 C 446.128906 371.265625 446.101562 373.125 446.074219 375.0625 C 446.003906 380.285156 445.921875 386.105469 446.0625 390.53125 C 447.160156 390.5 448.246094 390.449219 449.324219 390.402344 C 453.101562 390.242188 456.996094 390.074219 461.332031 390.578125 C 461.59375 390.609375 461.84375 390.6875 462.078125 390.816406 C 462.3125 390.941406 462.511719 391.105469 462.683594 391.308594 C 462.855469 391.515625 462.980469 391.742188 463.066406 391.996094 C 463.148438 392.246094 463.183594 392.503906 463.167969 392.769531 C 463.152344 393.035156 463.089844 393.289062 462.976562 393.53125 C 462.863281 393.769531 462.710938 393.984375 462.519531 394.164062 C 462.324219 394.347656 462.105469 394.488281 461.859375 394.585938 C 461.609375 394.683594 461.355469 394.734375 461.089844 394.734375 Z M 461.089844 394.738281 " fill-opacity="1" fill-rule="nonzero"/><path fill="#f0c0bf" d="M 460.394531 382.929688 C 460.359375 382.929688 460.328125 382.929688 460.292969 382.925781 C 453.046875 382.582031 448.929688 382.582031 443.71875 382.582031 C 443.4375 382.585938 443.171875 382.535156 442.910156 382.429688 C 442.652344 382.328125 442.421875 382.175781 442.222656 381.980469 C 442.023438 381.785156 441.871094 381.558594 441.765625 381.300781 C 441.65625 381.042969 441.601562 380.777344 441.601562 380.496094 C 441.601562 380.21875 441.65625 379.949219 441.765625 379.691406 C 441.871094 379.433594 442.023438 379.207031 442.222656 379.011719 C 442.421875 378.816406 442.652344 378.667969 442.910156 378.5625 C 443.171875 378.457031 443.4375 378.410156 443.71875 378.414062 C 448.984375 378.414062 453.144531 378.414062 460.492188 378.761719 C 460.765625 378.777344 461.023438 378.839844 461.269531 378.953125 C 461.515625 379.070312 461.730469 379.226562 461.917969 379.425781 C 462.101562 379.621094 462.242188 379.847656 462.339844 380.101562 C 462.4375 380.355469 462.480469 380.621094 462.476562 380.890625 C 462.46875 381.164062 462.414062 381.425781 462.304688 381.671875 C 462.195312 381.921875 462.046875 382.144531 461.851562 382.332031 C 461.65625 382.523438 461.433594 382.671875 461.183594 382.773438 C 460.929688 382.875 460.667969 382.929688 460.398438 382.929688 Z M 460.394531 382.929688 " fill-opacity="1" fill-rule="nonzero"/><path fill="#f0c0bf" d="M 395.734375 460.984375 C 395.453125 460.984375 395.199219 460.90625 394.964844 460.75 C 394.734375 460.597656 394.5625 460.390625 394.453125 460.136719 C 393.886719 458.792969 393.011719 456.304688 392.003906 453.425781 C 390.484375 449.105469 388.671875 443.941406 386.941406 439.839844 C 385.820312 442.710938 384.660156 446.109375 383.53125 449.425781 C 382.207031 453.296875 380.957031 456.957031 379.890625 459.429688 C 379.816406 459.601562 379.714844 459.75 379.582031 459.875 C 379.449219 460.003906 379.296875 460.101562 379.125 460.171875 C 378.953125 460.238281 378.777344 460.269531 378.59375 460.269531 C 378.410156 460.265625 378.230469 460.226562 378.0625 460.15625 C 377.894531 460.082031 377.746094 459.980469 377.617188 459.847656 C 377.488281 459.714844 377.390625 459.5625 377.324219 459.390625 C 377.253906 459.21875 377.222656 459.042969 377.226562 458.859375 C 377.226562 458.675781 377.265625 458.496094 377.339844 458.328125 C 378.363281 455.953125 379.597656 452.34375 380.898438 448.527344 C 382.46875 443.929688 384.089844 439.175781 385.621094 435.765625 C 385.730469 435.519531 385.898438 435.324219 386.125 435.175781 C 386.347656 435.027344 386.597656 434.949219 386.867188 434.945312 L 386.886719 434.945312 C 387.152344 434.945312 387.398438 435.015625 387.625 435.15625 C 387.851562 435.300781 388.023438 435.488281 388.136719 435.730469 C 390.296875 440.179688 392.695312 447.015625 394.625 452.503906 C 395.621094 455.335938 396.476562 457.785156 397.015625 459.050781 C 397.058594 459.15625 397.089844 459.265625 397.109375 459.378906 C 397.125 459.492188 397.128906 459.609375 397.117188 459.722656 C 397.109375 459.835938 397.082031 459.945312 397.046875 460.054688 C 397.007812 460.164062 396.957031 460.265625 396.894531 460.359375 C 396.828125 460.457031 396.753906 460.542969 396.671875 460.621094 C 396.585938 460.695312 396.492188 460.761719 396.390625 460.816406 C 396.289062 460.871094 396.183594 460.914062 396.074219 460.941406 C 395.960938 460.96875 395.847656 460.980469 395.734375 460.980469 Z M 395.734375 460.984375 " fill-opacity="1" fill-rule="nonzero"/><path fill="#f0c0bf" d="M 396.019531 452.28125 C 393.835938 452.28125 391.574219 452.265625 389.347656 452.246094 C 385 452.214844 380.886719 452.183594 377.800781 452.28125 L 377.757812 452.28125 C 377.574219 452.28125 377.398438 452.246094 377.226562 452.179688 C 377.058594 452.109375 376.90625 452.011719 376.777344 451.882812 C 376.644531 451.753906 376.542969 451.605469 376.472656 451.4375 C 376.398438 451.269531 376.363281 451.09375 376.359375 450.914062 C 376.355469 450.730469 376.386719 450.550781 376.457031 450.382812 C 376.523438 450.210938 376.621094 450.058594 376.746094 449.929688 C 376.871094 449.796875 377.019531 449.691406 377.1875 449.621094 C 377.355469 449.546875 377.53125 449.507812 377.710938 449.5 C 380.851562 449.40625 384.988281 449.4375 389.367188 449.46875 C 391.585938 449.484375 393.84375 449.5 396.019531 449.5 C 396.203125 449.496094 396.382812 449.53125 396.558594 449.597656 C 396.730469 449.667969 396.882812 449.769531 397.015625 449.898438 C 397.148438 450.03125 397.253906 450.179688 397.324219 450.351562 C 397.398438 450.523438 397.433594 450.703125 397.433594 450.890625 C 397.433594 451.078125 397.398438 451.257812 397.324219 451.429688 C 397.253906 451.601562 397.148438 451.75 397.015625 451.882812 C 396.882812 452.011719 396.730469 452.113281 396.558594 452.183594 C 396.382812 452.25 396.203125 452.285156 396.019531 452.28125 Z M 396.019531 452.28125 " fill-opacity="1" fill-rule="nonzero"/></svg>