<svg xmlns="http://www.w3.org/2000/svg" xmlns:xlink="http://www.w3.org/1999/xlink" width="1080" zoomAndPan="magnify" viewBox="0 0 810 809.999993" height="1080" preserveAspectRatio="xMidYMid meet" version="1.0"><path fill="#38b6ff" d="M 547.105469 452.03125 C 546.890625 452.03125 519.28125 442.085938 503.640625 437.328125 C 500.765625 436.722656 497.941406 436.917969 495.171875 437.90625 C 483.324219 443.203125 471.933594 449.355469 461.007812 456.355469 C 460.703125 456.546875 460.421875 456.765625 460.160156 457.011719 C 459.898438 457.257812 459.664062 457.527344 459.457031 457.820312 C 459.25 458.113281 459.074219 458.421875 458.925781 458.75 C 458.78125 459.078125 458.667969 459.414062 458.585938 459.765625 C 458.507812 460.113281 458.460938 460.46875 458.453125 460.828125 C 458.441406 461.183594 458.464844 461.539062 458.527344 461.894531 C 458.585938 462.246094 458.679688 462.589844 458.808594 462.925781 C 458.933594 463.261719 459.09375 463.582031 459.285156 463.882812 C 459.472656 464.1875 459.691406 464.472656 459.9375 464.730469 C 460.183594 464.992188 460.453125 465.226562 460.746094 465.433594 C 461.035156 465.644531 461.347656 465.820312 461.671875 465.96875 C 462 466.113281 462.339844 466.226562 462.6875 466.308594 C 463.035156 466.390625 463.390625 466.433594 463.75 466.445312 C 464.105469 466.457031 464.464844 466.433594 464.816406 466.375 C 465.171875 466.3125 465.515625 466.222656 465.851562 466.09375 C 466.183594 465.96875 466.503906 465.808594 466.808594 465.621094 C 477.167969 458.933594 487.980469 453.082031 499.246094 448.066406 C 499.917969 447.933594 500.589844 447.933594 501.261719 448.066406 C 516.941406 453.003906 543.214844 462.484375 543.464844 462.484375 C 543.800781 462.601562 544.144531 462.6875 544.496094 462.738281 C 544.847656 462.789062 545.199219 462.804688 545.554688 462.785156 C 545.910156 462.769531 546.257812 462.714844 546.605469 462.628906 C 546.949219 462.539062 547.28125 462.417969 547.601562 462.265625 C 547.921875 462.113281 548.222656 461.929688 548.507812 461.71875 C 548.792969 461.503906 549.054688 461.265625 549.292969 461.003906 C 549.53125 460.738281 549.738281 460.453125 549.921875 460.148438 C 550.101562 459.84375 550.253906 459.523438 550.371094 459.1875 C 550.488281 458.851562 550.574219 458.507812 550.625 458.15625 C 550.675781 457.804688 550.691406 457.453125 550.671875 457.097656 C 550.652344 456.742188 550.601562 456.394531 550.511719 456.050781 C 550.425781 455.703125 550.304688 455.371094 550.148438 455.050781 C 549.996094 454.730469 549.8125 454.429688 549.601562 454.144531 C 549.386719 453.859375 549.148438 453.597656 548.886719 453.363281 C 548.621094 453.125 548.335938 452.914062 548.03125 452.734375 C 547.726562 452.550781 547.40625 452.402344 547.070312 452.285156 Z M 547.105469 452.03125 " fill-opacity="1" fill-rule="nonzero"/><path fill="#38b6ff" d="M 563.109375 398.875 L 518.957031 386.511719 C 513.003906 383.535156 507.8125 379.558594 503.390625 374.582031 C 499.867188 371.214844 496 368.304688 491.785156 365.859375 C 491.480469 365.691406 491.167969 365.554688 490.835938 365.445312 C 490.507812 365.335938 490.171875 365.261719 489.828125 365.214844 C 489.484375 365.171875 489.140625 365.164062 488.792969 365.183594 C 488.449219 365.207031 488.109375 365.261719 487.773438 365.351562 C 487.4375 365.4375 487.113281 365.558594 486.800781 365.707031 C 486.492188 365.859375 486.195312 366.039062 485.917969 366.246094 C 485.640625 366.453125 485.382812 366.683594 485.152344 366.9375 C 484.917969 367.195312 484.710938 367.472656 484.53125 367.765625 C 484.351562 368.0625 484.199219 368.371094 484.078125 368.699219 C 483.960938 369.023438 483.871094 369.355469 483.8125 369.695312 C 483.757812 370.039062 483.734375 370.382812 483.742188 370.730469 C 483.753906 371.074219 483.796875 371.417969 483.871094 371.753906 C 483.945312 372.09375 484.054688 372.421875 484.191406 372.738281 C 484.328125 373.054688 484.496094 373.359375 484.691406 373.644531 C 484.890625 373.929688 485.113281 374.191406 485.359375 374.4375 C 485.605469 374.679688 485.875 374.894531 486.164062 375.085938 C 489.578125 377.042969 492.738281 379.347656 495.640625 382.007812 C 501.109375 388.042969 507.5 392.847656 514.8125 396.421875 L 515.679688 396.746094 L 560.296875 409.253906 C 560.789062 409.324219 561.28125 409.324219 561.773438 409.253906 C 562.367188 409.175781 562.933594 409.007812 563.472656 408.746094 C 564.007812 408.480469 564.488281 408.136719 564.914062 407.714844 C 565.335938 407.292969 565.679688 406.8125 565.945312 406.273438 C 566.207031 405.738281 566.378906 405.171875 566.453125 404.578125 C 566.53125 403.984375 566.507812 403.394531 566.390625 402.808594 C 566.269531 402.222656 566.058594 401.671875 565.753906 401.152344 C 565.453125 400.636719 565.074219 400.183594 564.621094 399.792969 C 564.167969 399.402344 563.664062 399.097656 563.109375 398.875 Z M 563.109375 398.875 " fill-opacity="1" fill-rule="nonzero"/><path fill="#38b6ff" d="M 497.082031 285.742188 C 497.300781 285.460938 497.492188 285.15625 497.652344 284.835938 C 497.8125 284.515625 497.941406 284.179688 498.035156 283.832031 C 498.128906 283.488281 498.1875 283.132812 498.214844 282.777344 C 498.238281 282.417969 498.230469 282.0625 498.183594 281.703125 C 498.136719 281.347656 498.058594 281 497.945312 280.660156 C 497.832031 280.320312 497.683594 279.992188 497.507812 279.679688 C 497.328125 279.367188 497.121094 279.078125 496.886719 278.804688 C 496.652344 278.535156 496.390625 278.289062 496.105469 278.070312 C 495.824219 277.847656 495.519531 277.660156 495.199219 277.5 C 494.878906 277.339844 494.542969 277.210938 494.199219 277.117188 C 493.851562 277.023438 493.5 276.960938 493.140625 276.9375 C 492.78125 276.910156 492.425781 276.921875 492.070312 276.964844 C 491.710938 277.011719 491.363281 277.089844 491.023438 277.203125 C 490.683594 277.316406 490.355469 277.464844 490.042969 277.640625 C 489.734375 277.820312 489.441406 278.027344 489.167969 278.261719 C 488.898438 278.496094 488.652344 278.757812 488.433594 279.039062 C 488.433594 279.257812 470.882812 301.851562 461.292969 315.40625 C 460.472656 316.699219 459.863281 318.089844 459.464844 319.570312 C 459.066406 321.050781 458.894531 322.558594 458.953125 324.089844 C 460.164062 335.804688 462.207031 347.375 465.078125 358.796875 C 467.710938 369.609375 471.675781 383.628906 475.890625 389.25 C 480.109375 394.871094 480.109375 396.097656 480.109375 396.457031 C 477.117188 401.179688 472.25 397.683594 468.898438 393.070312 C 468.691406 392.785156 468.457031 392.519531 468.195312 392.277344 C 467.9375 392.035156 467.65625 391.824219 467.351562 391.636719 C 467.050781 391.449219 466.730469 391.296875 466.398438 391.171875 C 466.066406 391.050781 465.722656 390.960938 465.375 390.902344 C 465.023438 390.847656 464.671875 390.824219 464.316406 390.839844 C 463.960938 390.851562 463.609375 390.902344 463.265625 390.984375 C 462.921875 391.066406 462.585938 391.179688 462.265625 391.328125 C 461.941406 391.476562 461.636719 391.65625 461.347656 391.863281 C 461.0625 392.070312 460.796875 392.304688 460.554688 392.566406 C 460.3125 392.828125 460.101562 393.109375 459.914062 393.410156 C 459.726562 393.710938 459.574219 394.03125 459.449219 394.363281 C 459.328125 394.695312 459.238281 395.039062 459.179688 395.386719 C 459.125 395.738281 459.105469 396.089844 459.117188 396.445312 C 459.128906 396.800781 459.179688 397.152344 459.261719 397.496094 C 459.34375 397.84375 459.457031 398.175781 459.605469 398.5 C 459.753906 398.820312 459.933594 399.125 460.140625 399.414062 C 467.925781 410.007812 477.980469 412.496094 485.835938 406.117188 C 495.570312 397.648438 489.191406 389.105469 484.539062 382.90625 C 479.496094 376.132812 470.882812 339.660156 469.726562 323.40625 C 469.78125 322.722656 469.964844 322.074219 470.269531 321.460938 C 479.890625 308.089844 496.902344 285.960938 497.082031 285.742188 Z M 497.082031 285.742188 " fill-opacity="1" fill-rule="nonzero"/><path fill="#38b6ff" d="M 453.472656 252.117188 C 453.671875 251.824219 453.835938 251.511719 453.972656 251.183594 C 454.105469 250.851562 454.207031 250.515625 454.277344 250.167969 C 454.34375 249.816406 454.378906 249.464844 454.375 249.109375 C 454.375 248.757812 454.339844 248.40625 454.269531 248.054688 C 454.199219 247.707031 454.097656 247.371094 453.957031 247.042969 C 453.820312 246.714844 453.65625 246.402344 453.457031 246.109375 C 453.257812 245.816406 453.035156 245.542969 452.78125 245.292969 C 452.53125 245.042969 452.257812 244.816406 451.960938 244.621094 C 451.664062 244.425781 451.351562 244.257812 451.023438 244.125 C 450.695312 243.988281 450.355469 243.886719 450.007812 243.820312 C 449.660156 243.75 449.308594 243.71875 448.953125 243.71875 C 448.597656 243.71875 448.246094 243.753906 447.898438 243.824219 C 447.550781 243.894531 447.210938 244 446.886719 244.136719 C 446.558594 244.273438 446.246094 244.441406 445.953125 244.640625 C 445.65625 244.835938 445.382812 245.0625 445.132812 245.3125 C 444.882812 245.566406 444.660156 245.839844 444.464844 246.136719 L 419.234375 284.300781 C 414.546875 289.03125 409.152344 292.730469 403.054688 295.402344 C 396.550781 299.101562 390.6875 303.628906 385.464844 308.988281 C 385.226562 309.238281 385.011719 309.511719 384.820312 309.800781 C 384.632812 310.09375 384.472656 310.402344 384.34375 310.722656 C 384.210938 311.046875 384.113281 311.378906 384.050781 311.71875 C 383.984375 312.0625 383.949219 312.40625 383.953125 312.753906 C 383.953125 313.101562 383.988281 313.445312 384.054688 313.785156 C 384.121094 314.125 384.21875 314.457031 384.351562 314.78125 C 384.480469 315.101562 384.640625 315.410156 384.832031 315.699219 C 385.023438 315.992188 385.238281 316.261719 385.480469 316.511719 C 385.722656 316.757812 385.988281 316.984375 386.273438 317.179688 C 386.558594 317.378906 386.859375 317.550781 387.179688 317.6875 C 387.496094 317.828125 387.824219 317.9375 388.164062 318.015625 C 388.503906 318.089844 388.847656 318.136719 389.195312 318.144531 C 389.542969 318.15625 389.886719 318.132812 390.230469 318.078125 C 390.574219 318.019531 390.90625 317.933594 391.234375 317.8125 C 391.558594 317.691406 391.871094 317.539062 392.167969 317.359375 C 392.464844 317.179688 392.742188 316.972656 393 316.738281 C 397.375 312.214844 402.277344 308.359375 407.703125 305.167969 C 415.066406 301.816406 421.550781 297.226562 427.164062 291.402344 C 427.375 291.175781 427.570312 290.9375 427.742188 290.679688 Z M 453.472656 252.117188 " fill-opacity="1" fill-rule="nonzero"/><path fill="#38b6ff" d="M 302.933594 283.113281 C 302.933594 283.292969 319.585938 307.546875 329.425781 320.59375 C 331.410156 322.753906 333.8125 324.242188 336.632812 325.0625 C 351.695312 328.667969 392.3125 333.027344 403.882812 329.101562 C 410.152344 326.972656 411.667969 327.191406 411.917969 327.261719 C 416.894531 333.605469 405.539062 337.425781 398.691406 338.363281 C 390.621094 339.765625 372.382812 342.902344 378.835938 352.5625 C 379.070312 352.828125 379.328125 353.070312 379.613281 353.285156 C 379.894531 353.5 380.195312 353.6875 380.515625 353.84375 C 380.835938 354 381.167969 354.121094 381.511719 354.210938 C 381.855469 354.304688 382.203125 354.359375 382.558594 354.382812 C 382.914062 354.402344 383.265625 354.390625 383.617188 354.34375 C 383.972656 354.292969 384.316406 354.210938 384.652344 354.097656 C 384.988281 353.980469 385.308594 353.832031 385.617188 353.652344 C 385.921875 353.472656 386.210938 353.265625 386.476562 353.03125 C 388.566406 351.191406 395.234375 349.96875 400.601562 348.992188 C 412.460938 347.480469 420.136719 341.785156 422.226562 337.027344 C 422.742188 336.097656 423.144531 335.121094 423.433594 334.097656 C 423.722656 333.074219 423.894531 332.035156 423.949219 330.972656 C 424.003906 329.910156 423.933594 328.855469 423.746094 327.808594 C 423.558594 326.765625 423.257812 325.753906 422.839844 324.773438 C 417.792969 312.917969 407.703125 316.339844 400.351562 318.863281 C 392.351562 321.566406 355.011719 318.503906 339.082031 314.574219 C 338.449219 314.308594 337.882812 313.9375 337.390625 313.457031 C 327.585938 300.269531 311.835938 277.417969 311.65625 277.023438 C 311.46875 276.703125 311.25 276.40625 311 276.128906 C 310.753906 275.855469 310.476562 275.609375 310.179688 275.390625 C 309.878906 275.171875 309.5625 274.988281 309.222656 274.832031 C 308.886719 274.679688 308.535156 274.5625 308.171875 274.484375 C 307.8125 274.402344 307.445312 274.359375 307.074219 274.351562 C 306.703125 274.347656 306.335938 274.378906 305.972656 274.449219 C 305.609375 274.519531 305.257812 274.625 304.914062 274.769531 C 304.570312 274.910156 304.246094 275.085938 303.941406 275.296875 C 303.636719 275.507812 303.355469 275.746094 303.097656 276.011719 C 302.839844 276.277344 302.613281 276.570312 302.417969 276.882812 C 302.21875 277.199219 302.054688 277.527344 301.925781 277.875 C 301.796875 278.222656 301.707031 278.582031 301.648438 278.945312 C 301.59375 279.3125 301.574219 279.683594 301.597656 280.050781 C 301.617188 280.421875 301.675781 280.785156 301.769531 281.144531 C 301.863281 281.503906 301.996094 281.847656 302.160156 282.179688 C 302.328125 282.511719 302.523438 282.820312 302.753906 283.113281 Z M 302.933594 283.113281 " fill-opacity="1" fill-rule="nonzero"/><path fill="#38b6ff" d="M 298.71875 341.351562 L 269.886719 305.023438 C 269.664062 304.746094 269.421875 304.492188 269.148438 304.261719 C 268.878906 304.03125 268.589844 303.828125 268.28125 303.652344 C 267.96875 303.480469 267.644531 303.339844 267.308594 303.230469 C 266.96875 303.121094 266.625 303.042969 266.269531 303.003906 C 265.917969 302.960938 265.5625 302.953125 265.210938 302.980469 C 264.855469 303.007812 264.507812 303.070312 264.164062 303.167969 C 263.824219 303.265625 263.492188 303.394531 263.175781 303.554688 C 262.859375 303.714844 262.5625 303.90625 262.285156 304.125 C 262.003906 304.347656 261.75 304.59375 261.519531 304.863281 C 261.289062 305.132812 261.085938 305.421875 260.910156 305.730469 C 260.738281 306.042969 260.597656 306.367188 260.488281 306.703125 C 260.375 307.042969 260.300781 307.386719 260.257812 307.742188 C 260.214844 308.09375 260.210938 308.445312 260.238281 308.800781 C 260.265625 309.15625 260.328125 309.503906 260.421875 309.847656 C 260.519531 310.1875 260.648438 310.515625 260.808594 310.835938 C 260.96875 311.152344 261.160156 311.449219 261.378906 311.726562 L 289.851562 347.769531 C 292.894531 353.675781 294.753906 359.933594 295.4375 366.546875 C 296.652344 372.949219 298.71875 379.0625 301.636719 384.890625 C 301.855469 385.355469 302.136719 385.78125 302.476562 386.167969 C 302.816406 386.554688 303.203125 386.882812 303.636719 387.160156 C 304.070312 387.4375 304.535156 387.652344 305.027344 387.796875 C 305.519531 387.945312 306.023438 388.019531 306.539062 388.023438 C 306.765625 388.023438 306.988281 388.011719 307.214844 387.980469 C 307.4375 387.953125 307.660156 387.910156 307.878906 387.855469 C 308.097656 387.800781 308.3125 387.730469 308.523438 387.648438 C 308.730469 387.5625 308.9375 387.46875 309.132812 387.359375 C 309.332031 387.25 309.523438 387.128906 309.707031 386.996094 C 309.886719 386.863281 310.0625 386.722656 310.226562 386.566406 C 310.390625 386.414062 310.546875 386.25 310.691406 386.074219 C 310.835938 385.902344 310.96875 385.71875 311.089844 385.527344 C 311.210938 385.339844 311.320312 385.140625 311.417969 384.9375 C 311.515625 384.734375 311.597656 384.523438 311.667969 384.308594 C 311.738281 384.09375 311.796875 383.875 311.839844 383.652344 C 311.882812 383.433594 311.914062 383.207031 311.925781 382.984375 C 311.941406 382.757812 311.945312 382.53125 311.929688 382.308594 C 311.917969 382.082031 311.890625 381.855469 311.851562 381.636719 C 311.808594 381.414062 311.753906 381.195312 311.683594 380.980469 C 311.617188 380.765625 311.535156 380.554688 311.441406 380.347656 C 309.015625 375.507812 307.25 370.4375 306.140625 365.140625 C 305.347656 356.6875 302.875 348.757812 298.71875 341.351562 Z M 298.71875 341.351562 " fill-opacity="1" fill-rule="nonzero"/><path fill="#38b6ff" d="M 294.824219 444.824219 C 297.496094 443.597656 299.65625 441.773438 301.3125 439.347656 C 309.492188 426.191406 326.074219 388.890625 325.890625 376.636719 C 325.542969 373.84375 325.796875 371.101562 326.648438 368.417969 C 333.460938 365.824219 334.363281 374.90625 333.460938 382.078125 C 332.128906 392.132812 329.855469 403.703125 336.558594 409.035156 C 341.859375 413.398438 349.210938 410.945312 351.625 410.152344 L 357.425781 408.171875 C 357.761719 408.054688 358.085938 407.902344 358.390625 407.722656 C 358.699219 407.539062 358.984375 407.332031 359.25 407.09375 C 359.511719 406.855469 359.753906 406.59375 359.964844 406.308594 C 360.179688 406.023438 360.363281 405.71875 360.519531 405.398438 C 360.671875 405.078125 360.792969 404.742188 360.882812 404.398438 C 360.96875 404.054688 361.023438 403.703125 361.042969 403.347656 C 361.0625 402.992188 361.046875 402.636719 360.996094 402.285156 C 360.945312 401.933594 360.859375 401.585938 360.742188 401.25 C 360.625 400.914062 360.472656 400.59375 360.292969 400.289062 C 360.109375 399.980469 359.902344 399.695312 359.664062 399.429688 C 359.425781 399.164062 359.164062 398.925781 358.878906 398.710938 C 358.59375 398.5 358.289062 398.316406 357.96875 398.160156 C 357.648438 398.007812 357.316406 397.886719 356.96875 397.796875 C 356.625 397.710938 356.273438 397.65625 355.917969 397.636719 C 355.5625 397.617188 355.207031 397.632812 354.855469 397.683594 C 354.503906 397.734375 354.160156 397.816406 353.824219 397.9375 L 348.019531 399.882812 C 346.519531 400.570312 344.945312 400.835938 343.300781 400.675781 C 341.75 398.332031 343.480469 388.242188 344.054688 383.484375 C 346.183594 367.410156 339.480469 356.527344 327.585938 357.101562 C 314.71875 358.21875 314.863281 368.886719 315.007812 376.671875 C 315.007812 385.105469 300.59375 419.667969 292.015625 433.472656 C 291.566406 433.992188 291.039062 434.414062 290.429688 434.734375 C 274.859375 439.996094 248.117188 447.851562 247.828125 447.921875 C 247.488281 448.023438 247.160156 448.15625 246.847656 448.320312 C 246.53125 448.488281 246.234375 448.679688 245.960938 448.90625 C 245.683594 449.128906 245.433594 449.375 245.203125 449.648438 C 244.976562 449.921875 244.777344 450.214844 244.609375 450.527344 C 244.4375 450.839844 244.300781 451.164062 244.195312 451.503906 C 244.089844 451.84375 244.019531 452.1875 243.980469 452.542969 C 243.941406 452.894531 243.941406 453.25 243.972656 453.601562 C 244.003906 453.957031 244.070312 454.304688 244.171875 454.644531 C 244.273438 454.984375 244.40625 455.3125 244.570312 455.628906 C 244.734375 455.941406 244.929688 456.238281 245.152344 456.515625 C 245.375 456.789062 245.625 457.042969 245.898438 457.269531 C 246.167969 457.496094 246.460938 457.695312 246.773438 457.867188 C 247.085938 458.035156 247.414062 458.175781 247.75 458.28125 C 248.089844 458.386719 248.4375 458.457031 248.789062 458.496094 C 249.144531 458.53125 249.496094 458.535156 249.851562 458.503906 C 250.203125 458.46875 250.550781 458.402344 250.894531 458.304688 C 250.894531 458.304688 279.402344 450.015625 294.824219 444.824219 Z M 294.824219 444.824219 " fill-opacity="1" fill-rule="nonzero"/><path fill="#38b6ff" d="M 338.46875 480.574219 C 336.152344 480.679688 333.84375 480.558594 331.550781 480.214844 C 323.574219 478.546875 315.574219 478.414062 307.546875 479.820312 C 307.242188 479.871094 306.941406 479.941406 306.648438 480.035156 L 263.398438 496.179688 C 262.796875 496.472656 262.269531 496.859375 261.8125 497.34375 C 261.355469 497.828125 261 498.378906 260.746094 498.996094 C 260.492188 499.613281 260.359375 500.253906 260.34375 500.921875 C 260.328125 501.585938 260.429688 502.234375 260.65625 502.863281 C 260.878906 503.492188 261.207031 504.058594 261.640625 504.566406 C 262.074219 505.070312 262.582031 505.484375 263.167969 505.800781 C 263.753906 506.121094 264.378906 506.320312 265.039062 506.410156 C 265.699219 506.496094 266.355469 506.464844 267.003906 506.308594 L 310 490.34375 C 316.566406 489.269531 323.101562 489.4375 329.605469 490.847656 C 332.589844 491.324219 335.59375 491.503906 338.613281 491.386719 C 338.96875 491.382812 339.320312 491.34375 339.667969 491.269531 C 340.011719 491.195312 340.351562 491.085938 340.675781 490.945312 C 341 490.804688 341.308594 490.636719 341.601562 490.433594 C 341.894531 490.234375 342.164062 490.003906 342.410156 489.75 C 342.660156 489.496094 342.878906 489.222656 343.070312 488.921875 C 343.265625 488.625 343.425781 488.3125 343.558594 487.984375 C 343.6875 487.652344 343.789062 487.3125 343.851562 486.964844 C 343.917969 486.617188 343.945312 486.265625 343.941406 485.910156 C 343.9375 485.554688 343.898438 485.203125 343.824219 484.859375 C 343.75 484.511719 343.644531 484.175781 343.503906 483.847656 C 343.363281 483.523438 343.191406 483.214844 342.992188 482.921875 C 342.789062 482.628906 342.5625 482.359375 342.308594 482.109375 C 342.054688 481.863281 341.78125 481.644531 341.484375 481.449219 C 341.183594 481.257812 340.871094 481.09375 340.542969 480.960938 C 340.214844 480.832031 339.875 480.730469 339.523438 480.667969 C 339.175781 480.601562 338.824219 480.570312 338.46875 480.574219 Z M 338.46875 480.574219 " fill-opacity="1" fill-rule="nonzero"/><path fill="#38b6ff" d="M 452.574219 372.746094 C 452.054688 372.214844 451.484375 371.742188 450.867188 371.328125 C 450.253906 370.914062 449.601562 370.566406 448.914062 370.289062 C 448.222656 370.011719 447.515625 369.804688 446.785156 369.671875 C 446.054688 369.539062 445.316406 369.480469 444.574219 369.5 C 443.832031 369.515625 443.101562 369.613281 442.378906 369.78125 C 441.65625 369.949219 440.957031 370.191406 440.285156 370.503906 C 439.609375 370.820312 438.976562 371.195312 438.382812 371.640625 C 437.785156 372.085938 437.242188 372.585938 436.75 373.140625 C 436.175781 365.105469 432.246094 357.03125 423.378906 357.140625 C 422.210938 357.144531 421.066406 357.316406 419.949219 357.652344 C 418.832031 357.992188 417.78125 358.476562 416.804688 359.117188 C 415.824219 359.757812 414.957031 360.519531 414.199219 361.410156 C 413.441406 362.300781 412.828125 363.277344 412.351562 364.347656 C 411.234375 357.140625 406.515625 351.445312 399.015625 351.550781 C 389.933594 351.550781 386.726562 360.238281 386.726562 369.03125 C 386.457031 368.40625 386.140625 367.800781 385.773438 367.226562 C 385.410156 366.648438 385 366.105469 384.546875 365.59375 C 384.09375 365.082031 383.605469 364.605469 383.078125 364.171875 C 382.550781 363.738281 381.992188 363.351562 381.402344 363.003906 C 380.8125 362.660156 380.199219 362.363281 379.5625 362.117188 C 378.925781 361.871094 378.273438 361.675781 377.605469 361.53125 C 376.9375 361.390625 376.261719 361.300781 375.578125 361.265625 C 374.898438 361.226562 374.214844 361.246094 373.535156 361.320312 C 371.960938 361.425781 370.472656 361.847656 369.074219 362.582031 C 367.675781 363.316406 366.484375 364.300781 365.5 365.535156 C 360.671875 371.375 361.894531 381.175781 362.761719 389.828125 C 363.230469 394.585938 363.699219 398.117188 364.5625 404.242188 C 365.429688 410.371094 366.507812 418.011719 367.195312 425.328125 C 368.09375 434.695312 368.058594 443.09375 368.132812 450.949219 C 368.320312 452.601562 368.078125 454.1875 367.410156 455.707031 C 364.707031 456.464844 355.660156 451.742188 351.300781 449.691406 C 336.703125 442.699219 324.234375 445.6875 321.136719 457.1875 C 318.214844 469.765625 328.34375 472.898438 335.839844 475.207031 C 343.914062 477.730469 372.3125 502.128906 382.691406 514.632812 C 383.035156 515.226562 383.265625 515.863281 383.375 516.542969 C 383.375 532.941406 382.800781 560.835938 382.761719 561.125 C 382.753906 561.480469 382.78125 561.832031 382.839844 562.183594 C 382.898438 562.53125 382.992188 562.871094 383.121094 563.203125 C 383.25 563.535156 383.40625 563.851562 383.597656 564.152344 C 383.785156 564.453125 384.003906 564.730469 384.246094 564.988281 C 384.492188 565.246094 384.757812 565.476562 385.046875 565.679688 C 385.335938 565.886719 385.644531 566.0625 385.96875 566.207031 C 386.292969 566.347656 386.628906 566.460938 386.972656 566.539062 C 387.320312 566.617188 387.671875 566.660156 388.023438 566.671875 C 388.378906 566.679688 388.730469 566.65625 389.082031 566.597656 C 389.433594 566.535156 389.773438 566.441406 390.105469 566.316406 C 390.433594 566.1875 390.75 566.03125 391.050781 565.839844 C 391.351562 565.652344 391.632812 565.433594 391.886719 565.191406 C 392.144531 564.949219 392.378906 564.679688 392.582031 564.390625 C 392.789062 564.101562 392.960938 563.792969 393.109375 563.46875 C 393.253906 563.144531 393.363281 562.8125 393.441406 562.464844 C 393.519531 562.117188 393.566406 561.769531 393.574219 561.414062 C 393.574219 561.160156 394.441406 531.898438 394.152344 515.535156 C 393.875 512.632812 392.867188 510.015625 391.125 507.679688 C 381.140625 495.785156 350.757812 468.503906 339.117188 464.898438 C 332.777344 462.917969 331.660156 461.871094 331.515625 461.617188 C 331.441406 460.941406 331.511719 460.28125 331.730469 459.636719 C 333.207031 454.988281 340.957031 456.71875 346.722656 459.636719 C 355.914062 464.035156 366.328125 469.65625 373.320312 465.007812 C 380.3125 460.359375 378.90625 452.898438 379.015625 448.824219 C 379.019531 433.414062 377.820312 418.097656 375.410156 402.875 C 374.546875 396.964844 374.113281 393.609375 373.644531 388.960938 C 373.175781 384.3125 372.058594 374.148438 373.96875 372.742188 C 377.574219 370.183594 379.449219 379.339844 380.925781 391.050781 C 384.816406 423.488281 386.765625 426.550781 389.648438 428.605469 C 390.34375 429.121094 391.117188 429.46875 391.96875 429.652344 C 392.816406 429.832031 393.664062 429.832031 394.511719 429.652344 C 399.484375 428.570312 399.378906 423.34375 399.304688 419.128906 C 399.304688 415.921875 399.015625 411.917969 398.765625 406.875 C 398.007812 395.664062 397.503906 375.410156 397.683594 369.679688 C 397.683594 364.5625 398.546875 363.15625 399.054688 362.832031 C 399.558594 362.507812 401.902344 362.832031 402.296875 370.691406 C 402.296875 372.601562 404.386719 406.730469 404.855469 416.53125 C 404.847656 418.453125 404.980469 420.363281 405.253906 422.261719 C 405.300781 422.847656 405.429688 423.414062 405.632812 423.960938 C 405.839844 424.511719 406.117188 425.023438 406.464844 425.492188 C 406.8125 425.964844 407.21875 426.382812 407.679688 426.742188 C 408.144531 427.101562 408.644531 427.390625 409.191406 427.613281 C 409.734375 427.832031 410.296875 427.972656 410.878906 428.039062 C 411.460938 428.101562 412.042969 428.085938 412.621094 427.988281 C 413.199219 427.894531 413.75 427.71875 414.28125 427.46875 C 414.8125 427.21875 415.296875 426.902344 415.738281 426.515625 C 418.226562 424.316406 418.984375 421.324219 419.957031 403.199219 C 420.425781 394.1875 420.496094 387.519531 420.535156 382.691406 C 420.535156 380.566406 420.535156 378.726562 420.535156 377.285156 C 420.535156 372.203125 422.261719 368.273438 423.453125 368.273438 C 424.640625 368.273438 425.867188 368.273438 426.335938 378.007812 C 426.839844 388.816406 427.707031 407.558594 427.777344 412.75 C 427.777344 423.847656 428.246094 426.875 430.839844 429.109375 C 431.511719 429.683594 432.273438 430.09375 433.121094 430.339844 C 433.96875 430.585938 434.832031 430.644531 435.707031 430.515625 C 440.679688 429.796875 441.21875 424.894531 441.472656 422.804688 C 441.726562 420.714844 442.15625 409.722656 442.335938 401.578125 C 442.519531 395.484375 442.335938 384.671875 444.933594 380.671875 C 446.230469 383.75 446.804688 386.957031 446.664062 390.296875 C 447.023438 397.070312 446.664062 406.765625 446.445312 419.128906 C 446.085938 432.246094 447.167969 446.84375 446.445312 459.421875 C 446.058594 470.632812 443.773438 481.445312 439.597656 491.855469 C 435.550781 498.929688 432.941406 506.496094 431.777344 514.5625 C 431.757812 514.875 431.757812 515.1875 431.777344 515.5 L 433.6875 561.773438 C 433.703125 562.128906 433.75 562.480469 433.835938 562.824219 C 433.917969 563.167969 434.035156 563.503906 434.183594 563.824219 C 434.332031 564.148438 434.511719 564.453125 434.71875 564.742188 C 434.929688 565.027344 435.164062 565.292969 435.425781 565.53125 C 435.6875 565.773438 435.96875 565.984375 436.269531 566.171875 C 436.574219 566.355469 436.890625 566.511719 437.226562 566.632812 C 437.558594 566.757812 437.902344 566.84375 438.25 566.902344 C 438.601562 566.957031 438.957031 566.976562 439.308594 566.960938 C 439.664062 566.949219 440.015625 566.898438 440.359375 566.816406 C 440.707031 566.734375 441.039062 566.617188 441.363281 566.46875 C 441.683594 566.320312 441.988281 566.140625 442.277344 565.929688 C 442.5625 565.722656 442.828125 565.488281 443.070312 565.226562 C 443.308594 564.964844 443.523438 564.683594 443.707031 564.378906 C 443.894531 564.078125 444.046875 563.757812 444.171875 563.425781 C 444.292969 563.09375 444.382812 562.75 444.4375 562.398438 C 444.492188 562.050781 444.515625 561.695312 444.5 561.339844 L 442.589844 515.5 C 443.457031 508.84375 445.523438 502.585938 448.789062 496.722656 C 452.03125 491.027344 455.996094 477.261719 457.042969 459.925781 C 457.90625 446.734375 456.824219 432.5 457.042969 419.128906 C 457.90625 391.484375 458.230469 378.835938 452.574219 372.746094 Z M 452.574219 372.746094 " fill-opacity="1" fill-rule="nonzero"/></svg>