<svg xmlns="http://www.w3.org/2000/svg" xmlns:xlink="http://www.w3.org/1999/xlink" width="1080" zoomAndPan="magnify" viewBox="0 0 810 809.999993" height="1080" preserveAspectRatio="xMidYMid meet" version="1.0"><defs><clipPath id="f683a9b80a"><path d="M 267.300781 243 L 542 243 L 542 567 L 267.300781 567 Z M 267.300781 243 " clip-rule="nonzero"/></clipPath></defs><rect x="-81" width="972" fill="#ffffff" y="-80.999999" height="971.999992" fill-opacity="1"/><rect x="-81" width="972" fill="#ffffff" y="-80.999999" height="971.999992" fill-opacity="1"/><g clip-path="url(#f683a9b80a)"><path fill="#c1ff72" d="M 374.980469 352.769531 C 362.476562 354.707031 350.136719 347.613281 345.613281 335.804688 L 344.371094 332.519531 L 347.824219 331.972656 C 360.328125 329.992188 372.664062 337.148438 377.191406 348.960938 L 378.433594 352.246094 Z M 373.527344 302.605469 C 366.832031 302.605469 360.960938 298.625 358.476562 292.414062 L 356.117188 286.4375 L 360.476562 286.4375 C 367.167969 286.4375 373.042969 290.414062 375.527344 296.625 L 377.886719 302.605469 Z M 396.199219 296.625 C 398.683594 290.414062 404.558594 286.4375 411.25 286.4375 L 415.609375 286.4375 L 413.25 292.414062 C 410.769531 298.625 404.894531 302.605469 398.199219 302.605469 L 393.84375 302.605469 Z M 394.535156 348.960938 C 399.0625 337.148438 411.398438 329.992188 423.902344 331.972656 L 427.355469 332.519531 L 426.113281 335.804688 C 421.589844 347.613281 409.253906 354.769531 396.746094 352.769531 L 393.292969 352.246094 Z M 539.351562 403.714844 L 504.425781 359.992188 C 503.394531 295.488281 450.597656 243.324219 385.863281 243.324219 C 354.179688 243.324219 324.433594 255.660156 302.015625 278.035156 C 279.636719 300.457031 267.300781 330.203125 267.300781 361.886719 L 278.078125 361.886719 C 278.078125 333.109375 289.300781 305.992188 309.65625 285.679688 C 329.972656 265.320312 357.085938 254.101562 385.863281 254.101562 C 445.3125 254.101562 493.648438 302.4375 493.648438 361.886719 C 493.648438 363.128906 494.089844 364.308594 494.828125 365.234375 L 530.929688 410.390625 L 509.816406 410.390625 C 506.847656 410.390625 504.425781 412.808594 504.425781 415.777344 L 504.425781 475.058594 C 504.425781 483.945312 497.144531 491.226562 488.257812 491.226562 L 455.921875 491.226562 C 452.957031 491.226562 450.535156 493.648438 450.535156 496.617188 L 450.535156 555.898438 L 321.191406 555.898438 L 321.191406 458.199219 C 321.191406 456.683594 320.539062 455.167969 319.402344 454.15625 C 300.078125 436.851562 286.605469 413.882812 281.046875 388.832031 L 375.085938 388.832031 C 383.96875 388.832031 391.253906 381.546875 391.253906 372.664062 L 391.253906 362.792969 L 395.085938 363.402344 C 397.019531 363.71875 398.957031 363.886719 400.894531 363.886719 C 416.261719 363.886719 430.535156 354.347656 436.199219 339.675781 L 439.820312 330.203125 C 440.410156 328.644531 440.304688 326.960938 439.480469 325.570312 C 438.683594 324.160156 437.230469 323.191406 435.652344 322.917969 L 425.589844 321.296875 C 412.535156 319.257812 399.609375 324.328125 391.253906 333.867188 L 391.253906 313.382812 L 398.199219 313.382812 C 409.316406 313.382812 419.105469 306.75 423.210938 296.457031 L 428.597656 283.046875 C 429.25 281.363281 429.039062 279.488281 428.070312 278.035156 C 427.039062 276.519531 425.378906 275.65625 423.589844 275.65625 L 411.25 275.65625 C 400.136719 275.65625 390.347656 282.289062 386.242188 292.582031 L 385.863281 293.488281 L 385.484375 292.582031 C 381.378906 282.289062 371.589844 275.65625 360.476562 275.65625 L 348.140625 275.65625 C 346.347656 275.65625 344.6875 276.519531 343.65625 278.035156 C 342.6875 279.488281 342.476562 281.363281 343.128906 283.046875 L 348.519531 296.457031 C 352.621094 306.75 362.410156 313.382812 373.527344 313.382812 L 380.472656 313.382812 L 380.472656 333.867188 C 372.117188 324.328125 359.191406 319.257812 346.140625 321.296875 L 336.074219 322.917969 C 334.496094 323.191406 333.042969 324.160156 332.246094 325.570312 C 331.421875 326.960938 331.320312 328.644531 331.90625 330.203125 L 335.527344 339.675781 C 341.191406 354.347656 355.464844 363.886719 370.832031 363.886719 C 372.769531 363.886719 374.707031 363.71875 376.644531 363.402344 L 380.472656 362.792969 L 380.472656 372.664062 C 380.472656 375.632812 378.054688 378.054688 375.085938 378.054688 L 274.519531 378.054688 C 272.964844 378.054688 271.445312 378.75 270.4375 379.949219 C 269.40625 381.191406 268.964844 382.75 269.195312 384.304688 C 274.035156 413.398438 288.644531 440.347656 310.414062 460.554688 L 310.414062 561.289062 C 310.414062 564.257812 312.835938 566.675781 315.804688 566.675781 L 455.921875 566.675781 C 458.890625 566.675781 461.3125 564.257812 461.3125 561.289062 L 461.3125 502.007812 L 488.257812 502.007812 C 503.144531 502.007812 515.207031 489.945312 515.207031 475.058594 L 515.207031 421.167969 L 530.929688 421.167969 C 535.140625 421.167969 538.867188 418.851562 540.636719 415.082031 C 542.46875 411.292969 541.941406 406.9375 539.351562 403.714844 " fill-opacity="1" fill-rule="nonzero"/></g></svg>