<?xml version="1.0" encoding="UTF-8" standalone="no"?>
<svg
   xmlns:dc="http://purl.org/dc/elements/1.1/"
   xmlns:cc="http://creativecommons.org/ns#"
   xmlns:rdf="http://www.w3.org/1999/02/22-rdf-syntax-ns#"
   xmlns:svg="http://www.w3.org/2000/svg"
   xmlns="http://www.w3.org/2000/svg"
   viewBox="0 0 642.52002 971.33868"
   height="971.33868"
   width="642.52002"
   xml:space="preserve"
   id="svg2"
   version="1.1"><metadata
     id="metadata8"><rdf:RDF><cc:Work
         rdf:about=""><dc:format>image/svg+xml</dc:format><dc:type
           rdf:resource="http://purl.org/dc/dcmitype/StillImage" /></cc:Work></rdf:RDF></metadata><defs
     id="defs6"><clipPath
       id="clipPath20"
       clipPathUnits="userSpaceOnUse"><path
         id="path18"
         d="M 0,728.504 H 481.89 V 0 H 0 Z" /></clipPath><clipPath
       id="clipPath56"
       clipPathUnits="userSpaceOnUse"><path
         id="path54"
         d="M 0,0 H 481.768 V 728.504 H 0 Z" /></clipPath><clipPath
       id="clipPath184"
       clipPathUnits="userSpaceOnUse"><path
         id="path182"
         d="m 456.917,539.301 c -3.949,-1.287 -9.118,-4.727 -8.612,-13.918 v 0 c 0,0 -1.621,7.172 -9.335,7.978 v 0 c -3.144,0.327 -6.307,-1.065 -7.932,-3.778 v 0 c -1.455,-2.428 -1.981,-6.077 1.733,-10.965 v 0 c 0,0 -14.266,5.716 -19.5,-5.135 v 0 c -2.8,-5.806 0.819,-12.802 7.204,-13.675 v 0 c 1.741,-0.238 3.828,-0.235 6.328,0.115 v 0 c 0,0 -8.472,-6.945 -4.039,-14.019 v 0 c 1.35,-2.154 3.604,-3.565 6.087,-4.111 v 0 c 4.388,-0.964 11.909,-0.865 15.004,9.675 v 0 c 0,0 -1.804,-8.904 6.677,-12.842 v 0 c 5.16,-2.396 11.31,-1.817 15.635,1.879 v 0 c 2.689,2.298 4.83,5.928 3.826,11.548 v 0 c 0,0 4.984,-6.202 11.775,-6.476 v 0 45.39 c -3.109,-0.759 -6.406,-2.555 -9.713,-5.954 v 0 c 0,0 2.193,10.227 -6.458,13.924 v 0 c -1.527,0.653 -3.168,0.977 -4.812,0.978 v 0 c -1.306,0 -2.614,-0.205 -3.868,-0.614" /></clipPath><clipPath
       id="clipPath232"
       clipPathUnits="userSpaceOnUse"><path
         id="path230"
         d="M 0,0 H 481.768 V 728.504 H 0 Z" /></clipPath><clipPath
       id="clipPath252"
       clipPathUnits="userSpaceOnUse"><path
         id="path250"
         d="m 418.196,708.798 c -4.921,-1.605 -11.365,-5.892 -10.735,-17.35 v 0 c 0,0 -2.021,8.941 -11.637,9.945 v 0 c -3.921,0.409 -7.864,-1.328 -9.89,-4.709 v 0 c -1.813,-3.027 -2.468,-7.577 2.162,-13.67 v 0 c 0,0 -17.786,7.126 -24.311,-6.401 v 0 c -3.491,-7.238 1.021,-15.961 8.982,-17.049 v 0 c 2.17,-0.296 4.771,-0.292 7.889,0.143 v 0 c 0,0 -10.563,-8.659 -5.036,-17.477 v 0 c 1.683,-2.685 4.492,-4.444 7.587,-5.124 v 0 c 5.471,-1.201 14.848,-1.08 18.705,12.062 v 0 c 0,0 -2.248,-11.101 8.325,-16.01 v 0 c 6.431,-2.986 14.1,-2.265 19.491,2.342 v 0 c 3.353,2.865 6.022,7.39 4.771,14.397 v 0 c 0,0 7.057,-8.784 16.379,-8.04 v 0 c 6.242,0.498 11.195,5.771 11.321,12.033 v 0 c 0.072,3.604 -1.363,7.623 -6.768,10.411 v 0 c 0,0 11.945,-0.088 16.098,10.234 v 0 c 4.204,10.449 -2.729,21.944 -13.792,24.059 v 0 c -6.013,1.148 -13.322,-0.056 -20.668,-7.607 v 0 c 0,0 2.733,12.749 -8.051,17.358 v 0 c -1.903,0.813 -3.949,1.218 -5.998,1.218 v 0 c -1.629,0 -3.26,-0.256 -4.824,-0.765" /></clipPath><clipPath
       id="clipPath300"
       clipPathUnits="userSpaceOnUse"><path
         id="path298"
         d="M 0,0 H 481.768 V 728.504 H 0 Z" /></clipPath></defs><g
     transform="matrix(1.3333333,0,0,-1.3333333,0,971.33867)"
     id="g10"><path
       id="path12"
       style="fill:#f59c1d;fill-opacity:1;fill-rule:nonzero;stroke:none"
       d="M 0,0 H 481.89 V 728.504 H 0 Z" /><g
       id="g14"><g
         clip-path="url(#clipPath20)"
         id="g16"><g
           transform="translate(442.6466,677.5068)"
           id="g22"><path
             id="path24"
             style="fill:#ffffff;fill-opacity:1;fill-rule:nonzero;stroke:none"
             d="m 0,0 v -626.515 c 0,-8.308 -6.249,-15.043 -13.956,-15.043 h -375.491 c -7.708,0 -13.957,6.735 -13.957,15.043 V 0 c 0,8.308 6.249,15.043 13.957,15.043 H -13.956 C -6.249,15.043 0,8.308 0,0" /></g><g
           transform="translate(50.4066,548.8369)"
           id="g26"><path
             id="path28"
             style="fill:#faddea;fill-opacity:1;fill-rule:nonzero;stroke:none"
             d="M 0,0 -2.885,2.874 0,5.759 c 2.138,2.138 2.138,5.873 0,8.021 -1.069,1.069 -2.501,1.66 -4.016,1.66 -1.504,0 -2.936,-0.591 -4.005,-1.66 l -2.874,-2.884 -2.885,2.884 c -1.069,1.069 -2.501,1.66 -4.005,1.66 -1.515,0 -2.947,-0.591 -4.016,-1.66 -1.069,-1.069 -1.66,-2.501 -1.66,-4.016 0,-1.515 0.591,-2.936 1.66,-4.005 L -18.916,2.874 -21.801,0 c -2.21,-2.21 -2.21,-5.811 0,-8.021 2.21,-2.21 5.811,-2.21 8.021,0 l 2.885,2.885 2.874,-2.885 c 2.21,-2.21 5.811,-2.21 8.021,0 2.21,2.21 2.21,5.811 0,8.021" /></g><g
           transform="translate(46.3909,564.2772)"
           id="g30"><path
             id="path32"
             style="fill:#0d0f10;fill-opacity:1;fill-rule:nonzero;stroke:none"
             d="M 0,0 C -1.505,0 -2.937,-0.591 -4.005,-1.66 L -6.88,-4.545 -9.764,-1.66 C -10.833,-0.591 -12.265,0 -13.77,0 c -1.515,0 -2.947,-0.591 -4.016,-1.66 -1.068,-1.069 -1.66,-2.501 -1.66,-4.016 0,-1.515 0.592,-2.937 1.66,-4.005 l 2.885,-2.885 -2.885,-2.874 c -2.21,-2.211 -2.21,-5.811 0.001,-8.021 1.105,-1.106 2.557,-1.658 4.01,-1.658 1.453,0 2.906,0.552 4.011,1.658 l 2.884,2.884 2.875,-2.884 c 1.105,-1.106 2.557,-1.658 4.01,-1.658 1.453,0 2.906,0.552 4.011,1.658 2.21,2.21 2.21,5.81 0,8.021 l -2.885,2.874 2.885,2.885 c 2.137,2.137 2.137,5.873 0,8.021 C 2.947,-0.591 1.515,0 0,0 m 0,-1.791 c 1.041,0 2.017,-0.403 2.746,-1.132 1.435,-1.442 1.436,-4.059 0.003,-5.492 l -2.884,-2.885 -1.269,-1.268 1.271,-1.266 2.883,-2.872 c 0.73,-0.731 1.133,-1.706 1.133,-2.745 0,-1.039 -0.403,-2.014 -1.134,-2.744 -0.73,-0.731 -1.705,-1.134 -2.744,-1.134 -1.039,0 -2.014,0.403 -2.742,1.131 l -2.874,2.885 -1.266,1.271 -1.269,-1.269 -2.885,-2.884 c -0.73,-0.731 -1.705,-1.134 -2.744,-1.134 -1.039,0 -2.014,0.403 -2.744,1.134 -1.514,1.513 -1.514,3.975 -0.003,5.486 l 2.885,2.875 1.271,1.266 -1.269,1.268 -2.884,2.885 c -0.733,0.732 -1.136,1.705 -1.136,2.739 0,1.041 0.403,2.017 1.136,2.75 0.732,0.732 1.708,1.135 2.749,1.135 1.034,0 2.007,-0.403 2.739,-1.135 l 2.885,-2.885 1.269,-1.268 1.266,1.27 2.872,2.883 c 0.732,0.732 1.705,1.135 2.739,1.135" /></g><g
           transform="translate(50.4067,502.9604)"
           id="g34"><path
             id="path36"
             style="fill:#faddea;fill-opacity:1;fill-rule:nonzero;stroke:none"
             d="M 0,0 -2.885,2.874 0,5.759 c 2.138,2.138 2.138,5.873 0,8.021 -1.069,1.069 -2.501,1.66 -4.016,1.66 -1.504,0 -2.936,-0.591 -4.005,-1.66 l -2.874,-2.885 -2.885,2.885 c -1.069,1.069 -2.501,1.66 -4.005,1.66 -1.515,0 -2.947,-0.591 -4.016,-1.66 -1.069,-1.069 -1.66,-2.501 -1.66,-4.016 0,-1.515 0.591,-2.936 1.66,-4.005 L -18.917,2.874 -21.801,0 c -2.21,-2.21 -2.21,-5.811 0,-8.021 2.21,-2.21 5.811,-2.21 8.021,0 l 2.885,2.885 2.874,-2.885 c 2.21,-2.21 5.811,-2.21 8.021,0 2.21,2.21 2.21,5.811 0,8.021" /></g><g
           transform="translate(46.3909,518.4007)"
           id="g38"><path
             id="path40"
             style="fill:#0d0f10;fill-opacity:1;fill-rule:nonzero;stroke:none"
             d="M 0,0 C -1.505,0 -2.937,-0.591 -4.005,-1.66 L -6.88,-4.545 -9.764,-1.66 C -10.833,-0.591 -12.265,0 -13.77,0 c -1.515,0 -2.947,-0.591 -4.015,-1.66 -1.069,-1.069 -1.661,-2.501 -1.661,-4.016 0,-1.515 0.592,-2.937 1.661,-4.005 l 2.884,-2.885 -2.884,-2.874 c -2.211,-2.211 -2.211,-5.811 0,-8.021 1.105,-1.105 2.558,-1.658 4.01,-1.658 1.453,0 2.905,0.552 4.011,1.658 l 2.884,2.884 2.875,-2.884 c 1.105,-1.105 2.557,-1.658 4.01,-1.658 1.453,0 2.906,0.553 4.011,1.658 2.21,2.21 2.21,5.81 0,8.021 l -2.885,2.874 2.885,2.885 c 2.137,2.137 2.137,5.873 0,8.021 C 2.947,-0.591 1.515,0 0,0 m 0,-1.791 c 1.041,0 2.017,-0.403 2.747,-1.132 1.434,-1.442 1.435,-4.059 0.002,-5.492 l -2.884,-2.885 -1.269,-1.268 1.271,-1.266 2.883,-2.872 c 1.513,-1.514 1.513,-3.976 0,-5.489 -0.731,-0.731 -1.706,-1.133 -2.745,-1.133 -1.039,0 -2.013,0.402 -2.742,1.13 l -2.874,2.885 -1.266,1.271 -1.269,-1.269 -2.885,-2.884 c -0.73,-0.731 -1.705,-1.133 -2.744,-1.133 -1.039,0 -2.014,0.402 -2.744,1.133 -0.731,0.73 -1.134,1.705 -1.134,2.744 0,1.039 0.403,2.014 1.131,2.742 l 2.885,2.875 1.271,1.266 -1.269,1.268 -2.884,2.885 c -0.733,0.732 -1.136,1.705 -1.136,2.739 0,1.041 0.403,2.017 1.136,2.75 0.732,0.732 1.709,1.135 2.749,1.135 1.034,0 2.007,-0.403 2.739,-1.135 l 2.885,-2.885 1.269,-1.268 1.266,1.27 2.872,2.883 c 0.732,0.732 1.705,1.135 2.739,1.135" /></g><g
           transform="translate(50.4066,594.7135)"
           id="g42"><path
             id="path44"
             style="fill:#faddea;fill-opacity:1;fill-rule:nonzero;stroke:none"
             d="M 0,0 -2.885,2.874 0,5.759 c 2.138,2.138 2.138,5.873 0,8.021 -1.069,1.069 -2.501,1.66 -4.016,1.66 -1.504,0 -2.936,-0.591 -4.005,-1.66 l -2.874,-2.885 -2.885,2.885 c -1.069,1.069 -2.501,1.66 -4.005,1.66 -1.515,0 -2.947,-0.591 -4.016,-1.66 -1.069,-1.069 -1.66,-2.501 -1.66,-4.016 0,-1.515 0.591,-2.936 1.66,-4.005 L -18.916,2.874 -21.801,0 c -2.21,-2.21 -2.21,-5.811 0,-8.021 2.21,-2.21 5.811,-2.21 8.021,0 l 2.885,2.885 2.874,-2.885 c 2.21,-2.21 5.811,-2.21 8.021,0 2.21,2.21 2.21,5.811 0,8.021" /></g><g
           transform="translate(46.3909,610.1537)"
           id="g46"><path
             id="path48"
             style="fill:#0d0f10;fill-opacity:1;fill-rule:nonzero;stroke:none"
             d="M 0,0 C -1.505,0 -2.937,-0.591 -4.005,-1.66 L -6.88,-4.545 -9.764,-1.66 C -10.833,-0.591 -12.265,0 -13.77,0 c -1.515,0 -2.947,-0.591 -4.016,-1.66 -1.068,-1.069 -1.66,-2.501 -1.66,-4.016 0,-1.515 0.592,-2.936 1.66,-4.005 l 2.885,-2.885 -2.885,-2.874 c -2.21,-2.211 -2.21,-5.811 0.001,-8.021 1.105,-1.106 2.557,-1.658 4.01,-1.658 1.453,0 2.906,0.552 4.011,1.658 l 2.884,2.884 2.875,-2.884 c 1.105,-1.106 2.557,-1.658 4.01,-1.658 1.453,0 2.906,0.552 4.011,1.658 2.21,2.21 2.21,5.81 0,8.021 l -2.885,2.874 2.885,2.885 c 2.137,2.137 2.137,5.873 0,8.021 C 2.947,-0.591 1.515,0 0,0 m 0,-1.791 c 1.041,0 2.017,-0.403 2.746,-1.132 1.435,-1.442 1.436,-4.059 0.003,-5.492 l -2.884,-2.885 -1.269,-1.268 1.271,-1.266 2.883,-2.872 c 0.73,-0.731 1.133,-1.706 1.133,-2.745 0,-1.039 -0.403,-2.014 -1.134,-2.744 -0.73,-0.731 -1.705,-1.134 -2.744,-1.134 -1.039,0 -2.014,0.403 -2.742,1.131 l -2.874,2.885 -1.266,1.271 -1.269,-1.269 -2.885,-2.884 c -0.73,-0.731 -1.705,-1.134 -2.744,-1.134 -1.039,0 -2.014,0.403 -2.744,1.134 -1.514,1.513 -1.514,3.975 -0.003,5.486 l 2.885,2.875 1.271,1.266 -1.269,1.268 -2.884,2.885 c -0.733,0.732 -1.136,1.705 -1.136,2.739 0,1.041 0.403,2.017 1.136,2.75 0.732,0.732 1.709,1.135 2.749,1.135 1.034,0 2.007,-0.403 2.739,-1.135 l 2.885,-2.885 1.269,-1.268 1.266,1.27 2.872,2.883 c 0.732,0.732 1.705,1.135 2.739,1.135" /></g></g></g><g
       id="g50"><g
         clip-path="url(#clipPath56)"
         id="g52"><g
           transform="translate(112.5205,109.7514)"
           id="g58"><path
             id="path60"
             style="fill:#faddea;fill-opacity:1;fill-rule:nonzero;stroke:none"
             d="m 0,0 c 2.295,-15.735 16.016,-29.079 31.808,-30.936 12.256,-1.441 24.429,3.411 35.009,9.763 10.58,6.353 20.195,14.283 31.126,20.009 17.233,9.028 37.478,12.181 56.641,8.821 19.163,-3.359 37.128,-13.212 50.262,-27.565 9.717,10.895 27.225,14.271 40.115,7.418 12.891,-6.853 20.04,-23.01 16.443,-37.159 14.602,8.094 33.404,8.788 48.364,1.376 -6.896,9.164 -7.223,22.392 -0.906,31.964 6.317,9.572 18.923,14.508 30.061,11.771 -5.719,10.91 -4.533,24.765 3.637,33.984 8.17,9.219 22.219,12.683 33.738,8.319 V -123.907 H 115.511 c 1.99,10.873 8.595,20.824 17.843,26.879 9.248,6.056 20.385,8.261 31.147,5.737 -6.141,3.72 -8.515,11.73 -7.74,18.867 0.814,7.502 4.614,14.638 10.384,19.502 5.77,4.863 14.916,7.901 22.448,7.434 C 144.86,2.449 107.194,-39.926 72.999,-59.192 37.723,-79.066 -14.36,-71.127 -33.87,-20.72 Z" /></g><g
           transform="translate(478.3678,151.3437)"
           id="g62"><path
             id="path64"
             style="fill:#0d0f10;fill-opacity:1;fill-rule:nonzero;stroke:none"
             d="m 0,0 c -9.478,0 -18.73,-4.056 -24.75,-10.849 -7.783,-8.782 -9.806,-21.531 -5.476,-32.73 -0.986,0.102 -1.983,0.154 -2.986,0.154 -10.215,0 -19.95,-5.135 -25.405,-13.4 -5.67,-8.592 -6.345,-19.777 -2.154,-28.948 -5.639,1.982 -11.742,3.015 -17.945,3.015 -8.069,0 -15.969,-1.705 -23.08,-4.959 1.731,14.004 -5.604,28.679 -18.172,35.361 -4.654,2.474 -10.074,3.782 -15.676,3.782 -9.549,0 -18.863,-3.736 -25.343,-10.082 -13.318,13.887 -30.971,23.321 -49.939,26.647 -5.073,0.889 -10.29,1.34 -15.507,1.34 -14.792,0 -29.447,-3.581 -42.379,-10.355 -6.457,-3.383 -12.514,-7.558 -18.373,-11.596 -4.165,-2.871 -8.473,-5.84 -12.852,-8.469 -10.914,-6.554 -20.595,-9.739 -29.597,-9.739 -1.407,0 -2.812,0.081 -4.176,0.242 -14.984,1.761 -27.925,14.347 -30.103,29.276 -0.095,0.65 -0.51,1.209 -1.104,1.488 -0.264,0.123 -0.548,0.185 -0.83,0.185 -0.355,0 -0.709,-0.097 -1.02,-0.288 l -33.87,-20.719 c -0.806,-0.493 -1.144,-1.492 -0.803,-2.374 6.36,-16.432 16.295,-29.177 29.53,-37.882 11.838,-7.786 25.901,-11.902 40.669,-11.902 13.833,0 27.475,3.567 39.452,10.315 6.2,3.493 12.362,7.636 18.886,12.023 17.157,11.536 34.898,23.465 53.854,23.464 13.346,-0.001 25.931,-5.971 38.365,-18.226 -6.913,-0.67 -14.18,-3.581 -19.178,-7.794 -6.164,-5.195 -10.198,-12.771 -11.068,-20.785 -0.668,-6.151 0.779,-11.968 3.823,-16.208 -1.004,0.075 -2.011,0.112 -3.017,0.112 -8.192,0 -16.263,-2.449 -23.34,-7.083 -9.634,-6.308 -16.622,-16.837 -18.695,-28.164 -0.105,-0.57 0.05,-1.158 0.421,-1.603 0.371,-0.446 0.922,-0.703 1.502,-0.703 H 10.451 c 1.08,0 1.955,0.875 1.955,1.954 V -3.828 c 0,0.813 -0.502,1.541 -1.262,1.828 C 7.642,-0.673 3.893,0 0,0 m 0,-1.955 c 3.56,0 7.112,-0.607 10.451,-1.873 V -165.5 h -260.787 c 1.99,10.874 8.595,20.825 17.843,26.88 6.716,4.398 14.428,6.764 22.269,6.764 2.957,0 5.931,-0.336 8.878,-1.027 -6.141,3.72 -8.516,11.73 -7.74,18.867 0.814,7.502 4.614,14.638 10.384,19.501 5.379,4.534 13.693,7.482 20.897,7.482 0.524,0 1.04,-0.016 1.551,-0.048 -15.053,16.131 -29.306,22.035 -42.895,22.036 -26.796,0.001 -51.011,-22.956 -73.7,-35.739 -11.598,-6.535 -25.014,-10.063 -38.492,-10.063 -27.512,0 -55.281,14.701 -68.376,48.535 l 33.87,20.72 c 2.295,-15.735 16.016,-29.079 31.808,-30.936 1.47,-0.173 2.941,-0.255 4.405,-0.255 10.75,0 21.293,4.427 30.604,10.018 10.579,6.352 20.194,14.282 31.125,20.009 12.731,6.669 27.105,10.132 41.472,10.132 5.082,0 10.163,-0.433 15.17,-1.311 19.163,-3.36 37.127,-13.212 50.261,-27.565 6.304,7.067 15.886,10.971 25.358,10.971 5.131,0 10.228,-1.145 14.758,-3.553 12.89,-6.854 20.04,-23.01 16.443,-37.159 7.787,4.316 16.77,6.528 25.727,6.528 7.837,0 15.655,-1.693 22.636,-5.152 -6.895,9.164 -7.222,22.392 -0.905,31.963 5.147,7.8 14.471,12.522 23.773,12.522 2.114,0 4.225,-0.244 6.287,-0.751 -5.718,10.911 -4.532,24.766 3.638,33.985 C -17.486,-5.6 -8.719,-1.955 0,-1.955" /></g><g
           transform="translate(67.2876,111.1241)"
           id="g66"><path
             id="path68"
             style="fill:#f59c1d;fill-opacity:1;fill-rule:nonzero;stroke:none"
             d="m 0,0 c 0,0 -6.845,-16.859 -4.264,-27.943 1.646,-7.072 9.248,-10.628 15.852,-7.607 2.694,1.233 5.4,3.514 6.763,7.714 0,0 2.654,-12.296 11.52,-18.119 9.885,-6.493 22.817,-0.038 24.225,11.705 0.569,4.735 -0.259,10.745 -4.018,18.12 0,0 6.164,-3.646 12.916,-1.933 5.686,1.443 9.205,7.109 8.494,12.933 -0.91,7.457 -6.233,18.568 -27.825,25.744 z" /></g><g
           transform="translate(110.9505,133.6935)"
           id="g70"><path
             id="path72"
             style="fill:#0d0f10;fill-opacity:1;fill-rule:nonzero;stroke:none"
             d="m 0,0 c -0.286,0 -0.571,-0.063 -0.835,-0.187 l -43.663,-20.615 c -0.443,-0.209 -0.792,-0.577 -0.976,-1.032 -0.289,-0.712 -7.047,-17.566 -4.357,-29.121 1.398,-6.006 6.684,-10.201 12.855,-10.201 1.966,0 3.889,0.424 5.714,1.259 2.23,1.02 4.084,2.507 5.501,4.391 1.678,-4.371 4.99,-10.773 10.896,-14.652 2.888,-1.897 6.189,-2.9 9.546,-2.9 8.992,0 16.599,6.881 17.694,16.005 0.551,4.595 -0.191,9.544 -2.208,14.762 1.557,-0.426 3.407,-0.754 5.412,-0.754 1.454,0 2.878,0.174 4.233,0.518 6.521,1.654 10.8,8.131 9.954,15.064 C 28.74,-19.058 22.85,-7.489 0.617,-0.1 0.416,-0.033 0.208,0 0,0 m 0,-1.955 c 21.592,-7.176 26.915,-18.287 27.825,-25.745 0.711,-5.823 -2.808,-11.49 -8.494,-12.932 -1.285,-0.326 -2.548,-0.458 -3.752,-0.458 -5.122,0 -9.164,2.39 -9.164,2.39 3.76,-7.374 4.587,-13.384 4.019,-18.12 -1.025,-8.54 -8.143,-14.283 -15.753,-14.283 -2.854,0 -5.777,0.808 -8.473,2.579 -8.866,5.823 -11.52,18.119 -11.52,18.119 -1.362,-4.2 -4.069,-6.482 -6.763,-7.714 -1.608,-0.736 -3.275,-1.082 -4.901,-1.082 -5.051,0 -9.706,3.338 -10.951,8.689 -2.58,11.084 4.264,27.943 4.264,27.943 z" /></g><g
           transform="translate(102.4552,127.4955)"
           id="g74"><path
             id="path76"
             style="fill:#ffffff;fill-opacity:1;fill-rule:nonzero;stroke:none"
             d="m 0,0 c 0,0 15.782,-4.26 20.457,-13.09 1.933,-3.651 -0.096,-8.122 -4.08,-9.21 -3.517,-0.961 -8.385,-1.261 -13.202,1.794 0,0 5.895,-10.377 5.268,-18.683 -0.6,-7.938 -10.329,-11.166 -15.855,-5.436 -2.846,2.951 -5.657,8.156 -7.262,17.28 0,0 -1.745,-6.497 -6.207,-9.19 -3.736,-2.255 -8.598,0.429 -8.912,4.781 -0.283,3.916 0.823,10.34 6.111,20.573 z" /></g><g
           transform="translate(41.8179,122.8639)"
           id="g78"><path
             id="path80"
             style="fill:#f393b6;fill-opacity:1;fill-rule:nonzero;stroke:none"
             d="m 0,0 3.112,-17.583 c 0,0 52.271,-1.786 80.586,37.96 L 71.2,35.201 C 71.2,35.201 49.609,8.462 0,0" /></g><g
           transform="translate(99.8317,146.2979)"
           id="g82"><path
             id="path84"
             style="fill:none;stroke:#faddea;stroke-width:0.91900003;stroke-linecap:butt;stroke-linejoin:miter;stroke-miterlimit:10;stroke-dasharray:none;stroke-opacity:1"
             d="M 0,0 12.691,-17.341" /></g><g
           transform="translate(82.9058,136.0412)"
           id="g86"><path
             id="path88"
             style="fill:none;stroke:#faddea;stroke-width:0.91900003;stroke-linecap:butt;stroke-linejoin:miter;stroke-miterlimit:10;stroke-dasharray:none;stroke-opacity:1"
             d="M 0,0 9.599,-20.085" /></g><g
           transform="translate(64.3309,128.4148)"
           id="g90"><path
             id="path92"
             style="fill:none;stroke:#faddea;stroke-width:0.91900003;stroke-linecap:butt;stroke-linejoin:miter;stroke-miterlimit:10;stroke-dasharray:none;stroke-opacity:1"
             d="M 0,0 5.026,-20.356" /></g><g
           transform="translate(107.0588,152.1008)"
           id="g94"><path
             id="path96"
             style="fill:none;stroke:#faddea;stroke-width:0.91900003;stroke-linecap:butt;stroke-linejoin:miter;stroke-miterlimit:10;stroke-dasharray:none;stroke-opacity:1"
             d="M 0,0 13.05,-15.65" /></g><g
           transform="translate(91.5741,140.8134)"
           id="g98"><path
             id="path100"
             style="fill:none;stroke:#faddea;stroke-width:0.91900003;stroke-linecap:butt;stroke-linejoin:miter;stroke-miterlimit:10;stroke-dasharray:none;stroke-opacity:1"
             d="M 0,0 10.776,-19.417" /></g><g
           transform="translate(73.6569,131.8471)"
           id="g102"><path
             id="path104"
             style="fill:none;stroke:#faddea;stroke-width:0.91900003;stroke-linecap:butt;stroke-linejoin:miter;stroke-miterlimit:10;stroke-dasharray:none;stroke-opacity:1"
             d="M 0,0 6.693,-20.761" /></g><g
           transform="translate(57.0666,126.2297)"
           id="g106"><path
             id="path108"
             style="fill:none;stroke:#faddea;stroke-width:0.91900003;stroke-linecap:butt;stroke-linejoin:miter;stroke-miterlimit:10;stroke-dasharray:none;stroke-opacity:1"
             d="M 0,0 3.507,-19.732" /></g><g
           transform="translate(49.1767,124.2932)"
           id="g110"><path
             id="path112"
             style="fill:none;stroke:#faddea;stroke-width:0.91900003;stroke-linecap:butt;stroke-linejoin:miter;stroke-miterlimit:10;stroke-dasharray:none;stroke-opacity:1"
             d="M 0,0 3.333,-18.753" /></g><g
           transform="translate(113.0181,160.0197)"
           id="g114"><path
             id="path116"
             style="fill:#0d0f10;fill-opacity:1;fill-rule:nonzero;stroke:none"
             d="m 0,0 c -0.007,0 -0.014,0 -0.021,0 -0.583,-0.006 -1.133,-0.272 -1.499,-0.726 -0.252,-0.309 -21.843,-26.287 -70.009,-34.503 -0.513,-0.087 -0.97,-0.376 -1.27,-0.802 -0.299,-0.425 -0.417,-0.953 -0.326,-1.466 l 3.111,-17.583 c 0.161,-0.908 0.937,-1.581 1.859,-1.613 0,0 0.379,-0.013 1.089,-0.013 3.804,0 17.454,0.389 33.41,5.399 20.477,6.43 36.54,17.665 47.746,33.394 0.518,0.727 0.478,1.712 -0.098,2.394 L 1.495,-0.695 C 1.123,-0.254 0.576,0 0,0 m 0,-1.955 12.498,-14.824 c -25.983,-36.471 -72.134,-37.972 -79.564,-37.972 -0.667,0 -1.023,0.012 -1.023,0.012 L -71.2,-37.156 C -21.592,-28.694 0,-1.955 0,-1.955" /></g><g
           transform="translate(91.1573,204.6911)"
           id="g118"><path
             id="path120"
             style="fill:#a59bcb;fill-opacity:1;fill-rule:nonzero;stroke:none"
             d="m 0,0 c 0,0 1.991,2.751 5.607,5.215 8.097,5.519 19.06,4.117 25.756,-3.038 l 28.199,-30.132 c 2.26,-2.415 2.159,-6.241 -0.301,-8.452 -0.054,-0.048 -0.109,-0.096 -0.164,-0.144 -1.193,-1.035 -2.796,-1.466 -4.367,-1.306 l -27.45,2.804 z" /></g><g
           transform="translate(107.7644,215.2397)"
           id="g122"><path
             id="path124"
             style="fill:#0d0f10;fill-opacity:1;fill-rule:nonzero;stroke:none"
             d="m 0,0 v 0 c -4.348,0 -8.533,-1.286 -12.101,-3.718 -3.854,-2.626 -6,-5.561 -6.09,-5.684 -0.509,-0.705 -0.493,-1.661 0.041,-2.347 L 9.131,-46.802 c 0.327,-0.421 0.813,-0.69 1.344,-0.744 l 27.45,-2.804 c 0.277,-0.028 0.559,-0.043 0.837,-0.043 1.879,0 3.658,0.645 5.009,1.816 l 0.189,0.167 c 1.563,1.404 2.474,3.342 2.565,5.456 0.094,2.155 -0.667,4.21 -2.142,5.787 l -28.2,30.131 C 11.999,-2.564 6.1,0 0,0 m -0.001,-1.955 c 5.428,0 10.827,-2.217 14.757,-6.416 l 28.199,-30.132 c 2.26,-2.415 2.159,-6.242 -0.301,-8.452 -0.054,-0.048 -0.109,-0.097 -0.164,-0.145 -1.032,-0.894 -2.37,-1.338 -3.728,-1.338 -0.213,0 -0.426,0.011 -0.639,0.033 l -27.45,2.804 -27.28,35.052 c 0,0 1.991,2.752 5.607,5.216 3.344,2.279 7.179,3.378 10.999,3.378" /></g><g
           transform="translate(24.1201,170.6387)"
           id="g126"><path
             id="path128"
             style="fill:#a59bcb;fill-opacity:1;fill-rule:nonzero;stroke:none"
             d="m 0,0 -7.861,-1.941 c -10.041,-2.48 -17.289,-11.222 -17.864,-21.548 l -2.094,-37.586 c -0.166,-2.974 2.23,-5.463 5.209,-5.412 v 0 c 1.278,0.023 2.503,0.522 3.433,1.401 l 22.294,21.074 z" /></g><g
           transform="translate(24.1201,172.5937)"
           id="g130"><path
             id="path132"
             style="fill:#0d0f10;fill-opacity:1;fill-rule:nonzero;stroke:none"
             d="M 0,0 C -0.156,0 -0.314,-0.019 -0.469,-0.057 L -8.33,-1.998 c -10.945,-2.703 -18.72,-12.081 -19.347,-23.337 l -2.094,-37.586 c -0.109,-1.964 0.575,-3.832 1.926,-5.26 1.332,-1.409 3.207,-2.216 5.143,-2.216 l 0.126,0.001 c 1.77,0.031 3.454,0.717 4.742,1.934 L 4.46,-47.388 c 0.426,0.402 0.649,0.975 0.607,1.559 L 1.95,-1.817 C 1.909,-1.242 1.617,-0.714 1.15,-0.374 0.813,-0.129 0.409,0 0,0 m 0,-1.955 3.117,-44.012 -22.294,-21.074 c -0.93,-0.879 -2.154,-1.378 -3.433,-1.401 v 0 c -0.031,0 -0.061,0 -0.092,0 -2.936,0 -5.281,2.468 -5.117,5.412 l 2.094,37.586 c 0.575,10.327 7.823,19.069 17.864,21.548 z" /></g><g
           transform="translate(21.9945,120.3082)"
           id="g134"><path
             id="path136"
             style="fill:#f393b6;fill-opacity:1;fill-rule:nonzero;stroke:none"
             d="m 0,0 -1.139,110.609 c -0.062,6.046 2.339,11.972 6.943,15.893 3.15,2.684 7.595,4.841 13.774,4.946 8.347,0.141 16.264,-3.716 21.72,-10.034 L 104.945,47.702 C 104.945,47.702 76.865,-6.232 0,0" /></g><g
           transform="translate(42.018,253.7149)"
           id="g138"><path
             id="path140"
             style="fill:#0d0f10;fill-opacity:1;fill-rule:nonzero;stroke:none"
             d="m 0,0 h -0.001 c -0.159,0 -0.319,-0.001 -0.477,-0.004 -5.86,-0.099 -10.91,-1.92 -15.01,-5.412 -4.919,-4.19 -7.7,-10.533 -7.63,-17.402 l 1.14,-110.609 c 0.01,-1.01 0.789,-1.847 1.796,-1.928 4.155,-0.337 8.3,-0.508 12.321,-0.508 35.54,0 59.32,13.347 73.011,24.543 14.874,12.166 21.241,24.206 21.505,24.713 0.37,0.71 0.269,1.574 -0.254,2.18 L 22.754,-10.715 C 16.874,-3.906 8.58,0 0,0 m -0.001,-1.955 c 8.183,0 15.916,-3.832 21.275,-10.038 l 63.647,-73.712 c 0,0 -25.097,-48.203 -92.782,-48.203 -3.912,0 -7.964,0.161 -12.163,0.501 l -1.139,110.609 c -0.062,6.046 2.34,11.973 6.943,15.894 3.15,2.683 7.596,4.84 13.775,4.945 0.147,0.003 0.296,0.004 0.444,0.004" /></g><g
           transform="translate(126.9428,168.0142)"
           id="g142"><path
             id="path144"
             style="fill:#ffffff;fill-opacity:1;fill-rule:nonzero;stroke:none"
             d="m 0,0 c 0,0 -28.084,-53.939 -104.944,-47.707 l -0.197,18.924 c 12.777,-0.778 62.834,-0.785 93.213,42.6 z" /></g><g
           transform="translate(115.0147,183.7857)"
           id="g146"><path
             id="path148"
             style="fill:#0d0f10;fill-opacity:1;fill-rule:nonzero;stroke:none"
             d="m 0,0 c -0.033,0 -0.066,-0.001 -0.099,-0.003 -0.602,-0.03 -1.157,-0.337 -1.503,-0.831 -11.399,-16.28 -26.824,-28.062 -45.846,-35.018 -15.64,-5.72 -30.257,-6.921 -39.765,-6.921 -2.054,0 -4.033,0.057 -5.881,0.17 -0.04,0.002 -0.079,0.004 -0.119,0.004 -0.5,0 -0.983,-0.192 -1.347,-0.539 -0.393,-0.374 -0.613,-0.894 -0.608,-1.437 l 0.198,-18.924 c 0.01,-1.01 0.789,-1.846 1.797,-1.928 4.154,-0.337 8.298,-0.507 12.318,-0.507 35.538,0 59.319,13.348 73.01,24.545 14.875,12.167 21.243,24.208 21.507,24.715 0.37,0.71 0.269,1.574 -0.254,2.18 L 1.48,-0.677 C 1.107,-0.246 0.566,0 0,0 m 0,-1.955 11.928,-13.816 c 0,0 -25.102,-48.208 -92.783,-48.208 -3.911,0 -7.962,0.16 -12.16,0.501 l -0.198,18.924 c 1.51,-0.092 3.544,-0.173 6,-0.173 18.336,0 60.424,4.514 87.213,42.772" /></g><g
           transform="translate(77.3851,199.6331)"
           id="g150"><path
             id="path152"
             style="fill:#ffffff;fill-opacity:1;fill-rule:nonzero;stroke:none"
             d="m 0,0 c 2.892,-11.711 -4.258,-23.55 -15.969,-26.441 -11.712,-2.892 -23.55,4.257 -26.442,15.969 -2.892,11.711 4.258,23.549 15.97,26.441 C -14.73,18.861 -2.892,11.711 0,0" /></g><g
           transform="translate(56.1987,218.1993)"
           id="g154"><path
             id="path156"
             style="fill:#0d0f10;fill-opacity:1;fill-rule:nonzero;stroke:none"
             d="M 0,0 V -1.955 L -0.001,0 h -0.001 c -1.919,0 -3.844,-0.235 -5.722,-0.699 -6.171,-1.524 -11.379,-5.36 -14.665,-10.801 -3.287,-5.441 -4.257,-11.836 -2.733,-18.007 2.631,-10.656 12.124,-18.098 23.086,-18.098 1.918,0 3.843,0.236 5.722,0.699 6.171,1.524 11.379,5.36 14.665,10.801 3.287,5.441 4.257,11.836 2.733,18.007 C 20.453,-7.442 10.96,0 0,0 m -0.002,-1.955 c 9.812,0.001 18.73,-6.658 21.188,-16.611 2.892,-11.711 -4.258,-23.55 -15.969,-26.442 -1.758,-0.434 -3.52,-0.642 -5.253,-0.642 -9.812,0 -18.731,6.659 -21.188,16.612 -2.892,11.711 4.257,23.549 15.969,26.441 1.758,0.434 3.52,0.642 5.253,0.642" /></g><g
           transform="translate(72.1611,198.3432)"
           id="g158"><path
             id="path160"
             style="fill:#a59bcb;fill-opacity:1;fill-rule:nonzero;stroke:none"
             d="m 0,0 c 2.179,-8.826 -3.209,-17.748 -12.035,-19.928 -8.826,-2.179 -17.748,3.209 -19.928,12.036 -2.179,8.826 3.209,17.748 12.035,19.927 C -11.101,14.215 -2.179,8.826 0,0" /></g><g
           transform="translate(54.8321,210.8085)"
           id="g162"><path
             id="path164"
             style="fill:#b9b0d7;fill-opacity:1;fill-rule:nonzero;stroke:none"
             d="m 0,0 -8.787,-29.387 c -1.545,1.205 -2.888,2.69 -3.937,4.411 l 7,23.441 c 0.985,0.46 2.031,0.84 3.13,1.111 C -1.725,-0.209 -0.865,-0.065 0,0" /></g><g
           transform="translate(69.5653,203.9771)"
           id="g166"><path
             id="path168"
             style="fill:#b9b0d7;fill-opacity:1;fill-rule:nonzero;stroke:none"
             d="m 0,0 -7.445,-24.934 c -0.643,-0.253 -1.298,-0.456 -1.989,-0.626 -2.224,-0.549 -4.459,-0.613 -6.591,-0.272 L -6.665,5.46 C -4.024,4.268 -1.705,2.4 0,0" /></g><g
           transform="translate(56.1925,210.8622)"
           id="g170"><path
             id="path172"
             style="fill:#0d0f10;fill-opacity:1;fill-rule:nonzero;stroke:none"
             d="m 0,0 c -1.306,0 -2.634,-0.157 -3.959,-0.484 -8.826,-2.179 -14.215,-11.101 -12.035,-19.927 1.852,-7.501 8.574,-12.519 15.968,-12.519 1.307,0 2.634,0.156 3.959,0.483 8.827,2.18 14.215,11.102 12.036,19.928 C 14.116,-5.017 7.395,0.001 0,0 m 0.002,0 v -1.955 c 6.679,0 12.465,-4.537 14.069,-11.033 1.917,-7.765 -2.841,-15.643 -10.606,-17.561 -1.147,-0.283 -2.322,-0.427 -3.491,-0.427 -6.68,0 -12.466,4.537 -14.07,11.033 -1.918,7.766 2.84,15.644 10.606,17.561 1.146,0.283 2.321,0.427 3.49,0.427 z" /></g><g
           transform="translate(432.7717,518.6174)"
           id="g174"><path
             id="path176"
             style="fill:#a59bcb;fill-opacity:1;fill-rule:nonzero;stroke:none"
             d="m 0,0 c 0,0 -14.266,5.716 -19.5,-5.134 -2.801,-5.806 0.818,-12.802 7.204,-13.675 1.741,-0.238 3.827,-0.235 6.328,0.114 0,0 -8.473,-6.945 -4.039,-14.019 1.35,-2.154 3.603,-3.565 6.086,-4.11 4.389,-0.964 11.909,-0.866 15.004,9.675 0,0 -1.804,-8.904 6.677,-12.842 5.16,-2.395 11.311,-1.817 15.635,1.879 2.689,2.298 4.831,5.927 3.827,11.548 0,0 5.661,-7.046 13.138,-6.449 5.007,0.399 8.98,4.63 9.082,9.652 0.058,2.891 -1.094,6.115 -5.429,8.351 0,0 9.582,-0.071 12.912,8.209 3.372,8.382 -2.189,17.603 -11.062,19.299 -4.824,0.921 -10.687,-0.045 -16.58,-6.102 0,0 2.193,10.227 -6.457,13.924 -2.741,1.171 -5.848,1.287 -8.681,0.363 -3.948,-1.287 -9.117,-4.726 -8.611,-13.917 0,0 -1.621,7.172 -9.335,7.977 C 3.054,15.071 -0.109,13.678 -1.734,10.966 -3.188,8.538 -3.714,4.888 0,0" /></g></g></g><g
       id="g178"><g
         clip-path="url(#clipPath184)"
         id="g180"><g
           transform="translate(525.0844,479.0857)"
           id="g186"><path
             id="path188"
             style="fill:none;stroke:#c7bddd;stroke-width:0.514;stroke-linecap:butt;stroke-linejoin:miter;stroke-miterlimit:10;stroke-dasharray:none;stroke-opacity:1"
             d="m 0,0 -6.593,-3.784 c -1.705,-0.978 -3.839,-0.793 -5.35,0.466 l -3.326,2.773 c -1.51,1.259 -3.645,1.444 -5.35,0.466 l -3.756,-2.156 c -1.705,-0.978 -3.839,-0.793 -5.35,0.466 l -3.326,2.773 c -1.51,1.259 -3.644,1.445 -5.35,0.466 l -3.755,-2.156 c -1.706,-0.978 -3.84,-0.792 -5.35,0.466 l -3.327,2.773 c -1.51,1.259 -3.644,1.445 -5.35,0.466 l -3.755,-2.156 c -1.706,-0.978 -3.84,-0.792 -5.35,0.466 l -3.326,2.773 c -1.511,1.259 -3.645,1.445 -5.35,0.466 L -77.72,2.412 c -1.705,-0.978 -3.84,-0.792 -5.35,0.466 l -3.326,2.773 c -1.511,1.259 -3.645,1.445 -5.35,0.466 l -3.756,-2.156 c -1.705,-0.978 -3.839,-0.792 -5.35,0.466 l -3.326,2.773 c -1.511,1.259 -3.645,1.445 -5.35,0.466 l -3.756,-2.156 c -1.705,-0.978 -3.839,-0.792 -5.35,0.466 l -3.326,2.773 c -1.51,1.259 -3.645,1.445 -5.35,0.466 l -3.755,-2.156 c -1.706,-0.978 -3.84,-0.792 -5.35,0.466 l -5.84,4.867" /></g><g
           transform="translate(525.6058,485.071)"
           id="g190"><path
             id="path192"
             style="fill:none;stroke:#c7bddd;stroke-width:0.514;stroke-linecap:butt;stroke-linejoin:miter;stroke-miterlimit:10;stroke-dasharray:none;stroke-opacity:1"
             d="m 0,0 -6.593,-3.784 c -1.705,-0.978 -3.839,-0.793 -5.35,0.466 l -3.326,2.773 c -1.51,1.259 -3.645,1.444 -5.35,0.466 l -3.756,-2.156 c -1.705,-0.978 -3.839,-0.793 -5.349,0.466 l -3.327,2.773 c -1.51,1.259 -3.644,1.445 -5.35,0.466 l -3.755,-2.156 c -1.706,-0.978 -3.84,-0.792 -5.35,0.466 l -3.327,2.773 c -1.51,1.259 -3.644,1.444 -5.35,0.466 l -3.755,-2.156 c -1.705,-0.978 -3.84,-0.793 -5.35,0.466 l -3.326,2.773 c -1.511,1.259 -3.645,1.445 -5.35,0.466 L -77.72,2.412 c -1.705,-0.978 -3.84,-0.792 -5.35,0.466 l -3.326,2.773 c -1.511,1.259 -3.645,1.445 -5.35,0.466 l -3.756,-2.156 c -1.705,-0.978 -3.839,-0.792 -5.35,0.466 l -3.326,2.773 c -1.51,1.259 -3.645,1.445 -5.35,0.466 l -3.756,-2.156 c -1.705,-0.978 -3.839,-0.792 -5.35,0.466 l -3.326,2.773 c -1.51,1.259 -3.645,1.445 -5.35,0.466 l -3.755,-2.156 c -1.706,-0.978 -3.84,-0.792 -5.35,0.466 l -5.84,4.867" /></g><g
           transform="translate(526.1272,491.0563)"
           id="g194"><path
             id="path196"
             style="fill:none;stroke:#c7bddd;stroke-width:0.514;stroke-linecap:butt;stroke-linejoin:miter;stroke-miterlimit:10;stroke-dasharray:none;stroke-opacity:1"
             d="m 0,0 -6.593,-3.784 c -1.705,-0.978 -3.839,-0.793 -5.35,0.466 l -3.326,2.773 c -1.51,1.259 -3.645,1.444 -5.35,0.466 l -3.756,-2.156 c -1.705,-0.979 -3.839,-0.793 -5.35,0.466 l -3.326,2.773 c -1.51,1.259 -3.644,1.444 -5.35,0.466 l -3.755,-2.156 c -1.706,-0.978 -3.84,-0.793 -5.35,0.466 l -3.327,2.773 c -1.51,1.259 -3.644,1.444 -5.35,0.466 l -3.755,-2.156 c -1.706,-0.978 -3.84,-0.793 -5.35,0.466 l -3.326,2.773 c -1.511,1.259 -3.645,1.444 -5.35,0.466 L -77.72,2.412 c -1.705,-0.978 -3.84,-0.793 -5.35,0.466 l -3.326,2.773 c -1.511,1.259 -3.645,1.445 -5.35,0.466 l -3.756,-2.156 c -1.705,-0.978 -3.839,-0.792 -5.35,0.466 l -3.326,2.773 c -1.511,1.259 -3.645,1.445 -5.35,0.466 l -3.756,-2.156 c -1.705,-0.978 -3.839,-0.792 -5.35,0.466 l -3.326,2.773 c -1.51,1.259 -3.645,1.445 -5.35,0.466 l -3.755,-2.156 c -1.706,-0.978 -3.84,-0.792 -5.35,0.466 l -5.84,4.867" /></g><g
           transform="translate(526.6486,497.0415)"
           id="g198"><path
             id="path200"
             style="fill:none;stroke:#c7bddd;stroke-width:0.514;stroke-linecap:butt;stroke-linejoin:miter;stroke-miterlimit:10;stroke-dasharray:none;stroke-opacity:1"
             d="m 0,0 -6.593,-3.784 c -1.705,-0.978 -3.839,-0.793 -5.35,0.466 l -3.326,2.773 c -1.51,1.259 -3.645,1.444 -5.35,0.466 l -3.756,-2.156 c -1.705,-0.978 -3.839,-0.793 -5.349,0.466 l -3.327,2.773 c -1.51,1.259 -3.644,1.444 -5.35,0.466 l -3.755,-2.156 c -1.706,-0.978 -3.84,-0.793 -5.35,0.466 l -3.327,2.773 c -1.51,1.259 -3.644,1.445 -5.35,0.466 l -3.755,-2.156 c -1.705,-0.978 -3.84,-0.792 -5.35,0.466 l -3.326,2.773 c -1.511,1.259 -3.645,1.445 -5.35,0.466 L -77.72,2.412 c -1.705,-0.978 -3.84,-0.792 -5.35,0.466 l -3.326,2.773 c -1.511,1.259 -3.645,1.445 -5.35,0.466 l -3.756,-2.156 c -1.705,-0.978 -3.839,-0.792 -5.35,0.466 l -3.326,2.773 c -1.51,1.259 -3.645,1.445 -5.35,0.466 l -3.756,-2.156 c -1.705,-0.978 -3.839,-0.792 -5.35,0.466 l -3.326,2.773 c -1.51,1.259 -3.645,1.445 -5.35,0.466 l -3.755,-2.156 c -1.706,-0.978 -3.84,-0.792 -5.35,0.466 l -5.84,4.867" /></g><g
           transform="translate(527.17,503.0268)"
           id="g202"><path
             id="path204"
             style="fill:none;stroke:#c7bddd;stroke-width:0.514;stroke-linecap:butt;stroke-linejoin:miter;stroke-miterlimit:10;stroke-dasharray:none;stroke-opacity:1"
             d="m 0,0 -6.593,-3.784 c -1.705,-0.979 -3.839,-0.793 -5.35,0.466 l -3.326,2.773 c -1.51,1.259 -3.645,1.444 -5.35,0.466 l -3.756,-2.156 c -1.705,-0.978 -3.839,-0.793 -5.35,0.466 l -3.326,2.773 c -1.51,1.259 -3.644,1.444 -5.35,0.466 l -3.755,-2.156 c -1.706,-0.978 -3.84,-0.793 -5.35,0.466 l -3.327,2.773 c -1.51,1.259 -3.644,1.444 -5.35,0.466 l -3.755,-2.156 c -1.706,-0.978 -3.84,-0.793 -5.35,0.466 l -3.326,2.773 c -1.511,1.259 -3.645,1.445 -5.35,0.466 L -77.72,2.412 c -1.705,-0.978 -3.84,-0.793 -5.35,0.466 l -3.326,2.773 c -1.511,1.259 -3.645,1.445 -5.35,0.466 l -3.756,-2.156 c -1.705,-0.978 -3.839,-0.792 -5.35,0.466 l -3.326,2.773 c -1.511,1.259 -3.645,1.445 -5.35,0.466 l -3.756,-2.156 c -1.705,-0.978 -3.839,-0.792 -5.35,0.466 l -3.326,2.773 c -1.51,1.259 -3.645,1.445 -5.35,0.466 l -3.755,-2.156 c -1.706,-0.978 -3.84,-0.792 -5.35,0.466 l -5.84,4.867" /></g><g
           transform="translate(527.6913,509.0121)"
           id="g206"><path
             id="path208"
             style="fill:none;stroke:#c7bddd;stroke-width:0.514;stroke-linecap:butt;stroke-linejoin:miter;stroke-miterlimit:10;stroke-dasharray:none;stroke-opacity:1"
             d="m 0,0 -6.593,-3.784 c -1.705,-0.979 -3.839,-0.793 -5.35,0.466 l -3.326,2.773 c -1.51,1.259 -3.645,1.444 -5.35,0.466 l -3.756,-2.156 c -1.705,-0.978 -3.839,-0.793 -5.349,0.466 l -3.327,2.773 c -1.51,1.259 -3.644,1.444 -5.35,0.466 l -3.755,-2.156 c -1.706,-0.978 -3.84,-0.793 -5.35,0.466 l -3.327,2.773 c -1.51,1.259 -3.644,1.444 -5.35,0.466 l -3.755,-2.156 c -1.705,-0.978 -3.84,-0.792 -5.35,0.466 l -3.326,2.773 c -1.511,1.259 -3.645,1.445 -5.35,0.466 L -77.72,2.412 c -1.705,-0.978 -3.84,-0.792 -5.35,0.466 l -3.326,2.773 c -1.511,1.259 -3.645,1.445 -5.35,0.466 l -3.756,-2.156 c -1.705,-0.978 -3.839,-0.792 -5.35,0.466 l -3.326,2.773 c -1.51,1.259 -3.645,1.445 -5.35,0.466 l -3.756,-2.156 c -1.705,-0.978 -3.839,-0.792 -5.35,0.466 l -3.326,2.773 c -1.51,1.259 -3.645,1.445 -5.35,0.466 l -3.755,-2.156 c -1.706,-0.978 -3.84,-0.792 -5.35,0.466 l -5.84,4.867" /></g><g
           transform="translate(528.2127,514.9974)"
           id="g210"><path
             id="path212"
             style="fill:none;stroke:#c7bddd;stroke-width:0.514;stroke-linecap:butt;stroke-linejoin:miter;stroke-miterlimit:10;stroke-dasharray:none;stroke-opacity:1"
             d="m 0,0 -6.593,-3.784 c -1.705,-0.979 -3.839,-0.793 -5.35,0.466 l -3.326,2.773 c -1.51,1.259 -3.645,1.444 -5.35,0.466 l -3.756,-2.156 c -1.705,-0.978 -3.839,-0.793 -5.349,0.466 l -3.327,2.773 c -1.51,1.259 -3.644,1.444 -5.35,0.466 l -3.755,-2.156 c -1.706,-0.978 -3.84,-0.793 -5.35,0.466 l -3.327,2.773 c -1.51,1.259 -3.644,1.444 -5.35,0.466 l -3.755,-2.156 c -1.705,-0.978 -3.84,-0.793 -5.35,0.466 l -3.326,2.773 c -1.511,1.259 -3.645,1.445 -5.35,0.466 L -77.72,2.412 c -1.705,-0.978 -3.84,-0.792 -5.35,0.466 l -3.326,2.773 c -1.511,1.259 -3.645,1.445 -5.35,0.466 l -3.756,-2.156 c -1.705,-0.978 -3.839,-0.792 -5.35,0.466 l -3.326,2.773 c -1.51,1.259 -3.645,1.445 -5.35,0.466 l -3.756,-2.156 c -1.705,-0.978 -3.839,-0.792 -5.35,0.466 l -3.326,2.773 c -1.51,1.259 -3.645,1.445 -5.35,0.466 l -3.755,-2.156 c -1.706,-0.978 -3.84,-0.792 -5.35,0.466 l -5.84,4.867" /></g><g
           transform="translate(528.7341,520.9827)"
           id="g214"><path
             id="path216"
             style="fill:none;stroke:#c7bddd;stroke-width:0.514;stroke-linecap:butt;stroke-linejoin:miter;stroke-miterlimit:10;stroke-dasharray:none;stroke-opacity:1"
             d="m 0,0 -6.593,-3.784 c -1.705,-0.979 -3.839,-0.793 -5.35,0.466 l -3.326,2.773 c -1.51,1.259 -3.645,1.444 -5.35,0.466 l -3.756,-2.156 c -1.705,-0.979 -3.839,-0.793 -5.349,0.466 l -3.327,2.773 c -1.51,1.259 -3.644,1.444 -5.35,0.466 l -3.755,-2.156 c -1.706,-0.978 -3.84,-0.793 -5.35,0.466 l -3.327,2.773 c -1.51,1.259 -3.644,1.444 -5.35,0.466 l -3.755,-2.156 c -1.706,-0.978 -3.84,-0.793 -5.35,0.466 l -3.326,2.773 c -1.511,1.259 -3.645,1.445 -5.35,0.466 L -77.72,2.412 c -1.705,-0.978 -3.84,-0.792 -5.35,0.466 l -3.326,2.773 c -1.511,1.259 -3.645,1.445 -5.35,0.466 l -3.756,-2.156 c -1.705,-0.978 -3.839,-0.792 -5.35,0.466 l -3.326,2.773 c -1.51,1.259 -3.645,1.445 -5.35,0.466 l -3.756,-2.156 c -1.705,-0.978 -3.839,-0.792 -5.35,0.466 l -3.326,2.773 c -1.51,1.259 -3.645,1.445 -5.35,0.466 l -3.755,-2.156 c -1.706,-0.978 -3.84,-0.792 -5.35,0.466 l -5.84,4.867" /></g><g
           transform="translate(529.2555,526.968)"
           id="g218"><path
             id="path220"
             style="fill:none;stroke:#c7bddd;stroke-width:0.514;stroke-linecap:butt;stroke-linejoin:miter;stroke-miterlimit:10;stroke-dasharray:none;stroke-opacity:1"
             d="m 0,0 -6.593,-3.784 c -1.705,-0.979 -3.839,-0.793 -5.35,0.466 l -3.326,2.773 c -1.51,1.259 -3.645,1.444 -5.35,0.466 l -3.756,-2.156 c -1.705,-0.979 -3.839,-0.793 -5.349,0.466 l -3.327,2.773 c -1.51,1.259 -3.644,1.444 -5.35,0.466 l -3.755,-2.156 c -1.706,-0.978 -3.84,-0.793 -5.35,0.466 l -3.327,2.773 c -1.51,1.259 -3.644,1.444 -5.35,0.466 l -3.755,-2.156 c -1.705,-0.978 -3.84,-0.793 -5.35,0.466 l -3.326,2.773 c -1.511,1.259 -3.645,1.444 -5.35,0.466 L -77.72,2.412 c -1.705,-0.978 -3.84,-0.793 -5.35,0.466 l -3.326,2.773 c -1.511,1.259 -3.645,1.444 -5.35,0.466 l -3.756,-2.156 c -1.705,-0.978 -3.839,-0.793 -5.35,0.466 l -3.326,2.773 c -1.51,1.259 -3.645,1.445 -5.35,0.466 l -3.756,-2.156 c -1.705,-0.978 -3.839,-0.792 -5.35,0.466 l -3.326,2.773 c -1.51,1.259 -3.645,1.445 -5.35,0.466 l -3.755,-2.156 c -1.706,-0.978 -3.84,-0.792 -5.35,0.466 l -5.84,4.867" /></g><g
           transform="translate(529.7769,532.9532)"
           id="g222"><path
             id="path224"
             style="fill:none;stroke:#c7bddd;stroke-width:0.514;stroke-linecap:butt;stroke-linejoin:miter;stroke-miterlimit:10;stroke-dasharray:none;stroke-opacity:1"
             d="m 0,0 -6.593,-3.784 c -1.705,-0.979 -3.839,-0.793 -5.35,0.466 l -3.326,2.773 c -1.51,1.259 -3.645,1.444 -5.35,0.466 l -3.756,-2.156 c -1.705,-0.978 -3.839,-0.793 -5.349,0.466 l -3.327,2.773 c -1.51,1.259 -3.644,1.444 -5.35,0.466 l -3.755,-2.156 c -1.706,-0.978 -3.84,-0.793 -5.35,0.466 l -3.327,2.773 c -1.51,1.259 -3.644,1.445 -5.35,0.466 l -3.755,-2.156 c -1.706,-0.978 -3.84,-0.792 -5.35,0.466 l -3.326,2.773 c -1.511,1.259 -3.645,1.445 -5.35,0.466 L -77.72,2.412 c -1.705,-0.978 -3.84,-0.792 -5.35,0.466 l -3.326,2.773 c -1.511,1.259 -3.645,1.445 -5.35,0.466 l -3.756,-2.156 c -1.705,-0.978 -3.839,-0.792 -5.35,0.466 l -3.326,2.773 c -1.51,1.259 -3.645,1.445 -5.35,0.466 l -3.756,-2.156 c -1.705,-0.978 -3.839,-0.792 -5.35,0.466 l -3.326,2.773 c -1.51,1.259 -3.645,1.445 -5.35,0.466 l -3.755,-2.156 c -1.706,-0.978 -3.84,-0.792 -5.35,0.466 l -5.84,4.867" /></g></g></g><g
       id="g226"><g
         clip-path="url(#clipPath232)"
         id="g228"><g
           transform="translate(460.7862,541.8694)"
           id="g234"><path
             id="path236"
             style="fill:#0d0f10;fill-opacity:1;fill-rule:nonzero;stroke:none"
             d="M 0,0 V -1.955 0 c -1.523,0 -3.029,-0.239 -4.476,-0.71 -3.072,-1.002 -7.701,-3.492 -9.368,-9.562 -1.768,1.817 -4.301,3.345 -7.769,3.707 -0.368,0.039 -0.742,0.058 -1.112,0.058 -3.602,0 -6.936,-1.829 -8.7,-4.774 -1.217,-2.032 -2.086,-5.04 -0.605,-8.881 -1.235,0.215 -2.636,0.369 -4.104,0.37 h -10e-4 c -6.153,0 -10.697,-2.678 -13.141,-7.745 -1.606,-3.331 -1.515,-7.275 0.244,-10.552 1.75,-3.26 4.833,-5.414 8.457,-5.909 0.629,-0.086 1.289,-0.142 1.97,-0.168 -0.252,-0.358 -0.501,-0.738 -0.739,-1.136 -2.447,-4.1 -2.563,-8.147 -0.334,-11.702 1.581,-2.523 4.182,-4.292 7.323,-4.982 1.293,-0.284 2.572,-0.428 3.8,-0.428 4.966,0 8.222,2.278 10.343,5.033 1.041,-2.888 3.17,-5.795 7.135,-7.635 2.282,-1.06 4.803,-1.62 7.291,-1.62 3.874,0 7.58,1.344 10.437,3.785 2.642,2.258 4.205,5.11 4.637,8.399 2.449,-1.868 5.992,-3.804 10.155,-3.804 0.352,0 0.708,0.014 1.058,0.042 5.98,0.477 10.76,5.556 10.881,11.561 0.042,2.124 -0.462,4.815 -2.6,7.207 3.428,1.006 7.794,3.323 9.943,8.663 1.756,4.368 1.452,9.276 -0.837,13.467 -2.421,4.436 -6.676,7.527 -11.673,8.482 -1.167,0.223 -2.343,0.336 -3.495,0.336 -3.983,0 -7.775,-1.31 -11.319,-3.901 -0.042,0.47 -0.104,0.958 -0.192,1.458 -0.818,4.632 -3.456,8.023 -7.63,9.806 C 3.818,-0.382 1.941,0 0,0 m 0,-1.955 c 1.644,0 3.284,-0.325 4.811,-0.977 8.651,-3.698 6.458,-13.924 6.458,-13.924 4.67,4.8 9.321,6.403 13.451,6.403 1.081,0 2.127,-0.11 3.128,-0.302 8.874,-1.695 14.435,-10.916 11.063,-19.298 -3.275,-8.141 -12.594,-8.209 -12.904,-8.209 -0.006,0 -0.008,0 -0.008,0 4.335,-2.236 5.486,-5.46 5.428,-8.351 -0.101,-5.023 -4.074,-9.253 -9.082,-9.652 -0.304,-0.025 -0.604,-0.036 -0.902,-0.036 -7.025,0 -12.236,6.485 -12.236,6.485 1.004,-5.621 -1.137,-9.25 -3.826,-11.548 -2.6,-2.222 -5.859,-3.317 -9.166,-3.317 -2.195,0 -4.411,0.482 -6.469,1.438 -8.481,3.937 -6.678,12.842 -6.678,12.842 -2.393,-8.152 -7.432,-10.058 -11.623,-10.058 -1.229,0 -2.386,0.164 -3.381,0.383 -2.483,0.545 -4.736,1.956 -6.086,4.11 -4.434,7.074 4.04,14.019 4.04,14.019 -1.377,-0.192 -2.628,-0.28 -3.765,-0.28 -0.928,0 -1.781,0.059 -2.563,0.166 -6.387,0.872 -10.005,7.869 -7.205,13.675 2.549,5.284 7.239,6.639 11.381,6.639 4.364,-0.001 8.12,-1.505 8.12,-1.505 -3.715,4.888 -3.189,8.538 -1.734,10.966 1.468,2.451 4.192,3.824 7.023,3.824 0.303,0 0.606,-0.015 0.909,-0.047 7.714,-0.805 9.335,-7.977 9.335,-7.977 -0.506,9.191 4.663,12.63 8.611,13.917 1.255,0.409 2.563,0.614 3.87,0.614" /></g><g
           transform="translate(435.6776,509.2345)"
           id="g238"><path
             id="path240"
             style="fill:none;stroke:#ffffff;stroke-width:0.91500002;stroke-linecap:round;stroke-linejoin:round;stroke-miterlimit:10;stroke-dasharray:none;stroke-opacity:1"
             d="m 0,0 c 3.621,1.971 8.201,2.066 11.901,0.247 3.7,-1.818 6.422,-5.503 7.074,-9.574 0.235,-1.469 -0.063,-3.377 -1.494,-3.783 -0.975,-0.277 -2.034,0.379 -2.495,1.281 -0.46,0.902 -0.439,1.975 -0.272,2.974 0.535,3.199 2.522,6.125 5.298,7.802 2.776,1.676 6.29,2.074 9.37,1.06 2.485,-0.819 4.805,-2.769 5.172,-5.36 -0.839,-1.013 -2.647,-0.589 -3.339,0.531 -0.691,1.12 -0.517,2.577 -0.065,3.813 1.413,3.858 5.499,6.562 9.602,6.353" /></g><g
           transform="translate(388.0959,683.0132)"
           id="g242"><path
             id="path244"
             style="fill:#a59bcb;fill-opacity:1;fill-rule:nonzero;stroke:none"
             d="m 0,0 c 0,0 -17.785,7.126 -24.31,-6.401 -3.492,-7.237 1.02,-15.96 8.981,-17.048 2.17,-0.296 4.771,-0.293 7.889,0.143 0,0 -10.563,-8.658 -5.036,-17.477 1.684,-2.685 4.492,-4.444 7.588,-5.124 5.471,-1.202 14.847,-1.08 18.705,12.062 0,0 -2.249,-11.101 8.324,-16.01 6.432,-2.986 14.101,-2.265 19.492,2.342 3.352,2.865 6.021,7.389 4.77,14.397 0,0 7.057,-8.784 16.378,-8.04 6.243,0.498 11.196,5.771 11.322,12.033 0.073,3.604 -1.363,7.623 -6.767,10.41 0,0 11.945,-0.087 16.097,10.235 C 87.637,1.97 80.704,13.466 69.641,15.58 63.629,16.729 56.32,15.524 48.973,7.973 c 0,0 2.734,12.75 -8.051,17.359 -3.416,1.46 -7.29,1.604 -10.822,0.452 C 25.178,24.18 18.734,19.893 19.365,8.435 c 0,0 -2.021,8.941 -11.637,9.945 C 3.807,18.789 -0.136,17.052 -2.161,13.671 -3.975,10.644 -4.631,6.094 0,0" /></g></g></g><g
       id="g246"><g
         clip-path="url(#clipPath252)"
         id="g248"><g
           transform="translate(503.1783,633.7307)"
           id="g254"><path
             id="path256"
             style="fill:none;stroke:#c7bddd;stroke-width:0.514;stroke-linecap:butt;stroke-linejoin:miter;stroke-miterlimit:10;stroke-dasharray:none;stroke-opacity:1"
             d="m 0,0 -8.219,-4.717 c -2.126,-1.22 -4.786,-0.988 -6.669,0.581 l -4.147,3.456 c -1.883,1.57 -4.544,1.801 -6.67,0.581 l -4.682,-2.687 c -2.126,-1.22 -4.786,-0.988 -6.669,0.581 l -4.147,3.456 c -1.883,1.57 -4.544,1.801 -6.67,0.581 l -4.682,-2.687 c -2.126,-1.22 -4.786,-0.988 -6.669,0.581 l -4.147,3.456 c -1.883,1.57 -4.544,1.802 -6.669,0.581 l -4.682,-2.687 c -2.126,-1.22 -4.787,-0.988 -6.67,0.581 l -4.147,3.456 c -1.883,1.57 -4.543,1.802 -6.669,0.582 L -96.89,3.007 c -2.126,-1.22 -4.787,-0.988 -6.67,0.581 l -4.147,3.457 c -1.883,1.569 -4.543,1.801 -6.669,0.581 l -4.682,-2.688 c -2.126,-1.22 -4.787,-0.988 -6.67,0.581 l -4.147,3.457 c -1.882,1.569 -4.543,1.801 -6.669,0.581 l -4.682,-2.688 c -2.126,-1.22 -4.787,-0.988 -6.67,0.582 l -4.146,3.456 c -1.883,1.569 -4.544,1.801 -6.67,0.581 l -4.682,-2.687 c -2.126,-1.22 -4.787,-0.989 -6.669,0.581 l -7.28,6.067" /></g><g
           transform="translate(503.8282,641.1923)"
           id="g258"><path
             id="path260"
             style="fill:none;stroke:#c7bddd;stroke-width:0.514;stroke-linecap:butt;stroke-linejoin:miter;stroke-miterlimit:10;stroke-dasharray:none;stroke-opacity:1"
             d="m 0,0 -8.219,-4.717 c -2.126,-1.22 -4.786,-0.988 -6.669,0.581 l -4.147,3.456 c -1.883,1.57 -4.544,1.801 -6.67,0.581 l -4.682,-2.687 c -2.126,-1.22 -4.786,-0.988 -6.669,0.581 l -4.147,3.456 c -1.883,1.57 -4.544,1.801 -6.67,0.581 l -4.682,-2.687 c -2.126,-1.22 -4.786,-0.988 -6.669,0.581 l -4.147,3.456 c -1.883,1.57 -4.544,1.802 -6.669,0.581 l -4.682,-2.687 c -2.126,-1.22 -4.787,-0.988 -6.67,0.581 l -4.147,3.456 c -1.883,1.57 -4.543,1.802 -6.669,0.582 L -96.89,3.007 c -2.126,-1.22 -4.787,-0.988 -6.67,0.581 l -4.147,3.457 c -1.883,1.569 -4.543,1.801 -6.669,0.581 l -4.682,-2.688 c -2.126,-1.22 -4.787,-0.988 -6.67,0.581 l -4.147,3.457 c -1.882,1.569 -4.543,1.801 -6.669,0.581 l -4.682,-2.688 c -2.126,-1.22 -4.787,-0.988 -6.67,0.582 l -4.146,3.456 c -1.883,1.569 -4.544,1.801 -6.67,0.581 l -4.682,-2.687 c -2.126,-1.22 -4.787,-0.989 -6.669,0.581 l -7.28,6.067" /></g><g
           transform="translate(504.4783,648.6539)"
           id="g262"><path
             id="path264"
             style="fill:none;stroke:#c7bddd;stroke-width:0.514;stroke-linecap:butt;stroke-linejoin:miter;stroke-miterlimit:10;stroke-dasharray:none;stroke-opacity:1"
             d="m 0,0 -8.219,-4.717 c -2.126,-1.22 -4.787,-0.988 -6.669,0.581 l -4.147,3.456 c -1.883,1.57 -4.544,1.801 -6.67,0.581 l -4.682,-2.687 c -2.126,-1.22 -4.786,-0.988 -6.669,0.581 l -4.147,3.456 c -1.883,1.57 -4.544,1.801 -6.67,0.581 l -4.682,-2.687 c -2.126,-1.22 -4.786,-0.988 -6.669,0.581 l -4.147,3.456 c -1.883,1.57 -4.544,1.802 -6.67,0.581 l -4.681,-2.687 c -2.126,-1.22 -4.787,-0.988 -6.67,0.581 l -4.147,3.456 c -1.883,1.57 -4.543,1.802 -6.669,0.581 L -96.89,3.007 c -2.126,-1.22 -4.787,-0.988 -6.67,0.581 l -4.147,3.457 c -1.883,1.569 -4.543,1.801 -6.669,0.581 l -4.682,-2.688 c -2.126,-1.22 -4.787,-0.988 -6.67,0.581 l -4.147,3.457 c -1.882,1.569 -4.543,1.801 -6.669,0.581 l -4.682,-2.688 c -2.126,-1.22 -4.787,-0.988 -6.67,0.582 l -4.146,3.456 c -1.883,1.569 -4.544,1.801 -6.67,0.581 l -4.682,-2.687 c -2.126,-1.22 -4.787,-0.989 -6.67,0.581 l -7.279,6.067" /></g><g
           transform="translate(505.1283,656.1154)"
           id="g266"><path
             id="path268"
             style="fill:none;stroke:#c7bddd;stroke-width:0.514;stroke-linecap:butt;stroke-linejoin:miter;stroke-miterlimit:10;stroke-dasharray:none;stroke-opacity:1"
             d="m 0,0 -8.219,-4.717 c -2.126,-1.22 -4.787,-0.988 -6.669,0.581 l -4.147,3.456 c -1.883,1.57 -4.544,1.801 -6.67,0.581 l -4.682,-2.687 c -2.126,-1.22 -4.786,-0.988 -6.669,0.581 l -4.147,3.456 c -1.883,1.57 -4.544,1.801 -6.67,0.581 l -4.682,-2.687 c -2.126,-1.22 -4.786,-0.988 -6.669,0.581 l -4.147,3.456 c -1.883,1.57 -4.544,1.802 -6.67,0.581 l -4.681,-2.687 c -2.126,-1.22 -4.787,-0.988 -6.67,0.581 l -4.147,3.457 c -1.883,1.569 -4.543,1.801 -6.669,0.581 L -96.89,3.007 c -2.126,-1.22 -4.787,-0.988 -6.67,0.581 l -4.147,3.457 c -1.883,1.569 -4.543,1.801 -6.669,0.581 l -4.682,-2.688 c -2.126,-1.22 -4.787,-0.988 -6.67,0.581 l -4.147,3.457 c -1.882,1.569 -4.543,1.801 -6.669,0.581 l -4.682,-2.687 c -2.126,-1.221 -4.787,-0.989 -6.67,0.581 l -4.146,3.456 c -1.883,1.569 -4.544,1.801 -6.67,0.581 l -4.682,-2.687 c -2.126,-1.22 -4.787,-0.989 -6.67,0.581 l -7.279,6.067" /></g><g
           transform="translate(505.7783,663.577)"
           id="g270"><path
             id="path272"
             style="fill:none;stroke:#c7bddd;stroke-width:0.514;stroke-linecap:butt;stroke-linejoin:miter;stroke-miterlimit:10;stroke-dasharray:none;stroke-opacity:1"
             d="m 0,0 -8.219,-4.717 c -2.126,-1.22 -4.787,-0.988 -6.669,0.581 l -4.147,3.456 c -1.883,1.57 -4.544,1.801 -6.67,0.581 l -4.682,-2.687 c -2.126,-1.22 -4.786,-0.988 -6.669,0.581 l -4.147,3.456 c -1.883,1.57 -4.544,1.801 -6.67,0.581 l -4.682,-2.687 c -2.126,-1.22 -4.786,-0.988 -6.669,0.581 l -4.147,3.456 c -1.883,1.57 -4.544,1.802 -6.67,0.581 l -4.681,-2.687 c -2.126,-1.22 -4.787,-0.988 -6.67,0.581 l -4.147,3.457 c -1.883,1.569 -4.543,1.801 -6.669,0.58 L -96.89,3.007 c -2.126,-1.22 -4.787,-0.988 -6.67,0.581 l -4.147,3.457 c -1.883,1.569 -4.543,1.801 -6.669,0.581 l -4.682,-2.688 c -2.126,-1.22 -4.787,-0.988 -6.67,0.581 l -4.147,3.457 c -1.882,1.569 -4.543,1.801 -6.669,0.581 l -4.682,-2.687 c -2.126,-1.221 -4.787,-0.989 -6.67,0.581 l -4.146,3.456 c -1.883,1.569 -4.544,1.801 -6.67,0.581 l -4.682,-2.687 c -2.126,-1.22 -4.787,-0.989 -6.669,0.581 l -7.28,6.067" /></g><g
           transform="translate(506.4283,671.0386)"
           id="g274"><path
             id="path276"
             style="fill:none;stroke:#c7bddd;stroke-width:0.514;stroke-linecap:butt;stroke-linejoin:miter;stroke-miterlimit:10;stroke-dasharray:none;stroke-opacity:1"
             d="m 0,0 -8.219,-4.717 c -2.126,-1.22 -4.786,-0.988 -6.669,0.581 l -4.147,3.456 c -1.883,1.57 -4.544,1.801 -6.67,0.581 l -4.682,-2.687 c -2.126,-1.22 -4.786,-0.988 -6.669,0.581 l -4.147,3.456 c -1.883,1.57 -4.544,1.801 -6.67,0.581 l -4.682,-2.687 c -2.126,-1.22 -4.786,-0.988 -6.669,0.581 l -4.147,3.456 c -1.883,1.57 -4.544,1.802 -6.67,0.581 l -4.681,-2.687 c -2.126,-1.22 -4.787,-0.988 -6.67,0.581 l -4.147,3.456 c -1.883,1.57 -4.543,1.802 -6.669,0.581 L -96.89,3.007 c -2.126,-1.22 -4.787,-0.988 -6.67,0.581 l -4.147,3.457 c -1.883,1.569 -4.543,1.801 -6.669,0.581 l -4.682,-2.688 c -2.126,-1.22 -4.787,-0.988 -6.67,0.581 l -4.147,3.457 c -1.882,1.569 -4.543,1.801 -6.669,0.581 l -4.682,-2.688 c -2.126,-1.22 -4.787,-0.988 -6.67,0.582 l -4.146,3.456 c -1.883,1.569 -4.544,1.801 -6.67,0.581 l -4.682,-2.687 c -2.126,-1.22 -4.787,-0.989 -6.669,0.581 l -7.28,6.067" /></g><g
           transform="translate(507.0782,678.5002)"
           id="g278"><path
             id="path280"
             style="fill:none;stroke:#c7bddd;stroke-width:0.514;stroke-linecap:butt;stroke-linejoin:miter;stroke-miterlimit:10;stroke-dasharray:none;stroke-opacity:1"
             d="m 0,0 -8.219,-4.717 c -2.126,-1.22 -4.786,-0.988 -6.669,0.581 l -4.147,3.456 c -1.883,1.57 -4.544,1.801 -6.67,0.581 l -4.682,-2.687 c -2.126,-1.22 -4.786,-0.988 -6.669,0.581 l -4.147,3.456 c -1.883,1.57 -4.544,1.801 -6.67,0.581 l -4.682,-2.687 c -2.126,-1.22 -4.786,-0.988 -6.669,0.581 l -4.147,3.456 c -1.883,1.57 -4.544,1.802 -6.669,0.581 l -4.682,-2.687 c -2.126,-1.22 -4.787,-0.988 -6.67,0.581 l -4.147,3.456 c -1.883,1.57 -4.543,1.802 -6.669,0.581 L -96.89,3.007 c -2.126,-1.22 -4.787,-0.988 -6.67,0.581 l -4.147,3.457 c -1.883,1.569 -4.543,1.801 -6.669,0.581 l -4.682,-2.688 c -2.126,-1.22 -4.787,-0.988 -6.67,0.581 l -4.147,3.457 c -1.882,1.569 -4.543,1.801 -6.669,0.581 l -4.682,-2.688 c -2.126,-1.22 -4.787,-0.988 -6.67,0.582 l -4.146,3.456 c -1.883,1.569 -4.544,1.801 -6.67,0.581 l -4.682,-2.687 c -2.126,-1.22 -4.787,-0.989 -6.669,0.581 l -7.28,6.067" /></g><g
           transform="translate(507.7282,685.9619)"
           id="g282"><path
             id="path284"
             style="fill:none;stroke:#c7bddd;stroke-width:0.514;stroke-linecap:butt;stroke-linejoin:miter;stroke-miterlimit:10;stroke-dasharray:none;stroke-opacity:1"
             d="m 0,0 -8.219,-4.717 c -2.126,-1.22 -4.786,-0.989 -6.669,0.581 l -4.147,3.456 c -1.883,1.57 -4.544,1.801 -6.67,0.581 l -4.682,-2.687 c -2.126,-1.22 -4.786,-0.988 -6.669,0.581 l -4.147,3.456 c -1.883,1.57 -4.544,1.801 -6.67,0.581 l -4.682,-2.687 c -2.126,-1.22 -4.786,-0.988 -6.669,0.581 l -4.147,3.456 c -1.883,1.57 -4.544,1.802 -6.669,0.581 l -4.682,-2.687 c -2.126,-1.22 -4.787,-0.988 -6.67,0.581 l -4.147,3.456 c -1.883,1.57 -4.543,1.802 -6.669,0.581 L -96.89,3.007 c -2.126,-1.22 -4.787,-0.988 -6.67,0.581 l -4.147,3.457 c -1.883,1.569 -4.543,1.801 -6.669,0.581 l -4.682,-2.688 c -2.126,-1.22 -4.787,-0.988 -6.67,0.581 l -4.147,3.457 c -1.882,1.569 -4.543,1.801 -6.669,0.581 l -4.682,-2.688 c -2.126,-1.22 -4.787,-0.988 -6.67,0.582 l -4.146,3.456 c -1.883,1.569 -4.544,1.801 -6.67,0.581 l -4.682,-2.687 c -2.126,-1.221 -4.787,-0.989 -6.669,0.581 l -7.28,6.067" /></g><g
           transform="translate(508.3782,693.4235)"
           id="g286"><path
             id="path288"
             style="fill:none;stroke:#c7bddd;stroke-width:0.514;stroke-linecap:butt;stroke-linejoin:miter;stroke-miterlimit:10;stroke-dasharray:none;stroke-opacity:1"
             d="m 0,0 -8.219,-4.717 c -2.126,-1.22 -4.786,-0.989 -6.669,0.581 l -4.147,3.456 c -1.883,1.569 -4.544,1.801 -6.67,0.581 l -4.682,-2.687 c -2.126,-1.22 -4.786,-0.988 -6.669,0.581 l -4.147,3.456 c -1.883,1.57 -4.544,1.801 -6.67,0.581 l -4.682,-2.687 c -2.126,-1.22 -4.786,-0.988 -6.669,0.581 l -4.147,3.456 c -1.883,1.57 -4.544,1.802 -6.669,0.581 l -4.682,-2.687 c -2.126,-1.22 -4.787,-0.988 -6.67,0.581 l -4.147,3.456 c -1.883,1.57 -4.543,1.802 -6.669,0.581 L -96.89,3.007 c -2.126,-1.22 -4.787,-0.988 -6.67,0.581 l -4.147,3.456 c -1.883,1.57 -4.543,1.802 -6.669,0.582 l -4.682,-2.688 c -2.126,-1.22 -4.787,-0.988 -6.67,0.581 l -4.147,3.457 c -1.882,1.569 -4.543,1.801 -6.669,0.581 l -4.682,-2.688 c -2.126,-1.22 -4.787,-0.988 -6.67,0.581 l -4.146,3.457 c -1.883,1.569 -4.544,1.801 -6.67,0.581 l -4.682,-2.687 c -2.126,-1.221 -4.787,-0.989 -6.669,0.581 l -7.28,6.067" /></g><g
           transform="translate(509.0282,700.885)"
           id="g290"><path
             id="path292"
             style="fill:none;stroke:#c7bddd;stroke-width:0.514;stroke-linecap:butt;stroke-linejoin:miter;stroke-miterlimit:10;stroke-dasharray:none;stroke-opacity:1"
             d="m 0,0 -8.219,-4.717 c -2.126,-1.22 -4.786,-0.988 -6.669,0.581 l -4.147,3.456 c -1.883,1.57 -4.544,1.801 -6.67,0.581 l -4.682,-2.687 c -2.126,-1.22 -4.786,-0.988 -6.669,0.581 l -4.147,3.456 c -1.883,1.57 -4.544,1.801 -6.67,0.581 l -4.682,-2.687 c -2.126,-1.22 -4.786,-0.988 -6.669,0.581 l -4.147,3.456 c -1.883,1.57 -4.544,1.802 -6.669,0.581 l -4.682,-2.687 c -2.126,-1.22 -4.787,-0.988 -6.67,0.581 l -4.147,3.457 c -1.883,1.569 -4.543,1.801 -6.669,0.58 L -96.89,3.007 c -2.126,-1.22 -4.787,-0.988 -6.67,0.581 l -4.147,3.457 c -1.883,1.569 -4.543,1.801 -6.669,0.581 l -4.682,-2.688 c -2.126,-1.22 -4.787,-0.988 -6.67,0.581 l -4.147,3.457 c -1.882,1.569 -4.543,1.801 -6.669,0.581 l -4.682,-2.687 c -2.126,-1.221 -4.787,-0.989 -6.67,0.581 l -4.146,3.456 c -1.883,1.569 -4.544,1.801 -6.67,0.581 l -4.682,-2.687 c -2.126,-1.22 -4.787,-0.989 -6.669,0.581 l -7.28,6.067" /></g></g></g><g
       id="g294"><g
         clip-path="url(#clipPath300)"
         id="g296"><g
           transform="translate(423.0204,711.5184)"
           id="g302"><path
             id="path304"
             style="fill:#0d0f10;fill-opacity:1;fill-rule:nonzero;stroke:none"
             d="m 0,0 v 0 c -1.848,0 -3.675,-0.29 -5.43,-0.862 -3.864,-1.259 -9.756,-4.463 -11.574,-12.447 -2.15,2.472 -5.388,4.647 -9.99,5.128 -0.442,0.046 -0.891,0.069 -1.336,0.069 -4.322,0 -8.32,-2.191 -10.433,-5.718 -1.54,-2.57 -2.609,-6.452 -0.377,-11.461 -1.714,0.344 -3.75,0.616 -5.906,0.617 -7.473,0 -12.989,-3.244 -15.95,-9.383 -1.936,-4.013 -1.826,-8.767 0.294,-12.716 2.109,-3.927 5.821,-6.522 10.184,-7.118 1.048,-0.143 2.167,-0.218 3.328,-0.224 -0.491,-0.644 -0.985,-1.356 -1.444,-2.126 -2.952,-4.946 -3.098,-9.817 -0.423,-14.085 1.902,-3.035 5.036,-5.164 8.825,-5.996 1.578,-0.346 3.137,-0.522 4.633,-0.522 v 0 c 4.165,0 9.318,1.338 13.077,6.768 1.146,-3.755 3.741,-7.655 8.915,-10.058 2.782,-1.291 5.855,-1.974 8.888,-1.974 4.714,0 9.223,1.635 12.697,4.604 3.422,2.924 5.349,6.674 5.705,11.02 2.993,-2.43 7.585,-5.177 13.049,-5.177 0.427,0 0.857,0.017 1.28,0.051 7.212,0.575 12.975,6.699 13.121,13.942 0.055,2.717 -0.638,6.21 -3.662,9.222 4.262,1.097 10.08,3.845 12.851,10.733 2.137,5.31 1.765,11.279 -1.018,16.377 -2.95,5.403 -8.133,9.168 -14.22,10.331 -1.425,0.272 -2.86,0.41 -4.267,0.41 -5.123,0.001 -9.994,-1.78 -14.531,-5.301 -0.04,0.831 -0.13,1.727 -0.294,2.655 -0.99,5.606 -4.18,9.709 -9.226,11.865 C 4.63,-0.463 2.354,0 0,0 m 0,-1.955 c 2.049,0 4.095,-0.405 5.998,-1.218 10.784,-4.61 8.05,-17.359 8.05,-17.359 5.823,5.984 11.621,7.983 16.769,7.983 1.348,-0.001 2.652,-0.138 3.9,-0.376 11.063,-2.114 17.995,-13.61 13.792,-24.059 -4.083,-10.149 -15.7,-10.234 -16.088,-10.234 -0.006,0 -0.01,0 -0.01,0 5.405,-2.787 6.841,-6.806 6.768,-10.411 -0.126,-6.261 -5.08,-11.534 -11.322,-12.033 -0.379,-0.03 -0.753,-0.044 -1.125,-0.044 -8.757,0 -15.253,8.085 -15.253,8.085 1.251,-7.008 -1.419,-11.533 -4.771,-14.397 -3.241,-2.77 -7.304,-4.135 -11.427,-4.135 -2.736,0 -5.499,0.601 -8.065,1.793 -10.573,4.908 -8.324,16.01 -8.324,16.01 -2.983,-10.163 -9.265,-12.539 -14.491,-12.539 -1.531,0 -2.973,0.204 -4.214,0.477 -3.095,0.679 -5.904,2.439 -7.587,5.124 -5.528,8.818 5.036,17.477 5.036,17.477 -1.717,-0.24 -3.276,-0.349 -4.693,-0.349 -1.158,0 -2.221,0.073 -3.196,0.206 -7.962,1.088 -12.473,9.811 -8.982,17.048 3.178,6.588 9.024,8.277 14.188,8.277 5.44,-10e-4 10.123,-1.876 10.123,-1.876 -4.631,6.093 -3.975,10.644 -2.162,13.671 1.831,3.055 5.226,4.767 8.756,4.767 0.377,0 0.755,-0.019 1.133,-0.059 9.617,-1.003 11.638,-9.944 11.638,-9.944 -0.631,11.458 5.813,15.745 10.735,17.349 1.564,0.51 3.195,0.766 4.824,0.766" /></g><g
           transform="translate(391.7185,671.3159)"
           id="g306"><path
             id="path308"
             style="fill:none;stroke:#ffffff;stroke-width:0.91500002;stroke-linecap:round;stroke-linejoin:round;stroke-miterlimit:10;stroke-dasharray:none;stroke-opacity:1"
             d="m 0,0 c 4.515,2.457 10.224,2.575 14.837,0.308 4.612,-2.267 8.006,-6.86 8.818,-11.935 0.294,-1.832 -0.078,-4.211 -1.862,-4.717 -1.215,-0.345 -2.536,0.473 -3.11,1.597 -0.574,1.125 -0.548,2.463 -0.339,3.708 0.667,3.988 3.144,7.635 6.604,9.726 3.46,2.09 7.842,2.586 11.682,1.321 3.098,-1.02 5.99,-3.451 6.447,-6.681 -1.046,-1.264 -3.3,-0.735 -4.162,0.662 -0.862,1.396 -0.645,3.212 -0.081,4.753 1.76,4.81 6.855,8.18 11.97,7.92" /></g></g></g></g></svg>