<?xml version="1.0" encoding="UTF-8" standalone="no"?>
<!-- Created with Inkscape (http://www.inkscape.org/) -->

<svg
   version="1.1"
   id="svg2"
   width="205.504"
   height="260.66666"
   viewBox="0 0 205.504 260.66666"
   sodipodi:docname="Page26.ai"
   xmlns:inkscape="http://www.inkscape.org/namespaces/inkscape"
   xmlns:sodipodi="http://sodipodi.sourceforge.net/DTD/sodipodi-0.dtd"
   xmlns="http://www.w3.org/2000/svg"
   xmlns:svg="http://www.w3.org/2000/svg">
  <defs
     id="defs6">
    <clipPath
       clipPathUnits="userSpaceOnUse"
       id="clipPath16">
      <path
         d="m 9,195.5 c -4.971,0 -9,-4.03 -9,-9 v 0 V 9 C 0,4.029 4.029,0 9,0 v 0 h 136 c 4.971,0 9,4.029 9,9 v 0 177.5 c 0,4.97 -4.029,9 -9,9 v 0 z"
         id="path14" />
    </clipPath>
    <clipPath
       clipPathUnits="userSpaceOnUse"
       id="clipPath132">
      <path
         d="m 120.935,137.06 h 56.022 v -20.586 h -56.022 z"
         id="path130" />
    </clipPath>
    <clipPath
       clipPathUnits="userSpaceOnUse"
       id="clipPath148">
      <path
         d="M -23.0645,67.5602 H 32.9568 V 46.9735 h -56.0213 z"
         id="path146" />
    </clipPath>
    <clipPath
       clipPathUnits="userSpaceOnUse"
       id="clipPath164">
      <path
         d="M 27.4084,159.099 H 72.8106 V 142.414 H 27.4084 Z"
         id="path162" />
    </clipPath>
    <clipPath
       clipPathUnits="userSpaceOnUse"
       id="clipPath180">
      <path
         d="M 56.5605,97.9352 H 112.582 V 77.3485 H 56.5605 Z"
         id="path178" />
    </clipPath>
    <clipPath
       clipPathUnits="userSpaceOnUse"
       id="clipPath196">
      <path
         d="m 40.0712,27.4845 h 42.418 V 11.8967 h -42.418 z"
         id="path194" />
    </clipPath>
    <clipPath
       clipPathUnits="userSpaceOnUse"
       id="clipPath220">
      <path
         d="M 0,195.5 H 154.128 V 0 H 0 Z"
         id="path218" />
    </clipPath>
  </defs>
  <sodipodi:namedview
     id="namedview4"
     pagecolor="#ffffff"
     bordercolor="#000000"
     borderopacity="0.25"
     inkscape:showpageshadow="2"
     inkscape:pageopacity="0.0"
     inkscape:pagecheckerboard="0"
     inkscape:deskcolor="#d1d1d1" />
  <g
     id="g8"
     inkscape:groupmode="layer"
     inkscape:label="Page26"
     transform="matrix(1.3333333,0,0,-1.3333333,0,260.66667)">
    <g
       id="g10">
      <g
         id="g12"
         clip-path="url(#clipPath16)">
        <g
           id="g18"
           transform="translate(154,9)">
          <path
             d="m 0,0 c 0,-4.971 -4.029,-9 -9,-9 h -136 c -4.971,0 -9,4.029 -9,9 v 177.5 c 0,4.971 4.029,9 9,9 H -9 c 4.971,0 9,-4.029 9,-9 z"
             style="fill:#ffffff;fill-opacity:1;fill-rule:nonzero;stroke:none"
             id="path20" />
        </g>
        <g
           id="g22"
           transform="translate(141.8346,32.5045)">
          <path
             d="m 0,0 c 0,-10.573 -8.572,-19.145 -19.145,-19.145 -10.573,0 -19.145,8.572 -19.145,19.145 0,10.573 8.572,19.145 19.145,19.145 C -8.572,19.145 0,10.573 0,0"
             style="fill:#00aa99;fill-opacity:1;fill-rule:nonzero;stroke:none"
             id="path24" />
        </g>
        <g
           id="g26"
           transform="translate(117.4917,16.7477)">
          <path
             d="m 0,0 c 1.072,1.729 -0.678,2.949 -2.081,4.035 -3.011,2.33 -2.276,6.737 -0.302,9.595 -0.238,0.044 -0.491,0.101 -0.773,0.201 -2.024,0.723 -3.378,1.689 -4.396,3.608 -1.107,2.087 -0.418,4.266 0.461,6.279 0.553,1.267 -2.994,1.283 -3.878,1.257 -0.209,-0.006 -0.408,0.004 -0.602,0.022 -1.513,-2.74 -2.376,-5.889 -2.376,-9.24 0,-8.143 5.086,-15.094 12.254,-17.862 C -1.057,-1.437 -0.464,-0.748 0,0"
             style="fill:#007361;fill-opacity:1;fill-rule:nonzero;stroke:none"
             id="path28" />
        </g>
        <g
           id="g30"
           transform="translate(132.8163,43.3296)">
          <path
             d="m 0,0 c -1.962,-0.128 -3.745,0.119 -5.585,0.814 -1.81,0.683 -3.381,1.769 -5.047,2.723 -1.786,1.022 -2.358,0.511 -4.155,-0.593 -0.243,-0.149 -0.484,-0.264 -0.723,-0.36 1.458,-1.743 2.178,-3.997 1.544,-6.74 -0.042,-0.283 -0.115,-0.556 -0.196,-0.826 0.486,-0.171 0.94,-0.363 1.381,-0.576 4.785,2.187 8.038,0.614 11.828,-2.973 0.202,0.154 0.374,0.348 0.508,0.594 0.789,1.016 1.531,2.011 2.459,2.906 1.647,1.59 3.417,1.993 5.271,2.164 C 6.706,-1.602 5.991,-0.413 5.163,0.686 3.469,0.825 1.634,0.107 0,0"
             style="fill:#007361;fill-opacity:1;fill-rule:nonzero;stroke:none"
             id="path32" />
        </g>
        <g
           id="g34"
           transform="translate(128.2798,14.2083)">
          <path
             d="m 0,0 c 1.685,4.555 6.909,7.874 11.73,10.16 1.164,2.471 1.825,5.224 1.825,8.136 0,0.007 -10e-4,0.014 -10e-4,0.021 C 13.128,18.252 12.773,18.153 12.548,17.996 11.506,17.27 10.945,16.085 10.108,15.167 8.25,13.131 5.8,11.804 2.997,11.868 c -2.232,0.052 -4.228,1.38 -5.676,2.986 -0.329,0.364 -0.539,0.645 -0.709,0.854 -0.014,-0.058 -0.023,-0.115 -0.039,-0.174 -0.395,-1.435 -1.553,-2.189 -2.23,-3.416 -0.075,-0.124 -0.132,-0.256 -0.2,-0.383 C -4.124,10.144 -2.34,7.929 -2.016,5.734 -1.64,3.183 -2.117,1.138 -3.055,-0.676 -2.006,-0.538 -0.988,-0.302 0,0"
             style="fill:#007361;fill-opacity:1;fill-rule:nonzero;stroke:none"
             id="path36" />
        </g>
        <g
           id="g38"
           transform="translate(103.5447,31.0865)">
          <path
             d="m 0,0 h -2.127 c 0,0 -1.489,-19.464 20.315,-20.209 0,0 20.953,-1.914 22.016,20.422 h -2.02 l 0.106,1.205 3.51,0.496 c 0,0 2.872,-22.973 -21.485,-24.675 v -17.656 h -2.553 v 17.549 c 0,0 -21.059,-0.425 -22.761,24.676 L 0,1.418 Z"
             style="fill:#003227;fill-opacity:1;fill-rule:nonzero;stroke:none"
             id="path40" />
        </g>
        <g
           id="g42"
           transform="translate(100.1057,39.1233)">
          <path
             d="M 0,0 C -0.213,0.532 -0.425,1.064 -0.638,1.595 -0.701,1.752 -0.774,1.88 -0.925,1.969 -1.059,2.047 -1.257,2.081 -1.407,2.032 -1.558,1.983 -1.704,1.889 -1.781,1.745 -1.854,1.606 -1.905,1.416 -1.844,1.263 -1.631,0.731 -1.418,0.2 -1.205,-0.332 c 0.062,-0.157 0.136,-0.285 0.287,-0.374 0.134,-0.078 0.331,-0.111 0.481,-0.063 0.152,0.049 0.298,0.143 0.374,0.287 C 0.01,-0.342 0.061,-0.153 0,0"
             style="fill:#003227;fill-opacity:1;fill-rule:nonzero;stroke:none"
             id="path44" />
        </g>
        <g
           id="g46"
           transform="translate(98.5102,44.5477)">
          <path
             d="M 0,0 C -0.113,0.566 -0.224,1.132 -0.319,1.702 -0.343,1.847 -0.484,2.004 -0.606,2.075 -0.74,2.154 -0.938,2.187 -1.088,2.138 -1.239,2.089 -1.385,1.996 -1.461,1.851 -1.544,1.694 -1.554,1.544 -1.524,1.369 -1.429,0.8 -1.319,0.234 -1.205,-0.332 c 0.029,-0.148 0.161,-0.3 0.287,-0.374 0.134,-0.078 0.331,-0.111 0.481,-0.063 C -0.095,-0.658 0.069,-0.344 0,0"
             style="fill:#003227;fill-opacity:1;fill-rule:nonzero;stroke:none"
             id="path48" />
        </g>
        <g
           id="g50"
           transform="translate(99.0854,49.5969)">
          <path
             d="M 0,0 C 0.047,0.07 0.096,0.139 0.148,0.206 0.115,0.164 0.082,0.122 0.05,0.08 0.242,0.327 0.462,0.55 0.709,0.742 0.667,0.709 0.625,0.677 0.583,0.644 0.793,0.805 1.021,0.941 1.264,1.045 1.214,1.024 1.165,1.003 1.115,0.982 1.219,1.026 1.326,1.064 1.435,1.095 1.748,1.187 1.976,1.54 1.871,1.864 1.768,2.183 1.439,2.399 1.102,2.301 0.192,2.035 -0.556,1.41 -1.079,0.631 -1.166,0.501 -1.183,0.296 -1.142,0.149 -1.102,0.004 -0.99,-0.153 -0.855,-0.224 -0.54,-0.391 -0.195,-0.29 0,0"
             style="fill:#003227;fill-opacity:1;fill-rule:nonzero;stroke:none"
             id="path52" />
        </g>
        <g
           id="g54"
           transform="translate(103.3785,51.3305)">
          <path
             d="M 0,0 C 0.101,-0.03 0.201,-0.064 0.298,-0.105 0.249,-0.084 0.199,-0.063 0.149,-0.042 0.378,-0.138 0.592,-0.264 0.79,-0.415 0.748,-0.382 0.706,-0.35 0.664,-0.317 0.882,-0.486 1.075,-0.682 1.245,-0.899 1.213,-0.857 1.18,-0.815 1.148,-0.773 1.253,-0.909 1.348,-1.052 1.435,-1.202 1.598,-1.485 2.007,-1.608 2.29,-1.426 2.576,-1.242 2.689,-0.874 2.514,-0.571 2.031,0.266 1.268,0.933 0.332,1.205 0.019,1.297 -0.362,1.095 -0.437,0.769 -0.513,0.434 -0.336,0.098 0,0"
             style="fill:#003227;fill-opacity:1;fill-rule:nonzero;stroke:none"
             id="path56" />
        </g>
        <g
           id="g58"
           transform="translate(105.1756,47.9513)">
          <path
             d="m 0,0 c -0.031,-0.21 -0.087,-0.414 -0.168,-0.61 0.021,0.049 0.042,0.099 0.063,0.149 -0.078,-0.182 -0.176,-0.352 -0.296,-0.508 l 0.097,0.126 c -0.11,-0.14 -0.235,-0.266 -0.375,-0.376 0.042,0.033 0.084,0.065 0.126,0.098 -0.104,-0.079 -0.213,-0.148 -0.33,-0.207 -0.292,-0.149 -0.399,-0.583 -0.224,-0.855 0.192,-0.299 0.543,-0.383 0.855,-0.225 0.782,0.397 1.33,1.215 1.457,2.076 0.026,0.173 0.029,0.324 -0.063,0.481 C 1.066,0.279 0.918,0.403 0.769,0.437 0.609,0.473 0.429,0.465 0.287,0.374 0.16,0.292 0.023,0.157 0,0"
             style="fill:#003227;fill-opacity:1;fill-rule:nonzero;stroke:none"
             id="path60" />
        </g>
        <g
           id="g62"
           transform="translate(102.3912,46.3126)">
          <path
             d="m 0,0 c -0.061,0.052 -0.119,0.106 -0.174,0.164 -0.023,0.024 -0.046,0.05 -0.068,0.075 -0.014,0.017 -0.029,0.034 -0.043,0.052 0.019,-0.024 0.038,-0.049 0.057,-0.073 -0.099,0.101 -0.171,0.26 -0.231,0.387 -0.007,0.015 -0.014,0.03 -0.021,0.046 -0.026,0.059 -0.019,0.041 0.023,-0.057 -0.008,0.032 -0.025,0.064 -0.036,0.095 -0.025,0.07 -0.047,0.14 -0.066,0.212 -0.042,0.15 -0.071,0.304 -0.093,0.458 0.008,-0.055 0.015,-0.11 0.023,-0.166 -0.026,0.199 -0.038,0.398 -0.039,0.599 -0.001,0.327 -0.286,0.64 -0.625,0.625 -0.337,-0.015 -0.626,-0.275 -0.625,-0.625 0.004,-0.972 0.264,-2.023 1.034,-2.676 0.129,-0.109 0.268,-0.183 0.442,-0.183 0.153,0 0.336,0.068 0.442,0.183 0.214,0.233 0.266,0.658 0,0.884"
             style="fill:#003227;fill-opacity:1;fill-rule:nonzero;stroke:none"
             id="path64" />
        </g>
        <g
           id="g66"
           transform="translate(104.4983,53.308)">
          <path
             d="M 0,0 C 0.362,0.241 0.726,0.484 1.127,0.656 1.078,0.635 1.028,0.614 0.978,0.593 1.178,0.675 1.383,0.737 1.597,0.769 1.542,0.761 1.486,0.754 1.431,0.746 1.522,0.758 1.613,0.765 1.705,0.766 2.032,0.768 2.346,1.051 2.33,1.391 2.315,1.727 2.056,2.019 1.705,2.016 0.825,2.008 0.078,1.552 -0.631,1.079 -0.903,0.898 -1.045,0.519 -0.855,0.224 -0.681,-0.047 -0.291,-0.194 0,0"
             style="fill:#003227;fill-opacity:1;fill-rule:nonzero;stroke:none"
             id="path68" />
        </g>
        <g
           id="g70"
           transform="translate(109.2882,54.0736)">
          <path
             d="m 0,0 c 0.847,-0.104 1.701,-0.106 2.553,-0.106 0.327,0 0.64,0.287 0.625,0.625 C 3.162,0.857 2.903,1.144 2.553,1.144 1.701,1.144 0.847,1.146 0,1.25 -0.148,1.268 -0.342,1.167 -0.442,1.067 -0.55,0.959 -0.632,0.781 -0.625,0.625 -0.618,0.463 -0.565,0.296 -0.442,0.183 -0.312,0.063 -0.174,0.021 0,0"
             style="fill:#003227;fill-opacity:1;fill-rule:nonzero;stroke:none"
             id="path72" />
        </g>
        <g
           id="g74"
           transform="translate(115.9889,54.1799)">
          <path
             d="M 0,0 C 0.427,0.002 0.865,0.059 1.273,0.187 1.714,0.325 2.101,0.536 2.463,0.821 2.58,0.914 2.646,1.122 2.646,1.263 2.646,1.416 2.578,1.6 2.463,1.705 2.344,1.814 2.187,1.896 2.021,1.888 1.845,1.88 1.716,1.814 1.579,1.705 1.571,1.699 1.562,1.692 1.554,1.685 1.596,1.718 1.638,1.75 1.68,1.783 1.498,1.644 1.3,1.531 1.09,1.439 1.14,1.461 1.19,1.482 1.24,1.503 0.956,1.383 0.659,1.306 0.355,1.263 L 0.521,1.285 C 0.348,1.262 0.174,1.251 0,1.25 -0.327,1.249 -0.64,0.964 -0.625,0.625 -0.61,0.288 -0.35,-0.002 0,0"
             style="fill:#003227;fill-opacity:1;fill-rule:nonzero;stroke:none"
             id="path76" />
        </g>
        <g
           id="g78"
           transform="translate(122.0479,56.6052)">
          <path
             d="M 0,0 C 0.774,0.39 1.444,0.996 1.926,1.713 2.013,1.843 2.029,2.048 1.989,2.195 1.949,2.34 1.837,2.497 1.702,2.568 1.386,2.735 1.042,2.634 0.847,2.344 0.798,2.272 0.748,2.202 0.695,2.133 L 0.793,2.259 C 0.556,1.953 0.278,1.68 -0.028,1.442 0.014,1.475 0.056,1.507 0.099,1.54 -0.13,1.364 -0.373,1.209 -0.631,1.079 -0.923,0.932 -1.03,0.496 -0.855,0.224 -0.662,-0.075 -0.313,-0.158 0,0"
             style="fill:#003227;fill-opacity:1;fill-rule:nonzero;stroke:none"
             id="path80" />
        </g>
        <g
           id="g82"
           transform="translate(126.8975,60.1585)">
          <path
             d="M 0,0 C 0.175,0.025 0.35,0.05 0.526,0.074 0.47,0.066 0.415,0.059 0.359,0.051 0.926,0.127 1.495,0.189 2.067,0.19 2.394,0.191 2.708,0.477 2.692,0.815 2.677,1.153 2.418,1.441 2.067,1.44 1.262,1.438 0.463,1.319 -0.332,1.205 -0.476,1.185 -0.636,1.037 -0.706,0.918 -0.784,0.784 -0.817,0.587 -0.769,0.437 -0.72,0.285 -0.626,0.139 -0.482,0.063 -0.323,-0.021 -0.176,-0.025 0,0"
             style="fill:#003227;fill-opacity:1;fill-rule:nonzero;stroke:none"
             id="path84" />
        </g>
        <g
           id="g86"
           transform="translate(131.4149,59.0515)">
          <path
             d="M 0,0 C 0.014,-0.011 0.029,-0.022 0.043,-0.033 0.001,0 -0.042,0.033 -0.084,0.065 0.053,-0.042 0.18,-0.16 0.287,-0.296 L 0.189,-0.17 c 0.084,-0.109 0.152,-0.228 0.206,-0.355 -0.021,0.05 -0.042,0.1 -0.063,0.15 0.057,-0.136 0.096,-0.277 0.125,-0.421 0.03,-0.148 0.161,-0.3 0.288,-0.374 0.133,-0.078 0.331,-0.112 0.481,-0.063 0.151,0.049 0.297,0.143 0.374,0.287 0.081,0.155 0.098,0.31 0.063,0.482 C 1.605,-0.178 1.502,0.111 1.343,0.356 1.254,0.492 1.152,0.623 1.038,0.739 0.914,0.866 0.772,0.973 0.631,1.079 0.51,1.17 0.288,1.18 0.149,1.142 0.004,1.102 -0.153,0.99 -0.224,0.855 -0.301,0.71 -0.339,0.534 -0.287,0.374 -0.266,0.324 -0.245,0.274 -0.224,0.224 -0.169,0.13 -0.094,0.056 0,0"
             style="fill:#003227;fill-opacity:1;fill-rule:nonzero;stroke:none"
             id="path88" />
        </g>
        <g
           id="g90"
           transform="translate(131.0757,55.8851)">
          <path
             d="m 0,0 c -0.053,-0.052 -0.108,-0.1 -0.163,-0.148 -0.083,-0.071 0.122,0.088 0.027,0.021 -0.025,-0.018 -0.05,-0.036 -0.076,-0.053 -0.113,-0.076 -0.232,-0.138 -0.355,-0.196 -0.109,-0.052 0.147,0.055 0.033,0.014 -0.029,-0.011 -0.059,-0.023 -0.089,-0.033 -0.071,-0.025 -0.142,-0.047 -0.215,-0.067 -0.139,-0.037 -0.28,-0.064 -0.422,-0.084 0.055,0.008 0.111,0.015 0.166,0.023 -0.196,-0.026 -0.393,-0.038 -0.591,-0.038 -0.327,-0.002 -0.64,-0.287 -0.625,-0.625 0.015,-0.338 0.274,-0.627 0.625,-0.625 0.939,0.003 1.884,0.252 2.569,0.927 0.233,0.23 0.247,0.657 0,0.884 C 0.633,0.23 0.249,0.245 0,0"
             style="fill:#003227;fill-opacity:1;fill-rule:nonzero;stroke:none"
             id="path92" />
        </g>
        <g
           id="g94"
           transform="translate(128.42,55.8686)">
          <path
             d="M 0,0 C 0.001,0.121 0.008,0.241 0.024,0.361 0.016,0.305 0.009,0.25 0.001,0.195 0.03,0.399 0.081,0.598 0.16,0.788 0.139,0.738 0.118,0.689 0.097,0.639 0.162,0.79 0.243,0.931 0.342,1.062 0.309,1.02 0.277,0.978 0.244,0.936 0.337,1.056 0.443,1.164 0.561,1.26 0.678,1.355 0.745,1.558 0.745,1.702 0.745,1.855 0.676,2.038 0.561,2.144 0.442,2.253 0.286,2.334 0.12,2.327 -0.056,2.319 -0.187,2.254 -0.322,2.144 -0.957,1.628 -1.246,0.799 -1.25,0 -1.251,-0.327 -0.961,-0.64 -0.625,-0.625 -0.285,-0.61 -0.002,-0.35 0,0"
             style="fill:#003227;fill-opacity:1;fill-rule:nonzero;stroke:none"
             id="path96" />
        </g>
        <g
           id="g98"
           transform="translate(133.4919,60.2648)">
          <path
             d="M 0,0 C 0.593,0.15 1.12,0.476 1.552,0.905 1.666,1.018 1.735,1.188 1.735,1.347 1.735,1.5 1.667,1.684 1.552,1.789 1.433,1.898 1.277,1.98 1.11,1.972 0.944,1.965 0.788,1.908 0.668,1.789 0.572,1.693 0.47,1.603 0.363,1.519 0.405,1.551 0.447,1.584 0.489,1.616 0.306,1.476 0.108,1.358 -0.104,1.267 -0.054,1.288 -0.005,1.309 0.045,1.33 -0.078,1.279 -0.203,1.238 -0.332,1.205 -0.483,1.167 -0.628,1.051 -0.706,0.918 -0.784,0.784 -0.817,0.587 -0.769,0.437 -0.663,0.109 -0.34,-0.086 0,0"
             style="fill:#003227;fill-opacity:1;fill-rule:nonzero;stroke:none"
             id="path100" />
        </g>
        <g
           id="g102"
           transform="translate(137.588,62.5729)">
          <path
             d="M 0,0 C 0.017,0.022 0.033,0.044 0.05,0.065 0.017,0.023 -0.015,-0.019 -0.048,-0.061 0.258,0.332 0.614,0.688 1.007,0.994 0.965,0.961 0.922,0.928 0.88,0.896 0.902,0.913 0.924,0.929 0.946,0.946 1.019,0.985 1.077,1.039 1.121,1.107 1.176,1.167 1.214,1.238 1.233,1.319 1.274,1.469 1.256,1.668 1.17,1.801 1.084,1.934 0.956,2.052 0.796,2.088 0.644,2.123 0.446,2.124 0.315,2.025 0.051,1.826 -0.203,1.616 -0.437,1.382 -0.671,1.148 -0.88,0.895 -1.079,0.631 -1.17,0.51 -1.181,0.288 -1.142,0.149 c 0.04,-0.145 0.152,-0.302 0.287,-0.373 0.145,-0.077 0.321,-0.115 0.481,-0.063 0.05,0.021 0.1,0.042 0.15,0.063 C -0.13,-0.169 -0.056,-0.094 0,0"
             style="fill:#003227;fill-opacity:1;fill-rule:nonzero;stroke:none"
             id="path104" />
        </g>
        <g
           id="g106"
           transform="translate(140.6725,66.0828)">
          <path
             d="M 0,0 C 0.243,0.483 0.527,0.949 0.851,1.383 0.942,1.504 0.952,1.725 0.914,1.864 0.874,2.009 0.762,2.166 0.627,2.238 0.482,2.314 0.306,2.353 0.145,2.301 0.095,2.28 0.046,2.259 -0.004,2.238 -0.098,2.182 -0.173,2.107 -0.228,2.014 -0.552,1.58 -0.837,1.114 -1.079,0.631 -1.155,0.48 -1.188,0.316 -1.142,0.149 -1.102,0.004 -0.99,-0.153 -0.855,-0.224 -0.71,-0.301 -0.534,-0.339 -0.374,-0.287 -0.224,-0.239 -0.073,-0.145 0,0"
             style="fill:#003227;fill-opacity:1;fill-rule:nonzero;stroke:none"
             id="path108" />
        </g>
        <g
           id="g110"
           transform="translate(142.6934,69.4864)">
          <path
             d="M 0,0 C 0.245,0.49 0.485,0.992 0.595,1.532 0.629,1.698 0.619,1.864 0.532,2.014 0.456,2.143 0.307,2.267 0.158,2.301 -0.002,2.337 -0.181,2.329 -0.323,2.238 -0.455,2.153 -0.578,2.023 -0.611,1.864 -0.664,1.602 -0.747,1.348 -0.85,1.101 -0.829,1.151 -0.808,1.2 -0.787,1.25 -0.876,1.04 -0.977,0.835 -1.079,0.631 -1.155,0.48 -1.188,0.316 -1.142,0.149 -1.102,0.004 -0.99,-0.153 -0.855,-0.224 -0.71,-0.301 -0.534,-0.339 -0.374,-0.287 -0.224,-0.239 -0.072,-0.145 0,0"
             style="fill:#003227;fill-opacity:1;fill-rule:nonzero;stroke:none"
             id="path112" />
        </g>
        <g
           id="g114"
           transform="translate(144.9261,83.2955)">
          <path
             d="m 0,0 -2.294,-9.039 1.225,-0.213 z"
             style="fill:#a5a4a5;fill-opacity:1;fill-rule:nonzero;stroke:none"
             id="path116" />
        </g>
        <g
           id="g118"
           transform="translate(144.9261,83.2955)">
          <path
             d="m 0,0 -2.294,-9.039 -4.247,0.915 z"
             style="fill:#dcdcdc;fill-opacity:1;fill-rule:nonzero;stroke:none"
             id="path120" />
        </g>
        <g
           id="g122"
           transform="translate(144.9261,83.2955)">
          <path
             d="M 0,0 -1.069,-9.252 3.322,-10.25 Z"
             style="fill:#dcdcdc;fill-opacity:1;fill-rule:nonzero;stroke:none"
             id="path124" />
        </g>
        <g
           id="g126">
          <g
             id="g128" />
          <g
             id="g140">
            <g
               clip-path="url(#clipPath132)"
               opacity="0.300003"
               id="g138">
              <g
                 transform="translate(147.4018,116.5874)"
                 id="g136">
                <path
                   d="m 0,0 c -8.75,0.263 -13.52,0.043 -19.173,1.877 -3.7,0.969 -10.746,4.638 -5.301,7.824 3.377,2.056 8.559,0.75 11.452,-1.173 -1.278,3.832 -4.479,9.028 1.144,10.951 5.607,1.675 8.015,-4.227 10.819,-7.646 0.441,3.229 2.496,8.368 6.519,8.632 4.271,0.25 3.435,-5.461 4.771,-8.294 1.629,2.159 5.431,7.194 8.852,5.741 2.936,-1.174 1.66,-5.857 1.263,-8.339 C 23.165,10.66 28.582,9.09 29.404,6.037 30.624,1.206 24.135,1.588 21.11,1.264 15.341,1.103 9.483,-0.557 0,0"
                   style="fill:#84d4cb;fill-opacity:1;fill-rule:nonzero;stroke:none"
                   id="path134" />
              </g>
            </g>
          </g>
        </g>
        <g
           id="g142">
          <g
             id="g144" />
          <g
             id="g156">
            <g
               clip-path="url(#clipPath148)"
               opacity="0.300003"
               id="g154">
              <g
                 transform="translate(3.4018,47.0874)"
                 id="g152">
                <path
                   d="m 0,0 c -8.75,0.263 -13.52,0.043 -19.173,1.877 -3.7,0.969 -10.746,4.638 -5.301,7.824 3.377,2.056 8.559,0.75 11.452,-1.173 -1.278,3.832 -4.479,9.028 1.144,10.952 5.607,1.674 8.015,-4.228 10.819,-7.647 0.441,3.229 2.496,8.368 6.519,8.632 4.271,0.25 3.435,-5.461 4.771,-8.294 1.629,2.159 5.431,7.194 8.852,5.741 2.936,-1.174 1.66,-5.857 1.263,-8.339 C 23.165,10.66 28.582,9.09 29.404,6.037 30.624,1.206 24.135,1.588 21.11,1.264 15.341,1.102 9.483,-0.557 0,0"
                   style="fill:#84d4cb;fill-opacity:1;fill-rule:nonzero;stroke:none"
                   id="path150" />
              </g>
            </g>
          </g>
        </g>
        <g
           id="g158">
          <g
             id="g160" />
          <g
             id="g172">
            <g
               clip-path="url(#clipPath164)"
               opacity="0.300003"
               id="g170">
              <g
                 transform="translate(48.8579,142.5063)"
                 id="g168">
                <path
                   d="m 0,0 c -7.091,0.213 -10.957,0.035 -15.539,1.521 -2.998,0.786 -8.709,3.759 -4.296,6.341 2.737,1.666 6.937,0.608 9.281,-0.95 -1.035,3.105 -3.63,7.317 0.927,8.875 4.545,1.357 6.497,-3.426 8.769,-6.197 0.357,2.617 2.022,6.782 5.283,6.996 3.461,0.203 2.783,-4.425 3.867,-6.722 1.32,1.749 4.401,5.83 7.174,4.653 C 17.845,13.565 16.811,9.77 16.489,7.759 18.773,8.64 23.164,7.367 23.831,4.893 24.818,0.978 19.56,1.287 17.109,1.025 12.433,0.894 7.686,-0.451 0,0"
                   style="fill:#84d4cb;fill-opacity:1;fill-rule:nonzero;stroke:none"
                   id="path166" />
              </g>
            </g>
          </g>
        </g>
        <g
           id="g174">
          <g
             id="g176" />
          <g
             id="g188">
            <g
               clip-path="url(#clipPath180)"
               opacity="0.300003"
               id="g186">
              <g
                 transform="translate(83.0268,77.4624)"
                 id="g184">
                <path
                   d="m 0,0 c -8.75,0.263 -13.52,0.043 -19.173,1.877 -3.7,0.969 -10.746,4.638 -5.301,7.824 3.377,2.056 8.559,0.75 11.452,-1.173 -1.278,3.832 -4.479,9.028 1.144,10.952 5.607,1.674 8.015,-4.228 10.819,-7.647 0.441,3.229 2.496,8.368 6.519,8.632 4.271,0.25 3.435,-5.461 4.771,-8.294 1.629,2.159 5.431,7.194 8.852,5.741 2.936,-1.174 1.66,-5.857 1.263,-8.339 C 23.165,10.66 28.582,9.09 29.404,6.037 30.624,1.206 24.135,1.588 21.11,1.264 15.341,1.103 9.483,-0.557 0,0"
                   style="fill:#84d4cb;fill-opacity:1;fill-rule:nonzero;stroke:none"
                   id="path182" />
              </g>
            </g>
          </g>
        </g>
        <g
           id="g190">
          <g
             id="g192" />
          <g
             id="g204">
            <g
               clip-path="url(#clipPath196)"
               opacity="0.300003"
               id="g202">
              <g
                 transform="translate(60.1108,11.9829)"
                 id="g200">
                <path
                   d="m 0,0 c -6.625,0.199 -10.237,0.033 -14.517,1.421 -2.802,0.734 -8.137,3.512 -4.014,5.925 2.557,1.556 6.481,0.568 8.671,-0.888 -0.968,2.9 -3.391,6.835 0.866,8.292 4.246,1.267 6.069,-3.201 8.193,-5.79 0.333,2.445 1.889,6.335 4.935,6.536 3.234,0.189 2.601,-4.135 3.613,-6.281 1.233,1.635 4.112,5.448 6.702,4.348 2.223,-0.89 1.257,-4.436 0.956,-6.314 C 17.54,8.072 21.642,6.883 22.264,4.571 23.187,0.914 18.274,1.202 15.984,0.957 11.616,0.835 7.181,-0.422 0,0"
                   style="fill:#84d4cb;fill-opacity:1;fill-rule:nonzero;stroke:none"
                   id="path198" />
              </g>
            </g>
          </g>
        </g>
        <g
           id="g206"
           transform="translate(83.583,185.75)">
          <path
             d="M 0,0 C 1.609,0 1.611,2.5 0,2.5 -1.609,2.5 -1.611,0 0,0"
             style="fill:#00aa99;fill-opacity:1;fill-rule:nonzero;stroke:none"
             id="path208" />
        </g>
        <g
           id="g210"
           transform="translate(133.583,10.75)">
          <path
             d="M 0,0 C 1.609,0 1.611,2.5 0,2.5 -1.609,2.5 -1.611,0 0,0"
             style="fill:#00aa99;fill-opacity:1;fill-rule:nonzero;stroke:none"
             id="path212" />
        </g>
      </g>
    </g>
    <g
       id="g214">
      <g
         id="g216"
         clip-path="url(#clipPath220)">
        <g
           id="g222"
           transform="translate(154,163.5)">
          <path
             d="m 0,0 v 23 c 0,4.971 -4.029,9 -9,9 h -136 c -4.971,0 -9,-4.029 -9,-9 V 0 Z"
             style="fill:#fed450;fill-opacity:1;fill-rule:nonzero;stroke:none"
             id="path224" />
        </g>
      </g>
    </g>
  </g>
</svg>
