<?xml version="1.0" encoding="UTF-8" standalone="no"?>
<svg
   xmlns:dc="http://purl.org/dc/elements/1.1/"
   xmlns:cc="http://creativecommons.org/ns#"
   xmlns:rdf="http://www.w3.org/1999/02/22-rdf-syntax-ns#"
   xmlns:svg="http://www.w3.org/2000/svg"
   xmlns="http://www.w3.org/2000/svg"
   viewBox="0 0 1066.6667 298.57068"
   height="298.57068"
   width="1066.6667"
   xml:space="preserve"
   id="svg2"
   version="1.1"><metadata
     id="metadata8"><rdf:RDF><cc:Work
         rdf:about=""><dc:format>image/svg+xml</dc:format><dc:type
           rdf:resource="http://purl.org/dc/dcmitype/StillImage" /></cc:Work></rdf:RDF></metadata><defs
     id="defs6"><clipPath
       id="clipPath18"
       clipPathUnits="userSpaceOnUse"><path
         id="path16"
         d="M 28.091,56.41 H 772.647 V 166.767 H 28.091 Z" /></clipPath></defs><g
     transform="matrix(1.3333333,0,0,-1.3333333,0,298.57067)"
     id="g10"><g
       id="g12"><g
         clip-path="url(#clipPath18)"
         id="g14"><g
           transform="translate(89.8503,132.8753)"
           id="g20"><path
             id="path22"
             style="fill:#231f20;fill-opacity:1;fill-rule:nonzero;stroke:none"
             d="m 0,0 c 3.999,-0.008 7.679,-0.102 11.402,-0.781 7.577,-1.379 14.301,-4.857 21.241,-7.845 2.656,-1.144 5.258,-2.337 7.33,-4.439 0.217,-0.222 0.49,-0.416 0.776,-0.538 2.845,-1.224 5.094,-3.287 7.354,-5.304 1.022,-0.912 1.816,-2.089 2.666,-3.182 1.236,-1.594 2.393,-3.254 3.657,-4.827 0.807,-1.006 0.925,-2.175 0.062,-3.187 -2.163,-2.53 -4.5,-4.885 -7.192,-6.864 -0.944,-0.694 -1.902,-1.371 -2.814,-2.101 -8.838,-7.102 -19.012,-11.127 -30.092,-13.073 -1.4,-0.245 -2.809,-0.462 -4.196,-0.768 -2.548,-0.57 -5.128,-0.71 -7.725,-0.708 -0.85,0 -1.7,-0.186 -2.551,-0.189 -1.601,-0.002 -3.202,0.039 -4.801,0.115 -2.05,0.102 -4.103,0.406 -6.151,0.363 -5.634,-0.123 -11.086,0.835 -16.418,2.543 -5.35,1.711 -10.799,3.116 -15.799,5.83 -3.078,1.67 -6.359,2.957 -9.007,5.348 -0.797,0.72 -1.698,1.325 -2.48,2.06 -0.567,0.537 -1.054,1.17 -1.509,1.806 -0.858,1.2 -1.606,2.485 -2.513,3.644 -1.103,1.405 -1.172,2.357 -0.01,3.7 0.329,0.381 0.7,0.733 1.09,1.052 3.573,2.927 7.166,5.828 10.718,8.78 0.822,0.682 1.433,1.616 2.258,2.293 4.438,3.624 8.948,7.15 14.418,9.16 0.827,0.304 1.665,0.628 2.423,1.07 4.842,2.801 10.179,4.06 15.582,5.164 C -8.123,-0.028 -3.945,0.186 0,0 m 4.732,-50.91 c 0.005,0.059 0.013,0.12 0.018,0.179 1.575,0.138 3.171,0.153 4.719,0.439 2.916,0.539 5.802,1.228 8.703,1.859 5.286,1.152 10.289,3.049 15.01,5.687 2.151,1.2 4.38,2.299 6.39,3.703 2.717,1.897 5.27,4.03 7.865,6.096 0.909,0.727 1.79,1.511 2.582,2.364 1.187,1.275 1.187,1.571 0.321,3.077 -0.183,0.325 -0.487,0.578 -0.697,0.892 -0.61,0.914 -1.192,1.849 -1.805,2.763 -0.45,0.674 -0.835,1.432 -1.415,1.974 -1.734,1.619 -3.547,3.151 -5.337,4.709 -0.235,0.204 -0.521,0.352 -0.787,0.518 -1.256,0.784 -2.507,1.581 -3.776,2.344 -1.806,1.091 -3.553,2.311 -5.455,3.195 -3.435,1.599 -6.956,3.013 -10.457,4.459 -3.088,1.277 -6.099,2.727 -9.518,3.072 -3.074,0.309 -6.08,1.159 -9.219,1.039 -2.109,-0.077 -4.223,0.105 -6.335,0.064 -1.19,-0.023 -2.378,-0.255 -3.565,-0.411 -0.501,-0.067 -0.991,-0.187 -1.489,-0.261 -4.9,-0.727 -9.655,-2.03 -14.216,-3.917 -3.555,-1.471 -6.997,-3.218 -10.483,-4.855 -0.569,-0.268 -1.152,-0.543 -1.652,-0.916 -1.767,-1.328 -3.519,-2.682 -5.24,-4.071 -0.483,-0.388 -1.06,-0.86 -1.218,-1.404 -0.468,-1.599 -1.64,-2.49 -2.878,-3.394 -2.71,-1.974 -5.465,-3.892 -8.067,-5.999 -2.712,-2.193 -2.825,-3.519 -0.473,-6.144 2.37,-2.648 5.11,-4.9 8.368,-6.438 1.653,-0.778 3.346,-1.486 4.967,-2.323 4.39,-2.258 9.15,-3.463 13.805,-4.972 3.703,-1.203 7.452,-2.26 11.354,-2.544 2.521,-0.181 5.056,-0.128 7.584,-0.23 4.135,-0.163 8.264,-0.367 12.396,-0.554" /></g><g
           transform="translate(32.5425,117.6409)"
           id="g24"><path
             id="path26"
             style="fill:#231f20;fill-opacity:1;fill-rule:nonzero;stroke:none"
             d="m 0,0 c -0.179,0.084 -0.692,0.166 -0.932,0.465 -1.614,1.992 -3.154,4.035 -3.471,6.706 -0.171,1.45 0.09,2.114 1.025,2.441 1.207,0.424 2.257,0.079 2.867,-1.116 C 0.421,6.675 1.307,4.824 2.102,2.937 2.748,1.405 1.818,0.023 0,0" /></g><g
           transform="translate(129.4775,125.3381)"
           id="g28"><path
             id="path30"
             style="fill:#231f20;fill-opacity:1;fill-rule:nonzero;stroke:none"
             d="m 0,0 c -1.535,0.069 -2.099,0.858 -1.652,1.879 0.36,0.83 0.763,1.676 1.307,2.391 1.512,1.984 3.09,3.917 4.681,5.84 0.33,0.398 0.817,0.669 1.241,0.986 0.784,0.592 1.374,0.048 1.716,-0.501 C 7.495,10.268 7.393,9.548 7.153,9.188 5.996,7.467 4.729,5.817 3.534,4.119 2.809,3.087 2.214,1.956 1.425,0.981 1.009,0.467 0.296,0.197 0,0" /></g><g
           transform="translate(55.7297,134.505)"
           id="g32"><path
             id="path34"
             style="fill:#231f20;fill-opacity:1;fill-rule:nonzero;stroke:none"
             d="m 0,0 c -0.12,-0.787 -0.186,-1.609 -0.383,-2.4 -0.255,-1.035 -1.471,-1.405 -2.24,-0.652 -0.477,0.468 -0.893,1.083 -1.118,1.711 -0.682,1.895 -1.272,3.826 -1.862,5.754 -0.204,0.669 -0.316,1.381 0.36,1.905 0.7,0.544 1.39,0.276 2.02,-0.118 C -2.86,5.973 -2.464,5.672 -2.28,5.304 -1.522,3.785 -0.838,2.227 -0.138,0.677 -0.051,0.48 -0.049,0.248 0,0" /></g><g
           transform="translate(64.1315,101.5395)"
           id="g36"><path
             id="path38"
             style="fill:#231f20;fill-opacity:1;fill-rule:nonzero;stroke:none"
             d="m 0,0 c 0.455,5 1.647,10.072 4.745,14.497 1.471,2.099 3.57,3.557 5.692,4.957 0.572,0.375 1.037,0.917 1.609,1.297 0.799,0.536 1.606,1.113 2.495,1.453 1.292,0.496 2.643,0.873 3.999,1.149 1.164,0.238 2.369,0.271 3.557,0.381 0.283,0.025 0.574,-0.046 0.853,-0.003 4.093,0.662 8.026,-0.597 11.999,-1.131 2.079,-0.278 4.063,-1.328 6.053,-2.125 0.554,-0.222 1.049,-0.722 1.435,-1.202 1.386,-1.724 2.722,-3.491 4.06,-5.251 0.945,-1.243 1.262,-2.628 1.08,-4.195 -0.342,-3.011 -0.464,-6.055 -0.904,-9.051 -0.707,-4.803 -3.074,-8.692 -6.889,-11.721 -3.629,-2.878 -7.702,-4.86 -12.187,-5.884 -2.078,-0.475 -4.254,-0.518 -6.389,0.039 -0.784,0.204 -1.621,0.314 -2.431,0.314 -2.142,-0.005 -4.099,0.585 -5.996,1.537 -1.662,0.835 -3.399,1.519 -5.071,2.334 -1.157,0.567 -2.312,1.17 -3.379,1.885 C 1.517,-8.833 0.513,-5.963 0.197,-2.761 0.115,-1.943 0.079,-1.121 0,0 m 44.845,7.778 c -0.069,0.636 -0.077,1.116 -0.179,1.576 -0.779,3.565 -2.699,6.443 -5.462,8.751 -0.654,0.547 -1.53,0.948 -2.365,1.129 -3.149,0.677 -6.302,1.405 -9.494,1.801 C 19.942,21.954 13.757,19.114 8.504,14.168 6.108,11.915 5.074,8.749 4.254,5.603 3.386,2.275 2.817,-1.073 3.782,-4.5 c 0.534,-1.887 1.586,-3.227 3.437,-4.001 2.503,-1.045 4.949,-2.222 7.434,-3.312 1.034,-0.452 2.071,-0.994 3.164,-1.195 1.89,-0.348 3.841,-0.371 5.735,-0.698 2.998,-0.515 5.838,-0.097 8.422,1.428 2.309,1.361 4.566,2.84 6.681,4.482 2.919,2.265 4.798,5.306 5.47,8.953 0.408,2.229 0.5,4.517 0.72,6.621" /></g><g
           transform="translate(86.2534,89.9185)"
           id="g40"><path
             id="path42"
             style="fill:#231f20;fill-opacity:1;fill-rule:nonzero;stroke:none"
             d="m 0,0 c -1.905,-0.169 -3.823,-0.25 -5.587,0.615 -3.833,1.877 -6.732,4.592 -7.58,8.987 -0.546,2.845 -1.325,5.687 -0.62,8.623 0.163,0.675 0.345,1.349 0.579,2.003 0.325,0.909 1.027,1.139 1.765,0.515 0.493,-0.416 0.932,-0.957 1.233,-1.527 0.562,-1.057 1.397,-1.476 2.552,-1.432 4.361,0.163 8.942,4.172 9.596,8.503 0.113,0.746 -0.122,1.548 -0.214,2.322 -0.054,0.464 -0.215,0.927 -0.197,1.386 0.038,0.953 0.577,1.379 1.522,1.172 1.788,-0.395 3.542,-0.978 5.345,-1.253 1.864,-0.289 3.427,-0.976 4.737,-2.337 0.587,-0.608 1.272,-1.162 2.002,-1.588 2.794,-1.64 3.843,-4.219 4.106,-7.276 C 19.587,14.655 18.611,10.94 16.415,7.531 16.193,7.186 15.971,6.816 15.664,6.555 12.076,3.511 8.394,0.613 3.501,0.02 2.352,-0.117 1.167,0 0,0 M 2.01,6.525 C 1.499,6.754 1.09,7.038 0.646,7.109 0.215,7.183 -0.294,7.135 -0.695,6.964 -1.011,6.831 -1.216,6.435 -1.466,6.149 -1.946,5.603 -2.477,5.485 -3.149,5.827 -4.137,6.331 -5.153,6.744 -5.503,7.975 -5.659,8.516 -6.119,8.69 -6.624,8.302 -7.26,7.814 -7.439,6.599 -6.829,6.113 -5.93,5.398 -4.982,4.569 -3.92,4.27 -0.947,3.437 2.114,3.279 5.161,3.948 5.613,4.048 6.004,4.415 6.591,4.757 5.337,5.391 4.385,5.518 3.345,5 2.947,4.803 2.421,4.867 1.954,4.811 1.959,5.255 1.961,5.697 1.969,6.142 1.971,6.264 1.994,6.387 2.01,6.525 M 8.465,5.437 c 1.918,0.761 3.404,2.084 4.814,3.519 0.958,0.975 1.591,2.109 1.872,3.432 0.059,0.276 -0.023,0.58 -0.041,0.871 C 14.791,13.123 14.359,13.08 14.173,12.842 12.25,10.391 10.363,7.909 8.465,5.437 M 4.732,17.796 c 0.082,-0.097 0.168,-0.191 0.25,-0.288 0.258,0.174 0.562,0.306 0.761,0.531 1.108,1.254 2.181,2.544 3.289,3.797 0.659,0.746 1.443,1.098 2.452,0.649 0.735,-0.324 1.049,0.161 1.014,0.766 -0.023,0.434 -0.256,0.919 -0.542,1.264 -0.804,0.968 -1.437,0.866 -2.147,-0.153 C 9.106,23.353 8.315,22.408 7.559,21.435 6.617,20.222 5.674,19.009 4.732,17.796 m 1.678,6.543 c 0.671,0.646 1.356,1.055 1.639,1.652 0.215,0.45 -0.314,0.907 -0.932,0.879 C 6.44,26.839 5.738,26.065 5.82,25.366 5.85,25.09 6.111,24.839 6.41,24.339 M -8.294,12.138 c 0.393,0.544 0.71,0.952 0.973,1.394 0.023,0.041 -0.289,0.283 -0.445,0.431 -0.309,-0.395 -0.638,-0.776 -0.904,-1.197 -0.046,-0.072 0.182,-0.312 0.376,-0.628" /></g><g
           transform="translate(319.7523,133.4424)"
           id="g44"><path
             id="path46"
             style="fill:#231f20;fill-opacity:1;fill-rule:nonzero;stroke:none"
             d="m 0,0 c -0.404,0.891 -0.827,1.772 -1.203,2.674 -0.947,2.288 -1.785,4.627 -2.834,6.869 -1.747,3.736 -4.303,6.834 -7.792,9.101 -1.8,1.17 -3.787,1.931 -5.827,2.569 -2.4,0.751 -4.849,1.226 -7.367,0.981 -1.813,-0.176 -3.611,-0.511 -5.417,-0.784 -2.85,-0.434 -5.554,-1.42 -8.307,-2.214 -1.231,-0.355 -2.206,-1.193 -3.274,-1.864 -2.765,-1.744 -5.107,-4.004 -7.505,-6.188 -0.674,-0.615 -1.139,-1.486 -1.609,-2.293 -1.001,-1.714 -1.958,-3.455 -2.903,-5.199 -1.277,-2.362 -1.938,-4.926 -2.429,-7.544 -0.5,-2.676 -0.743,-5.373 -0.613,-8.092 0.121,-2.5 0.613,-4.947 1.042,-7.406 0.289,-1.66 1.142,-3.036 1.972,-4.454 1.632,-2.788 3.179,-5.623 4.76,-8.439 0.143,-0.253 0.26,-0.526 0.439,-0.749 1.767,-2.198 3.299,-4.571 5.197,-6.683 1.494,-1.662 2.696,-3.585 4.019,-5.401 1.109,-1.524 2.263,-3.018 3.287,-4.596 1.884,-2.906 3.708,-5.853 5.518,-8.808 1.464,-2.387 2.983,-4.732 4.791,-6.874 0.774,-0.917 1.591,-1.801 2.421,-2.664 0.296,-0.309 0.712,-0.5 1.039,-0.784 0.434,-0.378 0.876,-0.763 1.239,-1.205 0.592,-0.728 1.394,-1.047 2.232,-1.353 0.508,-0.187 1.064,-0.394 1.442,-0.756 0.938,-0.899 2.061,-1.226 3.292,-1.413 1.959,-0.298 3.923,-0.372 5.899,-0.377 2.135,-0.011 4.04,0.62 5.815,1.769 0.569,0.368 1.187,0.664 1.795,0.968 1.397,0.695 2.342,1.839 3.069,3.167 0.738,1.34 1.461,2.696 2.077,4.096 0.398,0.901 0.648,1.882 0.86,2.85 0.256,1.154 0.406,2.331 0.593,3.501 0.056,0.35 0.24,0.495 0.592,0.482 0.342,-0.01 0.485,-0.171 0.524,-0.503 0.102,-0.876 0.326,-1.749 0.319,-2.622 -0.008,-1.188 -0.325,-2.334 -0.83,-3.427 -0.738,-1.591 -1.433,-3.203 -2.14,-4.806 -0.797,-1.811 -2.13,-3.162 -3.7,-4.298 -1.834,-1.331 -3.892,-2.25 -6.001,-3.024 -1.528,-0.564 -3.167,-0.516 -4.778,-0.421 -1.824,0.105 -3.576,0.546 -5.294,1.144 -1.877,0.651 -3.787,1.244 -5.473,2.321 -3.797,2.426 -7.352,5.136 -9.767,9.056 -1.839,2.987 -3.693,5.965 -5.473,8.983 -2.888,4.898 -5.866,9.732 -9.328,14.255 -0.881,1.149 -1.711,2.339 -2.518,3.539 -1.801,2.682 -3.578,5.378 -5.35,8.077 -2.337,3.563 -3.736,7.498 -4.658,11.635 -0.633,2.845 -1.126,5.687 -0.909,8.619 0.145,1.943 0.436,3.858 0.957,5.738 0.072,0.265 0.143,0.533 0.177,0.807 0.166,1.381 0.773,2.589 1.386,3.815 0.399,0.794 0.7,1.655 0.914,2.518 0.603,2.405 1.829,4.461 3.387,6.348 0.579,0.7 1.131,1.425 1.739,2.102 0.702,0.779 1.43,1.537 2.186,2.265 0.674,0.651 1.376,1.274 2.109,1.862 1.877,1.506 3.787,2.992 6.044,3.886 1.854,0.733 3.775,1.3 5.672,1.923 0.674,0.22 1.364,0.398 2.048,0.58 0.697,0.181 1.111,0.643 1.213,1.33 0.309,2.092 0.608,4.186 0.856,6.285 0.051,0.434 -0.166,0.894 -0.217,1.348 -0.029,0.25 -0.049,0.669 0.074,0.73 0.224,0.115 0.658,0.138 0.814,-0.007 0.279,-0.258 0.48,-0.649 0.593,-1.019 0.592,-1.941 0.431,-3.9 0.079,-5.858 -0.092,-0.513 -0.194,-1.027 -0.279,-1.54 -0.102,-0.621 0.029,-0.84 0.639,-0.853 0.983,-0.02 1.971,-0.008 2.952,0.056 2.99,0.199 5.942,-0.028 8.864,-0.671 2.112,-0.465 4.106,-1.229 5.929,-2.403 2.143,-1.382 3.992,-3.088 5.521,-5.121 C -2.837,12.122 -1.3,8.228 -0.192,4.145 0.158,2.855 0.388,1.537 0.125,0.189 0.112,0.135 0.102,0.084 0.092,0.031 0.061,0.02 0.031,0.01 0,0" /></g><g
           transform="translate(311.696,122.4262)"
           id="g48"><path
             id="path50"
             style="fill:#231f20;fill-opacity:1;fill-rule:nonzero;stroke:none"
             d="M 0,0 C -0.046,-0.927 -0.077,-1.854 -0.14,-2.781 -0.207,-3.769 -0.626,-4.63 -1.208,-5.404 -2.074,-6.55 -2.955,-7.681 -3.866,-8.79 c -0.192,-0.232 -0.537,-0.357 -0.83,-0.482 -0.424,-0.179 -0.876,-0.297 -1.303,-0.475 -0.679,-0.289 -1.348,-0.595 -2.017,-0.907 -1.185,-0.549 -1.734,-1.563 -2.02,-2.771 -0.189,-0.796 0.026,-1.56 0.235,-2.308 0.381,-1.364 0.914,-2.653 1.841,-3.762 0.25,-0.301 0.414,-0.697 0.544,-1.075 0.151,-0.434 0.411,-0.697 0.853,-0.766 1.892,-0.296 3.838,0.067 4.816,1.984 0.085,0.166 0.202,0.322 0.33,0.457 0.462,0.481 1.128,0.396 1.46,-0.181 0.424,-0.728 0.348,-1.698 -0.189,-2.362 -1.636,-2.033 -4.543,-2.766 -6.826,-1.668 -0.482,0.233 -0.955,0.58 -1.299,0.986 -1.614,1.913 -2.881,4.032 -3.573,6.458 -0.168,0.58 -0.268,1.188 -0.329,1.79 -0.154,1.507 0.579,2.677 1.586,3.662 0.612,0.598 1.361,1.07 2.088,1.538 1.341,0.858 2.672,1.729 4.171,2.318 0.717,0.284 1.07,0.991 1.371,1.681 1.078,2.474 1.146,5.023 0.574,7.63 -0.684,3.123 -1.897,6.019 -3.707,8.652 -1.211,1.762 -2.914,2.944 -4.845,3.774 -1.542,0.659 -3.1,1.356 -4.722,1.734 -1.968,0.462 -4.016,0.626 -6.036,0.179 -0.58,-0.13 -1.132,-0.439 -1.665,-0.72 -1.05,-0.554 -2.082,-1.144 -3.116,-1.726 -1.448,-0.813 -2.592,-1.959 -3.501,-3.328 -1.024,-1.542 -2.01,-3.115 -2.978,-4.696 -0.245,-0.401 -0.331,-0.894 -0.541,-1.318 -0.12,-0.237 -0.319,-0.559 -0.526,-0.595 -0.214,-0.035 -0.529,0.182 -0.712,0.371 -0.143,0.145 -0.194,0.416 -0.223,0.638 -0.16,1.341 0.292,2.536 0.861,3.713 1.208,2.495 3.052,4.454 5.092,6.272 1.33,1.185 2.904,1.828 4.558,2.354 0.925,0.294 1.834,0.628 2.758,0.927 0.217,0.069 0.457,0.105 0.682,0.097 2.046,-0.056 4.089,-0.097 6.131,-0.201 2.695,-0.141 5.1,-1.124 7.296,-2.651 C -4.655,14.4 -2.689,11.65 -1.507,8.315 -0.552,5.626 -0.082,2.852 0,0" /></g><g
           transform="translate(333.6241,123.299)"
           id="g52"><path
             id="path54"
             style="fill:#231f20;fill-opacity:1;fill-rule:nonzero;stroke:none"
             d="M 0,0 C 0.766,-0.13 1.366,0.217 1.989,0.467 2.283,0.585 2.584,0.712 2.893,0.761 3.603,0.873 3.996,0.615 4.229,-0.051 4.456,-0.712 4.249,-1.364 3.677,-1.67 3.034,-2.015 2.36,-2.204 1.611,-2.275 c -1.19,-0.11 -2.385,-0.307 -3.552,-0.583 -1.307,-0.311 -2.582,-0.761 -3.874,-1.138 -0.848,-0.251 -1.356,-0.082 -1.683,0.541 -0.242,0.462 -0.168,0.843 0.202,1.215 2.475,2.488 4.99,4.937 7.138,7.725 C 0.033,5.736 0.207,5.718 0.365,5.531 0.567,5.294 0.718,5.01 0.891,4.75 1.047,4.515 1.203,4.283 1.379,4.019 2.891,5.215 4.331,6.361 5.781,7.49 c 4.431,3.442 8.862,6.882 13.297,10.317 1.167,0.906 2.347,1.797 3.537,2.676 0.299,0.222 0.644,0.388 0.978,0.562 0.35,0.181 0.659,0.061 0.889,-0.222 0.235,-0.294 0.179,-0.603 -0.087,-0.856 C 23.379,18.999 22.378,18.016 21.336,17.074 17.61,13.703 13.468,10.856 9.53,7.755 7.789,6.384 6.175,4.852 4.451,3.458 3.659,2.817 2.75,2.311 1.872,1.782 1.121,1.33 0.416,0.853 0,0" /></g><g
           transform="translate(334.2015,108.9408)"
           id="g56"><path
             id="path58"
             style="fill:#231f20;fill-opacity:1;fill-rule:nonzero;stroke:none"
             d="M 0,0 C 0.554,-0.774 1.228,-1.29 1.984,-1.701 2.916,-2.206 3.567,-2.924 3.741,-3.991 3.785,-4.262 3.754,-4.579 3.649,-4.832 3.458,-5.294 2.962,-5.434 2.523,-5.186 c -0.202,0.109 -0.398,0.25 -0.549,0.421 -1.379,1.57 -3.159,2.564 -4.995,3.48 -0.881,0.44 -1.765,0.879 -2.64,1.328 -0.705,0.36 -0.92,0.738 -0.838,1.41 0.074,0.623 0.485,0.993 1.21,1.193 1.198,0.326 2.414,0.625 3.575,1.054 1.275,0.47 2.503,1.073 3.749,1.622 C 2.755,5.641 3.029,5.554 3.32,4.903 3.652,4.17 3.519,3.749 2.832,3.453 2.441,3.284 2.058,3.121 1.867,2.686 2.097,2.309 2.464,2.214 2.873,2.227 4.41,2.265 5.947,2.296 7.485,2.349 c 2.696,0.09 5.393,0.166 8.087,0.297 2.837,0.14 5.674,0.349 8.512,0.5 0.939,0.051 1.884,0.036 2.826,0.021 C 27.414,3.156 27.684,2.914 27.715,2.536 27.753,2.061 27.505,1.647 27.038,1.555 26.029,1.361 25.021,1.144 23.999,1.052 20.388,0.728 16.78,0.386 13.162,0.184 10.151,0.013 7.13,0.11 4.116,0.363 2.75,0.475 1.404,0.294 0,0" /></g><g
           transform="translate(332.6284,95.8591)"
           id="g60"><path
             id="path62"
             style="fill:#231f20;fill-opacity:1;fill-rule:nonzero;stroke:none"
             d="m 0,0 c 0.577,-1.098 1.152,-2.199 1.731,-3.294 0.21,-0.399 0.457,-0.777 0.652,-1.18 0.242,-0.503 0.303,-1.029 0.015,-1.545 -0.414,-0.743 -1.231,-0.787 -1.66,-0.061 -0.355,0.597 -0.613,1.251 -0.955,1.856 -1.098,1.941 -2.199,3.882 -3.335,5.802 -0.238,0.401 -0.618,0.725 -0.958,1.06 -0.646,0.631 -0.648,1.445 0.054,1.989 0.373,0.291 0.814,0.205 1.244,0.072 C -2.395,4.448 -1.588,4.157 -0.756,3.976 0.646,3.672 2.061,3.442 3.47,3.174 3.756,3.123 4.042,3.07 4.316,2.975 4.809,2.806 4.962,2.515 4.763,2.03 4.558,1.54 4.283,1.08 4.022,0.575 c 1.08,-0.726 2.176,-1.453 3.261,-2.199 3.22,-2.219 6.44,-4.441 9.653,-6.673 2.712,-1.884 5.419,-3.782 8.118,-5.687 0.375,-0.265 0.725,-0.582 1.032,-0.927 0.444,-0.503 0.245,-1.279 -0.363,-1.575 -0.355,-0.174 -0.615,0.02 -0.873,0.209 -0.932,0.666 -1.841,1.364 -2.791,2.002 -1.719,1.157 -3.494,2.232 -5.184,3.427 -1.43,1.011 -2.746,2.181 -4.16,3.213 -1.474,1.075 -2.978,2.109 -4.518,3.087 -1.843,1.175 -3.728,2.291 -5.615,3.391 -0.8,0.468 -1.652,0.838 -2.48,1.251 C 0.066,0.061 0.033,0.031 0,0" /></g><g
           transform="translate(308.4702,73.3728)"
           id="g64"><path
             id="path66"
             style="fill:#231f20;fill-opacity:1;fill-rule:nonzero;stroke:none"
             d="m 0,0 c -1.936,0.02 -3.71,0.508 -5.296,1.624 -1.4,0.986 -2.546,2.227 -3.573,3.585 -1.274,1.688 -2.584,3.351 -3.797,5.082 -0.708,1.004 -1.313,2.089 -1.839,3.2 -0.207,0.439 -0.094,1.042 -0.082,1.571 0.003,0.104 0.2,0.257 0.33,0.291 0.099,0.025 0.283,-0.08 0.35,-0.179 0.927,-1.415 1.81,-2.858 2.765,-4.255 1.111,-1.626 2.204,-3.271 3.443,-4.795 C -6.433,4.558 -4.893,3.271 -2.97,2.533 -1.535,1.984 -0.059,1.874 1.43,2.257 2.607,2.564 3.241,3.394 3.47,4.558 3.639,5.398 3.562,6.226 3.358,7.056 3.281,7.372 3.243,7.72 3.292,8.036 3.368,8.578 3.726,8.902 4.27,9.004 4.829,9.111 5.069,8.953 5.209,8.402 5.628,6.757 5.787,5.11 5.179,3.478 4.589,1.895 3.624,0.651 1.89,0.237 1.277,0.092 0.631,0.074 0,0" /></g><g
           transform="translate(732.6172,129.21)"
           id="g68"><path
             id="path70"
             style="fill:#231f20;fill-opacity:1;fill-rule:nonzero;stroke:none"
             d="m 0,0 c 5.013,-0.83 9.834,-1.777 14.76,-1.759 0.419,0.002 1.175,0.293 1.213,-0.386 0.036,-0.651 -0.743,-0.498 -1.169,-0.541 -3.351,-0.345 -6.655,0.201 -9.962,0.638 -3.785,0.498 -7.577,0.978 -11.387,0.281 -1.678,-0.307 -3.253,-0.907 -4.602,-2.038 1.315,0.087 2.615,0.358 3.925,0.102 1.453,-0.281 2.72,-0.858 3.195,-2.395 0.518,-1.678 0.237,-3.261 -0.873,-4.673 0.15,0.822 0.339,1.637 0.446,2.464 0.32,2.472 -0.855,3.869 -3.353,4.027 -1.348,0.084 -2.673,-0.148 -4.004,-0.304 -0.237,-0.028 -0.421,-0.133 -0.587,-0.314 -1.637,-1.8 -0.996,-4.808 1.233,-5.764 0.912,-0.39 1.88,-0.584 2.855,-0.674 1.895,-0.173 3.744,-0.602 5.618,-0.891 4.329,-0.669 8.642,-1.499 13.05,-1.43 0.59,0.01 0.99,-0.22 0.922,-0.848 -0.069,-0.654 -0.519,-0.809 -1.142,-0.735 -5.812,0.692 -11.614,1.435 -17.362,2.569 -1.88,0.37 -3.864,0.311 -5.557,1.417 -0.296,0.194 -0.48,-0.059 -0.674,-0.222 -4.377,-3.731 -9.776,-5.299 -15.054,-7.12 -0.37,-0.127 -0.789,-0.214 -1.085,0.161 -0.286,0.365 -0.1,0.743 0.04,1.113 1.489,3.977 3.573,7.633 5.922,11.152 0.092,0.136 0.189,0.268 0.279,0.404 0.618,0.917 0.615,0.906 -0.419,1.129 -1.336,0.288 -2.066,1.19 -2.39,2.456 -0.606,2.367 0.171,4.372 1.652,6.188 1.292,1.583 2.886,2.839 4.431,4.154 3.258,2.779 6.488,5.583 9.813,8.29 4.239,3.455 8.966,5.559 14.344,6.323 1.098,0.155 2.209,0.664 3.271,0.556 1.441,-0.143 2.222,0.72 3.167,1.425 1.834,1.372 3.664,2.745 5.391,4.255 1.011,0.883 1.997,1.8 2.75,2.918 0.465,0.69 0.999,0.805 1.762,0.575 3.547,-1.07 5.723,-3.519 7.018,-6.869 0.796,-2.066 0.786,-2.074 -0.879,-3.506 -1.261,-1.086 -2.533,-2.158 -3.784,-3.223 0.046,-0.11 0.056,-0.202 0.089,-0.212 3.67,-1.022 7.089,-2.682 10.593,-4.122 1.519,-0.623 3.11,-1.011 4.637,-1.591 0.281,-0.104 0.764,-0.148 0.641,-0.577 -0.115,-0.408 -0.554,-0.222 -0.853,-0.171 -0.973,0.163 -1.892,0.511 -2.801,0.879 -4.063,1.644 -8.124,3.291 -12.176,4.954 -0.496,0.204 -0.861,0.255 -1.326,-0.136 C 14.538,12.025 7.477,6.139 0.421,0.253 0.296,0.148 0.14,0.084 0,0 m -15.976,-11.673 c 0.628,0.519 1.147,0.958 1.678,1.382 0.24,0.189 0.268,0.373 0.184,0.676 -0.873,3.157 0.033,5.511 2.796,7.299 2.567,1.657 5.442,2.14 8.43,2.155 0.585,0.003 1.049,0.143 1.509,0.529 4.311,3.608 8.659,7.173 12.96,10.794 3.902,3.284 7.758,6.622 11.629,9.939 0.912,0.781 2.084,1.236 2.822,2.242 0.215,0.294 0.45,0.536 0.317,0.96 -0.705,2.227 -1.727,4.209 -3.718,5.608 -1.221,0.856 -2.314,1.011 -3.514,0.018 C 17.434,28.54 15.751,27.145 14.012,25.828 7.863,21.165 1.813,16.387 -3.884,11.167 -7.237,8.098 -10.289,4.722 -13.596,1.611 c -2.081,-1.958 -4.037,-4.096 -6.598,-5.48 -1.047,-0.564 -1.073,-0.664 -0.049,-1.264 2.311,-1.358 3.779,-3.274 4.109,-5.986 0.015,-0.125 0.066,-0.245 0.158,-0.554 M 6.629,21.724 C 6.415,21.767 6.348,21.801 6.29,21.79 5.582,21.665 4.877,21.512 4.17,21.407 -0.679,20.703 -5.013,18.91 -8.971,15.937 c -4.117,-3.09 -7.817,-6.639 -11.734,-9.946 -1.226,-1.037 -2.357,-2.171 -3.289,-3.486 -0.983,-1.384 -1.369,-2.888 -0.784,-4.538 0.383,-1.09 1.149,-1.552 2.288,-1.361 1.468,0.248 2.827,0.779 4.014,1.709 1.829,1.437 3.542,3.003 5.141,4.686 4.28,4.502 8.613,8.948 13.332,12.995 2.179,1.869 4.344,3.751 6.632,5.728 m -34.461,-38.542 c 0.556,-0.108 0.911,0.099 1.271,0.212 2.876,0.901 5.639,2.078 8.415,3.24 1.961,0.825 1.647,1.665 1.228,2.99 -0.677,2.156 -2.342,3.473 -4.083,4.74 -0.6,0.439 -0.881,0.23 -1.109,-0.283 -0.444,-0.994 -1.085,-1.865 -1.634,-2.789 -1.537,-2.587 -2.949,-5.232 -4.088,-8.11" /></g><g
           transform="translate(732.6172,129.21)"
           id="g72"><path
             id="path74"
             style="fill:none;stroke:#231f20;stroke-width:2.5539999;stroke-linecap:butt;stroke-linejoin:miter;stroke-miterlimit:10;stroke-dasharray:none;stroke-opacity:1"
             d="m 0,0 c 5.013,-0.83 9.834,-1.777 14.76,-1.759 0.419,0.002 1.175,0.293 1.213,-0.386 0.036,-0.651 -0.743,-0.498 -1.169,-0.541 -3.351,-0.345 -6.655,0.201 -9.962,0.638 -3.785,0.498 -7.577,0.978 -11.387,0.281 -1.678,-0.307 -3.253,-0.907 -4.602,-2.038 1.315,0.087 2.615,0.358 3.925,0.102 1.453,-0.281 2.72,-0.858 3.195,-2.395 0.518,-1.678 0.237,-3.261 -0.873,-4.673 0.15,0.822 0.339,1.637 0.446,2.464 0.32,2.472 -0.855,3.869 -3.353,4.027 -1.348,0.084 -2.673,-0.148 -4.004,-0.304 -0.237,-0.028 -0.421,-0.133 -0.587,-0.314 -1.637,-1.8 -0.996,-4.808 1.233,-5.764 0.912,-0.39 1.88,-0.584 2.855,-0.674 1.895,-0.173 3.744,-0.602 5.618,-0.891 4.329,-0.669 8.642,-1.499 13.05,-1.43 0.59,0.01 0.99,-0.22 0.922,-0.848 -0.069,-0.654 -0.519,-0.809 -1.142,-0.735 -5.812,0.692 -11.614,1.435 -17.362,2.569 -1.88,0.37 -3.864,0.311 -5.557,1.417 -0.296,0.194 -0.48,-0.059 -0.674,-0.222 -4.377,-3.731 -9.776,-5.299 -15.054,-7.12 -0.37,-0.127 -0.789,-0.214 -1.085,0.161 -0.286,0.365 -0.1,0.743 0.04,1.113 1.489,3.977 3.573,7.633 5.922,11.152 0.092,0.136 0.189,0.268 0.279,0.404 0.618,0.917 0.615,0.906 -0.419,1.129 -1.336,0.288 -2.066,1.19 -2.39,2.456 -0.606,2.367 0.171,4.372 1.652,6.188 1.292,1.583 2.886,2.839 4.431,4.154 3.258,2.779 6.488,5.583 9.813,8.29 4.239,3.455 8.966,5.559 14.344,6.323 1.098,0.155 2.209,0.664 3.271,0.556 1.441,-0.143 2.222,0.72 3.167,1.425 1.834,1.372 3.664,2.745 5.391,4.255 1.011,0.883 1.997,1.8 2.75,2.918 0.465,0.69 0.999,0.805 1.762,0.575 3.547,-1.07 5.723,-3.519 7.018,-6.869 0.796,-2.066 0.786,-2.074 -0.879,-3.506 -1.261,-1.086 -2.533,-2.158 -3.784,-3.223 0.046,-0.11 0.056,-0.202 0.089,-0.212 3.67,-1.022 7.089,-2.682 10.593,-4.122 1.519,-0.623 3.11,-1.011 4.637,-1.591 0.281,-0.104 0.764,-0.148 0.641,-0.577 -0.115,-0.408 -0.554,-0.222 -0.853,-0.171 -0.973,0.163 -1.892,0.511 -2.801,0.879 -4.063,1.644 -8.124,3.291 -12.176,4.954 -0.496,0.204 -0.861,0.255 -1.326,-0.136 C 14.538,12.025 7.477,6.139 0.421,0.253 0.296,0.148 0.14,0.084 0,0 Z m -15.976,-11.673 c 0.628,0.519 1.147,0.958 1.678,1.382 0.24,0.189 0.268,0.373 0.184,0.676 -0.873,3.157 0.033,5.511 2.796,7.299 2.567,1.657 5.442,2.14 8.43,2.155 0.585,0.003 1.049,0.143 1.509,0.529 4.311,3.608 8.659,7.173 12.96,10.794 3.902,3.284 7.758,6.622 11.629,9.939 0.912,0.781 2.084,1.236 2.822,2.242 0.215,0.294 0.45,0.536 0.317,0.96 -0.705,2.227 -1.727,4.209 -3.718,5.608 -1.221,0.856 -2.314,1.011 -3.514,0.018 C 17.434,28.54 15.751,27.145 14.012,25.828 7.863,21.165 1.813,16.387 -3.884,11.167 -7.237,8.098 -10.289,4.722 -13.596,1.611 c -2.081,-1.958 -4.037,-4.096 -6.598,-5.48 -1.047,-0.564 -1.073,-0.664 -0.049,-1.264 2.311,-1.358 3.779,-3.274 4.109,-5.986 0.015,-0.125 0.066,-0.245 0.158,-0.554 z M 6.629,21.724 C 6.415,21.767 6.348,21.801 6.29,21.79 5.582,21.665 4.877,21.512 4.17,21.407 -0.679,20.703 -5.013,18.91 -8.971,15.937 c -4.117,-3.09 -7.817,-6.639 -11.734,-9.946 -1.226,-1.037 -2.357,-2.171 -3.289,-3.486 -0.983,-1.384 -1.369,-2.888 -0.784,-4.538 0.383,-1.09 1.149,-1.552 2.288,-1.361 1.468,0.248 2.827,0.779 4.014,1.709 1.829,1.437 3.542,3.003 5.141,4.686 4.28,4.502 8.613,8.948 13.332,12.995 2.179,1.869 4.344,3.751 6.632,5.728 z m -34.461,-38.542 c 0.556,-0.108 0.911,0.099 1.271,0.212 2.876,0.901 5.639,2.078 8.415,3.24 1.961,0.825 1.647,1.665 1.228,2.99 -0.677,2.156 -2.342,3.473 -4.083,4.74 -0.6,0.439 -0.881,0.23 -1.109,-0.283 -0.444,-0.994 -1.085,-1.865 -1.634,-2.789 -1.537,-2.587 -2.949,-5.232 -4.088,-8.11 z" /></g><g
           transform="translate(699.2756,142.6058)"
           id="g76"><path
             id="path78"
             style="fill:#231f20;fill-opacity:1;fill-rule:nonzero;stroke:none"
             d="m 0,0 c -1.808,-1.032 -3.716,-1.859 -5.661,-2.602 -12.373,-4.714 -24.891,-9.03 -37.435,-13.269 -0.296,-0.1 -0.633,-0.123 -0.911,-0.432 4.997,-3.828 7.939,-9.415 12.084,-13.976 8.511,-9.367 17.073,-18.682 26.083,-27.579 3.072,-3.032 6.22,-6.035 8.879,-9.413 3.429,-4.359 7.229,-8.351 10.991,-12.393 1.026,-1.101 2.109,-2.145 3.189,-3.192 0.761,-0.738 1.645,-0.922 2.597,-0.37 7.955,4.583 16.426,8.199 24.171,13.192 7.84,5.056 15.345,10.574 22.916,16.004 0.353,0.252 0.514,0.38 0.077,0.773 -3.598,3.238 -7.025,6.65 -10.291,10.225 -3.108,3.407 -6.165,6.859 -9.485,10.067 -0.439,0.421 -0.804,0.871 -0.181,1.379 0.524,0.426 0.907,0.01 1.246,-0.36 2.235,-2.431 4.446,-4.883 6.704,-7.296 3.659,-3.915 7.04,-8.098 11.052,-11.681 0.779,-0.697 1.596,-1.343 2.255,-2.173 0.554,-0.697 0.475,-1.118 -0.227,-1.675 -5.488,-4.351 -11.15,-8.46 -17.046,-12.242 -6.606,-4.239 -13.223,-8.468 -20.284,-11.921 -3.23,-1.58 -6.502,-3.034 -9.51,-5.048 -2.188,-1.464 -3.669,-1.19 -5.518,0.679 -3.749,3.79 -7.467,7.607 -10.922,11.675 -0.927,1.093 -1.706,2.291 -2.597,3.412 -2.891,3.624 -6.083,6.959 -9.36,10.217 -9.121,9.063 -17.916,18.43 -26.364,28.121 -2.487,2.855 -4.703,5.95 -7.094,8.892 -1.325,1.632 -2.888,3.026 -4.678,4.15 -0.309,0.196 -0.786,0.321 -0.682,0.84 0.097,0.475 0.562,0.503 0.922,0.62 6.522,2.14 13.057,4.245 19.569,6.415 7.199,2.398 14.272,5.138 21.338,7.891 1.328,0.518 2.699,0.919 4.053,1.374 C -0.079,0.202 -0.041,0.1 0,0" /></g><g
           transform="translate(699.2756,142.6058)"
           id="g80"><path
             id="path82"
             style="fill:none;stroke:#231f20;stroke-width:2.5539999;stroke-linecap:butt;stroke-linejoin:miter;stroke-miterlimit:10;stroke-dasharray:none;stroke-opacity:1"
             d="m 0,0 c -1.808,-1.032 -3.716,-1.859 -5.661,-2.602 -12.373,-4.714 -24.891,-9.03 -37.435,-13.269 -0.296,-0.1 -0.633,-0.123 -0.911,-0.432 4.997,-3.828 7.939,-9.415 12.084,-13.976 8.511,-9.367 17.073,-18.682 26.083,-27.579 3.072,-3.032 6.22,-6.035 8.879,-9.413 3.429,-4.359 7.229,-8.351 10.991,-12.393 1.026,-1.101 2.109,-2.145 3.189,-3.192 0.761,-0.738 1.645,-0.922 2.597,-0.37 7.955,4.583 16.426,8.199 24.171,13.192 7.84,5.056 15.345,10.574 22.916,16.004 0.353,0.252 0.514,0.38 0.077,0.773 -3.598,3.238 -7.025,6.65 -10.291,10.225 -3.108,3.407 -6.165,6.859 -9.485,10.067 -0.439,0.421 -0.804,0.871 -0.181,1.379 0.524,0.426 0.907,0.01 1.246,-0.36 2.235,-2.431 4.446,-4.883 6.704,-7.296 3.659,-3.915 7.04,-8.098 11.052,-11.681 0.779,-0.697 1.596,-1.343 2.255,-2.173 0.554,-0.697 0.475,-1.118 -0.227,-1.675 -5.488,-4.351 -11.15,-8.46 -17.046,-12.242 -6.606,-4.239 -13.223,-8.468 -20.284,-11.921 -3.23,-1.58 -6.502,-3.034 -9.51,-5.048 -2.188,-1.464 -3.669,-1.19 -5.518,0.679 -3.749,3.79 -7.467,7.607 -10.922,11.675 -0.927,1.093 -1.706,2.291 -2.597,3.412 -2.891,3.624 -6.083,6.959 -9.36,10.217 -9.121,9.063 -17.916,18.43 -26.364,28.121 -2.487,2.855 -4.703,5.95 -7.094,8.892 -1.325,1.632 -2.888,3.026 -4.678,4.15 -0.309,0.196 -0.786,0.321 -0.682,0.84 0.097,0.475 0.562,0.503 0.922,0.62 6.522,2.14 13.057,4.245 19.569,6.415 7.199,2.398 14.272,5.138 21.338,7.891 1.328,0.518 2.699,0.919 4.053,1.374 C -0.079,0.202 -0.041,0.1 0,0 Z" /></g><g
           transform="translate(673.0383,120.2977)"
           id="g84"><path
             id="path86"
             style="fill:#231f20;fill-opacity:1;fill-rule:nonzero;stroke:none"
             d="m 0,0 c 1.688,0.751 3.363,1.525 5.061,2.247 9.528,4.055 18.997,8.238 28.093,13.21 0.087,0.046 0.171,0.1 0.263,0.131 0.314,0.099 0.692,0.487 0.922,-0.006 0.186,-0.398 -0.273,-0.528 -0.536,-0.681 C 31.055,13.312 28.2,11.936 25.34,10.58 17.37,6.803 9.323,3.202 1.049,0.133 0.728,0.013 0.393,-0.074 0.064,-0.176 0.043,-0.117 0.023,-0.059 0,0" /></g><g
           transform="translate(704.5757,126.5578)"
           id="g88"><path
             id="path90"
             style="fill:#231f20;fill-opacity:1;fill-rule:nonzero;stroke:none"
             d="m 0,0 c -0.031,-0.35 -0.266,-0.424 -0.465,-0.526 -7.658,-3.951 -15.248,-8.052 -23.299,-11.183 -0.91,-0.352 -1.875,-0.559 -2.817,-0.819 -0.238,-0.067 -0.577,-0.21 -0.672,0.138 -0.092,0.329 0.279,0.393 0.498,0.485 0.754,0.314 1.504,0.641 2.276,0.899 6.225,2.076 11.979,5.173 17.793,8.143 1.946,0.999 3.897,1.99 5.846,2.983 C -0.508,0.289 -0.184,0.447 0,0" /></g><g
           transform="translate(682.7853,108.3803)"
           id="g92"><path
             id="path94"
             style="fill:#231f20;fill-opacity:1;fill-rule:nonzero;stroke:none"
             d="m 0,0 c 0.148,0.511 0.48,0.626 0.756,0.761 6.318,3.085 12.339,6.739 18.703,9.732 0.411,0.194 1.021,0.835 1.325,0.184 0.225,-0.48 -0.628,-0.59 -1.021,-0.799 C 14.367,7 8.966,4.137 3.56,1.287 2.469,0.712 1.376,0.125 0,0" /></g><g
           transform="translate(702.1779,110.1676)"
           id="g96"><path
             id="path98"
             style="fill:#231f20;fill-opacity:1;fill-rule:nonzero;stroke:none"
             d="m 0,0 c -0.015,-0.47 -0.355,-0.582 -0.626,-0.748 -2.175,-1.336 -4.517,-2.342 -6.81,-3.448 -2.059,-0.993 -4.109,-1.999 -6.173,-2.977 -0.257,-0.123 -0.656,-0.465 -0.855,-0.077 -0.192,0.376 0.319,0.496 0.557,0.669 2.206,1.612 4.767,2.562 7.163,3.823 1.905,1.001 3.83,1.966 5.748,2.952 C -0.585,0.403 -0.202,0.531 0,0" /></g><g
           transform="translate(484.6159,111.2526)"
           id="g100"><path
             id="path102"
             style="fill:#231f20;fill-opacity:1;fill-rule:nonzero;stroke:none"
             d="m 0,0 c -0.069,0.797 -0.049,1.351 -0.174,1.872 -1.672,6.905 -4.305,13.493 -6.708,20.158 -1.218,3.379 -2.411,6.775 -2.865,10.363 -0.299,2.36 -0.422,4.722 0.653,6.962 1.037,2.16 2.73,3.603 4.934,4.451 1.313,0.505 2.612,0.183 3.877,-0.276 3.13,-1.137 5.298,-3.432 7.226,-6.019 0.575,-0.769 1.208,-1.489 1.816,-2.232 0.082,0.036 0.163,0.071 0.248,0.107 -0.13,1.55 -0.217,3.105 -0.399,4.65 -0.375,3.172 -0.214,6.247 1.502,9.058 1.591,2.605 3.8,4.548 6.599,5.743 2.89,1.234 5.656,0.733 8.128,-1.085 0.797,-0.587 1.471,-1.504 1.89,-2.413 1.598,-3.483 2.676,-7.11 2.959,-10.978 0.228,-3.108 0.751,-6.196 1.104,-9.296 0.114,-1.001 0.091,-2.017 0.143,-3.023 0.015,-0.286 0.076,-0.57 0.344,-0.871 0.1,0.209 0.21,0.414 0.299,0.626 1.816,4.326 3.488,8.715 5.483,12.957 2.03,4.318 6.718,6.29 11.187,5.046 3.364,-0.937 5.634,-3.902 5.797,-7.679 0.141,-3.179 -0.871,-6.075 -2.285,-8.866 -0.274,-0.534 -0.432,-1.126 -0.644,-1.691 0.09,-0.056 0.176,-0.112 0.266,-0.166 0.888,0.718 1.769,1.446 2.663,2.156 2,1.588 4.265,2.328 6.803,1.894 3.185,-0.544 5.529,-3.955 4.816,-7.375 -1.121,-5.39 -2.249,-10.802 -3.797,-16.08 -3.258,-11.103 -7.314,-21.928 -12.086,-32.475 -0.246,-0.546 -0.452,-1.113 -0.728,-1.642 -0.646,-1.223 -0.702,-2.4 -0.386,-3.805 0.404,-1.79 0.363,-3.69 0.434,-5.547 0.159,-4.254 0.253,-8.513 0.417,-12.77 0.033,-0.889 -0.269,-1.436 -1.017,-1.944 -1.629,-1.105 -3.432,-1.586 -5.347,-1.657 -4.883,-0.184 -9.768,-0.378 -14.653,-0.447 -4.671,-0.064 -9.344,-0.008 -14.015,0.061 -1.887,0.028 -3.779,0.187 -5.661,0.368 -1.706,0.166 -2.406,0.881 -2.584,2.582 -0.509,4.829 -1.037,9.655 -1.456,14.494 -0.199,2.263 -1.073,4.017 -2.962,5.312 -6.282,4.3 -11.693,9.52 -16.116,15.708 -1.714,2.398 -3.2,4.987 -4.549,7.612 -1.43,2.784 -1.335,5.731 -0.104,8.606 1.077,2.518 3.291,3.774 6.001,3.45 2.155,-0.258 4.111,-0.945 5.975,-2.153 C -4.847,2.37 -2.508,1.325 0,0 m 14.313,12.452 c -0.293,0.521 -0.651,0.97 -0.817,1.481 -0.552,1.708 -1.072,3.427 -1.537,5.161 -1.732,6.458 -4.377,12.474 -8.473,17.806 -1.282,1.671 -2.735,3.042 -4.931,3.387 -1.89,0.296 -2.998,-0.263 -3.795,-2.018 -0.736,-1.626 -0.986,-3.343 -0.644,-5.084 0.506,-2.564 1.001,-5.138 1.711,-7.648 1.298,-4.607 2.804,-9.153 4.112,-13.754 1.185,-4.178 2.288,-8.384 3.286,-12.61 0.475,-2.01 0.427,-2.094 2.485,-2.352 1.563,-0.194 3.156,-0.35 4.653,-0.8 1.3,-0.39 2.507,-1.131 3.71,-1.797 0.511,-0.284 0.664,-0.833 0.325,-1.4 -0.271,-0.457 -0.626,-0.462 -1.032,-0.179 -2.36,1.653 -5.12,2.061 -7.865,2.442 -3.159,0.436 -6.127,1.32 -8.872,3.013 -2.089,1.287 -4.262,2.459 -6.494,3.478 -1.287,0.585 -2.748,0.968 -4.157,1.075 -2.316,0.171 -3.404,-1.236 -3.065,-3.531 0.575,-3.89 2.444,-7.209 4.674,-10.33 3.079,-4.311 7.02,-7.845 10.822,-11.486 2.357,-2.258 5.018,-4.112 7.863,-5.713 0.646,-0.365 1.277,-0.845 1.754,-1.41 0.932,-1.1 2.079,-1.56 3.486,-1.585 2.523,-0.044 5.051,-0.062 7.572,-0.223 7.929,-0.505 15.827,-0.25 23.7,0.83 0.881,0.123 1.415,0.409 1.826,1.275 2.745,5.756 4.928,11.726 6.946,17.765 2.262,6.778 4.548,13.55 6.895,20.302 1.274,3.665 2.543,7.337 3.008,11.198 0.253,2.109 0.317,4.282 0.123,6.394 -0.172,1.857 -1.785,2.723 -3.627,2.35 -1.537,-0.312 -2.862,-1.035 -3.884,-2.199 -1.601,-1.823 -3.286,-3.603 -4.647,-5.6 -1.803,-2.648 -3.338,-5.48 -4.962,-8.249 -0.552,-0.937 -0.807,-1.018 -1.589,-0.449 -0.551,0.398 -0.204,0.769 -0.056,1.149 2.975,7.669 5.984,15.322 6.959,23.586 0.281,2.37 -0.771,4.665 -2.778,5.61 -1.903,0.894 -4.038,0.35 -5.626,-1.624 -2.171,-2.702 -3.739,-5.789 -4.883,-9.025 -1.672,-4.719 -3.069,-9.532 -4.586,-14.305 -0.432,-1.349 -0.822,-2.715 -1.343,-4.03 -0.136,-0.334 -0.697,-0.495 -1.063,-0.738 -0.173,0.33 -0.464,0.649 -0.503,0.991 -0.26,2.385 -0.47,4.773 -0.687,7.16 -0.349,3.831 -0.715,7.661 -1.026,11.497 -0.332,4.086 -0.503,8.187 -1.504,12.189 -0.562,2.249 -1.239,4.44 -2.832,6.213 -1.561,1.734 -3.348,2.022 -5.34,0.845 -3.141,-1.851 -4.54,-4.704 -4.658,-8.256 -0.189,-5.853 0.381,-11.663 1.047,-17.462 0.427,-3.695 0.871,-7.39 1.315,-11.083 0.102,-0.86 0.064,-1.652 -0.996,-2.257 m -6.578,-44.83 c -0.031,-0.664 -0.123,-1.2 -0.069,-1.724 0.488,-4.673 0.996,-9.343 1.509,-14.014 0.097,-0.886 0.557,-1.461 1.52,-1.502 0.883,-0.035 1.764,-0.099 2.648,-0.12 10.457,-0.242 20.876,0.649 31.308,1.149 0.306,0.016 0.674,0.35 0.871,0.634 0.204,0.293 0.263,0.702 0.342,1.07 0.776,3.72 0.697,7.464 0.255,11.208 -0.148,1.231 -0.439,2.444 -0.669,3.695 -12.63,-1.951 -25.095,-1.491 -37.715,-0.396" /></g><g
           transform="translate(511.7603,101.7341)"
           id="g104"><path
             id="path106"
             style="fill:#231f20;fill-opacity:1;fill-rule:nonzero;stroke:none"
             d="m 0,0 c 1.693,2.275 3.828,4.086 6.213,5.58 2.296,1.435 4.671,2.74 7,4.121 0.697,0.414 1.297,0.253 2.015,-0.196 C 13.698,8.657 12.209,7.921 10.812,7.038 7.812,5.138 4.655,3.463 2.079,0.942 1.565,0.437 0.827,0.158 0.194,-0.222 0.13,-0.148 0.066,-0.074 0,0" /></g></g></g></g></svg>