<svg xmlns="http://www.w3.org/2000/svg" xmlns:xlink="http://www.w3.org/1999/xlink" width="1080" zoomAndPan="magnify" viewBox="0 0 810 809.999993" height="1080" preserveAspectRatio="xMidYMid meet" version="1.0"><defs><clipPath id="85e9d731cb"><path d="M 357 89.203125 L 453 89.203125 L 453 193 L 357 193 Z M 357 89.203125 " clip-rule="nonzero"/></clipPath><clipPath id="a5c808bce3"><path d="M 357 588 L 453 588 L 453 691.453125 L 357 691.453125 Z M 357 588 " clip-rule="nonzero"/></clipPath><clipPath id="61e788075f"><path d="M 103.898438 207 L 198 207 L 198 310 L 103.898438 310 Z M 103.898438 207 " clip-rule="nonzero"/></clipPath><clipPath id="ff397bf430"><path d="M 611 207 L 706.148438 207 L 706.148438 310 L 611 310 Z M 611 207 " clip-rule="nonzero"/></clipPath><clipPath id="0bfde8e727"><path d="M 103.898438 476 L 198 476 L 198 580 L 103.898438 580 Z M 103.898438 476 " clip-rule="nonzero"/></clipPath><clipPath id="92343ccadd"><path d="M 611 476 L 706.148438 476 L 706.148438 580 L 611 580 Z M 611 476 " clip-rule="nonzero"/></clipPath></defs><rect x="-81" width="972" fill="#ffffff" y="-80.999999" height="971.999992" fill-opacity="1"/><rect x="-81" width="972" fill="#ffffff" y="-80.999999" height="971.999992" fill-opacity="1"/><path fill="#5ce1e6" d="M 522.609375 312.671875 L 414.402344 251.511719 C 408.757812 248.21875 401.703125 248.21875 396.054688 251.511719 L 287.847656 312.671875 C 281.734375 315.964844 278.441406 322.550781 278.441406 329.136719 L 278.441406 451.457031 C 278.441406 458.515625 282.203125 464.632812 287.847656 467.925781 C 287.847656 467.925781 396.054688 529.085938 396.054688 529.085938 C 401.703125 532.378906 408.757812 532.378906 414.402344 529.085938 L 522.609375 467.925781 C 528.726562 464.632812 532.019531 458.042969 532.019531 451.457031 L 532.019531 329.136719 C 532.019531 322.550781 528.253906 315.964844 522.609375 312.671875 Z M 513.199219 451.457031 L 404.996094 512.617188 L 296.789062 451.457031 L 296.789062 329.136719 L 404.996094 267.976562 L 513.199219 329.136719 Z M 513.199219 451.457031 " fill-opacity="1" fill-rule="nonzero"/><path fill="#5ce1e6" d="M 447.335938 414.761719 L 447.335938 440.636719 L 362.652344 440.636719 L 362.652344 414.761719 C 362.652344 404.882812 370.179688 396.882812 379.589844 395.472656 C 373.472656 391.710938 367.828125 387.003906 363.59375 381.359375 C 351.832031 387.945312 343.835938 400.648438 343.835938 414.761719 L 343.835938 440.636719 C 343.835938 450.988281 352.300781 459.457031 362.652344 459.457031 L 447.335938 459.457031 C 457.6875 459.457031 466.15625 450.988281 466.15625 440.636719 L 466.15625 414.761719 C 466.15625 400.648438 458.15625 387.945312 446.394531 381.359375 C 442.160156 387.003906 436.515625 391.710938 430.398438 395.472656 C 439.808594 396.886719 447.335938 404.882812 447.335938 414.761719 Z M 447.335938 414.761719 " fill-opacity="1" fill-rule="nonzero"/><path fill="#5ce1e6" d="M 372.0625 350.308594 C 372.0625 368.65625 386.644531 383.242188 404.996094 383.242188 C 423.34375 383.242188 437.925781 368.65625 437.925781 350.308594 C 437.925781 331.960938 423.34375 317.375 404.996094 317.375 C 386.644531 317.375 372.0625 331.960938 372.0625 350.308594 Z M 404.996094 336.195312 C 412.992188 336.195312 419.109375 342.3125 419.109375 350.308594 C 419.109375 358.308594 412.992188 364.421875 404.996094 364.421875 C 396.996094 364.421875 390.878906 358.308594 390.878906 350.308594 C 390.878906 342.3125 396.996094 336.195312 404.996094 336.195312 Z M 404.996094 336.195312 " fill-opacity="1" fill-rule="nonzero"/><g clip-path="url(#85e9d731cb)"><path fill="#5ce1e6" d="M 362.652344 170.121094 C 362.652344 170.121094 400.289062 191.292969 400.289062 191.292969 C 403.113281 192.703125 406.875 192.703125 409.699219 191.292969 L 447.335938 170.121094 C 450.160156 168.242188 452.039062 165.417969 452.039062 162.125 L 452.039062 119.78125 C 452.039062 116.488281 450.160156 113.195312 447.335938 111.785156 L 409.699219 90.613281 C 406.875 89.203125 403.113281 89.203125 400.289062 90.613281 L 362.652344 111.785156 C 359.832031 113.667969 357.949219 116.488281 357.949219 119.78125 L 357.949219 162.125 C 357.949219 165.417969 359.832031 168.710938 362.652344 170.121094 Z M 376.765625 125.429688 L 404.996094 109.433594 L 433.222656 125.429688 L 433.222656 156.949219 L 404.996094 172.945312 L 376.765625 156.949219 Z M 376.765625 125.429688 " fill-opacity="1" fill-rule="nonzero"/></g><g clip-path="url(#a5c808bce3)"><path fill="#5ce1e6" d="M 447.335938 610.472656 L 409.699219 589.304688 C 406.875 587.890625 403.113281 587.890625 400.289062 589.304688 L 362.652344 610.472656 C 359.832031 612.355469 357.949219 615.179688 357.949219 618.472656 L 357.949219 660.8125 C 357.949219 664.105469 359.832031 667.402344 362.652344 668.8125 C 362.652344 668.8125 400.289062 689.984375 400.289062 689.984375 C 403.113281 691.394531 406.875 691.394531 409.699219 689.984375 L 447.335938 668.8125 C 450.160156 666.929688 452.039062 664.105469 452.039062 660.8125 L 452.039062 618.472656 C 452.039062 615.179688 450.160156 611.886719 447.335938 610.472656 Z M 433.222656 655.167969 L 404.996094 671.164062 L 376.765625 655.167969 L 376.765625 623.648438 L 404.996094 607.652344 L 433.222656 623.648438 Z M 433.222656 655.167969 " fill-opacity="1" fill-rule="nonzero"/></g><path fill="#5ce1e6" d="M 253.976562 304.203125 L 225.75 290.089844 C 221.042969 287.738281 215.398438 289.621094 213.046875 294.324219 C 210.695312 299.027344 212.574219 304.675781 217.28125 307.027344 C 217.28125 307.027344 245.507812 321.140625 245.507812 321.140625 C 250.210938 323.492188 255.859375 321.609375 258.210938 316.90625 C 260.09375 312.203125 258.210938 306.554688 253.976562 304.203125 Z M 253.976562 304.203125 " fill-opacity="1" fill-rule="nonzero"/><path fill="#5ce1e6" d="M 584.242188 290.089844 L 556.011719 304.203125 C 551.308594 306.554688 549.425781 312.203125 551.777344 316.90625 C 554.132812 321.609375 559.777344 323.492188 564.480469 321.140625 L 592.707031 307.027344 C 597.414062 304.675781 599.296875 299.027344 596.941406 294.324219 C 594.589844 289.621094 588.945312 287.738281 584.242188 290.089844 Z M 584.242188 290.089844 " fill-opacity="1" fill-rule="nonzero"/><path fill="#5ce1e6" d="M 245.507812 465.570312 L 217.28125 479.6875 C 212.574219 482.039062 210.695312 487.683594 213.046875 492.386719 C 215.398438 497.09375 221.042969 498.976562 225.75 496.621094 L 253.976562 482.507812 C 258.679688 480.15625 260.5625 474.511719 258.210938 469.804688 C 255.859375 465.101562 250.210938 463.21875 245.507812 465.570312 Z M 245.507812 465.570312 " fill-opacity="1" fill-rule="nonzero"/><path fill="#5ce1e6" d="M 592.707031 479.6875 L 564.480469 465.570312 C 559.777344 463.21875 554.132812 465.101562 551.777344 469.804688 C 549.425781 474.511719 551.308594 480.15625 556.011719 482.507812 C 556.011719 482.507812 584.242188 496.621094 584.242188 496.621094 C 588.945312 498.976562 594.589844 497.09375 596.941406 492.386719 C 598.824219 487.683594 596.941406 482.039062 592.707031 479.6875 Z M 592.707031 479.6875 " fill-opacity="1" fill-rule="nonzero"/><path fill="#5ce1e6" d="M 395.585938 211.523438 L 395.585938 230.339844 C 395.585938 235.515625 399.820312 239.75 404.996094 239.75 C 410.167969 239.75 414.402344 235.515625 414.402344 230.339844 L 414.402344 211.523438 C 414.402344 206.347656 410.167969 202.113281 404.996094 202.113281 C 399.820312 202.113281 395.585938 206.347656 395.585938 211.523438 Z M 395.585938 211.523438 " fill-opacity="1" fill-rule="nonzero"/><path fill="#5ce1e6" d="M 414.402344 569.074219 L 414.402344 550.253906 C 414.402344 545.082031 410.167969 540.847656 404.996094 540.847656 C 399.820312 540.847656 395.585938 545.082031 395.585938 550.253906 L 395.585938 569.074219 C 395.585938 574.25 399.820312 578.484375 404.996094 578.484375 C 410.167969 578.484375 414.402344 574.25 414.402344 569.074219 Z M 414.402344 569.074219 " fill-opacity="1" fill-rule="nonzero"/><g clip-path="url(#61e788075f)"><path fill="#5ce1e6" d="M 193.285156 229.398438 L 155.648438 208.230469 C 152.828125 206.816406 149.0625 206.816406 146.242188 208.230469 L 108.601562 229.398438 C 105.78125 231.28125 103.898438 234.105469 103.898438 237.398438 L 103.898438 279.738281 C 103.898438 283.03125 105.78125 286.328125 108.601562 287.738281 C 108.601562 287.738281 146.242188 308.910156 146.242188 308.910156 C 149.0625 310.320312 152.828125 310.320312 155.648438 308.910156 L 193.285156 287.738281 C 196.109375 285.855469 197.992188 283.03125 197.992188 279.738281 L 197.992188 237.398438 C 197.992188 234.105469 196.109375 230.8125 193.285156 229.398438 Z M 179.171875 274.09375 L 150.945312 290.089844 L 122.71875 274.09375 L 122.71875 242.574219 L 150.945312 226.578125 L 179.171875 242.574219 Z M 179.171875 274.09375 " fill-opacity="1" fill-rule="nonzero"/></g><g clip-path="url(#ff397bf430)"><path fill="#5ce1e6" d="M 701.386719 229.398438 L 663.75 208.230469 C 660.925781 206.816406 657.160156 206.816406 654.339844 208.230469 L 616.703125 229.398438 C 613.878906 231.28125 611.996094 234.105469 611.996094 237.398438 L 611.996094 279.738281 C 611.996094 283.03125 613.878906 286.328125 616.703125 287.738281 C 616.703125 287.738281 654.339844 308.910156 654.339844 308.910156 C 657.160156 310.320312 660.925781 310.320312 663.75 308.910156 L 701.386719 287.738281 C 704.207031 285.855469 706.089844 283.03125 706.089844 279.738281 L 706.089844 237.398438 C 706.089844 234.105469 704.207031 230.8125 701.386719 229.398438 Z M 687.273438 274.09375 L 659.042969 290.089844 L 630.816406 274.09375 L 630.816406 242.574219 L 659.042969 226.578125 L 687.273438 242.574219 Z M 687.273438 274.09375 " fill-opacity="1" fill-rule="nonzero"/></g><g clip-path="url(#0bfde8e727)"><path fill="#5ce1e6" d="M 193.285156 498.503906 L 155.648438 477.332031 C 152.828125 475.921875 149.0625 475.921875 146.242188 477.332031 L 108.601562 498.503906 C 105.78125 500.386719 103.898438 503.210938 103.898438 506.503906 L 103.898438 548.84375 C 103.898438 552.136719 105.78125 555.429688 108.601562 556.84375 C 108.601562 556.84375 146.242188 578.011719 146.242188 578.011719 C 149.0625 579.425781 152.828125 579.425781 155.648438 578.011719 L 193.285156 556.84375 C 196.109375 554.960938 197.992188 552.136719 197.992188 548.84375 L 197.992188 506.503906 C 197.992188 503.210938 196.109375 500.386719 193.285156 498.503906 Z M 179.171875 543.667969 L 150.945312 559.664062 L 122.71875 543.667969 L 122.71875 512.148438 L 150.945312 496.152344 L 179.171875 512.148438 Z M 179.171875 543.667969 " fill-opacity="1" fill-rule="nonzero"/></g><g clip-path="url(#92343ccadd)"><path fill="#5ce1e6" d="M 701.386719 498.503906 L 663.75 477.332031 C 660.925781 475.921875 657.160156 475.921875 654.339844 477.332031 L 616.703125 498.503906 C 613.878906 500.386719 611.996094 503.210938 611.996094 506.503906 L 611.996094 548.84375 C 611.996094 552.136719 613.878906 555.429688 616.703125 556.84375 C 616.703125 556.84375 654.339844 578.011719 654.339844 578.011719 C 657.160156 579.425781 660.925781 579.425781 663.75 578.011719 L 701.386719 556.84375 C 704.207031 554.960938 706.089844 552.136719 706.089844 548.84375 L 706.089844 506.503906 C 706.089844 503.210938 704.207031 500.386719 701.386719 498.503906 Z M 687.273438 543.667969 L 659.042969 559.664062 L 630.816406 543.667969 L 630.816406 512.148438 L 659.042969 496.152344 L 687.273438 512.148438 Z M 687.273438 543.667969 " fill-opacity="1" fill-rule="nonzero"/></g></svg>