<svg version="1.0" preserveAspectRatio="xMidYMid meet" viewBox="51.84 79.379999314 526.5 610.739994722" zoomAndPan="magnify" xmlns:xlink="http://www.w3.org/1999/xlink" xmlns="http://www.w3.org/2000/svg" style="max-height: 500px" width="526.5" height="610.739994722"><defs><clipPath id="35aacedf96"><path clip-rule="nonzero" d="M 64.617188 594 L 173 594 L 173 682.5 L 64.617188 682.5 Z M 64.617188 594"/></clipPath><clipPath id="59565dff1e"><path clip-rule="nonzero" d="M 193 520 L 302 520 L 302 682.5 L 193 682.5 Z M 193 520"/></clipPath><clipPath id="a7199698e0"><path clip-rule="nonzero" d="M 321 445 L 430 445 L 430 682.5 L 321 682.5 Z M 321 445"/></clipPath><clipPath id="c6d260adfb"><path clip-rule="nonzero" d="M 450 370 L 558.867188 370 L 558.867188 682.5 L 450 682.5 Z M 450 370"/></clipPath></defs><rect fill-opacity="1" height="971.999992" y="-80.999999" fill="#ffffff" width="972" x="-81"/><rect fill-opacity="1" height="971.999992" y="-80.999999" fill="#ffffff" width="972" x="-81"/><path fill-rule="nonzero" fill-opacity="1" d="M 248.667969 532.96875 C 233.46875 532.96875 221.101562 520.601562 221.101562 505.402344 L 221.101562 255.734375 L 173.746094 215.113281 C 164.542969 207.214844 158.457031 196.265625 156.617188 184.273438 L 145.125 109.464844 C 143.175781 96.792969 151.492188 84.863281 164.054688 82.308594 C 170.335938 81.027344 176.738281 82.269531 182.085938 85.808594 C 187.433594 89.34375 191.082031 94.75 192.359375 101.03125 L 206.507812 170.488281 C 207.601562 175.855469 210.492188 180.777344 214.652344 184.347656 L 222.609375 191.171875 C 232.378906 199.550781 244.839844 204.03125 257.714844 203.796875 L 295.226562 203.105469 C 306.769531 202.886719 317.804688 207.726562 325.480469 216.359375 L 355.003906 249.574219 C 356.136719 250.851562 357.699219 251.609375 359.402344 251.710938 C 361.101562 251.808594 362.75 251.242188 364.023438 250.105469 L 388.015625 228.78125 C 392.722656 224.597656 398.773438 222.5 405.054688 222.871094 C 411.339844 223.238281 417.101562 226.035156 421.285156 230.738281 C 429.917969 240.453125 429.039062 255.375 419.328125 264.007812 L 385.792969 293.8125 C 368.972656 308.765625 343.164062 307.246094 328.234375 290.449219 L 316.960938 277.765625 L 316.960938 322.722656 L 335.027344 322.722656 C 357.519531 322.722656 375.8125 341.019531 375.8125 363.507812 L 375.8125 434.972656 C 375.8125 447.976562 365.234375 458.554688 352.234375 458.554688 C 339.230469 458.554688 328.652344 447.976562 328.652344 434.972656 L 328.652344 379.0625 C 328.652344 376.417969 326.503906 374.269531 323.859375 374.269531 L 276.234375 374.269531 L 276.234375 505.402344 C 276.234375 520.601562 263.867188 532.96875 248.667969 532.96875 Z M 168.847656 94.578125 C 168.105469 94.578125 167.351562 94.652344 166.597656 94.804688 C 160.714844 96.003906 156.816406 101.59375 157.730469 107.53125 L 169.222656 182.339844 C 170.601562 191.316406 175.15625 199.519531 182.050781 205.433594 L 231.628906 247.964844 C 233.042969 249.175781 233.855469 250.941406 233.855469 252.804688 L 233.855469 505.402344 C 233.855469 513.570312 240.5 520.214844 248.667969 520.214844 C 256.835938 520.214844 263.480469 513.570312 263.480469 505.402344 L 263.480469 367.894531 C 263.480469 364.371094 266.335938 361.515625 269.855469 361.515625 L 323.859375 361.515625 C 333.535156 361.515625 341.40625 369.386719 341.40625 379.0625 L 341.40625 434.972656 C 341.40625 440.945312 346.261719 445.800781 352.234375 445.800781 C 358.203125 445.800781 363.058594 440.945312 363.058594 434.972656 L 363.058594 363.507812 C 363.058594 348.050781 350.484375 335.476562 335.027344 335.476562 L 310.585938 335.476562 C 307.0625 335.476562 304.207031 332.621094 304.207031 329.097656 L 304.207031 260.996094 C 304.207031 258.347656 305.84375 255.976562 308.320312 255.035156 C 310.792969 254.09375 313.59375 254.78125 315.351562 256.757812 L 337.765625 281.976562 C 342.734375 287.566406 349.582031 290.886719 357.050781 291.328125 C 364.515625 291.765625 371.707031 289.273438 377.296875 284.304688 L 410.855469 254.476562 C 415.308594 250.515625 415.710938 243.667969 411.75 239.210938 C 407.792969 234.757812 400.941406 234.355469 396.488281 238.3125 L 372.496094 259.640625 C 368.675781 263.035156 363.757812 264.742188 358.652344 264.441406 C 353.546875 264.140625 348.867188 261.871094 345.46875 258.046875 L 315.945312 224.835938 C 310.75 218.988281 303.296875 215.707031 295.457031 215.859375 L 257.945312 216.546875 C 241.949219 216.835938 226.449219 211.269531 214.304688 200.851562 L 206.347656 194.027344 C 200.046875 188.621094 195.664062 181.167969 194.007812 173.035156 L 179.863281 103.578125 C 178.777344 98.257812 174.078125 94.578125 168.847656 94.578125 Z M 168.847656 94.578125" fill="#dfc7c5"/><path fill-rule="nonzero" fill-opacity="1" d="M 273.015625 187.109375 C 248.785156 187.109375 229.070312 167.398438 229.070312 143.164062 C 229.070312 118.933594 248.785156 99.222656 273.015625 99.222656 C 297.246094 99.222656 316.960938 118.933594 316.960938 143.164062 C 316.960938 167.398438 297.246094 187.109375 273.015625 187.109375 Z M 273.015625 111.972656 C 255.816406 111.972656 241.824219 125.964844 241.824219 143.164062 C 241.824219 160.363281 255.816406 174.355469 273.015625 174.355469 C 290.214844 174.355469 304.207031 160.363281 304.207031 143.164062 C 304.207031 125.964844 290.214844 111.972656 273.015625 111.972656 Z M 273.015625 111.972656" fill="#dfc7c5"/><g clip-path="url(#35aacedf96)"><path fill-rule="nonzero" fill-opacity="1" d="M 166.320312 682.449219 L 71.085938 682.449219 C 67.5625 682.449219 64.707031 679.59375 64.707031 676.074219 L 64.707031 601.332031 C 64.707031 597.8125 67.5625 594.957031 71.085938 594.957031 L 166.320312 594.957031 C 169.839844 594.957031 172.695312 597.8125 172.695312 601.332031 L 172.695312 676.074219 C 172.695312 679.59375 169.839844 682.449219 166.320312 682.449219 Z M 77.460938 669.695312 L 159.941406 669.695312 L 159.941406 607.710938 L 77.460938 607.710938 Z M 77.460938 669.695312" fill="#dfc7c5"/></g><g clip-path="url(#59565dff1e)"><path fill-rule="nonzero" fill-opacity="1" d="M 294.921875 682.449219 L 199.6875 682.449219 C 196.164062 682.449219 193.308594 679.59375 193.308594 676.074219 L 193.308594 526.59375 C 193.308594 523.070312 196.164062 520.214844 199.6875 520.214844 L 294.921875 520.214844 C 298.441406 520.214844 301.296875 523.070312 301.296875 526.59375 L 301.296875 676.074219 C 301.296875 679.59375 298.441406 682.449219 294.921875 682.449219 Z M 206.0625 669.695312 L 288.542969 669.695312 L 288.542969 532.96875 L 206.0625 532.96875 Z M 206.0625 669.695312" fill="#dfc7c5"/></g><g clip-path="url(#a7199698e0)"><path fill-rule="nonzero" fill-opacity="1" d="M 423.523438 682.449219 L 328.289062 682.449219 C 324.769531 682.449219 321.914062 679.59375 321.914062 676.074219 L 321.914062 451.851562 C 321.914062 448.332031 324.769531 445.476562 328.289062 445.476562 L 423.523438 445.476562 C 427.042969 445.476562 429.898438 448.332031 429.898438 451.851562 L 429.898438 676.074219 C 429.898438 679.59375 427.042969 682.449219 423.523438 682.449219 Z M 334.664062 669.695312 L 417.148438 669.695312 L 417.148438 458.230469 L 334.664062 458.230469 Z M 334.664062 669.695312" fill="#dfc7c5"/></g><g clip-path="url(#c6d260adfb)"><path fill-rule="nonzero" fill-opacity="1" d="M 552.125 682.449219 L 456.890625 682.449219 C 453.367188 682.449219 450.515625 679.59375 450.515625 676.074219 L 450.515625 377.113281 C 450.515625 373.589844 453.367188 370.734375 456.890625 370.734375 L 552.125 370.734375 C 555.644531 370.734375 558.5 373.589844 558.5 377.113281 L 558.5 676.074219 C 558.5 679.59375 555.644531 682.449219 552.125 682.449219 Z M 463.265625 669.695312 L 545.746094 669.695312 L 545.746094 383.488281 L 463.265625 383.488281 Z M 463.265625 669.695312" fill="#dfc7c5"/></g></svg>