<svg version="1.0" preserveAspectRatio="xMidYMid meet" viewBox="76.14 118.259998978 675.54 633.419994526" zoomAndPan="magnify" xmlns:xlink="http://www.w3.org/1999/xlink" xmlns="http://www.w3.org/2000/svg" style="max-height: 500px" width="675.54" height="633.419994526"><defs><clipPath id="119b54d0ee"><path clip-rule="nonzero" d="M 88.863281 218 L 187 218 L 187 441 L 88.863281 441 Z M 88.863281 218"/></clipPath><clipPath id="c1195f18ce"><path clip-rule="nonzero" d="M 380 134.59375 L 677 134.59375 L 677 343 L 380 343 Z M 380 134.59375"/></clipPath><clipPath id="2e0363cea0"><path clip-rule="nonzero" d="M 696 443 L 742.863281 443 L 742.863281 492 L 696 492 Z M 696 443"/></clipPath></defs><rect fill-opacity="1" height="971.999992" y="-80.999999" fill="#ffffff" width="972" x="-81"/><rect fill-opacity="1" height="971.999992" y="-80.999999" fill="#ffffff" width="972" x="-81"/><g clip-path="url(#119b54d0ee)"><path fill-rule="nonzero" fill-opacity="1" d="M 92.011719 440.019531 C 90.277344 440.019531 88.875 438.613281 88.875 436.882812 C 88.875 425.300781 89.539062 413.632812 90.84375 402.199219 C 91.039062 400.476562 92.59375 399.242188 94.316406 399.4375 C 96.039062 399.636719 97.273438 401.191406 97.078125 402.910156 C 95.796875 414.109375 95.148438 425.539062 95.148438 436.882812 C 95.148438 438.613281 93.746094 440.019531 92.011719 440.019531 Z M 99.828125 371.816406 C 99.59375 371.816406 99.351562 371.789062 99.113281 371.734375 C 97.425781 371.339844 96.375 369.652344 96.769531 367.964844 C 99.394531 356.71875 102.703125 345.507812 106.609375 334.644531 C 107.195312 333.015625 108.992188 332.167969 110.625 332.753906 C 112.253906 333.339844 113.101562 335.136719 112.515625 336.765625 C 108.691406 347.402344 105.449219 358.378906 102.878906 369.390625 C 102.542969 370.839844 101.253906 371.816406 99.828125 371.816406 Z M 123.042969 307.21875 C 122.574219 307.21875 122.097656 307.113281 121.648438 306.890625 C 120.097656 306.121094 119.464844 304.238281 120.234375 302.6875 C 125.363281 292.355469 131.15625 282.203125 137.449219 272.511719 C 138.394531 271.058594 140.335938 270.648438 141.789062 271.589844 C 143.242188 272.535156 143.65625 274.476562 142.710938 275.929688 C 136.546875 285.421875 130.878906 295.359375 125.855469 305.476562 C 125.308594 306.578125 124.195312 307.21875 123.042969 307.21875 Z M 160.425781 249.652344 C 159.722656 249.652344 159.011719 249.414062 158.429688 248.933594 C 157.09375 247.828125 156.90625 245.851562 158.007812 244.515625 C 165.359375 235.621094 173.308594 227.050781 181.628906 219.050781 C 182.878906 217.847656 184.863281 217.886719 186.066406 219.136719 C 187.265625 220.386719 187.226562 222.371094 185.976562 223.574219 C 177.828125 231.410156 170.046875 239.800781 162.84375 248.511719 C 162.226562 249.261719 161.328125 249.652344 160.425781 249.652344 Z M 160.425781 249.652344" fill="#a6a6a6"/></g><path fill-rule="nonzero" fill-opacity="1" d="M 376.585938 738.699219 C 376.539062 738.699219 376.488281 738.699219 376.4375 738.695312 C 364.875 738.148438 353.253906 736.925781 341.886719 735.066406 C 340.179688 734.785156 339.019531 733.171875 339.296875 731.464844 C 339.578125 729.753906 341.191406 728.59375 342.902344 728.875 C 354.03125 730.695312 365.414062 731.890625 376.734375 732.429688 C 378.464844 732.511719 379.800781 733.980469 379.71875 735.710938 C 379.640625 737.390625 378.25 738.699219 376.585938 738.699219 Z M 410.960938 738.390625 C 409.320312 738.390625 407.941406 737.117188 407.832031 735.460938 C 407.71875 733.730469 409.027344 732.238281 410.757812 732.121094 C 422.058594 731.378906 433.414062 729.976562 444.503906 727.953125 C 446.210938 727.640625 447.84375 728.769531 448.15625 730.472656 C 448.464844 732.179688 447.335938 733.8125 445.632812 734.125 C 434.304688 736.191406 422.707031 737.625 411.167969 738.382812 C 411.097656 738.386719 411.027344 738.390625 410.960938 738.390625 Z M 308.847656 727.605469 C 308.5625 727.605469 308.273438 727.566406 307.984375 727.484375 C 296.882812 724.320312 285.847656 720.46875 275.183594 716.035156 C 273.585938 715.371094 272.828125 713.535156 273.492188 711.9375 C 274.15625 710.335938 275.992188 709.578125 277.59375 710.242188 C 288.035156 714.582031 298.839844 718.351562 309.707031 721.453125 C 311.371094 721.925781 312.335938 723.664062 311.863281 725.328125 C 311.46875 726.707031 310.210938 727.605469 308.847656 727.605469 Z M 478.464844 726.0625 C 477.121094 726.0625 475.878906 725.191406 475.464844 723.839844 C 474.960938 722.183594 475.894531 720.429688 477.550781 719.921875 C 488.355469 716.625 499.089844 712.65625 509.445312 708.125 C 511.035156 707.433594 512.882812 708.15625 513.578125 709.742188 C 514.273438 711.332031 513.546875 713.179688 511.960938 713.875 C 501.378906 718.5 490.417969 722.554688 479.382812 725.921875 C 479.078125 726.015625 478.769531 726.0625 478.464844 726.0625 Z M 541.355469 698.574219 C 540.273438 698.574219 539.222656 698.015625 538.640625 697.015625 C 537.769531 695.519531 538.277344 693.597656 539.773438 692.726562 C 549.53125 687.039062 559.074219 680.71875 568.132812 673.941406 C 569.519531 672.902344 571.484375 673.1875 572.523438 674.574219 C 573.558594 675.960938 573.277344 677.929688 571.890625 678.964844 C 562.640625 685.886719 552.898438 692.339844 542.929688 698.148438 C 542.433594 698.4375 541.890625 698.574219 541.355469 698.574219 Z M 541.355469 698.574219" fill="#a6a6a6"/><g clip-path="url(#c1195f18ce)"><path fill-rule="nonzero" fill-opacity="1" d="M 673.859375 342.671875 C 672.554688 342.671875 671.339844 341.855469 670.890625 340.554688 C 667.21875 329.878906 662.875 319.296875 657.988281 309.105469 C 657.242188 307.542969 657.898438 305.671875 659.460938 304.921875 C 661.023438 304.171875 662.898438 304.832031 663.648438 306.394531 C 668.636719 316.800781 673.070312 327.609375 676.824219 338.511719 C 677.386719 340.152344 676.515625 341.9375 674.878906 342.5 C 674.539062 342.617188 674.195312 342.671875 673.859375 342.671875 Z M 644.207031 280.816406 C 643.164062 280.816406 642.144531 280.296875 641.550781 279.351562 C 635.53125 269.796875 628.886719 260.484375 621.800781 251.671875 C 620.714844 250.320312 620.929688 248.347656 622.28125 247.261719 C 623.632812 246.175781 625.605469 246.390625 626.691406 247.742188 C 633.925781 256.742188 640.710938 266.25 646.859375 276.007812 C 647.78125 277.472656 647.34375 279.410156 645.875 280.332031 C 645.355469 280.660156 644.777344 280.816406 644.207031 280.816406 Z M 601.222656 227.328125 C 600.425781 227.328125 599.628906 227.027344 599.019531 226.421875 C 590.976562 218.472656 582.390625 210.90625 573.5 203.933594 C 572.136719 202.863281 571.898438 200.890625 572.964844 199.527344 C 574.035156 198.164062 576.007812 197.925781 577.371094 198.996094 C 586.449219 206.117188 595.214844 213.84375 603.425781 221.960938 C 604.660156 223.175781 604.671875 225.164062 603.453125 226.394531 C 602.839844 227.015625 602.03125 227.328125 601.222656 227.328125 Z M 547.210938 184.96875 C 546.652344 184.96875 546.085938 184.820312 545.574219 184.507812 C 535.925781 178.589844 525.84375 173.171875 515.601562 168.414062 C 514.027344 167.683594 513.347656 165.816406 514.078125 164.246094 C 514.808594 162.675781 516.671875 161.992188 518.242188 162.722656 C 528.703125 167.585938 539.003906 173.113281 548.855469 179.160156 C 550.332031 180.066406 550.792969 181.996094 549.886719 183.472656 C 549.296875 184.4375 548.265625 184.96875 547.210938 184.96875 Z M 484.953125 156.039062 C 484.625 156.039062 484.292969 155.988281 483.96875 155.882812 C 473.234375 152.332031 462.171875 149.375 451.089844 147.09375 C 449.394531 146.742188 448.304688 145.082031 448.652344 143.386719 C 449.003906 141.691406 450.660156 140.597656 452.359375 140.949219 C 463.675781 143.28125 474.972656 146.300781 485.9375 149.925781 C 487.582031 150.46875 488.472656 152.242188 487.929688 153.886719 C 487.496094 155.207031 486.269531 156.039062 484.953125 156.039062 Z M 417.726562 142.167969 C 417.632812 142.167969 417.539062 142.164062 417.445312 142.15625 C 408.722656 141.386719 399.839844 140.996094 391.035156 140.996094 C 388.515625 140.996094 385.964844 141.027344 383.445312 141.089844 C 381.722656 141.121094 380.277344 139.765625 380.230469 138.03125 C 380.1875 136.300781 381.558594 134.859375 383.289062 134.816406 C 385.859375 134.753906 388.464844 134.71875 391.035156 134.71875 C 400.023438 134.71875 409.09375 135.121094 417.996094 135.90625 C 419.722656 136.058594 421 137.582031 420.84375 139.308594 C 420.703125 140.941406 419.332031 142.167969 417.726562 142.167969 Z M 417.726562 142.167969" fill="#a6a6a6"/></g><path fill-rule="nonzero" fill-opacity="1" d="M 610.585938 436.882812 C 610.585938 440.476562 610.496094 444.066406 610.320312 447.65625 C 610.144531 451.242188 609.878906 454.824219 609.527344 458.402344 C 609.175781 461.976562 608.734375 465.542969 608.207031 469.097656 C 607.679688 472.652344 607.066406 476.191406 606.367188 479.714844 C 605.664062 483.238281 604.878906 486.742188 604.003906 490.226562 C 603.132812 493.714844 602.175781 497.175781 601.132812 500.613281 C 600.089844 504.050781 598.960938 507.460938 597.75 510.84375 C 596.539062 514.230469 595.246094 517.578125 593.871094 520.898438 C 592.496094 524.21875 591.042969 527.503906 589.507812 530.75 C 587.96875 534 586.355469 537.207031 584.660156 540.375 C 582.96875 543.546875 581.195312 546.671875 579.347656 549.753906 C 577.503906 552.835938 575.582031 555.867188 573.585938 558.855469 C 571.589844 561.84375 569.519531 564.78125 567.378906 567.667969 C 565.238281 570.550781 563.027344 573.382812 560.75 576.160156 C 558.46875 578.9375 556.125 581.660156 553.710938 584.320312 C 551.296875 586.984375 548.820312 589.585938 546.28125 592.125 C 543.738281 594.667969 541.136719 597.144531 538.476562 599.554688 C 535.8125 601.96875 533.09375 604.316406 530.316406 606.59375 C 527.539062 608.875 524.707031 611.085938 521.820312 613.226562 C 518.933594 615.363281 516 617.433594 513.011719 619.429688 C 510.023438 621.425781 506.988281 623.347656 503.90625 625.195312 C 500.824219 627.042969 497.699219 628.8125 494.53125 630.507812 C 491.363281 632.199219 488.152344 633.816406 484.90625 635.351562 C 481.65625 636.886719 478.375 638.34375 475.054688 639.71875 C 471.734375 641.09375 468.382812 642.386719 465 643.597656 C 461.617188 644.808594 458.207031 645.933594 454.769531 646.976562 C 451.328125 648.019531 447.867188 648.976562 444.382812 649.851562 C 440.898438 650.722656 437.390625 651.511719 433.867188 652.210938 C 430.34375 652.914062 426.804688 653.527344 423.25 654.054688 C 419.695312 654.582031 416.132812 655.019531 412.554688 655.375 C 408.980469 655.726562 405.398438 655.988281 401.808594 656.164062 C 398.21875 656.34375 394.628906 656.429688 391.035156 656.429688 C 387.445312 656.429688 383.851562 656.34375 380.265625 656.164062 C 376.675781 655.988281 373.09375 655.726562 369.515625 655.375 C 365.941406 655.019531 362.375 654.582031 358.820312 654.054688 C 355.269531 653.527344 351.730469 652.914062 348.203125 652.210938 C 344.679688 651.511719 341.175781 650.722656 337.691406 649.851562 C 334.207031 648.976562 330.742188 648.019531 327.304688 646.976562 C 323.867188 645.933594 320.457031 644.808594 317.074219 643.597656 C 313.691406 642.386719 310.339844 641.09375 307.019531 639.71875 C 303.699219 638.34375 300.414062 636.886719 297.167969 635.351562 C 293.917969 633.816406 290.710938 632.199219 287.542969 630.507812 C 284.375 628.8125 281.246094 627.042969 278.164062 625.195312 C 275.082031 623.347656 272.050781 621.425781 269.0625 619.429688 C 266.074219 617.433594 263.136719 615.363281 260.25 613.226562 C 257.367188 611.085938 254.535156 608.875 251.757812 606.59375 C 248.980469 604.316406 246.257812 601.96875 243.597656 599.554688 C 240.933594 597.144531 238.332031 594.667969 235.792969 592.125 C 233.25 589.585938 230.773438 586.984375 228.363281 584.320312 C 225.949219 581.660156 223.601562 578.9375 221.324219 576.160156 C 219.042969 573.382812 216.832031 570.550781 214.691406 567.667969 C 212.554688 564.78125 210.484375 561.84375 208.488281 558.855469 C 206.492188 555.867188 204.570312 552.835938 202.722656 549.753906 C 200.875 546.671875 199.105469 543.546875 197.410156 540.375 C 195.71875 537.207031 194.101562 534 192.566406 530.75 C 191.03125 527.503906 189.574219 524.21875 188.199219 520.898438 C 186.824219 517.578125 185.53125 514.230469 184.320312 510.84375 C 183.109375 507.460938 181.984375 504.050781 180.941406 500.613281 C 179.898438 497.175781 178.941406 493.714844 178.066406 490.226562 C 177.195312 486.742188 176.40625 483.238281 175.707031 479.714844 C 175.003906 476.191406 174.390625 472.652344 173.863281 469.097656 C 173.335938 465.542969 172.898438 461.976562 172.546875 458.402344 C 172.191406 454.824219 171.929688 451.242188 171.753906 447.65625 C 171.574219 444.066406 171.488281 440.476562 171.488281 436.882812 C 171.488281 433.289062 171.574219 429.699219 171.753906 426.109375 C 171.929688 422.519531 172.191406 418.9375 172.546875 415.363281 C 172.898438 411.785156 173.335938 408.222656 173.863281 404.667969 C 174.390625 401.113281 175.003906 397.574219 175.707031 394.050781 C 176.40625 390.527344 177.195312 387.019531 178.066406 383.535156 C 178.941406 380.050781 179.898438 376.589844 180.941406 373.148438 C 181.984375 369.710938 183.109375 366.300781 184.320312 362.917969 C 185.53125 359.535156 186.824219 356.183594 188.199219 352.863281 C 189.574219 349.542969 191.03125 346.261719 192.566406 343.011719 C 194.101562 339.765625 195.71875 336.554688 197.410156 333.386719 C 199.105469 330.21875 200.875 327.09375 202.722656 324.011719 C 204.570312 320.929688 206.492188 317.894531 208.488281 314.90625 C 210.484375 311.917969 212.554688 308.984375 214.691406 306.097656 C 216.832031 303.210938 219.042969 300.378906 221.324219 297.601562 C 223.601562 294.824219 225.949219 292.105469 228.363281 289.441406 C 230.773438 286.78125 233.25 284.179688 235.792969 281.636719 C 238.332031 279.097656 240.933594 276.621094 243.597656 274.207031 C 246.257812 271.792969 248.980469 269.449219 251.757812 267.167969 C 254.535156 264.890625 257.367188 262.679688 260.25 260.539062 C 263.136719 258.398438 266.074219 256.328125 269.0625 254.332031 C 272.050781 252.335938 275.085938 250.414062 278.164062 248.570312 C 281.246094 246.722656 284.375 244.949219 287.542969 243.257812 C 290.710938 241.5625 293.917969 239.949219 297.167969 238.414062 C 300.414062 236.875 303.699219 235.421875 307.019531 234.046875 C 310.339844 232.671875 313.691406 231.378906 317.074219 230.167969 C 320.457031 228.957031 323.867188 227.828125 327.304688 226.785156 C 330.742188 225.742188 334.207031 224.785156 337.691406 223.914062 C 341.175781 223.039062 344.679688 222.253906 348.203125 221.550781 C 351.730469 220.851562 355.269531 220.238281 358.820312 219.710938 C 362.375 219.183594 365.941406 218.742188 369.515625 218.390625 C 373.09375 218.039062 376.675781 217.773438 380.265625 217.597656 C 383.851562 217.421875 387.445312 217.332031 391.035156 217.332031 C 394.628906 217.332031 398.21875 217.421875 401.808594 217.597656 C 405.398438 217.773438 408.980469 218.039062 412.554688 218.390625 C 416.132812 218.742188 419.695312 219.183594 423.25 219.710938 C 426.804688 220.238281 430.34375 220.851562 433.867188 221.550781 C 437.390625 222.253906 440.898438 223.039062 444.382812 223.914062 C 447.867188 224.785156 451.328125 225.742188 454.769531 226.785156 C 458.207031 227.828125 461.617188 228.957031 465 230.167969 C 468.382812 231.378906 471.734375 232.671875 475.054688 234.046875 C 478.375 235.421875 481.65625 236.875 484.90625 238.414062 C 488.152344 239.949219 491.363281 241.5625 494.53125 243.257812 C 497.699219 244.949219 500.824219 246.722656 503.90625 248.570312 C 506.988281 250.414062 510.023438 252.335938 513.011719 254.332031 C 516 256.328125 518.933594 258.398438 521.820312 260.539062 C 524.707031 262.679688 527.539062 264.890625 530.316406 267.167969 C 533.09375 269.449219 535.8125 271.792969 538.476562 274.207031 C 541.136719 276.621094 543.738281 279.097656 546.28125 281.636719 C 548.820312 284.179688 551.296875 286.78125 553.710938 289.441406 C 556.125 292.105469 558.46875 294.824219 560.75 297.601562 C 563.027344 300.378906 565.238281 303.210938 567.378906 306.097656 C 569.519531 308.984375 571.589844 311.917969 573.585938 314.90625 C 575.582031 317.894531 577.503906 320.929688 579.347656 324.011719 C 581.195312 327.09375 582.96875 330.21875 584.660156 333.386719 C 586.355469 336.554688 587.96875 339.765625 589.507812 343.011719 C 591.042969 346.261719 592.496094 349.542969 593.871094 352.863281 C 595.246094 356.183594 596.539062 359.535156 597.75 362.917969 C 598.960938 366.300781 600.089844 369.710938 601.132812 373.148438 C 602.175781 376.589844 603.132812 380.050781 604.003906 383.535156 C 604.878906 387.019531 605.664062 390.527344 606.367188 394.050781 C 607.066406 397.574219 607.679688 401.113281 608.207031 404.667969 C 608.734375 408.222656 609.175781 411.785156 609.527344 415.363281 C 609.878906 418.9375 610.144531 422.519531 610.320312 426.109375 C 610.496094 429.699219 610.585938 433.289062 610.585938 436.882812 Z M 610.585938 436.882812" fill="#a9fcde"/><path fill-rule="nonzero" fill-opacity="1" d="M 426.164062 261.398438 C 426.164062 263.25 426.121094 265.097656 426.027344 266.945312 C 425.9375 268.792969 425.800781 270.636719 425.621094 272.476562 C 425.4375 274.316406 425.214844 276.152344 424.941406 277.980469 C 424.671875 279.808594 424.355469 281.632812 423.992188 283.445312 C 423.632812 285.257812 423.226562 287.0625 422.777344 288.855469 C 422.328125 290.652344 421.835938 292.433594 421.296875 294.203125 C 420.761719 295.972656 420.183594 297.726562 419.558594 299.46875 C 418.9375 301.210938 418.269531 302.933594 417.5625 304.644531 C 416.855469 306.351562 416.105469 308.042969 415.316406 309.714844 C 414.523438 311.386719 413.691406 313.039062 412.820312 314.667969 C 411.949219 316.300781 411.039062 317.90625 410.085938 319.492188 C 409.136719 321.082031 408.148438 322.640625 407.121094 324.179688 C 406.09375 325.71875 405.027344 327.230469 403.925781 328.714844 C 402.824219 330.199219 401.6875 331.65625 400.515625 333.085938 C 399.339844 334.515625 398.132812 335.917969 396.890625 337.285156 C 395.648438 338.65625 394.375 339.996094 393.066406 341.304688 C 391.757812 342.613281 390.421875 343.886719 389.050781 345.128906 C 387.679688 346.371094 386.28125 347.578125 384.851562 348.75 C 383.421875 349.925781 381.964844 351.0625 380.476562 352.164062 C 378.992188 353.265625 377.480469 354.328125 375.941406 355.355469 C 374.40625 356.382812 372.84375 357.375 371.257812 358.324219 C 369.671875 359.273438 368.0625 360.1875 366.429688 361.058594 C 364.800781 361.929688 363.148438 362.761719 361.476562 363.550781 C 359.804688 364.34375 358.113281 365.09375 356.40625 365.800781 C 354.699219 366.507812 352.972656 367.171875 351.230469 367.796875 C 349.492188 368.417969 347.734375 369 345.964844 369.535156 C 344.195312 370.074219 342.414062 370.566406 340.621094 371.015625 C 338.824219 371.464844 337.023438 371.871094 335.207031 372.230469 C 333.394531 372.589844 331.574219 372.90625 329.742188 373.179688 C 327.914062 373.449219 326.078125 373.675781 324.238281 373.855469 C 322.398438 374.039062 320.554688 374.175781 318.707031 374.265625 C 316.859375 374.355469 315.011719 374.402344 313.164062 374.402344 C 311.3125 374.402344 309.464844 374.355469 307.617188 374.265625 C 305.769531 374.175781 303.925781 374.039062 302.085938 373.855469 C 300.246094 373.675781 298.410156 373.449219 296.582031 373.179688 C 294.753906 372.90625 292.929688 372.589844 291.117188 372.230469 C 289.304688 371.871094 287.5 371.464844 285.707031 371.015625 C 283.910156 370.566406 282.128906 370.074219 280.359375 369.535156 C 278.589844 369 276.835938 368.417969 275.09375 367.796875 C 273.351562 367.171875 271.628906 366.507812 269.917969 365.800781 C 268.210938 365.09375 266.519531 364.34375 264.847656 363.550781 C 263.175781 362.761719 261.523438 361.929688 259.894531 361.058594 C 258.261719 360.1875 256.652344 359.273438 255.066406 358.324219 C 253.480469 357.375 251.917969 356.382812 250.382812 355.355469 C 248.84375 354.328125 247.332031 353.265625 245.847656 352.164062 C 244.363281 351.0625 242.90625 349.925781 241.476562 348.75 C 240.046875 347.578125 238.644531 346.371094 237.273438 345.128906 C 235.90625 343.886719 234.566406 342.613281 233.257812 341.304688 C 231.949219 339.996094 230.675781 338.65625 229.433594 337.285156 C 228.191406 335.917969 226.984375 334.515625 225.8125 333.085938 C 224.636719 331.65625 223.5 330.199219 222.398438 328.714844 C 221.296875 327.230469 220.230469 325.71875 219.203125 324.179688 C 218.175781 322.640625 217.1875 321.082031 216.238281 319.492188 C 215.285156 317.90625 214.375 316.300781 213.503906 314.667969 C 212.632812 313.039062 211.800781 311.386719 211.011719 309.714844 C 210.21875 308.042969 209.46875 306.351562 208.761719 304.644531 C 208.054688 302.933594 207.390625 301.210938 206.765625 299.46875 C 206.144531 297.726562 205.5625 295.972656 205.027344 294.203125 C 204.488281 292.433594 203.996094 290.652344 203.546875 288.855469 C 203.097656 287.0625 202.691406 285.257812 202.332031 283.445312 C 201.972656 281.632812 201.65625 279.808594 201.382812 277.980469 C 201.113281 276.152344 200.886719 274.316406 200.703125 272.476562 C 200.523438 270.636719 200.386719 268.792969 200.296875 266.945312 C 200.207031 265.097656 200.160156 263.25 200.160156 261.398438 C 200.160156 259.550781 200.207031 257.703125 200.296875 255.855469 C 200.386719 254.007812 200.523438 252.164062 200.703125 250.324219 C 200.886719 248.484375 201.113281 246.648438 201.382812 244.820312 C 201.65625 242.988281 201.972656 241.167969 202.332031 239.355469 C 202.691406 237.539062 203.097656 235.734375 203.546875 233.941406 C 203.996094 232.148438 204.488281 230.367188 205.027344 228.597656 C 205.5625 226.828125 206.144531 225.070312 206.765625 223.332031 C 207.390625 221.589844 208.054688 219.863281 208.761719 218.15625 C 209.46875 216.445312 210.21875 214.757812 211.011719 213.085938 C 211.800781 211.414062 212.632812 209.761719 213.503906 208.128906 C 214.375 206.5 215.285156 204.890625 216.238281 203.304688 C 217.1875 201.71875 218.175781 200.15625 219.203125 198.617188 C 220.230469 197.082031 221.296875 195.570312 222.398438 194.085938 C 223.5 192.597656 224.636719 191.140625 225.8125 189.710938 C 226.984375 188.28125 228.191406 186.882812 229.433594 185.511719 C 230.675781 184.140625 231.949219 182.800781 233.257812 181.496094 C 234.566406 180.1875 235.90625 178.914062 237.273438 177.671875 C 238.644531 176.429688 240.046875 175.222656 241.476562 174.046875 C 242.90625 172.875 244.363281 171.738281 245.847656 170.636719 C 247.332031 169.535156 248.84375 168.46875 250.382812 167.441406 C 251.917969 166.414062 253.480469 165.425781 255.066406 164.472656 C 256.652344 163.523438 258.261719 162.613281 259.894531 161.742188 C 261.523438 160.867188 263.175781 160.039062 264.847656 159.246094 C 266.519531 158.457031 268.210938 157.707031 269.917969 157 C 271.628906 156.292969 273.351562 155.625 275.09375 155.003906 C 276.835938 154.378906 278.589844 153.800781 280.359375 153.261719 C 282.128906 152.726562 283.910156 152.234375 285.707031 151.785156 C 287.5 151.335938 289.304688 150.929688 291.117188 150.570312 C 292.929688 150.207031 294.753906 149.890625 296.582031 149.621094 C 298.410156 149.347656 300.246094 149.121094 302.085938 148.941406 C 303.925781 148.761719 305.769531 148.625 307.617188 148.535156 C 309.464844 148.441406 311.3125 148.398438 313.164062 148.398438 C 315.011719 148.398438 316.859375 148.441406 318.707031 148.535156 C 320.554688 148.625 322.398438 148.761719 324.238281 148.941406 C 326.078125 149.121094 327.914062 149.347656 329.742188 149.621094 C 331.574219 149.890625 333.394531 150.207031 335.207031 150.570312 C 337.023438 150.929688 338.824219 151.335938 340.621094 151.785156 C 342.414062 152.234375 344.195312 152.726562 345.964844 153.261719 C 347.734375 153.800781 349.492188 154.378906 351.230469 155.003906 C 352.972656 155.625 354.699219 156.292969 356.40625 157 C 358.113281 157.707031 359.804688 158.457031 361.476562 159.246094 C 363.148438 160.039062 364.800781 160.867188 366.429688 161.742188 C 368.0625 162.613281 369.671875 163.523438 371.257812 164.472656 C 372.84375 165.425781 374.40625 166.414062 375.941406 167.441406 C 377.480469 168.46875 378.992188 169.535156 380.476562 170.636719 C 381.964844 171.738281 383.421875 172.875 384.851562 174.046875 C 386.28125 175.222656 387.679688 176.429688 389.050781 177.671875 C 390.421875 178.914062 391.757812 180.1875 393.066406 181.496094 C 394.375 182.800781 395.648438 184.140625 396.890625 185.511719 C 398.132812 186.882812 399.339844 188.28125 400.515625 189.710938 C 401.6875 191.140625 402.824219 192.597656 403.925781 194.085938 C 405.027344 195.570312 406.09375 197.082031 407.121094 198.617188 C 408.148438 200.15625 409.136719 201.71875 410.085938 203.304688 C 411.039062 204.890625 411.949219 206.5 412.820312 208.128906 C 413.691406 209.761719 414.523438 211.414062 415.316406 213.085938 C 416.105469 214.757812 416.855469 216.445312 417.5625 218.15625 C 418.269531 219.863281 418.9375 221.589844 419.558594 223.332031 C 420.183594 225.070312 420.761719 226.828125 421.296875 228.597656 C 421.835938 230.367188 422.328125 232.148438 422.777344 233.941406 C 423.226562 235.734375 423.632812 237.539062 423.992188 239.355469 C 424.355469 241.167969 424.671875 242.988281 424.941406 244.820312 C 425.214844 246.648438 425.4375 248.484375 425.621094 250.324219 C 425.800781 252.164062 425.9375 254.007812 426.027344 255.855469 C 426.121094 257.703125 426.164062 259.550781 426.164062 261.398438 Z M 426.164062 261.398438" fill="#ffffff"/><path fill-rule="nonzero" fill-opacity="1" d="M 313.164062 377.539062 C 297.484375 377.539062 282.273438 374.46875 267.953125 368.410156 C 254.125 362.5625 241.703125 354.1875 231.039062 343.523438 C 220.375 332.859375 212 320.4375 206.152344 306.605469 C 200.09375 292.285156 197.023438 277.078125 197.023438 261.398438 C 197.023438 245.722656 200.09375 230.511719 206.152344 216.191406 C 212 202.363281 220.375 189.941406 231.039062 179.277344 C 241.703125 168.613281 254.125 160.238281 267.953125 154.390625 C 282.273438 148.332031 297.484375 145.261719 313.164062 145.261719 C 328.839844 145.261719 344.050781 148.332031 358.371094 154.390625 C 372.199219 160.238281 384.621094 168.613281 395.285156 179.277344 C 405.949219 189.941406 414.324219 202.363281 420.171875 216.191406 C 426.230469 230.511719 429.300781 245.722656 429.300781 261.398438 C 429.300781 277.078125 426.230469 292.285156 420.171875 306.605469 C 414.324219 320.4375 405.949219 332.855469 395.285156 343.523438 C 384.621094 354.1875 372.199219 362.5625 358.371094 368.410156 C 344.050781 374.46875 328.839844 377.539062 313.164062 377.539062 Z M 313.164062 151.535156 C 252.582031 151.535156 203.296875 200.820312 203.296875 261.398438 C 203.296875 321.980469 252.582031 371.265625 313.164062 371.265625 C 373.742188 371.265625 423.027344 321.980469 423.027344 261.398438 C 423.027344 200.820312 373.742188 151.535156 313.164062 151.535156 Z M 313.164062 151.535156" fill="#a6a6a6"/><path fill-rule="nonzero" fill-opacity="1" d="M 414.992188 181.957031 C 405.476562 172.4375 390.054688 172.4375 380.535156 181.957031 L 304.554688 257.9375 L 276.332031 229.71875 C 266.8125 220.203125 251.390625 220.203125 241.875 229.71875 C 232.359375 239.230469 232.359375 254.65625 241.875 264.171875 L 285.257812 307.554688 C 290.546875 312.839844 297.648438 315.082031 304.554688 314.492188 C 311.460938 315.082031 318.5625 312.839844 323.847656 307.554688 L 414.992188 216.414062 C 424.507812 206.898438 424.507812 191.476562 414.992188 181.957031 Z M 414.992188 181.957031" fill="#ff94e3"/><path fill-rule="nonzero" fill-opacity="1" d="M 302.402344 317.722656 C 295.113281 317.722656 288.160156 314.894531 283.042969 309.773438 L 239.65625 266.390625 C 228.933594 255.664062 228.933594 238.21875 239.65625 227.5 C 250.378906 216.777344 267.828125 216.777344 278.550781 227.5 L 304.554688 253.5 L 378.316406 179.738281 C 389.039062 169.015625 406.488281 169.015625 417.210938 179.738281 C 427.929688 190.460938 427.929688 207.910156 417.210938 218.632812 L 326.066406 309.773438 C 320.445312 315.394531 312.617188 318.253906 304.554688 317.640625 C 303.835938 317.695312 303.117188 317.722656 302.402344 317.722656 Z M 259.101562 225.730469 C 253.667969 225.730469 248.230469 227.800781 244.09375 231.9375 C 235.816406 240.210938 235.816406 253.675781 244.09375 261.957031 L 287.476562 305.335938 C 291.851562 309.710938 297.976562 311.90625 304.289062 311.367188 C 304.464844 311.351562 304.644531 311.351562 304.824219 311.367188 C 311.132812 311.90625 317.257812 309.710938 321.632812 305.335938 L 412.777344 214.199219 C 421.046875 205.921875 421.046875 192.453125 412.773438 184.175781 C 404.5 175.898438 391.03125 175.898438 382.753906 184.175781 L 306.773438 260.15625 C 305.546875 261.378906 303.5625 261.378906 302.335938 260.15625 L 274.113281 231.9375 C 269.976562 227.800781 264.539062 225.730469 259.101562 225.730469 Z M 259.101562 225.730469" fill="#a6a6a6"/><path fill-rule="nonzero" fill-opacity="1" d="M 603.363281 655.015625 L 603.363281 631.179688 L 690.898438 543.644531 C 698.890625 535.652344 698.890625 522.128906 690.898438 514.132812 C 682.902344 506.136719 669.9375 506.417969 661.945312 514.414062 L 622.664062 553.976562 C 608.082031 568.5625 587.53125 574.78125 567.050781 572.355469 C 565.429688 572.164062 529.632812 572.355469 529.632812 572.355469 C 509.148438 574.78125 488.601562 568.5625 474.015625 553.976562 L 434.738281 514.414062 C 426.742188 506.417969 413.78125 506.136719 405.785156 514.132812 C 397.789062 522.128906 397.789062 535.652344 405.785156 543.644531 L 449.550781 587.414062 L 493.320312 631.179688 L 493.320312 655.015625 Z M 603.363281 655.015625" fill="#ff94e3"/><path fill-rule="nonzero" fill-opacity="1" d="M 603.363281 658.152344 C 601.628906 658.152344 600.226562 656.746094 600.226562 655.015625 L 600.226562 631.183594 C 600.226562 630.351562 600.554688 629.550781 601.144531 628.964844 L 688.679688 541.429688 C 691.953125 538.152344 693.757812 533.699219 693.757812 528.890625 C 693.757812 524.078125 691.953125 519.625 688.679688 516.351562 C 685.488281 513.160156 681.242188 511.410156 676.699219 511.410156 C 676.621094 511.410156 676.542969 511.414062 676.460938 511.414062 C 671.832031 511.476562 667.464844 513.328125 664.164062 516.632812 L 624.890625 556.1875 C 612.0625 569.019531 594.515625 576.007812 575.738281 576.007812 C 572.757812 576.007812 569.75 575.832031 566.722656 575.476562 C 564.914062 575.355469 543.242188 575.421875 529.824219 575.492188 C 526.84375 575.839844 523.875 576.007812 520.941406 576.007812 C 502.164062 576.011719 484.621094 569.019531 471.796875 556.195312 L 432.511719 516.625 C 429.214844 513.328125 424.847656 511.476562 420.21875 511.414062 C 420.140625 511.414062 420.058594 511.410156 419.980469 511.410156 C 415.4375 511.410156 411.191406 513.160156 408.003906 516.351562 C 404.726562 519.625 402.925781 524.078125 402.925781 528.890625 C 402.925781 533.699219 404.726562 538.152344 408.003906 541.429688 L 495.539062 628.964844 C 496.125 629.550781 496.457031 630.347656 496.457031 631.179688 L 496.457031 655.015625 C 496.457031 656.746094 495.050781 658.152344 493.320312 658.152344 C 491.585938 658.152344 490.183594 656.746094 490.183594 655.015625 L 490.183594 632.480469 L 403.566406 545.863281 C 399.105469 541.40625 396.652344 535.375 396.652344 528.890625 C 396.652344 522.402344 399.105469 516.375 403.566406 511.914062 C 408.019531 507.460938 413.960938 505.0625 420.304688 505.140625 C 426.578125 505.222656 432.488281 507.730469 436.957031 512.195312 L 476.242188 551.765625 C 489.734375 565.257812 509.0625 571.632812 529.261719 569.242188 C 529.378906 569.226562 529.496094 569.21875 529.613281 569.21875 C 540.4375 569.160156 565.78125 569.046875 567.417969 569.242188 C 587.617188 571.628906 606.945312 565.257812 620.445312 551.757812 L 659.71875 512.203125 C 664.191406 507.730469 670.105469 505.222656 676.378906 505.140625 C 682.714844 505.054688 688.660156 507.460938 693.117188 511.914062 C 697.574219 516.375 700.03125 522.402344 700.03125 528.890625 C 700.03125 535.375 697.574219 541.40625 693.117188 545.863281 L 606.5 632.480469 L 606.5 655.015625 C 606.5 656.746094 605.09375 658.152344 603.363281 658.152344 Z M 603.363281 658.152344" fill="#a6a6a6"/><path fill-rule="nonzero" fill-opacity="1" d="M 582.746094 440.824219 C 591.085938 443.765625 597.535156 452.457031 597.535156 465.136719 L 597.535156 496.859375 L 498.886719 497.203125 L 498.886719 465.246094 C 498.886719 446.03125 512.742188 430.457031 529.835938 430.457031 L 585.203125 430.457031 C 585.203125 433.894531 584.460938 437.140625 583.144531 439.996094 Z M 582.746094 440.824219" fill="#c2dcf2"/><path fill-rule="nonzero" fill-opacity="1" d="M 498.886719 500.339844 C 498.054688 500.339844 497.257812 500.011719 496.671875 499.425781 C 496.082031 498.835938 495.75 498.039062 495.75 497.203125 L 495.75 465.246094 C 495.75 444.332031 511.039062 427.316406 529.835938 427.316406 L 585.203125 427.316406 C 586.035156 427.316406 586.835938 427.648438 587.421875 428.238281 C 588.011719 428.824219 588.34375 429.625 588.34375 430.457031 C 588.34375 433.496094 587.84375 436.429688 586.851562 439.203125 C 590.464844 441.109375 593.554688 443.980469 595.90625 447.628906 C 599.023438 452.476562 600.671875 458.53125 600.671875 465.136719 L 600.671875 496.859375 C 600.671875 498.585938 599.277344 499.988281 597.546875 499.996094 L 498.894531 500.339844 C 498.894531 500.339844 498.890625 500.339844 498.886719 500.339844 Z M 597.535156 496.859375 L 597.539062 496.859375 Z M 529.835938 433.59375 C 514.5 433.59375 502.023438 447.792969 502.023438 465.246094 L 502.023438 494.054688 L 594.398438 493.730469 L 594.398438 465.136719 C 594.398438 454.730469 589.535156 446.546875 581.699219 443.78125 C 580.066406 443.203125 579.210938 441.410156 579.785156 439.777344 C 579.878906 439.515625 580.003906 439.269531 580.15625 439.050781 C 580.195312 438.929688 580.242188 438.804688 580.296875 438.6875 C 581.03125 437.09375 581.542969 435.371094 581.824219 433.59375 Z M 529.835938 433.59375" fill="#a6a6a6"/><path fill-rule="nonzero" fill-opacity="1" d="M 585.804688 491.609375 L 585.804688 487.449219 C 585.804688 470.246094 571.859375 456.300781 554.652344 456.300781 L 541.804688 456.300781 C 524.601562 456.300781 510.652344 470.246094 510.652344 487.449219 L 510.652344 491.621094 C 502.109375 491.738281 495.214844 498.691406 495.214844 507.265625 C 495.214844 515.839844 502.109375 522.796875 510.652344 522.914062 L 510.652344 524.191406 C 510.652344 542.992188 525.894531 558.234375 544.699219 558.234375 L 551.761719 558.234375 C 570.5625 558.234375 585.804688 542.992188 585.804688 524.191406 L 585.804688 522.925781 C 594.453125 522.925781 601.464844 515.914062 601.464844 507.265625 C 601.464844 498.621094 594.453125 491.609375 585.804688 491.609375 Z M 585.804688 491.609375" fill="#ffffff"/><path fill-rule="nonzero" fill-opacity="1" d="M 551.761719 561.375 L 544.695312 561.375 C 524.722656 561.375 508.375 545.539062 507.550781 525.761719 C 503.753906 525.085938 500.261719 523.261719 497.5 520.464844 C 494.003906 516.929688 492.078125 512.242188 492.078125 507.265625 C 492.078125 502.292969 494.003906 497.605469 497.5 494.066406 C 500.253906 491.28125 503.730469 489.457031 507.515625 488.777344 L 507.515625 487.449219 C 507.515625 468.542969 522.898438 453.160156 541.804688 453.160156 L 554.65625 453.160156 C 573.5625 453.160156 588.945312 468.542969 588.945312 487.449219 L 588.945312 488.730469 C 597.820312 490.230469 604.601562 497.96875 604.601562 507.265625 C 604.601562 516.574219 597.800781 524.324219 588.910156 525.804688 C 588.058594 545.5625 571.722656 561.375 551.761719 561.375 Z M 541.804688 459.4375 C 526.359375 459.4375 513.789062 472.003906 513.789062 487.449219 L 513.789062 491.621094 C 513.789062 493.335938 512.414062 494.734375 510.699219 494.757812 C 503.890625 494.851562 498.351562 500.464844 498.351562 507.265625 C 498.351562 514.070312 503.890625 519.683594 510.699219 519.777344 C 512.414062 519.800781 513.789062 521.199219 513.789062 522.914062 L 513.789062 524.191406 C 513.789062 541.234375 527.65625 555.097656 544.695312 555.097656 L 551.761719 555.097656 C 568.804688 555.097656 582.667969 541.234375 582.667969 524.191406 L 582.667969 522.925781 C 582.667969 521.191406 584.074219 519.789062 585.804688 519.789062 C 592.710938 519.789062 598.328125 514.171875 598.328125 507.265625 C 598.328125 500.363281 592.710938 494.746094 585.804688 494.746094 C 584.074219 494.746094 582.667969 493.339844 582.667969 491.609375 L 582.667969 487.449219 C 582.667969 472.003906 570.101562 459.4375 554.652344 459.4375 Z M 541.804688 459.4375" fill="#a6a6a6"/><path fill-rule="nonzero" fill-opacity="1" d="M 356.8125 398.125 L 461.992188 398.125 L 461.992188 472.59375 L 356.8125 472.59375 Z M 356.8125 398.125" fill="#c2dcf2"/><path fill-rule="nonzero" fill-opacity="1" d="M 461.992188 475.730469 L 356.8125 475.730469 C 355.082031 475.730469 353.675781 474.328125 353.675781 472.59375 L 353.675781 398.125 C 353.675781 396.394531 355.082031 394.988281 356.8125 394.988281 C 358.546875 394.988281 359.949219 396.394531 359.949219 398.125 L 359.949219 469.457031 L 458.855469 469.457031 L 458.855469 398.125 C 458.855469 396.394531 460.261719 394.988281 461.992188 394.988281 C 463.726562 394.988281 465.128906 396.394531 465.128906 398.125 L 465.128906 472.59375 C 465.128906 474.328125 463.726562 475.730469 461.992188 475.730469 Z M 461.992188 475.730469" fill="#a6a6a6"/><path fill-rule="nonzero" fill-opacity="1" d="M 409.078125 461.34375 C 391.371094 447.960938 372.191406 449.632812 372.191406 449.632812 L 372.191406 389.417969 C 372.191406 389.417969 391.371094 387.746094 409.078125 401.128906 L 409.222656 401.128906 C 426.925781 387.746094 446.613281 389.417969 446.613281 389.417969 L 446.613281 449.632812 C 446.613281 449.632812 426.882812 448.015625 409.175781 461.394531 Z M 409.078125 461.34375" fill="#ffffff"/><path fill-rule="nonzero" fill-opacity="1" d="M 409.179688 464.53125 C 408.660156 464.53125 408.140625 464.402344 407.679688 464.152344 C 407.507812 464.066406 407.34375 463.964844 407.183594 463.84375 C 390.722656 451.402344 372.640625 452.746094 372.457031 452.761719 C 371.585938 452.832031 370.71875 452.535156 370.070312 451.941406 C 369.425781 451.347656 369.054688 450.511719 369.054688 449.632812 L 369.054688 389.417969 C 369.054688 387.792969 370.300781 386.4375 371.921875 386.292969 C 372.726562 386.222656 391.238281 384.777344 409.148438 397.304688 C 427.085938 384.78125 446.054688 386.222656 446.878906 386.292969 C 448.503906 386.429688 449.75 387.789062 449.75 389.417969 L 449.75 449.632812 C 449.75 450.511719 449.382812 451.347656 448.738281 451.941406 C 448.09375 452.535156 447.230469 452.832031 446.359375 452.761719 C 446.175781 452.746094 427.542969 451.445312 411.070312 463.898438 C 410.503906 464.324219 409.839844 464.53125 409.179688 464.53125 Z M 375.328125 446.433594 C 381.613281 446.550781 395.5625 448.007812 409.164062 457.527344 C 422.832031 448.011719 437.105469 446.5625 443.476562 446.4375 L 443.476562 392.507812 C 437.609375 392.652344 423.742188 394.085938 411.113281 403.628906 C 410.570312 404.042969 409.90625 404.265625 409.222656 404.265625 C 409.222656 404.265625 409.21875 404.265625 409.21875 404.265625 L 409.070312 404.265625 C 408.390625 404.265625 407.726562 404.042969 407.183594 403.628906 C 394.613281 394.128906 381.097656 392.667969 375.332031 392.511719 L 375.332031 446.433594 Z M 375.328125 446.433594" fill="#a6a6a6"/><path fill-rule="nonzero" fill-opacity="1" d="M 409.15625 464.53125 C 407.421875 464.53125 406.019531 463.128906 406.019531 461.394531 L 406.019531 401.332031 C 406.019531 399.601562 407.421875 398.195312 409.15625 398.195312 C 410.886719 398.195312 412.292969 399.601562 412.292969 401.332031 L 412.292969 461.394531 C 412.292969 463.128906 410.886719 464.53125 409.15625 464.53125 Z M 409.15625 464.53125" fill="#a6a6a6"/><path fill-rule="nonzero" fill-opacity="1" d="M 723.339844 458.824219 C 721.605469 458.824219 720.203125 457.417969 720.203125 455.683594 C 720.203125 455.230469 720.304688 454.78125 720.488281 454.375 C 720.980469 453.285156 722.078125 452.527344 723.351562 452.527344 C 725.082031 452.527344 726.488281 453.933594 726.488281 455.664062 C 726.488281 456.121094 726.386719 456.566406 726.199219 456.976562 C 725.707031 458.066406 724.613281 458.824219 723.339844 458.824219 Z M 723.339844 458.824219" fill="#a6a6a6"/><path fill-rule="nonzero" fill-opacity="1" d="M 706.875 467.675781 L 706.867188 467.675781 C 705.132812 467.675781 703.730469 466.273438 703.730469 464.539062 C 703.730469 462.808594 705.132812 461.402344 706.867188 461.402344 C 708.597656 461.402344 710.007812 462.808594 710.007812 464.539062 C 710.007812 466.273438 708.609375 467.675781 706.875 467.675781 Z M 706.875 467.675781" fill="#a6a6a6"/><path fill-rule="nonzero" fill-opacity="1" d="M 721.566406 441.203125 C 719.75 438.726562 717.179688 436.867188 714.144531 436.023438 L 699.308594 431.882812 C 691.914062 429.808594 686.125 424.234375 683.398438 417.125 C 682.300781 414.253906 681.699219 411.125 681.699219 407.886719 L 681.699219 374.109375 C 678.507812 374.109375 675.625 375.460938 673.539062 377.644531 C 671.445312 379.828125 670.152344 382.84375 670.152344 386.183594 L 670.152344 393.464844 L 644.054688 393.464844 C 641.242188 393.464844 638.960938 395.851562 638.960938 398.796875 L 638.960938 464.539062 L 706.867188 464.539062 C 708.738281 459.054688 713.753906 455.125 719.644531 455.125 C 720.933594 455.125 722.175781 455.320312 723.347656 455.664062 C 724.046875 453.9375 724.4375 452.027344 724.4375 450.039062 C 724.4375 446.757812 723.378906 443.671875 721.566406 441.203125 Z M 721.566406 441.203125" fill="#c2dcf2"/><path fill-rule="nonzero" fill-opacity="1" d="M 706.867188 467.675781 L 638.960938 467.675781 C 637.230469 467.675781 635.824219 466.273438 635.824219 464.539062 L 635.824219 398.796875 C 635.824219 394.128906 639.515625 390.328125 644.054688 390.328125 L 667.015625 390.328125 L 667.015625 386.183594 C 667.015625 382.136719 668.53125 378.332031 671.277344 375.472656 C 674.046875 372.574219 677.75 370.972656 681.699219 370.972656 C 683.433594 370.972656 684.835938 372.378906 684.835938 374.109375 L 684.835938 407.886719 C 684.835938 410.683594 685.339844 413.414062 686.328125 416.007812 C 688.746094 422.304688 693.914062 427.113281 700.152344 428.859375 L 714.988281 433.003906 C 718.652344 434.019531 721.800781 436.214844 724.09375 439.34375 C 726.335938 442.398438 727.574219 446.195312 727.574219 450.039062 C 727.574219 452.390625 727.132812 454.679688 726.257812 456.839844 C 725.652344 458.335938 724.011719 459.128906 722.464844 458.675781 C 721.539062 458.402344 720.589844 458.261719 719.644531 458.261719 C 715.265625 458.261719 711.324219 461.191406 709.835938 465.554688 C 709.402344 466.824219 708.207031 467.675781 706.867188 467.675781 Z M 642.097656 461.402344 L 704.78125 461.402344 C 707.609375 455.691406 713.332031 451.988281 719.644531 451.988281 C 720.140625 451.988281 720.636719 452.011719 721.128906 452.058594 C 721.242188 451.394531 721.300781 450.722656 721.300781 450.039062 C 721.300781 447.523438 720.496094 445.046875 719.039062 443.0625 C 719.035156 443.058594 719.035156 443.058594 719.035156 443.054688 C 717.582031 441.070312 715.597656 439.683594 713.300781 439.046875 L 698.464844 434.902344 C 690.320312 432.621094 683.59375 426.394531 680.46875 418.25 C 679.203125 414.9375 678.5625 411.449219 678.5625 407.886719 L 678.5625 377.886719 C 677.546875 378.324219 676.609375 378.972656 675.808594 379.8125 C 674.183594 381.503906 673.289062 383.765625 673.289062 386.183594 L 673.289062 393.464844 C 673.289062 395.199219 671.886719 396.601562 670.152344 396.601562 L 644.054688 396.601562 C 642.976562 396.601562 642.097656 397.585938 642.097656 398.796875 Z M 642.097656 461.402344" fill="#a6a6a6"/><path fill-rule="nonzero" fill-opacity="1" d="M 739.867188 467.449219 C 739.867188 479.144531 730.804688 488.617188 719.644531 488.617188 C 708.46875 488.617188 699.417969 479.144531 699.417969 467.449219 C 699.417969 464.9375 699.839844 462.546875 700.605469 460.308594 C 703.398438 452.136719 710.871094 446.28125 719.644531 446.28125 C 721.566406 446.28125 723.414062 446.566406 725.167969 447.085938 C 733.648438 449.613281 739.867188 457.78125 739.867188 467.449219 Z M 739.867188 467.449219" fill="#ff94e3"/><g clip-path="url(#2e0363cea0)"><path fill-rule="nonzero" fill-opacity="1" d="M 719.644531 491.753906 C 706.761719 491.753906 696.28125 480.851562 696.28125 467.449219 C 696.28125 464.664062 696.738281 461.917969 697.640625 459.289062 C 700.9375 449.632812 709.78125 443.144531 719.644531 443.144531 C 721.804688 443.144531 723.964844 443.457031 726.054688 444.078125 C 736.035156 447.046875 743.003906 456.660156 743.003906 467.449219 C 743.003906 480.851562 732.523438 491.753906 719.644531 491.753906 Z M 719.644531 449.417969 C 712.464844 449.417969 706.007812 454.203125 703.574219 461.320312 C 702.898438 463.296875 702.558594 465.355469 702.558594 467.449219 C 702.558594 477.390625 710.222656 485.480469 719.644531 485.480469 C 729.066406 485.480469 736.730469 477.390625 736.730469 467.449219 C 736.730469 459.414062 731.605469 452.277344 724.269531 450.09375 C 722.761719 449.644531 721.203125 449.417969 719.644531 449.417969 Z M 719.644531 449.417969" fill="#a6a6a6"/></g><path fill-rule="nonzero" fill-opacity="1" d="M 670.152344 467.449219 C 670.152344 479.144531 661.089844 488.617188 649.929688 488.617188 C 638.757812 488.617188 629.707031 479.144531 629.707031 467.449219 C 629.707031 464.9375 630.125 462.546875 630.894531 460.308594 C 633.683594 452.136719 641.15625 446.28125 649.929688 446.28125 C 651.855469 446.28125 653.703125 446.566406 655.453125 447.085938 C 663.9375 449.613281 670.152344 457.78125 670.152344 467.449219 Z M 670.152344 467.449219" fill="#ff94e3"/><path fill-rule="nonzero" fill-opacity="1" d="M 649.929688 491.753906 C 637.050781 491.753906 626.570312 480.851562 626.570312 467.449219 C 626.570312 464.664062 627.023438 461.917969 627.925781 459.289062 C 631.222656 449.632812 640.066406 443.144531 649.929688 443.144531 C 652.09375 443.144531 654.25 443.457031 656.34375 444.078125 C 666.324219 447.046875 673.289062 456.660156 673.289062 467.449219 C 673.289062 480.851562 662.8125 491.753906 649.929688 491.753906 Z M 649.929688 449.417969 C 642.75 449.417969 636.292969 454.203125 633.863281 461.320312 C 633.1875 463.296875 632.84375 465.355469 632.84375 467.449219 C 632.84375 477.390625 640.507812 485.480469 649.929688 485.480469 C 659.351562 485.480469 667.015625 477.390625 667.015625 467.449219 C 667.015625 459.414062 661.894531 452.277344 654.558594 450.09375 C 653.046875 449.644531 651.488281 449.417969 649.929688 449.417969 Z M 649.929688 449.417969" fill="#a6a6a6"/><path fill-rule="nonzero" fill-opacity="1" d="M 557.222656 381.027344 C 557.222656 381.027344 561.554688 379.027344 562.90625 368.898438 C 563.601562 363.707031 565.230469 358.671875 567.902344 354.167969 C 568.167969 353.722656 568.421875 353.292969 568.667969 352.890625 C 570.0625 350.609375 571.664062 348.472656 573.300781 346.359375 C 578.042969 340.222656 580.738281 332.300781 580.484375 323.933594 C 579.902344 305.035156 563.691406 289.984375 544.800781 290.722656 C 526.472656 291.445312 511.839844 306.527344 511.839844 325.027344 C 511.839844 333.101562 514.628906 340.582031 519.292969 346.453125 C 520.535156 348.011719 521.65625 349.652344 522.710938 351.34375 C 522.84375 351.550781 522.980469 351.777344 523.128906 352.015625 C 526.460938 357.515625 528.554688 363.648438 529.59375 369.992188 C 531.097656 379.171875 535.113281 381.023438 535.113281 381.023438 L 557.222656 381.023438 Z M 557.222656 381.027344" fill="#ffffff"/><path fill-rule="nonzero" fill-opacity="1" d="M 558.539062 383.875 L 555.910156 378.175781 C 555.910156 378.175781 555.855469 378.195312 555.765625 378.25 C 555.796875 378.230469 558.742188 376.382812 559.796875 368.484375 C 560.578125 362.65625 562.394531 357.300781 565.203125 352.566406 C 565.476562 352.109375 565.738281 351.667969 565.992188 351.257812 C 567.535156 348.730469 569.292969 346.414062 570.820312 344.4375 C 575.257812 338.699219 577.574219 331.453125 577.347656 324.03125 C 577.09375 315.753906 573.5625 308.035156 567.402344 302.289062 C 561.222656 296.527344 553.238281 293.535156 544.921875 293.859375 C 528.128906 294.519531 514.976562 308.210938 514.976562 325.027344 C 514.976562 332.085938 517.382812 339.003906 521.75 344.5 C 522.972656 346.039062 524.160156 347.734375 525.375 349.683594 C 525.511719 349.902344 525.65625 350.136719 525.808594 350.390625 C 529.21875 356.011719 531.535156 362.433594 532.691406 369.484375 C 533.847656 376.542969 536.542969 378.230469 536.570312 378.25 C 536.484375 378.195312 536.429688 378.175781 536.429688 378.175781 L 533.800781 383.875 C 532.878906 383.449219 528.1875 380.800781 526.5 370.5 C 525.472656 364.246094 523.4375 358.574219 520.445312 353.644531 C 520.308594 353.417969 520.175781 353.203125 520.050781 353.003906 C 518.964844 351.261719 517.914062 349.753906 516.839844 348.40625 C 511.589844 341.800781 508.703125 333.5 508.703125 325.027344 C 508.703125 315.28125 512.425781 306.046875 519.1875 299.03125 C 525.933594 292.035156 534.984375 287.96875 544.675781 287.589844 C 554.683594 287.199219 564.269531 290.789062 571.683594 297.703125 C 579.074219 304.59375 583.3125 313.878906 583.621094 323.839844 C 583.890625 332.710938 581.109375 341.390625 575.78125 348.277344 C 574.359375 350.121094 572.722656 352.273438 571.347656 354.527344 C 571.109375 354.917969 570.859375 355.335938 570.601562 355.769531 C 568.226562 359.773438 566.683594 364.328125 566.015625 369.316406 C 564.511719 380.582031 559.523438 383.417969 558.539062 383.875 Z M 558.539062 383.875" fill="#a6a6a6"/><path fill-rule="nonzero" fill-opacity="1" d="M 555.976562 398.125 L 537.191406 398.125 C 535.421875 398.125 533.984375 396.691406 533.984375 394.921875 L 533.984375 381.023438 L 558.351562 381.023438 L 558.351562 395.75 C 558.351562 397.0625 557.289062 398.125 555.976562 398.125 Z M 555.976562 398.125" fill="#c2dcf2"/><path fill-rule="nonzero" fill-opacity="1" d="M 555.976562 401.261719 L 537.191406 401.261719 C 533.695312 401.261719 530.847656 398.417969 530.847656 394.921875 L 530.847656 381.027344 C 530.847656 379.292969 532.253906 377.886719 533.984375 377.886719 L 558.351562 377.886719 C 560.085938 377.886719 561.488281 379.292969 561.488281 381.027344 L 561.488281 395.75 C 561.488281 398.789062 559.015625 401.261719 555.976562 401.261719 Z M 537.121094 384.164062 L 537.121094 394.921875 C 537.121094 394.957031 537.152344 394.988281 537.191406 394.988281 L 555.214844 394.988281 L 555.214844 384.164062 Z M 537.121094 384.164062" fill="#a6a6a6"/><path fill-rule="nonzero" fill-opacity="1" d="M 606.753906 319.632812 L 590.9375 319.632812 C 589.203125 319.632812 587.800781 318.226562 587.800781 316.496094 C 587.800781 314.761719 589.203125 313.359375 590.9375 313.359375 L 606.753906 313.359375 C 608.488281 313.359375 609.894531 314.761719 609.894531 316.496094 C 609.894531 318.226562 608.488281 319.632812 606.753906 319.632812 Z M 606.753906 319.632812" fill="#a6a6a6"/><path fill-rule="nonzero" fill-opacity="1" d="M 578.867188 288.617188 C 577.945312 288.617188 577.03125 288.214844 576.414062 287.4375 C 575.332031 286.082031 575.554688 284.109375 576.910156 283.027344 L 592.054688 270.941406 C 593.40625 269.863281 595.378906 270.085938 596.460938 271.4375 C 597.542969 272.792969 597.320312 274.765625 595.964844 275.847656 L 580.820312 287.933594 C 580.242188 288.394531 579.554688 288.617188 578.867188 288.617188 Z M 578.867188 288.617188" fill="#a6a6a6"/><path fill-rule="nonzero" fill-opacity="1" d="M 501.402344 319.632812 L 485.582031 319.632812 C 483.851562 319.632812 482.445312 318.226562 482.445312 316.496094 C 482.445312 314.761719 483.851562 313.359375 485.582031 313.359375 L 501.402344 313.359375 C 503.132812 313.359375 504.539062 314.761719 504.539062 316.496094 C 504.539062 318.226562 503.132812 319.632812 501.402344 319.632812 Z M 501.402344 319.632812" fill="#a6a6a6"/><path fill-rule="nonzero" fill-opacity="1" d="M 512.445312 290.148438 C 511.785156 290.148438 511.121094 289.941406 510.554688 289.511719 L 495.113281 277.804688 C 493.734375 276.757812 493.460938 274.792969 494.507812 273.410156 C 495.554688 272.03125 497.523438 271.757812 498.902344 272.804688 L 514.34375 284.511719 C 515.722656 285.558594 515.996094 287.523438 514.949219 288.90625 C 514.332031 289.71875 513.394531 290.148438 512.445312 290.148438 Z M 512.445312 290.148438" fill="#a6a6a6"/><path fill-rule="nonzero" fill-opacity="1" d="M 546.167969 280.585938 C 544.4375 280.585938 543.03125 279.179688 543.03125 277.449219 L 543.03125 256.375 C 543.03125 254.640625 544.4375 253.238281 546.167969 253.238281 C 547.902344 253.238281 549.304688 254.640625 549.304688 256.375 L 549.304688 277.449219 C 549.304688 279.179688 547.902344 280.585938 546.167969 280.585938 Z M 546.167969 280.585938" fill="#a6a6a6"/><path fill-rule="nonzero" fill-opacity="1" d="M 246.113281 710.261719 C 247.921875 705.464844 263.140625 669.359375 264.523438 665.5625 C 266.160156 661.078125 270.351562 658.039062 275.121094 657.886719 C 291.46875 657.367188 314.730469 655.753906 322.207031 653.859375 C 333.132812 651.101562 339.152344 639.351562 335.117188 628.828125 L 329.9375 615.320312 L 334.488281 606.410156 L 329.019531 597.371094 L 338.136719 589.414062 L 334.488281 572.597656 L 344.480469 569.660156 C 354.148438 566.820312 357.066406 554.539062 349.707031 547.628906 C 349.707031 547.628906 341.683594 540.222656 334.175781 533.339844 C 330.492188 529.960938 328.410156 525.183594 328.460938 520.183594 C 328.582031 508.109375 327.851562 486.15625 324.933594 477.339844 C 324.917969 477.308594 324.917969 477.277344 324.902344 477.246094 C 319.703125 461.574219 311.265625 447.371094 300.386719 435.445312 C 278.488281 411.453125 246.6875 396.667969 211.460938 397.535156 C 151.308594 399.015625 99.453125 450.90625 98.015625 511.0625 C 97.125 548.246094 113.675781 581.613281 140.078125 603.519531 C 152.761719 614.042969 158.089844 631.148438 153.277344 646.914062 C 152.785156 648.527344 152.261719 650.125 151.710938 651.703125 Z M 246.113281 710.261719" fill="#ffffff"/><path fill-rule="nonzero" fill-opacity="1" d="M 246.113281 713.398438 C 245.746094 713.398438 245.371094 713.332031 245.007812 713.195312 C 243.386719 712.585938 242.566406 710.777344 243.179688 709.15625 C 244.09375 706.71875 248.183594 696.898438 252.511719 686.5 C 256.636719 676.582031 260.90625 666.328125 261.578125 664.488281 C 263.664062 658.765625 268.941406 654.945312 275.023438 654.75 C 292.011719 654.210938 314.589844 652.550781 321.4375 650.820312 C 325.75 649.730469 329.402344 646.832031 331.460938 642.863281 C 333.535156 638.863281 333.800781 634.15625 332.1875 629.949219 L 327.007812 616.441406 C 326.691406 615.609375 326.738281 614.683594 327.144531 613.890625 L 330.898438 606.539062 L 326.332031 598.996094 C 325.542969 597.691406 325.804688 596.007812 326.953125 595.007812 L 334.679688 588.269531 L 331.421875 573.261719 C 331.074219 571.65625 332.027344 570.050781 333.605469 569.585938 L 343.59375 566.648438 C 347.039062 565.636719 349.59375 562.945312 350.425781 559.453125 C 351.257812 555.953125 350.191406 552.390625 347.570312 549.925781 C 347.234375 549.617188 339.351562 542.339844 332.058594 535.652344 C 327.71875 531.675781 325.261719 526.023438 325.320312 520.152344 C 325.449219 507.839844 324.660156 486.597656 321.976562 478.394531 C 321.957031 478.335938 321.9375 478.28125 321.921875 478.21875 C 316.898438 463.085938 308.875 449.40625 298.066406 437.558594 C 275.933594 413.308594 244.390625 399.863281 211.539062 400.671875 C 153.101562 402.109375 102.546875 452.695312 101.152344 511.136719 C 100.316406 546.035156 115.234375 578.828125 142.082031 601.105469 C 148.796875 606.675781 153.691406 614.015625 156.238281 622.332031 C 158.800781 630.703125 158.816406 639.519531 156.277344 647.832031 C 155.789062 649.429688 155.25 651.078125 154.675781 652.730469 C 154.105469 654.367188 152.320312 655.234375 150.683594 654.664062 C 149.046875 654.097656 148.179688 652.308594 148.75 650.671875 C 149.296875 649.09375 149.8125 647.519531 150.277344 646 C 154.707031 631.488281 149.917969 615.757812 138.074219 605.933594 C 124.496094 594.667969 113.394531 580.285156 105.96875 564.34375 C 98.164062 547.589844 94.433594 529.636719 94.878906 510.984375 C 95.238281 495.878906 98.652344 481.035156 105.027344 466.867188 C 111.160156 453.234375 119.730469 440.855469 130.5 430.078125 C 141.269531 419.300781 153.644531 410.71875 167.269531 404.578125 C 181.433594 398.195312 196.277344 394.769531 211.382812 394.398438 C 229.050781 393.964844 246.136719 397.292969 262.175781 404.292969 C 277.644531 411.042969 291.277344 420.8125 302.703125 433.328125 C 314.09375 445.816406 322.554688 460.234375 327.855469 476.183594 C 327.875 476.242188 327.898438 476.304688 327.914062 476.367188 C 331.074219 485.929688 331.714844 508.425781 331.59375 520.214844 C 331.554688 524.308594 333.265625 528.25 336.296875 531.027344 C 343.71875 537.835938 351.753906 545.25 351.835938 545.324219 C 351.84375 545.328125 351.847656 545.335938 351.855469 545.339844 C 356.144531 549.367188 357.890625 555.1875 356.527344 560.90625 C 355.167969 566.617188 350.992188 571.015625 345.363281 572.667969 L 338.171875 574.785156 L 341.203125 588.75 C 341.445312 589.867188 341.058594 591.027344 340.199219 591.777344 L 333.066406 598 L 337.171875 604.785156 C 337.734375 605.714844 337.777344 606.867188 337.28125 607.835938 L 333.367188 615.5 L 338.046875 627.703125 C 340.300781 633.582031 339.929688 640.164062 337.027344 645.753906 C 334.144531 651.308594 329.023438 655.375 322.972656 656.902344 C 314.417969 659.066406 289.144531 660.578125 275.222656 661.023438 C 271.714844 661.132812 268.675781 663.335938 267.46875 666.636719 C 266.75 668.609375 262.648438 678.472656 258.300781 688.910156 C 254.183594 698.800781 249.929688 709.03125 249.050781 711.363281 C 248.578125 712.621094 247.382812 713.398438 246.113281 713.398438 Z M 321.875 478.054688 C 321.875 478.054688 321.875 478.058594 321.875 478.058594 C 321.875 478.058594 321.875 478.054688 321.875 478.054688 Z M 327.960938 476.527344 C 327.960938 476.53125 327.960938 476.53125 327.960938 476.535156 C 327.960938 476.53125 327.960938 476.53125 327.960938 476.527344 Z M 327.960938 476.527344" fill="#a6a6a6"/><path fill-rule="nonzero" fill-opacity="1" d="M 285.34375 527.25 L 273.625 527.25 C 272.292969 527.25 271.144531 528.132812 270.742188 529.402344 C 269.671875 532.765625 268.324219 536.003906 266.726562 539.089844 C 266.113281 540.273438 266.300781 541.710938 267.242188 542.652344 L 275.53125 550.9375 C 277.746094 553.15625 277.746094 556.75 275.53125 558.964844 L 260.066406 574.429688 C 257.851562 576.644531 254.257812 576.644531 252.039062 574.429688 L 243.753906 566.144531 C 242.8125 565.199219 241.375 565.011719 240.191406 565.625 C 237.105469 567.222656 233.867188 568.570312 230.503906 569.640625 C 229.234375 570.042969 228.351562 571.191406 228.351562 572.523438 L 228.351562 584.242188 C 228.351562 587.375 225.8125 589.917969 222.675781 589.917969 L 200.808594 589.917969 C 197.671875 589.917969 195.132812 587.375 195.132812 584.242188 L 195.132812 572.523438 C 195.132812 571.191406 194.25 570.042969 192.980469 569.640625 C 189.617188 568.570312 186.378906 567.222656 183.292969 565.625 C 182.109375 565.011719 180.671875 565.199219 179.730469 566.144531 L 171.445312 574.429688 C 169.226562 576.644531 165.632812 576.644531 163.417969 574.429688 L 147.953125 558.964844 C 145.738281 556.75 145.738281 553.15625 147.953125 550.9375 L 156.242188 542.652344 C 157.183594 541.710938 157.371094 540.273438 156.757812 539.089844 C 155.160156 536.003906 153.8125 532.765625 152.742188 529.402344 C 152.339844 528.132812 151.191406 527.25 149.859375 527.25 L 138.140625 527.25 C 135.007812 527.25 132.464844 524.710938 132.464844 521.574219 L 132.464844 499.707031 C 132.464844 496.570312 135.007812 494.03125 138.140625 494.03125 L 149.859375 494.03125 C 151.191406 494.03125 152.339844 493.148438 152.742188 491.878906 C 153.8125 488.515625 155.160156 485.277344 156.757812 482.191406 C 157.371094 481.007812 157.183594 479.570312 156.238281 478.628906 L 147.953125 470.34375 C 145.738281 468.125 145.738281 464.53125 147.953125 462.316406 L 163.417969 446.851562 C 165.632812 444.636719 169.226562 444.636719 171.445312 446.851562 L 179.730469 455.136719 C 180.671875 456.082031 182.109375 456.269531 183.292969 455.65625 C 186.378906 454.058594 189.617188 452.710938 192.980469 451.640625 C 194.25 451.238281 195.132812 450.089844 195.132812 448.757812 L 195.132812 437.039062 C 195.132812 433.90625 197.671875 431.363281 200.808594 431.363281 L 222.675781 431.363281 C 225.8125 431.363281 228.351562 433.90625 228.351562 437.039062 L 228.351562 448.757812 C 228.351562 450.089844 229.234375 451.238281 230.503906 451.640625 C 233.867188 452.710938 237.105469 454.058594 240.191406 455.65625 C 241.375 456.269531 242.808594 456.082031 243.753906 455.140625 L 252.039062 446.851562 C 254.257812 444.636719 257.851562 444.636719 260.066406 446.851562 L 275.53125 462.316406 C 277.746094 464.53125 277.746094 468.125 275.53125 470.34375 L 267.242188 478.628906 C 266.300781 479.570312 266.113281 481.007812 266.726562 482.191406 C 268.324219 485.277344 269.671875 488.515625 270.738281 491.878906 C 271.144531 493.148438 272.292969 494.03125 273.625 494.03125 L 285.34375 494.03125 C 288.476562 494.03125 291.019531 496.570312 291.019531 499.707031 L 291.019531 521.574219 C 291.019531 524.710938 288.476562 527.25 285.34375 527.25 Z M 285.34375 527.25" fill="#c2dcf2"/><path fill-rule="nonzero" fill-opacity="1" d="M 222.675781 593.054688 L 200.808594 593.054688 C 195.949219 593.054688 191.996094 589.101562 191.996094 584.242188 L 191.996094 572.617188 C 188.519531 571.511719 185.117188 570.101562 181.882812 568.425781 L 173.660156 576.648438 C 171.996094 578.3125 169.785156 579.230469 167.429688 579.230469 C 165.078125 579.230469 162.863281 578.3125 161.199219 576.648438 L 145.734375 561.183594 C 144.070312 559.519531 143.152344 557.308594 143.152344 554.953125 C 143.152344 552.597656 144.070312 550.386719 145.734375 548.722656 L 153.957031 540.5 C 152.277344 537.257812 150.871094 533.859375 149.765625 530.386719 L 138.140625 530.386719 C 133.28125 530.386719 129.328125 526.433594 129.328125 521.574219 L 129.328125 499.707031 C 129.328125 494.847656 133.28125 490.894531 138.140625 490.894531 L 149.765625 490.894531 C 150.871094 487.417969 152.28125 484.015625 153.957031 480.78125 L 145.734375 472.5625 C 144.070312 470.898438 143.152344 468.683594 143.152344 466.328125 C 143.152344 463.976562 144.070312 461.761719 145.734375 460.097656 L 161.199219 444.632812 C 164.632812 441.199219 170.226562 441.199219 173.660156 444.632812 L 181.882812 452.855469 C 185.125 451.175781 188.523438 449.769531 191.996094 448.664062 L 191.996094 437.039062 C 191.996094 434.6875 192.910156 432.472656 194.574219 430.808594 C 196.242188 429.144531 198.453125 428.226562 200.808594 428.226562 L 222.675781 428.226562 C 227.535156 428.226562 231.488281 432.179688 231.488281 437.039062 L 231.488281 448.664062 C 234.964844 449.769531 238.363281 451.179688 241.601562 452.855469 L 249.820312 444.632812 C 253.257812 441.199219 258.847656 441.199219 262.285156 444.632812 L 277.75 460.097656 C 279.414062 461.761719 280.332031 463.976562 280.332031 466.328125 C 280.332031 468.683594 279.414062 470.898438 277.75 472.5625 L 269.527344 480.78125 C 271.207031 484.023438 272.613281 487.421875 273.71875 490.894531 L 285.34375 490.894531 C 290.203125 490.894531 294.15625 494.847656 294.15625 499.707031 L 294.15625 521.574219 C 294.15625 526.433594 290.203125 530.386719 285.34375 530.386719 L 273.71875 530.386719 C 272.613281 533.867188 271.203125 537.265625 269.527344 540.5 L 277.75 548.722656 C 281.183594 552.15625 281.183594 557.75 277.75 561.183594 L 262.285156 576.648438 C 258.847656 580.085938 253.257812 580.085938 249.820312 576.648438 L 241.601562 568.425781 C 238.359375 570.105469 234.960938 571.511719 231.488281 572.617188 L 231.488281 584.242188 C 231.488281 589.101562 227.535156 593.054688 222.675781 593.054688 Z M 181.847656 562.128906 C 182.828125 562.128906 183.816406 562.363281 184.738281 562.839844 C 187.679688 564.363281 190.773438 565.644531 193.929688 566.648438 C 196.523438 567.472656 198.269531 569.835938 198.269531 572.523438 L 198.269531 584.242188 C 198.269531 585.640625 199.40625 586.78125 200.808594 586.78125 L 222.675781 586.78125 C 224.078125 586.78125 225.214844 585.640625 225.214844 584.242188 L 225.214844 572.523438 C 225.214844 569.835938 226.957031 567.472656 229.554688 566.648438 C 232.710938 565.644531 235.804688 564.363281 238.746094 562.839844 C 241.167969 561.585938 244.070312 562.023438 245.972656 563.925781 L 254.257812 572.210938 C 255.25 573.199219 256.859375 573.203125 257.847656 572.210938 L 273.3125 556.746094 C 274.300781 555.757812 274.300781 554.148438 273.3125 553.15625 L 265.027344 544.871094 C 263.125 542.96875 262.6875 540.0625 263.941406 537.644531 C 265.464844 534.703125 266.746094 531.609375 267.75 528.453125 C 268.574219 525.859375 270.9375 524.113281 273.625 524.113281 L 285.34375 524.113281 C 286.742188 524.113281 287.882812 522.976562 287.882812 521.574219 L 287.882812 499.707031 C 287.882812 498.304688 286.742188 497.167969 285.34375 497.167969 L 273.625 497.167969 C 270.9375 497.167969 268.574219 495.425781 267.75 492.828125 C 266.746094 489.671875 265.464844 486.578125 263.941406 483.636719 C 262.6875 481.21875 263.121094 478.3125 265.027344 476.410156 L 273.3125 468.125 C 273.792969 467.644531 274.054688 467.007812 274.054688 466.328125 C 274.054688 465.652344 273.792969 465.011719 273.3125 464.535156 L 257.847656 449.070312 C 256.859375 448.082031 255.25 448.082031 254.257812 449.070312 L 245.972656 457.355469 C 244.070312 459.261719 241.164062 459.695312 238.746094 458.441406 C 235.804688 456.917969 232.710938 455.632812 229.554688 454.632812 C 226.957031 453.808594 225.214844 451.445312 225.214844 448.757812 L 225.214844 437.039062 C 225.214844 435.640625 224.078125 434.5 222.675781 434.5 L 200.808594 434.5 C 200.128906 434.5 199.492188 434.765625 199.011719 435.246094 C 198.53125 435.722656 198.269531 436.363281 198.269531 437.039062 L 198.269531 448.757812 C 198.269531 451.445312 196.523438 453.808594 193.929688 454.632812 C 190.773438 455.636719 187.679688 456.917969 184.738281 458.441406 C 182.320312 459.695312 179.414062 459.257812 177.511719 457.355469 L 169.226562 449.070312 C 168.234375 448.078125 166.625 448.078125 165.636719 449.070312 L 150.171875 464.535156 C 149.691406 465.011719 149.429688 465.652344 149.429688 466.328125 C 149.429688 467.007812 149.691406 467.644531 150.171875 468.125 L 158.457031 476.410156 C 160.359375 478.3125 160.796875 481.21875 159.542969 483.636719 C 158.019531 486.578125 156.738281 489.671875 155.734375 492.828125 C 154.910156 495.425781 152.546875 497.167969 149.859375 497.167969 L 138.140625 497.167969 C 136.742188 497.167969 135.601562 498.304688 135.601562 499.707031 L 135.601562 521.574219 C 135.601562 522.976562 136.742188 524.113281 138.140625 524.113281 L 149.859375 524.113281 C 152.546875 524.113281 154.910156 525.855469 155.734375 528.453125 C 156.738281 531.609375 158.019531 534.703125 159.542969 537.644531 C 160.796875 540.0625 160.359375 542.96875 158.457031 544.871094 L 150.171875 553.15625 C 149.691406 553.636719 149.425781 554.273438 149.425781 554.953125 C 149.425781 555.628906 149.691406 556.269531 150.171875 556.746094 L 165.636719 572.210938 C 166.113281 572.691406 166.753906 572.953125 167.429688 572.953125 C 168.109375 572.953125 168.746094 572.691406 169.226562 572.210938 L 177.511719 563.925781 C 178.691406 562.746094 180.253906 562.128906 181.847656 562.128906 Z M 181.847656 562.128906" fill="#a6a6a6"/><path fill-rule="nonzero" fill-opacity="1" d="M 255.449219 510.640625 C 255.449219 512.074219 255.378906 513.5 255.238281 514.925781 C 255.097656 516.347656 254.890625 517.765625 254.609375 519.167969 C 254.332031 520.570312 253.984375 521.957031 253.566406 523.328125 C 253.152344 524.699219 252.671875 526.042969 252.121094 527.367188 C 251.574219 528.6875 250.964844 529.980469 250.289062 531.246094 C 249.613281 532.507812 248.878906 533.734375 248.082031 534.921875 C 247.289062 536.113281 246.4375 537.261719 245.527344 538.367188 C 244.621094 539.476562 243.660156 540.535156 242.648438 541.546875 C 241.636719 542.558594 240.578125 543.519531 239.46875 544.425781 C 238.363281 545.335938 237.214844 546.1875 236.023438 546.980469 C 234.835938 547.777344 233.609375 548.511719 232.34375 549.1875 C 231.082031 549.863281 229.789062 550.472656 228.46875 551.019531 C 227.144531 551.570312 225.800781 552.050781 224.429688 552.464844 C 223.058594 552.882812 221.671875 553.230469 220.269531 553.507812 C 218.863281 553.789062 217.449219 553.996094 216.027344 554.136719 C 214.601562 554.277344 213.171875 554.347656 211.742188 554.347656 C 210.3125 554.347656 208.882812 554.277344 207.457031 554.136719 C 206.035156 553.996094 204.621094 553.789062 203.214844 553.507812 C 201.8125 553.230469 200.425781 552.882812 199.054688 552.464844 C 197.683594 552.050781 196.339844 551.570312 195.015625 551.019531 C 193.695312 550.472656 192.402344 549.863281 191.136719 549.1875 C 189.875 548.511719 188.648438 547.777344 187.460938 546.980469 C 186.269531 546.1875 185.121094 545.335938 184.015625 544.425781 C 182.90625 543.519531 181.847656 542.558594 180.835938 541.546875 C 179.824219 540.535156 178.863281 539.476562 177.957031 538.367188 C 177.046875 537.261719 176.195312 536.113281 175.402344 534.921875 C 174.605469 533.734375 173.871094 532.507812 173.195312 531.246094 C 172.519531 529.980469 171.910156 528.6875 171.363281 527.367188 C 170.8125 526.042969 170.332031 524.699219 169.917969 523.328125 C 169.5 521.957031 169.152344 520.570312 168.875 519.167969 C 168.59375 517.765625 168.386719 516.347656 168.246094 514.925781 C 168.105469 513.5 168.035156 512.074219 168.035156 510.640625 C 168.035156 509.210938 168.105469 507.78125 168.246094 506.355469 C 168.386719 504.933594 168.59375 503.519531 168.875 502.113281 C 169.152344 500.710938 169.5 499.324219 169.917969 497.953125 C 170.332031 496.582031 170.8125 495.238281 171.363281 493.914062 C 171.910156 492.59375 172.519531 491.300781 173.195312 490.039062 C 173.871094 488.773438 174.605469 487.546875 175.402344 486.359375 C 176.195312 485.167969 177.046875 484.019531 177.957031 482.914062 C 178.863281 481.808594 179.824219 480.746094 180.835938 479.734375 C 181.847656 478.722656 182.90625 477.761719 184.015625 476.855469 C 185.121094 475.945312 186.269531 475.09375 187.460938 474.300781 C 188.648438 473.503906 189.875 472.769531 191.136719 472.09375 C 192.402344 471.417969 193.695312 470.808594 195.015625 470.261719 C 196.339844 469.710938 197.683594 469.230469 199.054688 468.816406 C 200.425781 468.398438 201.8125 468.050781 203.214844 467.773438 C 204.621094 467.496094 206.035156 467.285156 207.457031 467.144531 C 208.882812 467.003906 210.3125 466.933594 211.742188 466.933594 C 213.171875 466.933594 214.601562 467.003906 216.027344 467.144531 C 217.449219 467.285156 218.863281 467.496094 220.269531 467.773438 C 221.671875 468.050781 223.058594 468.398438 224.429688 468.816406 C 225.800781 469.230469 227.144531 469.710938 228.46875 470.261719 C 229.789062 470.808594 231.082031 471.417969 232.34375 472.09375 C 233.609375 472.769531 234.835938 473.503906 236.023438 474.300781 C 237.214844 475.09375 238.363281 475.945312 239.46875 476.855469 C 240.578125 477.761719 241.636719 478.722656 242.648438 479.734375 C 243.660156 480.746094 244.621094 481.808594 245.527344 482.914062 C 246.4375 484.019531 247.289062 485.167969 248.082031 486.359375 C 248.878906 487.546875 249.613281 488.773438 250.289062 490.039062 C 250.964844 491.300781 251.574219 492.59375 252.121094 493.914062 C 252.671875 495.238281 253.152344 496.582031 253.566406 497.953125 C 253.984375 499.324219 254.332031 500.710938 254.609375 502.113281 C 254.890625 503.519531 255.097656 504.933594 255.238281 506.355469 C 255.378906 507.78125 255.449219 509.210938 255.449219 510.640625 Z M 255.449219 510.640625" fill="#ffffff"/><path fill-rule="nonzero" fill-opacity="1" d="M 211.742188 557.484375 C 185.914062 557.484375 164.898438 536.472656 164.898438 510.640625 C 164.898438 484.8125 185.914062 463.796875 211.742188 463.796875 C 237.570312 463.796875 258.585938 484.8125 258.585938 510.640625 C 258.585938 536.472656 237.574219 557.484375 211.742188 557.484375 Z M 211.742188 470.070312 C 189.371094 470.070312 171.171875 488.269531 171.171875 510.640625 C 171.171875 533.011719 189.371094 551.210938 211.742188 551.210938 C 234.113281 551.210938 252.3125 533.011719 252.3125 510.640625 C 252.3125 488.269531 234.113281 470.070312 211.742188 470.070312 Z M 211.742188 470.070312" fill="#a6a6a6"/><path fill-rule="nonzero" fill-opacity="1" d="M 252.691406 479.726562 C 249.007812 476.042969 243.042969 476.042969 239.363281 479.726562 L 209.972656 509.113281 L 199.058594 498.199219 C 195.375 494.519531 189.410156 494.519531 185.730469 498.199219 C 182.050781 501.878906 182.050781 507.84375 185.730469 511.527344 L 202.511719 528.304688 C 204.554688 530.347656 207.304688 531.21875 209.972656 530.988281 C 212.644531 531.21875 215.390625 530.351562 217.4375 528.304688 L 252.691406 493.054688 C 256.371094 489.371094 256.371094 483.40625 252.691406 479.726562 Z M 252.691406 479.726562" fill="#ff94e3"/><path fill-rule="nonzero" fill-opacity="1" d="M 209.140625 534.160156 C 205.8125 534.160156 202.636719 532.867188 200.292969 530.523438 L 183.511719 513.742188 C 181.140625 511.371094 179.832031 508.214844 179.832031 504.863281 C 179.832031 501.507812 181.140625 498.351562 183.511719 495.980469 C 188.410156 491.082031 196.378906 491.085938 201.277344 495.980469 L 209.972656 504.675781 L 237.144531 477.507812 C 242.042969 472.609375 250.011719 472.609375 254.90625 477.507812 C 254.90625 477.507812 254.910156 477.507812 254.910156 477.507812 C 259.804688 482.40625 259.804688 490.375 254.910156 495.269531 L 219.65625 530.523438 C 217.117188 533.0625 213.601562 534.367188 209.972656 534.132812 C 209.695312 534.152344 209.417969 534.160156 209.140625 534.160156 Z M 192.394531 498.578125 C 190.785156 498.578125 189.175781 499.191406 187.949219 500.417969 C 186.761719 501.605469 186.105469 503.183594 186.105469 504.863281 C 186.105469 506.542969 186.761719 508.121094 187.949219 509.308594 L 204.730469 526.085938 C 206.019531 527.375 207.832031 528.023438 209.707031 527.863281 C 209.882812 527.847656 210.0625 527.847656 210.242188 527.863281 C 212.117188 528.023438 213.929688 527.375 215.21875 526.085938 L 250.472656 490.835938 C 252.921875 488.386719 252.921875 484.394531 250.472656 481.945312 C 248.019531 479.492188 244.03125 479.492188 241.582031 481.945312 L 212.191406 511.332031 C 210.96875 512.558594 208.980469 512.558594 207.757812 511.332031 L 196.839844 500.417969 C 195.613281 499.191406 194.003906 498.578125 192.394531 498.578125 Z M 192.394531 498.578125" fill="#a6a6a6"/></svg>