<svg version="1.0" preserveAspectRatio="xMidYMid meet" viewBox="42.12 87.479999244 659.3399999999999 613.979994694" zoomAndPan="magnify" xmlns:xlink="http://www.w3.org/1999/xlink" xmlns="http://www.w3.org/2000/svg" style="max-height: 500px" width="659.3399999999999" height="613.979994694"><defs><clipPath id="b031b82230"><path clip-rule="nonzero" d="M 361 99.226562 L 375 99.226562 L 375 164 L 361 164 Z M 361 99.226562"/></clipPath><clipPath id="a0ca9bdf24"><path clip-rule="nonzero" d="M 63 179 L 673.5 179 L 673.5 688.726562 L 63 688.726562 Z M 63 179"/></clipPath></defs><rect fill-opacity="1" height="971.999992" y="-80.999999" fill="#ffffff" width="972" x="-81"/><rect fill-opacity="1" height="971.999992" y="-80.999999" fill="#ffffff" width="972" x="-81"/><g clip-path="url(#b031b82230)"><path fill-rule="nonzero" fill-opacity="1" d="M 368.179688 163.253906 C 371.921875 163.253906 374.945312 160.222656 374.945312 156.484375 L 374.945312 106.015625 C 374.945312 102.273438 371.921875 99.242188 368.179688 99.242188 C 364.429688 99.242188 361.40625 102.273438 361.40625 106.015625 L 361.40625 156.484375 C 361.40625 160.222656 364.429688 163.253906 368.179688 163.253906" fill="#a9fcde"/></g><path fill-rule="nonzero" fill-opacity="1" d="M 290.253906 176.269531 C 291.578125 178.121094 293.65625 179.109375 295.777344 179.109375 C 297.140625 179.109375 298.507812 178.699219 299.703125 177.847656 C 302.746094 175.679688 303.457031 171.449219 301.285156 168.402344 L 271.984375 127.316406 C 269.808594 124.269531 265.59375 123.558594 262.535156 125.734375 C 259.496094 127.90625 258.789062 132.136719 260.953125 135.179688 L 290.253906 176.269531" fill="#a9fcde"/><path fill-rule="nonzero" fill-opacity="1" d="M 205.246094 212.902344 L 250.332031 235.578125 C 251.316406 236.066406 252.351562 236.300781 253.367188 236.300781 C 255.847656 236.300781 258.238281 234.929688 259.425781 232.566406 C 261.109375 229.230469 259.761719 225.15625 256.414062 223.476562 L 211.332031 200.796875 C 207.972656 199.117188 203.917969 200.46875 202.242188 203.808594 C 200.558594 207.148438 201.90625 211.21875 205.246094 212.902344" fill="#a9fcde"/><path fill-rule="nonzero" fill-opacity="1" d="M 436.648438 177.847656 C 437.84375 178.699219 439.214844 179.109375 440.578125 179.109375 C 442.695312 179.109375 444.777344 178.121094 446.101562 176.269531 L 475.398438 135.179688 C 477.570312 132.136719 476.859375 127.90625 473.816406 125.734375 C 470.769531 123.566406 466.542969 124.277344 464.367188 127.316406 L 435.066406 168.402344 C 432.902344 171.449219 433.609375 175.679688 436.648438 177.847656" fill="#a9fcde"/><path fill-rule="nonzero" fill-opacity="1" d="M 476.925781 232.566406 C 478.117188 234.929688 480.503906 236.300781 482.984375 236.300781 C 484.003906 236.300781 485.050781 236.066406 486.019531 235.578125 L 531.109375 212.902344 C 534.445312 211.21875 535.792969 207.148438 534.117188 203.808594 C 532.433594 200.480469 528.363281 199.121094 525.023438 200.796875 L 479.9375 223.476562 C 476.597656 225.15625 475.25 229.230469 476.925781 232.566406" fill="#a9fcde"/><path fill-rule="nonzero" fill-opacity="1" d="M 179.925781 430.546875 C 180.714844 430.269531 259.710938 404.476562 314.539062 445.828125 C 315.765625 446.746094 317.1875 447.191406 318.613281 447.191406 C 320.671875 447.191406 322.695312 446.265625 324.03125 444.496094 C 326.28125 441.511719 325.683594 437.265625 322.699219 435.011719 C 262.085938 389.308594 179.101562 416.539062 175.605469 417.710938 C 172.058594 418.90625 170.160156 422.742188 171.351562 426.289062 C 172.542969 429.828125 176.378906 431.746094 179.925781 430.546875" fill="#a9fcde"/><path fill-rule="nonzero" fill-opacity="1" d="M 314.539062 527.117188 C 315.765625 528.042969 317.199219 528.488281 318.613281 528.488281 C 320.671875 528.488281 322.695312 527.554688 324.03125 525.789062 C 326.28125 522.800781 325.683594 518.554688 322.699219 516.304688 C 262.085938 470.605469 179.101562 497.828125 175.605469 499.003906 C 172.058594 500.207031 170.160156 504.039062 171.351562 507.582031 C 172.542969 511.125 176.378906 513.054688 179.925781 511.847656 C 180.714844 511.574219 259.710938 485.765625 314.539062 527.117188" fill="#a9fcde"/><path fill-rule="nonzero" fill-opacity="1" d="M 412.320312 444.496094 C 413.660156 446.265625 415.683594 447.191406 417.742188 447.191406 C 419.160156 447.191406 420.59375 446.746094 421.8125 445.828125 C 476.640625 404.476562 555.632812 430.28125 556.421875 430.546875 C 559.984375 431.75 563.804688 429.828125 564.996094 426.289062 C 566.1875 422.742188 564.289062 418.90625 560.742188 417.710938 C 557.246094 416.539062 474.269531 389.296875 413.652344 435.011719 C 410.671875 437.265625 410.078125 441.511719 412.320312 444.496094" fill="#a9fcde"/><path fill-rule="nonzero" fill-opacity="1" d="M 560.742188 499.003906 C 557.238281 497.828125 474.253906 470.601562 413.652344 516.304688 C 410.671875 518.554688 410.078125 522.800781 412.320312 525.789062 C 413.660156 527.554688 415.683594 528.488281 417.742188 528.488281 C 419.160156 528.488281 420.59375 528.042969 421.8125 527.117188 C 476.640625 485.773438 555.632812 511.574219 556.421875 511.847656 C 559.984375 513.054688 563.804688 511.128906 564.996094 507.582031 C 566.1875 504.039062 564.289062 500.207031 560.742188 499.003906" fill="#a9fcde"/><g clip-path="url(#a0ca9bdf24)"><path fill-rule="nonzero" fill-opacity="1" d="M 659.671875 649.769531 C 618.910156 633.921875 460.898438 580.730469 387.128906 675.421875 L 349.21875 675.421875 C 275.472656 580.734375 117.4375 633.929688 76.675781 649.769531 L 76.675781 329.503906 C 82.179688 326.277344 94.941406 319.800781 109.671875 319.046875 L 109.671875 602.664062 C 109.671875 604.820312 110.703125 606.847656 112.441406 608.125 C 114.179688 609.398438 116.421875 609.78125 118.484375 609.125 C 120.132812 608.601562 285.324219 557.875 363.136719 644.5625 C 363.15625 644.582031 363.179688 644.597656 363.199219 644.621094 C 363.238281 644.660156 363.28125 644.699219 363.316406 644.742188 C 363.503906 644.925781 363.6875 645.101562 363.890625 645.265625 C 363.941406 645.308594 363.996094 645.351562 364.050781 645.394531 C 364.554688 645.78125 365.09375 646.09375 365.667969 646.316406 C 365.699219 646.332031 365.726562 646.351562 365.757812 646.359375 C 365.785156 646.375 365.816406 646.375 365.847656 646.386719 C 366.195312 646.515625 366.550781 646.613281 366.90625 646.683594 C 366.957031 646.695312 367.007812 646.699219 367.058594 646.707031 C 367.425781 646.769531 367.800781 646.804688 368.179688 646.804688 C 368.539062 646.804688 368.902344 646.769531 369.261719 646.710938 C 369.324219 646.699219 369.390625 646.695312 369.453125 646.679688 C 369.792969 646.613281 370.128906 646.523438 370.449219 646.40625 C 370.523438 646.382812 370.59375 646.355469 370.667969 646.324219 C 370.996094 646.195312 371.316406 646.042969 371.625 645.859375 C 371.667969 645.835938 371.714844 645.804688 371.757812 645.769531 C 372.289062 645.441406 372.785156 645.039062 373.214844 644.5625 C 451.039062 557.875 616.21875 608.601562 617.863281 609.125 C 619.933594 609.785156 622.179688 609.398438 623.90625 608.125 C 625.644531 606.847656 626.675781 604.820312 626.675781 602.664062 L 626.675781 318.804688 C 640.449219 318.328125 652.628906 318.523438 659.671875 318.734375 Z M 123.21875 289.328125 C 143.167969 283.835938 222.417969 264.554688 291.242188 283.519531 C 294.539062 294.183594 300.027344 304.128906 307.476562 312.65625 C 316.015625 322.441406 320.714844 335.574219 320.722656 349.640625 L 320.734375 371.433594 C 320.734375 375.171875 323.769531 378.203125 327.507812 378.203125 L 408.84375 378.203125 C 412.585938 378.203125 415.617188 375.171875 415.617188 371.429688 L 415.617188 348.507812 C 415.617188 335.5 420.613281 322.441406 429.675781 311.746094 C 429.675781 311.746094 429.675781 311.746094 429.679688 311.738281 C 436.808594 303.320312 442.019531 293.746094 445.175781 283.503906 C 513.984375 264.566406 593.1875 283.835938 613.128906 289.328125 L 613.128906 593.671875 C 578.296875 584.3125 450.949219 556.355469 374.945312 623.769531 L 374.945312 409.410156 L 407.9375 409.410156 C 411.683594 409.410156 414.710938 406.378906 414.710938 402.636719 C 414.710938 398.898438 411.683594 395.867188 407.9375 395.867188 L 328.414062 395.867188 C 324.671875 395.867188 321.640625 398.898438 321.640625 402.636719 C 321.640625 406.378906 324.671875 409.410156 328.414062 409.410156 L 361.40625 409.410156 L 361.40625 623.789062 C 285.414062 556.367188 158.054688 584.308594 123.21875 593.671875 Z M 323.527344 209.75 C 337.933594 196.867188 356.53125 190.980469 375.933594 193.132812 C 406.964844 196.609375 431.738281 221.707031 434.839844 252.8125 C 435.625 260.710938 435.050781 268.492188 433.210938 275.917969 C 433.113281 276.207031 433.039062 276.507812 432.980469 276.8125 C 430.480469 286.339844 425.882812 295.257812 419.332031 302.984375 C 408.203125 316.128906 402.070312 332.296875 402.070312 348.507812 L 402.070312 364.65625 L 334.277344 364.65625 L 334.269531 349.628906 C 334.261719 332.292969 328.367188 315.996094 317.675781 303.75 C 310.828125 295.914062 305.976562 286.640625 303.378906 276.710938 C 303.335938 276.523438 303.285156 276.332031 303.234375 276.148438 C 301.886719 270.8125 301.175781 265.296875 301.175781 259.714844 C 301.175781 240.664062 309.320312 222.457031 323.527344 209.75 Z M 666.800781 305.453125 C 666.015625 305.40625 648.59375 304.519531 626.675781 305.246094 L 626.675781 284.238281 C 626.675781 281.28125 624.757812 278.667969 621.941406 277.777344 C 618.050781 276.558594 529.382812 249.113281 448.222656 268.738281 C 448.847656 263.074219 448.894531 257.296875 448.316406 251.46875 C 444.589844 214.046875 414.785156 183.855469 377.441406 179.675781 C 354.5 177.078125 331.558594 184.386719 314.503906 199.652344 C 297.421875 214.929688 287.628906 236.816406 287.628906 259.714844 C 287.628906 262.746094 287.820312 265.761719 288.152344 268.742188 C 206.992188 249.117188 118.292969 276.550781 114.40625 277.777344 C 111.589844 278.667969 109.671875 281.28125 109.671875 284.238281 L 109.671875 305.453125 C 85.757812 306.363281 66.855469 319.621094 66 320.226562 C 64.203125 321.496094 63.128906 323.558594 63.128906 325.757812 L 63.128906 659.84375 C 63.128906 662.125 64.28125 664.253906 66.191406 665.507812 C 68.105469 666.765625 70.523438 666.960938 72.605469 666.046875 C 74.519531 665.210938 264.703125 583.878906 340.414062 686.222656 C 341.691406 687.949219 343.703125 688.96875 345.851562 688.96875 L 390.496094 688.96875 C 392.644531 688.96875 394.65625 687.949219 395.933594 686.222656 C 471.644531 583.882812 661.820312 665.214844 663.742188 666.046875 C 665.828125 666.957031 668.242188 666.757812 670.15625 665.507812 C 672.066406 664.253906 673.21875 662.125 673.21875 659.84375 L 673.21875 312.210938 C 673.21875 308.613281 670.398438 305.640625 666.800781 305.453125" fill="#a9fcde"/></g></svg>