<svg xmlns="http://www.w3.org/2000/svg" xmlns:xlink="http://www.w3.org/1999/xlink" width="816" zoomAndPan="magnify" viewBox="0 0 612 791.999994" height="1056" preserveAspectRatio="xMidYMid meet" version="1.0"><defs><clipPath id="0f174082df"><path d="M 498 425 L 545.199219 425 L 545.199219 537.871094 L 498 537.871094 Z M 498 425 " clip-rule="nonzero"/></clipPath></defs><path fill="#fcfabe" d="M 298.898438 672.0625 L 298.898438 654.0625 L 301.898438 654.0625 L 301.898438 672.0625 M 298.898438 651.0625 L 298.898438 633.0625 L 301.898438 633.0625 L 301.898438 651.0625 M 298.898438 630.0625 L 298.898438 612.0625 L 301.898438 612.0625 L 301.898438 630.0625 M 298.898438 609.0625 L 298.898438 591.0625 L 301.898438 591.0625 L 301.898438 609.0625 M 298.898438 588.0625 L 298.898438 570.0625 L 301.898438 570.0625 L 301.898438 588.0625 M 298.898438 567.0625 L 298.898438 549.0625 L 301.898438 549.0625 L 301.898438 567.0625 M 298.898438 546.0625 L 298.898438 540.25 L 301.898438 540.25 L 301.898438 546.0625 " fill-opacity="1" fill-rule="nonzero"/><g clip-path="url(#0f174082df)"><path fill="#e5befc" d="M 498.148438 525.640625 L 509.679688 506.875 C 510.425781 505.65625 512.019531 505.277344 513.238281 506.027344 C 514.453125 506.773438 514.835938 508.367188 514.085938 509.582031 L 506.527344 521.878906 C 525.671875 515.753906 540 496.296875 540.027344 476.179688 L 540.027344 476.125 C 540.027344 455.683594 525.261719 435.902344 505.664062 430.09375 C 504.296875 429.6875 503.515625 428.246094 503.917969 426.878906 C 504.324219 425.511719 505.761719 424.726562 507.132812 425.132812 C 517.703125 428.265625 527.378906 435.160156 534.371094 444.539062 C 541.351562 453.90625 545.199219 465.121094 545.199219 476.125 L 545.199219 476.183594 C 545.183594 487.210938 541.3125 498.4375 534.292969 507.800781 C 527.78125 516.488281 518.964844 523.03125 509.273438 526.410156 L 519.621094 532.765625 C 520.835938 533.511719 521.21875 535.105469 520.46875 536.320312 C 519.71875 537.539062 518.128906 537.917969 516.910156 537.167969 L 498.144531 525.636719 Z M 498.148438 525.640625 " fill-opacity="1" fill-rule="nonzero"/></g><path fill="#fcfabe" d="M 29.605469 757.214844 L 29.527344 739.214844 L 32.527344 739.203125 L 32.605469 757.203125 M 29.515625 736.214844 L 29.4375 718.214844 L 32.4375 718.203125 L 32.515625 736.203125 M 29.425781 715.214844 L 29.347656 697.21875 L 32.347656 697.203125 L 32.425781 715.203125 M 29.335938 694.21875 L 29.257812 676.21875 L 32.257812 676.203125 L 32.335938 694.203125 M 29.246094 673.21875 L 29.171875 655.21875 L 32.171875 655.203125 L 32.246094 673.203125 M 29.15625 652.21875 L 29.082031 634.21875 L 32.082031 634.203125 L 32.15625 652.203125 M 29.066406 631.21875 L 28.992188 613.21875 L 31.992188 613.203125 L 32.066406 631.203125 M 28.976562 610.21875 L 28.902344 592.21875 L 31.902344 592.207031 L 31.976562 610.203125 M 28.886719 589.21875 L 28.8125 571.21875 L 31.8125 571.207031 L 31.886719 589.207031 M 28.796875 568.21875 L 28.722656 550.21875 L 31.722656 550.207031 L 31.796875 568.207031 M 28.707031 547.21875 L 28.644531 532.164062 L 31.644531 532.148438 L 31.707031 547.207031 " fill-opacity="1" fill-rule="nonzero"/><path fill="#fcfabe" d="M 564.039062 757.210938 L 564.039062 739.210938 L 567.039062 739.210938 L 567.039062 757.210938 M 564.039062 736.210938 L 564.039062 718.210938 L 567.039062 718.210938 L 567.039062 736.210938 M 564.039062 715.210938 L 564.039062 697.210938 L 567.039062 697.210938 L 567.039062 715.210938 M 564.039062 694.210938 L 564.039062 676.210938 L 567.039062 676.210938 L 567.039062 694.210938 M 564.039062 673.210938 L 564.039062 655.210938 L 567.039062 655.210938 L 567.039062 673.210938 M 564.039062 652.210938 L 564.039062 634.210938 L 567.039062 634.210938 L 567.039062 652.210938 M 564.039062 631.210938 L 564.039062 613.210938 L 567.039062 613.210938 L 567.039062 631.210938 M 564.039062 610.210938 L 564.039062 592.210938 L 567.039062 592.210938 L 567.039062 610.210938 M 564.039062 589.210938 L 564.039062 571.210938 L 567.039062 571.210938 L 567.039062 589.210938 M 564.039062 568.210938 L 564.039062 550.210938 L 567.039062 550.210938 L 567.039062 568.210938 M 564.039062 547.210938 L 564.039062 532.15625 L 567.039062 532.15625 L 567.039062 547.210938 " fill-opacity="1" fill-rule="nonzero"/><path fill="#fcfabe" d="M 565.53125 673.5625 L 547.53125 673.5625 L 547.53125 670.5625 L 565.53125 670.5625 M 544.53125 673.5625 L 526.53125 673.5625 L 526.53125 670.5625 L 544.53125 670.5625 M 523.53125 673.5625 L 505.53125 673.5625 L 505.53125 670.5625 L 523.53125 670.5625 M 502.53125 673.5625 L 484.53125 673.5625 L 484.53125 670.5625 L 502.53125 670.5625 M 481.53125 673.5625 L 463.53125 673.5625 L 463.53125 670.5625 L 481.53125 670.5625 M 460.53125 673.5625 L 442.53125 673.5625 L 442.53125 670.5625 L 460.53125 670.5625 M 439.53125 673.5625 L 421.53125 673.5625 L 421.53125 670.5625 L 439.53125 670.5625 M 418.53125 673.5625 L 400.53125 673.5625 L 400.53125 670.5625 L 418.53125 670.5625 M 397.53125 673.5625 L 379.53125 673.5625 L 379.53125 670.5625 L 397.53125 670.5625 M 376.53125 673.5625 L 358.53125 673.5625 L 358.53125 670.5625 L 376.53125 670.5625 M 355.53125 673.5625 L 337.53125 673.5625 L 337.53125 670.5625 L 355.53125 670.5625 M 334.53125 673.5625 L 316.53125 673.5625 L 316.53125 670.5625 L 334.53125 670.5625 M 313.53125 673.5625 L 295.53125 673.5625 L 295.53125 670.5625 L 313.53125 670.5625 M 292.53125 673.5625 L 274.53125 673.5625 L 274.53125 670.5625 L 292.53125 670.5625 M 271.53125 673.5625 L 253.53125 673.5625 L 253.53125 670.5625 L 271.53125 670.5625 M 250.53125 673.5625 L 232.53125 673.5625 L 232.53125 670.5625 L 250.53125 670.5625 M 229.53125 673.5625 L 211.53125 673.5625 L 211.53125 670.5625 L 229.53125 670.5625 M 208.53125 673.5625 L 190.53125 673.5625 L 190.53125 670.5625 L 208.53125 670.5625 M 187.53125 673.5625 L 169.53125 673.5625 L 169.53125 670.5625 L 187.53125 670.5625 M 166.53125 673.5625 L 148.53125 673.5625 L 148.53125 670.5625 L 166.53125 670.5625 M 145.53125 673.5625 L 127.53125 673.5625 L 127.53125 670.5625 L 145.53125 670.5625 M 124.53125 673.5625 L 106.53125 673.5625 L 106.53125 670.5625 L 124.53125 670.5625 M 103.53125 673.5625 L 85.53125 673.5625 L 85.53125 670.5625 L 103.53125 670.5625 M 82.53125 673.5625 L 64.53125 673.5625 L 64.53125 670.5625 L 82.53125 670.5625 M 61.53125 673.5625 L 43.53125 673.5625 L 43.53125 670.5625 L 61.53125 670.5625 M 40.53125 673.5625 L 31.636719 673.5625 L 31.636719 670.5625 L 40.53125 670.5625 " fill-opacity="1" fill-rule="nonzero"/><path fill="#fcfabe" d="M 568.601562 758.714844 L 550.601562 758.714844 L 550.601562 755.714844 L 568.601562 755.714844 M 547.601562 758.714844 L 529.601562 758.714844 L 529.601562 755.714844 L 547.601562 755.714844 M 526.601562 758.714844 L 508.601562 758.714844 L 508.601562 755.714844 L 526.601562 755.714844 M 505.601562 758.714844 L 487.601562 758.714844 L 487.601562 755.714844 L 505.601562 755.714844 M 484.601562 758.714844 L 466.601562 758.714844 L 466.601562 755.714844 L 484.601562 755.714844 M 463.601562 758.714844 L 445.601562 758.714844 L 445.601562 755.714844 L 463.601562 755.714844 M 442.601562 758.714844 L 424.601562 758.714844 L 424.601562 755.714844 L 442.601562 755.714844 M 421.601562 758.714844 L 403.601562 758.714844 L 403.601562 755.714844 L 421.601562 755.714844 M 400.601562 758.714844 L 382.601562 758.714844 L 382.601562 755.714844 L 400.601562 755.714844 M 379.601562 758.714844 L 361.601562 758.714844 L 361.601562 755.714844 L 379.601562 755.714844 M 358.601562 758.714844 L 340.601562 758.714844 L 340.601562 755.714844 L 358.601562 755.714844 M 337.601562 758.714844 L 319.601562 758.714844 L 319.601562 755.714844 L 337.601562 755.714844 M 316.601562 758.714844 L 298.601562 758.714844 L 298.601562 755.714844 L 316.601562 755.714844 M 295.601562 758.714844 L 277.601562 758.714844 L 277.601562 755.714844 L 295.601562 755.714844 M 274.601562 758.714844 L 256.601562 758.714844 L 256.601562 755.714844 L 274.601562 755.714844 M 253.601562 758.714844 L 235.601562 758.714844 L 235.601562 755.714844 L 253.601562 755.714844 M 232.601562 758.714844 L 214.601562 758.714844 L 214.601562 755.714844 L 232.601562 755.714844 M 211.601562 758.714844 L 193.601562 758.714844 L 193.601562 755.714844 L 211.601562 755.714844 M 190.601562 758.714844 L 172.601562 758.714844 L 172.601562 755.714844 L 190.601562 755.714844 M 169.601562 758.714844 L 151.601562 758.714844 L 151.601562 755.714844 L 169.601562 755.714844 M 148.601562 758.714844 L 130.601562 758.714844 L 130.601562 755.714844 L 148.601562 755.714844 M 127.601562 758.714844 L 109.601562 758.714844 L 109.601562 755.714844 L 127.601562 755.714844 M 106.601562 758.714844 L 88.601562 758.714844 L 88.601562 755.714844 L 106.601562 755.714844 M 85.601562 758.714844 L 67.601562 758.714844 L 67.601562 755.714844 L 85.601562 755.714844 M 64.601562 758.714844 L 46.601562 758.714844 L 46.601562 755.714844 L 64.601562 755.714844 M 43.601562 758.714844 L 31.101562 758.714844 L 31.101562 755.714844 L 43.601562 755.714844 " fill-opacity="1" fill-rule="nonzero"/></svg>