<svg xmlns="http://www.w3.org/2000/svg" xmlns:xlink="http://www.w3.org/1999/xlink" width="816" zoomAndPan="magnify" viewBox="0 0 612 791.999994" height="1056" preserveAspectRatio="xMidYMid meet" version="1.0"><defs><clipPath id="ad0153e144"><path d="M 26.398438 306 L 340.648438 306 L 340.648438 460 L 26.398438 460 Z M 26.398438 306 " clip-rule="nonzero"/></clipPath><clipPath id="5b7906095f"><path d="M 26.398438 612 L 340.648438 612 L 340.648438 765.597656 L 26.398438 765.597656 Z M 26.398438 612 " clip-rule="nonzero"/></clipPath><clipPath id="b9579c0e55"><path d="M 26.398438 153.773438 L 340.648438 153.773438 L 340.648438 307 L 26.398438 307 Z M 26.398438 153.773438 " clip-rule="nonzero"/></clipPath><clipPath id="3e06e01dd6"><path d="M 26.398438 459 L 340.648438 459 L 340.648438 613 L 26.398438 613 Z M 26.398438 459 " clip-rule="nonzero"/></clipPath><clipPath id="3266da0d93"><path d="M 263 168.035156 L 333.472656 168.035156 L 333.472656 197.285156 L 263 197.285156 Z M 263 168.035156 " clip-rule="nonzero"/></clipPath><clipPath id="88e33b5a0c"><path d="M 263 421.386719 L 333.472656 421.386719 L 333.472656 450.53125 L 263 450.53125 Z M 263 421.386719 " clip-rule="nonzero"/></clipPath><clipPath id="296a557a75"><path d="M 263 477.398438 L 333.472656 477.398438 L 333.472656 506.648438 L 263 506.648438 Z M 263 477.398438 " clip-rule="nonzero"/></clipPath><clipPath id="ad58c9710b"><path d="M 263 716.226562 L 333.472656 716.226562 L 333.472656 745.371094 L 263 745.371094 Z M 263 716.226562 " clip-rule="nonzero"/></clipPath></defs><g clip-path="url(#ad0153e144)"><path fill="#e0e5f3" d="M 26.558594 459.703125 L 69.3125 459.703125 L 69.3125 430.714844 C 69.3125 416.285156 81.007812 404.589844 95.4375 404.589844 L 271.679688 404.589844 C 309.722656 404.589844 340.558594 373.75 340.558594 335.707031 L 340.558594 306.722656 L 297.804688 306.722656 L 297.804688 335.707031 C 297.804688 350.136719 286.105469 361.835938 271.679688 361.835938 L 95.4375 361.835938 C 57.398438 361.835938 26.558594 392.675781 26.558594 430.714844 Z M 26.558594 459.703125 " fill-opacity="1" fill-rule="evenodd"/></g><path fill="#deb8ff" d="M 118.042969 434.421875 C 118.042969 442.316406 124.441406 448.71875 132.335938 448.71875 L 234.542969 448.71875 C 242.4375 448.71875 248.835938 442.316406 248.835938 434.421875 L 248.835938 332.21875 C 248.835938 324.324219 242.4375 317.921875 234.542969 317.921875 L 132.335938 317.921875 C 124.441406 317.921875 118.042969 324.324219 118.042969 332.21875 Z M 118.042969 434.421875 " fill-opacity="1" fill-rule="evenodd"/><path fill="#ffffff" d="M 122.332031 434.421875 L 122.332031 332.21875 C 122.332031 326.691406 126.8125 322.210938 132.335938 322.210938 L 234.542969 322.210938 C 240.070312 322.210938 244.546875 326.691406 244.546875 332.21875 L 244.546875 434.421875 C 244.546875 439.949219 240.070312 444.429688 234.542969 444.429688 L 132.335938 444.429688 C 126.8125 444.429688 122.332031 439.949219 122.332031 434.421875 Z M 122.332031 434.421875 " fill-opacity="1" fill-rule="nonzero"/><g clip-path="url(#5b7906095f)"><path fill="#e0e5f3" d="M 26.558594 765.601562 L 69.3125 765.601562 L 69.3125 736.617188 C 69.3125 722.1875 81.007812 710.488281 95.4375 710.488281 L 271.679688 710.488281 C 309.722656 710.488281 340.558594 679.652344 340.558594 641.609375 L 340.558594 612.621094 L 297.804688 612.621094 L 297.804688 641.609375 C 297.804688 656.039062 286.105469 667.734375 271.679688 667.734375 L 95.4375 667.734375 C 57.398438 667.734375 26.558594 698.574219 26.558594 736.617188 Z M 26.558594 765.601562 " fill-opacity="1" fill-rule="evenodd"/></g><path fill="#deb8ff" d="M 118.042969 740.324219 C 118.042969 748.214844 124.441406 754.617188 132.335938 754.617188 L 234.542969 754.617188 C 242.4375 754.617188 248.835938 748.214844 248.835938 740.324219 L 248.835938 638.117188 C 248.835938 630.222656 242.4375 623.824219 234.542969 623.824219 L 132.335938 623.824219 C 124.441406 623.824219 118.042969 630.222656 118.042969 638.117188 Z M 118.042969 740.324219 " fill-opacity="1" fill-rule="evenodd"/><path fill="#ffffff" d="M 122.332031 740.324219 L 122.332031 638.117188 C 122.332031 632.589844 126.8125 628.113281 132.335938 628.113281 L 234.542969 628.113281 C 240.070312 628.113281 244.546875 632.589844 244.546875 638.117188 L 244.546875 740.324219 C 244.546875 745.847656 240.070312 750.328125 234.542969 750.328125 L 132.335938 750.328125 C 126.8125 750.328125 122.332031 745.847656 122.332031 740.324219 Z M 122.332031 740.324219 " fill-opacity="1" fill-rule="nonzero"/><g clip-path="url(#b9579c0e55)"><path fill="#e0e5f3" d="M 26.558594 153.773438 L 69.3125 153.773438 L 69.3125 182.757812 C 69.3125 197.1875 81.007812 208.886719 95.4375 208.886719 L 271.679688 208.886719 C 309.722656 208.886719 340.558594 239.722656 340.558594 277.765625 L 340.558594 306.75 L 297.804688 306.75 L 297.804688 277.765625 C 297.804688 263.335938 286.105469 251.636719 271.679688 251.636719 L 95.4375 251.636719 C 57.398438 251.636719 26.558594 220.800781 26.558594 182.757812 Z M 26.558594 153.773438 " fill-opacity="1" fill-rule="evenodd"/></g><path fill="#1ad4e0" d="M 118.042969 179.050781 C 118.042969 171.15625 124.441406 164.757812 132.335938 164.757812 L 234.542969 164.757812 C 242.4375 164.757812 248.835938 171.15625 248.835938 179.050781 L 248.835938 281.253906 C 248.835938 289.148438 242.4375 295.550781 234.542969 295.550781 L 132.335938 295.550781 C 124.441406 295.550781 118.042969 289.148438 118.042969 281.253906 Z M 118.042969 179.050781 " fill-opacity="1" fill-rule="evenodd"/><path fill="#ffffff" d="M 122.332031 179.050781 L 122.332031 281.253906 C 122.332031 286.78125 126.8125 291.261719 132.335938 291.261719 L 234.542969 291.261719 C 240.070312 291.261719 244.546875 286.78125 244.546875 281.253906 L 244.546875 179.050781 C 244.546875 173.523438 240.070312 169.042969 234.542969 169.042969 L 132.335938 169.042969 C 126.8125 169.042969 122.332031 173.523438 122.332031 179.050781 Z M 122.332031 179.050781 " fill-opacity="1" fill-rule="nonzero"/><g clip-path="url(#3e06e01dd6)"><path fill="#e0e5f3" d="M 26.558594 459.671875 L 69.3125 459.671875 L 69.3125 488.660156 C 69.3125 503.089844 81.007812 514.785156 95.4375 514.785156 L 271.679688 514.785156 C 309.722656 514.785156 340.558594 545.625 340.558594 583.667969 L 340.558594 612.652344 L 297.804688 612.652344 L 297.804688 583.667969 C 297.804688 569.234375 286.105469 557.539062 271.679688 557.539062 L 95.4375 557.539062 C 57.398438 557.539062 26.558594 526.699219 26.558594 488.660156 Z M 26.558594 459.671875 " fill-opacity="1" fill-rule="evenodd"/></g><path fill="#1ad4e0" d="M 118.042969 484.953125 C 118.042969 477.054688 124.441406 470.65625 132.335938 470.65625 L 234.542969 470.65625 C 242.4375 470.65625 248.835938 477.054688 248.835938 484.953125 L 248.835938 587.15625 C 248.835938 595.050781 242.4375 601.449219 234.542969 601.449219 L 132.335938 601.449219 C 124.441406 601.449219 118.042969 595.050781 118.042969 587.15625 Z M 118.042969 484.953125 " fill-opacity="1" fill-rule="evenodd"/><path fill="#ffffff" d="M 122.332031 484.953125 L 122.332031 587.15625 C 122.332031 592.679688 126.8125 597.164062 132.335938 597.164062 L 234.542969 597.164062 C 240.070312 597.164062 244.546875 592.679688 244.546875 587.15625 L 244.546875 484.953125 C 244.546875 479.425781 240.070312 474.945312 234.542969 474.945312 L 132.335938 474.945312 C 126.8125 474.945312 122.332031 479.425781 122.332031 484.953125 Z M 122.332031 484.953125 " fill-opacity="1" fill-rule="nonzero"/><g clip-path="url(#3266da0d93)"><path fill="#ffd64f" d="M 325.96875 197.390625 L 314.261719 190.195312 C 313.5 189.730469 313.265625 188.734375 313.730469 187.976562 C 314.199219 187.21875 315.191406 186.980469 315.949219 187.445312 L 323.621094 192.160156 C 319.800781 180.21875 307.660156 171.277344 295.109375 171.261719 L 295.074219 171.261719 C 282.320312 171.261719 269.980469 180.472656 266.355469 192.699219 C 266.101562 193.554688 265.203125 194.039062 264.351562 193.789062 C 263.496094 193.535156 263.007812 192.636719 263.261719 191.785156 C 265.214844 185.1875 269.515625 179.152344 275.367188 174.789062 C 281.210938 170.433594 288.210938 168.035156 295.074219 168.035156 L 295.113281 168.035156 C 301.992188 168.042969 308.996094 170.457031 314.839844 174.839844 C 320.261719 178.902344 324.339844 184.402344 326.449219 190.449219 L 330.414062 183.992188 C 330.882812 183.234375 331.875 182.996094 332.632812 183.464844 C 333.390625 183.929688 333.628906 184.921875 333.160156 185.683594 L 325.964844 197.390625 Z M 325.96875 197.390625 " fill-opacity="1" fill-rule="nonzero"/></g><g clip-path="url(#88e33b5a0c)"><path fill="#ffd64f" d="M 325.96875 421.28125 L 314.261719 428.476562 C 313.5 428.941406 313.265625 429.9375 313.730469 430.695312 C 314.199219 431.453125 315.191406 431.691406 315.949219 431.226562 L 323.621094 426.511719 C 319.800781 438.453125 307.660156 447.394531 295.109375 447.410156 L 295.074219 447.410156 C 282.320312 447.410156 269.980469 438.199219 266.355469 425.972656 C 266.101562 425.117188 265.203125 424.632812 264.351562 424.882812 C 263.496094 425.136719 263.007812 426.03125 263.261719 426.886719 C 265.214844 433.484375 269.515625 439.519531 275.367188 443.882812 C 281.210938 448.238281 288.210938 450.636719 295.074219 450.636719 L 295.113281 450.636719 C 301.992188 450.628906 308.996094 448.210938 314.839844 443.832031 C 320.261719 439.769531 324.339844 434.269531 326.449219 428.222656 L 330.414062 434.679688 C 330.882812 435.4375 331.875 435.675781 332.632812 435.207031 C 333.390625 434.742188 333.628906 433.746094 333.160156 432.988281 L 325.964844 421.28125 Z M 325.96875 421.28125 " fill-opacity="1" fill-rule="nonzero"/></g><g clip-path="url(#296a557a75)"><path fill="#ffd64f" d="M 325.96875 506.753906 L 314.261719 499.558594 C 313.5 499.089844 313.265625 498.097656 313.730469 497.335938 C 314.199219 496.578125 315.191406 496.339844 315.949219 496.808594 L 323.621094 501.523438 C 319.800781 489.578125 307.660156 480.636719 295.109375 480.621094 L 295.074219 480.621094 C 282.320312 480.621094 269.980469 489.832031 266.355469 502.0625 C 266.101562 502.914062 265.203125 503.402344 264.351562 503.152344 C 263.496094 502.898438 263.007812 502 263.261719 501.144531 C 265.214844 494.550781 269.515625 488.515625 275.367188 484.152344 C 281.210938 479.796875 288.210938 477.398438 295.074219 477.398438 L 295.113281 477.398438 C 301.992188 477.40625 308.996094 479.820312 314.839844 484.199219 C 320.261719 488.261719 324.339844 493.765625 326.449219 499.808594 L 330.414062 493.355469 C 330.882812 492.59375 331.875 492.359375 332.632812 492.824219 C 333.390625 493.292969 333.628906 494.285156 333.160156 495.046875 L 325.964844 506.753906 Z M 325.96875 506.753906 " fill-opacity="1" fill-rule="nonzero"/></g><g clip-path="url(#ad58c9710b)"><path fill="#ffd64f" d="M 325.96875 716.121094 L 314.261719 723.316406 C 313.5 723.78125 313.265625 724.773438 313.730469 725.535156 C 314.199219 726.292969 315.191406 726.53125 315.949219 726.0625 L 323.621094 721.347656 C 319.800781 733.292969 307.660156 742.234375 295.109375 742.25 L 295.074219 742.25 C 282.320312 742.25 269.980469 733.039062 266.355469 720.808594 C 266.101562 719.957031 265.203125 719.46875 264.351562 719.722656 C 263.496094 719.972656 263.007812 720.871094 263.261719 721.726562 C 265.214844 728.320312 269.515625 734.355469 275.367188 738.71875 C 281.210938 743.078125 288.210938 745.476562 295.074219 745.476562 L 295.113281 745.476562 C 301.992188 745.46875 308.996094 743.050781 314.839844 738.671875 C 320.261719 734.609375 324.339844 729.105469 326.449219 723.0625 L 330.414062 729.515625 C 330.882812 730.277344 331.875 730.511719 332.632812 730.046875 C 333.390625 729.578125 333.628906 728.585938 333.160156 727.828125 L 325.964844 716.117188 Z M 325.96875 716.121094 " fill-opacity="1" fill-rule="nonzero"/></g></svg>