<svg xmlns="http://www.w3.org/2000/svg" xmlns:xlink="http://www.w3.org/1999/xlink" width="816" zoomAndPan="magnify" viewBox="0 0 612 791.999994" height="1056" preserveAspectRatio="xMidYMid meet" version="1.0"><defs><clipPath id="a756536d9b"><path d="M 20.851562 260.410156 L 179 260.410156 L 179 487.660156 L 20.851562 487.660156 Z M 20.851562 260.410156 " clip-rule="nonzero"/></clipPath><clipPath id="2d294a30eb"><path d="M 227 260.410156 L 385 260.410156 L 385 487.660156 L 227 487.660156 Z M 227 260.410156 " clip-rule="nonzero"/></clipPath><clipPath id="3571ef9523"><path d="M 433 260.410156 L 591.332031 260.410156 L 591.332031 487.660156 L 433 487.660156 Z M 433 260.410156 " clip-rule="nonzero"/></clipPath></defs><g clip-path="url(#a756536d9b)"><path fill="#ffd6f5" d="M 20.851562 260.460938 L 178.324219 260.460938 L 178.324219 487.511719 L 20.851562 487.511719 Z M 20.851562 260.460938 " fill-opacity="1" fill-rule="evenodd"/></g><g clip-path="url(#2d294a30eb)"><path fill="#abe7ec" d="M 227.355469 260.460938 L 384.824219 260.460938 L 384.824219 487.511719 L 227.355469 487.511719 Z M 227.355469 260.460938 " fill-opacity="1" fill-rule="evenodd"/></g><g clip-path="url(#3571ef9523)"><path fill="#fcfabe" d="M 433.855469 260.460938 L 591.328125 260.460938 L 591.328125 487.511719 L 433.855469 487.511719 Z M 433.855469 260.460938 " fill-opacity="1" fill-rule="evenodd"/></g><path fill="#ffffff" d="M 30.207031 318.503906 L 168.96875 318.503906 L 168.96875 474.023438 L 30.207031 474.023438 Z M 30.207031 318.503906 " fill-opacity="1" fill-rule="evenodd"/><path fill="#ffffff" d="M 236.710938 318.503906 L 375.472656 318.503906 L 375.472656 474.023438 L 236.710938 474.023438 Z M 236.710938 318.503906 " fill-opacity="1" fill-rule="evenodd"/><path fill="#ffffff" d="M 443.214844 318.503906 L 581.972656 318.503906 L 581.972656 474.023438 L 443.214844 474.023438 Z M 443.214844 318.503906 " fill-opacity="1" fill-rule="evenodd"/></svg>