<svg xmlns="http://www.w3.org/2000/svg" xmlns:xlink="http://www.w3.org/1999/xlink" width="816" zoomAndPan="magnify" viewBox="0 0 612 791.999994" height="1056" preserveAspectRatio="xMidYMid meet" version="1.0"><defs><clipPath id="f871eef08f"><path d="M 41.289062 161.25 L 550.800781 161.25 L 550.800781 206.730469 L 41.289062 206.730469 Z M 41.289062 161.25 " clip-rule="nonzero"/></clipPath><clipPath id="cc6b0dd895"><path d="M 41.347656 161.25 L 550.539062 161.25 L 550.539062 206.71875 L 41.347656 206.71875 Z M 41.347656 161.25 " clip-rule="nonzero"/></clipPath><clipPath id="2e55a178f5"><path d="M 41.289062 325.066406 L 550.800781 325.066406 L 550.800781 370.546875 L 41.289062 370.546875 Z M 41.289062 325.066406 " clip-rule="nonzero"/></clipPath><clipPath id="91ec2eea37"><path d="M 41.347656 325.066406 L 550.539062 325.066406 L 550.539062 370.535156 L 41.347656 370.535156 Z M 41.347656 325.066406 " clip-rule="nonzero"/></clipPath><clipPath id="776d700e33"><path d="M 41.289062 476.601562 L 550.800781 476.601562 L 550.800781 522.078125 L 41.289062 522.078125 Z M 41.289062 476.601562 " clip-rule="nonzero"/></clipPath><clipPath id="7ea44b5a21"><path d="M 41.347656 476.601562 L 550.539062 476.601562 L 550.539062 522.070312 L 41.347656 522.070312 Z M 41.347656 476.601562 " clip-rule="nonzero"/></clipPath><clipPath id="a2af12ae99"><path d="M 41.289062 626.21875 L 550.800781 626.21875 L 550.800781 671.699219 L 41.289062 671.699219 Z M 41.289062 626.21875 " clip-rule="nonzero"/></clipPath><clipPath id="29e1e21895"><path d="M 41.347656 626.21875 L 550.539062 626.21875 L 550.539062 671.6875 L 41.347656 671.6875 Z M 41.347656 626.21875 " clip-rule="nonzero"/></clipPath></defs><g clip-path="url(#f871eef08f)"><path fill="#ffffff" d="M 41.289062 161.25 L 550.800781 161.25 L 550.800781 206.730469 L 41.289062 206.730469 Z M 41.289062 161.25 " fill-opacity="1" fill-rule="nonzero"/></g><g clip-path="url(#cc6b0dd895)"><path fill="#1ad4e0" d="M 62.347656 158.25 L 80.347656 158.25 L 80.347656 164.25 L 62.347656 164.25 Z M 83.347656 158.25 L 101.347656 158.25 L 101.347656 164.25 L 83.347656 164.25 Z M 104.347656 158.25 L 122.347656 158.25 L 122.347656 164.25 L 104.347656 164.25 Z M 125.347656 158.25 L 143.347656 158.25 L 143.347656 164.25 L 125.347656 164.25 Z M 146.347656 158.25 L 164.347656 158.25 L 164.347656 164.25 L 146.347656 164.25 Z M 167.347656 158.25 L 185.347656 158.25 L 185.347656 164.25 L 167.347656 164.25 Z M 188.347656 158.25 L 206.347656 158.25 L 206.347656 164.25 L 188.347656 164.25 Z M 209.347656 158.25 L 227.347656 158.25 L 227.347656 164.25 L 209.347656 164.25 Z M 230.347656 158.25 L 248.347656 158.25 L 248.347656 164.25 L 230.347656 164.25 Z M 251.347656 158.25 L 269.347656 158.25 L 269.347656 164.25 L 251.347656 164.25 Z M 272.347656 158.25 L 290.347656 158.25 L 290.347656 164.25 L 272.347656 164.25 Z M 293.347656 158.25 L 311.347656 158.25 L 311.347656 164.25 L 293.347656 164.25 Z M 314.347656 158.25 L 332.347656 158.25 L 332.347656 164.25 L 314.347656 164.25 Z M 335.347656 158.25 L 353.347656 158.25 L 353.347656 164.25 L 335.347656 164.25 Z M 356.347656 158.25 L 374.347656 158.25 L 374.347656 164.25 L 356.347656 164.25 Z M 377.347656 158.25 L 395.347656 158.25 L 395.347656 164.25 L 377.347656 164.25 Z M 398.347656 158.25 L 416.347656 158.25 L 416.347656 164.25 L 398.347656 164.25 Z M 419.347656 158.25 L 437.347656 158.25 L 437.347656 164.25 L 419.347656 164.25 Z M 440.347656 158.25 L 458.347656 158.25 L 458.347656 164.25 L 440.347656 164.25 Z M 461.347656 158.25 L 479.347656 158.25 L 479.347656 164.25 L 461.347656 164.25 Z M 482.347656 158.25 L 500.347656 158.25 L 500.347656 164.25 L 482.347656 164.25 Z M 503.347656 158.25 L 521.347656 158.25 L 521.347656 164.25 L 503.347656 164.25 Z M 524.347656 158.25 L 542.347656 158.25 L 542.347656 164.25 L 524.347656 164.25 Z M 545.347656 158.25 L 553.738281 158.25 L 553.738281 173.859375 L 547.738281 173.859375 L 547.738281 161.25 L 550.738281 161.25 L 550.738281 164.25 L 545.347656 164.25 Z M 553.738281 176.859375 L 553.738281 194.859375 L 547.738281 194.859375 L 547.738281 176.859375 Z M 553.738281 197.859375 L 553.738281 209.71875 L 541.597656 209.71875 L 541.597656 203.71875 L 550.738281 203.71875 L 550.738281 206.71875 L 547.738281 206.71875 L 547.738281 197.859375 Z M 538.597656 209.71875 L 520.597656 209.71875 L 520.597656 203.71875 L 538.597656 203.71875 Z M 517.597656 209.71875 L 499.597656 209.71875 L 499.597656 203.71875 L 517.597656 203.71875 Z M 496.597656 209.71875 L 478.597656 209.71875 L 478.597656 203.71875 L 496.597656 203.71875 Z M 475.597656 209.71875 L 457.597656 209.71875 L 457.597656 203.71875 L 475.597656 203.71875 Z M 454.597656 209.71875 L 436.597656 209.71875 L 436.597656 203.71875 L 454.597656 203.71875 Z M 433.597656 209.71875 L 415.597656 209.71875 L 415.597656 203.71875 L 433.597656 203.71875 Z M 412.597656 209.71875 L 394.597656 209.71875 L 394.597656 203.71875 L 412.597656 203.71875 Z M 391.597656 209.71875 L 373.597656 209.71875 L 373.597656 203.71875 L 391.597656 203.71875 Z M 370.597656 209.71875 L 352.597656 209.71875 L 352.597656 203.71875 L 370.597656 203.71875 Z M 349.597656 209.71875 L 331.597656 209.71875 L 331.597656 203.71875 L 349.597656 203.71875 Z M 328.597656 209.71875 L 310.597656 209.71875 L 310.597656 203.71875 L 328.597656 203.71875 Z M 307.597656 209.71875 L 289.597656 209.71875 L 289.597656 203.71875 L 307.597656 203.71875 Z M 286.597656 209.71875 L 268.597656 209.71875 L 268.597656 203.71875 L 286.597656 203.71875 Z M 265.597656 209.71875 L 247.597656 209.71875 L 247.597656 203.71875 L 265.597656 203.71875 Z M 244.597656 209.71875 L 226.597656 209.71875 L 226.597656 203.71875 L 244.597656 203.71875 Z M 223.597656 209.71875 L 205.597656 209.71875 L 205.597656 203.71875 L 223.597656 203.71875 Z M 202.597656 209.71875 L 184.597656 209.71875 L 184.597656 203.71875 L 202.597656 203.71875 Z M 181.597656 209.71875 L 163.597656 209.71875 L 163.597656 203.71875 L 181.597656 203.71875 Z M 160.597656 209.71875 L 142.597656 209.71875 L 142.597656 203.71875 L 160.597656 203.71875 Z M 139.597656 209.71875 L 121.597656 209.71875 L 121.597656 203.71875 L 139.597656 203.71875 Z M 118.597656 209.71875 L 100.597656 209.71875 L 100.597656 203.71875 L 118.597656 203.71875 Z M 97.597656 209.71875 L 79.597656 209.71875 L 79.597656 203.71875 L 97.597656 203.71875 Z M 76.597656 209.71875 L 58.597656 209.71875 L 58.597656 203.71875 L 76.597656 203.71875 Z M 55.597656 209.71875 L 38.347656 209.71875 L 38.347656 202.96875 L 44.347656 202.96875 L 44.347656 206.71875 L 41.347656 206.71875 L 41.347656 203.71875 L 55.597656 203.71875 Z M 38.347656 199.96875 L 38.347656 181.96875 L 44.347656 181.96875 L 44.347656 199.96875 Z M 38.347656 178.96875 L 38.347656 158.25 L 59.347656 158.25 L 59.347656 164.25 L 41.347656 164.25 L 41.347656 161.25 L 44.347656 161.25 L 44.347656 178.96875 Z M 38.347656 178.96875 " fill-opacity="1" fill-rule="nonzero"/></g><g clip-path="url(#2e55a178f5)"><path fill="#ffffff" d="M 41.289062 325.066406 L 550.800781 325.066406 L 550.800781 370.546875 L 41.289062 370.546875 Z M 41.289062 325.066406 " fill-opacity="1" fill-rule="nonzero"/></g><g clip-path="url(#91ec2eea37)"><path fill="#ffd64f" d="M 62.347656 322.066406 L 80.347656 322.066406 L 80.347656 328.066406 L 62.347656 328.066406 Z M 83.347656 322.066406 L 101.347656 322.066406 L 101.347656 328.066406 L 83.347656 328.066406 Z M 104.347656 322.066406 L 122.347656 322.066406 L 122.347656 328.066406 L 104.347656 328.066406 Z M 125.347656 322.066406 L 143.347656 322.066406 L 143.347656 328.066406 L 125.347656 328.066406 Z M 146.347656 322.066406 L 164.347656 322.066406 L 164.347656 328.066406 L 146.347656 328.066406 Z M 167.347656 322.066406 L 185.347656 322.066406 L 185.347656 328.066406 L 167.347656 328.066406 Z M 188.347656 322.066406 L 206.347656 322.066406 L 206.347656 328.066406 L 188.347656 328.066406 Z M 209.347656 322.066406 L 227.347656 322.066406 L 227.347656 328.066406 L 209.347656 328.066406 Z M 230.347656 322.066406 L 248.347656 322.066406 L 248.347656 328.066406 L 230.347656 328.066406 Z M 251.347656 322.066406 L 269.347656 322.066406 L 269.347656 328.066406 L 251.347656 328.066406 Z M 272.347656 322.066406 L 290.347656 322.066406 L 290.347656 328.066406 L 272.347656 328.066406 Z M 293.347656 322.066406 L 311.347656 322.066406 L 311.347656 328.066406 L 293.347656 328.066406 Z M 314.347656 322.066406 L 332.347656 322.066406 L 332.347656 328.066406 L 314.347656 328.066406 Z M 335.347656 322.066406 L 353.347656 322.066406 L 353.347656 328.066406 L 335.347656 328.066406 Z M 356.347656 322.066406 L 374.347656 322.066406 L 374.347656 328.066406 L 356.347656 328.066406 Z M 377.347656 322.066406 L 395.347656 322.066406 L 395.347656 328.066406 L 377.347656 328.066406 Z M 398.347656 322.066406 L 416.347656 322.066406 L 416.347656 328.066406 L 398.347656 328.066406 Z M 419.347656 322.066406 L 437.347656 322.066406 L 437.347656 328.066406 L 419.347656 328.066406 Z M 440.347656 322.066406 L 458.347656 322.066406 L 458.347656 328.066406 L 440.347656 328.066406 Z M 461.347656 322.066406 L 479.347656 322.066406 L 479.347656 328.066406 L 461.347656 328.066406 Z M 482.347656 322.066406 L 500.347656 322.066406 L 500.347656 328.066406 L 482.347656 328.066406 Z M 503.347656 322.066406 L 521.347656 322.066406 L 521.347656 328.066406 L 503.347656 328.066406 Z M 524.347656 322.066406 L 542.347656 322.066406 L 542.347656 328.066406 L 524.347656 328.066406 Z M 545.347656 322.066406 L 553.738281 322.066406 L 553.738281 337.675781 L 547.738281 337.675781 L 547.738281 325.066406 L 550.738281 325.066406 L 550.738281 328.066406 L 545.347656 328.066406 Z M 553.738281 340.675781 L 553.738281 358.675781 L 547.738281 358.675781 L 547.738281 340.675781 Z M 553.738281 361.675781 L 553.738281 373.535156 L 541.597656 373.535156 L 541.597656 367.535156 L 550.738281 367.535156 L 550.738281 370.535156 L 547.738281 370.535156 L 547.738281 361.675781 Z M 538.597656 373.535156 L 520.597656 373.535156 L 520.597656 367.535156 L 538.597656 367.535156 Z M 517.597656 373.535156 L 499.597656 373.535156 L 499.597656 367.535156 L 517.597656 367.535156 Z M 496.597656 373.535156 L 478.597656 373.535156 L 478.597656 367.535156 L 496.597656 367.535156 Z M 475.597656 373.535156 L 457.597656 373.535156 L 457.597656 367.535156 L 475.597656 367.535156 Z M 454.597656 373.535156 L 436.597656 373.535156 L 436.597656 367.535156 L 454.597656 367.535156 Z M 433.597656 373.535156 L 415.597656 373.535156 L 415.597656 367.535156 L 433.597656 367.535156 Z M 412.597656 373.535156 L 394.597656 373.535156 L 394.597656 367.535156 L 412.597656 367.535156 Z M 391.597656 373.535156 L 373.597656 373.535156 L 373.597656 367.535156 L 391.597656 367.535156 Z M 370.597656 373.535156 L 352.597656 373.535156 L 352.597656 367.535156 L 370.597656 367.535156 Z M 349.597656 373.535156 L 331.597656 373.535156 L 331.597656 367.535156 L 349.597656 367.535156 Z M 328.597656 373.535156 L 310.597656 373.535156 L 310.597656 367.535156 L 328.597656 367.535156 Z M 307.597656 373.535156 L 289.597656 373.535156 L 289.597656 367.535156 L 307.597656 367.535156 Z M 286.597656 373.535156 L 268.597656 373.535156 L 268.597656 367.535156 L 286.597656 367.535156 Z M 265.597656 373.535156 L 247.597656 373.535156 L 247.597656 367.535156 L 265.597656 367.535156 Z M 244.597656 373.535156 L 226.597656 373.535156 L 226.597656 367.535156 L 244.597656 367.535156 Z M 223.597656 373.535156 L 205.597656 373.535156 L 205.597656 367.535156 L 223.597656 367.535156 Z M 202.597656 373.535156 L 184.597656 373.535156 L 184.597656 367.535156 L 202.597656 367.535156 Z M 181.597656 373.535156 L 163.597656 373.535156 L 163.597656 367.535156 L 181.597656 367.535156 Z M 160.597656 373.535156 L 142.597656 373.535156 L 142.597656 367.535156 L 160.597656 367.535156 Z M 139.597656 373.535156 L 121.597656 373.535156 L 121.597656 367.535156 L 139.597656 367.535156 Z M 118.597656 373.535156 L 100.597656 373.535156 L 100.597656 367.535156 L 118.597656 367.535156 Z M 97.597656 373.535156 L 79.597656 373.535156 L 79.597656 367.535156 L 97.597656 367.535156 Z M 76.597656 373.535156 L 58.597656 373.535156 L 58.597656 367.535156 L 76.597656 367.535156 Z M 55.597656 373.535156 L 38.347656 373.535156 L 38.347656 366.785156 L 44.347656 366.785156 L 44.347656 370.535156 L 41.347656 370.535156 L 41.347656 367.535156 L 55.597656 367.535156 Z M 38.347656 363.785156 L 38.347656 345.785156 L 44.347656 345.785156 L 44.347656 363.785156 Z M 38.347656 342.785156 L 38.347656 322.066406 L 59.347656 322.066406 L 59.347656 328.066406 L 41.347656 328.066406 L 41.347656 325.066406 L 44.347656 325.066406 L 44.347656 342.785156 Z M 38.347656 342.785156 " fill-opacity="1" fill-rule="nonzero"/></g><g clip-path="url(#776d700e33)"><path fill="#ffffff" d="M 41.289062 476.601562 L 550.800781 476.601562 L 550.800781 522.078125 L 41.289062 522.078125 Z M 41.289062 476.601562 " fill-opacity="1" fill-rule="nonzero"/></g><g clip-path="url(#7ea44b5a21)"><path fill="#1ad4e0" d="M 62.347656 473.601562 L 80.347656 473.601562 L 80.347656 479.601562 L 62.347656 479.601562 Z M 83.347656 473.601562 L 101.347656 473.601562 L 101.347656 479.601562 L 83.347656 479.601562 Z M 104.347656 473.601562 L 122.347656 473.601562 L 122.347656 479.601562 L 104.347656 479.601562 Z M 125.347656 473.601562 L 143.347656 473.601562 L 143.347656 479.601562 L 125.347656 479.601562 Z M 146.347656 473.601562 L 164.347656 473.601562 L 164.347656 479.601562 L 146.347656 479.601562 Z M 167.347656 473.601562 L 185.347656 473.601562 L 185.347656 479.601562 L 167.347656 479.601562 Z M 188.347656 473.601562 L 206.347656 473.601562 L 206.347656 479.601562 L 188.347656 479.601562 Z M 209.347656 473.601562 L 227.347656 473.601562 L 227.347656 479.601562 L 209.347656 479.601562 Z M 230.347656 473.601562 L 248.347656 473.601562 L 248.347656 479.601562 L 230.347656 479.601562 Z M 251.347656 473.601562 L 269.347656 473.601562 L 269.347656 479.601562 L 251.347656 479.601562 Z M 272.347656 473.601562 L 290.347656 473.601562 L 290.347656 479.601562 L 272.347656 479.601562 Z M 293.347656 473.601562 L 311.347656 473.601562 L 311.347656 479.601562 L 293.347656 479.601562 Z M 314.347656 473.601562 L 332.347656 473.601562 L 332.347656 479.601562 L 314.347656 479.601562 Z M 335.347656 473.601562 L 353.347656 473.601562 L 353.347656 479.601562 L 335.347656 479.601562 Z M 356.347656 473.601562 L 374.347656 473.601562 L 374.347656 479.601562 L 356.347656 479.601562 Z M 377.347656 473.601562 L 395.347656 473.601562 L 395.347656 479.601562 L 377.347656 479.601562 Z M 398.347656 473.601562 L 416.347656 473.601562 L 416.347656 479.601562 L 398.347656 479.601562 Z M 419.347656 473.601562 L 437.347656 473.601562 L 437.347656 479.601562 L 419.347656 479.601562 Z M 440.347656 473.601562 L 458.347656 473.601562 L 458.347656 479.601562 L 440.347656 479.601562 Z M 461.347656 473.601562 L 479.347656 473.601562 L 479.347656 479.601562 L 461.347656 479.601562 Z M 482.347656 473.601562 L 500.347656 473.601562 L 500.347656 479.601562 L 482.347656 479.601562 Z M 503.347656 473.601562 L 521.347656 473.601562 L 521.347656 479.601562 L 503.347656 479.601562 Z M 524.347656 473.601562 L 542.347656 473.601562 L 542.347656 479.601562 L 524.347656 479.601562 Z M 545.347656 473.601562 L 553.738281 473.601562 L 553.738281 489.210938 L 547.738281 489.210938 L 547.738281 476.601562 L 550.738281 476.601562 L 550.738281 479.601562 L 545.347656 479.601562 Z M 553.738281 492.210938 L 553.738281 510.210938 L 547.738281 510.210938 L 547.738281 492.210938 Z M 553.738281 513.210938 L 553.738281 525.070312 L 541.597656 525.070312 L 541.597656 519.070312 L 550.738281 519.070312 L 550.738281 522.070312 L 547.738281 522.070312 L 547.738281 513.210938 Z M 538.597656 525.070312 L 520.597656 525.070312 L 520.597656 519.070312 L 538.597656 519.070312 Z M 517.597656 525.070312 L 499.597656 525.070312 L 499.597656 519.070312 L 517.597656 519.070312 Z M 496.597656 525.070312 L 478.597656 525.070312 L 478.597656 519.070312 L 496.597656 519.070312 Z M 475.597656 525.070312 L 457.597656 525.070312 L 457.597656 519.070312 L 475.597656 519.070312 Z M 454.597656 525.070312 L 436.597656 525.070312 L 436.597656 519.070312 L 454.597656 519.070312 Z M 433.597656 525.070312 L 415.597656 525.070312 L 415.597656 519.070312 L 433.597656 519.070312 Z M 412.597656 525.070312 L 394.597656 525.070312 L 394.597656 519.070312 L 412.597656 519.070312 Z M 391.597656 525.070312 L 373.597656 525.070312 L 373.597656 519.070312 L 391.597656 519.070312 Z M 370.597656 525.070312 L 352.597656 525.070312 L 352.597656 519.070312 L 370.597656 519.070312 Z M 349.597656 525.070312 L 331.597656 525.070312 L 331.597656 519.070312 L 349.597656 519.070312 Z M 328.597656 525.070312 L 310.597656 525.070312 L 310.597656 519.070312 L 328.597656 519.070312 Z M 307.597656 525.070312 L 289.597656 525.070312 L 289.597656 519.070312 L 307.597656 519.070312 Z M 286.597656 525.070312 L 268.597656 525.070312 L 268.597656 519.070312 L 286.597656 519.070312 Z M 265.597656 525.070312 L 247.597656 525.070312 L 247.597656 519.070312 L 265.597656 519.070312 Z M 244.597656 525.070312 L 226.597656 525.070312 L 226.597656 519.070312 L 244.597656 519.070312 Z M 223.597656 525.070312 L 205.597656 525.070312 L 205.597656 519.070312 L 223.597656 519.070312 Z M 202.597656 525.070312 L 184.597656 525.070312 L 184.597656 519.070312 L 202.597656 519.070312 Z M 181.597656 525.070312 L 163.597656 525.070312 L 163.597656 519.070312 L 181.597656 519.070312 Z M 160.597656 525.070312 L 142.597656 525.070312 L 142.597656 519.070312 L 160.597656 519.070312 Z M 139.597656 525.070312 L 121.597656 525.070312 L 121.597656 519.070312 L 139.597656 519.070312 Z M 118.597656 525.070312 L 100.597656 525.070312 L 100.597656 519.070312 L 118.597656 519.070312 Z M 97.597656 525.070312 L 79.597656 525.070312 L 79.597656 519.070312 L 97.597656 519.070312 Z M 76.597656 525.070312 L 58.597656 525.070312 L 58.597656 519.070312 L 76.597656 519.070312 Z M 55.597656 525.070312 L 38.347656 525.070312 L 38.347656 518.320312 L 44.347656 518.320312 L 44.347656 522.070312 L 41.347656 522.070312 L 41.347656 519.070312 L 55.597656 519.070312 Z M 38.347656 515.320312 L 38.347656 497.320312 L 44.347656 497.320312 L 44.347656 515.320312 Z M 38.347656 494.320312 L 38.347656 473.601562 L 59.347656 473.601562 L 59.347656 479.601562 L 41.347656 479.601562 L 41.347656 476.601562 L 44.347656 476.601562 L 44.347656 494.320312 Z M 38.347656 494.320312 " fill-opacity="1" fill-rule="nonzero"/></g><g clip-path="url(#a2af12ae99)"><path fill="#ffffff" d="M 41.289062 626.21875 L 550.800781 626.21875 L 550.800781 671.699219 L 41.289062 671.699219 Z M 41.289062 626.21875 " fill-opacity="1" fill-rule="nonzero"/></g><g clip-path="url(#29e1e21895)"><path fill="#ffd64f" d="M 62.347656 623.21875 L 80.347656 623.21875 L 80.347656 629.21875 L 62.347656 629.21875 Z M 83.347656 623.21875 L 101.347656 623.21875 L 101.347656 629.21875 L 83.347656 629.21875 Z M 104.347656 623.21875 L 122.347656 623.21875 L 122.347656 629.21875 L 104.347656 629.21875 Z M 125.347656 623.21875 L 143.347656 623.21875 L 143.347656 629.21875 L 125.347656 629.21875 Z M 146.347656 623.21875 L 164.347656 623.21875 L 164.347656 629.21875 L 146.347656 629.21875 Z M 167.347656 623.21875 L 185.347656 623.21875 L 185.347656 629.21875 L 167.347656 629.21875 Z M 188.347656 623.21875 L 206.347656 623.21875 L 206.347656 629.21875 L 188.347656 629.21875 Z M 209.347656 623.21875 L 227.347656 623.21875 L 227.347656 629.21875 L 209.347656 629.21875 Z M 230.347656 623.21875 L 248.347656 623.21875 L 248.347656 629.21875 L 230.347656 629.21875 Z M 251.347656 623.21875 L 269.347656 623.21875 L 269.347656 629.21875 L 251.347656 629.21875 Z M 272.347656 623.21875 L 290.347656 623.21875 L 290.347656 629.21875 L 272.347656 629.21875 Z M 293.347656 623.21875 L 311.347656 623.21875 L 311.347656 629.21875 L 293.347656 629.21875 Z M 314.347656 623.21875 L 332.347656 623.21875 L 332.347656 629.21875 L 314.347656 629.21875 Z M 335.347656 623.21875 L 353.347656 623.21875 L 353.347656 629.21875 L 335.347656 629.21875 Z M 356.347656 623.21875 L 374.347656 623.21875 L 374.347656 629.21875 L 356.347656 629.21875 Z M 377.347656 623.21875 L 395.347656 623.21875 L 395.347656 629.21875 L 377.347656 629.21875 Z M 398.347656 623.21875 L 416.347656 623.21875 L 416.347656 629.21875 L 398.347656 629.21875 Z M 419.347656 623.21875 L 437.347656 623.21875 L 437.347656 629.21875 L 419.347656 629.21875 Z M 440.347656 623.21875 L 458.347656 623.21875 L 458.347656 629.21875 L 440.347656 629.21875 Z M 461.347656 623.21875 L 479.347656 623.21875 L 479.347656 629.21875 L 461.347656 629.21875 Z M 482.347656 623.21875 L 500.347656 623.21875 L 500.347656 629.21875 L 482.347656 629.21875 Z M 503.347656 623.21875 L 521.347656 623.21875 L 521.347656 629.21875 L 503.347656 629.21875 Z M 524.347656 623.21875 L 542.347656 623.21875 L 542.347656 629.21875 L 524.347656 629.21875 Z M 545.347656 623.21875 L 553.738281 623.21875 L 553.738281 638.828125 L 547.738281 638.828125 L 547.738281 626.21875 L 550.738281 626.21875 L 550.738281 629.21875 L 545.347656 629.21875 Z M 553.738281 641.828125 L 553.738281 659.828125 L 547.738281 659.828125 L 547.738281 641.828125 Z M 553.738281 662.828125 L 553.738281 674.6875 L 541.597656 674.6875 L 541.597656 668.6875 L 550.738281 668.6875 L 550.738281 671.6875 L 547.738281 671.6875 L 547.738281 662.828125 Z M 538.597656 674.6875 L 520.597656 674.6875 L 520.597656 668.6875 L 538.597656 668.6875 Z M 517.597656 674.6875 L 499.597656 674.6875 L 499.597656 668.6875 L 517.597656 668.6875 Z M 496.597656 674.6875 L 478.597656 674.6875 L 478.597656 668.6875 L 496.597656 668.6875 Z M 475.597656 674.6875 L 457.597656 674.6875 L 457.597656 668.6875 L 475.597656 668.6875 Z M 454.597656 674.6875 L 436.597656 674.6875 L 436.597656 668.6875 L 454.597656 668.6875 Z M 433.597656 674.6875 L 415.597656 674.6875 L 415.597656 668.6875 L 433.597656 668.6875 Z M 412.597656 674.6875 L 394.597656 674.6875 L 394.597656 668.6875 L 412.597656 668.6875 Z M 391.597656 674.6875 L 373.597656 674.6875 L 373.597656 668.6875 L 391.597656 668.6875 Z M 370.597656 674.6875 L 352.597656 674.6875 L 352.597656 668.6875 L 370.597656 668.6875 Z M 349.597656 674.6875 L 331.597656 674.6875 L 331.597656 668.6875 L 349.597656 668.6875 Z M 328.597656 674.6875 L 310.597656 674.6875 L 310.597656 668.6875 L 328.597656 668.6875 Z M 307.597656 674.6875 L 289.597656 674.6875 L 289.597656 668.6875 L 307.597656 668.6875 Z M 286.597656 674.6875 L 268.597656 674.6875 L 268.597656 668.6875 L 286.597656 668.6875 Z M 265.597656 674.6875 L 247.597656 674.6875 L 247.597656 668.6875 L 265.597656 668.6875 Z M 244.597656 674.6875 L 226.597656 674.6875 L 226.597656 668.6875 L 244.597656 668.6875 Z M 223.597656 674.6875 L 205.597656 674.6875 L 205.597656 668.6875 L 223.597656 668.6875 Z M 202.597656 674.6875 L 184.597656 674.6875 L 184.597656 668.6875 L 202.597656 668.6875 Z M 181.597656 674.6875 L 163.597656 674.6875 L 163.597656 668.6875 L 181.597656 668.6875 Z M 160.597656 674.6875 L 142.597656 674.6875 L 142.597656 668.6875 L 160.597656 668.6875 Z M 139.597656 674.6875 L 121.597656 674.6875 L 121.597656 668.6875 L 139.597656 668.6875 Z M 118.597656 674.6875 L 100.597656 674.6875 L 100.597656 668.6875 L 118.597656 668.6875 Z M 97.597656 674.6875 L 79.597656 674.6875 L 79.597656 668.6875 L 97.597656 668.6875 Z M 76.597656 674.6875 L 58.597656 674.6875 L 58.597656 668.6875 L 76.597656 668.6875 Z M 55.597656 674.6875 L 38.347656 674.6875 L 38.347656 667.9375 L 44.347656 667.9375 L 44.347656 671.6875 L 41.347656 671.6875 L 41.347656 668.6875 L 55.597656 668.6875 Z M 38.347656 664.9375 L 38.347656 646.9375 L 44.347656 646.9375 L 44.347656 664.9375 Z M 38.347656 643.9375 L 38.347656 623.21875 L 59.347656 623.21875 L 59.347656 629.21875 L 41.347656 629.21875 L 41.347656 626.21875 L 44.347656 626.21875 L 44.347656 643.9375 Z M 38.347656 643.9375 " fill-opacity="1" fill-rule="nonzero"/></g></svg>