<svg xmlns="http://www.w3.org/2000/svg" xmlns:xlink="http://www.w3.org/1999/xlink" width="816" zoomAndPan="magnify" viewBox="0 0 612 791.999994" height="1056" preserveAspectRatio="xMidYMid meet" version="1.0"><defs><clipPath id="cfaafb77e3"><path d="M 41.289062 192.601562 L 209 192.601562 L 209 342 L 41.289062 342 Z M 41.289062 192.601562 " clip-rule="nonzero"/></clipPath><clipPath id="a956f85a13"><path d="M 207.785156 242.023438 L 306.035156 242.023438 L 306.035156 278 L 207.785156 278 Z M 207.785156 242.023438 " clip-rule="nonzero"/></clipPath><clipPath id="00c1c587cf"><path d="M 282.59375 432.269531 L 380.796875 432.269531 L 380.796875 468.269531 L 282.59375 468.269531 Z M 282.59375 432.269531 " clip-rule="nonzero"/></clipPath><clipPath id="a45bdac80d"><path d="M 381 375.058594 L 549 375.058594 L 549 524 L 381 524 Z M 381 375.058594 " clip-rule="nonzero"/></clipPath><clipPath id="9b7e43741a"><path d="M 37 559.585938 L 204 559.585938 L 204 709 L 37 709 Z M 37 559.585938 " clip-rule="nonzero"/></clipPath><clipPath id="2fc55a87b9"><path d="M 203.050781 609.007812 L 301.300781 609.007812 L 301.300781 645 L 203.050781 645 Z M 203.050781 609.007812 " clip-rule="nonzero"/></clipPath></defs><g clip-path="url(#cfaafb77e3)"><path fill="#7ea7fc" d="M 95.605469 210.597656 C 104.378906 205.761719 113.9375 204.1875 123.273438 201.148438 C 121.699219 200.585938 120.351562 200.023438 118.886719 199.6875 C 116.300781 199.125 115.402344 197.550781 115.964844 195.1875 C 116.636719 192.601562 118.777344 192.601562 120.574219 193.164062 C 124.398438 194.289062 128.335938 194.960938 132.160156 195.972656 C 140.261719 198 148.246094 200.25 156.457031 201.824219 C 160.957031 202.609375 165.570312 204.296875 168.71875 208.347656 C 170.742188 210.933594 174.117188 211.722656 176.816406 213.410156 C 185.703125 219.144531 193.125 226.230469 198.75 235.007812 C 207.523438 248.839844 211.125 263.578125 206.960938 280.113281 C 202.351562 298.785156 191.550781 312.394531 176.140625 323.191406 C 167.59375 329.265625 158.480469 334.101562 148.582031 337.140625 C 134.636719 341.527344 120.574219 342.765625 106.066406 339.164062 C 90.992188 335.453125 77.382812 329.042969 65.234375 319.480469 C 51.625 309.019531 42.960938 295.410156 41.949219 277.863281 C 41.386719 268.300781 44.539062 259.300781 49.261719 251.089844 C 57.023438 237.253906 68.382812 226.792969 81.542969 218.246094 C 85.929688 215.320312 90.316406 212.507812 95.605469 210.597656 Z M 87.617188 222.519531 C 77.832031 228.371094 69.171875 235.566406 61.972656 244.453125 C 55.335938 252.664062 50.160156 261.890625 49.261719 272.6875 C 47.910156 287.871094 54.210938 300.132812 65.121094 310.257812 C 77.15625 321.390625 91.328125 328.480469 107.300781 332.640625 C 120.6875 336.128906 133.625 334.777344 146.332031 330.839844 C 154.546875 328.367188 162.082031 324.429688 169.394531 319.59375 C 184.242188 309.917969 195.375 297.546875 199.988281 279.886719 C 204.710938 262 199.988281 246.703125 188.628906 232.867188 C 181.539062 224.207031 172.542969 218.132812 162.417969 213.410156 C 152.746094 208.796875 143.183594 204.859375 132.160156 207.449219 C 130.699219 207.785156 129.125 208.011719 127.550781 208.234375 C 113.265625 209.699219 100.441406 215.097656 87.617188 222.519531 Z M 87.617188 222.519531 " fill-opacity="1" fill-rule="nonzero"/></g><g clip-path="url(#a956f85a13)"><path fill="#7ea7fc" d="M 306.007812 244.671875 C 305.984375 244.152344 305.78125 243.652344 305.464844 243.246094 C 305.257812 243.0625 305.011719 242.949219 304.761719 242.929688 C 304.171875 242.792969 303.5625 242.722656 302.949219 242.632812 L 301.230469 242.363281 C 300.640625 242.273438 300.074219 242.179688 299.488281 242.136719 L 298.582031 242.066406 C 298.355469 242.046875 298.105469 242.023438 297.859375 242.023438 C 297.5625 242.023438 297.359375 242.292969 297.246094 242.519531 C 297.066406 242.90625 296.976562 243.3125 296.996094 243.742188 C 296.976562 244.171875 297.066406 244.582031 297.246094 244.964844 C 297.359375 245.191406 297.5625 245.464844 297.859375 245.464844 C 298.265625 245.464844 298.648438 245.507812 299.058594 245.53125 C 299.488281 245.554688 299.917969 245.597656 300.347656 245.667969 L 300.371094 245.667969 C 299.285156 246.027344 298.21875 246.414062 297.132812 246.800781 C 296.136719 247.160156 295.140625 247.523438 294.144531 247.90625 C 293.285156 248.226562 292.449219 248.566406 291.585938 248.902344 C 290.613281 249.289062 289.640625 249.671875 288.667969 250.082031 C 287.695312 250.488281 286.699219 250.875 285.726562 251.304688 C 283.800781 252.140625 281.855469 252.957031 279.929688 253.816406 C 278.820312 254.3125 277.710938 254.8125 276.601562 255.308594 C 276.332031 254.789062 275.96875 254.335938 275.515625 253.972656 C 274.996094 253.542969 274.429688 253.203125 273.820312 252.957031 C 273.117188 252.683594 272.371094 252.480469 271.621094 252.34375 C 270.921875 252.230469 270.195312 252.140625 269.472656 252.117188 C 268.632812 252.09375 267.796875 252.117188 266.9375 252.140625 C 266.710938 252.140625 266.507812 252.164062 266.28125 252.1875 C 266.054688 252.207031 265.851562 252.207031 265.625 252.230469 C 265.105469 252.277344 264.582031 252.320312 264.0625 252.390625 C 263.019531 252.527344 261.980469 252.660156 260.9375 252.886719 L 259.21875 253.226562 C 258.675781 253.339844 258.109375 253.453125 257.566406 253.589844 C 256.613281 253.792969 255.664062 254.042969 254.734375 254.269531 C 253.628906 254.539062 252.539062 254.835938 251.429688 255.152344 C 250.390625 255.421875 249.371094 255.738281 248.351562 256.035156 C 246.453125 256.578125 244.550781 257.167969 242.671875 257.800781 C 240.65625 258.480469 238.640625 259.15625 236.628906 259.859375 C 234.726562 260.492188 232.847656 261.171875 230.96875 261.875 C 230.449219 262.078125 229.925781 262.257812 229.429688 262.464844 L 227.753906 263.140625 C 226.824219 263.503906 225.875 263.890625 224.949219 264.273438 C 224.019531 264.660156 223.089844 265.019531 222.1875 265.429688 C 221.710938 265.632812 221.234375 265.8125 220.78125 266.039062 L 219.0625 266.808594 C 218.585938 267.011719 218.109375 267.261719 217.636719 267.488281 C 217.160156 267.714844 216.730469 267.941406 216.253906 268.167969 C 215.78125 268.394531 215.351562 268.621094 214.898438 268.847656 C 214.445312 269.074219 213.96875 269.34375 213.492188 269.59375 C 212.632812 270.070312 211.773438 270.566406 210.9375 271.109375 C 210.484375 271.402344 210.03125 271.675781 209.621094 271.992188 C 209.417969 272.152344 209.191406 272.308594 208.988281 272.46875 C 208.875 272.558594 208.761719 272.648438 208.671875 272.738281 C 208.535156 272.851562 208.402344 272.964844 208.289062 273.101562 C 208.195312 273.191406 208.128906 273.304688 208.082031 273.417969 C 208.015625 273.554688 207.96875 273.691406 207.925781 273.847656 C 207.835938 274.1875 207.8125 274.550781 207.835938 274.914062 C 207.855469 275.230469 207.925781 275.546875 208.082031 275.839844 C 208.175781 276.023438 208.332031 276.269531 208.558594 276.316406 C 208.648438 276.339844 208.761719 276.339844 208.851562 276.316406 L 209.035156 276.226562 L 209.125 276.179688 C 209.261719 276.089844 209.375 275.953125 209.441406 275.816406 C 209.691406 275.613281 209.960938 275.386719 210.234375 275.207031 C 210.617188 274.957031 210.980469 274.6875 211.367188 274.4375 C 212.042969 273.984375 212.769531 273.578125 213.472656 273.167969 C 214.128906 272.761719 214.828125 272.398438 215.507812 272.0625 C 216.1875 271.722656 216.867188 271.382812 217.546875 271.042969 C 218.222656 270.703125 218.949219 270.363281 219.652344 270.046875 C 220.464844 269.683594 221.28125 269.320312 222.117188 268.960938 C 223.703125 268.28125 225.308594 267.625 226.917969 266.988281 C 228.726562 266.265625 230.5625 265.542969 232.394531 264.886719 C 233.457031 264.5 234.5 264.136719 235.5625 263.753906 C 236.492188 263.4375 237.417969 263.121094 238.347656 262.800781 C 240.316406 262.125 242.285156 261.445312 244.277344 260.808594 C 245.363281 260.472656 246.453125 260.132812 247.5625 259.792969 C 248.601562 259.476562 249.644531 259.179688 250.683594 258.886719 C 251.679688 258.59375 252.699219 258.34375 253.71875 258.050781 C 254.601562 257.800781 255.507812 257.574219 256.386719 257.371094 C 256.886719 257.257812 257.363281 257.121094 257.859375 257.03125 C 258.402344 256.917969 258.96875 256.78125 259.511719 256.667969 L 261.234375 256.328125 C 261.664062 256.238281 262.09375 256.171875 262.523438 256.101562 C 263.066406 256.035156 263.585938 255.945312 264.128906 255.875 C 264.671875 255.808594 265.238281 255.738281 265.804688 255.695312 L 266.824219 255.625 C 267.117188 255.605469 267.414062 255.605469 267.707031 255.605469 C 268.929688 255.558594 270.175781 255.605469 271.394531 255.785156 C 272.257812 255.921875 273.117188 256.191406 273.910156 256.554688 L 273.839844 256.578125 C 272.980469 256.984375 272.097656 257.371094 271.238281 257.800781 C 270.71875 258.050781 270.175781 258.296875 269.652344 258.546875 L 268.070312 259.339844 C 267.617188 259.566406 267.140625 259.835938 266.6875 260.0625 C 266.324219 260.246094 265.984375 260.449219 265.625 260.652344 L 263.835938 261.671875 C 263.472656 261.875 263.132812 262.101562 262.773438 262.304688 L 261.820312 262.894531 C 261.707031 262.960938 261.59375 263.027344 261.480469 263.097656 L 259.941406 264.160156 C 259.148438 264.703125 258.378906 265.292969 257.65625 265.902344 C 256.570312 266.785156 255.597656 267.78125 254.734375 268.890625 C 254.285156 269.480469 253.921875 270.136719 253.605469 270.816406 C 253.289062 271.515625 253.082031 272.285156 252.992188 273.078125 C 252.949219 273.578125 252.96875 274.074219 253.039062 274.574219 C 253.105469 274.933594 253.195312 275.296875 253.332031 275.660156 C 253.445312 275.976562 253.628906 276.292969 253.832031 276.566406 C 253.945312 276.699219 254.058594 276.835938 254.171875 276.949219 C 254.285156 277.0625 254.417969 277.175781 254.554688 277.246094 C 254.871094 277.425781 255.210938 277.5625 255.574219 277.652344 C 255.867188 277.71875 256.183594 277.742188 256.5 277.765625 L 256.59375 277.765625 C 257.226562 277.765625 257.859375 277.695312 258.492188 277.5625 C 259.21875 277.378906 259.941406 277.152344 260.644531 276.859375 C 260.710938 276.835938 260.78125 276.792969 260.871094 276.769531 L 261.347656 276.566406 L 262.09375 276.226562 C 262.320312 276.113281 262.546875 275.976562 262.773438 275.863281 L 263.632812 275.410156 C 263.789062 275.320312 263.949219 275.230469 264.109375 275.140625 L 265.011719 274.597656 C 265.441406 274.347656 265.875 274.03125 266.28125 273.757812 C 266.4375 273.644531 266.621094 273.53125 266.777344 273.394531 C 267.003906 273.238281 267.230469 273.078125 267.433594 272.898438 L 268.726562 271.855469 C 269.179688 271.496094 269.585938 271.109375 270.015625 270.726562 C 270.175781 270.589844 270.332031 270.453125 270.46875 270.316406 L 270.945312 269.84375 L 271.757812 269.027344 C 271.847656 268.9375 271.960938 268.847656 272.054688 268.734375 C 272.484375 268.257812 272.914062 267.78125 273.34375 267.308594 C 273.613281 266.988281 273.886719 266.671875 274.15625 266.332031 C 274.589844 265.789062 275.019531 265.246094 275.378906 264.660156 C 276.242188 263.367188 276.851562 261.941406 277.167969 260.449219 C 277.257812 260.019531 277.304688 259.589844 277.328125 259.15625 C 277.328125 258.933594 277.347656 258.707031 277.347656 258.480469 C 278.503906 257.957031 279.660156 257.4375 280.789062 256.941406 C 282.714844 256.078125 284.636719 255.242188 286.585938 254.425781 C 288.578125 253.613281 290.570312 252.773438 292.582031 252.003906 C 293.601562 251.597656 294.621094 251.191406 295.640625 250.828125 C 296.65625 250.464844 297.699219 250.082031 298.742188 249.71875 C 299.667969 249.378906 300.621094 249.0625 301.570312 248.746094 L 302.929688 248.292969 C 302.816406 248.566406 302.703125 248.859375 302.589844 249.152344 C 302.386719 249.71875 302.160156 250.285156 301.953125 250.851562 C 301.75 251.394531 301.546875 251.960938 301.320312 252.480469 L 301.34375 252.414062 C 301.183594 252.773438 301.117188 253.183594 301.117188 253.589844 C 301.09375 254.019531 301.183594 254.425781 301.367188 254.8125 C 301.480469 255.039062 301.683594 255.308594 301.976562 255.308594 C 302.273438 255.308594 302.476562 255.039062 302.589844 254.8125 C 302.90625 254.066406 303.175781 253.316406 303.472656 252.546875 C 303.902344 251.4375 304.308594 250.328125 304.738281 249.222656 C 304.964844 248.65625 305.191406 248.089844 305.394531 247.523438 C 305.578125 247.09375 305.710938 246.640625 305.847656 246.1875 C 306.007812 245.691406 306.050781 245.167969 306.007812 244.671875 Z M 254.714844 273.644531 L 254.734375 273.757812 C 254.714844 273.714844 254.714844 273.691406 254.714844 273.644531 Z M 254.714844 273.554688 C 254.714844 273.53125 254.714844 273.507812 254.714844 273.488281 Z M 275.449219 259.679688 C 275.378906 259.882812 275.3125 260.085938 275.222656 260.289062 C 275.0625 260.675781 274.859375 261.035156 274.65625 261.398438 C 274.226562 262.078125 273.773438 262.734375 273.273438 263.367188 C 273.027344 263.683594 272.753906 264.003906 272.484375 264.296875 L 271.667969 265.203125 C 271.507812 265.382812 271.375 265.5625 271.214844 265.722656 L 270.671875 266.265625 C 270.289062 266.652344 269.902344 267.058594 269.496094 267.421875 L 268.113281 268.640625 C 267.660156 269.027344 267.207031 269.414062 266.734375 269.75 L 266.167969 270.183594 C 266.078125 270.25 265.984375 270.339844 265.875 270.40625 L 264.96875 271.019531 C 264.425781 271.382812 263.835938 271.722656 263.269531 272.0625 C 263.042969 272.195312 262.792969 272.308594 262.566406 272.445312 L 261.753906 272.875 L 260.960938 273.238281 C 260.757812 273.328125 260.554688 273.441406 260.328125 273.507812 L 259.332031 273.871094 C 258.832031 274.050781 258.335938 274.1875 257.816406 274.257812 C 257.203125 274.371094 256.570312 274.371094 255.9375 274.300781 C 255.664062 274.257812 255.414062 274.1875 255.167969 274.074219 C 255.054688 274.007812 254.960938 273.9375 254.847656 273.871094 C 254.804688 273.828125 254.757812 273.78125 254.714844 273.734375 L 254.667969 273.667969 C 254.667969 273.644531 254.691406 273.601562 254.691406 273.554688 C 254.714844 273.464844 254.757812 273.375 254.78125 273.28125 C 254.871094 273.054688 254.984375 272.851562 255.097656 272.648438 C 255.347656 272.242188 255.617188 271.855469 255.914062 271.496094 C 256.613281 270.65625 257.382812 269.910156 258.222656 269.207031 L 258.265625 269.164062 C 258.96875 268.574219 259.714844 268.007812 260.484375 267.488281 L 262.003906 266.46875 C 262.136719 266.378906 262.296875 266.289062 262.457031 266.199219 L 263.359375 265.632812 C 263.699219 265.429688 264.039062 265.203125 264.378906 265.019531 C 265.328125 264.476562 266.28125 263.933594 267.253906 263.414062 C 267.707031 263.1875 268.136719 262.9375 268.589844 262.710938 L 270.082031 261.964844 C 270.921875 261.558594 271.757812 261.148438 272.617188 260.765625 L 275.492188 259.40625 C 275.515625 259.429688 275.472656 259.566406 275.449219 259.679688 Z M 275.449219 259.679688 " fill-opacity="1" fill-rule="nonzero"/></g><g clip-path="url(#00c1c587cf)"><path fill="#7ea7fc" d="M 282.621094 434.917969 C 282.644531 434.394531 282.847656 433.898438 283.164062 433.488281 C 283.367188 433.308594 283.617188 433.195312 283.867188 433.171875 C 284.453125 433.039062 285.066406 432.96875 285.675781 432.878906 L 287.398438 432.605469 C 287.984375 432.515625 288.550781 432.425781 289.140625 432.378906 L 290.046875 432.3125 C 290.273438 432.289062 290.519531 432.269531 290.769531 432.269531 C 291.066406 432.269531 291.269531 432.539062 291.382812 432.765625 C 291.5625 433.152344 291.652344 433.558594 291.628906 433.988281 C 291.652344 434.417969 291.5625 434.824219 291.382812 435.210938 C 291.269531 435.4375 291.066406 435.707031 290.769531 435.707031 C 290.363281 435.707031 289.976562 435.753906 289.570312 435.777344 C 289.140625 435.800781 288.710938 435.84375 288.28125 435.910156 L 288.257812 435.910156 C 289.34375 436.273438 290.40625 436.660156 291.496094 437.042969 C 292.492188 437.40625 293.488281 437.769531 294.484375 438.152344 C 295.34375 438.46875 296.179688 438.808594 297.039062 439.148438 C 298.015625 439.535156 298.988281 439.917969 299.960938 440.324219 C 300.933594 440.734375 301.929688 441.117188 302.902344 441.546875 C 304.828125 442.386719 306.773438 443.199219 308.699219 444.0625 C 309.808594 444.558594 310.917969 445.058594 312.027344 445.554688 C 312.296875 445.035156 312.660156 444.582031 313.113281 444.21875 C 313.632812 443.789062 314.199219 443.449219 314.808594 443.199219 C 315.511719 442.929688 316.257812 442.726562 317.003906 442.589844 C 317.707031 442.476562 318.429688 442.386719 319.15625 442.363281 C 319.992188 442.339844 320.832031 442.363281 321.691406 442.386719 C 321.917969 442.386719 322.121094 442.410156 322.347656 442.429688 C 322.574219 442.453125 322.777344 442.453125 323.003906 442.476562 C 323.523438 442.523438 324.046875 442.566406 324.566406 442.636719 C 325.605469 442.769531 326.648438 442.90625 327.691406 443.132812 L 329.410156 443.472656 C 329.953125 443.585938 330.519531 443.699219 331.0625 443.835938 C 332.011719 444.039062 332.964844 444.289062 333.890625 444.515625 C 335 444.785156 336.085938 445.078125 337.195312 445.398438 C 338.238281 445.667969 339.257812 445.984375 340.273438 446.28125 C 342.175781 446.824219 344.078125 447.410156 345.957031 448.042969 C 347.972656 448.722656 349.984375 449.402344 352 450.105469 C 353.902344 450.738281 355.78125 451.417969 357.660156 452.121094 C 358.179688 452.324219 358.699219 452.503906 359.199219 452.707031 L 360.875 453.386719 C 361.800781 453.75 362.753906 454.132812 363.679688 454.519531 C 364.609375 454.902344 365.535156 455.265625 366.441406 455.671875 C 366.917969 455.878906 367.394531 456.058594 367.847656 456.285156 L 369.566406 457.054688 C 370.042969 457.257812 370.515625 457.507812 370.992188 457.734375 C 371.46875 457.960938 371.898438 458.1875 372.371094 458.414062 C 372.847656 458.636719 373.277344 458.863281 373.730469 459.089844 C 374.183594 459.316406 374.660156 459.589844 375.132812 459.839844 C 375.996094 460.3125 376.855469 460.8125 377.691406 461.355469 C 378.144531 461.648438 378.597656 461.921875 379.003906 462.238281 C 379.210938 462.394531 379.433594 462.554688 379.640625 462.714844 C 379.753906 462.804688 379.867188 462.894531 379.957031 462.984375 C 380.09375 463.097656 380.226562 463.210938 380.339844 463.347656 C 380.429688 463.4375 380.5 463.550781 380.542969 463.664062 C 380.613281 463.800781 380.65625 463.933594 380.703125 464.09375 C 380.792969 464.433594 380.816406 464.796875 380.792969 465.15625 C 380.769531 465.472656 380.703125 465.792969 380.542969 466.085938 C 380.453125 466.265625 380.296875 466.515625 380.070312 466.5625 C 379.980469 466.582031 379.867188 466.582031 379.773438 466.5625 L 379.59375 466.46875 L 379.503906 466.425781 C 379.367188 466.335938 379.253906 466.199219 379.1875 466.0625 C 378.9375 465.859375 378.664062 465.632812 378.394531 465.453125 C 378.007812 465.203125 377.648438 464.929688 377.261719 464.683594 C 376.582031 464.230469 375.859375 463.820312 375.15625 463.414062 C 374.5 463.007812 373.800781 462.644531 373.121094 462.304688 C 372.441406 461.964844 371.761719 461.625 371.082031 461.285156 C 370.402344 460.949219 369.679688 460.609375 368.976562 460.289062 C 368.164062 459.929688 367.347656 459.566406 366.511719 459.203125 C 364.925781 458.523438 363.320312 457.867188 361.710938 457.234375 C 359.902344 456.511719 358.066406 455.785156 356.234375 455.128906 C 355.167969 454.746094 354.128906 454.382812 353.066406 454 C 352.136719 453.679688 351.207031 453.363281 350.28125 453.046875 C 348.3125 452.367188 346.339844 451.6875 344.351562 451.054688 C 343.261719 450.714844 342.175781 450.375 341.066406 450.035156 C 340.027344 449.71875 338.984375 449.425781 337.945312 449.132812 C 336.949219 448.835938 335.929688 448.589844 334.910156 448.292969 C 334.027344 448.042969 333.121094 447.820312 332.238281 447.613281 C 331.742188 447.5 331.265625 447.367188 330.769531 447.273438 C 330.226562 447.164062 329.660156 447.027344 329.117188 446.914062 L 327.394531 446.574219 C 326.964844 446.484375 326.535156 446.414062 326.105469 446.347656 C 325.5625 446.28125 325.042969 446.1875 324.496094 446.121094 C 323.953125 446.054688 323.390625 445.984375 322.824219 445.941406 L 321.804688 445.871094 C 321.511719 445.847656 321.214844 445.847656 320.921875 445.847656 C 319.699219 445.804688 318.453125 445.847656 317.230469 446.03125 C 316.371094 446.167969 315.511719 446.4375 314.71875 446.800781 L 314.785156 446.824219 C 315.648438 447.230469 316.53125 447.613281 317.390625 448.042969 C 317.910156 448.292969 318.453125 448.542969 318.976562 448.792969 L 320.558594 449.585938 C 321.011719 449.808594 321.488281 450.082031 321.941406 450.308594 C 322.300781 450.488281 322.640625 450.691406 323.003906 450.898438 L 324.792969 451.914062 C 325.15625 452.121094 325.492188 452.347656 325.855469 452.550781 L 326.808594 453.136719 C 326.921875 453.207031 327.03125 453.273438 327.144531 453.339844 L 328.683594 454.40625 C 329.476562 454.949219 330.246094 455.539062 330.972656 456.148438 C 332.058594 457.03125 333.03125 458.027344 333.890625 459.136719 C 334.34375 459.726562 334.707031 460.382812 335.023438 461.0625 C 335.339844 461.761719 335.542969 462.53125 335.636719 463.324219 C 335.679688 463.820312 335.65625 464.320312 335.589844 464.816406 C 335.523438 465.179688 335.429688 465.542969 335.296875 465.90625 C 335.183594 466.222656 335 466.539062 334.796875 466.808594 C 334.683594 466.945312 334.570312 467.082031 334.457031 467.195312 C 334.34375 467.308594 334.207031 467.421875 334.074219 467.488281 C 333.757812 467.671875 333.417969 467.804688 333.054688 467.898438 C 332.761719 467.964844 332.441406 467.988281 332.125 468.011719 L 332.035156 468.011719 C 331.402344 468.011719 330.769531 467.941406 330.132812 467.804688 C 329.410156 467.625 328.683594 467.398438 327.984375 467.105469 C 327.914062 467.082031 327.847656 467.035156 327.757812 467.015625 L 327.28125 466.808594 L 326.535156 466.46875 C 326.308594 466.355469 326.082031 466.222656 325.855469 466.109375 L 324.996094 465.65625 C 324.835938 465.566406 324.679688 465.476562 324.519531 465.382812 L 323.613281 464.839844 C 323.183594 464.59375 322.753906 464.273438 322.347656 464.003906 C 322.1875 463.890625 322.007812 463.777344 321.847656 463.640625 C 321.625 463.484375 321.398438 463.324219 321.191406 463.144531 L 319.902344 462.101562 C 319.449219 461.738281 319.042969 461.355469 318.613281 460.96875 C 318.453125 460.835938 318.296875 460.699219 318.160156 460.5625 L 316.871094 459.273438 C 316.777344 459.183594 316.664062 459.089844 316.574219 458.976562 C 316.144531 458.503906 315.714844 458.027344 315.285156 457.550781 C 315.011719 457.234375 314.742188 456.917969 314.46875 456.578125 C 314.039062 456.035156 313.609375 455.492188 313.246094 454.902344 C 312.386719 453.613281 311.777344 452.1875 311.460938 450.691406 C 311.367188 450.261719 311.324219 449.832031 311.300781 449.402344 C 311.300781 449.175781 311.277344 448.949219 311.277344 448.722656 C 310.125 448.203125 308.96875 447.683594 307.835938 447.183594 C 305.914062 446.324219 303.988281 445.488281 302.042969 444.671875 C 300.050781 443.855469 298.058594 443.019531 296.042969 442.25 C 295.027344 441.84375 294.007812 441.433594 292.988281 441.074219 C 291.96875 440.710938 290.929688 440.324219 289.886719 439.964844 C 288.960938 439.625 288.007812 439.308594 287.058594 438.992188 L 285.699219 438.539062 C 285.8125 438.808594 285.925781 439.105469 286.039062 439.398438 C 286.242188 439.964844 286.46875 440.53125 286.671875 441.09375 C 286.875 441.640625 287.082031 442.203125 287.308594 442.726562 L 287.285156 442.65625 C 287.441406 443.019531 287.511719 443.425781 287.511719 443.835938 C 287.535156 444.265625 287.441406 444.671875 287.261719 445.058594 C 287.148438 445.285156 286.945312 445.554688 286.652344 445.554688 C 286.355469 445.554688 286.152344 445.285156 286.039062 445.058594 C 285.722656 444.308594 285.449219 443.5625 285.15625 442.792969 C 284.726562 441.683594 284.320312 440.574219 283.890625 439.464844 C 283.664062 438.898438 283.4375 438.335938 283.234375 437.769531 C 283.050781 437.339844 282.914062 436.886719 282.78125 436.433594 C 282.621094 435.933594 282.574219 435.414062 282.621094 434.917969 Z M 333.914062 463.890625 L 333.890625 464.003906 C 333.914062 463.957031 333.914062 463.933594 333.914062 463.890625 Z M 333.914062 463.800781 C 333.914062 463.777344 333.914062 463.753906 333.914062 463.730469 Z M 313.179688 449.921875 C 313.246094 450.128906 313.316406 450.332031 313.40625 450.535156 C 313.566406 450.917969 313.769531 451.28125 313.972656 451.644531 C 314.402344 452.324219 314.855469 452.980469 315.351562 453.613281 C 315.601562 453.929688 315.875 454.246094 316.144531 454.542969 L 316.960938 455.445312 C 317.117188 455.628906 317.253906 455.808594 317.414062 455.96875 L 317.957031 456.511719 C 318.339844 456.894531 318.726562 457.304688 319.132812 457.664062 L 320.515625 458.886719 C 320.964844 459.273438 321.417969 459.65625 321.894531 459.996094 L 322.460938 460.425781 C 322.550781 460.496094 322.640625 460.585938 322.753906 460.652344 L 323.660156 461.265625 C 324.203125 461.625 324.792969 461.964844 325.359375 462.304688 C 325.585938 462.441406 325.832031 462.554688 326.058594 462.691406 L 326.875 463.121094 L 327.667969 463.484375 C 327.871094 463.574219 328.074219 463.6875 328.300781 463.753906 L 329.296875 464.117188 C 329.792969 464.296875 330.292969 464.433594 330.8125 464.5 C 331.425781 464.613281 332.058594 464.613281 332.691406 464.546875 C 332.964844 464.5 333.210938 464.433594 333.460938 464.320312 C 333.574219 464.253906 333.664062 464.183594 333.777344 464.117188 C 333.824219 464.070312 333.871094 464.027344 333.914062 463.980469 L 333.960938 463.914062 C 333.960938 463.890625 333.9375 463.84375 333.9375 463.800781 C 333.914062 463.710938 333.871094 463.617188 333.847656 463.527344 C 333.757812 463.300781 333.644531 463.097656 333.53125 462.894531 C 333.28125 462.488281 333.007812 462.101562 332.714844 461.738281 C 332.011719 460.902344 331.242188 460.15625 330.40625 459.453125 L 330.359375 459.40625 C 329.660156 458.820312 328.910156 458.253906 328.140625 457.734375 L 326.625 456.714844 C 326.488281 456.625 326.332031 456.535156 326.171875 456.441406 L 325.265625 455.878906 C 324.929688 455.671875 324.589844 455.445312 324.25 455.265625 C 323.296875 454.722656 322.347656 454.179688 321.375 453.660156 C 320.921875 453.433594 320.492188 453.183594 320.039062 452.957031 L 318.542969 452.210938 C 317.707031 451.800781 316.871094 451.394531 316.007812 451.011719 L 313.132812 449.652344 C 313.113281 449.675781 313.15625 449.808594 313.179688 449.921875 Z M 313.179688 449.921875 " fill-opacity="1" fill-rule="nonzero"/></g><g clip-path="url(#a45bdac80d)"><path fill="#7ea7fc" d="M 435.171875 393.054688 C 443.945312 388.21875 453.503906 386.644531 462.839844 383.605469 C 461.265625 383.042969 459.917969 382.480469 458.453125 382.144531 C 455.867188 381.582031 454.96875 380.007812 455.53125 377.644531 C 456.207031 375.058594 458.34375 375.058594 460.140625 375.621094 C 463.964844 376.746094 467.902344 377.417969 471.726562 378.433594 C 479.828125 380.457031 487.8125 382.707031 496.023438 384.28125 C 500.523438 385.070312 505.136719 386.753906 508.285156 390.804688 C 510.308594 393.390625 513.683594 394.179688 516.382812 395.867188 C 525.269531 401.601562 532.691406 408.691406 538.316406 417.464844 C 547.089844 431.296875 550.691406 446.035156 546.527344 462.570312 C 541.917969 481.242188 531.117188 494.851562 515.707031 505.648438 C 507.160156 511.722656 498.046875 516.558594 488.148438 519.597656 C 474.203125 523.984375 460.140625 525.222656 445.632812 521.621094 C 430.558594 517.910156 416.949219 511.5 404.800781 501.9375 C 391.191406 491.476562 382.527344 477.867188 381.515625 460.320312 C 380.953125 450.757812 384.105469 441.757812 388.828125 433.546875 C 396.589844 419.714844 407.949219 409.253906 421.109375 400.703125 C 425.496094 397.777344 429.882812 394.96875 435.171875 393.054688 Z M 427.183594 404.976562 C 417.398438 410.828125 408.738281 418.027344 401.539062 426.910156 C 394.902344 435.125 389.726562 444.347656 388.828125 455.144531 C 387.476562 470.328125 393.777344 482.589844 404.6875 492.714844 C 416.722656 503.851562 430.898438 510.9375 446.867188 515.097656 C 460.253906 518.585938 473.191406 517.234375 485.902344 513.296875 C 494.113281 510.824219 501.648438 506.886719 508.960938 502.050781 C 523.808594 492.375 534.941406 480.003906 539.554688 462.34375 C 544.277344 444.460938 539.554688 429.160156 528.195312 415.324219 C 521.109375 406.664062 512.109375 400.589844 501.984375 395.867188 C 492.3125 391.253906 482.75 387.316406 471.726562 389.90625 C 470.265625 390.242188 468.691406 390.46875 467.117188 390.691406 C 452.832031 392.15625 440.007812 397.554688 427.183594 404.976562 Z M 427.183594 404.976562 " fill-opacity="1" fill-rule="nonzero"/></g><g clip-path="url(#9b7e43741a)"><path fill="#7ea7fc" d="M 90.871094 577.582031 C 99.644531 572.746094 109.207031 571.171875 118.542969 568.132812 C 116.96875 567.570312 115.617188 567.007812 114.15625 566.671875 C 111.566406 566.109375 110.667969 564.535156 111.230469 562.171875 C 111.90625 559.585938 114.042969 559.585938 115.84375 560.148438 C 119.667969 561.273438 123.605469 561.945312 127.429688 562.960938 C 135.527344 564.984375 143.511719 567.234375 151.722656 568.808594 C 156.222656 569.59375 160.835938 571.28125 163.984375 575.332031 C 166.011719 577.917969 169.382812 578.707031 172.082031 580.394531 C 180.96875 586.128906 188.394531 593.21875 194.019531 601.992188 C 202.792969 615.824219 206.390625 630.5625 202.230469 647.097656 C 197.617188 665.769531 186.820312 679.378906 171.410156 690.175781 C 162.859375 696.25 153.75 701.085938 143.851562 704.125 C 129.902344 708.511719 115.84375 709.75 101.332031 706.148438 C 86.261719 702.4375 72.648438 696.027344 60.5 686.464844 C 46.890625 676.003906 38.230469 662.394531 37.21875 644.847656 C 36.65625 635.285156 39.804688 626.285156 44.527344 618.074219 C 52.289062 604.238281 63.652344 593.777344 76.8125 585.230469 C 81.199219 582.304688 85.585938 579.492188 90.871094 577.582031 Z M 82.886719 589.503906 C 73.097656 595.355469 64.4375 602.554688 57.238281 611.4375 C 50.601562 619.648438 45.429688 628.875 44.527344 639.671875 C 43.179688 654.855469 49.476562 667.117188 60.390625 677.242188 C 72.425781 688.378906 86.597656 695.464844 102.570312 699.625 C 115.957031 703.113281 128.890625 701.761719 141.601562 697.824219 C 149.8125 695.351562 157.347656 691.414062 164.660156 686.578125 C 179.507812 676.902344 190.644531 664.53125 195.253906 646.871094 C 199.980469 628.984375 195.253906 613.6875 183.894531 599.851562 C 176.808594 591.191406 167.808594 585.117188 157.6875 580.394531 C 148.011719 575.78125 138.453125 571.84375 127.429688 574.433594 C 125.964844 574.769531 124.390625 574.996094 122.816406 575.21875 C 108.53125 576.683594 95.707031 582.082031 82.886719 589.503906 Z M 82.886719 589.503906 " fill-opacity="1" fill-rule="nonzero"/></g><g clip-path="url(#2fc55a87b9)"><path fill="#7ea7fc" d="M 301.273438 611.65625 C 301.25 611.136719 301.046875 610.636719 300.730469 610.230469 C 300.527344 610.046875 300.277344 609.933594 300.027344 609.914062 C 299.441406 609.777344 298.828125 609.707031 298.21875 609.617188 L 296.496094 609.347656 C 295.910156 609.257812 295.34375 609.164062 294.753906 609.121094 L 293.847656 609.050781 C 293.621094 609.03125 293.375 609.007812 293.125 609.007812 C 292.832031 609.007812 292.625 609.277344 292.515625 609.503906 C 292.332031 609.890625 292.242188 610.296875 292.265625 610.726562 C 292.242188 611.15625 292.332031 611.566406 292.515625 611.949219 C 292.625 612.175781 292.832031 612.449219 293.125 612.449219 C 293.53125 612.449219 293.917969 612.492188 294.324219 612.515625 C 294.753906 612.539062 295.183594 612.582031 295.613281 612.652344 L 295.636719 612.652344 C 294.550781 613.011719 293.488281 613.398438 292.402344 613.785156 C 291.40625 614.144531 290.410156 614.507812 289.414062 614.890625 C 288.550781 615.210938 287.714844 615.550781 286.855469 615.886719 C 285.882812 616.273438 284.90625 616.65625 283.933594 617.066406 C 282.960938 617.472656 281.964844 617.859375 280.992188 618.289062 C 279.066406 619.125 277.121094 619.941406 275.195312 620.800781 C 274.089844 621.296875 272.980469 621.796875 271.871094 622.292969 C 271.597656 621.773438 271.234375 621.320312 270.785156 620.957031 C 270.261719 620.527344 269.695312 620.1875 269.085938 619.941406 C 268.382812 619.667969 267.636719 619.464844 266.890625 619.328125 C 266.1875 619.214844 265.464844 619.125 264.738281 619.101562 C 263.902344 619.078125 263.0625 619.101562 262.203125 619.125 C 261.976562 619.125 261.773438 619.148438 261.546875 619.171875 C 261.320312 619.191406 261.117188 619.191406 260.890625 619.214844 C 260.371094 619.261719 259.851562 619.304688 259.328125 619.375 C 258.289062 619.511719 257.246094 619.644531 256.207031 619.871094 L 254.484375 620.210938 C 253.941406 620.324219 253.375 620.4375 252.832031 620.574219 C 251.882812 620.777344 250.929688 621.027344 250.003906 621.253906 C 248.894531 621.523438 247.808594 621.820312 246.699219 622.136719 C 245.65625 622.40625 244.636719 622.722656 243.621094 623.019531 C 241.71875 623.5625 239.816406 624.152344 237.9375 624.785156 C 235.921875 625.464844 233.910156 626.140625 231.894531 626.84375 C 229.992188 627.476562 228.113281 628.15625 226.234375 628.859375 C 225.714844 629.0625 225.195312 629.242188 224.695312 629.449219 L 223.019531 630.125 C 222.09375 630.488281 221.140625 630.875 220.214844 631.257812 C 219.285156 631.644531 218.359375 632.003906 217.453125 632.414062 C 216.976562 632.617188 216.503906 632.796875 216.050781 633.023438 L 214.328125 633.792969 C 213.855469 633.996094 213.378906 634.246094 212.902344 634.472656 C 212.425781 634.699219 211.996094 634.925781 211.523438 635.152344 C 211.046875 635.378906 210.617188 635.605469 210.164062 635.832031 C 209.710938 636.058594 209.234375 636.328125 208.761719 636.578125 C 207.902344 637.054688 207.039062 637.550781 206.203125 638.09375 C 205.75 638.386719 205.296875 638.660156 204.890625 638.976562 C 204.6875 639.136719 204.460938 639.292969 204.257812 639.453125 C 204.144531 639.542969 204.03125 639.632812 203.9375 639.722656 C 203.804688 639.835938 203.667969 639.949219 203.554688 640.085938 C 203.464844 640.175781 203.394531 640.289062 203.351562 640.402344 C 203.28125 640.539062 203.238281 640.675781 203.191406 640.832031 C 203.101562 641.171875 203.078125 641.535156 203.101562 641.898438 C 203.125 642.214844 203.191406 642.53125 203.351562 642.824219 C 203.441406 643.007812 203.601562 643.253906 203.824219 643.300781 C 203.917969 643.324219 204.03125 643.324219 204.121094 643.300781 L 204.300781 643.210938 L 204.390625 643.164062 C 204.527344 643.074219 204.640625 642.9375 204.707031 642.800781 C 204.957031 642.597656 205.230469 642.371094 205.5 642.191406 C 205.886719 641.941406 206.25 641.671875 206.632812 641.421875 C 207.3125 640.96875 208.035156 640.5625 208.738281 640.152344 C 209.394531 639.746094 210.097656 639.382812 210.773438 639.046875 C 211.453125 638.707031 212.132812 638.367188 212.8125 638.027344 C 213.492188 637.6875 214.214844 637.347656 214.917969 637.03125 C 215.734375 636.667969 216.546875 636.304688 217.386719 635.945312 C 218.96875 635.265625 220.578125 634.609375 222.183594 633.972656 C 223.996094 633.25 225.828125 632.527344 227.660156 631.871094 C 228.726562 631.484375 229.765625 631.121094 230.832031 630.738281 C 231.757812 630.421875 232.6875 630.105469 233.613281 629.785156 C 235.585938 629.109375 237.554688 628.429688 239.546875 627.792969 C 240.632812 627.457031 241.71875 627.117188 242.828125 626.777344 C 243.867188 626.460938 244.910156 626.164062 245.953125 625.871094 C 246.949219 625.578125 247.964844 625.328125 248.984375 625.035156 C 249.867188 624.785156 250.773438 624.558594 251.65625 624.355469 C 252.152344 624.242188 252.628906 624.105469 253.128906 624.015625 C 253.671875 623.902344 254.234375 623.765625 254.78125 623.652344 L 256.5 623.3125 C 256.929688 623.222656 257.359375 623.15625 257.789062 623.085938 C 258.332031 623.019531 258.855469 622.929688 259.398438 622.859375 C 259.941406 622.792969 260.507812 622.722656 261.074219 622.679688 L 262.089844 622.609375 C 262.386719 622.589844 262.679688 622.589844 262.972656 622.589844 C 264.195312 622.542969 265.441406 622.589844 266.664062 622.769531 C 267.523438 622.90625 268.382812 623.175781 269.175781 623.539062 L 269.109375 623.5625 C 268.246094 623.96875 267.363281 624.355469 266.503906 624.785156 C 265.984375 625.035156 265.441406 625.28125 264.921875 625.53125 L 263.335938 626.324219 C 262.882812 626.550781 262.40625 626.820312 261.957031 627.046875 C 261.59375 627.230469 261.253906 627.433594 260.890625 627.636719 L 259.101562 628.65625 C 258.742188 628.859375 258.402344 629.085938 258.039062 629.289062 L 257.089844 629.878906 C 256.976562 629.945312 256.863281 630.011719 256.75 630.082031 L 255.210938 631.144531 C 254.417969 631.6875 253.648438 632.277344 252.921875 632.886719 C 251.835938 633.769531 250.863281 634.765625 250.003906 635.875 C 249.550781 636.464844 249.1875 637.121094 248.871094 637.800781 C 248.554688 638.5 248.351562 639.269531 248.261719 640.0625 C 248.214844 640.5625 248.238281 641.058594 248.304688 641.558594 C 248.375 641.917969 248.464844 642.28125 248.601562 642.644531 C 248.714844 642.960938 248.894531 643.277344 249.097656 643.550781 C 249.210938 643.683594 249.324219 643.820312 249.4375 643.933594 C 249.550781 644.046875 249.6875 644.160156 249.824219 644.230469 C 250.140625 644.410156 250.480469 644.546875 250.839844 644.636719 C 251.136719 644.703125 251.453125 644.726562 251.769531 644.75 L 251.859375 644.75 C 252.492188 644.75 253.128906 644.679688 253.761719 644.546875 C 254.484375 644.363281 255.210938 644.136719 255.910156 643.84375 C 255.980469 643.820312 256.046875 643.777344 256.136719 643.753906 L 256.613281 643.550781 L 257.359375 643.210938 C 257.585938 643.097656 257.8125 642.960938 258.039062 642.847656 L 258.898438 642.394531 C 259.058594 642.304688 259.214844 642.214844 259.375 642.125 L 260.28125 641.582031 C 260.710938 641.332031 261.140625 641.015625 261.546875 640.742188 C 261.707031 640.628906 261.886719 640.515625 262.046875 640.378906 C 262.273438 640.222656 262.5 640.0625 262.703125 639.882812 L 263.992188 638.839844 C 264.445312 638.480469 264.851562 638.09375 265.28125 637.710938 C 265.441406 637.574219 265.597656 637.4375 265.734375 637.300781 L 266.210938 636.828125 L 267.027344 636.011719 C 267.117188 635.921875 267.230469 635.832031 267.320312 635.71875 C 267.75 635.242188 268.179688 634.765625 268.609375 634.292969 C 268.882812 633.972656 269.152344 633.65625 269.425781 633.316406 C 269.855469 632.773438 270.285156 632.230469 270.648438 631.644531 C 271.507812 630.351562 272.117188 628.925781 272.4375 627.433594 C 272.527344 627.003906 272.570312 626.574219 272.59375 626.140625 C 272.59375 625.917969 272.617188 625.691406 272.617188 625.464844 C 273.769531 624.941406 274.925781 624.421875 276.058594 623.925781 C 277.980469 623.0625 279.90625 622.226562 281.851562 621.410156 C 283.84375 620.597656 285.835938 619.757812 287.851562 618.988281 C 288.871094 618.582031 289.886719 618.175781 290.90625 617.8125 C 291.925781 617.449219 292.964844 617.066406 294.007812 616.703125 C 294.9375 616.363281 295.886719 616.046875 296.835938 615.730469 L 298.195312 615.277344 C 298.082031 615.550781 297.96875 615.84375 297.855469 616.136719 C 297.652344 616.703125 297.425781 617.269531 297.222656 617.835938 C 297.019531 618.378906 296.816406 618.945312 296.589844 619.464844 L 296.609375 619.398438 C 296.453125 619.757812 296.382812 620.167969 296.382812 620.574219 C 296.363281 621.003906 296.453125 621.410156 296.632812 621.796875 C 296.746094 622.023438 296.949219 622.292969 297.246094 622.292969 C 297.539062 622.292969 297.742188 622.023438 297.855469 621.796875 C 298.171875 621.050781 298.445312 620.300781 298.738281 619.53125 C 299.167969 618.421875 299.578125 617.316406 300.007812 616.207031 C 300.234375 615.640625 300.460938 615.074219 300.664062 614.507812 C 300.84375 614.078125 300.980469 613.625 301.117188 613.171875 C 301.273438 612.675781 301.320312 612.152344 301.273438 611.65625 Z M 249.980469 640.628906 L 250.003906 640.742188 C 249.980469 640.699219 249.980469 640.675781 249.980469 640.628906 Z M 249.980469 640.539062 C 249.980469 640.515625 249.980469 640.492188 249.980469 640.472656 Z M 270.714844 626.664062 C 270.648438 626.867188 270.578125 627.070312 270.488281 627.273438 C 270.332031 627.660156 270.125 628.019531 269.921875 628.382812 C 269.492188 629.0625 269.039062 629.71875 268.542969 630.351562 C 268.292969 630.667969 268.023438 630.988281 267.75 631.28125 L 266.933594 632.1875 C 266.777344 632.367188 266.640625 632.546875 266.480469 632.707031 L 265.9375 633.25 C 265.554688 633.636719 265.167969 634.042969 264.761719 634.40625 L 263.382812 635.625 C 262.929688 636.011719 262.476562 636.398438 262 636.734375 L 261.433594 637.167969 C 261.34375 637.234375 261.253906 637.324219 261.140625 637.390625 L 260.234375 638.003906 C 259.691406 638.367188 259.101562 638.707031 258.539062 639.046875 C 258.3125 639.179688 258.0625 639.292969 257.835938 639.429688 L 257.019531 639.859375 L 256.226562 640.222656 C 256.023438 640.3125 255.820312 640.425781 255.59375 640.492188 L 254.597656 640.855469 C 254.101562 641.035156 253.601562 641.171875 253.082031 641.242188 C 252.472656 641.355469 251.835938 641.355469 251.203125 641.285156 C 250.929688 641.242188 250.683594 641.171875 250.433594 641.058594 C 250.320312 640.992188 250.230469 640.921875 250.117188 640.855469 C 250.070312 640.8125 250.027344 640.765625 249.980469 640.71875 L 249.933594 640.652344 C 249.933594 640.628906 249.957031 640.585938 249.957031 640.539062 C 249.980469 640.449219 250.027344 640.359375 250.046875 640.265625 C 250.140625 640.039062 250.253906 639.835938 250.367188 639.632812 C 250.613281 639.226562 250.886719 638.839844 251.179688 638.480469 C 251.882812 637.640625 252.652344 636.894531 253.488281 636.191406 L 253.535156 636.148438 C 254.234375 635.558594 254.984375 634.992188 255.753906 634.472656 L 257.269531 633.453125 C 257.40625 633.363281 257.5625 633.273438 257.722656 633.183594 L 258.628906 632.617188 C 258.96875 632.414062 259.308594 632.1875 259.644531 632.003906 C 260.597656 631.460938 261.546875 630.917969 262.519531 630.398438 C 262.972656 630.171875 263.402344 629.921875 263.855469 629.695312 L 265.351562 628.949219 C 266.1875 628.542969 267.027344 628.132812 267.886719 627.75 L 270.761719 626.390625 C 270.785156 626.414062 270.738281 626.550781 270.714844 626.664062 Z M 270.714844 626.664062 " fill-opacity="1" fill-rule="nonzero"/></g><path fill="#e5befc" d="M 198.125 350.269531 L 201.125 350.269531 L 201.125 353.269531 L 198.125 353.269531 M 204.125 350.269531 L 207.125 350.269531 L 207.125 353.269531 L 204.125 353.269531 M 210.125 350.269531 L 213.125 350.269531 L 213.125 353.269531 L 210.125 353.269531 M 216.125 350.269531 L 219.125 350.269531 L 219.125 353.269531 L 216.125 353.269531 M 222.125 350.269531 L 225.125 350.269531 L 225.125 353.269531 L 222.125 353.269531 M 228.125 350.269531 L 231.125 350.269531 L 231.125 353.269531 L 228.125 353.269531 M 234.125 350.269531 L 237.125 350.269531 L 237.125 353.269531 L 234.125 353.269531 M 240.125 350.269531 L 243.125 350.269531 L 243.125 353.269531 L 240.125 353.269531 M 246.125 350.269531 L 249.125 350.269531 L 249.125 353.269531 L 246.125 353.269531 M 252.125 350.269531 L 255.125 350.269531 L 255.125 353.269531 L 252.125 353.269531 M 258.125 350.269531 L 261.125 350.269531 L 261.125 353.269531 L 258.125 353.269531 M 264.125 350.269531 L 267.125 350.269531 L 267.125 353.269531 L 264.125 353.269531 M 270.125 350.269531 L 273.125 350.269531 L 273.125 353.269531 L 270.125 353.269531 M 276.125 350.269531 L 279.125 350.269531 L 279.125 353.269531 L 276.125 353.269531 M 282.125 350.269531 L 285.125 350.269531 L 285.125 353.269531 L 282.125 353.269531 M 288.125 350.269531 L 291.125 350.269531 L 291.125 353.269531 L 288.125 353.269531 M 294.125 350.269531 L 297.125 350.269531 L 297.125 353.269531 L 294.125 353.269531 M 300.125 350.269531 L 303.125 350.269531 L 303.125 353.269531 L 300.125 353.269531 M 306.125 350.269531 L 309.125 350.269531 L 309.125 353.269531 L 306.125 353.269531 M 312.125 350.269531 L 315.125 350.269531 L 315.125 353.269531 L 312.125 353.269531 M 318.125 350.269531 L 321.125 350.269531 L 321.125 353.269531 L 318.125 353.269531 M 324.125 350.269531 L 327.125 350.269531 L 327.125 353.269531 L 324.125 353.269531 M 330.125 350.269531 L 333.125 350.269531 L 333.125 353.269531 L 330.125 353.269531 M 336.125 350.269531 L 339.125 350.269531 L 339.125 353.269531 L 336.125 353.269531 M 342.125 350.269531 L 345.125 350.269531 L 345.125 353.269531 L 342.125 353.269531 M 348.125 350.269531 L 351.125 350.269531 L 351.125 353.269531 L 348.125 353.269531 M 354.125 350.269531 L 357.125 350.269531 L 357.125 353.269531 L 354.125 353.269531 M 360.125 350.269531 L 363.125 350.269531 L 363.125 353.269531 L 360.125 353.269531 M 366.125 350.269531 L 369.125 350.269531 L 369.125 353.269531 L 366.125 353.269531 M 372.125 350.269531 L 375.125 350.269531 L 375.125 353.269531 L 372.125 353.269531 M 378.125 350.269531 L 381.125 350.269531 L 381.125 353.269531 L 378.125 353.269531 M 384.125 350.269531 L 387.125 350.269531 L 387.125 353.269531 L 384.125 353.269531 M 390.125 350.269531 L 393.125 350.269531 L 393.125 353.269531 L 390.125 353.269531 " fill-opacity="1" fill-rule="nonzero"/><path fill="#e5befc" d="M 180.253906 547.191406 L 183.253906 547.191406 L 183.253906 550.191406 L 180.253906 550.191406 M 186.253906 547.191406 L 189.253906 547.191406 L 189.253906 550.191406 L 186.253906 550.191406 M 192.253906 547.191406 L 195.253906 547.191406 L 195.253906 550.191406 L 192.253906 550.191406 M 198.253906 547.191406 L 201.253906 547.191406 L 201.253906 550.191406 L 198.253906 550.191406 M 204.253906 547.191406 L 207.253906 547.191406 L 207.253906 550.191406 L 204.253906 550.191406 M 210.253906 547.191406 L 213.253906 547.191406 L 213.253906 550.191406 L 210.253906 550.191406 M 216.253906 547.191406 L 219.253906 547.191406 L 219.253906 550.191406 L 216.253906 550.191406 M 222.253906 547.191406 L 225.253906 547.191406 L 225.253906 550.191406 L 222.253906 550.191406 M 228.253906 547.191406 L 231.253906 547.191406 L 231.253906 550.191406 L 228.253906 550.191406 M 234.253906 547.191406 L 237.253906 547.191406 L 237.253906 550.191406 L 234.253906 550.191406 M 240.253906 547.191406 L 243.253906 547.191406 L 243.253906 550.191406 L 240.253906 550.191406 M 246.253906 547.191406 L 249.253906 547.191406 L 249.253906 550.191406 L 246.253906 550.191406 M 252.253906 547.191406 L 255.253906 547.191406 L 255.253906 550.191406 L 252.253906 550.191406 M 258.253906 547.191406 L 261.253906 547.191406 L 261.253906 550.191406 L 258.253906 550.191406 M 264.253906 547.191406 L 267.253906 547.191406 L 267.253906 550.191406 L 264.253906 550.191406 M 270.253906 547.191406 L 273.253906 547.191406 L 273.253906 550.191406 L 270.253906 550.191406 M 276.253906 547.191406 L 279.253906 547.191406 L 279.253906 550.191406 L 276.253906 550.191406 M 282.253906 547.191406 L 285.253906 547.191406 L 285.253906 550.191406 L 282.253906 550.191406 M 288.253906 547.191406 L 291.253906 547.191406 L 291.253906 550.191406 L 288.253906 550.191406 M 294.253906 547.191406 L 297.253906 547.191406 L 297.253906 550.191406 L 294.253906 550.191406 M 300.253906 547.191406 L 303.253906 547.191406 L 303.253906 550.191406 L 300.253906 550.191406 M 306.253906 547.191406 L 309.253906 547.191406 L 309.253906 550.191406 L 306.253906 550.191406 M 312.253906 547.191406 L 315.253906 547.191406 L 315.253906 550.191406 L 312.253906 550.191406 M 318.253906 547.191406 L 321.253906 547.191406 L 321.253906 550.191406 L 318.253906 550.191406 M 324.253906 547.191406 L 327.253906 547.191406 L 327.253906 550.191406 L 324.253906 550.191406 M 330.253906 547.191406 L 333.253906 547.191406 L 333.253906 550.191406 L 330.253906 550.191406 M 336.253906 547.191406 L 339.253906 547.191406 L 339.253906 550.191406 L 336.253906 550.191406 M 342.253906 547.191406 L 345.253906 547.191406 L 345.253906 550.191406 L 342.253906 550.191406 M 348.253906 547.191406 L 351.253906 547.191406 L 351.253906 550.191406 L 348.253906 550.191406 M 354.253906 547.191406 L 357.253906 547.191406 L 357.253906 550.191406 L 354.253906 550.191406 M 360.253906 547.191406 L 363.253906 547.191406 L 363.253906 550.191406 L 360.253906 550.191406 M 366.253906 547.191406 L 369.253906 547.191406 L 369.253906 550.191406 L 366.253906 550.191406 M 372.253906 547.191406 L 375.253906 547.191406 L 375.253906 550.191406 L 372.253906 550.191406 " fill-opacity="1" fill-rule="nonzero"/></svg>