<svg xmlns="http://www.w3.org/2000/svg" xmlns:xlink="http://www.w3.org/1999/xlink" width="816" zoomAndPan="magnify" viewBox="0 0 612 791.999994" height="1056" preserveAspectRatio="xMidYMid meet" version="1.0"><defs><clipPath id="d709b9468c"><path d="M 41.027344 605 L 251.777344 605 L 251.777344 753.804688 L 41.027344 753.804688 Z M 41.027344 605 " clip-rule="nonzero"/></clipPath><clipPath id="b035e18955"><path d="M 41.027344 444 L 251.777344 444 L 251.777344 617 L 41.027344 617 Z M 41.027344 444 " clip-rule="nonzero"/></clipPath><clipPath id="e6ddd1e358"><path d="M 41.027344 283 L 251.777344 283 L 251.777344 456 L 41.027344 456 Z M 41.027344 283 " clip-rule="nonzero"/></clipPath><clipPath id="11c36ed0f0"><path d="M 41.027344 120.804688 L 251.777344 120.804688 L 251.777344 293 L 41.027344 293 Z M 41.027344 120.804688 " clip-rule="nonzero"/></clipPath></defs><g clip-path="url(#d709b9468c)"><path stroke-linecap="round" transform="matrix(0, 0.345788, -0.34625, 0, 251.768136, 120.803685)" fill="none" stroke-linejoin="round" d="M 1406.00685 362.439329 L 1406.00685 570.911668 C 1406.00685 573.111576 1406.221486 575.27764 1406.650759 577.432422 C 1407.080032 579.575922 1407.712644 581.674296 1408.548597 583.693699 C 1409.384549 585.724384 1410.412544 587.642253 1411.632583 589.469869 C 1412.852621 591.297485 1414.24211 592.978441 1415.789751 594.524017 C 1417.337392 596.080876 1419.020593 597.46851 1420.850651 598.686921 C 1422.669412 599.905332 1424.60114 600.931956 1426.623241 601.766793 C 1428.645341 602.612911 1430.735222 603.24468 1432.881586 603.67338 C 1435.039247 604.10208 1437.208204 604.305148 1439.399754 604.305148 L 1792.872008 604.305148 C 1795.074855 604.305148 1797.243813 604.10208 1799.390177 603.67338 C 1801.547837 603.24468 1803.626421 602.612911 1805.659819 601.766793 C 1807.681919 600.931956 1809.60235 599.905332 1811.432408 598.686921 C 1813.251169 597.46851 1814.93437 596.080876 1816.493308 594.524017 C 1818.04095 592.978441 1819.430438 591.297485 1820.63918 589.469869 C 1821.859218 587.642253 1822.887214 585.724384 1823.734462 583.693699 C 1824.570415 581.674296 1825.203027 579.575922 1825.6323 577.432422 C 1826.061573 575.27764 1826.276209 573.111576 1826.276209 570.911668 L 1826.276209 37.710295 C 1826.276209 35.510387 1826.061573 33.344323 1825.6323 31.189541 C 1825.203027 29.034759 1824.570415 26.947667 1823.734462 24.928264 C 1822.887214 22.897579 1821.859218 20.97971 1820.63918 19.152094 C 1819.430438 17.324478 1818.04095 15.643522 1816.493308 14.086664 C 1814.945667 12.541087 1813.251169 11.153453 1811.432408 9.935042 C 1809.60235 8.716631 1807.681919 7.690007 1805.659819 6.85517 C 1803.626421 6.009052 1801.547837 5.377283 1799.390177 4.948583 C 1797.243813 4.519883 1795.074855 4.305533 1792.872008 4.305533 L 1439.399754 4.305533 C 1437.208204 4.305533 1435.039247 4.519883 1432.881586 4.948583 C 1430.735222 5.377283 1428.645341 6.009052 1426.623241 6.85517 C 1424.60114 7.690007 1422.669412 8.716631 1420.850651 9.935042 C 1419.020593 11.153453 1417.337392 12.541087 1415.789751 14.086664 C 1414.24211 15.643522 1412.852621 17.324478 1411.632583 19.152094 C 1410.412544 20.97971 1409.384549 22.897579 1408.548597 24.928264 C 1407.712644 26.947667 1407.080032 29.034759 1406.650759 31.189541 C 1406.221486 33.344323 1406.00685 35.510387 1406.00685 37.710295 L 1406.00685 246.182634 " stroke="#03a9f4" stroke-width="8.621" stroke-opacity="1" stroke-miterlimit="4"/></g><g clip-path="url(#b035e18955)"><path stroke-linecap="round" transform="matrix(0, 0.345788, -0.34625, 0, 251.768136, 120.803685)" fill="none" stroke-linejoin="round" d="M 940.211981 362.439329 L 940.211981 570.911668 C 940.211981 573.111576 940.426618 575.27764 940.855891 577.432422 C 941.273867 579.575922 941.917776 581.674296 942.753728 583.693699 C 943.58968 585.724384 944.617676 587.642253 945.837714 589.469869 C 947.057753 591.297485 948.435944 592.978441 949.994882 594.524017 C 951.542524 596.080876 953.225725 597.46851 955.055783 598.686921 C 956.874544 599.905332 958.794975 600.931956 960.828372 601.766793 C 962.850473 602.612911 964.940354 603.24468 967.086717 603.67338 C 969.244378 604.10208 971.413335 604.305148 973.604886 604.305148 L 1327.07714 604.305148 C 1329.26869 604.305148 1331.448944 604.10208 1333.595308 603.67338 C 1335.741672 603.24468 1337.831553 602.612911 1339.853653 601.766793 C 1341.887051 600.931956 1343.807482 599.905332 1345.637539 598.686921 C 1347.456301 597.46851 1349.139502 596.080876 1350.69844 594.524017 C 1352.246081 592.978441 1353.624273 591.297485 1354.844311 589.469869 C 1356.06435 587.642253 1357.092345 585.724384 1357.928297 583.693699 C 1358.775546 581.674296 1359.408159 579.575922 1359.837432 577.432422 C 1360.255408 575.27764 1360.470044 573.111576 1360.470044 570.911668 L 1360.470044 360.295828 L 1428.035322 304.305341 L 1360.470044 248.326135 L 1360.470044 37.710295 C 1360.470044 35.510387 1360.255408 33.344323 1359.837432 31.189541 C 1359.408159 29.034759 1358.775546 26.947667 1357.928297 24.928264 C 1357.092345 22.897579 1356.06435 20.97971 1354.844311 19.152094 C 1353.624273 17.324478 1352.246081 15.643522 1350.69844 14.086664 C 1349.139502 12.541087 1347.456301 11.153453 1345.637539 9.935042 C 1343.807482 8.716631 1341.887051 7.690007 1339.853653 6.85517 C 1337.831553 6.009052 1335.741672 5.377283 1333.595308 4.948583 C 1331.448944 4.519883 1329.26869 4.305533 1327.07714 4.305533 L 973.604886 4.305533 C 971.413335 4.305533 969.244378 4.519883 967.086717 4.948583 C 964.940354 5.377283 962.850473 6.009052 960.828372 6.85517 C 958.794975 7.690007 956.874544 8.716631 955.055783 9.935042 C 953.225725 11.153453 951.542524 12.541087 949.994882 14.086664 C 948.435944 15.643522 947.057753 17.324478 945.837714 19.152094 C 944.617676 20.97971 943.58968 22.897579 942.753728 24.928264 C 941.917776 26.947667 941.273867 29.034759 940.855891 31.189541 C 940.426618 33.344323 940.211981 35.510387 940.211981 37.710295 L 940.211981 246.182634 " stroke="#00cee8" stroke-width="8.621" stroke-opacity="1" stroke-miterlimit="4"/></g><g clip-path="url(#e6ddd1e358)"><path stroke-linecap="round" transform="matrix(0, 0.345788, -0.34625, 0, 251.768136, 120.803685)" fill="none" stroke-linejoin="round" d="M 474.417113 362.439329 L 474.417113 570.911668 C 474.417113 573.111576 474.631749 575.27764 475.049725 577.432422 C 475.478998 579.575922 476.111611 581.674296 476.95886 583.693699 C 477.794812 585.724384 478.822807 587.642253 480.042846 589.469869 C 481.262884 591.297485 482.641076 592.978441 484.188717 594.524017 C 485.747655 596.080876 487.430856 597.46851 489.249617 598.686921 C 491.079675 599.905332 493.000106 600.931956 495.022207 601.766793 C 497.055604 602.612911 499.145485 603.24468 501.291849 603.67338 C 503.438213 604.10208 505.618467 604.305148 507.810017 604.305148 L 861.282271 604.305148 C 863.473822 604.305148 865.642779 604.10208 867.800439 603.67338 C 869.946803 603.24468 872.036684 602.612911 874.058785 601.766793 C 876.092182 600.931956 878.012613 599.905332 879.831374 598.686921 C 881.661432 597.46851 883.344633 596.080876 884.892275 594.524017 C 886.451213 592.978441 887.829404 591.297485 889.049443 589.469869 C 890.269481 587.642253 891.297476 585.724384 892.133429 583.693699 C 892.969381 581.674296 893.601994 579.575922 894.031266 577.432422 C 894.460539 575.27764 894.675176 573.111576 894.675176 570.911668 L 894.675176 360.295828 L 962.240454 304.305341 L 894.675176 248.326135 L 894.675176 37.710295 C 894.675176 35.510387 894.460539 33.344323 894.031266 31.189541 C 893.601994 29.034759 892.969381 26.947667 892.133429 24.928264 C 891.297476 22.897579 890.269481 20.97971 889.049443 19.152094 C 887.829404 17.324478 886.451213 15.643522 884.892275 14.086664 C 883.344633 12.541087 881.661432 11.153453 879.831374 9.935042 C 878.012613 8.716631 876.092182 7.690007 874.058785 6.85517 C 872.036684 6.009052 869.946803 5.377283 867.800439 4.948583 C 865.642779 4.519883 863.473822 4.305533 861.282271 4.305533 L 507.810017 4.305533 C 505.618467 4.305533 503.438213 4.519883 501.291849 4.948583 C 499.145485 5.377283 497.055604 6.009052 495.022207 6.85517 C 493.000106 7.690007 491.079675 8.716631 489.249617 9.935042 C 487.430856 11.153453 485.747655 12.541087 484.188717 14.086664 C 482.641076 15.643522 481.262884 17.324478 480.042846 19.152094 C 478.822807 20.97971 477.794812 22.897579 476.95886 24.928264 C 476.111611 26.947667 475.478998 29.034759 475.049725 31.189541 C 474.620453 33.344323 474.417113 35.510387 474.417113 37.710295 L 474.417113 246.182634 " stroke="#ffd000" stroke-width="8.621" stroke-opacity="1" stroke-miterlimit="4"/></g><g clip-path="url(#11c36ed0f0)"><path stroke-linecap="round" transform="matrix(0, 0.345788, -0.34625, 0, 251.768136, 120.803685)" fill="none" stroke-linejoin="round" d="M 424.576282 360.295828 L 424.576282 570.911668 C 424.576282 573.111576 424.361646 575.27764 423.932373 577.432422 C 423.5031 579.575922 422.870488 581.674296 422.034536 583.693699 C 421.198583 585.724384 420.170588 587.642253 418.95055 589.469869 C 417.730511 591.297485 416.341023 592.978441 414.793381 594.524017 C 413.24574 596.080876 411.551242 597.46851 409.732481 598.686921 C 407.91372 599.905332 405.981993 600.931956 403.959892 601.766793 C 401.937791 602.612911 399.84791 603.24468 397.69025 603.67338 C 395.543886 604.10208 393.374929 604.305148 391.183378 604.305148 L 37.699828 604.305148 C 35.508277 604.305148 33.33932 604.10208 31.192956 603.67338 C 29.035295 603.24468 26.956711 602.612911 24.923314 601.766793 C 22.901213 600.931956 20.980782 599.905332 19.150724 598.686921 C 17.331963 597.46851 15.637466 596.080876 14.089824 594.524017 C 12.542183 592.978441 11.152694 591.297485 9.943953 589.469869 C 8.723914 587.642253 7.695919 585.724384 6.84867 583.693699 C 6.012718 581.674296 5.380105 579.575922 4.950832 577.432422 C 4.52156 575.27764 4.306923 573.111576 4.306923 570.911668 L 4.306923 37.710295 C 4.306923 35.510387 4.52156 33.344323 4.950832 31.189541 C 5.380105 29.034759 6.012718 26.947667 6.84867 24.928264 C 7.695919 22.897579 8.723914 20.97971 9.943953 19.152094 C 11.152694 17.324478 12.542183 15.643522 14.089824 14.086664 C 15.637466 12.541087 17.331963 11.153453 19.150724 9.935042 C 20.980782 8.716631 22.901213 7.690007 24.923314 6.85517 C 26.956711 6.009052 29.035295 5.377283 31.192956 4.948583 C 33.33932 4.519883 35.508277 4.305533 37.699828 4.305533 L 391.183378 4.305533 C 393.374929 4.305533 395.543886 4.519883 397.69025 4.948583 C 399.84791 5.377283 401.937791 6.009052 403.959892 6.85517 C 405.981993 7.690007 407.91372 8.716631 409.732481 9.935042 C 411.551242 11.153453 413.24574 12.541087 414.793381 14.086664 C 416.341023 15.643522 417.730511 17.324478 418.95055 19.152094 C 420.170588 20.97971 421.198583 22.897579 422.034536 24.928264 C 422.870488 26.947667 423.5031 29.034759 423.932373 31.189541 C 424.361646 33.344323 424.576282 35.510387 424.576282 37.710295 L 424.576282 248.326135 L 492.14156 304.305341 Z M 424.576282 360.295828 " stroke="#fe2635" stroke-width="8.621" stroke-opacity="1" stroke-miterlimit="4"/></g></svg>