<svg xmlns="http://www.w3.org/2000/svg" xmlns:xlink="http://www.w3.org/1999/xlink" width="816" zoomAndPan="magnify" viewBox="0 0 612 791.999994" height="1056" preserveAspectRatio="xMidYMid meet" version="1.0"><defs><clipPath id="d2f48503cd"><path d="M 97.140625 140.933594 L 526.890625 140.933594 L 526.890625 484.433594 L 97.140625 484.433594 Z M 97.140625 140.933594 " clip-rule="nonzero"/></clipPath></defs><path fill="#bfa9c8" d="M 333.917969 291.953125 C 322.480469 289.527344 297.023438 286.363281 273.386719 299.085938 L 273.386719 225.90625 C 296.769531 210.773438 324.546875 215.34375 333.917969 217.527344 Z M 203.453125 291.953125 L 203.453125 217.527344 C 212.820312 215.34375 240.597656 210.777344 263.988281 225.914062 L 263.988281 299.085938 C 240.34375 286.359375 214.890625 289.523438 203.453125 291.953125 Z M 340.054688 209.425781 C 338.429688 208.90625 300.832031 197.21875 268.683594 217.753906 C 236.539062 197.214844 198.941406 208.902344 197.316406 209.425781 C 195.371094 210.050781 194.050781 211.855469 194.050781 213.902344 L 194.050781 297.996094 C 194.050781 299.492188 194.769531 300.898438 195.980469 301.785156 C 197.1875 302.671875 198.746094 302.921875 200.179688 302.472656 C 200.546875 302.355469 237.148438 291.0625 265.953125 311.328125 C 266.132812 311.457031 266.324219 311.574219 266.523438 311.675781 C 266.542969 311.683594 266.5625 311.691406 266.582031 311.703125 C 266.632812 311.726562 266.679688 311.746094 266.734375 311.769531 C 266.882812 311.839844 267.039062 311.898438 267.191406 311.953125 C 267.261719 311.976562 267.335938 311.996094 267.402344 312.015625 C 267.550781 312.058594 267.695312 312.09375 267.84375 312.117188 C 267.914062 312.132812 267.980469 312.148438 268.046875 312.15625 C 268.253906 312.183594 268.457031 312.199219 268.664062 312.199219 C 268.671875 312.199219 268.675781 312.203125 268.679688 312.203125 C 268.683594 312.203125 268.683594 312.199219 268.683594 312.199219 C 268.683594 312.199219 268.683594 312.203125 268.683594 312.203125 C 268.6875 312.203125 268.695312 312.199219 268.699219 312.199219 C 268.910156 312.199219 269.117188 312.183594 269.328125 312.15625 C 269.390625 312.148438 269.460938 312.132812 269.523438 312.117188 C 269.679688 312.089844 269.832031 312.058594 269.980469 312.011719 C 270.042969 311.992188 270.105469 311.976562 270.167969 311.957031 C 270.359375 311.894531 270.542969 311.824219 270.722656 311.734375 C 270.734375 311.726562 270.757812 311.722656 270.769531 311.714844 C 270.980469 311.609375 271.179688 311.488281 271.375 311.355469 C 271.378906 311.351562 271.386719 311.347656 271.390625 311.34375 C 300.195312 291.0625 336.824219 302.355469 337.191406 302.472656 C 338.617188 302.921875 340.183594 302.671875 341.390625 301.785156 C 342.601562 300.898438 343.320312 299.492188 343.320312 297.996094 L 343.320312 213.902344 C 343.320312 211.855469 342 210.050781 340.054688 209.425781 " fill-opacity="1" fill-rule="nonzero"/><g clip-path="url(#d2f48503cd)"><path fill="#bfa9c8" d="M 394.683594 339.011719 L 393.640625 339.460938 C 390.871094 340.65625 388.226562 342.035156 385.707031 343.570312 C 385.582031 343.5625 385.460938 343.550781 385.335938 343.550781 L 107.007812 343.550781 L 107.007812 181.507812 C 107.007812 164.339844 120.972656 150.371094 138.140625 150.371094 L 399.226562 150.371094 C 416.394531 150.371094 430.363281 164.339844 430.363281 181.507812 L 430.363281 205.34375 C 397.921875 211.164062 373.222656 239.566406 373.222656 273.652344 C 373.222656 299.933594 387.894531 322.84375 409.476562 334.628906 C 404.414062 335.496094 399.457031 336.945312 394.683594 339.011719 Z M 355.058594 396.941406 L 138.140625 396.941406 C 120.972656 396.941406 107.007812 382.972656 107.007812 365.800781 L 107.007812 352.949219 L 373.769531 352.949219 C 362.277344 364.441406 355.382812 380.105469 355.058594 396.941406 Z M 294.957031 434.605469 L 294.957031 406.339844 L 355.035156 406.339844 L 355.035156 434.605469 Z M 254.292969 475.191406 L 241.34375 475.191406 L 241.34375 406.339844 L 285.558594 406.339844 L 285.558594 434.730469 C 266.40625 436.351562 255.738281 455.238281 254.292969 475.191406 Z M 502.667969 273.652344 C 502.667969 306.75 475.738281 333.679688 442.640625 333.679688 C 409.546875 333.679688 382.621094 306.75 382.621094 273.652344 C 382.621094 240.558594 409.546875 213.632812 442.640625 213.632812 C 475.738281 213.632812 502.667969 240.558594 502.667969 273.652344 Z M 487.773438 339.359375 L 487.3125 339.15625 C 483.269531 337.386719 479.097656 336.042969 474.839844 335.128906 C 496.945312 323.503906 512.066406 300.320312 512.066406 273.652344 C 512.066406 235.375 480.921875 204.234375 442.640625 204.234375 C 441.679688 204.234375 440.71875 204.265625 439.765625 204.308594 L 439.765625 181.507812 C 439.765625 159.15625 421.578125 140.972656 399.226562 140.972656 L 138.140625 140.972656 C 115.792969 140.972656 97.609375 159.15625 97.609375 181.507812 L 97.609375 365.800781 C 97.609375 388.15625 115.792969 406.339844 138.140625 406.339844 L 231.941406 406.339844 L 231.941406 475.191406 L 201.675781 475.191406 C 199.082031 475.191406 196.976562 477.296875 196.976562 479.890625 C 196.976562 482.488281 199.082031 484.589844 201.675781 484.589844 L 379.847656 484.589844 C 395.792969 484.589844 409.777344 469.578125 409.777344 452.46875 L 409.777344 400.90625 C 409.777344 398.308594 407.675781 396.203125 405.078125 396.203125 C 402.480469 396.203125 400.378906 398.308594 400.378906 400.90625 L 400.378906 452.46875 C 400.378906 464.359375 390.59375 475.191406 379.847656 475.191406 L 263.722656 475.191406 C 265.132812 459.316406 273.625 444.003906 288.25 444.003906 L 359.734375 444.003906 C 362.332031 444.003906 364.4375 441.902344 364.4375 439.304688 L 364.4375 398.179688 C 364.4375 376.386719 377.363281 356.726562 397.359375 348.09375 L 398.402344 347.644531 C 405.417969 344.617188 412.847656 343.078125 420.492188 343.078125 L 461.160156 343.078125 C 468.910156 343.078125 476.441406 344.660156 483.546875 347.777344 L 484.007812 347.976562 C 503.839844 356.675781 516.660156 376.285156 516.660156 397.941406 L 516.660156 479.890625 C 516.660156 482.488281 518.765625 484.589844 521.363281 484.589844 C 523.957031 484.589844 526.058594 482.488281 526.058594 479.890625 L 526.058594 397.941406 C 526.058594 372.554688 511.035156 349.5625 487.773438 339.359375 " fill-opacity="1" fill-rule="nonzero"/></g></svg>