<svg xmlns="http://www.w3.org/2000/svg" xmlns:xlink="http://www.w3.org/1999/xlink" width="816" zoomAndPan="magnify" viewBox="0 0 612 791.999994" height="1056" preserveAspectRatio="xMidYMid meet" version="1.0"><defs><clipPath id="4766a3ddcc"><path d="M 30.894531 299.644531 L 96 299.644531 L 96 364.144531 L 30.894531 364.144531 Z M 30.894531 299.644531 " clip-rule="nonzero"/></clipPath><clipPath id="7da18fe4d5"><path d="M 151 299.644531 L 216 299.644531 L 216 364.144531 L 151 364.144531 Z M 151 299.644531 " clip-rule="nonzero"/></clipPath><clipPath id="8b17232c77"><path d="M 272 299.644531 L 337 299.644531 L 337 364.144531 L 272 364.144531 Z M 272 299.644531 " clip-rule="nonzero"/></clipPath><clipPath id="8820fe5e3f"><path d="M 392 299.644531 L 457 299.644531 L 457 364.144531 L 392 364.144531 Z M 392 299.644531 " clip-rule="nonzero"/></clipPath><clipPath id="daf2a9db7b"><path d="M 513 299.644531 L 577.644531 299.644531 L 577.644531 364.144531 L 513 364.144531 Z M 513 299.644531 " clip-rule="nonzero"/></clipPath><clipPath id="88ed79e59c"><path d="M 32.6875 508 L 98 508 L 98 572.242188 L 32.6875 572.242188 Z M 32.6875 508 " clip-rule="nonzero"/></clipPath><clipPath id="db446509e7"><path d="M 153 508 L 218 508 L 218 572.242188 L 153 572.242188 Z M 153 508 " clip-rule="nonzero"/></clipPath><clipPath id="d4050e8b35"><path d="M 273 508 L 339 508 L 339 572.242188 L 273 572.242188 Z M 273 508 " clip-rule="nonzero"/></clipPath><clipPath id="dccb83031f"><path d="M 394 508 L 459 508 L 459 572.242188 L 394 572.242188 Z M 394 508 " clip-rule="nonzero"/></clipPath><clipPath id="eca50cd6be"><path d="M 515 508 L 579.4375 508 L 579.4375 572.242188 L 515 572.242188 Z M 515 508 " clip-rule="nonzero"/></clipPath></defs><g clip-path="url(#4766a3ddcc)"><path fill="#deb8ff" d="M 95.238281 308.976562 L 95.238281 355.070312 C 95.238281 360.070312 91.164062 364.144531 86.160156 364.144531 L 40.070312 364.144531 C 35.066406 364.144531 30.996094 360.070312 30.996094 355.070312 L 30.996094 308.976562 C 30.996094 303.976562 35.066406 299.902344 40.070312 299.902344 L 86.160156 299.902344 C 91.164062 299.902344 95.238281 303.976562 95.238281 308.976562 Z M 95.238281 308.976562 " fill-opacity="1" fill-rule="nonzero"/></g><g clip-path="url(#7da18fe4d5)"><path fill="#fcfabe" d="M 215.859375 308.976562 L 215.859375 355.070312 C 215.859375 360.070312 211.785156 364.144531 206.785156 364.144531 L 160.621094 364.144531 C 155.621094 364.144531 151.546875 360.070312 151.546875 355.070312 L 151.546875 308.976562 C 151.546875 303.976562 155.621094 299.902344 160.621094 299.902344 L 206.714844 299.902344 C 211.714844 299.902344 215.859375 303.976562 215.859375 308.976562 Z M 215.859375 308.976562 " fill-opacity="1" fill-rule="nonzero"/></g><g clip-path="url(#8b17232c77)"><path fill="#fee578" d="M 336.414062 308.976562 L 336.414062 355.070312 C 336.414062 360.070312 332.339844 364.144531 327.335938 364.144531 L 281.246094 364.144531 C 276.242188 364.144531 272.171875 360.070312 272.171875 355.070312 L 272.171875 308.976562 C 272.171875 303.976562 276.242188 299.902344 281.246094 299.902344 L 327.335938 299.902344 C 332.339844 299.902344 336.414062 303.976562 336.414062 308.976562 Z M 336.414062 308.976562 " fill-opacity="1" fill-rule="nonzero"/></g><g clip-path="url(#8820fe5e3f)"><path fill="#b9fbbf" d="M 456.964844 308.976562 L 456.964844 355.070312 C 456.964844 360.070312 452.890625 364.144531 447.890625 364.144531 L 401.796875 364.144531 C 396.796875 364.144531 392.722656 360.070312 392.722656 355.070312 L 392.722656 308.976562 C 392.722656 303.976562 396.796875 299.902344 401.796875 299.902344 L 447.890625 299.902344 C 452.890625 299.902344 456.964844 303.976562 456.964844 308.976562 Z M 456.964844 308.976562 " fill-opacity="1" fill-rule="nonzero"/></g><g clip-path="url(#daf2a9db7b)"><path fill="#abe7ec" d="M 577.589844 308.976562 L 577.589844 355.070312 C 577.589844 360.070312 573.515625 364.144531 568.511719 364.144531 L 522.421875 364.144531 C 517.417969 364.144531 513.347656 360.070312 513.347656 355.070312 L 513.347656 308.976562 C 513.347656 303.976562 517.417969 299.902344 522.421875 299.902344 L 568.511719 299.902344 C 573.445312 299.902344 577.589844 303.976562 577.589844 308.976562 Z M 577.589844 308.976562 " fill-opacity="1" fill-rule="nonzero"/></g><g clip-path="url(#88ed79e59c)"><path fill="#deb8ff" d="M 97.03125 517.078125 L 97.03125 563.167969 C 97.03125 568.171875 92.960938 572.242188 87.957031 572.242188 L 41.867188 572.242188 C 36.863281 572.242188 32.789062 568.171875 32.789062 563.167969 L 32.789062 517.078125 C 32.789062 512.074219 36.863281 508 41.867188 508 L 87.957031 508 C 92.960938 508 97.03125 512.074219 97.03125 517.078125 Z M 97.03125 517.078125 " fill-opacity="1" fill-rule="nonzero"/></g><g clip-path="url(#db446509e7)"><path fill="#fcfabe" d="M 217.65625 517.078125 L 217.65625 563.167969 C 217.65625 568.171875 213.582031 572.242188 208.582031 572.242188 L 162.417969 572.242188 C 157.414062 572.242188 153.34375 568.171875 153.34375 563.167969 L 153.34375 517.078125 C 153.34375 512.074219 157.414062 508 162.417969 508 L 208.507812 508 C 213.511719 508 217.65625 512.074219 217.65625 517.078125 Z M 217.65625 517.078125 " fill-opacity="1" fill-rule="nonzero"/></g><g clip-path="url(#d4050e8b35)"><path fill="#fee578" d="M 338.207031 517.078125 L 338.207031 563.167969 C 338.207031 568.171875 334.136719 572.242188 329.132812 572.242188 L 283.042969 572.242188 C 278.039062 572.242188 273.964844 568.171875 273.964844 563.167969 L 273.964844 517.078125 C 273.964844 512.074219 278.039062 508 283.042969 508 L 329.132812 508 C 334.136719 508 338.207031 512.074219 338.207031 517.078125 Z M 338.207031 517.078125 " fill-opacity="1" fill-rule="nonzero"/></g><g clip-path="url(#dccb83031f)"><path fill="#b9fbbf" d="M 458.761719 517.078125 L 458.761719 563.167969 C 458.761719 568.171875 454.6875 572.242188 449.6875 572.242188 L 403.59375 572.242188 C 398.59375 572.242188 394.519531 568.171875 394.519531 563.167969 L 394.519531 517.078125 C 394.519531 512.074219 398.59375 508 403.59375 508 L 449.6875 508 C 454.6875 508 458.761719 512.074219 458.761719 517.078125 Z M 458.761719 517.078125 " fill-opacity="1" fill-rule="nonzero"/></g><g clip-path="url(#eca50cd6be)"><path fill="#abe7ec" d="M 579.386719 517.078125 L 579.386719 563.167969 C 579.386719 568.171875 575.3125 572.242188 570.308594 572.242188 L 524.21875 572.242188 C 519.214844 572.242188 515.144531 568.171875 515.144531 563.167969 L 515.144531 517.078125 C 515.144531 512.074219 519.214844 508 524.21875 508 L 570.308594 508 C 575.238281 508 579.386719 512.074219 579.386719 517.078125 Z M 579.386719 517.078125 " fill-opacity="1" fill-rule="nonzero"/></g></svg>