<svg xmlns="http://www.w3.org/2000/svg" xmlns:xlink="http://www.w3.org/1999/xlink" width="816" zoomAndPan="magnify" viewBox="0 0 612 791.999994" height="1056" preserveAspectRatio="xMidYMid meet" version="1.0"><path fill="#fa24c4" d="M 49.285156 599.679688 L 67.285156 599.679688 L 67.285156 602.679688 L 49.285156 602.679688 M 70.285156 599.679688 L 88.285156 599.679688 L 88.285156 602.679688 L 70.285156 602.679688 M 91.285156 599.679688 L 109.285156 599.679688 L 109.285156 602.679688 L 91.285156 602.679688 M 112.285156 599.679688 L 130.285156 599.679688 L 130.285156 602.679688 L 112.285156 602.679688 M 133.285156 599.679688 L 151.285156 599.679688 L 151.285156 602.679688 L 133.285156 602.679688 M 154.285156 599.679688 L 172.285156 599.679688 L 172.285156 602.679688 L 154.285156 602.679688 M 175.285156 599.679688 L 193.285156 599.679688 L 193.285156 602.679688 L 175.285156 602.679688 M 196.285156 599.679688 L 214.285156 599.679688 L 214.285156 602.679688 L 196.285156 602.679688 M 217.285156 599.679688 L 235.285156 599.679688 L 235.285156 602.679688 L 217.285156 602.679688 M 238.285156 599.679688 L 256.285156 599.679688 L 256.285156 602.679688 L 238.285156 602.679688 M 259.285156 599.679688 L 277.285156 599.679688 L 277.285156 602.679688 L 259.285156 602.679688 M 280.285156 599.679688 L 298.285156 599.679688 L 298.285156 602.679688 L 280.285156 602.679688 M 301.285156 599.679688 L 319.285156 599.679688 L 319.285156 602.679688 L 301.285156 602.679688 M 322.285156 599.679688 L 340.285156 599.679688 L 340.285156 602.679688 L 322.285156 602.679688 M 343.285156 599.679688 L 361.285156 599.679688 L 361.285156 602.679688 L 343.285156 602.679688 M 364.285156 599.679688 L 382.285156 599.679688 L 382.285156 602.679688 L 364.285156 602.679688 M 385.285156 599.679688 L 403.285156 599.679688 L 403.285156 602.679688 L 385.285156 602.679688 M 406.285156 599.679688 L 424.285156 599.679688 L 424.285156 602.679688 L 406.285156 602.679688 M 427.285156 599.679688 L 445.285156 599.679688 L 445.285156 602.679688 L 427.285156 602.679688 M 448.285156 599.679688 L 466.285156 599.679688 L 466.285156 602.679688 L 448.285156 602.679688 M 469.285156 599.679688 L 487.285156 599.679688 L 487.285156 602.679688 L 469.285156 602.679688 M 490.285156 599.679688 L 508.285156 599.679688 L 508.285156 602.679688 L 490.285156 602.679688 M 511.285156 599.679688 L 529.285156 599.679688 L 529.285156 602.679688 L 511.285156 602.679688 M 532.285156 599.679688 L 548.933594 599.679688 L 548.933594 602.679688 L 532.285156 602.679688 " fill-opacity="1" fill-rule="nonzero"/><path fill="#fa24c4" d="M 49.285156 727.800781 L 67.285156 727.800781 L 67.285156 730.800781 L 49.285156 730.800781 M 70.285156 727.800781 L 88.285156 727.800781 L 88.285156 730.800781 L 70.285156 730.800781 M 91.285156 727.800781 L 109.285156 727.800781 L 109.285156 730.800781 L 91.285156 730.800781 M 112.285156 727.800781 L 130.285156 727.800781 L 130.285156 730.800781 L 112.285156 730.800781 M 133.285156 727.800781 L 151.285156 727.800781 L 151.285156 730.800781 L 133.285156 730.800781 M 154.285156 727.800781 L 172.285156 727.800781 L 172.285156 730.800781 L 154.285156 730.800781 M 175.285156 727.800781 L 193.285156 727.800781 L 193.285156 730.800781 L 175.285156 730.800781 M 196.285156 727.800781 L 214.285156 727.800781 L 214.285156 730.800781 L 196.285156 730.800781 M 217.285156 727.800781 L 235.285156 727.800781 L 235.285156 730.800781 L 217.285156 730.800781 M 238.285156 727.800781 L 256.285156 727.800781 L 256.285156 730.800781 L 238.285156 730.800781 M 259.285156 727.800781 L 277.285156 727.800781 L 277.285156 730.800781 L 259.285156 730.800781 M 280.285156 727.800781 L 298.285156 727.800781 L 298.285156 730.800781 L 280.285156 730.800781 M 301.285156 727.800781 L 319.285156 727.800781 L 319.285156 730.800781 L 301.285156 730.800781 M 322.285156 727.800781 L 340.285156 727.800781 L 340.285156 730.800781 L 322.285156 730.800781 M 343.285156 727.800781 L 361.285156 727.800781 L 361.285156 730.800781 L 343.285156 730.800781 M 364.285156 727.800781 L 382.285156 727.800781 L 382.285156 730.800781 L 364.285156 730.800781 M 385.285156 727.800781 L 403.285156 727.800781 L 403.285156 730.800781 L 385.285156 730.800781 M 406.285156 727.800781 L 424.285156 727.800781 L 424.285156 730.800781 L 406.285156 730.800781 M 427.285156 727.800781 L 445.285156 727.800781 L 445.285156 730.800781 L 427.285156 730.800781 M 448.285156 727.800781 L 466.285156 727.800781 L 466.285156 730.800781 L 448.285156 730.800781 M 469.285156 727.800781 L 487.285156 727.800781 L 487.285156 730.800781 L 469.285156 730.800781 M 490.285156 727.800781 L 508.285156 727.800781 L 508.285156 730.800781 L 490.285156 730.800781 M 511.285156 727.800781 L 529.285156 727.800781 L 529.285156 730.800781 L 511.285156 730.800781 M 532.285156 727.800781 L 548.933594 727.800781 L 548.933594 730.800781 L 532.285156 730.800781 " fill-opacity="1" fill-rule="nonzero"/></svg>