<svg xmlns="http://www.w3.org/2000/svg" xmlns:xlink="http://www.w3.org/1999/xlink" width="816" zoomAndPan="magnify" viewBox="0 0 612 791.999994" height="1056" preserveAspectRatio="xMidYMid meet" version="1.0"><defs><clipPath id="cac7dee70a"><path d="M 41.289062 168 L 145.539062 168 L 145.539062 252.75 L 41.289062 252.75 Z M 41.289062 168 " clip-rule="nonzero"/></clipPath><clipPath id="6327379236"><path d="M 42.023438 348.085938 L 146.273438 348.085938 L 146.273438 432.835938 L 42.023438 432.835938 Z M 42.023438 348.085938 " clip-rule="nonzero"/></clipPath><clipPath id="750704665c"><path d="M 41.289062 523.769531 L 145.539062 523.769531 L 145.539062 608.519531 L 41.289062 608.519531 Z M 41.289062 523.769531 " clip-rule="nonzero"/></clipPath></defs><g clip-path="url(#cac7dee70a)"><path fill="#b9fbbf" d="M 135.378906 168.046875 L 145.691406 178.359375 L 97.699219 226.351562 L 87.390625 236.664062 L 77.074219 226.351562 L 55.011719 204.285156 L 65.324219 193.972656 L 87.390625 216.039062 Z M 111.933594 214.894531 L 111.933594 243.667969 L 50.230469 243.667969 L 50.230469 181.964844 L 111.933594 181.964844 L 111.933594 188.359375 L 120.878906 179.425781 L 120.878906 173.023438 L 41.289062 173.023438 L 41.289062 252.609375 L 120.878906 252.609375 L 120.878906 205.945312 Z M 111.933594 214.894531 " fill-opacity="1" fill-rule="nonzero"/></g><g clip-path="url(#6327379236)"><path fill="#e0e5f3" d="M 136.113281 348.132812 L 146.425781 358.445312 L 98.433594 406.4375 L 88.125 416.75 L 55.746094 384.371094 L 66.058594 374.058594 L 88.125 396.125 Z M 112.667969 394.980469 L 112.667969 423.753906 L 50.964844 423.753906 L 50.964844 362.050781 L 112.667969 362.050781 L 112.667969 368.445312 L 121.613281 359.511719 L 121.613281 353.109375 L 42.023438 353.109375 L 42.023438 432.695312 L 121.613281 432.695312 L 121.613281 386.03125 Z M 112.667969 394.980469 " fill-opacity="1" fill-rule="nonzero"/></g><g clip-path="url(#750704665c)"><path fill="#a5d4df" d="M 135.378906 523.816406 L 145.691406 534.128906 L 97.699219 582.121094 L 87.390625 592.433594 L 77.074219 582.121094 L 55.011719 560.054688 L 65.324219 549.742188 L 87.390625 571.808594 Z M 111.933594 570.664062 L 111.933594 599.433594 L 50.230469 599.433594 L 50.230469 537.734375 L 111.933594 537.734375 L 111.933594 544.128906 L 120.878906 535.195312 L 120.878906 528.789062 L 41.289062 528.789062 L 41.289062 608.378906 L 120.878906 608.378906 L 120.878906 561.710938 Z M 111.933594 570.664062 " fill-opacity="1" fill-rule="nonzero"/></g></svg>