<svg xmlns="http://www.w3.org/2000/svg" xmlns:xlink="http://www.w3.org/1999/xlink" width="816" zoomAndPan="magnify" viewBox="0 0 612 791.999994" height="1056" preserveAspectRatio="xMidYMid meet" version="1.0"><defs><clipPath id="f9a4e558b3"><path d="M 34.964844 181.640625 L 113.199219 181.640625 L 113.199219 259.875 L 34.964844 259.875 Z M 34.964844 181.640625 " clip-rule="nonzero"/></clipPath><clipPath id="7d3323ff93"><path d="M 74.082031 181.640625 L 86.527344 208.308594 L 113.199219 220.757812 L 86.527344 233.203125 L 74.082031 259.875 L 61.632812 233.203125 L 34.964844 220.757812 L 61.632812 208.308594 Z M 74.082031 181.640625 " clip-rule="nonzero"/></clipPath><clipPath id="8c46fe69fa"><path d="M 36.78125 289.976562 L 115.015625 289.976562 L 115.015625 368.207031 L 36.78125 368.207031 Z M 36.78125 289.976562 " clip-rule="nonzero"/></clipPath><clipPath id="482848448a"><path d="M 75.898438 289.976562 L 88.34375 316.644531 L 115.015625 329.089844 L 88.34375 341.539062 L 75.898438 368.207031 L 63.453125 341.539062 L 36.78125 329.089844 L 63.453125 316.644531 Z M 75.898438 289.976562 " clip-rule="nonzero"/></clipPath><clipPath id="071d7b38e0"><path d="M 34.964844 398.207031 L 113.199219 398.207031 L 113.199219 476.441406 L 34.964844 476.441406 Z M 34.964844 398.207031 " clip-rule="nonzero"/></clipPath><clipPath id="5acec7714c"><path d="M 74.082031 398.207031 L 86.527344 424.878906 L 113.199219 437.324219 L 86.527344 449.773438 L 74.082031 476.441406 L 61.632812 449.773438 L 34.964844 437.324219 L 61.632812 424.878906 Z M 74.082031 398.207031 " clip-rule="nonzero"/></clipPath><clipPath id="1c44de1d86"><path d="M 36.78125 506.441406 L 115.015625 506.441406 L 115.015625 584.675781 L 36.78125 584.675781 Z M 36.78125 506.441406 " clip-rule="nonzero"/></clipPath><clipPath id="d9ebeeb449"><path d="M 75.898438 506.441406 L 88.34375 533.113281 L 115.015625 545.558594 L 88.34375 558.007812 L 75.898438 584.675781 L 63.453125 558.007812 L 36.78125 545.558594 L 63.453125 533.113281 Z M 75.898438 506.441406 " clip-rule="nonzero"/></clipPath></defs><g clip-path="url(#f9a4e558b3)"><g clip-path="url(#7d3323ff93)"><path fill="#5ce1e6" d="M 34.964844 181.640625 L 113.199219 181.640625 L 113.199219 259.875 L 34.964844 259.875 Z M 34.964844 181.640625 " fill-opacity="1" fill-rule="nonzero"/></g></g><g clip-path="url(#8c46fe69fa)"><g clip-path="url(#482848448a)"><path fill="#051433" d="M 36.78125 289.976562 L 115.015625 289.976562 L 115.015625 368.207031 L 36.78125 368.207031 Z M 36.78125 289.976562 " fill-opacity="1" fill-rule="nonzero"/></g></g><g clip-path="url(#071d7b38e0)"><g clip-path="url(#5acec7714c)"><path fill="#fcfabe" d="M 34.964844 398.207031 L 113.199219 398.207031 L 113.199219 476.441406 L 34.964844 476.441406 Z M 34.964844 398.207031 " fill-opacity="1" fill-rule="nonzero"/></g></g><g clip-path="url(#1c44de1d86)"><g clip-path="url(#d9ebeeb449)"><path fill="#fa24c4" d="M 36.78125 506.441406 L 115.015625 506.441406 L 115.015625 584.675781 L 36.78125 584.675781 Z M 36.78125 506.441406 " fill-opacity="1" fill-rule="nonzero"/></g></g></svg>