<svg xmlns="http://www.w3.org/2000/svg" xmlns:xlink="http://www.w3.org/1999/xlink" width="816" zoomAndPan="magnify" viewBox="0 0 612 791.999994" height="1056" preserveAspectRatio="xMidYMid meet" version="1.0"><defs><clipPath id="926c48f886"><path d="M 275 211 L 297 211 L 297 259 L 275 259 Z M 275 211 " clip-rule="nonzero"/></clipPath><clipPath id="e35f50084c"><path d="M 304.226562 262.578125 L 263.058594 270.910156 L 252.351562 217.980469 L 293.515625 209.652344 Z M 304.226562 262.578125 " clip-rule="nonzero"/></clipPath><clipPath id="6c5bf343a0"><path d="M 304.226562 262.578125 L 263.058594 270.910156 L 252.351562 217.980469 L 293.515625 209.652344 Z M 304.226562 262.578125 " clip-rule="nonzero"/></clipPath><clipPath id="4c4f8b3ab8"><path d="M 261 248 L 281 248 L 281 268 L 261 268 Z M 261 248 " clip-rule="nonzero"/></clipPath><clipPath id="4d7b5a8e74"><path d="M 304.226562 262.578125 L 263.058594 270.910156 L 252.351562 217.980469 L 293.515625 209.652344 Z M 304.226562 262.578125 " clip-rule="nonzero"/></clipPath><clipPath id="ebed247d73"><path d="M 304.226562 262.578125 L 263.058594 270.910156 L 252.351562 217.980469 L 293.515625 209.652344 Z M 304.226562 262.578125 " clip-rule="nonzero"/></clipPath><clipPath id="70a0de3f82"><path d="M 264 251 L 277 251 L 277 264 L 264 264 Z M 264 251 " clip-rule="nonzero"/></clipPath><clipPath id="9445d22a99"><path d="M 304.226562 262.578125 L 263.058594 270.910156 L 252.351562 217.980469 L 293.515625 209.652344 Z M 304.226562 262.578125 " clip-rule="nonzero"/></clipPath><clipPath id="4f8acb0e35"><path d="M 304.226562 262.578125 L 263.058594 270.910156 L 252.351562 217.980469 L 293.515625 209.652344 Z M 304.226562 262.578125 " clip-rule="nonzero"/></clipPath><clipPath id="f9237d0d1e"><path d="M 266 249 L 283 249 L 283 265 L 266 265 Z M 266 249 " clip-rule="nonzero"/></clipPath><clipPath id="52823966e5"><path d="M 304.226562 262.578125 L 263.058594 270.910156 L 252.351562 217.980469 L 293.515625 209.652344 Z M 304.226562 262.578125 " clip-rule="nonzero"/></clipPath><clipPath id="64aff0f3d5"><path d="M 304.226562 262.578125 L 263.058594 270.910156 L 252.351562 217.980469 L 293.515625 209.652344 Z M 304.226562 262.578125 " clip-rule="nonzero"/></clipPath><clipPath id="1d38ba3759"><path d="M 277 262 L 282 262 L 282 267 L 277 267 Z M 277 262 " clip-rule="nonzero"/></clipPath><clipPath id="6e16d7fc84"><path d="M 304.226562 262.578125 L 263.058594 270.910156 L 252.351562 217.980469 L 293.515625 209.652344 Z M 304.226562 262.578125 " clip-rule="nonzero"/></clipPath><clipPath id="82f511595f"><path d="M 304.226562 262.578125 L 263.058594 270.910156 L 252.351562 217.980469 L 293.515625 209.652344 Z M 304.226562 262.578125 " clip-rule="nonzero"/></clipPath><clipPath id="8518b2390c"><path d="M 275 246 L 287 246 L 287 259 L 275 259 Z M 275 246 " clip-rule="nonzero"/></clipPath><clipPath id="0f9fab4e03"><path d="M 304.226562 262.578125 L 263.058594 270.910156 L 252.351562 217.980469 L 293.515625 209.652344 Z M 304.226562 262.578125 " clip-rule="nonzero"/></clipPath><clipPath id="154bc08b2f"><path d="M 304.226562 262.578125 L 263.058594 270.910156 L 252.351562 217.980469 L 293.515625 209.652344 Z M 304.226562 262.578125 " clip-rule="nonzero"/></clipPath><clipPath id="668766c2b4"><path d="M 276 214 L 296 214 L 296 257 L 276 257 Z M 276 214 " clip-rule="nonzero"/></clipPath><clipPath id="32da6e9caa"><path d="M 304.226562 262.578125 L 263.058594 270.910156 L 252.351562 217.980469 L 293.515625 209.652344 Z M 304.226562 262.578125 " clip-rule="nonzero"/></clipPath><clipPath id="e137a25371"><path d="M 304.226562 262.578125 L 263.058594 270.910156 L 252.351562 217.980469 L 293.515625 209.652344 Z M 304.226562 262.578125 " clip-rule="nonzero"/></clipPath><clipPath id="11288cefab"><path d="M 253 322 L 287 322 L 287 362 L 253 362 Z M 253 322 " clip-rule="nonzero"/></clipPath><clipPath id="43d768ac88"><path d="M 302.3125 368.238281 L 261.144531 376.570312 L 250.4375 323.640625 L 291.601562 315.3125 Z M 302.3125 368.238281 " clip-rule="nonzero"/></clipPath><clipPath id="9eeedb806d"><path d="M 261.085938 376.582031 L 302.253906 368.25 L 291.542969 315.324219 L 250.378906 323.652344 Z M 261.085938 376.582031 " clip-rule="nonzero"/></clipPath><clipPath id="5a6b9ceab8"><path d="M 282 351 L 301 351 L 301 372 L 282 372 Z M 282 351 " clip-rule="nonzero"/></clipPath><clipPath id="507a467499"><path d="M 302.3125 368.238281 L 261.144531 376.570312 L 250.4375 323.640625 L 291.601562 315.3125 Z M 302.3125 368.238281 " clip-rule="nonzero"/></clipPath><clipPath id="c7fc166264"><path d="M 261.085938 376.582031 L 302.253906 368.25 L 291.542969 315.324219 L 250.378906 323.652344 Z M 261.085938 376.582031 " clip-rule="nonzero"/></clipPath><clipPath id="17192c2f2b"><path d="M 283 354 L 299 354 L 299 364 L 283 364 Z M 283 354 " clip-rule="nonzero"/></clipPath><clipPath id="2db1f51c92"><path d="M 302.3125 368.238281 L 261.144531 376.570312 L 250.4375 323.640625 L 291.601562 315.3125 Z M 302.3125 368.238281 " clip-rule="nonzero"/></clipPath><clipPath id="39f715a9b4"><path d="M 261.085938 376.582031 L 302.253906 368.25 L 291.542969 315.324219 L 250.378906 323.652344 Z M 261.085938 376.582031 " clip-rule="nonzero"/></clipPath><clipPath id="b452e75308"><path d="M 282 353 L 297 353 L 297 371 L 282 371 Z M 282 353 " clip-rule="nonzero"/></clipPath><clipPath id="23abc60540"><path d="M 302.3125 368.238281 L 261.144531 376.570312 L 250.4375 323.640625 L 291.601562 315.3125 Z M 302.3125 368.238281 " clip-rule="nonzero"/></clipPath><clipPath id="e3da3d32ef"><path d="M 261.085938 376.582031 L 302.253906 368.25 L 291.542969 315.324219 L 250.378906 323.652344 Z M 261.085938 376.582031 " clip-rule="nonzero"/></clipPath><clipPath id="ed159b6e9d"><path d="M 283 366 L 286 366 L 286 372 L 283 372 Z M 283 366 " clip-rule="nonzero"/></clipPath><clipPath id="6b542861c7"><path d="M 302.3125 368.238281 L 261.144531 376.570312 L 250.4375 323.640625 L 291.601562 315.3125 Z M 302.3125 368.238281 " clip-rule="nonzero"/></clipPath><clipPath id="d6eb58d51e"><path d="M 261.085938 376.582031 L 302.253906 368.25 L 291.542969 315.324219 L 250.378906 323.652344 Z M 261.085938 376.582031 " clip-rule="nonzero"/></clipPath><clipPath id="4bd61cf12f"><path d="M 271 354 L 286 354 L 286 362 L 271 362 Z M 271 354 " clip-rule="nonzero"/></clipPath><clipPath id="0e50a6e285"><path d="M 302.3125 368.238281 L 261.144531 376.570312 L 250.4375 323.640625 L 291.601562 315.3125 Z M 302.3125 368.238281 " clip-rule="nonzero"/></clipPath><clipPath id="936589adde"><path d="M 261.085938 376.582031 L 302.253906 368.25 L 291.542969 315.324219 L 250.378906 323.652344 Z M 261.085938 376.582031 " clip-rule="nonzero"/></clipPath><clipPath id="0f8c66fad3"><path d="M 254 326 L 284 326 L 284 361 L 254 361 Z M 254 326 " clip-rule="nonzero"/></clipPath><clipPath id="03537c99b2"><path d="M 302.3125 368.238281 L 261.144531 376.570312 L 250.4375 323.640625 L 291.601562 315.3125 Z M 302.3125 368.238281 " clip-rule="nonzero"/></clipPath><clipPath id="f117340d8a"><path d="M 261.085938 376.582031 L 302.253906 368.25 L 291.542969 315.324219 L 250.378906 323.652344 Z M 261.085938 376.582031 " clip-rule="nonzero"/></clipPath><clipPath id="be9b9b42b7"><path d="M 273 422 L 295 422 L 295 470 L 273 470 Z M 273 422 " clip-rule="nonzero"/></clipPath><clipPath id="8f0c9006e7"><path d="M 302.3125 473.597656 L 261.144531 481.929688 L 250.4375 429 L 291.601562 420.671875 Z M 302.3125 473.597656 " clip-rule="nonzero"/></clipPath><clipPath id="4982357b26"><path d="M 302.3125 473.597656 L 261.144531 481.929688 L 250.4375 429 L 291.601562 420.671875 Z M 302.3125 473.597656 " clip-rule="nonzero"/></clipPath><clipPath id="12e97dc880"><path d="M 259 459 L 279 459 L 279 479 L 259 479 Z M 259 459 " clip-rule="nonzero"/></clipPath><clipPath id="6b5e62a558"><path d="M 302.3125 473.597656 L 261.144531 481.929688 L 250.4375 429 L 291.601562 420.671875 Z M 302.3125 473.597656 " clip-rule="nonzero"/></clipPath><clipPath id="f485eb5d35"><path d="M 302.3125 473.597656 L 261.144531 481.929688 L 250.4375 429 L 291.601562 420.671875 Z M 302.3125 473.597656 " clip-rule="nonzero"/></clipPath><clipPath id="e56c66a1c2"><path d="M 262 462 L 276 462 L 276 475 L 262 475 Z M 262 462 " clip-rule="nonzero"/></clipPath><clipPath id="3fa1f01d5a"><path d="M 302.3125 473.597656 L 261.144531 481.929688 L 250.4375 429 L 291.601562 420.671875 Z M 302.3125 473.597656 " clip-rule="nonzero"/></clipPath><clipPath id="4d3292b2d4"><path d="M 302.3125 473.597656 L 261.144531 481.929688 L 250.4375 429 L 291.601562 420.671875 Z M 302.3125 473.597656 " clip-rule="nonzero"/></clipPath><clipPath id="6c8486833a"><path d="M 264 460 L 281 460 L 281 476 L 264 476 Z M 264 460 " clip-rule="nonzero"/></clipPath><clipPath id="b7ca42d0d8"><path d="M 302.3125 473.597656 L 261.144531 481.929688 L 250.4375 429 L 291.601562 420.671875 Z M 302.3125 473.597656 " clip-rule="nonzero"/></clipPath><clipPath id="57c44d7cfa"><path d="M 302.3125 473.597656 L 261.144531 481.929688 L 250.4375 429 L 291.601562 420.671875 Z M 302.3125 473.597656 " clip-rule="nonzero"/></clipPath><clipPath id="258ffd165c"><path d="M 275 473 L 280 473 L 280 478 L 275 478 Z M 275 473 " clip-rule="nonzero"/></clipPath><clipPath id="55254c626b"><path d="M 302.3125 473.597656 L 261.144531 481.929688 L 250.4375 429 L 291.601562 420.671875 Z M 302.3125 473.597656 " clip-rule="nonzero"/></clipPath><clipPath id="fe51be8760"><path d="M 302.3125 473.597656 L 261.144531 481.929688 L 250.4375 429 L 291.601562 420.671875 Z M 302.3125 473.597656 " clip-rule="nonzero"/></clipPath><clipPath id="e750fc08ca"><path d="M 273 457 L 285 457 L 285 470 L 273 470 Z M 273 457 " clip-rule="nonzero"/></clipPath><clipPath id="9a1facc063"><path d="M 302.3125 473.597656 L 261.144531 481.929688 L 250.4375 429 L 291.601562 420.671875 Z M 302.3125 473.597656 " clip-rule="nonzero"/></clipPath><clipPath id="1b2187cd6b"><path d="M 302.3125 473.597656 L 261.144531 481.929688 L 250.4375 429 L 291.601562 420.671875 Z M 302.3125 473.597656 " clip-rule="nonzero"/></clipPath><clipPath id="cd46511ed7"><path d="M 274 425 L 294 425 L 294 468 L 274 468 Z M 274 425 " clip-rule="nonzero"/></clipPath><clipPath id="57555416cd"><path d="M 302.3125 473.597656 L 261.144531 481.929688 L 250.4375 429 L 291.601562 420.671875 Z M 302.3125 473.597656 " clip-rule="nonzero"/></clipPath><clipPath id="2ebe61a18e"><path d="M 302.3125 473.597656 L 261.144531 481.929688 L 250.4375 429 L 291.601562 420.671875 Z M 302.3125 473.597656 " clip-rule="nonzero"/></clipPath><clipPath id="d608808916"><path d="M 267 539 L 301 539 L 301 579 L 267 579 Z M 267 539 " clip-rule="nonzero"/></clipPath><clipPath id="4ea9602a2f"><path d="M 316.539062 585.054688 L 275.371094 593.382812 L 264.664062 540.457031 L 305.828125 532.125 Z M 316.539062 585.054688 " clip-rule="nonzero"/></clipPath><clipPath id="7f37f61e77"><path d="M 275.316406 593.394531 L 316.480469 585.066406 L 305.773438 532.136719 L 264.605469 540.46875 Z M 275.316406 593.394531 " clip-rule="nonzero"/></clipPath><clipPath id="e1f09ef2ef"><path d="M 297 568 L 315 568 L 315 589 L 297 589 Z M 297 568 " clip-rule="nonzero"/></clipPath><clipPath id="79eaa1c73e"><path d="M 316.539062 585.054688 L 275.371094 593.382812 L 264.664062 540.457031 L 305.828125 532.125 Z M 316.539062 585.054688 " clip-rule="nonzero"/></clipPath><clipPath id="33176f3356"><path d="M 275.316406 593.394531 L 316.480469 585.066406 L 305.773438 532.136719 L 264.605469 540.46875 Z M 275.316406 593.394531 " clip-rule="nonzero"/></clipPath><clipPath id="f1c94e9785"><path d="M 298 571 L 313 571 L 313 581 L 298 581 Z M 298 571 " clip-rule="nonzero"/></clipPath><clipPath id="ce69ba5673"><path d="M 316.539062 585.054688 L 275.371094 593.382812 L 264.664062 540.457031 L 305.828125 532.125 Z M 316.539062 585.054688 " clip-rule="nonzero"/></clipPath><clipPath id="deeef3d0df"><path d="M 275.316406 593.394531 L 316.480469 585.066406 L 305.773438 532.136719 L 264.605469 540.46875 Z M 275.316406 593.394531 " clip-rule="nonzero"/></clipPath><clipPath id="d0720be6bd"><path d="M 296 570 L 311 570 L 311 587 L 296 587 Z M 296 570 " clip-rule="nonzero"/></clipPath><clipPath id="a175893ff3"><path d="M 316.539062 585.054688 L 275.371094 593.382812 L 264.664062 540.457031 L 305.828125 532.125 Z M 316.539062 585.054688 " clip-rule="nonzero"/></clipPath><clipPath id="bea9df044f"><path d="M 275.316406 593.394531 L 316.480469 585.066406 L 305.773438 532.136719 L 264.605469 540.46875 Z M 275.316406 593.394531 " clip-rule="nonzero"/></clipPath><clipPath id="f92caeefdb"><path d="M 297 583 L 301 583 L 301 589 L 297 589 Z M 297 583 " clip-rule="nonzero"/></clipPath><clipPath id="bfb4986798"><path d="M 316.539062 585.054688 L 275.371094 593.382812 L 264.664062 540.457031 L 305.828125 532.125 Z M 316.539062 585.054688 " clip-rule="nonzero"/></clipPath><clipPath id="6432c67ee5"><path d="M 275.316406 593.394531 L 316.480469 585.066406 L 305.773438 532.136719 L 264.605469 540.46875 Z M 275.316406 593.394531 " clip-rule="nonzero"/></clipPath><clipPath id="21e6301982"><path d="M 285 571 L 301 571 L 301 579 L 285 579 Z M 285 571 " clip-rule="nonzero"/></clipPath><clipPath id="0b0a12b0c1"><path d="M 316.539062 585.054688 L 275.371094 593.382812 L 264.664062 540.457031 L 305.828125 532.125 Z M 316.539062 585.054688 " clip-rule="nonzero"/></clipPath><clipPath id="30633d4421"><path d="M 275.316406 593.394531 L 316.480469 585.066406 L 305.773438 532.136719 L 264.605469 540.46875 Z M 275.316406 593.394531 " clip-rule="nonzero"/></clipPath><clipPath id="4e667bc3c5"><path d="M 268 542 L 299 542 L 299 578 L 268 578 Z M 268 542 " clip-rule="nonzero"/></clipPath><clipPath id="d04b625d93"><path d="M 316.539062 585.054688 L 275.371094 593.382812 L 264.664062 540.457031 L 305.828125 532.125 Z M 316.539062 585.054688 " clip-rule="nonzero"/></clipPath><clipPath id="fdede140ff"><path d="M 275.316406 593.394531 L 316.480469 585.066406 L 305.773438 532.136719 L 264.605469 540.46875 Z M 275.316406 593.394531 " clip-rule="nonzero"/></clipPath><clipPath id="ec24cfe63e"><path d="M 49 175.976562 L 68.289062 175.976562 L 68.289062 197.726562 L 49 197.726562 Z M 49 175.976562 " clip-rule="nonzero"/></clipPath><clipPath id="24733bc83b"><path d="M 41.289062 176 L 59 176 L 59 197 L 41.289062 197 Z M 41.289062 176 " clip-rule="nonzero"/></clipPath><clipPath id="4242917aaa"><path d="M 49 286.800781 L 68.289062 286.800781 L 68.289062 308.550781 L 49 308.550781 Z M 49 286.800781 " clip-rule="nonzero"/></clipPath><clipPath id="5a25ec9268"><path d="M 41.289062 287 L 59 287 L 59 308 L 41.289062 308 Z M 41.289062 287 " clip-rule="nonzero"/></clipPath><clipPath id="79edee63c0"><path d="M 49 386.894531 L 68.289062 386.894531 L 68.289062 408.644531 L 49 408.644531 Z M 49 386.894531 " clip-rule="nonzero"/></clipPath><clipPath id="a6acab4721"><path d="M 41.289062 387 L 59 387 L 59 408 L 41.289062 408 Z M 41.289062 387 " clip-rule="nonzero"/></clipPath><clipPath id="d45981aab8"><path d="M 49 500.691406 L 68.289062 500.691406 L 68.289062 522.441406 L 49 522.441406 Z M 49 500.691406 " clip-rule="nonzero"/></clipPath><clipPath id="6f979f4535"><path d="M 41.289062 501 L 59 501 L 59 522 L 41.289062 522 Z M 41.289062 501 " clip-rule="nonzero"/></clipPath><clipPath id="2f0d5d848d"><path d="M 49 598.183594 L 68.289062 598.183594 L 68.289062 619.933594 L 49 619.933594 Z M 49 598.183594 " clip-rule="nonzero"/></clipPath><clipPath id="78ef17f75d"><path d="M 41.289062 599 L 59 599 L 59 619.933594 L 41.289062 619.933594 Z M 41.289062 599 " clip-rule="nonzero"/></clipPath></defs><g clip-path="url(#926c48f886)"><g clip-path="url(#e35f50084c)"><g clip-path="url(#6c5bf343a0)"><path fill="#ffd6f5" d="M 286.824219 211.957031 C 290.964844 214.554688 294.074219 218.367188 295.316406 223.136719 C 296.472656 227.585938 295.8125 232.320312 294.167969 236.554688 C 293.175781 239.113281 291.796875 241.167969 290.117188 243.292969 C 288.148438 245.777344 286.089844 248.1875 283.964844 250.539062 C 283.378906 251.191406 276.546875 258.828125 275.65625 257.792969 C 275.375 257.46875 274.878906 257.914062 275.15625 258.238281 C 276.066406 259.289062 278.144531 257.261719 278.769531 256.726562 C 281.046875 254.777344 283.085938 252.527344 285.078125 250.292969 C 288.824219 246.09375 292.839844 241.824219 294.898438 236.511719 C 296.589844 232.15625 297.085938 227.296875 295.902344 222.753906 C 294.648438 217.929688 291.363281 214.019531 287.191406 211.402344 C 286.828125 211.171875 286.457031 211.726562 286.824219 211.957031 Z M 286.824219 211.957031 " fill-opacity="1" fill-rule="nonzero"/></g></g></g><g clip-path="url(#4c4f8b3ab8)"><g clip-path="url(#4d7b5a8e74)"><g clip-path="url(#ebed247d73)"><path fill="#ffd6f5" d="M 275.773438 258.40625 C 277.941406 260.816406 279.679688 263.710938 280.085938 266.972656 C 280.253906 266.859375 280.425781 266.746094 280.59375 266.632812 C 275.277344 262.457031 268.277344 263.234375 261.945312 263.035156 C 261.988281 263.242188 262.03125 263.453125 262.074219 263.664062 C 267.765625 260.132812 271.375 254.472656 274.65625 248.792969 C 274.464844 248.785156 274.273438 248.773438 274.082031 248.761719 C 275.378906 251.882812 276.648438 255.410156 276.699219 258.828125 C 276.707031 259.257812 277.371094 259.304688 277.363281 258.875 C 277.3125 255.324219 276.023438 251.707031 274.675781 248.460938 C 274.582031 248.234375 274.222656 248.21875 274.101562 248.425781 C 270.886719 253.992188 267.355469 259.605469 261.773438 263.070312 C 261.511719 263.230469 261.546875 263.6875 261.898438 263.699219 C 268.109375 263.894531 275.007812 263.089844 280.226562 267.1875 C 280.476562 267.382812 280.769531 267.105469 280.738281 266.84375 C 280.316406 263.46875 278.511719 260.453125 276.273438 257.960938 C 275.984375 257.640625 275.488281 258.085938 275.773438 258.40625 Z M 275.773438 258.40625 " fill-opacity="1" fill-rule="nonzero"/></g></g></g><g clip-path="url(#70a0de3f82)"><g clip-path="url(#9445d22a99)"><g clip-path="url(#4f8acb0e35)"><path fill="#ffd6f5" d="M 272.273438 255.738281 C 272.632812 256.808594 271.277344 258.390625 270.707031 259.1875 C 269.808594 260.445312 268.800781 261.632812 267.75 262.769531 C 267.914062 262.914062 268.082031 263.054688 268.246094 263.199219 C 270.480469 260.613281 272.789062 258.085938 274.203125 254.933594 C 274.367188 254.566406 273.832031 254.371094 273.609375 254.644531 C 272.414062 256.128906 271.679688 257.890625 270.820312 259.578125 C 271.019531 259.675781 271.214844 259.773438 271.414062 259.871094 C 272.214844 257.515625 273.410156 255.320312 274.085938 252.917969 C 274.195312 252.535156 273.734375 252.347656 273.492188 252.628906 C 271.636719 254.792969 271.089844 257.625 269.757812 260.082031 C 269.957031 260.179688 270.152344 260.277344 270.351562 260.375 C 271.070312 257.375 273.011719 254.84375 274.195312 252.023438 C 274.351562 251.660156 273.820312 251.441406 273.605469 251.730469 C 271.78125 254.183594 270.90625 257.183594 269.085938 259.636719 C 269.28125 259.734375 269.480469 259.832031 269.679688 259.929688 C 270.46875 258.109375 271.734375 256.492188 272.652344 254.734375 C 272.855469 254.347656 272.378906 254.042969 272.097656 254.367188 C 270.234375 256.523438 269.273438 259.277344 267.410156 261.433594 C 267.59375 261.554688 267.78125 261.679688 267.964844 261.800781 C 269.183594 260.355469 270.523438 258.992188 271.425781 257.3125 C 271.625 256.941406 271.117188 256.585938 270.871094 256.945312 C 269.496094 258.96875 267.726562 260.660156 265.898438 262.269531 C 266.078125 262.386719 266.257812 262.507812 266.4375 262.625 C 266.988281 260.78125 268.335938 259.445312 269.804688 258.277344 C 269.636719 258.132812 269.472656 257.988281 269.304688 257.84375 C 268.050781 259.664062 266.238281 261.023438 264.441406 262.273438 C 264.589844 262.4375 264.738281 262.601562 264.886719 262.769531 C 266.023438 261.738281 267.214844 260.769531 268.351562 259.738281 C 268.625 259.488281 268.3125 258.996094 267.980469 259.191406 C 266.5 260.046875 265.097656 260.96875 264.105469 262.394531 C 263.941406 262.632812 264.171875 262.960938 264.449219 262.902344 C 267.03125 262.355469 269.488281 261.351562 271.863281 260.226562 C 271.742188 260.042969 271.617188 259.863281 271.492188 259.679688 C 270.992188 260.023438 270.425781 260.234375 269.925781 260.578125 C 270.074219 260.746094 270.222656 260.910156 270.371094 261.078125 C 272.1875 259.78125 273.628906 258.0625 275.289062 256.585938 C 275.109375 256.464844 274.929688 256.347656 274.75 256.230469 C 274.363281 257.59375 273.699219 258.75 272.667969 259.734375 C 272.835938 259.878906 273 260.019531 273.167969 260.164062 C 273.867188 258.824219 275.140625 257.960938 276.242188 256.976562 C 276.054688 256.882812 275.871094 256.792969 275.6875 256.703125 C 275.613281 257.125 275.582031 257.5625 275.464844 257.976562 C 275.304688 258.539062 274.742188 258.992188 274.347656 259.394531 C 274.09375 259.648438 274.375 260.136719 274.71875 259.9375 C 275.523438 259.472656 276.296875 259.011719 276.859375 258.253906 C 276.675781 258.128906 276.488281 258.007812 276.304688 257.886719 C 275.496094 259.019531 274.359375 259.605469 273.132812 260.1875 C 273.289062 260.320312 273.445312 260.457031 273.597656 260.59375 C 274.355469 258.335938 275.296875 256.128906 275.449219 253.726562 C 275.472656 253.355469 274.910156 253.226562 274.800781 253.597656 C 274.578125 254.363281 274.257812 255.085938 273.835938 255.761719 C 274.03125 255.859375 274.230469 255.957031 274.429688 256.054688 C 274.730469 254.847656 274.828125 253.625 274.886719 252.386719 C 274.90625 251.949219 274.28125 251.917969 274.222656 252.339844 C 274 253.898438 274.511719 255.292969 275.105469 256.710938 C 275.234375 257.015625 275.726562 256.902344 275.734375 256.582031 C 275.769531 255.296875 275.527344 254.050781 275.273438 252.800781 C 275.066406 252.871094 274.855469 252.941406 274.648438 253.015625 C 275.023438 253.941406 275.285156 254.914062 275.152344 255.917969 C 274.976562 257.289062 273.578125 257.371094 272.488281 257.148438 C 272.289062 257.105469 272.054688 257.203125 272.046875 257.441406 C 272.011719 259.070312 269.738281 260.242188 268.347656 260.5625 C 267.929688 260.65625 268.058594 261.308594 268.476562 261.214844 C 270.160156 260.832031 272.667969 259.449219 272.714844 257.484375 C 272.566406 257.582031 272.417969 257.679688 272.273438 257.777344 C 273.496094 258.03125 274.875 258.023438 275.554688 256.800781 C 276.238281 255.570312 275.726562 253.914062 275.242188 252.714844 C 275.101562 252.359375 274.546875 252.570312 274.621094 252.929688 C 274.859375 254.125 275.101562 255.3125 275.070312 256.535156 C 275.28125 256.496094 275.488281 256.453125 275.699219 256.410156 C 275.148438 255.09375 274.679688 253.832031 274.886719 252.386719 C 274.664062 252.371094 274.441406 252.355469 274.21875 252.339844 C 274.167969 253.523438 274.085938 254.6875 273.796875 255.839844 C 273.710938 256.191406 274.179688 256.46875 274.390625 256.128906 C 274.84375 255.410156 275.191406 254.628906 275.429688 253.8125 C 275.214844 253.769531 275 253.726562 274.785156 253.679688 C 274.636719 256.023438 273.707031 258.175781 272.96875 260.375 C 272.871094 260.660156 273.171875 260.90625 273.433594 260.78125 C 274.773438 260.148438 275.984375 259.484375 276.859375 258.253906 C 277.109375 257.902344 276.558594 257.542969 276.304688 257.886719 C 275.8125 258.542969 275.117188 258.941406 274.417969 259.34375 C 274.542969 259.527344 274.667969 259.707031 274.789062 259.890625 C 275.21875 259.457031 275.738281 258.996094 275.996094 258.429688 C 276.234375 257.910156 276.253906 257.308594 276.351562 256.75 C 276.402344 256.449219 276 256.296875 275.796875 256.476562 C 274.652344 257.503906 273.335938 258.40625 272.613281 259.796875 C 272.449219 260.113281 272.820312 260.507812 273.113281 260.230469 C 274.222656 259.171875 274.960938 257.914062 275.382812 256.445312 C 275.46875 256.128906 275.101562 255.859375 274.84375 256.085938 C 273.183594 257.5625 271.742188 259.285156 269.925781 260.578125 C 269.574219 260.828125 270.023438 261.316406 270.371094 261.074219 C 270.867188 260.730469 271.433594 260.519531 271.9375 260.175781 C 272.257812 259.957031 271.890625 259.476562 271.5625 259.628906 C 269.238281 260.730469 266.84375 261.714844 264.316406 262.25 C 264.433594 262.417969 264.546875 262.589844 264.660156 262.761719 C 265.585938 261.433594 266.902344 260.582031 268.277344 259.785156 C 268.15625 259.601562 268.03125 259.421875 267.90625 259.238281 C 266.769531 260.269531 265.578125 261.242188 264.441406 262.269531 C 264.113281 262.566406 264.542969 263.007812 264.886719 262.769531 C 266.730469 261.484375 268.570312 260.082031 269.859375 258.210938 C 270.082031 257.890625 269.648438 257.550781 269.359375 257.78125 C 267.804688 259.015625 266.386719 260.460938 265.804688 262.410156 C 265.710938 262.726562 266.085938 262.992188 266.339844 262.765625 C 268.210938 261.121094 270.019531 259.382812 271.425781 257.3125 C 271.238281 257.191406 271.054688 257.066406 270.871094 256.945312 C 269.964844 258.625 268.628906 259.988281 267.40625 261.433594 C 267.128906 261.761719 267.6875 262.121094 267.964844 261.800781 C 269.828125 259.644531 270.789062 256.890625 272.652344 254.734375 C 272.464844 254.613281 272.28125 254.488281 272.097656 254.367188 C 271.148438 256.175781 269.859375 257.835938 269.046875 259.714844 C 268.886719 260.078125 269.425781 260.292969 269.640625 260.003906 C 271.460938 257.550781 272.335938 254.550781 274.15625 252.097656 C 273.960938 252 273.761719 251.902344 273.5625 251.808594 C 272.378906 254.625 270.441406 257.15625 269.71875 260.160156 C 269.636719 260.5 270.121094 260.808594 270.3125 260.453125 C 271.640625 257.996094 272.195312 255.15625 274.046875 252.996094 C 273.851562 252.898438 273.652344 252.800781 273.453125 252.703125 C 272.777344 255.101562 271.585938 257.300781 270.78125 259.652344 C 270.664062 260 271.199219 260.289062 271.375 259.945312 C 272.230469 258.257812 272.96875 256.496094 274.164062 255.011719 C 273.964844 254.914062 273.769531 254.816406 273.570312 254.71875 C 272.183594 257.808594 269.878906 260.292969 267.691406 262.832031 C 267.445312 263.117188 267.933594 263.539062 268.191406 263.265625 C 269.390625 261.96875 270.527344 260.609375 271.539062 259.160156 C 272.144531 258.292969 273.3125 256.757812 272.925781 255.601562 C 272.792969 255.203125 272.140625 255.328125 272.273438 255.738281 Z M 272.273438 255.738281 " fill-opacity="1" fill-rule="nonzero"/></g></g></g><g clip-path="url(#f9237d0d1e)"><g clip-path="url(#52823966e5)"><g clip-path="url(#64aff0f3d5)"><path fill="#ffd6f5" d="M 272.476562 261.265625 C 274.070312 261.539062 275.632812 261.496094 277.214844 261.195312 C 277.085938 261.109375 276.953125 261.019531 276.824219 260.933594 C 276.839844 261.027344 276.859375 261.121094 276.878906 261.214844 C 276.9375 261.09375 276.996094 260.972656 277.054688 260.851562 C 275.925781 261.566406 274.546875 262.257812 273.171875 261.960938 C 273.1875 262.164062 273.199219 262.371094 273.214844 262.574219 C 274.875 261.730469 276.617188 262.632812 278.035156 263.550781 C 278.15625 263.367188 278.28125 263.179688 278.402344 262.996094 C 277.867188 262.71875 277.238281 262.609375 276.640625 262.671875 C 276.683594 262.886719 276.726562 263.105469 276.773438 263.324219 C 278.359375 263.046875 279.964844 263.4375 281.109375 264.609375 C 281.167969 264.425781 281.230469 264.242188 281.289062 264.058594 C 279.667969 264.335938 278.160156 263.832031 276.648438 263.296875 C 276.632812 263.511719 276.621094 263.726562 276.605469 263.941406 C 277.792969 263.699219 278.789062 263.613281 279.988281 263.824219 C 279.972656 263.605469 279.960938 263.386719 279.945312 263.167969 C 278.328125 263.476562 276.855469 263.414062 275.359375 262.683594 C 275.371094 262.890625 275.386719 263.09375 275.402344 263.296875 C 276.910156 262.761719 278.121094 263.191406 279.324219 264.164062 C 279.363281 263.960938 279.402344 263.761719 279.441406 263.558594 C 276.085938 263.882812 272.59375 262.984375 269.585938 261.523438 C 269.542969 261.738281 269.5 261.953125 269.457031 262.167969 C 271.214844 262.109375 272.964844 262.035156 274.695312 261.703125 C 275.058594 261.636719 275.035156 261.027344 274.652344 261.046875 C 273.023438 261.117188 271.414062 261.417969 269.78125 261.449219 C 269.824219 261.65625 269.867188 261.867188 269.910156 262.078125 C 271.929688 260.859375 274.246094 260.363281 276.480469 261.296875 C 276.46875 261.09375 276.453125 260.886719 276.4375 260.683594 C 273.476562 262.425781 269.890625 262.617188 266.535156 262.6875 C 266.550781 262.90625 266.566406 263.125 266.582031 263.347656 C 268.480469 262.6875 270.445312 262.253906 272.34375 261.597656 C 272.734375 261.460938 272.648438 260.855469 272.210938 260.945312 C 271.933594 261 271.652344 261.058594 271.371094 261.113281 C 270.945312 261.199219 271.085938 261.8125 271.503906 261.765625 C 274.757812 261.398438 279.714844 261.296875 281.394531 264.761719 C 281.53125 264.605469 281.667969 264.449219 281.800781 264.292969 C 279.253906 263.371094 277.339844 260.421875 276.085938 258.183594 C 274.9375 256.132812 273.140625 252.269531 275.164062 250.203125 C 274.976562 250.109375 274.792969 250.019531 274.609375 249.929688 C 274.648438 252.195312 272.847656 254.113281 272.121094 256.179688 C 272.035156 256.417969 272.253906 256.664062 272.5 256.613281 C 272.875 256.539062 273.246094 256.460938 273.621094 256.386719 C 274.042969 256.300781 273.910156 255.648438 273.488281 255.734375 C 273.113281 255.808594 272.742188 255.882812 272.367188 255.960938 C 272.496094 256.105469 272.621094 256.25 272.75 256.394531 C 273.5 254.273438 275.3125 252.320312 275.273438 249.976562 C 275.269531 249.710938 274.941406 249.476562 274.71875 249.703125 C 272.570312 251.902344 274.011719 255.585938 275.179688 257.898438 C 276.003906 259.535156 277.070312 261.066406 278.292969 262.429688 C 279.199219 263.4375 280.289062 264.453125 281.585938 264.925781 C 281.867188 265.027344 282.113281 264.714844 281.992188 264.457031 C 280.160156 260.683594 274.933594 260.710938 271.371094 261.113281 C 271.417969 261.332031 271.460938 261.546875 271.503906 261.765625 C 271.785156 261.710938 272.0625 261.652344 272.34375 261.597656 C 272.300781 261.378906 272.253906 261.160156 272.210938 260.945312 C 270.3125 261.601562 268.347656 262.035156 266.449219 262.691406 C 266.125 262.804688 266.078125 263.359375 266.492188 263.351562 C 269.964844 263.277344 273.671875 263.082031 276.738281 261.277344 C 276.996094 261.128906 276.96875 260.777344 276.695312 260.664062 C 274.3125 259.667969 271.769531 260.179688 269.609375 261.484375 C 269.351562 261.636719 269.378906 262.117188 269.734375 262.113281 C 271.367188 262.082031 272.976562 261.785156 274.605469 261.710938 C 274.59375 261.488281 274.578125 261.269531 274.5625 261.050781 C 272.890625 261.367188 271.199219 261.445312 269.503906 261.503906 C 269.113281 261.515625 269.027344 261.984375 269.371094 262.152344 C 272.488281 263.667969 276.097656 264.546875 279.574219 264.210938 C 279.894531 264.179688 279.890625 263.769531 279.691406 263.609375 C 278.277344 262.464844 276.835938 262.085938 275.097656 262.703125 C 274.789062 262.8125 274.921875 263.207031 275.140625 263.316406 C 276.742188 264.09375 278.351562 264.148438 280.078125 263.820312 C 280.46875 263.742188 280.386719 263.222656 280.035156 263.160156 C 278.769531 262.9375 277.726562 263.035156 276.472656 263.285156 C 276.144531 263.351562 276.121094 263.816406 276.429688 263.925781 C 278.0625 264.503906 279.675781 265.007812 281.421875 264.710938 C 281.664062 264.671875 281.78125 264.34375 281.605469 264.164062 C 280.292969 262.824219 278.464844 262.351562 276.640625 262.667969 C 276.210938 262.746094 276.351562 263.367188 276.769531 263.324219 C 277.179688 263.28125 277.671875 263.363281 278.035156 263.550781 C 278.40625 263.746094 278.769531 263.234375 278.402344 262.996094 C 276.769531 261.9375 274.800781 261.015625 272.914062 261.980469 C 272.679688 262.097656 272.660156 262.527344 272.957031 262.589844 C 274.523438 262.929688 276.046875 262.273438 277.355469 261.445312 C 277.484375 261.363281 277.5625 261.238281 277.53125 261.082031 C 277.511719 260.988281 277.492188 260.894531 277.476562 260.800781 C 277.4375 260.621094 277.261719 260.507812 277.082031 260.539062 C 275.554688 260.832031 274.058594 260.863281 272.523438 260.601562 C 272.101562 260.53125 272.058594 261.195312 272.476562 261.265625 Z M 272.476562 261.265625 " fill-opacity="1" fill-rule="nonzero"/></g></g></g><g clip-path="url(#1d38ba3759)"><g clip-path="url(#6e16d7fc84)"><g clip-path="url(#82f511595f)"><path fill="#ffd6f5" d="M 278.257812 263.214844 C 279.492188 263.847656 280.230469 264.96875 280.53125 266.300781 C 280.675781 266.175781 280.820312 266.046875 280.964844 265.921875 C 279.976562 265.644531 279.386719 265.253906 278.75 264.449219 C 278.585938 264.597656 278.417969 264.746094 278.253906 264.894531 C 278.386719 265.0625 278.574219 265.316406 278.8125 265.304688 C 278.988281 265.292969 279.167969 265.191406 279.171875 264.996094 C 279.175781 264.371094 278.703125 263.796875 278.546875 263.207031 C 278.433594 262.792969 277.78125 262.925781 277.890625 263.339844 C 278.027344 263.835938 278.511719 264.445312 278.503906 264.949219 C 278.625 264.847656 278.742188 264.742188 278.859375 264.640625 C 278.957031 264.632812 278.78125 264.488281 278.75 264.449219 C 278.480469 264.113281 277.988281 264.558594 278.253906 264.894531 C 278.960938 265.789062 279.652344 266.246094 280.75 266.550781 C 280.984375 266.617188 281.242188 266.429688 281.183594 266.167969 C 280.847656 264.679688 280.007812 263.367188 278.625 262.660156 C 278.246094 262.464844 277.875 263.019531 278.257812 263.214844 Z M 278.257812 263.214844 " fill-opacity="1" fill-rule="nonzero"/></g></g></g><g clip-path="url(#8518b2390c)"><g clip-path="url(#0f9fab4e03)"><g clip-path="url(#154bc08b2f)"><path fill="#ffd6f5" d="M 275.695312 258.007812 C 278.167969 257.449219 279.960938 255.382812 281.476562 253.488281 C 283.089844 251.46875 284.429688 248.894531 286.523438 247.320312 C 286.867188 247.0625 286.421875 246.566406 286.078125 246.824219 C 284.277344 248.179688 283.042969 250.316406 281.710938 252.097656 C 280.152344 254.171875 278.242188 256.75 275.5625 257.351562 C 275.144531 257.449219 275.277344 258.101562 275.695312 258.007812 Z M 275.695312 258.007812 " fill-opacity="1" fill-rule="nonzero"/></g></g></g><g clip-path="url(#668766c2b4)"><g clip-path="url(#32da6e9caa)"><g clip-path="url(#e137a25371)"><path fill="#ffd6f5" d="M 277.175781 256.238281 C 280.875 254.144531 284.066406 251.160156 286.890625 248.015625 C 289.835938 244.734375 292.5 241.042969 294.152344 236.933594 C 295.800781 232.855469 295.421875 228.199219 294.566406 223.972656 C 294.242188 222.371094 293.808594 221.066406 292.871094 219.726562 C 291.929688 218.378906 290.78125 217.121094 289.535156 216.054688 C 289.125 215.703125 287.203125 214.023438 286.867188 215.324219 C 286.761719 215.738281 287.390625 215.953125 287.496094 215.539062 C 287.507812 215.492188 287.507812 215.503906 287.726562 215.589844 C 287.96875 215.683594 288.1875 215.847656 288.394531 215.992188 C 289.0625 216.464844 289.65625 217.042969 290.230469 217.621094 C 291.390625 218.796875 292.523438 220.125 293.238281 221.625 C 293.601562 222.386719 293.742188 223.289062 293.914062 224.105469 C 294.175781 225.335938 294.347656 226.589844 294.46875 227.839844 C 294.695312 230.167969 294.757812 232.671875 294.128906 234.945312 C 292.941406 239.246094 290.164062 243.121094 287.335938 246.496094 C 284.464844 249.910156 281.097656 253.148438 277.246094 255.429688 C 277.121094 255.503906 277 255.574219 276.875 255.644531 C 276.503906 255.855469 276.800781 256.449219 277.175781 256.238281 Z M 277.175781 256.238281 " fill-opacity="1" fill-rule="nonzero"/></g></g></g><g clip-path="url(#11288cefab)"><g clip-path="url(#43d768ac88)"><g clip-path="url(#9eeedb806d)"><path fill="#ffd6f5" d="M 257.441406 323.171875 C 254.632812 327.179688 253.25 331.898438 253.960938 336.777344 C 254.625 341.328125 257.074219 345.429688 260.234375 348.691406 C 262.144531 350.664062 264.214844 352.023438 266.585938 353.324219 C 269.367188 354.847656 272.203125 356.269531 275.074219 357.613281 C 275.867188 357.980469 285.128906 362.363281 285.550781 361.0625 C 285.679688 360.65625 286.3125 360.871094 286.179688 361.28125 C 285.753906 362.601562 283.050781 361.542969 282.265625 361.292969 C 279.410156 360.382812 276.65625 359.097656 273.949219 357.816406 C 268.867188 355.40625 263.507812 353.03125 259.542969 348.9375 C 256.296875 345.582031 253.949219 341.300781 253.269531 336.652344 C 252.550781 331.71875 254.058594 326.839844 256.886719 322.804688 C 257.132812 322.453125 257.6875 322.820312 257.441406 323.171875 Z M 257.441406 323.171875 " fill-opacity="1" fill-rule="nonzero"/></g></g></g><g clip-path="url(#5a6b9ceab8)"><g clip-path="url(#507a467499)"><g clip-path="url(#c7fc166264)"><path fill="#ffd6f5" d="M 285.675781 361.671875 C 284.617188 364.738281 284.140625 368.078125 285.039062 371.246094 C 284.835938 371.203125 284.636719 371.164062 284.433594 371.125 C 287.710938 365.214844 294.460938 363.207031 300.21875 360.5625 C 300.257812 360.773438 300.300781 360.980469 300.34375 361.191406 C 293.726562 360.148438 288.199219 356.339844 282.972656 352.382812 C 283.144531 352.300781 283.316406 352.214844 283.488281 352.128906 C 283.507812 355.511719 283.707031 359.253906 284.988281 362.425781 C 285.148438 362.820312 284.554688 363.125 284.394531 362.726562 C 283.0625 359.433594 282.84375 355.597656 282.824219 352.082031 C 282.824219 351.839844 283.148438 351.683594 283.339844 351.828125 C 288.464844 355.707031 293.902344 359.503906 300.390625 360.527344 C 300.695312 360.574219 300.839844 361.007812 300.519531 361.15625 C 294.871094 363.753906 288.203125 365.691406 284.988281 371.496094 C 284.835938 371.769531 284.457031 371.628906 284.386719 371.375 C 283.460938 368.105469 283.949219 364.625 285.046875 361.457031 C 285.1875 361.050781 285.816406 361.265625 285.675781 361.671875 Z M 285.675781 361.671875 " fill-opacity="1" fill-rule="nonzero"/></g></g></g><g clip-path="url(#17192c2f2b)"><g clip-path="url(#2db1f51c92)"><g clip-path="url(#39f715a9b4)"><path fill="#ffd6f5" d="M 287.863281 357.855469 C 287.949219 358.984375 289.816406 359.910156 290.648438 360.421875 C 291.964844 361.234375 293.359375 361.9375 294.769531 362.574219 C 294.671875 362.769531 294.574219 362.96875 294.476562 363.164062 C 291.414062 361.648438 288.304688 360.21875 285.777344 357.867188 C 285.480469 357.589844 285.898438 357.199219 286.207031 357.367188 C 287.886719 358.269531 289.25 359.605469 290.695312 360.828125 C 290.550781 360.996094 290.40625 361.160156 290.261719 361.328125 C 288.609375 359.472656 286.65625 357.910156 285.097656 355.964844 C 284.851562 355.652344 285.203125 355.300781 285.53125 355.464844 C 288.085938 356.738281 289.6875 359.132812 291.871094 360.882812 C 291.726562 361.046875 291.585938 361.214844 291.441406 361.382812 C 289.609375 358.894531 286.835938 357.316406 284.648438 355.179688 C 284.367188 354.902344 284.769531 354.496094 285.082031 354.679688 C 287.714844 356.234375 289.6875 358.65625 292.320312 360.207031 C 292.175781 360.375 292.03125 360.542969 291.886719 360.707031 C 290.449219 359.339844 288.65625 358.339844 287.125 357.078125 C 286.789062 356.800781 287.113281 356.335938 287.496094 356.523438 C 290.050781 357.785156 292.007812 359.949219 294.5625 361.210938 C 294.4375 361.398438 294.316406 361.582031 294.191406 361.765625 C 292.507812 360.910156 290.742188 360.171875 289.257812 358.976562 C 288.929688 358.714844 289.261719 358.183594 289.628906 358.421875 C 291.679688 359.753906 293.96875 360.625 296.277344 361.394531 C 296.160156 361.574219 296.039062 361.75 295.921875 361.929688 C 294.699219 360.449219 292.9375 359.738281 291.128906 359.234375 C 291.226562 359.039062 291.324219 358.839844 291.417969 358.644531 C 293.28125 359.832031 295.480469 360.378906 297.621094 360.832031 C 297.546875 361.039062 297.476562 361.25 297.40625 361.460938 C 295.957031 360.953125 294.484375 360.523438 293.035156 360.015625 C 292.683594 359.894531 292.78125 359.320312 293.164062 359.367188 C 294.859375 359.582031 296.511719 359.886719 297.976562 360.8125 C 298.222656 360.96875 298.140625 361.363281 297.859375 361.414062 C 295.265625 361.914062 292.613281 361.945312 289.988281 361.832031 C 290.03125 361.613281 290.074219 361.398438 290.117188 361.183594 C 290.710938 361.304688 291.316406 361.28125 291.910156 361.402344 C 291.839844 361.613281 291.765625 361.824219 291.695312 362.035156 C 289.515625 361.546875 287.519531 360.523438 285.417969 359.808594 C 285.535156 359.628906 285.65625 359.449219 285.773438 359.269531 C 286.664062 360.375 287.722656 361.183594 289.054688 361.6875 C 288.957031 361.886719 288.859375 362.085938 288.761719 362.28125 C 287.597656 361.320312 286.089844 361.019531 284.691406 360.539062 C 284.824219 360.382812 284.960938 360.226562 285.097656 360.070312 C 285.328125 360.433594 285.527344 360.824219 285.796875 361.15625 C 286.164062 361.613281 286.855469 361.8125 287.375 362.027344 C 287.707031 362.167969 287.636719 362.726562 287.246094 362.675781 C 286.320312 362.5625 285.429688 362.433594 284.617188 361.957031 C 284.742188 361.769531 284.863281 361.585938 284.988281 361.398438 C 286.171875 362.132812 287.449219 362.230469 288.804688 362.289062 C 288.710938 362.472656 288.621094 362.65625 288.53125 362.84375 C 286.957031 361.058594 285.230469 359.390625 284.160156 357.238281 C 283.992188 356.902344 284.460938 356.566406 284.703125 356.863281 C 285.207031 357.484375 285.78125 358.027344 286.4375 358.484375 C 286.292969 358.652344 286.148438 358.816406 286.003906 358.984375 C 285.253906 357.988281 284.691406 356.902344 284.15625 355.78125 C 283.96875 355.390625 284.53125 355.117188 284.75 355.480469 C 285.5625 356.832031 285.628906 358.316406 285.632812 359.851562 C 285.636719 360.183594 285.136719 360.273438 285.003906 359.980469 C 284.476562 358.808594 284.214844 357.566406 283.960938 356.3125 C 284.179688 356.300781 284.398438 356.285156 284.617188 356.269531 C 284.632812 357.265625 284.773438 358.269531 285.28125 359.140625 C 285.980469 360.335938 287.300781 359.867188 288.214844 359.238281 C 288.382812 359.121094 288.636719 359.121094 288.734375 359.335938 C 289.40625 360.824219 291.953125 361.019531 293.359375 360.773438 C 293.78125 360.695312 293.914062 361.351562 293.492188 361.425781 C 291.792969 361.726562 288.945312 361.425781 288.140625 359.636719 C 288.3125 359.667969 288.488281 359.703125 288.660156 359.734375 C 287.628906 360.441406 286.359375 360.972656 285.257812 360.109375 C 284.148438 359.242188 283.972656 357.515625 283.953125 356.222656 C 283.949219 355.839844 284.539062 355.820312 284.613281 356.179688 C 284.855469 357.375 285.09375 358.5625 285.601562 359.679688 C 285.390625 359.71875 285.179688 359.761719 284.96875 359.804688 C 284.964844 358.378906 284.910156 357.035156 284.15625 355.78125 C 284.355469 355.679688 284.550781 355.582031 284.75 355.480469 C 285.261719 356.550781 285.785156 357.589844 286.5 358.539062 C 286.71875 358.832031 286.394531 359.269531 286.066406 359.039062 C 285.371094 358.550781 284.746094 357.96875 284.207031 357.308594 C 284.390625 357.183594 284.570312 357.058594 284.753906 356.9375 C 285.800781 359.039062 287.492188 360.660156 289.03125 362.398438 C 289.226562 362.621094 289.046875 362.964844 288.757812 362.953125 C 287.277344 362.890625 285.90625 362.75 284.617188 361.957031 C 284.25 361.730469 284.617188 361.183594 284.988281 361.398438 C 285.695312 361.816406 286.488281 361.910156 287.292969 362.011719 C 287.246094 362.226562 287.203125 362.441406 287.160156 362.660156 C 286.597656 362.425781 285.941406 362.203125 285.484375 361.785156 C 285.0625 361.394531 284.808594 360.847656 284.503906 360.371094 C 284.335938 360.117188 284.652344 359.816406 284.90625 359.90625 C 286.359375 360.40625 287.921875 360.726562 289.132812 361.726562 C 289.40625 361.953125 289.21875 362.464844 288.839844 362.320312 C 287.40625 361.777344 286.234375 360.90625 285.277344 359.714844 C 285.074219 359.460938 285.304688 359.066406 285.632812 359.175781 C 287.738281 359.890625 289.734375 360.917969 291.910156 361.402344 C 292.332031 361.496094 292.109375 362.117188 291.695312 362.03125 C 291.101562 361.910156 290.496094 361.933594 289.902344 361.8125 C 289.519531 361.734375 289.671875 361.148438 290.035156 361.164062 C 292.605469 361.273438 295.191406 361.25 297.726562 360.761719 C 297.6875 360.964844 297.648438 361.164062 297.609375 361.367188 C 296.242188 360.5 294.699219 360.230469 293.117188 360.03125 C 293.164062 359.816406 293.207031 359.597656 293.25 359.382812 C 294.699219 359.890625 296.171875 360.324219 297.621094 360.828125 C 298.039062 360.976562 297.816406 361.546875 297.40625 361.460938 C 295.207031 360.996094 292.964844 360.417969 291.050781 359.195312 C 290.722656 358.984375 290.988281 358.503906 291.34375 358.605469 C 293.257812 359.136719 295.125 359.917969 296.417969 361.484375 C 296.628906 361.742188 296.386719 362.132812 296.0625 362.023438 C 293.699219 361.234375 291.359375 360.335938 289.257812 358.976562 C 289.382812 358.792969 289.503906 358.605469 289.628906 358.421875 C 291.113281 359.617188 292.875 360.351562 294.5625 361.210938 C 294.945312 361.40625 294.574219 361.953125 294.195312 361.765625 C 291.636719 360.503906 289.683594 358.339844 287.128906 357.078125 C 287.25 356.890625 287.371094 356.707031 287.496094 356.523438 C 289.070312 357.820312 290.90625 358.851562 292.382812 360.261719 C 292.671875 360.535156 292.261719 360.945312 291.953125 360.761719 C 289.320312 359.210938 287.347656 356.785156 284.714844 355.234375 C 284.859375 355.066406 285.003906 354.902344 285.148438 354.734375 C 287.335938 356.871094 290.105469 358.449219 291.9375 360.9375 C 292.148438 361.21875 291.820312 361.6875 291.503906 361.433594 C 289.324219 359.691406 287.710938 357.289062 285.164062 356.019531 C 285.308594 355.851562 285.453125 355.683594 285.597656 355.519531 C 287.152344 357.464844 289.109375 359.027344 290.761719 360.882812 C 291.007812 361.15625 290.625 361.632812 290.328125 361.382812 C 288.882812 360.160156 287.519531 358.824219 285.839844 357.921875 C 285.984375 357.753906 286.128906 357.585938 286.273438 357.421875 C 288.753906 359.730469 291.84375 361.121094 294.84375 362.609375 C 295.183594 362.777344 294.898438 363.355469 294.554688 363.203125 C 292.945312 362.476562 291.367188 361.664062 289.871094 360.722656 C 288.976562 360.160156 287.304688 359.199219 287.210938 357.984375 C 287.179688 357.5625 287.832031 357.425781 287.863281 357.855469 Z M 287.863281 357.855469 " fill-opacity="1" fill-rule="nonzero"/></g></g></g><g clip-path="url(#b452e75308)"><g clip-path="url(#23abc60540)"><g clip-path="url(#e3da3d32ef)"><path fill="#ffd6f5" d="M 289.828125 363.027344 C 288.464844 363.898438 287.011719 364.464844 285.433594 364.804688 C 285.519531 364.671875 285.609375 364.542969 285.695312 364.410156 C 285.714844 364.503906 285.730469 364.597656 285.75 364.691406 C 285.648438 364.601562 285.546875 364.511719 285.449219 364.425781 C 286.765625 364.644531 288.308594 364.746094 289.457031 363.9375 C 289.523438 364.132812 289.589844 364.324219 289.65625 364.519531 C 287.796875 364.386719 286.542969 365.898438 285.59375 367.292969 C 285.410156 367.171875 285.226562 367.046875 285.039062 366.925781 C 285.421875 366.460938 285.960938 366.117188 286.539062 365.941406 C 286.582031 366.15625 286.625 366.375 286.667969 366.59375 C 285.101562 366.957031 283.773438 367.9375 283.175781 369.460938 C 283.046875 369.316406 282.917969 369.171875 282.792969 369.027344 C 284.394531 368.652344 285.589844 367.601562 286.773438 366.519531 C 286.871094 366.710938 286.96875 366.902344 287.0625 367.097656 C 285.875 367.335938 284.925781 367.644531 283.902344 368.304688 C 283.828125 368.097656 283.757812 367.890625 283.6875 367.683594 C 285.296875 367.339844 286.628906 366.710938 287.722656 365.453125 C 287.789062 365.648438 287.855469 365.84375 287.921875 366.035156 C 286.328125 366.128906 285.375 366.996094 284.644531 368.359375 C 284.53125 368.1875 284.417969 368.019531 284.300781 367.847656 C 287.519531 366.84375 290.390625 364.65625 292.589844 362.140625 C 292.714844 362.320312 292.835938 362.503906 292.960938 362.6875 C 291.320312 363.3125 289.675781 363.925781 287.953125 364.292969 C 287.59375 364.371094 287.378906 363.800781 287.734375 363.671875 C 289.265625 363.105469 290.867188 362.753906 292.378906 362.148438 C 292.421875 362.359375 292.464844 362.566406 292.507812 362.777344 C 290.175781 362.441406 287.847656 362.882812 286.148438 364.613281 C 286.082031 364.417969 286.015625 364.226562 285.949219 364.03125 C 289.359375 364.484375 292.734375 363.265625 295.851562 362.027344 C 295.925781 362.234375 295.996094 362.445312 296.070312 362.652344 C 294.0625 362.785156 292.082031 363.148438 290.078125 363.28125 C 289.664062 363.308594 289.511719 362.714844 289.945312 362.628906 C 290.226562 362.570312 290.507812 362.515625 290.785156 362.457031 C 291.214844 362.371094 291.324219 362.992188 290.917969 363.109375 C 287.777344 364.039062 283.167969 365.867188 282.96875 369.714844 C 282.785156 369.625 282.597656 369.53125 282.414062 369.441406 C 284.402344 367.601562 285.019531 364.140625 285.304688 361.589844 C 285.566406 359.257812 285.71875 354.996094 283.050781 353.878906 C 283.1875 353.722656 283.320312 353.566406 283.457031 353.410156 C 284.300781 355.515625 286.703125 356.582031 288.179688 358.199219 C 288.347656 358.386719 288.242188 358.699219 287.996094 358.75 C 287.625 358.824219 287.25 358.902344 286.875 358.976562 C 286.457031 359.0625 286.324219 358.40625 286.746094 358.324219 C 287.117188 358.246094 287.492188 358.171875 287.863281 358.097656 C 287.804688 358.277344 287.742188 358.460938 287.679688 358.644531 C 286.167969 356.980469 283.738281 355.890625 282.863281 353.710938 C 282.761719 353.464844 282.972656 353.121094 283.265625 353.246094 C 286.101562 354.4375 286.203125 358.390625 286.027344 360.976562 C 285.90625 362.804688 285.519531 364.628906 284.921875 366.359375 C 284.480469 367.640625 283.871094 369 282.859375 369.9375 C 282.636719 370.140625 282.289062 369.953125 282.304688 369.667969 C 282.523438 365.476562 287.347656 363.472656 290.785156 362.457031 C 290.828125 362.675781 290.875 362.894531 290.917969 363.109375 C 290.636719 363.167969 290.359375 363.222656 290.078125 363.28125 C 290.035156 363.0625 289.992188 362.84375 289.945312 362.628906 C 291.953125 362.496094 293.929688 362.128906 295.9375 361.996094 C 296.277344 361.976562 296.535156 362.46875 296.152344 362.621094 C 292.925781 363.902344 289.429688 365.164062 285.90625 364.695312 C 285.609375 364.65625 285.5 364.324219 285.707031 364.113281 C 287.515625 362.269531 290.058594 361.75 292.554688 362.113281 C 292.851562 362.15625 293.015625 362.609375 292.683594 362.742188 C 291.167969 363.347656 289.566406 363.699219 288.039062 364.265625 C 287.964844 364.054688 287.894531 363.847656 287.820312 363.640625 C 289.484375 363.28125 291.074219 362.695312 292.660156 362.089844 C 293.023438 361.953125 293.285156 362.347656 293.03125 362.636719 C 290.75 365.246094 287.765625 367.460938 284.433594 368.5 C 284.128906 368.597656 283.96875 368.214844 284.089844 367.992188 C 284.949219 366.386719 286.128906 365.480469 287.96875 365.371094 C 288.296875 365.351562 288.328125 365.765625 288.167969 365.949219 C 286.996094 367.292969 285.535156 367.96875 283.816406 368.335938 C 283.425781 368.417969 283.300781 367.90625 283.601562 367.710938 C 284.679688 367.011719 285.679688 366.695312 286.929688 366.441406 C 287.257812 366.375 287.460938 366.792969 287.21875 367.015625 C 285.9375 368.183594 284.648438 369.273438 282.925781 369.679688 C 282.683594 369.738281 282.453125 369.480469 282.542969 369.246094 C 283.230469 367.5 284.730469 366.355469 286.539062 365.9375 C 286.964844 365.839844 287.074219 366.46875 286.671875 366.59375 C 286.277344 366.710938 285.855469 366.980469 285.59375 367.292969 C 285.328125 367.617188 284.792969 367.285156 285.039062 366.925781 C 286.132812 365.316406 287.589844 363.703125 289.703125 363.855469 C 289.964844 363.871094 290.148438 364.261719 289.902344 364.433594 C 288.585938 365.355469 286.929688 365.34375 285.402344 365.089844 C 285.253906 365.0625 285.128906 364.976562 285.097656 364.820312 C 285.078125 364.726562 285.058594 364.636719 285.042969 364.542969 C 285.003906 364.363281 285.125 364.1875 285.300781 364.148438 C 286.824219 363.824219 288.214844 363.269531 289.523438 362.433594 C 289.886719 362.203125 290.183594 362.800781 289.828125 363.027344 Z M 289.828125 363.027344 " fill-opacity="1" fill-rule="nonzero"/></g></g></g><g clip-path="url(#ed159b6e9d)"><g clip-path="url(#6b542861c7)"><g clip-path="url(#d6eb58d51e)"><path fill="#ffd6f5" d="M 285.257812 367.070312 C 284.367188 368.132812 284.121094 369.453125 284.363281 370.796875 C 284.183594 370.738281 284 370.675781 283.816406 370.617188 C 284.621094 369.980469 285.011719 369.390625 285.285156 368.402344 C 285.496094 368.472656 285.707031 368.542969 285.917969 368.617188 C 285.859375 368.824219 285.785156 369.132812 285.558594 369.210938 C 285.394531 369.269531 285.1875 369.246094 285.109375 369.066406 C 284.859375 368.492188 285.074219 367.78125 284.992188 367.175781 C 284.933594 366.75 285.585938 366.617188 285.644531 367.042969 C 285.714844 367.554688 285.503906 368.304688 285.703125 368.765625 C 285.554688 368.714844 285.40625 368.667969 285.257812 368.617188 C 285.164062 368.648438 285.273438 368.449219 285.285156 368.402344 C 285.402344 367.988281 286.03125 368.203125 285.914062 368.617188 C 285.613281 369.714844 285.152344 370.40625 284.261719 371.113281 C 284.070312 371.265625 283.757812 371.191406 283.710938 370.929688 C 283.441406 369.425781 283.703125 367.890625 284.703125 366.703125 C 284.976562 366.375 285.535156 366.742188 285.257812 367.070312 Z M 285.257812 367.070312 " fill-opacity="1" fill-rule="nonzero"/></g></g></g><g clip-path="url(#4bd61cf12f)"><g clip-path="url(#0e50a6e285)"><g clip-path="url(#936589adde)"><path fill="#ffd6f5" d="M 285.59375 361.277344 C 283.097656 361.722656 280.644531 360.515625 278.511719 359.359375 C 276.238281 358.125 274.003906 356.273438 271.464844 355.640625 C 271.046875 355.535156 271.265625 354.90625 271.679688 355.007812 C 273.867188 355.554688 275.835938 357.046875 277.757812 358.167969 C 279.996094 359.476562 282.757812 361.109375 285.460938 360.621094 C 285.882812 360.546875 286.015625 361.199219 285.59375 361.277344 Z M 285.59375 361.277344 " fill-opacity="1" fill-rule="nonzero"/></g></g></g><g clip-path="url(#0f8c66fad3)"><g clip-path="url(#03537c99b2)"><g clip-path="url(#f117340d8a)"><path fill="#ffd6f5" d="M 283.542969 360.222656 C 279.320312 359.734375 275.21875 358.222656 271.394531 356.421875 C 267.410156 354.542969 263.519531 352.175781 260.398438 349.039062 C 257.292969 345.917969 255.832031 341.480469 254.976562 337.253906 C 254.652344 335.65625 254.546875 334.28125 254.886719 332.683594 C 255.230469 331.074219 255.800781 329.472656 256.535156 328.003906 C 256.777344 327.519531 257.894531 325.226562 258.707031 326.292969 C 258.96875 326.632812 258.472656 327.078125 258.210938 326.738281 C 258.183594 326.699219 258.1875 326.707031 258.019531 326.875 C 257.835938 327.054688 257.699219 327.289062 257.5625 327.503906 C 257.128906 328.199219 256.804688 328.960938 256.503906 329.71875 C 255.890625 331.253906 255.363281 332.917969 255.285156 334.578125 C 255.25 335.417969 255.472656 336.300781 255.628906 337.125 C 255.867188 338.359375 256.199219 339.578125 256.570312 340.78125 C 257.265625 343.011719 258.183594 345.347656 259.644531 347.195312 C 262.414062 350.695312 266.476562 353.1875 270.394531 355.195312 C 274.367188 357.226562 278.726562 358.898438 283.167969 359.503906 C 283.308594 359.523438 283.449219 359.542969 283.589844 359.554688 C 284.011719 359.605469 283.96875 360.269531 283.542969 360.222656 Z M 283.542969 360.222656 " fill-opacity="1" fill-rule="nonzero"/></g></g></g><g clip-path="url(#be9b9b42b7)"><g clip-path="url(#8f0c9006e7)"><g clip-path="url(#4982357b26)"><path fill="#ffd6f5" d="M 284.910156 422.976562 C 289.050781 425.574219 292.160156 429.386719 293.402344 434.15625 C 294.558594 438.605469 293.898438 443.339844 292.253906 447.574219 C 291.261719 450.132812 289.882812 452.1875 288.203125 454.308594 C 286.234375 456.792969 284.175781 459.207031 282.050781 461.558594 C 281.464844 462.207031 274.632812 469.847656 273.742188 468.8125 C 273.460938 468.488281 272.964844 468.929688 273.242188 469.257812 C 274.152344 470.308594 276.230469 468.28125 276.855469 467.746094 C 279.132812 465.796875 281.171875 463.542969 283.164062 461.308594 C 286.910156 457.113281 290.925781 452.84375 292.984375 447.53125 C 294.675781 443.175781 295.171875 438.316406 293.988281 433.773438 C 292.734375 428.949219 289.449219 425.039062 285.277344 422.421875 C 284.914062 422.191406 284.542969 422.746094 284.910156 422.976562 Z M 284.910156 422.976562 " fill-opacity="1" fill-rule="nonzero"/></g></g></g><g clip-path="url(#12e97dc880)"><g clip-path="url(#6b5e62a558)"><g clip-path="url(#f485eb5d35)"><path fill="#ffd6f5" d="M 273.859375 469.421875 C 276.027344 471.835938 277.765625 474.726562 278.171875 477.992188 C 278.339844 477.878906 278.511719 477.765625 278.679688 477.648438 C 273.363281 473.476562 266.363281 474.253906 260.03125 474.050781 C 260.074219 474.261719 260.117188 474.472656 260.160156 474.683594 C 265.851562 471.148438 269.460938 465.488281 272.742188 459.8125 C 272.550781 459.800781 272.359375 459.789062 272.167969 459.78125 C 273.464844 462.902344 274.734375 466.429688 274.785156 469.847656 C 274.792969 470.273438 275.457031 470.324219 275.449219 469.894531 C 275.398438 466.34375 274.109375 462.726562 272.761719 459.480469 C 272.667969 459.253906 272.308594 459.234375 272.1875 459.445312 C 268.972656 465.007812 265.441406 470.621094 259.859375 474.085938 C 259.597656 474.25 259.628906 474.707031 259.984375 474.71875 C 266.195312 474.914062 273.09375 474.109375 278.3125 478.203125 C 278.5625 478.398438 278.855469 478.121094 278.824219 477.859375 C 278.402344 474.488281 276.597656 471.472656 274.359375 468.980469 C 274.070312 468.660156 273.574219 469.101562 273.859375 469.421875 Z M 273.859375 469.421875 " fill-opacity="1" fill-rule="nonzero"/></g></g></g><g clip-path="url(#e56c66a1c2)"><g clip-path="url(#3fa1f01d5a)"><g clip-path="url(#4d3292b2d4)"><path fill="#ffd6f5" d="M 270.359375 466.753906 C 270.71875 467.828125 269.363281 469.40625 268.792969 470.203125 C 267.894531 471.464844 266.886719 472.652344 265.835938 473.785156 C 266 473.929688 266.167969 474.074219 266.332031 474.21875 C 268.566406 471.632812 270.875 469.105469 272.289062 465.953125 C 272.453125 465.585938 271.917969 465.386719 271.695312 465.660156 C 270.5 467.144531 269.765625 468.910156 268.90625 470.597656 C 269.105469 470.691406 269.300781 470.789062 269.5 470.886719 C 270.300781 468.535156 271.496094 466.335938 272.171875 463.9375 C 272.28125 463.554688 271.820312 463.367188 271.578125 463.644531 C 269.722656 465.8125 269.175781 468.644531 267.84375 471.101562 C 268.042969 471.199219 268.238281 471.296875 268.4375 471.394531 C 269.15625 468.390625 271.097656 465.863281 272.28125 463.042969 C 272.4375 462.675781 271.90625 462.460938 271.691406 462.75 C 269.867188 465.203125 268.992188 468.203125 267.171875 470.65625 C 267.367188 470.753906 267.566406 470.851562 267.765625 470.949219 C 268.554688 469.128906 269.820312 467.511719 270.738281 465.753906 C 270.941406 465.367188 270.464844 465.0625 270.183594 465.386719 C 268.320312 467.539062 267.359375 470.296875 265.496094 472.453125 C 265.679688 472.574219 265.867188 472.699219 266.050781 472.820312 C 267.269531 471.375 268.609375 470.011719 269.511719 468.332031 C 269.710938 467.960938 269.203125 467.601562 268.957031 467.964844 C 267.582031 469.988281 265.8125 471.679688 263.984375 473.285156 C 264.164062 473.40625 264.34375 473.523438 264.523438 473.644531 C 265.074219 471.800781 266.421875 470.460938 267.890625 469.296875 C 267.722656 469.152344 267.558594 469.007812 267.390625 468.863281 C 266.136719 470.683594 264.324219 472.042969 262.527344 473.289062 C 262.675781 473.457031 262.824219 473.621094 262.972656 473.789062 C 264.109375 472.757812 265.300781 471.785156 266.4375 470.753906 C 266.710938 470.507812 266.398438 470.015625 266.066406 470.210938 C 264.585938 471.066406 263.183594 471.988281 262.191406 473.410156 C 262.027344 473.648438 262.257812 473.980469 262.535156 473.921875 C 265.117188 473.375 267.574219 472.371094 269.949219 471.242188 C 269.828125 471.0625 269.703125 470.878906 269.578125 470.699219 C 269.078125 471.042969 268.511719 471.253906 268.011719 471.597656 C 268.160156 471.761719 268.308594 471.929688 268.457031 472.09375 C 270.273438 470.800781 271.714844 469.082031 273.375 467.605469 C 273.195312 467.484375 273.015625 467.367188 272.835938 467.246094 C 272.449219 468.613281 271.785156 469.769531 270.753906 470.75 C 270.921875 470.894531 271.085938 471.039062 271.253906 471.183594 C 271.953125 469.84375 273.226562 468.980469 274.328125 467.992188 C 274.140625 467.902344 273.957031 467.8125 273.773438 467.722656 C 273.699219 468.144531 273.667969 468.582031 273.550781 468.996094 C 273.390625 469.558594 272.828125 470.011719 272.433594 470.410156 C 272.179688 470.667969 272.460938 471.15625 272.804688 470.957031 C 273.609375 470.492188 274.382812 470.027344 274.945312 469.273438 C 274.761719 469.148438 274.574219 469.027344 274.390625 468.902344 C 273.582031 470.039062 272.445312 470.625 271.21875 471.207031 C 271.375 471.339844 271.527344 471.476562 271.683594 471.609375 C 272.441406 469.355469 273.382812 467.148438 273.535156 464.746094 C 273.558594 464.375 272.996094 464.246094 272.886719 464.613281 C 272.664062 465.378906 272.34375 466.105469 271.921875 466.78125 C 272.117188 466.878906 272.316406 466.976562 272.515625 467.074219 C 272.816406 465.863281 272.914062 464.644531 272.972656 463.402344 C 272.992188 462.96875 272.367188 462.9375 272.304688 463.355469 C 272.085938 464.917969 272.597656 466.3125 273.191406 467.730469 C 273.320312 468.035156 273.8125 467.921875 273.820312 467.601562 C 273.855469 466.316406 273.613281 465.070312 273.359375 463.816406 C 273.152344 463.890625 272.941406 463.960938 272.734375 464.035156 C 273.109375 464.957031 273.371094 465.933594 273.238281 466.9375 C 273.0625 468.308594 271.664062 468.390625 270.574219 468.164062 C 270.375 468.125 270.140625 468.222656 270.132812 468.457031 C 270.09375 470.089844 267.824219 471.261719 266.433594 471.578125 C 266.015625 471.675781 266.144531 472.328125 266.5625 472.230469 C 268.246094 471.847656 270.753906 470.46875 270.800781 468.503906 C 270.652344 468.601562 270.503906 468.699219 270.359375 468.796875 C 271.582031 469.046875 272.960938 469.042969 273.640625 467.820312 C 274.324219 466.589844 273.8125 464.929688 273.328125 463.734375 C 273.1875 463.375 272.632812 463.589844 272.707031 463.949219 C 272.945312 465.144531 273.1875 466.332031 273.15625 467.554688 C 273.367188 467.511719 273.574219 467.46875 273.785156 467.425781 C 273.234375 466.109375 272.765625 464.851562 272.972656 463.402344 C 272.75 463.386719 272.527344 463.371094 272.304688 463.355469 C 272.25 464.539062 272.171875 465.703125 271.882812 466.855469 C 271.796875 467.207031 272.265625 467.488281 272.476562 467.148438 C 272.929688 466.425781 273.277344 465.648438 273.515625 464.832031 C 273.300781 464.785156 273.085938 464.742188 272.871094 464.699219 C 272.722656 467.042969 271.792969 469.195312 271.054688 471.394531 C 270.957031 471.675781 271.257812 471.925781 271.519531 471.800781 C 272.859375 471.167969 274.070312 470.503906 274.945312 469.273438 C 275.195312 468.921875 274.644531 468.558594 274.390625 468.902344 C 273.898438 469.5625 273.203125 469.960938 272.503906 470.363281 C 272.628906 470.542969 272.753906 470.726562 272.875 470.910156 C 273.304688 470.476562 273.824219 470.015625 274.082031 469.449219 C 274.320312 468.929688 274.339844 468.324219 274.4375 467.769531 C 274.488281 467.46875 274.085938 467.316406 273.882812 467.496094 C 272.738281 468.519531 271.421875 469.421875 270.699219 470.816406 C 270.535156 471.132812 270.902344 471.527344 271.199219 471.25 C 272.308594 470.191406 273.046875 468.933594 273.46875 467.460938 C 273.554688 467.148438 273.1875 466.875 272.929688 467.105469 C 271.269531 468.582031 269.828125 470.304688 268.011719 471.597656 C 267.660156 471.847656 268.109375 472.332031 268.457031 472.09375 C 268.953125 471.75 269.519531 471.539062 270.023438 471.195312 C 270.34375 470.972656 269.976562 470.492188 269.648438 470.648438 C 267.324219 471.75 264.929688 472.730469 262.402344 473.269531 C 262.519531 473.4375 262.632812 473.609375 262.746094 473.777344 C 263.671875 472.449219 264.988281 471.601562 266.363281 470.804688 C 266.242188 470.621094 266.117188 470.441406 265.992188 470.257812 C 264.855469 471.289062 263.664062 472.257812 262.527344 473.289062 C 262.199219 473.585938 262.628906 474.027344 262.972656 473.785156 C 264.816406 472.503906 266.65625 471.097656 267.945312 469.230469 C 268.167969 468.90625 267.734375 468.570312 267.445312 468.796875 C 265.890625 470.03125 264.472656 471.480469 263.890625 473.425781 C 263.796875 473.742188 264.171875 474.007812 264.425781 473.785156 C 266.296875 472.140625 268.105469 470.402344 269.511719 468.332031 C 269.324219 468.207031 269.140625 468.085938 268.957031 467.964844 C 268.050781 469.640625 266.714844 471.003906 265.492188 472.449219 C 265.214844 472.78125 265.773438 473.136719 266.050781 472.820312 C 267.914062 470.664062 268.875 467.910156 270.738281 465.753906 C 270.550781 465.628906 270.367188 465.507812 270.183594 465.382812 C 269.234375 467.195312 267.945312 468.855469 267.132812 470.730469 C 266.972656 471.09375 267.507812 471.3125 267.726562 471.023438 C 269.546875 468.570312 270.421875 465.570312 272.242188 463.117188 C 272.046875 463.019531 271.847656 462.921875 271.648438 462.824219 C 270.464844 465.644531 268.527344 468.171875 267.804688 471.179688 C 267.722656 471.519531 268.207031 471.824219 268.398438 471.46875 C 269.726562 469.015625 270.28125 466.175781 272.132812 464.011719 C 271.9375 463.917969 271.738281 463.820312 271.539062 463.722656 C 270.863281 466.121094 269.671875 468.316406 268.867188 470.671875 C 268.75 471.019531 269.285156 471.308594 269.460938 470.964844 C 270.316406 469.277344 271.054688 467.515625 272.25 466.027344 C 272.050781 465.933594 271.855469 465.835938 271.65625 465.738281 C 270.269531 468.828125 267.964844 471.3125 265.777344 473.851562 C 265.53125 474.136719 266.019531 474.558594 266.277344 474.28125 C 267.476562 472.988281 268.613281 471.628906 269.625 470.179688 C 270.230469 469.308594 271.398438 467.777344 271.011719 466.621094 C 270.878906 466.222656 270.226562 466.347656 270.359375 466.753906 Z M 270.359375 466.753906 " fill-opacity="1" fill-rule="nonzero"/></g></g></g><g clip-path="url(#6c8486833a)"><g clip-path="url(#b7ca42d0d8)"><g clip-path="url(#57c44d7cfa)"><path fill="#ffd6f5" d="M 270.5625 472.285156 C 272.15625 472.558594 273.71875 472.515625 275.300781 472.214844 C 275.171875 472.125 275.039062 472.039062 274.910156 471.953125 C 274.925781 472.046875 274.945312 472.140625 274.964844 472.234375 C 275.023438 472.109375 275.082031 471.988281 275.140625 471.867188 C 274.011719 472.582031 272.632812 473.277344 271.257812 472.980469 C 271.273438 473.183594 271.285156 473.386719 271.300781 473.59375 C 272.960938 472.746094 274.703125 473.652344 276.121094 474.570312 C 276.242188 474.382812 276.367188 474.199219 276.488281 474.015625 C 275.953125 473.734375 275.324219 473.628906 274.726562 473.6875 C 274.769531 473.90625 274.8125 474.125 274.859375 474.339844 C 276.445312 474.066406 278.050781 474.457031 279.195312 475.625 C 279.253906 475.445312 279.316406 475.261719 279.375 475.078125 C 277.753906 475.355469 276.246094 474.851562 274.734375 474.316406 C 274.71875 474.53125 274.707031 474.742188 274.691406 474.957031 C 275.878906 474.71875 276.875 474.632812 278.074219 474.84375 C 278.058594 474.625 278.046875 474.40625 278.03125 474.183594 C 276.410156 474.496094 274.941406 474.433594 273.445312 473.703125 C 273.457031 473.90625 273.472656 474.113281 273.488281 474.316406 C 274.996094 473.78125 276.207031 474.210938 277.410156 475.183594 C 277.449219 474.980469 277.488281 474.78125 277.527344 474.578125 C 274.171875 474.902344 270.679688 474.003906 267.671875 472.539062 C 267.628906 472.757812 267.585938 472.972656 267.542969 473.1875 C 269.300781 473.125 271.050781 473.050781 272.78125 472.722656 C 273.144531 472.652344 273.121094 472.046875 272.738281 472.0625 C 271.109375 472.136719 269.5 472.4375 267.867188 472.464844 C 267.910156 472.675781 267.953125 472.886719 267.996094 473.097656 C 270.015625 471.878906 272.332031 471.382812 274.566406 472.316406 C 274.554688 472.109375 274.539062 471.90625 274.523438 471.703125 C 271.5625 473.445312 267.976562 473.632812 264.621094 473.707031 C 264.636719 473.925781 264.652344 474.144531 264.667969 474.363281 C 266.566406 473.707031 268.53125 473.273438 270.429688 472.617188 C 270.820312 472.480469 270.734375 471.875 270.296875 471.960938 C 270.019531 472.019531 269.738281 472.074219 269.457031 472.132812 C 269.03125 472.21875 269.171875 472.832031 269.589844 472.785156 C 272.84375 472.417969 277.800781 472.3125 279.480469 475.777344 C 279.617188 475.621094 279.75 475.46875 279.886719 475.3125 C 277.339844 474.390625 275.425781 471.441406 274.171875 469.203125 C 273.023438 467.152344 271.226562 463.289062 273.25 461.21875 C 273.0625 461.128906 272.878906 461.039062 272.695312 460.949219 C 272.734375 463.214844 270.933594 465.132812 270.207031 467.195312 C 270.121094 467.4375 270.339844 467.679688 270.585938 467.632812 C 270.960938 467.554688 271.332031 467.480469 271.707031 467.40625 C 272.128906 467.320312 271.996094 466.667969 271.574219 466.75 C 271.199219 466.828125 270.828125 466.902344 270.453125 466.976562 C 270.582031 467.121094 270.707031 467.265625 270.835938 467.414062 C 271.585938 465.289062 273.398438 463.339844 273.359375 460.992188 C 273.355469 460.726562 273.027344 460.492188 272.804688 460.722656 C 270.65625 462.917969 272.097656 466.605469 273.265625 468.917969 C 274.089844 470.554688 275.15625 472.085938 276.378906 473.449219 C 277.285156 474.457031 278.375 475.472656 279.671875 475.941406 C 279.953125 476.042969 280.199219 475.734375 280.074219 475.476562 C 278.246094 471.699219 273.019531 471.730469 269.457031 472.132812 C 269.503906 472.347656 269.546875 472.566406 269.589844 472.785156 C 269.871094 472.726562 270.148438 472.671875 270.429688 472.613281 C 270.386719 472.398438 270.339844 472.179688 270.296875 471.960938 C 268.398438 472.617188 266.433594 473.054688 264.535156 473.710938 C 264.210938 473.820312 264.164062 474.378906 264.578125 474.371094 C 268.050781 474.296875 271.757812 474.097656 274.824219 472.296875 C 275.082031 472.144531 275.054688 471.796875 274.78125 471.683594 C 272.398438 470.6875 269.855469 471.199219 267.695312 472.5 C 267.4375 472.65625 267.464844 473.136719 267.820312 473.128906 C 269.453125 473.101562 271.0625 472.800781 272.691406 472.726562 C 272.679688 472.507812 272.664062 472.289062 272.648438 472.070312 C 270.976562 472.386719 269.285156 472.464844 267.589844 472.523438 C 267.199219 472.535156 267.113281 473.003906 267.457031 473.171875 C 270.574219 474.6875 274.183594 475.566406 277.660156 475.230469 C 277.980469 475.199219 277.976562 474.789062 277.777344 474.625 C 276.363281 473.484375 274.921875 473.105469 273.183594 473.71875 C 272.875 473.828125 273.007812 474.226562 273.226562 474.332031 C 274.828125 475.113281 276.4375 475.167969 278.164062 474.835938 C 278.554688 474.761719 278.472656 474.242188 278.121094 474.179688 C 276.855469 473.953125 275.8125 474.050781 274.558594 474.304688 C 274.230469 474.371094 274.207031 474.835938 274.515625 474.945312 C 276.148438 475.523438 277.761719 476.027344 279.507812 475.730469 C 279.75 475.6875 279.867188 475.359375 279.691406 475.183594 C 278.378906 473.839844 276.550781 473.371094 274.726562 473.6875 C 274.296875 473.761719 274.4375 474.382812 274.855469 474.339844 C 275.265625 474.300781 275.757812 474.378906 276.121094 474.570312 C 276.492188 474.761719 276.855469 474.25 276.488281 474.011719 C 274.855469 472.957031 272.886719 472.035156 271 472.996094 C 270.765625 473.117188 270.746094 473.546875 271.042969 473.609375 C 272.609375 473.949219 274.132812 473.289062 275.441406 472.460938 C 275.570312 472.382812 275.648438 472.253906 275.617188 472.097656 C 275.597656 472.003906 275.578125 471.914062 275.5625 471.820312 C 275.523438 471.640625 275.347656 471.523438 275.167969 471.558594 C 273.640625 471.851562 272.144531 471.882812 270.609375 471.621094 C 270.1875 471.546875 270.144531 472.214844 270.5625 472.285156 Z M 270.5625 472.285156 " fill-opacity="1" fill-rule="nonzero"/></g></g></g><g clip-path="url(#258ffd165c)"><g clip-path="url(#55254c626b)"><g clip-path="url(#fe51be8760)"><path fill="#ffd6f5" d="M 276.34375 474.234375 C 277.578125 474.863281 278.316406 475.984375 278.617188 477.320312 C 278.761719 477.191406 278.90625 477.066406 279.050781 476.9375 C 278.0625 476.664062 277.472656 476.273438 276.835938 475.46875 C 276.671875 475.617188 276.503906 475.765625 276.339844 475.914062 C 276.472656 476.082031 276.660156 476.335938 276.898438 476.324219 C 277.074219 476.3125 277.253906 476.210938 277.257812 476.011719 C 277.261719 475.386719 276.789062 474.816406 276.632812 474.226562 C 276.519531 473.8125 275.867188 473.941406 275.976562 474.359375 C 276.113281 474.855469 276.597656 475.464844 276.589844 475.96875 C 276.710938 475.863281 276.828125 475.761719 276.945312 475.65625 C 277.042969 475.652344 276.867188 475.507812 276.835938 475.46875 C 276.566406 475.132812 276.074219 475.578125 276.339844 475.914062 C 277.046875 476.804688 277.738281 477.265625 278.835938 477.570312 C 279.070312 477.632812 279.328125 477.445312 279.269531 477.1875 C 278.933594 475.695312 278.09375 474.386719 276.710938 473.679688 C 276.332031 473.484375 275.960938 474.039062 276.34375 474.234375 Z M 276.34375 474.234375 " fill-opacity="1" fill-rule="nonzero"/></g></g></g><g clip-path="url(#e750fc08ca)"><g clip-path="url(#9a1facc063)"><g clip-path="url(#1b2187cd6b)"><path fill="#ffd6f5" d="M 273.78125 469.023438 C 276.253906 468.46875 278.046875 466.402344 279.5625 464.503906 C 281.175781 462.488281 282.515625 459.910156 284.609375 458.339844 C 284.953125 458.082031 284.507812 457.585938 284.164062 457.84375 C 282.363281 459.195312 281.128906 461.335938 279.796875 463.117188 C 278.238281 465.191406 276.328125 467.765625 273.648438 468.371094 C 273.230469 468.464844 273.363281 469.117188 273.78125 469.023438 Z M 273.78125 469.023438 " fill-opacity="1" fill-rule="nonzero"/></g></g></g><g clip-path="url(#cd46511ed7)"><g clip-path="url(#57555416cd)"><g clip-path="url(#2ebe61a18e)"><path fill="#ffd6f5" d="M 275.261719 467.257812 C 278.960938 465.164062 282.152344 462.175781 284.976562 459.03125 C 287.921875 455.753906 290.582031 452.058594 292.238281 447.953125 C 293.886719 443.875 293.507812 439.21875 292.652344 434.992188 C 292.328125 433.390625 291.894531 432.085938 290.957031 430.746094 C 290.015625 429.394531 288.867188 428.140625 287.621094 427.074219 C 287.210938 426.722656 285.289062 425.042969 284.953125 426.339844 C 284.847656 426.753906 285.476562 426.972656 285.582031 426.558594 C 285.59375 426.511719 285.59375 426.523438 285.8125 426.609375 C 286.054688 426.703125 286.269531 426.867188 286.480469 427.011719 C 287.148438 427.480469 287.742188 428.0625 288.316406 428.640625 C 289.476562 429.816406 290.609375 431.144531 291.324219 432.644531 C 291.6875 433.402344 291.828125 434.304688 292 435.125 C 292.261719 436.355469 292.429688 437.605469 292.554688 438.859375 C 292.78125 441.1875 292.84375 443.691406 292.214844 445.964844 C 291.027344 450.265625 288.25 454.140625 285.421875 457.511719 C 282.550781 460.929688 279.183594 464.164062 275.332031 466.449219 C 275.207031 466.523438 275.085938 466.59375 274.960938 466.660156 C 274.589844 466.871094 274.886719 467.46875 275.261719 467.257812 Z M 275.261719 467.257812 " fill-opacity="1" fill-rule="nonzero"/></g></g></g><g clip-path="url(#d608808916)"><g clip-path="url(#4ea9602a2f)"><g clip-path="url(#7f37f61e77)"><path fill="#ffd6f5" d="M 271.667969 539.988281 C 268.863281 543.992188 267.480469 548.714844 268.191406 553.589844 C 268.851562 558.140625 271.304688 562.246094 274.464844 565.507812 C 276.371094 567.480469 278.441406 568.835938 280.816406 570.136719 C 283.59375 571.664062 286.429688 573.085938 289.300781 574.425781 C 290.09375 574.796875 299.355469 579.179688 299.777344 577.878906 C 299.910156 577.46875 300.539062 577.683594 300.40625 578.09375 C 299.980469 579.417969 297.277344 578.355469 296.496094 578.105469 C 293.636719 577.195312 290.882812 575.914062 288.179688 574.628906 C 283.09375 572.21875 277.738281 569.847656 273.773438 565.75 C 270.523438 562.394531 268.175781 558.113281 267.5 553.46875 C 266.78125 548.535156 268.285156 543.65625 271.113281 539.621094 C 271.359375 539.269531 271.914062 539.636719 271.667969 539.988281 Z M 271.667969 539.988281 " fill-opacity="1" fill-rule="nonzero"/></g></g></g><g clip-path="url(#e1f09ef2ef)"><g clip-path="url(#79eaa1c73e)"><g clip-path="url(#33176f3356)"><path fill="#ffd6f5" d="M 299.90625 578.488281 C 298.84375 581.550781 298.371094 584.890625 299.265625 588.058594 C 299.0625 588.019531 298.863281 587.980469 298.660156 587.941406 C 301.9375 582.027344 308.6875 580.023438 314.445312 577.375 C 314.488281 577.585938 314.53125 577.796875 314.574219 578.007812 C 307.957031 576.964844 302.429688 573.152344 297.199219 569.199219 C 297.371094 569.113281 297.542969 569.027344 297.714844 568.945312 C 297.734375 572.324219 297.9375 576.070312 299.21875 579.238281 C 299.378906 579.632812 298.785156 579.9375 298.621094 579.539062 C 297.292969 576.25 297.070312 572.414062 297.050781 568.898438 C 297.050781 568.652344 297.375 568.496094 297.570312 568.644531 C 302.691406 572.519531 308.128906 576.320312 314.617188 577.339844 C 314.921875 577.390625 315.070312 577.824219 314.746094 577.972656 C 309.101562 580.566406 302.433594 582.507812 299.21875 588.308594 C 299.0625 588.585938 298.683594 588.445312 298.613281 588.191406 C 297.6875 584.917969 298.179688 581.4375 299.273438 578.273438 C 299.414062 577.867188 300.046875 578.082031 299.90625 578.488281 Z M 299.90625 578.488281 " fill-opacity="1" fill-rule="nonzero"/></g></g></g><g clip-path="url(#f1c94e9785)"><g clip-path="url(#ce69ba5673)"><g clip-path="url(#deeef3d0df)"><path fill="#ffd6f5" d="M 302.089844 574.667969 C 302.179688 575.796875 304.042969 576.722656 304.878906 577.238281 C 306.195312 578.050781 307.585938 578.753906 308.996094 579.386719 C 308.898438 579.585938 308.800781 579.78125 308.703125 579.980469 C 305.640625 578.464844 302.53125 577.035156 300.003906 574.679688 C 299.707031 574.402344 300.128906 574.015625 300.4375 574.179688 C 302.117188 575.082031 303.480469 576.421875 304.925781 577.640625 C 304.78125 577.808594 304.636719 577.976562 304.492188 578.140625 C 302.835938 576.285156 300.882812 574.726562 299.328125 572.777344 C 299.078125 572.464844 299.429688 572.113281 299.761719 572.277344 C 302.3125 573.550781 303.917969 575.949219 306.101562 577.695312 C 305.957031 577.863281 305.8125 578.027344 305.667969 578.195312 C 303.835938 575.710938 301.066406 574.132812 298.878906 571.996094 C 298.59375 571.71875 299 571.3125 299.3125 571.496094 C 301.945312 573.046875 303.914062 575.472656 306.546875 577.023438 C 306.402344 577.1875 306.257812 577.355469 306.113281 577.523438 C 304.679688 576.152344 302.886719 575.15625 301.355469 573.894531 C 301.019531 573.617188 301.339844 573.148438 301.722656 573.335938 C 304.277344 574.597656 306.234375 576.765625 308.789062 578.027344 C 308.667969 578.210938 308.542969 578.394531 308.421875 578.582031 C 306.734375 577.722656 304.972656 576.988281 303.488281 575.792969 C 303.15625 575.527344 303.488281 575 303.855469 575.238281 C 305.90625 576.566406 308.195312 577.4375 310.503906 578.207031 C 310.386719 578.386719 310.269531 578.566406 310.148438 578.746094 C 308.925781 577.261719 307.164062 576.550781 305.355469 576.050781 C 305.453125 575.851562 305.550781 575.65625 305.648438 575.457031 C 307.507812 576.644531 309.710938 577.191406 311.847656 577.644531 C 311.777344 577.855469 311.703125 578.066406 311.632812 578.277344 C 310.183594 577.769531 308.710938 577.335938 307.261719 576.828125 C 306.914062 576.707031 307.007812 576.132812 307.390625 576.179688 C 309.085938 576.394531 310.738281 576.699219 312.203125 577.625 C 312.449219 577.78125 312.367188 578.175781 312.085938 578.230469 C 309.496094 578.730469 306.84375 578.757812 304.214844 578.644531 C 304.257812 578.429688 304.300781 578.214844 304.34375 577.996094 C 304.9375 578.121094 305.542969 578.09375 306.136719 578.21875 C 306.066406 578.425781 305.996094 578.636719 305.921875 578.847656 C 303.746094 578.363281 301.75 577.335938 299.644531 576.621094 C 299.765625 576.441406 299.882812 576.265625 300 576.085938 C 300.890625 577.191406 301.949219 578 303.28125 578.503906 C 303.183594 578.703125 303.089844 578.898438 302.992188 579.097656 C 301.828125 578.132812 300.316406 577.832031 298.917969 577.351562 C 299.054688 577.195312 299.1875 577.042969 299.324219 576.886719 C 299.554688 577.246094 299.753906 577.636719 300.023438 577.972656 C 300.390625 578.429688 301.085938 578.628906 301.605469 578.84375 C 301.9375 578.980469 301.867188 579.539062 301.472656 579.492188 C 300.550781 579.375 299.660156 579.25 298.847656 578.769531 C 298.96875 578.585938 299.089844 578.398438 299.214844 578.214844 C 300.398438 578.945312 301.675781 579.042969 303.03125 579.101562 C 302.941406 579.289062 302.851562 579.472656 302.757812 579.65625 C 301.183594 577.875 299.457031 576.207031 298.386719 574.050781 C 298.222656 573.71875 298.691406 573.382812 298.933594 573.679688 C 299.4375 574.296875 300.011719 574.839844 300.664062 575.300781 C 300.519531 575.464844 300.375 575.632812 300.230469 575.796875 C 299.480469 574.804688 298.917969 573.71875 298.382812 572.59375 C 298.195312 572.203125 298.757812 571.929688 298.976562 572.292969 C 299.789062 573.644531 299.859375 575.128906 299.863281 576.667969 C 299.863281 576.996094 299.367188 577.085938 299.234375 576.792969 C 298.703125 575.625 298.441406 574.382812 298.1875 573.128906 C 298.40625 573.113281 298.628906 573.097656 298.847656 573.085938 C 298.863281 574.082031 299 575.082031 299.511719 575.957031 C 300.207031 577.148438 301.527344 576.683594 302.445312 576.050781 C 302.609375 575.9375 302.867188 575.933594 302.960938 576.148438 C 303.632812 577.636719 306.179688 577.835938 307.585938 577.585938 C 308.007812 577.511719 308.140625 578.164062 307.71875 578.238281 C 306.023438 578.539062 303.175781 578.242188 302.367188 576.449219 C 302.542969 576.484375 302.714844 576.515625 302.886719 576.546875 C 301.859375 577.257812 300.585938 577.785156 299.484375 576.925781 C 298.375 576.058594 298.203125 574.332031 298.183594 573.039062 C 298.175781 572.65625 298.769531 572.636719 298.839844 572.996094 C 299.082031 574.1875 299.320312 575.375 299.828125 576.492188 C 299.617188 576.535156 299.40625 576.578125 299.199219 576.621094 C 299.191406 575.191406 299.136719 573.851562 298.382812 572.59375 C 298.582031 572.496094 298.78125 572.394531 298.976562 572.292969 C 299.488281 573.363281 300.011719 574.40625 300.730469 575.355469 C 300.945312 575.644531 300.621094 576.082031 300.296875 575.855469 C 299.597656 575.363281 298.972656 574.785156 298.4375 574.121094 C 298.617188 574 298.800781 573.875 298.980469 573.75 C 300.027344 575.851562 301.722656 577.472656 303.257812 579.214844 C 303.453125 579.4375 303.277344 579.78125 302.984375 579.765625 C 301.507812 579.703125 300.132812 579.5625 298.847656 578.769531 C 298.480469 578.542969 298.847656 577.996094 299.214844 578.214844 C 299.921875 578.632812 300.71875 578.726562 301.519531 578.824219 C 301.476562 579.042969 301.433594 579.257812 301.386719 579.472656 C 300.824219 579.238281 300.167969 579.019531 299.710938 578.597656 C 299.289062 578.210938 299.035156 577.664062 298.730469 577.1875 C 298.566406 576.929688 298.878906 576.632812 299.136719 576.71875 C 300.585938 577.21875 302.148438 577.539062 303.359375 578.539062 C 303.632812 578.769531 303.445312 579.277344 303.066406 579.132812 C 301.632812 578.589844 300.464844 577.722656 299.503906 576.527344 C 299.300781 576.273438 299.535156 575.878906 299.863281 575.992188 C 301.964844 576.707031 303.960938 577.730469 306.136719 578.214844 C 306.558594 578.3125 306.335938 578.933594 305.921875 578.847656 C 305.328125 578.726562 304.726562 578.75 304.128906 578.628906 C 303.75 578.546875 303.898438 577.964844 304.261719 577.980469 C 306.832031 578.089844 309.421875 578.0625 311.957031 577.574219 C 311.914062 577.777344 311.875 577.980469 311.835938 578.179688 C 310.46875 577.316406 308.925781 577.042969 307.347656 576.84375 C 307.390625 576.628906 307.433594 576.414062 307.476562 576.199219 C 308.925781 576.703125 310.402344 577.136719 311.847656 577.644531 C 312.265625 577.789062 312.042969 578.359375 311.632812 578.273438 C 309.4375 577.808594 307.191406 577.230469 305.28125 576.011719 C 304.949219 575.800781 305.21875 575.320312 305.570312 575.417969 C 307.484375 575.949219 309.355469 576.734375 310.648438 578.300781 C 310.855469 578.554688 310.617188 578.945312 310.289062 578.835938 C 307.929688 578.050781 305.585938 577.152344 303.488281 575.789062 C 303.609375 575.605469 303.734375 575.421875 303.855469 575.234375 C 305.339844 576.429688 307.101562 577.167969 308.789062 578.023438 C 309.175781 578.21875 308.800781 578.765625 308.421875 578.578125 C 305.867188 577.320312 303.910156 575.152344 301.355469 573.890625 C 301.476562 573.707031 301.601562 573.519531 301.722656 573.335938 C 303.300781 574.636719 305.132812 575.667969 306.613281 577.078125 C 306.898438 577.351562 306.492188 577.761719 306.179688 577.578125 C 303.546875 576.023438 301.574219 573.601562 298.941406 572.050781 C 299.085938 571.882812 299.230469 571.714844 299.375 571.550781 C 301.5625 573.6875 304.332031 575.261719 306.164062 577.75 C 306.375 578.035156 306.050781 578.503906 305.734375 578.25 C 303.554688 576.503906 301.9375 574.101562 299.394531 572.832031 C 299.539062 572.664062 299.679688 572.5 299.824219 572.332031 C 301.382812 574.28125 303.335938 575.839844 304.988281 577.695312 C 305.234375 577.972656 304.851562 578.445312 304.558594 578.195312 C 303.109375 576.976562 301.75 575.636719 300.070312 574.734375 C 300.214844 574.566406 300.359375 574.402344 300.503906 574.234375 C 302.980469 576.542969 306.070312 577.9375 309.074219 579.421875 C 309.410156 579.589844 309.125 580.171875 308.78125 580.015625 C 307.171875 579.292969 305.59375 578.480469 304.101562 577.535156 C 303.207031 576.972656 301.53125 576.015625 301.441406 574.800781 C 301.40625 574.378906 302.058594 574.242188 302.089844 574.667969 Z M 302.089844 574.667969 " fill-opacity="1" fill-rule="nonzero"/></g></g></g><g clip-path="url(#d0720be6bd)"><g clip-path="url(#a175893ff3)"><g clip-path="url(#bea9df044f)"><path fill="#ffd6f5" d="M 304.054688 579.84375 C 302.695312 580.710938 301.238281 581.28125 299.660156 581.617188 C 299.75 581.488281 299.835938 581.355469 299.921875 581.226562 C 299.941406 581.320312 299.960938 581.410156 299.980469 581.503906 C 299.878906 581.417969 299.777344 581.328125 299.675781 581.238281 C 300.992188 581.457031 302.535156 581.558594 303.683594 580.753906 C 303.75 580.945312 303.816406 581.140625 303.882812 581.335938 C 302.027344 581.199219 300.773438 582.710938 299.824219 584.109375 C 299.636719 583.984375 299.453125 583.863281 299.269531 583.738281 C 299.652344 583.273438 300.191406 582.929688 300.765625 582.753906 C 300.808594 582.972656 300.855469 583.1875 300.898438 583.40625 C 299.328125 583.769531 298 584.753906 297.402344 586.277344 C 297.273438 586.132812 297.148438 585.988281 297.019531 585.84375 C 298.625 585.464844 299.816406 584.417969 301.003906 583.335938 C 301.097656 583.527344 301.195312 583.71875 301.289062 583.910156 C 300.101562 584.152344 299.152344 584.457031 298.128906 585.121094 C 298.058594 584.914062 297.984375 584.703125 297.914062 584.496094 C 299.527344 584.152344 300.855469 583.523438 301.953125 582.269531 C 302.019531 582.460938 302.085938 582.65625 302.152344 582.851562 C 300.554688 582.945312 299.605469 583.808594 298.875 585.171875 C 298.757812 585.003906 298.644531 584.832031 298.53125 584.664062 C 301.75 583.65625 304.617188 581.46875 306.816406 578.953125 C 306.941406 579.136719 307.066406 579.316406 307.191406 579.5 C 305.546875 580.125 303.902344 580.738281 302.179688 581.109375 C 301.820312 581.183594 301.605469 580.617188 301.964844 580.484375 C 303.492188 579.917969 305.09375 579.570312 306.609375 578.960938 C 306.652344 579.171875 306.695312 579.382812 306.734375 579.589844 C 304.402344 579.253906 302.074219 579.699219 300.378906 581.425781 C 300.3125 581.234375 300.246094 581.039062 300.179688 580.84375 C 303.585938 581.296875 306.960938 580.078125 310.082031 578.839844 C 310.152344 579.050781 310.226562 579.257812 310.296875 579.464844 C 308.292969 579.597656 306.3125 579.960938 304.304688 580.09375 C 303.890625 580.121094 303.738281 579.53125 304.175781 579.441406 C 304.453125 579.386719 304.734375 579.328125 305.015625 579.273438 C 305.441406 579.1875 305.550781 579.804688 305.144531 579.925781 C 302.007812 580.851562 297.398438 582.683594 297.195312 586.527344 C 297.011719 586.4375 296.828125 586.347656 296.640625 586.257812 C 298.628906 584.417969 299.246094 580.957031 299.53125 578.40625 C 299.792969 576.070312 299.945312 571.8125 297.28125 570.691406 C 297.414062 570.535156 297.550781 570.378906 297.683594 570.226562 C 298.53125 572.328125 300.933594 573.394531 302.40625 575.015625 C 302.578125 575.203125 302.46875 575.515625 302.222656 575.5625 C 301.851562 575.640625 301.476562 575.714844 301.105469 575.789062 C 300.683594 575.875 300.550781 575.222656 300.972656 575.136719 C 301.347656 575.0625 301.71875 574.984375 302.09375 574.910156 C 302.03125 575.09375 301.96875 575.277344 301.910156 575.457031 C 300.394531 573.796875 297.964844 572.703125 297.089844 570.527344 C 296.992188 570.28125 297.199219 569.9375 297.496094 570.058594 C 300.328125 571.25 300.429688 575.203125 300.257812 577.792969 C 300.132812 579.617188 299.746094 581.445312 299.148438 583.175781 C 298.707031 584.457031 298.097656 585.816406 297.085938 586.753906 C 296.867188 586.957031 296.515625 586.765625 296.53125 586.480469 C 296.75 582.289062 301.574219 580.285156 305.015625 579.273438 C 305.058594 579.488281 305.101562 579.707031 305.144531 579.925781 C 304.867188 579.980469 304.585938 580.039062 304.304688 580.09375 C 304.261719 579.875 304.21875 579.660156 304.175781 579.441406 C 306.179688 579.308594 308.160156 578.945312 310.164062 578.8125 C 310.503906 578.789062 310.765625 579.285156 310.382812 579.4375 C 307.152344 580.71875 303.660156 581.976562 300.132812 581.507812 C 299.839844 581.472656 299.726562 581.140625 299.933594 580.929688 C 301.746094 579.085938 304.285156 578.566406 306.78125 578.925781 C 307.078125 578.96875 307.242188 579.421875 306.910156 579.554688 C 305.394531 580.164062 303.796875 580.511719 302.265625 581.078125 C 302.191406 580.871094 302.121094 580.664062 302.046875 580.453125 C 303.714844 580.097656 305.300781 579.511719 306.886719 578.90625 C 307.253906 578.765625 307.511719 579.164062 307.261719 579.449219 C 304.980469 582.0625 301.996094 584.273438 298.664062 585.316406 C 298.355469 585.410156 298.199219 585.03125 298.320312 584.804688 C 299.179688 583.199219 300.355469 582.292969 302.199219 582.183594 C 302.523438 582.164062 302.558594 582.582031 302.398438 582.765625 C 301.226562 584.105469 299.765625 584.78125 298.046875 585.148438 C 297.65625 585.230469 297.53125 584.71875 297.828125 584.523438 C 298.90625 583.828125 299.90625 583.511719 301.160156 583.257812 C 301.488281 583.191406 301.691406 583.609375 301.445312 583.832031 C 300.167969 585 298.878906 586.089844 297.152344 586.496094 C 296.914062 586.550781 296.679688 586.292969 296.773438 586.058594 C 297.457031 584.316406 298.960938 583.171875 300.765625 582.753906 C 301.191406 582.65625 301.300781 583.28125 300.898438 583.40625 C 300.507812 583.527344 300.082031 583.792969 299.824219 584.105469 C 299.554688 584.429688 299.023438 584.101562 299.269531 583.738281 C 300.363281 582.128906 301.820312 580.515625 303.929688 580.667969 C 304.195312 580.6875 304.375 581.074219 304.128906 581.25 C 302.816406 582.171875 301.15625 582.15625 299.628906 581.902344 C 299.480469 581.878906 299.359375 581.792969 299.324219 581.636719 C 299.308594 581.542969 299.289062 581.449219 299.269531 581.355469 C 299.234375 581.175781 299.351562 581 299.53125 580.964844 C 301.050781 580.636719 302.441406 580.085938 303.753906 579.246094 C 304.117188 579.015625 304.414062 579.613281 304.054688 579.84375 Z M 304.054688 579.84375 " fill-opacity="1" fill-rule="nonzero"/></g></g></g><g clip-path="url(#f92caeefdb)"><g clip-path="url(#bfb4986798)"><g clip-path="url(#6432c67ee5)"><path fill="#ffd6f5" d="M 299.488281 583.882812 C 298.597656 584.945312 298.351562 586.265625 298.59375 587.613281 C 298.410156 587.550781 298.226562 587.492188 298.042969 587.429688 C 298.847656 586.792969 299.238281 586.203125 299.511719 585.214844 C 299.722656 585.285156 299.933594 585.359375 300.144531 585.429688 C 300.085938 585.636719 300.011719 585.945312 299.785156 586.027344 C 299.625 586.082031 299.417969 586.0625 299.339844 585.878906 C 299.089844 585.304688 299.300781 584.59375 299.21875 583.988281 C 299.160156 583.566406 299.8125 583.429688 299.871094 583.859375 C 299.941406 584.367188 299.734375 585.117188 299.933594 585.578125 C 299.785156 585.53125 299.632812 585.480469 299.484375 585.429688 C 299.394531 585.464844 299.5 585.261719 299.511719 585.214844 C 299.628906 584.800781 300.257812 585.019531 300.144531 585.429688 C 299.839844 586.527344 299.378906 587.21875 298.488281 587.925781 C 298.296875 588.078125 297.988281 588.003906 297.941406 587.746094 C 297.667969 586.242188 297.933594 584.707031 298.929688 583.515625 C 299.203125 583.191406 299.761719 583.554688 299.488281 583.882812 Z M 299.488281 583.882812 " fill-opacity="1" fill-rule="nonzero"/></g></g></g><g clip-path="url(#21e6301982)"><g clip-path="url(#0b0a12b0c1)"><g clip-path="url(#30633d4421)"><path fill="#ffd6f5" d="M 299.820312 578.089844 C 297.328125 578.539062 294.871094 577.332031 292.738281 576.171875 C 290.46875 574.941406 288.234375 573.089844 285.691406 572.453125 C 285.273438 572.351562 285.492188 571.71875 285.90625 571.824219 C 288.097656 572.371094 290.066406 573.863281 291.984375 574.984375 C 294.226562 576.292969 296.984375 577.921875 299.691406 577.4375 C 300.113281 577.359375 300.246094 578.015625 299.820312 578.089844 Z M 299.820312 578.089844 " fill-opacity="1" fill-rule="nonzero"/></g></g></g><g clip-path="url(#4e667bc3c5)"><g clip-path="url(#d04b625d93)"><g clip-path="url(#fdede140ff)"><path fill="#ffd6f5" d="M 297.769531 577.035156 C 293.550781 576.546875 289.449219 575.035156 285.625 573.234375 C 281.636719 571.359375 277.746094 568.992188 274.625 565.851562 C 271.523438 562.730469 270.058594 558.296875 269.203125 554.070312 C 268.878906 552.46875 268.773438 551.097656 269.117188 549.496094 C 269.457031 547.890625 270.027344 546.289062 270.761719 544.816406 C 271.003906 544.335938 272.121094 542.039062 272.9375 543.105469 C 273.195312 543.445312 272.699219 543.890625 272.4375 543.550781 C 272.410156 543.511719 272.417969 543.523438 272.246094 543.6875 C 272.0625 543.867188 271.925781 544.101562 271.789062 544.320312 C 271.355469 545.011719 271.035156 545.777344 270.730469 546.53125 C 270.121094 548.066406 269.589844 549.730469 269.515625 551.390625 C 269.476562 552.230469 269.699219 553.117188 269.859375 553.9375 C 270.097656 555.175781 270.425781 556.394531 270.800781 557.59375 C 271.496094 559.828125 272.410156 562.160156 273.875 564.011719 C 276.640625 567.511719 280.703125 570.003906 284.625 572.007812 C 288.59375 574.039062 292.957031 575.710938 297.394531 576.320312 C 297.535156 576.339844 297.675781 576.355469 297.816406 576.371094 C 298.242188 576.421875 298.199219 577.085938 297.769531 577.035156 Z M 297.769531 577.035156 " fill-opacity="1" fill-rule="nonzero"/></g></g></g><g clip-path="url(#ec24cfe63e)"><path fill="#83c5be" d="M 49.285156 197.816406 L 49.285156 175.976562 L 68.199219 186.894531 Z M 50.457031 178 L 50.457031 195.792969 L 65.863281 186.894531 Z M 50.457031 178 " fill-opacity="1" fill-rule="nonzero"/></g><g clip-path="url(#24733bc83b)"><path fill="#83c5be" d="M 58.449219 186.894531 L 41.292969 176.988281 L 41.292969 196.804688 Z M 58.449219 186.894531 " fill-opacity="1" fill-rule="nonzero"/></g><g clip-path="url(#4242917aaa)"><path fill="#83c5be" d="M 49.285156 308.640625 L 49.285156 286.800781 L 68.199219 297.71875 Z M 50.457031 288.824219 L 50.457031 306.617188 L 65.863281 297.71875 Z M 50.457031 288.824219 " fill-opacity="1" fill-rule="nonzero"/></g><g clip-path="url(#5a25ec9268)"><path fill="#83c5be" d="M 58.449219 297.71875 L 41.292969 287.8125 L 41.292969 307.628906 Z M 58.449219 297.71875 " fill-opacity="1" fill-rule="nonzero"/></g><g clip-path="url(#79edee63c0)"><path fill="#83c5be" d="M 49.285156 408.734375 L 49.285156 386.894531 L 68.199219 397.816406 Z M 50.457031 388.917969 L 50.457031 406.710938 L 65.863281 397.816406 Z M 50.457031 388.917969 " fill-opacity="1" fill-rule="nonzero"/></g><g clip-path="url(#a6acab4721)"><path fill="#83c5be" d="M 58.449219 397.816406 L 41.292969 387.90625 L 41.292969 407.722656 Z M 58.449219 397.816406 " fill-opacity="1" fill-rule="nonzero"/></g><g clip-path="url(#d45981aab8)"><path fill="#83c5be" d="M 49.285156 522.527344 L 49.285156 500.691406 L 68.199219 511.609375 Z M 50.457031 502.714844 L 50.457031 520.503906 L 65.863281 511.609375 Z M 50.457031 502.714844 " fill-opacity="1" fill-rule="nonzero"/></g><g clip-path="url(#6f979f4535)"><path fill="#83c5be" d="M 58.449219 511.609375 L 41.292969 501.703125 L 41.292969 521.515625 Z M 58.449219 511.609375 " fill-opacity="1" fill-rule="nonzero"/></g><g clip-path="url(#2f0d5d848d)"><path fill="#83c5be" d="M 49.285156 620.019531 L 49.285156 598.183594 L 68.199219 609.101562 Z M 50.457031 600.207031 L 50.457031 617.996094 L 65.863281 609.101562 Z M 50.457031 600.207031 " fill-opacity="1" fill-rule="nonzero"/></g><g clip-path="url(#78ef17f75d)"><path fill="#83c5be" d="M 58.449219 609.101562 L 41.292969 599.195312 L 41.292969 619.007812 Z M 58.449219 609.101562 " fill-opacity="1" fill-rule="nonzero"/></g></svg>