<svg xmlns="http://www.w3.org/2000/svg" xmlns:xlink="http://www.w3.org/1999/xlink" width="816" zoomAndPan="magnify" viewBox="0 0 612 791.999994" height="1056" preserveAspectRatio="xMidYMid meet" version="1.0"><defs><g/><clipPath id="7b44e67dce"><path d="M 34.964844 203.902344 L 113.199219 203.902344 L 113.199219 282.136719 L 34.964844 282.136719 Z M 34.964844 203.902344 " clip-rule="nonzero"/></clipPath><clipPath id="1b2d4a578d"><path d="M 74.082031 203.902344 L 86.527344 230.570312 L 113.199219 243.019531 L 86.527344 255.464844 L 74.082031 282.136719 L 61.632812 255.464844 L 34.964844 243.019531 L 61.632812 230.570312 Z M 74.082031 203.902344 " clip-rule="nonzero"/></clipPath><clipPath id="72e684a62f"><path d="M 36.78125 312.234375 L 115.015625 312.234375 L 115.015625 390.46875 L 36.78125 390.46875 Z M 36.78125 312.234375 " clip-rule="nonzero"/></clipPath><clipPath id="3aca926707"><path d="M 75.898438 312.234375 L 88.34375 338.90625 L 115.015625 351.351562 L 88.34375 363.800781 L 75.898438 390.46875 L 63.453125 363.800781 L 36.78125 351.351562 L 63.453125 338.90625 Z M 75.898438 312.234375 " clip-rule="nonzero"/></clipPath><clipPath id="ea49e54ef9"><path d="M 34.964844 420.46875 L 113.199219 420.46875 L 113.199219 498.703125 L 34.964844 498.703125 Z M 34.964844 420.46875 " clip-rule="nonzero"/></clipPath><clipPath id="a87c2a3a63"><path d="M 74.082031 420.46875 L 86.527344 447.140625 L 113.199219 459.585938 L 86.527344 472.035156 L 74.082031 498.703125 L 61.632812 472.035156 L 34.964844 459.585938 L 61.632812 447.140625 Z M 74.082031 420.46875 " clip-rule="nonzero"/></clipPath></defs><g fill="#051433" fill-opacity="1"><g transform="translate(41.289065, 70.200017)"><g><path d="M 19.6875 0 L 13.6875 0 L 7.34375 -9.609375 L 7.34375 0 L 1.34375 0 L 1.34375 -19.109375 L 7.34375 -19.109375 L 13.6875 -9.34375 L 13.6875 -19.109375 L 19.6875 -19.109375 Z M 19.6875 0 "/></g></g></g><g fill="#051433" fill-opacity="1"><g transform="translate(62.31288, 70.200017)"><g><path d="M 16.09375 -7.75 C 16.09375 -7.332031 16.066406 -6.9375 16.015625 -6.5625 L 6.375 -6.5625 C 6.457031 -5.25 7.003906 -4.59375 8.015625 -4.59375 C 8.660156 -4.59375 9.128906 -4.890625 9.421875 -5.484375 L 15.765625 -5.484375 C 15.546875 -4.398438 15.085938 -3.429688 14.390625 -2.578125 C 13.703125 -1.722656 12.832031 -1.046875 11.78125 -0.546875 C 10.726562 -0.0546875 9.570312 0.1875 8.3125 0.1875 C 6.800781 0.1875 5.457031 -0.125 4.28125 -0.75 C 3.101562 -1.382812 2.1875 -2.289062 1.53125 -3.46875 C 0.875 -4.644531 0.546875 -6.023438 0.546875 -7.609375 C 0.546875 -9.191406 0.875 -10.570312 1.53125 -11.75 C 2.1875 -12.9375 3.101562 -13.84375 4.28125 -14.46875 C 5.457031 -15.101562 6.800781 -15.421875 8.3125 -15.421875 C 9.820312 -15.421875 11.164062 -15.109375 12.34375 -14.484375 C 13.53125 -13.859375 14.453125 -12.96875 15.109375 -11.8125 C 15.765625 -10.664062 16.09375 -9.3125 16.09375 -7.75 Z M 10.015625 -9.1875 C 10.015625 -9.6875 9.851562 -10.066406 9.53125 -10.328125 C 9.207031 -10.585938 8.800781 -10.71875 8.3125 -10.71875 C 7.25 -10.71875 6.628906 -10.207031 6.453125 -9.1875 Z M 10.015625 -9.1875 "/></g></g></g><g fill="#051433" fill-opacity="1"><g transform="translate(78.93762, 70.200017)"><g><path d="M 11.34375 0 L 8.78125 -3.421875 L 6.859375 0 L 0.265625 0 L 5.375 -8.015625 L 0 -15.234375 L 6.703125 -15.234375 L 9.265625 -11.765625 L 11.203125 -15.234375 L 17.796875 -15.234375 L 12.53125 -7.390625 L 18.03125 0 Z M 11.34375 0 "/></g></g></g><g fill="#051433" fill-opacity="1"><g transform="translate(96.965737, 70.200017)"><g><path d="M 10.828125 -5.109375 L 10.828125 0 L 8.5625 0 C 4.382812 0 2.296875 -2.078125 2.296875 -6.234375 L 2.296875 -10.234375 L 0.40625 -10.234375 L 0.40625 -15.234375 L 2.296875 -15.234375 L 2.296875 -18.90625 L 8.28125 -18.90625 L 8.28125 -15.234375 L 10.765625 -15.234375 L 10.765625 -10.234375 L 8.28125 -10.234375 L 8.28125 -6.125 C 8.28125 -5.769531 8.363281 -5.507812 8.53125 -5.34375 C 8.707031 -5.1875 8.992188 -5.109375 9.390625 -5.109375 Z M 10.828125 -5.109375 "/></g></g></g><g fill="#051433" fill-opacity="1"><g transform="translate(108.732597, 70.200017)"><g/></g></g><g fill="#051433" fill-opacity="1"><g transform="translate(113.320591, 70.200017)"><g><path d="M 8.828125 0.1875 C 6.546875 0.1875 4.660156 -0.347656 3.171875 -1.421875 C 1.679688 -2.492188 0.875 -4.0625 0.75 -6.125 L 7.125 -6.125 C 7.21875 -5.03125 7.707031 -4.484375 8.59375 -4.484375 C 8.914062 -4.484375 9.1875 -4.554688 9.40625 -4.703125 C 9.632812 -4.859375 9.75 -5.097656 9.75 -5.421875 C 9.75 -5.878906 9.503906 -6.242188 9.015625 -6.515625 C 8.523438 -6.796875 7.769531 -7.117188 6.75 -7.484375 C 5.519531 -7.910156 4.503906 -8.332031 3.703125 -8.75 C 2.910156 -9.164062 2.222656 -9.769531 1.640625 -10.5625 C 1.066406 -11.351562 0.789062 -12.367188 0.8125 -13.609375 C 0.8125 -14.847656 1.128906 -15.90625 1.765625 -16.78125 C 2.410156 -17.65625 3.285156 -18.316406 4.390625 -18.765625 C 5.492188 -19.210938 6.738281 -19.4375 8.125 -19.4375 C 10.46875 -19.4375 12.328125 -18.894531 13.703125 -17.8125 C 15.078125 -16.738281 15.800781 -15.21875 15.875 -13.25 L 9.421875 -13.25 C 9.398438 -13.789062 9.265625 -14.175781 9.015625 -14.40625 C 8.765625 -14.644531 8.457031 -14.765625 8.09375 -14.765625 C 7.84375 -14.765625 7.632812 -14.675781 7.46875 -14.5 C 7.3125 -14.332031 7.234375 -14.097656 7.234375 -13.796875 C 7.234375 -13.367188 7.472656 -13.015625 7.953125 -12.734375 C 8.429688 -12.453125 9.191406 -12.113281 10.234375 -11.71875 C 11.441406 -11.269531 12.4375 -10.835938 13.21875 -10.421875 C 14 -10.003906 14.675781 -9.425781 15.25 -8.6875 C 15.832031 -7.957031 16.125 -7.03125 16.125 -5.90625 C 16.125 -4.738281 15.832031 -3.691406 15.25 -2.765625 C 14.675781 -1.835938 13.835938 -1.113281 12.734375 -0.59375 C 11.640625 -0.0703125 10.335938 0.1875 8.828125 0.1875 Z M 8.828125 0.1875 "/></g></g></g><g fill="#051433" fill-opacity="1"><g transform="translate(130.18822, 70.200017)"><g><path d="M 10.828125 -5.109375 L 10.828125 0 L 8.5625 0 C 4.382812 0 2.296875 -2.078125 2.296875 -6.234375 L 2.296875 -10.234375 L 0.40625 -10.234375 L 0.40625 -15.234375 L 2.296875 -15.234375 L 2.296875 -18.90625 L 8.28125 -18.90625 L 8.28125 -15.234375 L 10.765625 -15.234375 L 10.765625 -10.234375 L 8.28125 -10.234375 L 8.28125 -6.125 C 8.28125 -5.769531 8.363281 -5.507812 8.53125 -5.34375 C 8.707031 -5.1875 8.992188 -5.109375 9.390625 -5.109375 Z M 10.828125 -5.109375 "/></g></g></g><g fill="#051433" fill-opacity="1"><g transform="translate(141.95508, 70.200017)"><g><path d="M 16.09375 -7.75 C 16.09375 -7.332031 16.066406 -6.9375 16.015625 -6.5625 L 6.375 -6.5625 C 6.457031 -5.25 7.003906 -4.59375 8.015625 -4.59375 C 8.660156 -4.59375 9.128906 -4.890625 9.421875 -5.484375 L 15.765625 -5.484375 C 15.546875 -4.398438 15.085938 -3.429688 14.390625 -2.578125 C 13.703125 -1.722656 12.832031 -1.046875 11.78125 -0.546875 C 10.726562 -0.0546875 9.570312 0.1875 8.3125 0.1875 C 6.800781 0.1875 5.457031 -0.125 4.28125 -0.75 C 3.101562 -1.382812 2.1875 -2.289062 1.53125 -3.46875 C 0.875 -4.644531 0.546875 -6.023438 0.546875 -7.609375 C 0.546875 -9.191406 0.875 -10.570312 1.53125 -11.75 C 2.1875 -12.9375 3.101562 -13.84375 4.28125 -14.46875 C 5.457031 -15.101562 6.800781 -15.421875 8.3125 -15.421875 C 9.820312 -15.421875 11.164062 -15.109375 12.34375 -14.484375 C 13.53125 -13.859375 14.453125 -12.96875 15.109375 -11.8125 C 15.765625 -10.664062 16.09375 -9.3125 16.09375 -7.75 Z M 10.015625 -9.1875 C 10.015625 -9.6875 9.851562 -10.066406 9.53125 -10.328125 C 9.207031 -10.585938 8.800781 -10.71875 8.3125 -10.71875 C 7.25 -10.71875 6.628906 -10.207031 6.453125 -9.1875 Z M 10.015625 -9.1875 "/></g></g></g><g fill="#051433" fill-opacity="1"><g transform="translate(158.57982, 70.200017)"><g><path d="M 7.34375 -13.15625 C 7.71875 -13.851562 8.257812 -14.40625 8.96875 -14.8125 C 9.6875 -15.21875 10.539062 -15.421875 11.53125 -15.421875 C 12.71875 -15.421875 13.785156 -15.109375 14.734375 -14.484375 C 15.691406 -13.859375 16.441406 -12.957031 16.984375 -11.78125 C 17.535156 -10.601562 17.8125 -9.210938 17.8125 -7.609375 C 17.8125 -6.015625 17.535156 -4.625 16.984375 -3.4375 C 16.441406 -2.257812 15.691406 -1.359375 14.734375 -0.734375 C 13.785156 -0.117188 12.71875 0.1875 11.53125 0.1875 C 10.539062 0.1875 9.6875 -0.015625 8.96875 -0.421875 C 8.257812 -0.828125 7.71875 -1.378906 7.34375 -2.078125 L 7.34375 7.296875 L 1.34375 7.296875 L 1.34375 -15.234375 L 7.34375 -15.234375 Z M 11.75 -7.609375 C 11.75 -8.421875 11.539062 -9.050781 11.125 -9.5 C 10.707031 -9.945312 10.175781 -10.171875 9.53125 -10.171875 C 8.882812 -10.171875 8.351562 -9.945312 7.9375 -9.5 C 7.519531 -9.050781 7.3125 -8.421875 7.3125 -7.609375 C 7.3125 -6.804688 7.519531 -6.175781 7.9375 -5.71875 C 8.351562 -5.269531 8.882812 -5.046875 9.53125 -5.046875 C 10.175781 -5.046875 10.707031 -5.269531 11.125 -5.71875 C 11.539062 -6.175781 11.75 -6.804688 11.75 -7.609375 Z M 11.75 -7.609375 "/></g></g></g><g fill="#051433" fill-opacity="1"><g transform="translate(176.931805, 70.200017)"><g><path d="M 8.125 0.1875 C 6.6875 0.1875 5.410156 -0.046875 4.296875 -0.515625 C 3.191406 -0.984375 2.316406 -1.628906 1.671875 -2.453125 C 1.023438 -3.285156 0.65625 -4.222656 0.5625 -5.265625 L 6.3125 -5.265625 C 6.382812 -4.816406 6.578125 -4.484375 6.890625 -4.265625 C 7.210938 -4.046875 7.613281 -3.9375 8.09375 -3.9375 C 8.40625 -3.9375 8.648438 -4.003906 8.828125 -4.140625 C 9.003906 -4.273438 9.09375 -4.441406 9.09375 -4.640625 C 9.09375 -4.984375 8.90625 -5.226562 8.53125 -5.375 C 8.15625 -5.519531 7.515625 -5.679688 6.609375 -5.859375 C 5.515625 -6.078125 4.609375 -6.3125 3.890625 -6.5625 C 3.179688 -6.8125 2.5625 -7.242188 2.03125 -7.859375 C 1.5 -8.472656 1.234375 -9.316406 1.234375 -10.390625 C 1.234375 -11.328125 1.484375 -12.175781 1.984375 -12.9375 C 2.484375 -13.707031 3.21875 -14.3125 4.1875 -14.75 C 5.15625 -15.195312 6.332031 -15.421875 7.71875 -15.421875 C 9.769531 -15.421875 11.375 -14.914062 12.53125 -13.90625 C 13.695312 -12.894531 14.398438 -11.582031 14.640625 -9.96875 L 9.3125 -9.96875 C 9.226562 -10.375 9.039062 -10.691406 8.75 -10.921875 C 8.457031 -11.148438 8.070312 -11.265625 7.59375 -11.265625 C 7.28125 -11.265625 7.039062 -11.203125 6.875 -11.078125 C 6.71875 -10.960938 6.640625 -10.789062 6.640625 -10.5625 C 6.640625 -10.25 6.828125 -10.015625 7.203125 -9.859375 C 7.585938 -9.710938 8.191406 -9.554688 9.015625 -9.390625 C 10.117188 -9.179688 11.046875 -8.941406 11.796875 -8.671875 C 12.554688 -8.398438 13.210938 -7.9375 13.765625 -7.28125 C 14.328125 -6.625 14.609375 -5.71875 14.609375 -4.5625 C 14.609375 -3.664062 14.347656 -2.851562 13.828125 -2.125 C 13.304688 -1.40625 12.550781 -0.835938 11.5625 -0.421875 C 10.582031 -0.015625 9.4375 0.1875 8.125 0.1875 Z M 8.125 0.1875 "/></g></g></g><g clip-path="url(#7b44e67dce)"><g clip-path="url(#1b2d4a578d)"><path fill="#5ce1e6" d="M 34.964844 203.902344 L 113.199219 203.902344 L 113.199219 282.136719 L 34.964844 282.136719 Z M 34.964844 203.902344 " fill-opacity="1" fill-rule="nonzero"/></g></g><g clip-path="url(#72e684a62f)"><g clip-path="url(#3aca926707)"><path fill="#051433" d="M 36.78125 312.234375 L 115.015625 312.234375 L 115.015625 390.46875 L 36.78125 390.46875 Z M 36.78125 312.234375 " fill-opacity="1" fill-rule="nonzero"/></g></g><g clip-path="url(#ea49e54ef9)"><g clip-path="url(#a87c2a3a63)"><path fill="#fcfabe" d="M 34.964844 420.46875 L 113.199219 420.46875 L 113.199219 498.703125 L 34.964844 498.703125 Z M 34.964844 420.46875 " fill-opacity="1" fill-rule="nonzero"/></g></g></svg>