<svg xmlns="http://www.w3.org/2000/svg" xmlns:xlink="http://www.w3.org/1999/xlink" width="816" zoomAndPan="magnify" viewBox="0 0 612 791.999994" height="1056" preserveAspectRatio="xMidYMid meet" version="1.0"><defs><clipPath id="516dc6e0e2"><path d="M 270 417 L 530.617188 417 L 530.617188 594 L 270 594 Z M 270 417 " clip-rule="nonzero"/></clipPath><clipPath id="91bc113a62"><path d="M 81.367188 144.886719 L 342 144.886719 L 342 322 L 81.367188 322 Z M 81.367188 144.886719 " clip-rule="nonzero"/></clipPath><clipPath id="fd2b866d8e"><path d="M 353 144.886719 L 530.617188 144.886719 L 530.617188 405 L 353 405 Z M 353 144.886719 " clip-rule="nonzero"/></clipPath><clipPath id="211beab4a5"><path d="M 81.367188 334 L 259 334 L 259 594 L 81.367188 594 Z M 81.367188 334 " clip-rule="nonzero"/></clipPath></defs><g clip-path="url(#516dc6e0e2)"><path fill="#ffd6f5" d="M 530.441406 432.300781 L 530.441406 578.855469 C 530.441406 579.84375 530.347656 580.828125 530.152344 581.800781 C 529.960938 582.773438 529.671875 583.71875 529.292969 584.632812 C 528.914062 585.550781 528.449219 586.421875 527.898438 587.246094 C 527.347656 588.070312 526.722656 588.832031 526.019531 589.535156 C 525.320312 590.234375 524.554688 590.859375 523.730469 591.410156 C 522.90625 591.960938 522.039062 592.425781 521.121094 592.808594 C 520.203125 593.1875 519.261719 593.472656 518.289062 593.664062 C 517.316406 593.859375 516.332031 593.957031 515.339844 593.957031 L 368.769531 593.957031 C 367.777344 593.957031 366.796875 593.859375 365.824219 593.664062 C 364.851562 593.472656 363.90625 593.1875 362.992188 592.808594 C 362.074219 592.425781 361.203125 591.960938 360.378906 591.410156 C 359.554688 590.859375 358.792969 590.234375 358.089844 589.535156 C 357.390625 588.832031 356.765625 588.070312 356.214844 587.246094 C 355.664062 586.421875 355.199219 585.550781 354.816406 584.632812 C 354.4375 583.71875 354.152344 582.773438 353.960938 581.800781 C 353.765625 580.828125 353.667969 579.84375 353.667969 578.855469 L 353.667969 432.300781 C 353.671875 431.308594 353.765625 430.324219 353.960938 429.351562 C 354.15625 428.382812 354.441406 427.4375 354.820312 426.519531 C 355.199219 425.605469 355.664062 424.734375 356.214844 423.910156 C 356.765625 423.085938 357.394531 422.324219 358.09375 421.621094 C 358.796875 420.921875 359.558594 420.296875 360.382812 419.746094 C 361.207031 419.195312 362.078125 418.726562 362.992188 418.347656 C 363.910156 417.96875 364.851562 417.683594 365.824219 417.488281 C 366.796875 417.296875 367.78125 417.199219 368.769531 417.199219 L 515.339844 417.199219 C 516.332031 417.199219 517.316406 417.296875 518.285156 417.488281 C 519.257812 417.683594 520.203125 417.96875 521.121094 418.347656 C 522.035156 418.726562 522.90625 419.195312 523.730469 419.746094 C 524.554688 420.296875 525.316406 420.921875 526.019531 421.621094 C 526.71875 422.324219 527.34375 423.085938 527.894531 423.910156 C 528.445312 424.734375 528.910156 425.605469 529.292969 426.519531 C 529.671875 427.4375 529.957031 428.378906 530.152344 429.351562 C 530.34375 430.324219 530.441406 431.308594 530.441406 432.300781 Z M 341.058594 505.539062 L 341.058594 505.613281 C 341.058594 506.109375 340.964844 506.585938 340.777344 507.042969 C 340.585938 507.503906 340.316406 507.90625 339.964844 508.257812 C 339.617188 508.605469 339.210938 508.878906 338.753906 509.066406 C 338.296875 509.257812 337.820312 509.351562 337.324219 509.351562 C 336.828125 509.351562 336.351562 509.257812 335.894531 509.066406 C 335.433594 508.878906 335.03125 508.605469 334.679688 508.257812 C 334.328125 507.90625 334.058594 507.503906 333.871094 507.042969 C 333.679688 506.585938 333.585938 506.109375 333.585938 505.613281 L 333.585938 505.539062 C 333.585938 505.042969 333.679688 504.566406 333.867188 504.109375 C 334.058594 503.652344 334.328125 503.25 334.675781 502.902344 C 335.027344 502.550781 335.429688 502.28125 335.886719 502.09375 C 336.34375 501.902344 336.820312 501.808594 337.316406 501.808594 C 338.34375 501.8125 339.226562 502.175781 339.957031 502.894531 C 340.691406 503.625 341.058594 504.503906 341.058594 505.539062 Z M 320.117188 505.539062 L 320.117188 505.613281 C 320.117188 506.109375 320.019531 506.585938 319.832031 507.042969 C 319.640625 507.503906 319.371094 507.90625 319.019531 508.257812 C 318.671875 508.605469 318.265625 508.878906 317.808594 509.066406 C 317.351562 509.257812 316.875 509.351562 316.378906 509.351562 C 315.882812 509.351562 315.40625 509.257812 314.949219 509.066406 C 314.488281 508.878906 314.085938 508.605469 313.734375 508.257812 C 313.382812 507.90625 313.113281 507.503906 312.925781 507.042969 C 312.734375 506.585938 312.640625 506.109375 312.640625 505.613281 L 312.640625 505.539062 C 312.640625 505.042969 312.734375 504.566406 312.925781 504.109375 C 313.113281 503.652344 313.382812 503.246094 313.734375 502.894531 C 314.085938 502.546875 314.488281 502.277344 314.949219 502.085938 C 315.40625 501.894531 315.882812 501.800781 316.378906 501.800781 C 316.875 501.800781 317.351562 501.894531 317.808594 502.085938 C 318.265625 502.277344 318.671875 502.546875 319.019531 502.894531 C 319.371094 503.246094 319.640625 503.652344 319.832031 504.109375 C 320.019531 504.566406 320.117188 505.042969 320.117188 505.539062 Z M 299.171875 505.539062 L 299.171875 505.613281 C 299.171875 506.109375 299.078125 506.585938 298.886719 507.046875 C 298.699219 507.503906 298.429688 507.910156 298.078125 508.261719 C 297.726562 508.613281 297.324219 508.882812 296.863281 509.074219 C 296.40625 509.265625 295.929688 509.359375 295.433594 509.359375 C 294.9375 509.359375 294.460938 509.265625 294 509.074219 C 293.542969 508.882812 293.136719 508.613281 292.789062 508.261719 C 292.4375 507.910156 292.167969 507.503906 291.976562 507.046875 C 291.789062 506.585938 291.695312 506.109375 291.695312 505.613281 L 291.695312 505.539062 C 291.695312 505.042969 291.792969 504.566406 291.984375 504.109375 C 292.175781 503.652344 292.445312 503.25 292.796875 502.898438 C 293.148438 502.550781 293.550781 502.28125 294.011719 502.089844 C 294.46875 501.902344 294.945312 501.808594 295.441406 501.808594 C 295.9375 501.804688 296.414062 501.898438 296.871094 502.089844 C 297.328125 502.277344 297.734375 502.546875 298.082031 502.894531 C 298.433594 503.246094 298.703125 503.652344 298.890625 504.109375 C 299.078125 504.566406 299.171875 505.042969 299.171875 505.539062 Z M 278.238281 505.539062 L 278.238281 505.613281 C 278.238281 506.109375 278.144531 506.589844 277.953125 507.046875 C 277.765625 507.507812 277.496094 507.910156 277.144531 508.261719 C 276.792969 508.613281 276.386719 508.882812 275.929688 509.074219 C 275.46875 509.265625 274.992188 509.359375 274.496094 509.359375 C 274 509.359375 273.519531 509.265625 273.0625 509.074219 C 272.601562 508.882812 272.199219 508.613281 271.847656 508.261719 C 271.496094 507.910156 271.226562 507.507812 271.035156 507.046875 C 270.84375 506.589844 270.75 506.109375 270.75 505.613281 L 270.75 505.539062 C 270.75 505.042969 270.847656 504.566406 271.039062 504.109375 C 271.230469 503.652344 271.5 503.25 271.851562 502.898438 C 272.203125 502.550781 272.605469 502.28125 273.066406 502.089844 C 273.523438 501.902344 274 501.808594 274.496094 501.808594 C 275.523438 501.8125 276.40625 502.175781 277.136719 502.894531 C 277.871094 503.625 278.238281 504.503906 278.238281 505.539062 Z M 278.238281 505.539062 " fill-opacity="1" fill-rule="nonzero"/></g><g clip-path="url(#91bc113a62)"><path fill="#fcdfe1" d="M 258.140625 159.996094 L 258.140625 306.550781 C 258.140625 307.542969 258.042969 308.527344 257.851562 309.5 C 257.65625 310.46875 257.371094 311.414062 256.988281 312.332031 C 256.609375 313.246094 256.144531 314.117188 255.59375 314.941406 C 255.042969 315.765625 254.417969 316.527344 253.714844 317.230469 C 253.015625 317.929688 252.253906 318.554688 251.429688 319.105469 C 250.605469 319.65625 249.734375 320.121094 248.816406 320.503906 C 247.902344 320.882812 246.957031 321.167969 245.984375 321.363281 C 245.011719 321.554688 244.03125 321.652344 243.039062 321.652344 L 96.46875 321.652344 C 95.476562 321.652344 94.496094 321.554688 93.523438 321.363281 C 92.550781 321.167969 91.605469 320.882812 90.691406 320.503906 C 89.773438 320.121094 88.90625 319.65625 88.082031 319.105469 C 87.257812 318.554688 86.492188 317.929688 85.792969 317.230469 C 85.089844 316.527344 84.464844 315.765625 83.914062 314.941406 C 83.363281 314.117188 82.898438 313.246094 82.519531 312.332031 C 82.140625 311.414062 81.851562 310.46875 81.660156 309.5 C 81.464844 308.527344 81.367188 307.542969 81.367188 306.550781 L 81.367188 159.996094 C 81.367188 159.003906 81.464844 158.023438 81.660156 157.050781 C 81.851562 156.078125 82.140625 155.136719 82.519531 154.21875 C 82.898438 153.304688 83.363281 152.433594 83.914062 151.609375 C 84.464844 150.785156 85.089844 150.023438 85.792969 149.320312 C 86.492188 148.621094 87.257812 147.992188 88.082031 147.441406 C 88.90625 146.890625 89.773438 146.425781 90.691406 146.046875 C 91.605469 145.667969 92.550781 145.382812 93.523438 145.1875 C 94.496094 144.992188 95.476562 144.898438 96.46875 144.894531 L 243.039062 144.894531 C 244.03125 144.898438 245.011719 144.992188 245.984375 145.1875 C 246.957031 145.382812 247.902344 145.667969 248.816406 146.046875 C 249.734375 146.425781 250.605469 146.890625 251.429688 147.441406 C 252.253906 147.992188 253.015625 148.621094 253.714844 149.320312 C 254.417969 150.023438 255.042969 150.785156 255.59375 151.609375 C 256.144531 152.433594 256.609375 153.304688 256.988281 154.21875 C 257.371094 155.136719 257.65625 156.078125 257.851562 157.050781 C 258.042969 158.023438 258.140625 159.003906 258.140625 159.996094 Z M 341.058594 233.238281 L 341.058594 233.3125 C 341.058594 233.808594 340.964844 234.285156 340.777344 234.742188 C 340.585938 235.199219 340.316406 235.605469 339.964844 235.957031 C 339.617188 236.304688 339.210938 236.574219 338.753906 236.765625 C 338.296875 236.957031 337.820312 237.050781 337.324219 237.050781 C 336.828125 237.050781 336.351562 236.957031 335.894531 236.765625 C 335.433594 236.574219 335.03125 236.304688 334.679688 235.957031 C 334.328125 235.605469 334.058594 235.199219 333.871094 234.742188 C 333.679688 234.285156 333.585938 233.808594 333.585938 233.3125 L 333.585938 233.238281 C 333.582031 232.867188 333.636719 232.503906 333.742188 232.152344 C 333.847656 231.796875 334.003906 231.464844 334.207031 231.15625 C 334.414062 230.847656 334.65625 230.578125 334.945312 230.339844 C 335.230469 230.105469 335.542969 229.917969 335.882812 229.777344 C 336.226562 229.632812 336.582031 229.546875 336.949219 229.507812 C 337.316406 229.472656 337.683594 229.492188 338.046875 229.566406 C 338.410156 229.636719 338.753906 229.761719 339.078125 229.9375 C 339.40625 230.113281 339.699219 230.332031 339.957031 230.59375 C 340.699219 231.320312 341.066406 232.199219 341.058594 233.238281 Z M 320.117188 233.238281 L 320.117188 233.3125 C 320.117188 233.808594 320.019531 234.285156 319.832031 234.742188 C 319.640625 235.199219 319.371094 235.605469 319.019531 235.957031 C 318.671875 236.304688 318.265625 236.574219 317.808594 236.765625 C 317.351562 236.957031 316.875 237.050781 316.378906 237.050781 C 315.882812 237.050781 315.40625 236.957031 314.949219 236.765625 C 314.488281 236.574219 314.085938 236.304688 313.734375 235.957031 C 313.382812 235.605469 313.113281 235.199219 312.925781 234.742188 C 312.734375 234.285156 312.640625 233.808594 312.640625 233.3125 L 312.640625 233.238281 C 312.640625 232.742188 312.734375 232.265625 312.921875 231.808594 C 313.113281 231.347656 313.382812 230.945312 313.730469 230.59375 C 314.082031 230.242188 314.484375 229.972656 314.941406 229.78125 C 315.398438 229.589844 315.875 229.492188 316.371094 229.492188 C 316.867188 229.496094 317.34375 229.589844 317.800781 229.78125 C 318.257812 229.972656 318.664062 230.242188 319.011719 230.59375 C 319.363281 230.945312 319.632812 231.347656 319.824219 231.808594 C 320.015625 232.265625 320.113281 232.742188 320.117188 233.238281 Z M 299.171875 233.238281 L 299.171875 233.3125 C 299.167969 233.808594 299.074219 234.285156 298.882812 234.742188 C 298.695312 235.199219 298.421875 235.601562 298.074219 235.949219 C 297.722656 236.300781 297.320312 236.570312 296.863281 236.757812 C 296.402344 236.949219 295.929688 237.042969 295.433594 237.042969 C 294.9375 237.042969 294.460938 236.949219 294.003906 236.757812 C 293.546875 236.570312 293.144531 236.300781 292.792969 235.949219 C 292.441406 235.601562 292.171875 235.199219 291.980469 234.742188 C 291.792969 234.285156 291.695312 233.808594 291.695312 233.3125 L 291.695312 233.238281 C 291.695312 232.742188 291.789062 232.261719 291.976562 231.804688 C 292.164062 231.34375 292.4375 230.9375 292.785156 230.585938 C 293.136719 230.234375 293.542969 229.964844 294 229.773438 C 294.457031 229.585938 294.9375 229.488281 295.433594 229.488281 C 295.929688 229.488281 296.40625 229.585938 296.867188 229.773438 C 297.324219 229.964844 297.730469 230.234375 298.078125 230.585938 C 298.429688 230.9375 298.699219 231.34375 298.890625 231.804688 C 299.078125 232.261719 299.171875 232.742188 299.171875 233.238281 Z M 278.238281 233.238281 L 278.238281 233.3125 C 278.238281 233.808594 278.140625 234.285156 277.949219 234.742188 C 277.757812 235.199219 277.488281 235.601562 277.136719 235.949219 C 276.785156 236.300781 276.382812 236.570312 275.925781 236.757812 C 275.46875 236.945312 274.992188 237.042969 274.496094 237.042969 C 274 237.042969 273.523438 236.945312 273.066406 236.757812 C 272.609375 236.570312 272.203125 236.300781 271.851562 235.949219 C 271.5 235.601562 271.230469 235.199219 271.039062 234.742188 C 270.847656 234.285156 270.753906 233.808594 270.75 233.3125 L 270.75 233.238281 C 270.75 232.867188 270.800781 232.503906 270.910156 232.148438 C 271.015625 231.796875 271.171875 231.464844 271.378906 231.15625 C 271.582031 230.847656 271.828125 230.574219 272.117188 230.339844 C 272.402344 230.105469 272.714844 229.917969 273.058594 229.777344 C 273.402344 229.632812 273.757812 229.546875 274.125 229.507812 C 274.492188 229.472656 274.859375 229.492188 275.222656 229.566406 C 275.585938 229.636719 275.929688 229.761719 276.257812 229.9375 C 276.582031 230.113281 276.875 230.332031 277.136719 230.59375 C 277.878906 231.320312 278.246094 232.199219 278.238281 233.238281 Z M 278.238281 233.238281 " fill-opacity="1" fill-rule="nonzero"/></g><g clip-path="url(#fd2b866d8e)"><path fill="#feefe3" d="M 442.101562 397.097656 L 442.027344 397.097656 C 441.53125 397.097656 441.050781 397.191406 440.59375 397.378906 C 440.132812 397.570312 439.726562 397.839844 439.375 398.1875 C 439.023438 398.539062 438.753906 398.945312 438.5625 399.402344 C 438.375 399.863281 438.277344 400.339844 438.277344 400.835938 C 438.277344 401.332031 438.375 401.808594 438.5625 402.269531 C 438.753906 402.726562 439.023438 403.132812 439.375 403.480469 C 439.726562 403.832031 440.132812 404.101562 440.59375 404.292969 C 441.050781 404.480469 441.53125 404.574219 442.027344 404.574219 L 442.101562 404.574219 C 442.597656 404.570312 443.070312 404.476562 443.527344 404.285156 C 443.984375 404.09375 444.386719 403.824219 444.738281 403.476562 C 445.085938 403.125 445.355469 402.722656 445.546875 402.265625 C 445.734375 401.804688 445.828125 401.332031 445.828125 400.835938 C 445.828125 400.339844 445.734375 399.863281 445.546875 399.40625 C 445.355469 398.949219 445.085938 398.546875 444.738281 398.195312 C 444.386719 397.847656 443.984375 397.574219 443.527344 397.386719 C 443.070312 397.195312 442.597656 397.101562 442.101562 397.097656 Z M 442.101562 376.152344 L 442.027344 376.152344 C 440.992188 376.15625 440.113281 376.523438 439.382812 377.253906 C 438.644531 377.980469 438.277344 378.863281 438.28125 379.898438 C 438.28125 380.394531 438.375 380.871094 438.566406 381.332031 C 438.753906 381.789062 439.027344 382.195312 439.378906 382.546875 C 439.730469 382.898438 440.132812 383.167969 440.59375 383.359375 C 441.050781 383.546875 441.527344 383.644531 442.027344 383.644531 L 442.101562 383.644531 C 442.597656 383.640625 443.074219 383.542969 443.53125 383.351562 C 443.988281 383.164062 444.390625 382.890625 444.738281 382.539062 C 445.089844 382.191406 445.359375 381.785156 445.546875 381.328125 C 445.734375 380.871094 445.832031 380.394531 445.832031 379.898438 C 445.832031 379.402344 445.734375 378.925781 445.546875 378.46875 C 445.359375 378.011719 445.089844 377.605469 444.738281 377.253906 C 444.390625 376.90625 443.988281 376.632812 443.53125 376.441406 C 443.074219 376.25 442.597656 376.15625 442.101562 376.152344 Z M 442.101562 355.222656 L 442.027344 355.222656 C 441.53125 355.222656 441.050781 355.316406 440.59375 355.503906 C 440.132812 355.695312 439.730469 355.964844 439.378906 356.316406 C 439.027344 356.664062 438.757812 357.070312 438.566406 357.527344 C 438.375 357.988281 438.28125 358.464844 438.28125 358.960938 C 438.28125 359.457031 438.375 359.933594 438.566406 360.394531 C 438.757812 360.851562 439.027344 361.253906 439.378906 361.605469 C 439.730469 361.957031 440.132812 362.226562 440.59375 362.414062 C 441.050781 362.605469 441.53125 362.699219 442.027344 362.699219 L 442.101562 362.699219 C 443.136719 362.695312 444.015625 362.328125 444.742188 361.597656 C 445.464844 360.863281 445.828125 359.980469 445.832031 358.953125 C 445.832031 358.457031 445.738281 357.984375 445.546875 357.527344 C 445.359375 357.070312 445.089844 356.664062 444.738281 356.316406 C 444.390625 355.964844 443.984375 355.695312 443.527344 355.507812 C 443.070312 355.316406 442.597656 355.222656 442.101562 355.222656 Z M 442.101562 334.277344 L 442.027344 334.277344 C 441.53125 334.277344 441.054688 334.371094 440.59375 334.5625 C 440.136719 334.75 439.734375 335.019531 439.382812 335.367188 C 439.03125 335.71875 438.761719 336.121094 438.570312 336.578125 C 438.378906 337.035156 438.28125 337.511719 438.28125 338.007812 L 438.28125 338.023438 C 438.28125 338.519531 438.378906 338.996094 438.570312 339.453125 C 438.761719 339.910156 439.03125 340.3125 439.382812 340.664062 C 439.734375 341.011719 440.136719 341.28125 440.59375 341.46875 C 441.054688 341.660156 441.53125 341.753906 442.027344 341.753906 L 442.101562 341.753906 C 442.59375 341.75 443.070312 341.65625 443.527344 341.46875 C 443.984375 341.277344 444.386719 341.007812 444.738281 340.65625 C 445.085938 340.308594 445.355469 339.90625 445.546875 339.449219 C 445.734375 338.992188 445.832031 338.515625 445.832031 338.023438 L 445.832031 338.007812 C 445.832031 337.511719 445.734375 337.039062 445.546875 336.582031 C 445.355469 336.125 445.085938 335.722656 444.738281 335.371094 C 444.386719 335.023438 443.984375 334.753906 443.527344 334.5625 C 443.070312 334.375 442.59375 334.277344 442.101562 334.277344 Z M 530.441406 159.996094 L 530.441406 306.550781 C 530.441406 307.542969 530.34375 308.527344 530.152344 309.5 C 529.957031 310.46875 529.671875 311.414062 529.292969 312.332031 C 528.910156 313.246094 528.445312 314.117188 527.894531 314.941406 C 527.34375 315.765625 526.71875 316.527344 526.019531 317.230469 C 525.316406 317.929688 524.554688 318.554688 523.730469 319.105469 C 522.90625 319.65625 522.035156 320.121094 521.121094 320.503906 C 520.203125 320.882812 519.257812 321.167969 518.285156 321.363281 C 517.316406 321.554688 516.332031 321.652344 515.339844 321.652344 L 368.769531 321.652344 C 367.78125 321.652344 366.796875 321.554688 365.824219 321.363281 C 364.851562 321.167969 363.910156 320.882812 362.992188 320.503906 C 362.078125 320.121094 361.207031 319.65625 360.382812 319.105469 C 359.558594 318.554688 358.796875 317.929688 358.09375 317.230469 C 357.394531 316.527344 356.765625 315.765625 356.214844 314.941406 C 355.664062 314.117188 355.199219 313.246094 354.820312 312.332031 C 354.441406 311.414062 354.15625 310.46875 353.960938 309.5 C 353.765625 308.527344 353.671875 307.542969 353.667969 306.550781 L 353.667969 159.996094 C 353.671875 159.003906 353.765625 158.023438 353.960938 157.050781 C 354.15625 156.078125 354.441406 155.136719 354.820312 154.21875 C 355.199219 153.304688 355.664062 152.433594 356.214844 151.609375 C 356.765625 150.785156 357.394531 150.023438 358.09375 149.320312 C 358.796875 148.621094 359.558594 147.992188 360.382812 147.441406 C 361.207031 146.890625 362.078125 146.425781 362.992188 146.046875 C 363.910156 145.667969 364.851562 145.382812 365.824219 145.1875 C 366.796875 144.992188 367.78125 144.898438 368.769531 144.894531 L 515.339844 144.894531 C 516.332031 144.898438 517.316406 144.992188 518.285156 145.1875 C 519.257812 145.382812 520.203125 145.667969 521.121094 146.046875 C 522.035156 146.425781 522.90625 146.890625 523.730469 147.441406 C 524.554688 147.992188 525.316406 148.621094 526.019531 149.320312 C 526.71875 150.023438 527.34375 150.785156 527.894531 151.609375 C 528.445312 152.433594 528.910156 153.304688 529.292969 154.21875 C 529.671875 155.136719 529.957031 156.078125 530.152344 157.050781 C 530.34375 158.023438 530.441406 159.003906 530.441406 159.996094 Z M 530.441406 159.996094 " fill-opacity="1" fill-rule="nonzero"/></g><g clip-path="url(#211beab4a5)"><path fill="#abe7ec" d="M 169.785156 397.097656 L 169.722656 397.097656 C 169.226562 397.097656 168.75 397.191406 168.289062 397.378906 C 167.832031 397.570312 167.425781 397.839844 167.074219 398.1875 C 166.722656 398.539062 166.453125 398.945312 166.261719 399.402344 C 166.070312 399.863281 165.976562 400.339844 165.976562 400.835938 C 165.976562 401.332031 166.070312 401.808594 166.261719 402.269531 C 166.453125 402.726562 166.722656 403.132812 167.074219 403.480469 C 167.425781 403.832031 167.832031 404.101562 168.289062 404.292969 C 168.75 404.480469 169.226562 404.574219 169.722656 404.574219 L 169.785156 404.574219 C 170.816406 404.570312 171.699219 404.203125 172.425781 403.472656 C 173.164062 402.75 173.53125 401.875 173.53125 400.84375 C 173.53125 400.347656 173.433594 399.867188 173.246094 399.410156 C 173.054688 398.953125 172.785156 398.546875 172.433594 398.195312 C 172.082031 397.84375 171.675781 397.574219 171.21875 397.382812 C 170.757812 397.191406 170.28125 397.097656 169.785156 397.097656 Z M 169.785156 376.152344 L 169.722656 376.152344 C 168.691406 376.15625 167.808594 376.523438 167.082031 377.253906 C 166.34375 377.980469 165.976562 378.863281 165.980469 379.898438 C 165.980469 380.394531 166.074219 380.871094 166.265625 381.332031 C 166.453125 381.789062 166.726562 382.195312 167.074219 382.546875 C 167.425781 382.898438 167.832031 383.167969 168.289062 383.359375 C 168.75 383.546875 169.226562 383.644531 169.722656 383.644531 L 169.785156 383.644531 C 170.816406 383.640625 171.699219 383.273438 172.425781 382.539062 C 173.167969 381.816406 173.535156 380.933594 173.53125 379.898438 C 173.53125 379.402344 173.433594 378.921875 173.246094 378.464844 C 173.054688 378.007812 172.785156 377.601562 172.433594 377.25 C 172.082031 376.898438 171.675781 376.628906 171.21875 376.4375 C 170.757812 376.246094 170.28125 376.152344 169.785156 376.152344 Z M 169.785156 355.222656 L 169.722656 355.222656 C 169.226562 355.222656 168.75 355.316406 168.292969 355.503906 C 167.832031 355.695312 167.429688 355.964844 167.078125 356.316406 C 166.726562 356.664062 166.453125 357.070312 166.265625 357.527344 C 166.074219 357.988281 165.980469 358.464844 165.980469 358.960938 C 165.980469 359.457031 166.074219 359.933594 166.265625 360.394531 C 166.453125 360.851562 166.726562 361.253906 167.078125 361.605469 C 167.429688 361.957031 167.832031 362.226562 168.292969 362.414062 C 168.75 362.605469 169.226562 362.699219 169.722656 362.699219 L 169.785156 362.699219 C 170.28125 362.699219 170.757812 362.605469 171.21875 362.414062 C 171.675781 362.226562 172.082031 361.957031 172.433594 361.605469 C 172.785156 361.253906 173.054688 360.851562 173.246094 360.394531 C 173.433594 359.933594 173.53125 359.457031 173.53125 358.960938 C 173.53125 358.464844 173.433594 357.988281 173.246094 357.527344 C 173.054688 357.070312 172.785156 356.664062 172.433594 356.316406 C 172.082031 355.964844 171.675781 355.695312 171.21875 355.503906 C 170.757812 355.316406 170.28125 355.222656 169.785156 355.222656 Z M 169.785156 334.277344 L 169.722656 334.277344 C 169.230469 334.277344 168.753906 334.371094 168.292969 334.5625 C 167.835938 334.75 167.429688 335.019531 167.082031 335.367188 C 166.730469 335.71875 166.457031 336.121094 166.269531 336.578125 C 166.078125 337.035156 165.980469 337.511719 165.980469 338.007812 L 165.980469 338.023438 C 165.980469 338.519531 166.078125 338.996094 166.265625 339.453125 C 166.457031 339.910156 166.730469 340.3125 167.082031 340.664062 C 167.429688 341.011719 167.835938 341.28125 168.292969 341.46875 C 168.753906 341.660156 169.230469 341.753906 169.722656 341.753906 L 169.785156 341.753906 C 170.28125 341.753906 170.757812 341.660156 171.214844 341.46875 C 171.671875 341.28125 172.078125 341.011719 172.429688 340.664062 C 172.78125 340.3125 173.050781 339.910156 173.242188 339.453125 C 173.433594 338.996094 173.527344 338.519531 173.53125 338.023438 L 173.53125 338.007812 C 173.527344 337.511719 173.433594 337.035156 173.242188 336.578125 C 173.050781 336.121094 172.78125 335.71875 172.429688 335.367188 C 172.078125 335.019531 171.671875 334.75 171.214844 334.558594 C 170.757812 334.371094 170.28125 334.277344 169.785156 334.277344 Z M 258.140625 432.300781 L 258.140625 578.855469 C 258.140625 579.84375 258.042969 580.828125 257.851562 581.800781 C 257.65625 582.773438 257.371094 583.71875 256.992188 584.632812 C 256.613281 585.550781 256.148438 586.421875 255.597656 587.246094 C 255.046875 588.070312 254.421875 588.832031 253.71875 589.535156 C 253.019531 590.234375 252.253906 590.859375 251.429688 591.410156 C 250.605469 591.960938 249.734375 592.425781 248.820312 592.804688 C 247.902344 593.1875 246.957031 593.472656 245.984375 593.664062 C 245.011719 593.859375 244.03125 593.957031 243.039062 593.957031 L 96.46875 593.957031 C 95.476562 593.957031 94.496094 593.859375 93.523438 593.664062 C 92.550781 593.472656 91.605469 593.1875 90.691406 592.808594 C 89.773438 592.425781 88.902344 591.960938 88.078125 591.410156 C 87.253906 590.859375 86.492188 590.234375 85.789062 589.535156 C 85.089844 588.832031 84.460938 588.070312 83.910156 587.246094 C 83.359375 586.421875 82.894531 585.550781 82.515625 584.632812 C 82.136719 583.71875 81.851562 582.773438 81.65625 581.800781 C 81.464844 580.828125 81.367188 579.84375 81.367188 578.855469 L 81.367188 432.300781 C 81.367188 431.308594 81.464844 430.324219 81.660156 429.351562 C 81.851562 428.382812 82.140625 427.4375 82.519531 426.519531 C 82.898438 425.605469 83.363281 424.734375 83.914062 423.910156 C 84.464844 423.085938 85.089844 422.324219 85.792969 421.621094 C 86.492188 420.921875 87.257812 420.296875 88.082031 419.746094 C 88.90625 419.195312 89.773438 418.726562 90.691406 418.347656 C 91.605469 417.96875 92.550781 417.683594 93.523438 417.488281 C 94.496094 417.296875 95.476562 417.199219 96.46875 417.199219 L 243.039062 417.199219 C 244.03125 417.199219 245.011719 417.296875 245.984375 417.488281 C 246.957031 417.683594 247.902344 417.96875 248.816406 418.347656 C 249.734375 418.726562 250.605469 419.195312 251.429688 419.746094 C 252.253906 420.296875 253.015625 420.921875 253.714844 421.621094 C 254.417969 422.324219 255.042969 423.085938 255.59375 423.910156 C 256.144531 424.734375 256.609375 425.605469 256.988281 426.519531 C 257.371094 427.4375 257.65625 428.378906 257.851562 429.351562 C 258.042969 430.324219 258.140625 431.308594 258.140625 432.300781 Z M 258.140625 432.300781 " fill-opacity="1" fill-rule="nonzero"/></g></svg>