<svg xmlns="http://www.w3.org/2000/svg" xmlns:xlink="http://www.w3.org/1999/xlink" width="816" zoomAndPan="magnify" viewBox="0 0 612 791.999994" height="1056" preserveAspectRatio="xMidYMid meet" version="1.0"><defs><g/><clipPath id="18a30fd01e"><path d="M 61.574219 396 L 482.328125 396 L 482.328125 396.691406 L 61.574219 396.691406 Z M 61.574219 396 " clip-rule="nonzero"/></clipPath><clipPath id="ab00d35e6a"><path d="M 61.574219 352 L 482.328125 352 L 482.328125 353 L 61.574219 353 Z M 61.574219 352 " clip-rule="nonzero"/></clipPath><clipPath id="cab65b4127"><path d="M 61.574219 308 L 482.328125 308 L 482.328125 309 L 61.574219 309 Z M 61.574219 308 " clip-rule="nonzero"/></clipPath><clipPath id="09c1bb8310"><path d="M 61.574219 263 L 482.328125 263 L 482.328125 265 L 61.574219 265 Z M 61.574219 263 " clip-rule="nonzero"/></clipPath><clipPath id="16fa193368"><path d="M 61.574219 219 L 482.328125 219 L 482.328125 220 L 61.574219 220 Z M 61.574219 219 " clip-rule="nonzero"/></clipPath><clipPath id="2bb5bdf513"><path d="M 61.574219 175.460938 L 482.328125 175.460938 L 482.328125 176 L 61.574219 176 Z M 61.574219 175.460938 " clip-rule="nonzero"/></clipPath><clipPath id="22fa9ee771"><path d="M 61.574219 370.144531 L 158.671875 370.144531 L 158.671875 396.691406 L 61.574219 396.691406 Z M 61.574219 370.144531 " clip-rule="nonzero"/></clipPath><clipPath id="dfaace1cf5"><path d="M 169.460938 184.308594 L 266.554688 184.308594 L 266.554688 396.691406 L 169.460938 396.691406 Z M 169.460938 184.308594 " clip-rule="nonzero"/></clipPath><clipPath id="1b687b0656"><path d="M 277.34375 202.007812 L 374.441406 202.007812 L 374.441406 396.691406 L 277.34375 396.691406 Z M 277.34375 202.007812 " clip-rule="nonzero"/></clipPath><clipPath id="851f6e4aff"><path d="M 385.230469 352.445312 L 482.328125 352.445312 L 482.328125 396.691406 L 385.230469 396.691406 Z M 385.230469 352.445312 " clip-rule="nonzero"/></clipPath></defs><g clip-path="url(#18a30fd01e)"><path stroke-linecap="butt" transform="matrix(0.361491, 0, 0, 0.361491, 61.57396, 175.459463)" fill="none" stroke-linejoin="miter" d="M 0.000715292 611.998958 L 1163.941821 611.998958 " stroke="#000000" stroke-width="1" stroke-opacity="0.6" stroke-miterlimit="4"/></g><g clip-path="url(#ab00d35e6a)"><path stroke-linecap="butt" transform="matrix(0.361491, 0, 0, 0.361491, 61.57396, 175.459463)" fill="none" stroke-linejoin="miter" d="M 0.000715292 489.599982 L 1163.941821 489.599982 " stroke="#000000" stroke-width="1" stroke-opacity="0.251" stroke-miterlimit="4"/></g><g clip-path="url(#cab65b4127)"><path stroke-linecap="butt" transform="matrix(0.361491, 0, 0, 0.361491, 61.57396, 175.459463)" fill="none" stroke-linejoin="miter" d="M 0.000715292 367.201006 L 1163.941821 367.201006 " stroke="#000000" stroke-width="1" stroke-opacity="0.251" stroke-miterlimit="4"/></g><g clip-path="url(#09c1bb8310)"><path stroke-linecap="butt" transform="matrix(0.361491, 0, 0, 0.361491, 61.57396, 175.459463)" fill="none" stroke-linejoin="miter" d="M 0.000715292 244.80203 L 1163.941821 244.80203 " stroke="#000000" stroke-width="1" stroke-opacity="0.251" stroke-miterlimit="4"/></g><g clip-path="url(#16fa193368)"><path stroke-linecap="butt" transform="matrix(0.361491, 0, 0, 0.361491, 61.57396, 175.459463)" fill="none" stroke-linejoin="miter" d="M 0.000715292 122.403054 L 1163.941821 122.403054 " stroke="#000000" stroke-width="1" stroke-opacity="0.251" stroke-miterlimit="4"/></g><g clip-path="url(#2bb5bdf513)"><path stroke-linecap="butt" transform="matrix(0.361491, 0, 0, 0.361491, 61.57396, 175.459463)" fill="none" stroke-linejoin="miter" d="M 0.000715292 0.00407813 L 1163.941821 0.00407813 " stroke="#000000" stroke-width="1" stroke-opacity="0.251" stroke-miterlimit="4"/></g><g fill="#000000" fill-opacity="1"><g transform="translate(97.159566, 410.103048)"><g><path d="M 5.71875 -6.09375 L 3.40625 0 L 2.5 0 L 0.1875 -6.09375 L 1.046875 -6.09375 L 2.953125 -0.84375 L 4.875 -6.09375 Z M 5.71875 -6.09375 "/></g></g></g><g fill="#000000" fill-opacity="1"><g transform="translate(103.070228, 410.103048)"><g><path d="M 1.078125 -5.578125 C 0.929688 -5.578125 0.804688 -5.628906 0.703125 -5.734375 C 0.597656 -5.835938 0.546875 -5.960938 0.546875 -6.109375 C 0.546875 -6.265625 0.597656 -6.394531 0.703125 -6.5 C 0.804688 -6.601562 0.929688 -6.65625 1.078125 -6.65625 C 1.222656 -6.65625 1.347656 -6.601562 1.453125 -6.5 C 1.554688 -6.394531 1.609375 -6.265625 1.609375 -6.109375 C 1.609375 -5.960938 1.554688 -5.835938 1.453125 -5.734375 C 1.347656 -5.628906 1.222656 -5.578125 1.078125 -5.578125 Z M 1.46875 -4.796875 L 1.46875 0 L 0.671875 0 L 0.671875 -4.796875 Z M 1.46875 -4.796875 "/></g></g></g><g fill="#000000" fill-opacity="1"><g transform="translate(105.221147, 410.103048)"><g><path d="M 2.375 0.078125 C 2 0.078125 1.664062 0.015625 1.375 -0.109375 C 1.082031 -0.234375 0.851562 -0.40625 0.6875 -0.625 C 0.519531 -0.851562 0.425781 -1.113281 0.40625 -1.40625 L 1.234375 -1.40625 C 1.253906 -1.164062 1.363281 -0.96875 1.5625 -0.8125 C 1.769531 -0.664062 2.035156 -0.59375 2.359375 -0.59375 C 2.660156 -0.59375 2.898438 -0.660156 3.078125 -0.796875 C 3.253906 -0.929688 3.34375 -1.097656 3.34375 -1.296875 C 3.34375 -1.515625 3.25 -1.671875 3.0625 -1.765625 C 2.875 -1.867188 2.585938 -1.972656 2.203125 -2.078125 C 1.835938 -2.171875 1.539062 -2.265625 1.3125 -2.359375 C 1.09375 -2.453125 0.898438 -2.59375 0.734375 -2.78125 C 0.578125 -2.976562 0.5 -3.226562 0.5 -3.53125 C 0.5 -3.78125 0.570312 -4.003906 0.71875 -4.203125 C 0.863281 -4.410156 1.070312 -4.570312 1.34375 -4.6875 C 1.613281 -4.8125 1.921875 -4.875 2.265625 -4.875 C 2.796875 -4.875 3.222656 -4.738281 3.546875 -4.46875 C 3.878906 -4.195312 4.054688 -3.832031 4.078125 -3.375 L 3.28125 -3.375 C 3.257812 -3.625 3.15625 -3.820312 2.96875 -3.96875 C 2.789062 -4.125 2.546875 -4.203125 2.234375 -4.203125 C 1.953125 -4.203125 1.722656 -4.140625 1.546875 -4.015625 C 1.378906 -3.890625 1.296875 -3.726562 1.296875 -3.53125 C 1.296875 -3.375 1.347656 -3.242188 1.453125 -3.140625 C 1.554688 -3.046875 1.6875 -2.96875 1.84375 -2.90625 C 2 -2.84375 2.210938 -2.769531 2.484375 -2.6875 C 2.828125 -2.601562 3.109375 -2.515625 3.328125 -2.421875 C 3.546875 -2.328125 3.726562 -2.1875 3.875 -2 C 4.03125 -1.820312 4.113281 -1.585938 4.125 -1.296875 C 4.125 -1.035156 4.050781 -0.800781 3.90625 -0.59375 C 3.757812 -0.382812 3.550781 -0.21875 3.28125 -0.09375 C 3.019531 0.0195312 2.71875 0.078125 2.375 0.078125 Z M 2.375 0.078125 "/></g></g></g><g fill="#000000" fill-opacity="1"><g transform="translate(109.785298, 410.103048)"><g><path d="M 4.921875 -4.796875 L 4.921875 0 L 4.125 0 L 4.125 -0.703125 C 3.976562 -0.460938 3.769531 -0.273438 3.5 -0.140625 C 3.226562 -0.00390625 2.925781 0.0625 2.59375 0.0625 C 2.21875 0.0625 1.878906 -0.0078125 1.578125 -0.15625 C 1.285156 -0.3125 1.050781 -0.546875 0.875 -0.859375 C 0.707031 -1.171875 0.625 -1.546875 0.625 -1.984375 L 0.625 -4.796875 L 1.421875 -4.796875 L 1.421875 -2.09375 C 1.421875 -1.613281 1.539062 -1.25 1.78125 -1 C 2.019531 -0.75 2.34375 -0.625 2.75 -0.625 C 3.175781 -0.625 3.507812 -0.753906 3.75 -1.015625 C 4 -1.273438 4.125 -1.65625 4.125 -2.15625 L 4.125 -4.796875 Z M 4.921875 -4.796875 "/></g></g></g><g fill="#000000" fill-opacity="1"><g transform="translate(115.381189, 410.103048)"><g><path d="M 0.375 -2.421875 C 0.375 -2.910156 0.472656 -3.335938 0.671875 -3.703125 C 0.867188 -4.078125 1.140625 -4.363281 1.484375 -4.5625 C 1.835938 -4.769531 2.226562 -4.875 2.65625 -4.875 C 3.070312 -4.875 3.429688 -4.78125 3.734375 -4.59375 C 4.046875 -4.414062 4.28125 -4.191406 4.4375 -3.921875 L 4.4375 -4.796875 L 5.234375 -4.796875 L 5.234375 0 L 4.4375 0 L 4.4375 -0.890625 C 4.28125 -0.609375 4.046875 -0.375 3.734375 -0.1875 C 3.421875 -0.0078125 3.054688 0.078125 2.640625 0.078125 C 2.210938 0.078125 1.828125 -0.0234375 1.484375 -0.234375 C 1.140625 -0.441406 0.867188 -0.734375 0.671875 -1.109375 C 0.472656 -1.492188 0.375 -1.929688 0.375 -2.421875 Z M 4.4375 -2.40625 C 4.4375 -2.769531 4.363281 -3.082031 4.21875 -3.34375 C 4.070312 -3.613281 3.875 -3.820312 3.625 -3.96875 C 3.375 -4.113281 3.101562 -4.1875 2.8125 -4.1875 C 2.507812 -4.1875 2.234375 -4.113281 1.984375 -3.96875 C 1.742188 -3.832031 1.550781 -3.628906 1.40625 -3.359375 C 1.257812 -3.085938 1.1875 -2.773438 1.1875 -2.421875 C 1.1875 -2.046875 1.257812 -1.722656 1.40625 -1.453125 C 1.550781 -1.179688 1.742188 -0.972656 1.984375 -0.828125 C 2.234375 -0.691406 2.507812 -0.625 2.8125 -0.625 C 3.101562 -0.625 3.375 -0.691406 3.625 -0.828125 C 3.875 -0.972656 4.070312 -1.179688 4.21875 -1.453125 C 4.363281 -1.722656 4.4375 -2.039062 4.4375 -2.40625 Z M 4.4375 -2.40625 "/></g></g></g><g fill="#000000" fill-opacity="1"><g transform="translate(121.291851, 410.103048)"><g><path d="M 1.46875 -6.46875 L 1.46875 0 L 0.671875 0 L 0.671875 -6.46875 Z M 1.46875 -6.46875 "/></g></g></g><g fill="#000000" fill-opacity="1"><g transform="translate(199.752558, 410.103048)"><g><path d="M 4.28125 -1.359375 L 1.625 -1.359375 L 1.125 0 L 0.28125 0 L 2.5 -6.0625 L 3.40625 -6.0625 L 5.609375 0 L 4.765625 0 Z M 4.046875 -2 L 2.953125 -5.078125 L 1.84375 -2 Z M 4.046875 -2 "/></g></g></g><g fill="#000000" fill-opacity="1"><g transform="translate(205.645729, 410.103048)"><g><path d="M 4.921875 -4.796875 L 4.921875 0 L 4.125 0 L 4.125 -0.703125 C 3.976562 -0.460938 3.769531 -0.273438 3.5 -0.140625 C 3.226562 -0.00390625 2.925781 0.0625 2.59375 0.0625 C 2.21875 0.0625 1.878906 -0.0078125 1.578125 -0.15625 C 1.285156 -0.3125 1.050781 -0.546875 0.875 -0.859375 C 0.707031 -1.171875 0.625 -1.546875 0.625 -1.984375 L 0.625 -4.796875 L 1.421875 -4.796875 L 1.421875 -2.09375 C 1.421875 -1.613281 1.539062 -1.25 1.78125 -1 C 2.019531 -0.75 2.34375 -0.625 2.75 -0.625 C 3.175781 -0.625 3.507812 -0.753906 3.75 -1.015625 C 4 -1.273438 4.125 -1.65625 4.125 -2.15625 L 4.125 -4.796875 Z M 4.921875 -4.796875 "/></g></g></g><g fill="#000000" fill-opacity="1"><g transform="translate(211.24162, 410.103048)"><g><path d="M 0.375 -2.421875 C 0.375 -2.910156 0.472656 -3.335938 0.671875 -3.703125 C 0.867188 -4.078125 1.140625 -4.363281 1.484375 -4.5625 C 1.835938 -4.769531 2.226562 -4.875 2.65625 -4.875 C 3.03125 -4.875 3.378906 -4.785156 3.703125 -4.609375 C 4.023438 -4.441406 4.269531 -4.21875 4.4375 -3.9375 L 4.4375 -6.46875 L 5.234375 -6.46875 L 5.234375 0 L 4.4375 0 L 4.4375 -0.90625 C 4.28125 -0.613281 4.046875 -0.375 3.734375 -0.1875 C 3.421875 -0.0078125 3.0625 0.078125 2.65625 0.078125 C 2.226562 0.078125 1.835938 -0.0234375 1.484375 -0.234375 C 1.140625 -0.441406 0.867188 -0.734375 0.671875 -1.109375 C 0.472656 -1.492188 0.375 -1.929688 0.375 -2.421875 Z M 4.4375 -2.40625 C 4.4375 -2.769531 4.363281 -3.082031 4.21875 -3.34375 C 4.070312 -3.613281 3.875 -3.820312 3.625 -3.96875 C 3.375 -4.113281 3.101562 -4.1875 2.8125 -4.1875 C 2.507812 -4.1875 2.234375 -4.113281 1.984375 -3.96875 C 1.742188 -3.832031 1.550781 -3.628906 1.40625 -3.359375 C 1.257812 -3.085938 1.1875 -2.773438 1.1875 -2.421875 C 1.1875 -2.046875 1.257812 -1.722656 1.40625 -1.453125 C 1.550781 -1.179688 1.742188 -0.972656 1.984375 -0.828125 C 2.234375 -0.691406 2.507812 -0.625 2.8125 -0.625 C 3.101562 -0.625 3.375 -0.691406 3.625 -0.828125 C 3.875 -0.972656 4.070312 -1.179688 4.21875 -1.453125 C 4.363281 -1.722656 4.4375 -2.039062 4.4375 -2.40625 Z M 4.4375 -2.40625 "/></g></g></g><g fill="#000000" fill-opacity="1"><g transform="translate(217.152282, 410.103048)"><g><path d="M 1.078125 -5.578125 C 0.929688 -5.578125 0.804688 -5.628906 0.703125 -5.734375 C 0.597656 -5.835938 0.546875 -5.960938 0.546875 -6.109375 C 0.546875 -6.265625 0.597656 -6.394531 0.703125 -6.5 C 0.804688 -6.601562 0.929688 -6.65625 1.078125 -6.65625 C 1.222656 -6.65625 1.347656 -6.601562 1.453125 -6.5 C 1.554688 -6.394531 1.609375 -6.265625 1.609375 -6.109375 C 1.609375 -5.960938 1.554688 -5.835938 1.453125 -5.734375 C 1.347656 -5.628906 1.222656 -5.578125 1.078125 -5.578125 Z M 1.46875 -4.796875 L 1.46875 0 L 0.671875 0 L 0.671875 -4.796875 Z M 1.46875 -4.796875 "/></g></g></g><g fill="#000000" fill-opacity="1"><g transform="translate(219.303201, 410.103048)"><g><path d="M 1.640625 -4.140625 L 1.640625 -1.3125 C 1.640625 -1.082031 1.6875 -0.914062 1.78125 -0.8125 C 1.882812 -0.71875 2.0625 -0.671875 2.3125 -0.671875 L 2.890625 -0.671875 L 2.890625 0 L 2.171875 0 C 1.734375 0 1.398438 -0.0976562 1.171875 -0.296875 C 0.953125 -0.503906 0.84375 -0.84375 0.84375 -1.3125 L 0.84375 -4.140625 L 0.234375 -4.140625 L 0.234375 -4.796875 L 0.84375 -4.796875 L 0.84375 -6 L 1.640625 -6 L 1.640625 -4.796875 L 2.890625 -4.796875 L 2.890625 -4.140625 Z M 1.640625 -4.140625 "/></g></g></g><g fill="#000000" fill-opacity="1"><g transform="translate(222.485865, 410.103048)"><g><path d="M 2.765625 0.078125 C 2.316406 0.078125 1.910156 -0.0195312 1.546875 -0.21875 C 1.179688 -0.425781 0.894531 -0.71875 0.6875 -1.09375 C 0.476562 -1.46875 0.375 -1.90625 0.375 -2.40625 C 0.375 -2.894531 0.476562 -3.328125 0.6875 -3.703125 C 0.90625 -4.078125 1.195312 -4.363281 1.5625 -4.5625 C 1.9375 -4.769531 2.347656 -4.875 2.796875 -4.875 C 3.253906 -4.875 3.664062 -4.769531 4.03125 -4.5625 C 4.394531 -4.363281 4.679688 -4.078125 4.890625 -3.703125 C 5.109375 -3.335938 5.21875 -2.90625 5.21875 -2.40625 C 5.21875 -1.90625 5.109375 -1.46875 4.890625 -1.09375 C 4.671875 -0.71875 4.375 -0.425781 4 -0.21875 C 3.632812 -0.0195312 3.222656 0.078125 2.765625 0.078125 Z M 2.765625 -0.625 C 3.046875 -0.625 3.3125 -0.691406 3.5625 -0.828125 C 3.820312 -0.960938 4.023438 -1.160156 4.171875 -1.421875 C 4.328125 -1.691406 4.40625 -2.019531 4.40625 -2.40625 C 4.40625 -2.789062 4.328125 -3.113281 4.171875 -3.375 C 4.023438 -3.644531 3.828125 -3.847656 3.578125 -3.984375 C 3.335938 -4.117188 3.078125 -4.1875 2.796875 -4.1875 C 2.503906 -4.1875 2.234375 -4.117188 1.984375 -3.984375 C 1.742188 -3.847656 1.550781 -3.644531 1.40625 -3.375 C 1.257812 -3.113281 1.1875 -2.789062 1.1875 -2.40625 C 1.1875 -2.007812 1.257812 -1.675781 1.40625 -1.40625 C 1.550781 -1.144531 1.742188 -0.945312 1.984375 -0.8125 C 2.222656 -0.6875 2.484375 -0.625 2.765625 -0.625 Z M 2.765625 -0.625 "/></g></g></g><g fill="#000000" fill-opacity="1"><g transform="translate(228.081756, 410.103048)"><g><path d="M 1.46875 -4.015625 C 1.613281 -4.285156 1.8125 -4.492188 2.0625 -4.640625 C 2.320312 -4.796875 2.640625 -4.875 3.015625 -4.875 L 3.015625 -4.0625 L 2.8125 -4.0625 C 1.914062 -4.0625 1.46875 -3.578125 1.46875 -2.609375 L 1.46875 0 L 0.671875 0 L 0.671875 -4.796875 L 1.46875 -4.796875 Z M 1.46875 -4.015625 "/></g></g></g><g fill="#000000" fill-opacity="1"><g transform="translate(231.34311, 410.103048)"><g><path d="M 4.796875 -4.796875 L 1.921875 2.25 L 1.09375 2.25 L 2.03125 -0.046875 L 0.109375 -4.796875 L 0.984375 -4.796875 L 2.5 -0.90625 L 3.984375 -4.796875 Z M 4.796875 -4.796875 "/></g></g></g><g fill="#000000" fill-opacity="1"><g transform="translate(301.989665, 410.103048)"><g><path d="M 3.984375 0 L 1.46875 -2.78125 L 1.46875 0 L 0.671875 0 L 0.671875 -6.09375 L 1.46875 -6.09375 L 1.46875 -3.265625 L 3.984375 -6.09375 L 5 -6.09375 L 2.234375 -3.046875 L 5.015625 0 Z M 3.984375 0 "/></g></g></g><g fill="#000000" fill-opacity="1"><g transform="translate(307.227071, 410.103048)"><g><path d="M 1.078125 -5.578125 C 0.929688 -5.578125 0.804688 -5.628906 0.703125 -5.734375 C 0.597656 -5.835938 0.546875 -5.960938 0.546875 -6.109375 C 0.546875 -6.265625 0.597656 -6.394531 0.703125 -6.5 C 0.804688 -6.601562 0.929688 -6.65625 1.078125 -6.65625 C 1.222656 -6.65625 1.347656 -6.601562 1.453125 -6.5 C 1.554688 -6.394531 1.609375 -6.265625 1.609375 -6.109375 C 1.609375 -5.960938 1.554688 -5.835938 1.453125 -5.734375 C 1.347656 -5.628906 1.222656 -5.578125 1.078125 -5.578125 Z M 1.46875 -4.796875 L 1.46875 0 L 0.671875 0 L 0.671875 -4.796875 Z M 1.46875 -4.796875 "/></g></g></g><g fill="#000000" fill-opacity="1"><g transform="translate(309.37799, 410.103048)"><g><path d="M 3.015625 -4.875 C 3.597656 -4.875 4.066406 -4.695312 4.421875 -4.34375 C 4.785156 -4 4.96875 -3.492188 4.96875 -2.828125 L 4.96875 0 L 4.1875 0 L 4.1875 -2.71875 C 4.1875 -3.195312 4.066406 -3.5625 3.828125 -3.8125 C 3.585938 -4.0625 3.257812 -4.1875 2.84375 -4.1875 C 2.425781 -4.1875 2.09375 -4.054688 1.84375 -3.796875 C 1.59375 -3.535156 1.46875 -3.15625 1.46875 -2.65625 L 1.46875 0 L 0.671875 0 L 0.671875 -4.796875 L 1.46875 -4.796875 L 1.46875 -4.109375 C 1.625 -4.359375 1.835938 -4.546875 2.109375 -4.671875 C 2.378906 -4.804688 2.679688 -4.875 3.015625 -4.875 Z M 3.015625 -4.875 "/></g></g></g><g fill="#000000" fill-opacity="1"><g transform="translate(314.973881, 410.103048)"><g><path d="M 5.046875 -2.578125 C 5.046875 -2.429688 5.035156 -2.269531 5.015625 -2.09375 L 1.1875 -2.09375 C 1.21875 -1.625 1.378906 -1.253906 1.671875 -0.984375 C 1.972656 -0.722656 2.332031 -0.59375 2.75 -0.59375 C 3.09375 -0.59375 3.378906 -0.671875 3.609375 -0.828125 C 3.835938 -0.992188 4 -1.210938 4.09375 -1.484375 L 4.953125 -1.484375 C 4.828125 -1.015625 4.570312 -0.632812 4.1875 -0.34375 C 3.800781 -0.0625 3.320312 0.078125 2.75 0.078125 C 2.289062 0.078125 1.878906 -0.0195312 1.515625 -0.21875 C 1.160156 -0.425781 0.878906 -0.71875 0.671875 -1.09375 C 0.472656 -1.46875 0.375 -1.90625 0.375 -2.40625 C 0.375 -2.90625 0.472656 -3.335938 0.671875 -3.703125 C 0.867188 -4.078125 1.144531 -4.363281 1.5 -4.5625 C 1.863281 -4.769531 2.28125 -4.875 2.75 -4.875 C 3.207031 -4.875 3.609375 -4.773438 3.953125 -4.578125 C 4.304688 -4.378906 4.578125 -4.101562 4.765625 -3.75 C 4.953125 -3.40625 5.046875 -3.015625 5.046875 -2.578125 Z M 4.21875 -2.75 C 4.21875 -3.050781 4.148438 -3.3125 4.015625 -3.53125 C 3.890625 -3.75 3.707031 -3.914062 3.46875 -4.03125 C 3.238281 -4.144531 2.988281 -4.203125 2.71875 -4.203125 C 2.3125 -4.203125 1.96875 -4.070312 1.6875 -3.8125 C 1.40625 -3.5625 1.242188 -3.207031 1.203125 -2.75 Z M 4.21875 -2.75 "/></g></g></g><g fill="#000000" fill-opacity="1"><g transform="translate(320.394901, 410.103048)"><g><path d="M 2.375 0.078125 C 2 0.078125 1.664062 0.015625 1.375 -0.109375 C 1.082031 -0.234375 0.851562 -0.40625 0.6875 -0.625 C 0.519531 -0.851562 0.425781 -1.113281 0.40625 -1.40625 L 1.234375 -1.40625 C 1.253906 -1.164062 1.363281 -0.96875 1.5625 -0.8125 C 1.769531 -0.664062 2.035156 -0.59375 2.359375 -0.59375 C 2.660156 -0.59375 2.898438 -0.660156 3.078125 -0.796875 C 3.253906 -0.929688 3.34375 -1.097656 3.34375 -1.296875 C 3.34375 -1.515625 3.25 -1.671875 3.0625 -1.765625 C 2.875 -1.867188 2.585938 -1.972656 2.203125 -2.078125 C 1.835938 -2.171875 1.539062 -2.265625 1.3125 -2.359375 C 1.09375 -2.453125 0.898438 -2.59375 0.734375 -2.78125 C 0.578125 -2.976562 0.5 -3.226562 0.5 -3.53125 C 0.5 -3.78125 0.570312 -4.003906 0.71875 -4.203125 C 0.863281 -4.410156 1.070312 -4.570312 1.34375 -4.6875 C 1.613281 -4.8125 1.921875 -4.875 2.265625 -4.875 C 2.796875 -4.875 3.222656 -4.738281 3.546875 -4.46875 C 3.878906 -4.195312 4.054688 -3.832031 4.078125 -3.375 L 3.28125 -3.375 C 3.257812 -3.625 3.15625 -3.820312 2.96875 -3.96875 C 2.789062 -4.125 2.546875 -4.203125 2.234375 -4.203125 C 1.953125 -4.203125 1.722656 -4.140625 1.546875 -4.015625 C 1.378906 -3.890625 1.296875 -3.726562 1.296875 -3.53125 C 1.296875 -3.375 1.347656 -3.242188 1.453125 -3.140625 C 1.554688 -3.046875 1.6875 -2.96875 1.84375 -2.90625 C 2 -2.84375 2.210938 -2.769531 2.484375 -2.6875 C 2.828125 -2.601562 3.109375 -2.515625 3.328125 -2.421875 C 3.546875 -2.328125 3.726562 -2.1875 3.875 -2 C 4.03125 -1.820312 4.113281 -1.585938 4.125 -1.296875 C 4.125 -1.035156 4.050781 -0.800781 3.90625 -0.59375 C 3.757812 -0.382812 3.550781 -0.21875 3.28125 -0.09375 C 3.019531 0.0195312 2.71875 0.078125 2.375 0.078125 Z M 2.375 0.078125 "/></g></g></g><g fill="#000000" fill-opacity="1"><g transform="translate(324.959053, 410.103048)"><g><path d="M 1.640625 -4.140625 L 1.640625 -1.3125 C 1.640625 -1.082031 1.6875 -0.914062 1.78125 -0.8125 C 1.882812 -0.71875 2.0625 -0.671875 2.3125 -0.671875 L 2.890625 -0.671875 L 2.890625 0 L 2.171875 0 C 1.734375 0 1.398438 -0.0976562 1.171875 -0.296875 C 0.953125 -0.503906 0.84375 -0.84375 0.84375 -1.3125 L 0.84375 -4.140625 L 0.234375 -4.140625 L 0.234375 -4.796875 L 0.84375 -4.796875 L 0.84375 -6 L 1.640625 -6 L 1.640625 -4.796875 L 2.890625 -4.796875 L 2.890625 -4.140625 Z M 1.640625 -4.140625 "/></g></g></g><g fill="#000000" fill-opacity="1"><g transform="translate(328.141716, 410.103048)"><g><path d="M 3.046875 -4.875 C 3.410156 -4.875 3.738281 -4.796875 4.03125 -4.640625 C 4.320312 -4.492188 4.550781 -4.265625 4.71875 -3.953125 C 4.882812 -3.640625 4.96875 -3.265625 4.96875 -2.828125 L 4.96875 0 L 4.1875 0 L 4.1875 -2.71875 C 4.1875 -3.195312 4.066406 -3.5625 3.828125 -3.8125 C 3.585938 -4.0625 3.257812 -4.1875 2.84375 -4.1875 C 2.425781 -4.1875 2.09375 -4.054688 1.84375 -3.796875 C 1.59375 -3.535156 1.46875 -3.15625 1.46875 -2.65625 L 1.46875 0 L 0.671875 0 L 0.671875 -6.46875 L 1.46875 -6.46875 L 1.46875 -4.109375 C 1.625 -4.359375 1.835938 -4.546875 2.109375 -4.671875 C 2.390625 -4.804688 2.703125 -4.875 3.046875 -4.875 Z M 3.046875 -4.875 "/></g></g></g><g fill="#000000" fill-opacity="1"><g transform="translate(333.737608, 410.103048)"><g><path d="M 5.046875 -2.578125 C 5.046875 -2.429688 5.035156 -2.269531 5.015625 -2.09375 L 1.1875 -2.09375 C 1.21875 -1.625 1.378906 -1.253906 1.671875 -0.984375 C 1.972656 -0.722656 2.332031 -0.59375 2.75 -0.59375 C 3.09375 -0.59375 3.378906 -0.671875 3.609375 -0.828125 C 3.835938 -0.992188 4 -1.210938 4.09375 -1.484375 L 4.953125 -1.484375 C 4.828125 -1.015625 4.570312 -0.632812 4.1875 -0.34375 C 3.800781 -0.0625 3.320312 0.078125 2.75 0.078125 C 2.289062 0.078125 1.878906 -0.0195312 1.515625 -0.21875 C 1.160156 -0.425781 0.878906 -0.71875 0.671875 -1.09375 C 0.472656 -1.46875 0.375 -1.90625 0.375 -2.40625 C 0.375 -2.90625 0.472656 -3.335938 0.671875 -3.703125 C 0.867188 -4.078125 1.144531 -4.363281 1.5 -4.5625 C 1.863281 -4.769531 2.28125 -4.875 2.75 -4.875 C 3.207031 -4.875 3.609375 -4.773438 3.953125 -4.578125 C 4.304688 -4.378906 4.578125 -4.101562 4.765625 -3.75 C 4.953125 -3.40625 5.046875 -3.015625 5.046875 -2.578125 Z M 4.21875 -2.75 C 4.21875 -3.050781 4.148438 -3.3125 4.015625 -3.53125 C 3.890625 -3.75 3.707031 -3.914062 3.46875 -4.03125 C 3.238281 -4.144531 2.988281 -4.203125 2.71875 -4.203125 C 2.3125 -4.203125 1.96875 -4.070312 1.6875 -3.8125 C 1.40625 -3.5625 1.242188 -3.207031 1.203125 -2.75 Z M 4.21875 -2.75 "/></g></g></g><g fill="#000000" fill-opacity="1"><g transform="translate(339.158628, 410.103048)"><g><path d="M 1.640625 -4.140625 L 1.640625 -1.3125 C 1.640625 -1.082031 1.6875 -0.914062 1.78125 -0.8125 C 1.882812 -0.71875 2.0625 -0.671875 2.3125 -0.671875 L 2.890625 -0.671875 L 2.890625 0 L 2.171875 0 C 1.734375 0 1.398438 -0.0976562 1.171875 -0.296875 C 0.953125 -0.503906 0.84375 -0.84375 0.84375 -1.3125 L 0.84375 -4.140625 L 0.234375 -4.140625 L 0.234375 -4.796875 L 0.84375 -4.796875 L 0.84375 -6 L 1.640625 -6 L 1.640625 -4.796875 L 2.890625 -4.796875 L 2.890625 -4.140625 Z M 1.640625 -4.140625 "/></g></g></g><g fill="#000000" fill-opacity="1"><g transform="translate(342.341292, 410.103048)"><g><path d="M 1.078125 -5.578125 C 0.929688 -5.578125 0.804688 -5.628906 0.703125 -5.734375 C 0.597656 -5.835938 0.546875 -5.960938 0.546875 -6.109375 C 0.546875 -6.265625 0.597656 -6.394531 0.703125 -6.5 C 0.804688 -6.601562 0.929688 -6.65625 1.078125 -6.65625 C 1.222656 -6.65625 1.347656 -6.601562 1.453125 -6.5 C 1.554688 -6.394531 1.609375 -6.265625 1.609375 -6.109375 C 1.609375 -5.960938 1.554688 -5.835938 1.453125 -5.734375 C 1.347656 -5.628906 1.222656 -5.578125 1.078125 -5.578125 Z M 1.46875 -4.796875 L 1.46875 0 L 0.671875 0 L 0.671875 -4.796875 Z M 1.46875 -4.796875 "/></g></g></g><g fill="#000000" fill-opacity="1"><g transform="translate(344.49221, 410.103048)"><g><path d="M 0.375 -2.40625 C 0.375 -2.90625 0.472656 -3.335938 0.671875 -3.703125 C 0.867188 -4.078125 1.144531 -4.363281 1.5 -4.5625 C 1.851562 -4.769531 2.257812 -4.875 2.71875 -4.875 C 3.300781 -4.875 3.785156 -4.726562 4.171875 -4.4375 C 4.554688 -4.15625 4.804688 -3.757812 4.921875 -3.25 L 4.0625 -3.25 C 3.988281 -3.539062 3.832031 -3.769531 3.59375 -3.9375 C 3.351562 -4.113281 3.0625 -4.203125 2.71875 -4.203125 C 2.257812 -4.203125 1.890625 -4.046875 1.609375 -3.734375 C 1.328125 -3.421875 1.1875 -2.976562 1.1875 -2.40625 C 1.1875 -1.832031 1.328125 -1.382812 1.609375 -1.0625 C 1.890625 -0.75 2.257812 -0.59375 2.71875 -0.59375 C 3.0625 -0.59375 3.347656 -0.671875 3.578125 -0.828125 C 3.816406 -0.992188 3.976562 -1.234375 4.0625 -1.546875 L 4.921875 -1.546875 C 4.796875 -1.054688 4.539062 -0.660156 4.15625 -0.359375 C 3.769531 -0.0664062 3.289062 0.078125 2.71875 0.078125 C 2.257812 0.078125 1.851562 -0.0195312 1.5 -0.21875 C 1.144531 -0.425781 0.867188 -0.71875 0.671875 -1.09375 C 0.472656 -1.46875 0.375 -1.90625 0.375 -2.40625 Z M 0.375 -2.40625 "/></g></g></g><g fill="#000000" fill-opacity="1"><g transform="translate(398.194474, 410.103048)"><g><path d="M 3.890625 0 L 2.4375 -2.5 L 1.46875 -2.5 L 1.46875 0 L 0.671875 0 L 0.671875 -6.09375 L 2.640625 -6.09375 C 3.097656 -6.09375 3.484375 -6.015625 3.796875 -5.859375 C 4.117188 -5.703125 4.359375 -5.488281 4.515625 -5.21875 C 4.679688 -4.957031 4.765625 -4.65625 4.765625 -4.3125 C 4.765625 -3.882812 4.640625 -3.507812 4.390625 -3.1875 C 4.148438 -2.875 3.789062 -2.664062 3.3125 -2.5625 L 4.84375 0 Z M 1.46875 -3.125 L 2.640625 -3.125 C 3.078125 -3.125 3.398438 -3.226562 3.609375 -3.4375 C 3.828125 -3.65625 3.9375 -3.945312 3.9375 -4.3125 C 3.9375 -4.664062 3.828125 -4.941406 3.609375 -5.140625 C 3.398438 -5.335938 3.078125 -5.4375 2.640625 -5.4375 L 1.46875 -5.4375 Z M 1.46875 -3.125 "/></g></g></g><g fill="#000000" fill-opacity="1"><g transform="translate(403.510571, 410.103048)"><g><path d="M 5.046875 -2.578125 C 5.046875 -2.429688 5.035156 -2.269531 5.015625 -2.09375 L 1.1875 -2.09375 C 1.21875 -1.625 1.378906 -1.253906 1.671875 -0.984375 C 1.972656 -0.722656 2.332031 -0.59375 2.75 -0.59375 C 3.09375 -0.59375 3.378906 -0.671875 3.609375 -0.828125 C 3.835938 -0.992188 4 -1.210938 4.09375 -1.484375 L 4.953125 -1.484375 C 4.828125 -1.015625 4.570312 -0.632812 4.1875 -0.34375 C 3.800781 -0.0625 3.320312 0.078125 2.75 0.078125 C 2.289062 0.078125 1.878906 -0.0195312 1.515625 -0.21875 C 1.160156 -0.425781 0.878906 -0.71875 0.671875 -1.09375 C 0.472656 -1.46875 0.375 -1.90625 0.375 -2.40625 C 0.375 -2.90625 0.472656 -3.335938 0.671875 -3.703125 C 0.867188 -4.078125 1.144531 -4.363281 1.5 -4.5625 C 1.863281 -4.769531 2.28125 -4.875 2.75 -4.875 C 3.207031 -4.875 3.609375 -4.773438 3.953125 -4.578125 C 4.304688 -4.378906 4.578125 -4.101562 4.765625 -3.75 C 4.953125 -3.40625 5.046875 -3.015625 5.046875 -2.578125 Z M 4.21875 -2.75 C 4.21875 -3.050781 4.148438 -3.3125 4.015625 -3.53125 C 3.890625 -3.75 3.707031 -3.914062 3.46875 -4.03125 C 3.238281 -4.144531 2.988281 -4.203125 2.71875 -4.203125 C 2.3125 -4.203125 1.96875 -4.070312 1.6875 -3.8125 C 1.40625 -3.5625 1.242188 -3.207031 1.203125 -2.75 Z M 4.21875 -2.75 "/></g></g></g><g fill="#000000" fill-opacity="1"><g transform="translate(408.931591, 410.103048)"><g><path d="M 0.375 -2.421875 C 0.375 -2.910156 0.472656 -3.335938 0.671875 -3.703125 C 0.867188 -4.078125 1.140625 -4.363281 1.484375 -4.5625 C 1.835938 -4.769531 2.226562 -4.875 2.65625 -4.875 C 3.070312 -4.875 3.429688 -4.78125 3.734375 -4.59375 C 4.046875 -4.414062 4.28125 -4.191406 4.4375 -3.921875 L 4.4375 -4.796875 L 5.234375 -4.796875 L 5.234375 0 L 4.4375 0 L 4.4375 -0.890625 C 4.28125 -0.609375 4.046875 -0.375 3.734375 -0.1875 C 3.421875 -0.0078125 3.054688 0.078125 2.640625 0.078125 C 2.210938 0.078125 1.828125 -0.0234375 1.484375 -0.234375 C 1.140625 -0.441406 0.867188 -0.734375 0.671875 -1.109375 C 0.472656 -1.492188 0.375 -1.929688 0.375 -2.421875 Z M 4.4375 -2.40625 C 4.4375 -2.769531 4.363281 -3.082031 4.21875 -3.34375 C 4.070312 -3.613281 3.875 -3.820312 3.625 -3.96875 C 3.375 -4.113281 3.101562 -4.1875 2.8125 -4.1875 C 2.507812 -4.1875 2.234375 -4.113281 1.984375 -3.96875 C 1.742188 -3.832031 1.550781 -3.628906 1.40625 -3.359375 C 1.257812 -3.085938 1.1875 -2.773438 1.1875 -2.421875 C 1.1875 -2.046875 1.257812 -1.722656 1.40625 -1.453125 C 1.550781 -1.179688 1.742188 -0.972656 1.984375 -0.828125 C 2.234375 -0.691406 2.507812 -0.625 2.8125 -0.625 C 3.101562 -0.625 3.375 -0.691406 3.625 -0.828125 C 3.875 -0.972656 4.070312 -1.179688 4.21875 -1.453125 C 4.363281 -1.722656 4.4375 -2.039062 4.4375 -2.40625 Z M 4.4375 -2.40625 "/></g></g></g><g fill="#000000" fill-opacity="1"><g transform="translate(414.842254, 410.103048)"><g><path d="M 0.375 -2.421875 C 0.375 -2.910156 0.472656 -3.335938 0.671875 -3.703125 C 0.867188 -4.078125 1.140625 -4.363281 1.484375 -4.5625 C 1.835938 -4.769531 2.226562 -4.875 2.65625 -4.875 C 3.03125 -4.875 3.378906 -4.785156 3.703125 -4.609375 C 4.023438 -4.441406 4.269531 -4.21875 4.4375 -3.9375 L 4.4375 -6.46875 L 5.234375 -6.46875 L 5.234375 0 L 4.4375 0 L 4.4375 -0.90625 C 4.28125 -0.613281 4.046875 -0.375 3.734375 -0.1875 C 3.421875 -0.0078125 3.0625 0.078125 2.65625 0.078125 C 2.226562 0.078125 1.835938 -0.0234375 1.484375 -0.234375 C 1.140625 -0.441406 0.867188 -0.734375 0.671875 -1.109375 C 0.472656 -1.492188 0.375 -1.929688 0.375 -2.421875 Z M 4.4375 -2.40625 C 4.4375 -2.769531 4.363281 -3.082031 4.21875 -3.34375 C 4.070312 -3.613281 3.875 -3.820312 3.625 -3.96875 C 3.375 -4.113281 3.101562 -4.1875 2.8125 -4.1875 C 2.507812 -4.1875 2.234375 -4.113281 1.984375 -3.96875 C 1.742188 -3.832031 1.550781 -3.628906 1.40625 -3.359375 C 1.257812 -3.085938 1.1875 -2.773438 1.1875 -2.421875 C 1.1875 -2.046875 1.257812 -1.722656 1.40625 -1.453125 C 1.550781 -1.179688 1.742188 -0.972656 1.984375 -0.828125 C 2.234375 -0.691406 2.507812 -0.625 2.8125 -0.625 C 3.101562 -0.625 3.375 -0.691406 3.625 -0.828125 C 3.875 -0.972656 4.070312 -1.179688 4.21875 -1.453125 C 4.363281 -1.722656 4.4375 -2.039062 4.4375 -2.40625 Z M 4.4375 -2.40625 "/></g></g></g><g fill="#000000" fill-opacity="1"><g transform="translate(420.752916, 410.103048)"><g><path d="M 1.078125 -5.578125 C 0.929688 -5.578125 0.804688 -5.628906 0.703125 -5.734375 C 0.597656 -5.835938 0.546875 -5.960938 0.546875 -6.109375 C 0.546875 -6.265625 0.597656 -6.394531 0.703125 -6.5 C 0.804688 -6.601562 0.929688 -6.65625 1.078125 -6.65625 C 1.222656 -6.65625 1.347656 -6.601562 1.453125 -6.5 C 1.554688 -6.394531 1.609375 -6.265625 1.609375 -6.109375 C 1.609375 -5.960938 1.554688 -5.835938 1.453125 -5.734375 C 1.347656 -5.628906 1.222656 -5.578125 1.078125 -5.578125 Z M 1.46875 -4.796875 L 1.46875 0 L 0.671875 0 L 0.671875 -4.796875 Z M 1.46875 -4.796875 "/></g></g></g><g fill="#000000" fill-opacity="1"><g transform="translate(422.903834, 410.103048)"><g><path d="M 3.015625 -4.875 C 3.597656 -4.875 4.066406 -4.695312 4.421875 -4.34375 C 4.785156 -4 4.96875 -3.492188 4.96875 -2.828125 L 4.96875 0 L 4.1875 0 L 4.1875 -2.71875 C 4.1875 -3.195312 4.066406 -3.5625 3.828125 -3.8125 C 3.585938 -4.0625 3.257812 -4.1875 2.84375 -4.1875 C 2.425781 -4.1875 2.09375 -4.054688 1.84375 -3.796875 C 1.59375 -3.535156 1.46875 -3.15625 1.46875 -2.65625 L 1.46875 0 L 0.671875 0 L 0.671875 -4.796875 L 1.46875 -4.796875 L 1.46875 -4.109375 C 1.625 -4.359375 1.835938 -4.546875 2.109375 -4.671875 C 2.378906 -4.804688 2.679688 -4.875 3.015625 -4.875 Z M 3.015625 -4.875 "/></g></g></g><g fill="#000000" fill-opacity="1"><g transform="translate(428.499726, 410.103048)"><g><path d="M 2.65625 -4.875 C 3.0625 -4.875 3.421875 -4.78125 3.734375 -4.59375 C 4.046875 -4.414062 4.28125 -4.191406 4.4375 -3.921875 L 4.4375 -4.796875 L 5.234375 -4.796875 L 5.234375 0.109375 C 5.234375 0.546875 5.140625 0.929688 4.953125 1.265625 C 4.773438 1.609375 4.507812 1.875 4.15625 2.0625 C 3.8125 2.257812 3.410156 2.359375 2.953125 2.359375 C 2.316406 2.359375 1.789062 2.207031 1.375 1.90625 C 0.957031 1.613281 0.707031 1.210938 0.625 0.703125 L 1.421875 0.703125 C 1.503906 0.992188 1.679688 1.226562 1.953125 1.40625 C 2.234375 1.582031 2.566406 1.671875 2.953125 1.671875 C 3.390625 1.671875 3.742188 1.53125 4.015625 1.25 C 4.296875 0.976562 4.4375 0.597656 4.4375 0.109375 L 4.4375 -0.90625 C 4.28125 -0.625 4.046875 -0.390625 3.734375 -0.203125 C 3.421875 -0.015625 3.0625 0.078125 2.65625 0.078125 C 2.226562 0.078125 1.835938 -0.0234375 1.484375 -0.234375 C 1.140625 -0.441406 0.867188 -0.734375 0.671875 -1.109375 C 0.472656 -1.492188 0.375 -1.929688 0.375 -2.421875 C 0.375 -2.910156 0.472656 -3.335938 0.671875 -3.703125 C 0.867188 -4.078125 1.140625 -4.363281 1.484375 -4.5625 C 1.835938 -4.769531 2.226562 -4.875 2.65625 -4.875 Z M 4.4375 -2.40625 C 4.4375 -2.769531 4.363281 -3.082031 4.21875 -3.34375 C 4.070312 -3.613281 3.875 -3.820312 3.625 -3.96875 C 3.375 -4.113281 3.101562 -4.1875 2.8125 -4.1875 C 2.507812 -4.1875 2.234375 -4.113281 1.984375 -3.96875 C 1.742188 -3.832031 1.550781 -3.628906 1.40625 -3.359375 C 1.257812 -3.085938 1.1875 -2.773438 1.1875 -2.421875 C 1.1875 -2.046875 1.257812 -1.722656 1.40625 -1.453125 C 1.550781 -1.179688 1.742188 -0.972656 1.984375 -0.828125 C 2.234375 -0.691406 2.507812 -0.625 2.8125 -0.625 C 3.101562 -0.625 3.375 -0.691406 3.625 -0.828125 C 3.875 -0.972656 4.070312 -1.179688 4.21875 -1.453125 C 4.363281 -1.722656 4.4375 -2.039062 4.4375 -2.40625 Z M 4.4375 -2.40625 "/></g></g></g><g fill="#000000" fill-opacity="1"><g transform="translate(434.410388, 410.103048)"><g><path d="M 3.65625 -8.25 L 1.25 1.484375 L 0.46875 1.484375 L 2.859375 -8.25 Z M 3.65625 -8.25 "/></g></g></g><g fill="#000000" fill-opacity="1"><g transform="translate(438.57233, 410.103048)"><g><path d="M 8.34375 -6.09375 L 6.578125 0 L 5.671875 0 L 4.265625 -4.90625 L 2.796875 0 L 1.90625 0.015625 L 0.203125 -6.09375 L 1.046875 -6.09375 L 2.375 -0.921875 L 3.84375 -6.09375 L 4.75 -6.09375 L 6.140625 -0.9375 L 7.484375 -6.09375 Z M 8.34375 -6.09375 "/></g></g></g><g fill="#000000" fill-opacity="1"><g transform="translate(447.106067, 410.103048)"><g><path d="M 1.46875 -4.015625 C 1.613281 -4.285156 1.8125 -4.492188 2.0625 -4.640625 C 2.320312 -4.796875 2.640625 -4.875 3.015625 -4.875 L 3.015625 -4.0625 L 2.8125 -4.0625 C 1.914062 -4.0625 1.46875 -3.578125 1.46875 -2.609375 L 1.46875 0 L 0.671875 0 L 0.671875 -4.796875 L 1.46875 -4.796875 Z M 1.46875 -4.015625 "/></g></g></g><g fill="#000000" fill-opacity="1"><g transform="translate(450.367421, 410.103048)"><g><path d="M 1.078125 -5.578125 C 0.929688 -5.578125 0.804688 -5.628906 0.703125 -5.734375 C 0.597656 -5.835938 0.546875 -5.960938 0.546875 -6.109375 C 0.546875 -6.265625 0.597656 -6.394531 0.703125 -6.5 C 0.804688 -6.601562 0.929688 -6.65625 1.078125 -6.65625 C 1.222656 -6.65625 1.347656 -6.601562 1.453125 -6.5 C 1.554688 -6.394531 1.609375 -6.265625 1.609375 -6.109375 C 1.609375 -5.960938 1.554688 -5.835938 1.453125 -5.734375 C 1.347656 -5.628906 1.222656 -5.578125 1.078125 -5.578125 Z M 1.46875 -4.796875 L 1.46875 0 L 0.671875 0 L 0.671875 -4.796875 Z M 1.46875 -4.796875 "/></g></g></g><g fill="#000000" fill-opacity="1"><g transform="translate(452.518339, 410.103048)"><g><path d="M 1.640625 -4.140625 L 1.640625 -1.3125 C 1.640625 -1.082031 1.6875 -0.914062 1.78125 -0.8125 C 1.882812 -0.71875 2.0625 -0.671875 2.3125 -0.671875 L 2.890625 -0.671875 L 2.890625 0 L 2.171875 0 C 1.734375 0 1.398438 -0.0976562 1.171875 -0.296875 C 0.953125 -0.503906 0.84375 -0.84375 0.84375 -1.3125 L 0.84375 -4.140625 L 0.234375 -4.140625 L 0.234375 -4.796875 L 0.84375 -4.796875 L 0.84375 -6 L 1.640625 -6 L 1.640625 -4.796875 L 2.890625 -4.796875 L 2.890625 -4.140625 Z M 1.640625 -4.140625 "/></g></g></g><g fill="#000000" fill-opacity="1"><g transform="translate(455.701003, 410.103048)"><g><path d="M 1.078125 -5.578125 C 0.929688 -5.578125 0.804688 -5.628906 0.703125 -5.734375 C 0.597656 -5.835938 0.546875 -5.960938 0.546875 -6.109375 C 0.546875 -6.265625 0.597656 -6.394531 0.703125 -6.5 C 0.804688 -6.601562 0.929688 -6.65625 1.078125 -6.65625 C 1.222656 -6.65625 1.347656 -6.601562 1.453125 -6.5 C 1.554688 -6.394531 1.609375 -6.265625 1.609375 -6.109375 C 1.609375 -5.960938 1.554688 -5.835938 1.453125 -5.734375 C 1.347656 -5.628906 1.222656 -5.578125 1.078125 -5.578125 Z M 1.46875 -4.796875 L 1.46875 0 L 0.671875 0 L 0.671875 -4.796875 Z M 1.46875 -4.796875 "/></g></g></g><g fill="#000000" fill-opacity="1"><g transform="translate(457.851921, 410.103048)"><g><path d="M 3.015625 -4.875 C 3.597656 -4.875 4.066406 -4.695312 4.421875 -4.34375 C 4.785156 -4 4.96875 -3.492188 4.96875 -2.828125 L 4.96875 0 L 4.1875 0 L 4.1875 -2.71875 C 4.1875 -3.195312 4.066406 -3.5625 3.828125 -3.8125 C 3.585938 -4.0625 3.257812 -4.1875 2.84375 -4.1875 C 2.425781 -4.1875 2.09375 -4.054688 1.84375 -3.796875 C 1.59375 -3.535156 1.46875 -3.15625 1.46875 -2.65625 L 1.46875 0 L 0.671875 0 L 0.671875 -4.796875 L 1.46875 -4.796875 L 1.46875 -4.109375 C 1.625 -4.359375 1.835938 -4.546875 2.109375 -4.671875 C 2.378906 -4.804688 2.679688 -4.875 3.015625 -4.875 Z M 3.015625 -4.875 "/></g></g></g><g fill="#000000" fill-opacity="1"><g transform="translate(463.447813, 410.103048)"><g><path d="M 2.65625 -4.875 C 3.0625 -4.875 3.421875 -4.78125 3.734375 -4.59375 C 4.046875 -4.414062 4.28125 -4.191406 4.4375 -3.921875 L 4.4375 -4.796875 L 5.234375 -4.796875 L 5.234375 0.109375 C 5.234375 0.546875 5.140625 0.929688 4.953125 1.265625 C 4.773438 1.609375 4.507812 1.875 4.15625 2.0625 C 3.8125 2.257812 3.410156 2.359375 2.953125 2.359375 C 2.316406 2.359375 1.789062 2.207031 1.375 1.90625 C 0.957031 1.613281 0.707031 1.210938 0.625 0.703125 L 1.421875 0.703125 C 1.503906 0.992188 1.679688 1.226562 1.953125 1.40625 C 2.234375 1.582031 2.566406 1.671875 2.953125 1.671875 C 3.390625 1.671875 3.742188 1.53125 4.015625 1.25 C 4.296875 0.976562 4.4375 0.597656 4.4375 0.109375 L 4.4375 -0.90625 C 4.28125 -0.625 4.046875 -0.390625 3.734375 -0.203125 C 3.421875 -0.015625 3.0625 0.078125 2.65625 0.078125 C 2.226562 0.078125 1.835938 -0.0234375 1.484375 -0.234375 C 1.140625 -0.441406 0.867188 -0.734375 0.671875 -1.109375 C 0.472656 -1.492188 0.375 -1.929688 0.375 -2.421875 C 0.375 -2.910156 0.472656 -3.335938 0.671875 -3.703125 C 0.867188 -4.078125 1.140625 -4.363281 1.484375 -4.5625 C 1.835938 -4.769531 2.226562 -4.875 2.65625 -4.875 Z M 4.4375 -2.40625 C 4.4375 -2.769531 4.363281 -3.082031 4.21875 -3.34375 C 4.070312 -3.613281 3.875 -3.820312 3.625 -3.96875 C 3.375 -4.113281 3.101562 -4.1875 2.8125 -4.1875 C 2.507812 -4.1875 2.234375 -4.113281 1.984375 -3.96875 C 1.742188 -3.832031 1.550781 -3.628906 1.40625 -3.359375 C 1.257812 -3.085938 1.1875 -2.773438 1.1875 -2.421875 C 1.1875 -2.046875 1.257812 -1.722656 1.40625 -1.453125 C 1.550781 -1.179688 1.742188 -0.972656 1.984375 -0.828125 C 2.234375 -0.691406 2.507812 -0.625 2.8125 -0.625 C 3.101562 -0.625 3.375 -0.691406 3.625 -0.828125 C 3.875 -0.972656 4.070312 -1.179688 4.21875 -1.453125 C 4.363281 -1.722656 4.4375 -2.039062 4.4375 -2.40625 Z M 4.4375 -2.40625 "/></g></g></g><g fill="#000000" fill-opacity="1"><g transform="translate(49.589879, 400.126171)"><g><path d="M 0.546875 -3.234375 C 0.546875 -4.234375 0.707031 -5.015625 1.03125 -5.578125 C 1.351562 -6.140625 1.925781 -6.421875 2.75 -6.421875 C 3.5625 -6.421875 4.128906 -6.140625 4.453125 -5.578125 C 4.773438 -5.015625 4.9375 -4.234375 4.9375 -3.234375 C 4.9375 -2.210938 4.773438 -1.414062 4.453125 -0.84375 C 4.128906 -0.28125 3.5625 0 2.75 0 C 1.925781 0 1.351562 -0.28125 1.03125 -0.84375 C 0.707031 -1.414062 0.546875 -2.210938 0.546875 -3.234375 Z M 4.15625 -3.234375 C 4.15625 -3.734375 4.117188 -4.160156 4.046875 -4.515625 C 3.984375 -4.867188 3.847656 -5.15625 3.640625 -5.375 C 3.429688 -5.59375 3.132812 -5.703125 2.75 -5.703125 C 2.351562 -5.703125 2.050781 -5.59375 1.84375 -5.375 C 1.632812 -5.15625 1.492188 -4.867188 1.421875 -4.515625 C 1.359375 -4.160156 1.328125 -3.734375 1.328125 -3.234375 C 1.328125 -2.703125 1.359375 -2.257812 1.421875 -1.90625 C 1.492188 -1.550781 1.632812 -1.265625 1.84375 -1.046875 C 2.050781 -0.828125 2.351562 -0.71875 2.75 -0.71875 C 3.132812 -0.71875 3.429688 -0.828125 3.640625 -1.046875 C 3.847656 -1.265625 3.984375 -1.550781 4.046875 -1.90625 C 4.117188 -2.257812 4.15625 -2.703125 4.15625 -3.234375 Z M 4.15625 -3.234375 "/></g></g></g><g fill="#000000" fill-opacity="1"><g transform="translate(49.589879, 355.879454)"><g><path d="M 4.578125 -5.640625 L 1.5 -5.640625 L 1.5 -3.640625 C 1.632812 -3.828125 1.832031 -3.976562 2.09375 -4.09375 C 2.363281 -4.21875 2.648438 -4.28125 2.953125 -4.28125 C 3.429688 -4.28125 3.820312 -4.175781 4.125 -3.96875 C 4.425781 -3.769531 4.644531 -3.507812 4.78125 -3.1875 C 4.914062 -2.875 4.984375 -2.539062 4.984375 -2.1875 C 4.984375 -1.769531 4.898438 -1.394531 4.734375 -1.0625 C 4.578125 -0.726562 4.335938 -0.460938 4.015625 -0.265625 C 3.691406 -0.078125 3.289062 0.015625 2.8125 0.015625 C 2.207031 0.015625 1.710938 -0.140625 1.328125 -0.453125 C 0.953125 -0.765625 0.722656 -1.1875 0.640625 -1.71875 L 1.421875 -1.71875 C 1.492188 -1.382812 1.648438 -1.125 1.890625 -0.9375 C 2.140625 -0.75 2.453125 -0.65625 2.828125 -0.65625 C 3.285156 -0.65625 3.628906 -0.789062 3.859375 -1.0625 C 4.097656 -1.34375 4.21875 -1.710938 4.21875 -2.171875 C 4.21875 -2.628906 4.097656 -2.976562 3.859375 -3.21875 C 3.628906 -3.46875 3.285156 -3.59375 2.828125 -3.59375 C 2.523438 -3.59375 2.257812 -3.519531 2.03125 -3.375 C 1.800781 -3.226562 1.628906 -3.023438 1.515625 -2.765625 L 0.765625 -2.765625 L 0.765625 -6.328125 L 4.578125 -6.328125 Z M 4.578125 -5.640625 "/></g></g></g><g fill="#000000" fill-opacity="1"><g transform="translate(46.743132, 311.632973)"><g><path d="M 0.328125 -5.59375 L 0.328125 -6.328125 L 1.984375 -6.328125 L 1.984375 0 L 1.171875 0 L 1.171875 -5.59375 Z M 0.328125 -5.59375 "/></g></g></g><g fill="#000000" fill-opacity="1"><g transform="translate(49.541077, 311.632973)"><g><path d="M 0.546875 -3.234375 C 0.546875 -4.234375 0.707031 -5.015625 1.03125 -5.578125 C 1.351562 -6.140625 1.925781 -6.421875 2.75 -6.421875 C 3.5625 -6.421875 4.128906 -6.140625 4.453125 -5.578125 C 4.773438 -5.015625 4.9375 -4.234375 4.9375 -3.234375 C 4.9375 -2.210938 4.773438 -1.414062 4.453125 -0.84375 C 4.128906 -0.28125 3.5625 0 2.75 0 C 1.925781 0 1.351562 -0.28125 1.03125 -0.84375 C 0.707031 -1.414062 0.546875 -2.210938 0.546875 -3.234375 Z M 4.15625 -3.234375 C 4.15625 -3.734375 4.117188 -4.160156 4.046875 -4.515625 C 3.984375 -4.867188 3.847656 -5.15625 3.640625 -5.375 C 3.429688 -5.59375 3.132812 -5.703125 2.75 -5.703125 C 2.351562 -5.703125 2.050781 -5.59375 1.84375 -5.375 C 1.632812 -5.15625 1.492188 -4.867188 1.421875 -4.515625 C 1.359375 -4.160156 1.328125 -3.734375 1.328125 -3.234375 C 1.328125 -2.703125 1.359375 -2.257812 1.421875 -1.90625 C 1.492188 -1.550781 1.632812 -1.265625 1.84375 -1.046875 C 2.050781 -0.828125 2.351562 -0.71875 2.75 -0.71875 C 3.132812 -0.71875 3.429688 -0.828125 3.640625 -1.046875 C 3.847656 -1.265625 3.984375 -1.550781 4.046875 -1.90625 C 4.117188 -2.257812 4.15625 -2.703125 4.15625 -3.234375 Z M 4.15625 -3.234375 "/></g></g></g><g fill="#000000" fill-opacity="1"><g transform="translate(46.743132, 267.386726)"><g><path d="M 0.328125 -5.59375 L 0.328125 -6.328125 L 1.984375 -6.328125 L 1.984375 0 L 1.171875 0 L 1.171875 -5.59375 Z M 0.328125 -5.59375 "/></g></g></g><g fill="#000000" fill-opacity="1"><g transform="translate(49.541077, 267.386726)"><g><path d="M 4.578125 -5.640625 L 1.5 -5.640625 L 1.5 -3.640625 C 1.632812 -3.828125 1.832031 -3.976562 2.09375 -4.09375 C 2.363281 -4.21875 2.648438 -4.28125 2.953125 -4.28125 C 3.429688 -4.28125 3.820312 -4.175781 4.125 -3.96875 C 4.425781 -3.769531 4.644531 -3.507812 4.78125 -3.1875 C 4.914062 -2.875 4.984375 -2.539062 4.984375 -2.1875 C 4.984375 -1.769531 4.898438 -1.394531 4.734375 -1.0625 C 4.578125 -0.726562 4.335938 -0.460938 4.015625 -0.265625 C 3.691406 -0.078125 3.289062 0.015625 2.8125 0.015625 C 2.207031 0.015625 1.710938 -0.140625 1.328125 -0.453125 C 0.953125 -0.765625 0.722656 -1.1875 0.640625 -1.71875 L 1.421875 -1.71875 C 1.492188 -1.382812 1.648438 -1.125 1.890625 -0.9375 C 2.140625 -0.75 2.453125 -0.65625 2.828125 -0.65625 C 3.285156 -0.65625 3.628906 -0.789062 3.859375 -1.0625 C 4.097656 -1.34375 4.21875 -1.710938 4.21875 -2.171875 C 4.21875 -2.628906 4.097656 -2.976562 3.859375 -3.21875 C 3.628906 -3.46875 3.285156 -3.59375 2.828125 -3.59375 C 2.523438 -3.59375 2.257812 -3.519531 2.03125 -3.375 C 1.800781 -3.226562 1.628906 -3.023438 1.515625 -2.765625 L 0.765625 -2.765625 L 0.765625 -6.328125 L 4.578125 -6.328125 Z M 4.578125 -5.640625 "/></g></g></g><g fill="#000000" fill-opacity="1"><g transform="translate(44.545952, 223.140009)"><g><path d="M 0.453125 -0.640625 C 1.191406 -1.234375 1.769531 -1.71875 2.1875 -2.09375 C 2.601562 -2.476562 2.957031 -2.878906 3.25 -3.296875 C 3.539062 -3.710938 3.6875 -4.125 3.6875 -4.53125 C 3.6875 -4.90625 3.59375 -5.203125 3.40625 -5.421875 C 3.21875 -5.640625 2.921875 -5.75 2.515625 -5.75 C 2.117188 -5.75 1.8125 -5.625 1.59375 -5.375 C 1.375 -5.132812 1.257812 -4.804688 1.25 -4.390625 L 0.46875 -4.390625 C 0.488281 -5.046875 0.6875 -5.550781 1.0625 -5.90625 C 1.4375 -6.257812 1.921875 -6.4375 2.515625 -6.4375 C 3.109375 -6.4375 3.582031 -6.269531 3.9375 -5.9375 C 4.289062 -5.601562 4.46875 -5.144531 4.46875 -4.5625 C 4.46875 -4.082031 4.320312 -3.613281 4.03125 -3.15625 C 3.75 -2.695312 3.421875 -2.289062 3.046875 -1.9375 C 2.679688 -1.59375 2.210938 -1.191406 1.640625 -0.734375 L 4.65625 -0.734375 L 4.65625 -0.0625 L 0.453125 -0.0625 Z M 0.453125 -0.640625 "/></g></g></g><g fill="#000000" fill-opacity="1"><g transform="translate(49.573511, 223.140009)"><g><path d="M 0.546875 -3.234375 C 0.546875 -4.234375 0.707031 -5.015625 1.03125 -5.578125 C 1.351562 -6.140625 1.925781 -6.421875 2.75 -6.421875 C 3.5625 -6.421875 4.128906 -6.140625 4.453125 -5.578125 C 4.773438 -5.015625 4.9375 -4.234375 4.9375 -3.234375 C 4.9375 -2.210938 4.773438 -1.414062 4.453125 -0.84375 C 4.128906 -0.28125 3.5625 0 2.75 0 C 1.925781 0 1.351562 -0.28125 1.03125 -0.84375 C 0.707031 -1.414062 0.546875 -2.210938 0.546875 -3.234375 Z M 4.15625 -3.234375 C 4.15625 -3.734375 4.117188 -4.160156 4.046875 -4.515625 C 3.984375 -4.867188 3.847656 -5.15625 3.640625 -5.375 C 3.429688 -5.59375 3.132812 -5.703125 2.75 -5.703125 C 2.351562 -5.703125 2.050781 -5.59375 1.84375 -5.375 C 1.632812 -5.15625 1.492188 -4.867188 1.421875 -4.515625 C 1.359375 -4.160156 1.328125 -3.734375 1.328125 -3.234375 C 1.328125 -2.703125 1.359375 -2.257812 1.421875 -1.90625 C 1.492188 -1.550781 1.632812 -1.265625 1.84375 -1.046875 C 2.050781 -0.828125 2.351562 -0.71875 2.75 -0.71875 C 3.132812 -0.71875 3.429688 -0.828125 3.640625 -1.046875 C 3.847656 -1.265625 3.984375 -1.550781 4.046875 -1.90625 C 4.117188 -2.257812 4.15625 -2.703125 4.15625 -3.234375 Z M 4.15625 -3.234375 "/></g></g></g><g fill="#000000" fill-opacity="1"><g transform="translate(44.545952, 178.893762)"><g><path d="M 0.453125 -0.640625 C 1.191406 -1.234375 1.769531 -1.71875 2.1875 -2.09375 C 2.601562 -2.476562 2.957031 -2.878906 3.25 -3.296875 C 3.539062 -3.710938 3.6875 -4.125 3.6875 -4.53125 C 3.6875 -4.90625 3.59375 -5.203125 3.40625 -5.421875 C 3.21875 -5.640625 2.921875 -5.75 2.515625 -5.75 C 2.117188 -5.75 1.8125 -5.625 1.59375 -5.375 C 1.375 -5.132812 1.257812 -4.804688 1.25 -4.390625 L 0.46875 -4.390625 C 0.488281 -5.046875 0.6875 -5.550781 1.0625 -5.90625 C 1.4375 -6.257812 1.921875 -6.4375 2.515625 -6.4375 C 3.109375 -6.4375 3.582031 -6.269531 3.9375 -5.9375 C 4.289062 -5.601562 4.46875 -5.144531 4.46875 -4.5625 C 4.46875 -4.082031 4.320312 -3.613281 4.03125 -3.15625 C 3.75 -2.695312 3.421875 -2.289062 3.046875 -1.9375 C 2.679688 -1.59375 2.210938 -1.191406 1.640625 -0.734375 L 4.65625 -0.734375 L 4.65625 -0.0625 L 0.453125 -0.0625 Z M 0.453125 -0.640625 "/></g></g></g><g fill="#000000" fill-opacity="1"><g transform="translate(49.573511, 178.893762)"><g><path d="M 4.578125 -5.640625 L 1.5 -5.640625 L 1.5 -3.640625 C 1.632812 -3.828125 1.832031 -3.976562 2.09375 -4.09375 C 2.363281 -4.21875 2.648438 -4.28125 2.953125 -4.28125 C 3.429688 -4.28125 3.820312 -4.175781 4.125 -3.96875 C 4.425781 -3.769531 4.644531 -3.507812 4.78125 -3.1875 C 4.914062 -2.875 4.984375 -2.539062 4.984375 -2.1875 C 4.984375 -1.769531 4.898438 -1.394531 4.734375 -1.0625 C 4.578125 -0.726562 4.335938 -0.460938 4.015625 -0.265625 C 3.691406 -0.078125 3.289062 0.015625 2.8125 0.015625 C 2.207031 0.015625 1.710938 -0.140625 1.328125 -0.453125 C 0.953125 -0.765625 0.722656 -1.1875 0.640625 -1.71875 L 1.421875 -1.71875 C 1.492188 -1.382812 1.648438 -1.125 1.890625 -0.9375 C 2.140625 -0.75 2.453125 -0.65625 2.828125 -0.65625 C 3.285156 -0.65625 3.628906 -0.789062 3.859375 -1.0625 C 4.097656 -1.34375 4.21875 -1.710938 4.21875 -2.171875 C 4.21875 -2.628906 4.097656 -2.976562 3.859375 -3.21875 C 3.628906 -3.46875 3.285156 -3.59375 2.828125 -3.59375 C 2.523438 -3.59375 2.257812 -3.519531 2.03125 -3.375 C 1.800781 -3.226562 1.628906 -3.023438 1.515625 -2.765625 L 0.765625 -2.765625 L 0.765625 -6.328125 L 4.578125 -6.328125 Z M 4.578125 -5.640625 "/></g></g></g><g clip-path="url(#22fa9ee771)"><path fill="#1ad4e0" d="M 69.339844 370.144531 L 150.902344 370.144531 C 151.414062 370.144531 151.917969 370.195312 152.417969 370.292969 C 152.917969 370.394531 153.40625 370.539062 153.875 370.734375 C 154.347656 370.929688 154.792969 371.167969 155.21875 371.453125 C 155.644531 371.738281 156.035156 372.058594 156.394531 372.417969 C 156.757812 372.78125 157.078125 373.171875 157.363281 373.597656 C 157.644531 374.019531 157.882812 374.46875 158.078125 374.9375 C 158.273438 375.410156 158.421875 375.894531 158.523438 376.394531 C 158.621094 376.894531 158.671875 377.402344 158.671875 377.910156 L 158.671875 396.691406 C 158.671875 397.203125 158.621094 397.707031 158.523438 398.207031 C 158.421875 398.707031 158.273438 399.191406 158.078125 399.664062 C 157.882812 400.136719 157.644531 400.582031 157.363281 401.007812 C 157.078125 401.429688 156.757812 401.824219 156.394531 402.183594 C 156.035156 402.546875 155.644531 402.867188 155.21875 403.152344 C 154.792969 403.433594 154.347656 403.671875 153.875 403.867188 C 153.40625 404.0625 152.917969 404.210938 152.417969 404.308594 C 151.917969 404.410156 151.414062 404.460938 150.902344 404.460938 L 69.339844 404.460938 C 68.832031 404.460938 68.328125 404.410156 67.828125 404.308594 C 67.324219 404.210938 66.839844 404.0625 66.367188 403.867188 C 65.898438 403.671875 65.449219 403.433594 65.027344 403.152344 C 64.601562 402.867188 64.210938 402.546875 63.847656 402.183594 C 63.488281 401.824219 63.167969 401.429688 62.882812 401.007812 C 62.601562 400.582031 62.359375 400.136719 62.164062 399.664062 C 61.96875 399.191406 61.824219 398.707031 61.722656 398.207031 C 61.625 397.707031 61.574219 397.203125 61.574219 396.691406 L 61.574219 377.910156 C 61.574219 377.402344 61.625 376.894531 61.722656 376.394531 C 61.824219 375.894531 61.96875 375.410156 62.164062 374.9375 C 62.359375 374.46875 62.601562 374.019531 62.882812 373.597656 C 63.167969 373.171875 63.488281 372.78125 63.847656 372.417969 C 64.210938 372.058594 64.601562 371.738281 65.027344 371.453125 C 65.449219 371.167969 65.898438 370.929688 66.367188 370.734375 C 66.839844 370.539062 67.324219 370.394531 67.828125 370.292969 C 68.328125 370.195312 68.832031 370.144531 69.339844 370.144531 Z M 69.339844 370.144531 " fill-opacity="1" fill-rule="nonzero"/></g><g clip-path="url(#dfaace1cf5)"><path fill="#1ad4e0" d="M 177.226562 184.308594 L 258.789062 184.308594 C 259.296875 184.308594 259.804688 184.359375 260.304688 184.457031 C 260.804688 184.558594 261.289062 184.703125 261.761719 184.898438 C 262.230469 185.09375 262.679688 185.335938 263.105469 185.617188 C 263.527344 185.902344 263.921875 186.222656 264.28125 186.582031 C 264.640625 186.945312 264.964844 187.335938 265.246094 187.761719 C 265.53125 188.183594 265.769531 188.632812 265.964844 189.105469 C 266.160156 189.574219 266.308594 190.0625 266.40625 190.5625 C 266.507812 191.0625 266.554688 191.566406 266.554688 192.078125 L 266.554688 396.691406 C 266.554688 397.203125 266.507812 397.707031 266.40625 398.207031 C 266.308594 398.707031 266.160156 399.191406 265.964844 399.664062 C 265.769531 400.136719 265.53125 400.582031 265.246094 401.007812 C 264.964844 401.429688 264.640625 401.824219 264.28125 402.183594 C 263.921875 402.546875 263.527344 402.867188 263.105469 403.152344 C 262.679688 403.433594 262.230469 403.671875 261.761719 403.867188 C 261.289062 404.0625 260.804688 404.210938 260.304688 404.308594 C 259.804688 404.410156 259.296875 404.460938 258.789062 404.460938 L 177.226562 404.460938 C 176.71875 404.460938 176.210938 404.410156 175.710938 404.308594 C 175.210938 404.210938 174.726562 404.0625 174.253906 403.867188 C 173.785156 403.671875 173.335938 403.433594 172.910156 403.152344 C 172.488281 402.867188 172.09375 402.546875 171.734375 402.183594 C 171.375 401.824219 171.050781 401.429688 170.769531 401.007812 C 170.484375 400.582031 170.246094 400.136719 170.050781 399.664062 C 169.855469 399.191406 169.707031 398.707031 169.609375 398.207031 C 169.507812 397.707031 169.460938 397.203125 169.460938 396.691406 L 169.460938 192.078125 C 169.460938 191.566406 169.507812 191.0625 169.609375 190.5625 C 169.707031 190.0625 169.855469 189.574219 170.050781 189.105469 C 170.246094 188.632812 170.484375 188.183594 170.769531 187.761719 C 171.050781 187.335938 171.375 186.945312 171.734375 186.582031 C 172.09375 186.222656 172.488281 185.902344 172.910156 185.617188 C 173.335938 185.335938 173.785156 185.09375 174.253906 184.898438 C 174.726562 184.703125 175.210938 184.558594 175.710938 184.457031 C 176.210938 184.359375 176.71875 184.308594 177.226562 184.308594 Z M 177.226562 184.308594 " fill-opacity="1" fill-rule="nonzero"/></g><g clip-path="url(#1b687b0656)"><path fill="#1ad4e0" d="M 285.113281 202.007812 L 366.675781 202.007812 C 367.183594 202.007812 367.6875 202.058594 368.1875 202.15625 C 368.691406 202.257812 369.175781 202.402344 369.648438 202.597656 C 370.117188 202.792969 370.566406 203.03125 370.988281 203.316406 C 371.414062 203.601562 371.804688 203.921875 372.167969 204.28125 C 372.527344 204.644531 372.847656 205.035156 373.132812 205.460938 C 373.414062 205.882812 373.65625 206.332031 373.851562 206.800781 C 374.046875 207.273438 374.191406 207.757812 374.292969 208.257812 C 374.390625 208.761719 374.441406 209.265625 374.441406 209.773438 L 374.441406 396.691406 C 374.441406 397.203125 374.390625 397.707031 374.292969 398.207031 C 374.191406 398.707031 374.046875 399.191406 373.851562 399.664062 C 373.65625 400.136719 373.414062 400.582031 373.132812 401.007812 C 372.847656 401.429688 372.527344 401.824219 372.167969 402.183594 C 371.804688 402.546875 371.414062 402.867188 370.988281 403.152344 C 370.566406 403.433594 370.117188 403.671875 369.648438 403.867188 C 369.175781 404.0625 368.691406 404.210938 368.1875 404.308594 C 367.6875 404.410156 367.183594 404.460938 366.675781 404.460938 L 285.113281 404.460938 C 284.601562 404.460938 284.097656 404.410156 283.597656 404.308594 C 283.097656 404.210938 282.609375 404.0625 282.140625 403.867188 C 281.667969 403.671875 281.222656 403.433594 280.796875 403.152344 C 280.371094 402.867188 279.980469 402.546875 279.621094 402.183594 C 279.257812 401.824219 278.9375 401.429688 278.652344 401.007812 C 278.371094 400.582031 278.132812 400.136719 277.9375 399.664062 C 277.742188 399.191406 277.59375 398.707031 277.492188 398.207031 C 277.394531 397.707031 277.34375 397.203125 277.34375 396.691406 L 277.34375 209.773438 C 277.34375 209.265625 277.394531 208.761719 277.492188 208.257812 C 277.59375 207.757812 277.742188 207.273438 277.9375 206.800781 C 278.132812 206.332031 278.371094 205.882812 278.652344 205.460938 C 278.9375 205.035156 279.257812 204.644531 279.621094 204.28125 C 279.980469 203.921875 280.371094 203.601562 280.796875 203.316406 C 281.222656 203.03125 281.667969 202.792969 282.140625 202.597656 C 282.609375 202.402344 283.097656 202.257812 283.597656 202.15625 C 284.097656 202.058594 284.601562 202.007812 285.113281 202.007812 Z M 285.113281 202.007812 " fill-opacity="1" fill-rule="nonzero"/></g><g clip-path="url(#851f6e4aff)"><path fill="#1ad4e0" d="M 392.996094 352.445312 L 474.558594 352.445312 C 475.070312 352.445312 475.574219 352.496094 476.074219 352.59375 C 476.574219 352.695312 477.0625 352.839844 477.53125 353.035156 C 478.003906 353.230469 478.449219 353.472656 478.875 353.753906 C 479.300781 354.039062 479.691406 354.359375 480.050781 354.71875 C 480.414062 355.082031 480.734375 355.472656 481.019531 355.898438 C 481.300781 356.320312 481.539062 356.769531 481.734375 357.242188 C 481.929688 357.710938 482.078125 358.199219 482.179688 358.699219 C 482.277344 359.199219 482.328125 359.703125 482.328125 360.214844 L 482.328125 396.691406 C 482.328125 397.203125 482.277344 397.707031 482.179688 398.207031 C 482.078125 398.707031 481.929688 399.191406 481.734375 399.664062 C 481.539062 400.136719 481.300781 400.582031 481.019531 401.007812 C 480.734375 401.429688 480.414062 401.824219 480.050781 402.183594 C 479.691406 402.546875 479.300781 402.867188 478.875 403.152344 C 478.449219 403.433594 478.003906 403.671875 477.53125 403.867188 C 477.0625 404.0625 476.574219 404.210938 476.074219 404.308594 C 475.574219 404.410156 475.070312 404.460938 474.558594 404.460938 L 392.996094 404.460938 C 392.488281 404.460938 391.984375 404.410156 391.484375 404.308594 C 390.980469 404.210938 390.496094 404.0625 390.023438 403.867188 C 389.554688 403.671875 389.105469 403.433594 388.683594 403.152344 C 388.257812 402.867188 387.867188 402.546875 387.503906 402.183594 C 387.144531 401.824219 386.824219 401.429688 386.539062 401.007812 C 386.257812 400.582031 386.015625 400.136719 385.820312 399.664062 C 385.625 399.191406 385.480469 398.707031 385.378906 398.207031 C 385.28125 397.707031 385.230469 397.203125 385.230469 396.691406 L 385.230469 360.214844 C 385.230469 359.703125 385.28125 359.199219 385.378906 358.699219 C 385.480469 358.199219 385.625 357.710938 385.820312 357.242188 C 386.015625 356.769531 386.257812 356.320312 386.539062 355.898438 C 386.824219 355.472656 387.144531 355.082031 387.503906 354.71875 C 387.867188 354.359375 388.257812 354.039062 388.683594 353.753906 C 389.105469 353.472656 389.554688 353.230469 390.023438 353.035156 C 390.496094 352.839844 390.980469 352.695312 391.484375 352.59375 C 391.984375 352.496094 392.488281 352.445312 392.996094 352.445312 Z M 392.996094 352.445312 " fill-opacity="1" fill-rule="nonzero"/></g></svg>