<svg xmlns="http://www.w3.org/2000/svg" xmlns:xlink="http://www.w3.org/1999/xlink" width="816" zoomAndPan="magnify" viewBox="0 0 612 791.999994" height="1056" preserveAspectRatio="xMidYMid meet" version="1.0"><defs><clipPath id="fa0bb9d590"><path d="M 47 159.324219 L 91.246094 159.324219 L 91.246094 186 L 47 186 Z M 47 159.324219 " clip-rule="nonzero"/></clipPath><clipPath id="4744ce51cb"><path d="M 47 353.695312 L 91.246094 353.695312 L 91.246094 380.695312 L 47 380.695312 Z M 47 353.695312 " clip-rule="nonzero"/></clipPath><clipPath id="60ddef5c28"><path d="M 47 260.261719 L 91.246094 260.261719 L 91.246094 287 L 47 287 Z M 47 260.261719 " clip-rule="nonzero"/></clipPath></defs><g clip-path="url(#fa0bb9d590)"><path fill="#9645de" d="M 78.117188 159.324219 L 83.21875 164.425781 L 72.375 175.261719 L 63.484375 166.371094 L 47 182.851562 L 50.148438 185.996094 L 63.484375 172.660156 L 72.375 181.550781 L 86.355469 167.558594 L 91.453125 172.660156 L 91.453125 159.324219 Z M 78.117188 159.324219 " fill-opacity="1" fill-rule="nonzero"/></g><g clip-path="url(#4744ce51cb)"><path fill="#9645de" d="M 78.117188 353.695312 L 83.21875 358.796875 L 72.375 369.632812 L 63.484375 360.742188 L 47 377.222656 L 50.148438 380.367188 L 63.484375 367.03125 L 72.375 375.921875 L 86.355469 361.929688 L 91.453125 367.03125 L 91.453125 353.695312 Z M 78.117188 353.695312 " fill-opacity="1" fill-rule="nonzero"/></g><g clip-path="url(#60ddef5c28)"><path fill="#9645de" d="M 78.117188 260.261719 L 83.21875 265.359375 L 72.375 276.195312 L 63.484375 267.304688 L 47 283.785156 L 50.148438 286.933594 L 63.484375 273.597656 L 72.375 282.488281 L 86.355469 268.496094 L 91.453125 273.597656 L 91.453125 260.261719 Z M 78.117188 260.261719 " fill-opacity="1" fill-rule="nonzero"/></g></svg>