<svg xmlns="http://www.w3.org/2000/svg" xmlns:xlink="http://www.w3.org/1999/xlink" width="1080" zoomAndPan="magnify" viewBox="0 0 810 809.999993" height="1080" preserveAspectRatio="xMidYMid meet" version="1.0"><defs><clipPath id="432f2d6e9b"><path d="M 351 176.925781 L 459 176.925781 L 459 284 L 351 284 Z M 351 176.925781 " clip-rule="nonzero"/></clipPath><clipPath id="0074864b95"><path d="M 176.925781 351 L 284 351 L 284 459 L 176.925781 459 Z M 176.925781 351 " clip-rule="nonzero"/></clipPath><clipPath id="a10e43477c"><path d="M 351 526 L 459 526 L 459 632.925781 L 351 632.925781 Z M 351 526 " clip-rule="nonzero"/></clipPath><clipPath id="fde690d684"><path d="M 526 351 L 632.925781 351 L 632.925781 459 L 526 459 Z M 526 351 " clip-rule="nonzero"/></clipPath></defs><path fill="#fa24c4" d="M 404.996094 244.296875 C 392.585938 244.296875 382.488281 234.199219 382.488281 221.792969 C 382.488281 209.382812 392.585938 199.285156 404.996094 199.285156 C 417.402344 199.285156 427.5 209.382812 427.5 221.792969 C 427.5 234.199219 417.414062 244.296875 404.996094 244.296875 Z M 404.996094 209.640625 C 398.296875 209.640625 392.855469 215.09375 392.855469 221.78125 C 392.855469 228.46875 398.308594 233.921875 404.996094 233.921875 C 411.691406 233.921875 417.132812 228.46875 417.132812 221.78125 C 417.132812 215.09375 411.691406 209.640625 404.996094 209.640625 Z M 404.996094 209.640625 " fill-opacity="1" fill-rule="nonzero"/><path fill="#fa24c4" d="M 436.863281 270.941406 C 434.394531 270.941406 432.21875 269.179688 431.761719 266.667969 C 429.449219 253.699219 418.191406 244.296875 404.996094 244.296875 C 391.808594 244.296875 380.550781 253.710938 378.21875 266.667969 C 377.707031 269.488281 375.011719 271.367188 372.203125 270.859375 C 369.382812 270.351562 367.507812 267.65625 368.015625 264.84375 C 371.230469 246.929688 386.78125 233.941406 404.996094 233.941406 C 423.21875 233.941406 438.769531 246.941406 441.960938 264.867188 C 442.46875 267.6875 440.582031 270.382812 437.773438 270.878906 C 437.472656 270.921875 437.164062 270.941406 436.863281 270.941406 Z M 436.863281 270.941406 " fill-opacity="1" fill-rule="nonzero"/><g clip-path="url(#432f2d6e9b)"><path fill="#fa24c4" d="M 404.996094 283.089844 C 375.730469 283.089844 351.90625 259.277344 351.90625 230.003906 C 351.90625 200.726562 375.730469 176.925781 404.996094 176.925781 C 434.269531 176.925781 458.082031 200.738281 458.082031 230.011719 C 458.082031 259.289062 434.269531 283.089844 404.996094 283.089844 Z M 404.996094 187.289062 C 381.441406 187.289062 362.273438 206.449219 362.273438 230.011719 C 362.273438 253.578125 381.429688 272.734375 404.996094 272.734375 C 428.558594 272.734375 447.714844 253.578125 447.714844 230.011719 C 447.714844 206.449219 428.546875 187.289062 404.996094 187.289062 Z M 404.996094 187.289062 " fill-opacity="1" fill-rule="nonzero"/></g><path fill="#fa24c4" d="M 230.011719 419.28125 C 217.601562 419.28125 207.507812 409.183594 207.507812 396.773438 C 207.507812 384.363281 217.601562 374.265625 230.011719 374.265625 C 242.421875 374.265625 252.519531 384.363281 252.519531 396.773438 C 252.519531 409.183594 242.421875 419.28125 230.011719 419.28125 Z M 230.011719 384.625 C 223.316406 384.625 217.871094 390.078125 217.871094 396.761719 C 217.871094 403.449219 223.324219 408.902344 230.011719 408.902344 C 236.699219 408.902344 242.152344 403.449219 242.152344 396.761719 C 242.152344 390.078125 236.710938 384.625 230.011719 384.625 Z M 230.011719 384.625 " fill-opacity="1" fill-rule="nonzero"/><path fill="#fa24c4" d="M 261.871094 445.933594 C 259.402344 445.933594 257.226562 444.171875 256.769531 441.660156 C 254.457031 428.691406 243.199219 419.289062 230.003906 419.289062 C 216.816406 419.289062 205.558594 428.703125 203.226562 441.660156 C 202.714844 444.480469 200.019531 446.347656 197.210938 445.851562 C 194.390625 445.34375 192.515625 442.648438 193.023438 439.835938 C 196.238281 421.921875 211.789062 408.933594 230.003906 408.933594 C 248.226562 408.933594 263.777344 421.933594 266.96875 439.859375 C 267.46875 442.679688 265.589844 445.375 262.78125 445.871094 C 262.480469 445.902344 262.179688 445.933594 261.871094 445.933594 Z M 261.871094 445.933594 " fill-opacity="1" fill-rule="nonzero"/><g clip-path="url(#0074864b95)"><path fill="#fa24c4" d="M 230.011719 458.082031 C 200.738281 458.082031 176.925781 434.269531 176.925781 404.996094 C 176.925781 375.730469 200.738281 351.90625 230.011719 351.90625 C 259.289062 351.90625 283.101562 375.71875 283.101562 404.996094 C 283.089844 434.269531 259.277344 458.082031 230.011719 458.082031 Z M 230.011719 362.273438 C 206.449219 362.273438 187.289062 381.441406 187.289062 404.996094 C 187.289062 428.546875 206.449219 447.714844 230.011719 447.714844 C 253.578125 447.714844 272.734375 428.546875 272.734375 404.996094 C 272.734375 381.441406 253.566406 362.273438 230.011719 362.273438 Z M 230.011719 362.273438 " fill-opacity="1" fill-rule="nonzero"/></g><path fill="#fa24c4" d="M 404.996094 594.273438 C 392.585938 594.273438 382.488281 584.175781 382.488281 571.765625 C 382.488281 559.355469 392.585938 549.257812 404.996094 549.257812 C 417.402344 549.257812 427.5 559.355469 427.5 571.765625 C 427.5 584.175781 417.414062 594.273438 404.996094 594.273438 Z M 404.996094 559.617188 C 398.296875 559.617188 392.855469 565.058594 392.855469 571.753906 C 392.855469 578.453125 398.308594 583.894531 404.996094 583.894531 C 411.691406 583.894531 417.132812 578.453125 417.132812 571.753906 C 417.132812 565.058594 411.691406 559.617188 404.996094 559.617188 Z M 404.996094 559.617188 " fill-opacity="1" fill-rule="nonzero"/><path fill="#fa24c4" d="M 436.863281 620.914062 C 434.394531 620.914062 432.21875 619.152344 431.761719 616.644531 C 429.449219 603.683594 418.191406 594.273438 404.996094 594.273438 C 391.808594 594.273438 380.550781 603.683594 378.21875 616.644531 C 377.707031 619.464844 375.011719 621.339844 372.203125 620.832031 C 369.382812 620.324219 367.507812 617.628906 368.015625 614.820312 C 371.230469 596.914062 386.78125 583.914062 404.996094 583.914062 C 423.21875 583.914062 438.769531 596.914062 441.960938 614.839844 C 442.46875 617.660156 440.582031 620.355469 437.773438 620.851562 C 437.472656 620.894531 437.164062 620.914062 436.863281 620.914062 Z M 436.863281 620.914062 " fill-opacity="1" fill-rule="nonzero"/><g clip-path="url(#a10e43477c)"><path fill="#fa24c4" d="M 404.996094 633.066406 C 375.730469 633.066406 351.90625 609.253906 351.90625 579.976562 C 351.90625 550.710938 375.71875 526.886719 404.996094 526.886719 C 434.269531 526.886719 458.082031 550.699219 458.082031 579.976562 C 458.082031 609.253906 434.269531 633.066406 404.996094 633.066406 Z M 404.996094 537.265625 C 381.441406 537.265625 362.273438 556.421875 362.273438 579.988281 C 362.273438 603.550781 381.441406 622.699219 404.996094 622.699219 C 428.546875 622.699219 447.714844 603.53125 447.714844 579.976562 C 447.714844 556.421875 428.546875 537.265625 404.996094 537.265625 Z M 404.996094 537.265625 " fill-opacity="1" fill-rule="nonzero"/></g><path fill="#fa24c4" d="M 579.988281 419.28125 C 567.578125 419.28125 557.480469 409.183594 557.480469 396.773438 C 557.480469 384.363281 567.578125 374.265625 579.988281 374.265625 C 592.394531 374.265625 602.492188 384.363281 602.492188 396.773438 C 602.492188 409.183594 592.394531 419.28125 579.988281 419.28125 Z M 579.988281 384.625 C 573.289062 384.625 567.847656 390.078125 567.847656 396.761719 C 567.847656 403.449219 573.289062 408.902344 579.988281 408.902344 C 586.683594 408.902344 592.125 403.449219 592.125 396.761719 C 592.125 390.078125 586.683594 384.625 579.988281 384.625 Z M 579.988281 384.625 " fill-opacity="1" fill-rule="nonzero"/><path fill="#fa24c4" d="M 611.84375 445.933594 C 609.375 445.933594 607.199219 444.171875 606.742188 441.660156 C 604.429688 428.691406 593.171875 419.289062 579.976562 419.289062 C 566.789062 419.289062 555.53125 428.703125 553.199219 441.660156 C 552.691406 444.480469 550.003906 446.359375 547.1875 445.851562 C 544.367188 445.34375 542.488281 442.648438 542.996094 439.835938 C 546.210938 421.921875 561.761719 408.933594 579.976562 408.933594 C 598.199219 408.933594 613.75 421.933594 616.945312 439.859375 C 617.453125 442.679688 615.566406 445.375 612.757812 445.871094 C 612.457031 445.902344 612.144531 445.933594 611.84375 445.933594 Z M 611.84375 445.933594 " fill-opacity="1" fill-rule="nonzero"/><g clip-path="url(#fde690d684)"><path fill="#fa24c4" d="M 579.976562 458.082031 C 550.710938 458.082031 526.886719 434.269531 526.886719 404.996094 C 526.886719 375.730469 550.699219 351.90625 579.976562 351.90625 C 609.253906 351.90625 633.066406 375.71875 633.066406 404.996094 C 633.066406 434.269531 609.253906 458.082031 579.976562 458.082031 Z M 579.976562 362.273438 C 556.421875 362.273438 537.253906 381.429688 537.253906 404.996094 C 537.253906 428.558594 556.414062 447.714844 579.976562 447.714844 C 603.539062 447.714844 622.699219 428.546875 622.699219 404.996094 C 622.699219 381.441406 603.53125 362.273438 579.976562 362.273438 Z M 579.976562 362.273438 " fill-opacity="1" fill-rule="nonzero"/></g><path fill="#fa24c4" d="M 250.621094 336.730469 C 249.832031 336.730469 249.023438 336.542969 248.269531 336.160156 C 245.71875 334.863281 244.703125 331.742188 246 329.191406 C 264.492188 292.886719 295.15625 263.746094 332.355469 247.128906 C 333.015625 246.828125 333.742188 246.671875 334.46875 246.671875 C 337.328125 246.671875 339.652344 248.996094 339.652344 251.855469 C 339.652344 254.042969 338.292969 255.917969 336.375 256.675781 C 301.429688 272.351562 272.621094 299.761719 255.234375 333.886719 C 254.324219 335.703125 252.507812 336.730469 250.621094 336.730469 Z M 250.621094 336.730469 " fill-opacity="1" fill-rule="nonzero"/><path fill="#fa24c4" d="M 559.347656 336.675781 C 557.253906 336.675781 555.4375 335.433594 554.628906 333.640625 C 537.128906 299.449219 508.207031 272.070312 473.175781 256.5 C 471.300781 255.722656 469.972656 253.867188 469.972656 251.710938 C 469.972656 248.847656 472.285156 246.527344 475.15625 246.527344 L 475.167969 246.527344 C 475.894531 246.527344 476.609375 246.683594 477.273438 246.972656 C 514.59375 263.527344 545.390625 292.699219 563.980469 329.128906 C 564.351562 329.855469 564.550781 330.664062 564.550781 331.484375 C 564.53125 334.34375 562.207031 336.675781 559.347656 336.675781 Z M 559.347656 336.675781 " fill-opacity="1" fill-rule="nonzero"/><path fill="#fa24c4" d="M 328.984375 570.875 C 328.195312 570.875 327.410156 570.699219 326.695312 570.34375 C 290.421875 552.597656 260.945312 522.730469 243.695312 486.238281 C 242.472656 483.648438 243.582031 480.558594 246.164062 479.335938 C 248.753906 478.113281 251.84375 479.222656 253.070312 481.800781 C 269.304688 516.136719 297.023438 544.253906 331.140625 560.972656 C 332.925781 561.792969 334.167969 563.597656 334.167969 565.691406 C 334.15625 568.5625 331.847656 570.875 328.984375 570.875 Z M 328.984375 570.875 " fill-opacity="1" fill-rule="nonzero"/><path fill="#fa24c4" d="M 486.789062 567.929688 C 484.945312 567.929688 483.148438 566.933594 482.21875 565.191406 C 480.859375 562.675781 481.8125 559.53125 484.332031 558.175781 C 517.992188 540.117188 544.75 510.828125 559.667969 475.738281 C 560.789062 473.105469 563.824219 471.882812 566.46875 472.992188 C 569.101562 474.109375 570.335938 477.15625 569.214844 479.792969 C 553.375 517.050781 524.980469 548.140625 489.246094 567.308594 C 488.449219 567.734375 487.609375 567.929688 486.789062 567.929688 Z M 486.789062 567.929688 " fill-opacity="1" fill-rule="nonzero"/><path fill="#fa24c4" d="M 559.347656 336.667969 C 558.859375 336.667969 558.359375 336.59375 557.875 336.449219 L 535.027344 329.710938 C 532.277344 328.902344 530.714844 326.019531 531.523438 323.273438 C 532.332031 320.527344 535.210938 318.960938 537.960938 319.769531 L 556.359375 325.199219 L 563.265625 308.863281 C 564.382812 306.230469 567.421875 304.996094 570.054688 306.105469 C 572.6875 307.226562 573.921875 310.261719 572.8125 312.894531 L 564.105469 333.496094 C 563.296875 335.464844 561.386719 336.667969 559.347656 336.667969 Z M 559.347656 336.667969 " fill-opacity="1" fill-rule="nonzero"/><path fill="#fa24c4" d="M 326.464844 278.050781 C 325.855469 278.050781 325.230469 277.9375 324.621094 277.710938 C 321.945312 276.695312 320.609375 273.699219 321.625 271.023438 L 327.835938 254.746094 L 312.242188 248.363281 C 309.589844 247.273438 308.324219 244.246094 309.414062 241.601562 C 310.5 238.949219 313.515625 237.683594 316.171875 238.773438 L 336.449219 247.078125 C 339.050781 248.144531 340.324219 251.089844 339.332031 253.722656 L 331.316406 274.726562 C 330.519531 276.777344 328.558594 278.050781 326.464844 278.050781 Z M 326.464844 278.050781 " fill-opacity="1" fill-rule="nonzero"/><path fill="#fa24c4" d="M 240.503906 510 C 239.890625 510 239.269531 509.894531 238.667969 509.65625 C 235.996094 508.640625 234.648438 505.65625 235.652344 502.972656 L 243.519531 482.1875 C 244.527344 479.53125 247.480469 478.175781 250.144531 479.148438 L 271.863281 487.070312 C 274.546875 488.054688 275.9375 491.027344 274.964844 493.714844 C 273.976562 496.398438 271.003906 497.789062 268.316406 496.8125 L 251.410156 490.65625 L 245.355469 506.652344 C 244.566406 508.726562 242.597656 510 240.503906 510 Z M 240.503906 510 " fill-opacity="1" fill-rule="nonzero"/><path fill="#fa24c4" d="M 507.542969 574.492188 C 507.023438 574.492188 506.496094 574.410156 505.976562 574.253906 L 485.214844 567.691406 C 482.703125 566.902344 481.191406 564.363281 481.6875 561.78125 L 485.867188 539.835938 C 486.40625 537.027344 489.109375 535.179688 491.929688 535.710938 C 494.738281 536.25 496.585938 538.953125 496.058594 541.773438 L 492.738281 559.191406 L 509.109375 564.363281 C 511.835938 565.222656 513.347656 568.136719 512.488281 570.875 C 511.78125 573.082031 509.742188 574.492188 507.542969 574.492188 Z M 507.542969 574.492188 " fill-opacity="1" fill-rule="nonzero"/><path fill="#fa24c4" d="M 345.933594 445.207031 C 345.1875 445.207031 344.441406 445.042969 343.738281 444.71875 C 341.914062 443.871094 340.75 442.035156 340.75 440.023438 L 340.75 421.269531 C 321.75 418.730469 307.046875 402.414062 307.046875 382.726562 C 307.046875 361.277344 324.496094 343.839844 345.933594 343.839844 L 404.082031 343.839844 C 425.53125 343.839844 442.96875 361.289062 442.96875 382.726562 C 442.96875 404.164062 425.519531 421.613281 404.082031 421.613281 L 376.101562 421.613281 L 349.261719 444.003906 C 348.308594 444.792969 347.125 445.207031 345.933594 445.207031 Z M 345.933594 354.195312 C 330.207031 354.195312 317.414062 366.988281 317.414062 382.714844 C 317.414062 398.441406 330.207031 411.234375 345.933594 411.234375 C 348.796875 411.234375 351.117188 413.558594 351.117188 416.417969 L 351.117188 428.941406 L 370.898438 412.4375 C 371.832031 411.660156 373.003906 411.234375 374.214844 411.234375 L 404.082031 411.234375 C 419.808594 411.234375 432.601562 398.441406 432.601562 382.714844 C 432.601562 366.988281 419.808594 354.195312 404.082031 354.195312 Z M 345.933594 354.195312 " fill-opacity="1" fill-rule="nonzero"/><path fill="#fa24c4" d="M 466.28125 466.160156 C 465.089844 466.160156 463.910156 465.742188 462.964844 464.957031 L 438.003906 444.128906 L 411.992188 444.128906 C 395.859375 444.128906 381.421875 433.347656 376.859375 417.902344 C 376.050781 415.152344 377.617188 412.273438 380.363281 411.464844 C 383.109375 410.65625 385.992188 412.21875 386.800781 414.96875 C 390.066406 426.027344 400.421875 433.761719 411.992188 433.761719 L 439.878906 433.761719 C 441.089844 433.761719 442.261719 434.1875 443.195312 434.964844 L 461.101562 449.902344 L 461.101562 438.945312 C 461.101562 436.085938 463.421875 433.761719 466.28125 433.761719 C 473.3125 433.761719 479.914062 431.027344 484.882812 426.070312 C 489.847656 421.105469 492.574219 414.511719 492.574219 407.492188 C 492.574219 393 480.777344 381.203125 466.28125 381.203125 L 437.109375 381.203125 C 434.25 381.203125 431.925781 378.878906 431.925781 376.019531 C 431.925781 373.15625 434.25 370.835938 437.109375 370.835938 L 466.28125 370.835938 C 486.5 370.835938 502.941406 387.277344 502.941406 407.492188 C 502.941406 417.277344 499.125 426.484375 492.210938 433.398438 C 486.53125 439.082031 479.292969 442.667969 471.464844 443.777344 L 471.464844 460.976562 C 471.464844 462.988281 470.304688 464.820312 468.480469 465.671875 C 467.785156 465.992188 467.03125 466.160156 466.28125 466.160156 Z M 466.28125 466.160156 " fill-opacity="1" fill-rule="nonzero"/><path fill="#fa24c4" d="M 351.199219 387.898438 C 349.832031 387.898438 348.503906 387.351562 347.542969 386.386719 C 347.304688 386.148438 347.085938 385.878906 346.886719 385.597656 C 346.703125 385.316406 346.546875 385.015625 346.421875 384.707031 C 346.285156 384.386719 346.183594 384.0625 346.121094 383.730469 C 346.046875 383.398438 346.015625 383.058594 346.015625 382.714844 C 346.015625 381.359375 346.578125 380.019531 347.542969 379.054688 C 347.78125 378.816406 348.039062 378.601562 348.328125 378.414062 C 348.609375 378.226562 348.910156 378.0625 349.222656 377.9375 C 349.53125 377.800781 349.851562 377.707031 350.183594 377.636719 C 350.859375 377.5 351.542969 377.5 352.21875 377.636719 C 352.546875 377.707031 352.871094 377.800781 353.179688 377.9375 C 353.503906 378.0625 353.804688 378.226562 354.082031 378.414062 C 354.363281 378.601562 354.632812 378.816406 354.871094 379.054688 C 355.835938 380.019531 356.382812 381.359375 356.382812 382.714844 C 356.382812 383.058594 356.351562 383.398438 356.28125 383.730469 C 356.21875 384.0625 356.113281 384.386719 355.992188 384.707031 C 355.855469 385.015625 355.699219 385.316406 355.511719 385.597656 C 355.328125 385.878906 355.109375 386.148438 354.871094 386.386719 C 354.632812 386.625 354.363281 386.84375 354.082031 387.027344 C 353.804688 387.214844 353.503906 387.382812 353.179688 387.503906 C 352.871094 387.640625 352.546875 387.734375 352.21875 387.804688 C 351.886719 387.867188 351.542969 387.898438 351.199219 387.898438 Z M 351.199219 387.898438 " fill-opacity="1" fill-rule="nonzero"/><path fill="#fa24c4" d="M 375.003906 387.898438 C 374.671875 387.898438 374.328125 387.867188 373.996094 387.804688 C 373.664062 387.734375 373.335938 387.640625 373.023438 387.503906 C 372.710938 387.382812 372.410156 387.214844 372.132812 387.027344 C 371.851562 386.84375 371.582031 386.625 371.34375 386.386719 C 371.105469 386.148438 370.886719 385.878906 370.699219 385.597656 C 370.515625 385.316406 370.347656 385.015625 370.222656 384.707031 C 370.089844 384.386719 369.996094 384.0625 369.921875 383.730469 C 369.859375 383.398438 369.820312 383.058594 369.820312 382.714844 C 369.820312 381.359375 370.378906 380.019531 371.34375 379.054688 C 371.582031 378.816406 371.851562 378.601562 372.132812 378.414062 C 372.410156 378.226562 372.710938 378.0625 373.023438 377.9375 C 373.335938 377.800781 373.664062 377.707031 373.996094 377.636719 C 375.675781 377.304688 377.46875 377.855469 378.671875 379.054688 C 379.636719 380.019531 380.1875 381.359375 380.1875 382.714844 C 380.1875 383.058594 380.15625 383.398438 380.09375 383.730469 C 380.019531 384.0625 379.925781 384.386719 379.792969 384.707031 C 379.667969 385.015625 379.503906 385.316406 379.316406 385.597656 C 379.128906 385.878906 378.910156 386.148438 378.671875 386.386719 C 377.707031 387.351562 376.371094 387.898438 375.003906 387.898438 Z M 375.003906 387.898438 " fill-opacity="1" fill-rule="nonzero"/><path fill="#fa24c4" d="M 398.816406 387.898438 C 398.472656 387.898438 398.132812 387.867188 397.800781 387.804688 C 397.46875 387.734375 397.148438 387.640625 396.824219 387.503906 C 396.515625 387.382812 396.214844 387.214844 395.933594 387.027344 C 395.652344 386.84375 395.382812 386.625 395.144531 386.386719 C 394.183594 385.421875 393.632812 384.085938 393.632812 382.714844 C 393.632812 382.382812 393.664062 382.042969 393.734375 381.710938 C 393.796875 381.378906 393.902344 381.046875 394.027344 380.734375 C 394.160156 380.425781 394.316406 380.125 394.503906 379.84375 C 394.691406 379.566406 394.90625 379.296875 395.144531 379.054688 C 395.382812 378.816406 395.652344 378.601562 395.933594 378.414062 C 396.214844 378.226562 396.515625 378.0625 396.824219 377.9375 C 397.148438 377.800781 397.46875 377.707031 397.800781 377.636719 C 398.472656 377.5 399.15625 377.5 399.832031 377.636719 C 400.152344 377.707031 400.484375 377.800781 400.796875 377.9375 C 401.105469 378.0625 401.40625 378.226562 401.6875 378.414062 C 401.976562 378.601562 402.238281 378.816406 402.476562 379.054688 C 402.714844 379.296875 402.929688 379.566406 403.117188 379.84375 C 403.316406 380.125 403.46875 380.425781 403.605469 380.734375 C 403.730469 381.046875 403.832031 381.378906 403.894531 381.710938 C 403.96875 382.042969 404 382.382812 404 382.714844 C 404 384.085938 403.4375 385.421875 402.476562 386.386719 C 402.238281 386.625 401.976562 386.84375 401.6875 387.027344 C 401.40625 387.214844 401.105469 387.382812 400.796875 387.503906 C 400.484375 387.640625 400.152344 387.734375 399.832031 387.804688 C 399.488281 387.867188 399.148438 387.898438 398.816406 387.898438 Z M 398.816406 387.898438 " fill-opacity="1" fill-rule="nonzero"/></svg>