<svg xmlns="http://www.w3.org/2000/svg" xmlns:xlink="http://www.w3.org/1999/xlink" width="1080" zoomAndPan="magnify" viewBox="0 0 810 809.999993" height="1080" preserveAspectRatio="xMidYMid meet" version="1.0"><path fill="#f0c0bf" d="M 349.101562 354.070312 C 349.113281 353.398438 349.132812 352.722656 349.160156 352.046875 C 351.003906 306.273438 392.230469 273.332031 433.835938 265.992188 C 490.921875 255.917969 566.734375 293.609375 553.457031 360.789062 C 546.347656 396.757812 520.828125 429.363281 484.691406 439.351562 C 474.730469 442.105469 463.472656 443.882812 453.117188 443.882812 C 431.460938 443.882812 414.371094 432.632812 394.453125 447.003906 C 388.628906 451.203125 382.601562 465.957031 373.363281 462.703125 C 366.609375 460.328125 365.195312 446.65625 364.734375 440.953125 C 362.382812 411.6875 348.582031 383.535156 349.101562 354.070312 Z M 349.101562 354.070312 " fill-opacity="1" fill-rule="nonzero"/><path fill="#ffffff" d="M 514.230469 354.515625 C 514.230469 355.390625 514.144531 356.253906 513.972656 357.113281 C 513.804688 357.96875 513.550781 358.800781 513.214844 359.609375 C 512.882812 360.414062 512.46875 361.183594 511.984375 361.910156 C 511.5 362.636719 510.945312 363.308594 510.328125 363.925781 C 509.707031 364.542969 509.035156 365.097656 508.308594 365.582031 C 507.582031 366.066406 506.8125 366.476562 506.003906 366.8125 C 505.195312 367.148438 504.363281 367.398438 503.503906 367.570312 C 502.644531 367.738281 501.78125 367.824219 500.90625 367.824219 C 500.03125 367.824219 499.164062 367.738281 498.304688 367.570312 C 497.445312 367.398438 496.613281 367.148438 495.804688 366.8125 C 494.996094 366.476562 494.230469 366.066406 493.5 365.582031 C 492.773438 365.097656 492.101562 364.542969 491.484375 363.925781 C 490.863281 363.308594 490.3125 362.636719 489.824219 361.910156 C 489.339844 361.183594 488.929688 360.414062 488.59375 359.609375 C 488.257812 358.800781 488.007812 357.96875 487.835938 357.113281 C 487.664062 356.253906 487.578125 355.390625 487.578125 354.515625 C 487.578125 353.640625 487.664062 352.773438 487.835938 351.917969 C 488.007812 351.0625 488.257812 350.226562 488.59375 349.421875 C 488.929688 348.613281 489.339844 347.847656 489.824219 347.121094 C 490.3125 346.394531 490.863281 345.722656 491.484375 345.101562 C 492.101562 344.484375 492.773438 343.933594 493.5 343.449219 C 494.230469 342.960938 494.996094 342.550781 495.804688 342.21875 C 496.613281 341.882812 497.445312 341.628906 498.304688 341.460938 C 499.164062 341.289062 500.03125 341.203125 500.90625 341.203125 C 501.78125 341.203125 502.644531 341.289062 503.503906 341.460938 C 504.363281 341.628906 505.195312 341.882812 506.003906 342.21875 C 506.8125 342.550781 507.582031 342.960938 508.308594 343.449219 C 509.035156 343.933594 509.707031 344.484375 510.328125 345.101562 C 510.945312 345.722656 511.5 346.394531 511.984375 347.121094 C 512.46875 347.847656 512.882812 348.613281 513.214844 349.421875 C 513.550781 350.226562 513.804688 351.0625 513.972656 351.917969 C 514.144531 352.773438 514.230469 353.640625 514.230469 354.515625 Z M 514.230469 354.515625 " fill-opacity="1" fill-rule="nonzero"/><path fill="#ffffff" d="M 467.164062 354.515625 C 467.164062 355.390625 467.078125 356.253906 466.90625 357.113281 C 466.734375 357.96875 466.484375 358.800781 466.148438 359.609375 C 465.8125 360.417969 465.402344 361.183594 464.917969 361.910156 C 464.429688 362.636719 463.878906 363.308594 463.257812 363.925781 C 462.640625 364.546875 461.96875 365.097656 461.238281 365.582031 C 460.511719 366.070312 459.742188 366.480469 458.9375 366.8125 C 458.128906 367.148438 457.292969 367.398438 456.4375 367.570312 C 455.578125 367.742188 454.710938 367.828125 453.835938 367.828125 C 452.960938 367.828125 452.09375 367.742188 451.234375 367.570312 C 450.378906 367.398438 449.542969 367.148438 448.734375 366.8125 C 447.925781 366.480469 447.160156 366.070312 446.433594 365.582031 C 445.703125 365.097656 445.03125 364.546875 444.414062 363.925781 C 443.792969 363.308594 443.242188 362.636719 442.753906 361.910156 C 442.269531 361.183594 441.859375 360.417969 441.523438 359.609375 C 441.1875 358.800781 440.9375 357.96875 440.765625 357.113281 C 440.59375 356.253906 440.507812 355.390625 440.507812 354.515625 C 440.507812 353.640625 440.59375 352.773438 440.765625 351.917969 C 440.9375 351.058594 441.1875 350.226562 441.523438 349.421875 C 441.859375 348.613281 442.269531 347.847656 442.753906 347.121094 C 443.242188 346.390625 443.792969 345.71875 444.414062 345.101562 C 445.03125 344.484375 445.703125 343.933594 446.433594 343.445312 C 447.160156 342.960938 447.925781 342.550781 448.734375 342.214844 C 449.542969 341.882812 450.378906 341.628906 451.234375 341.457031 C 452.09375 341.289062 452.960938 341.203125 453.835938 341.203125 C 454.710938 341.203125 455.578125 341.289062 456.4375 341.457031 C 457.292969 341.628906 458.128906 341.882812 458.9375 342.214844 C 459.742188 342.550781 460.511719 342.960938 461.238281 343.445312 C 461.96875 343.933594 462.640625 344.484375 463.257812 345.101562 C 463.878906 345.71875 464.429688 346.390625 464.917969 347.117188 C 465.402344 347.847656 465.8125 348.613281 466.148438 349.421875 C 466.484375 350.226562 466.734375 351.058594 466.90625 351.917969 C 467.078125 352.773438 467.164062 353.640625 467.164062 354.515625 Z M 467.164062 354.515625 " fill-opacity="1" fill-rule="nonzero"/><path fill="#ffffff" d="M 422.585938 354.515625 C 422.585938 355.390625 422.5 356.253906 422.328125 357.113281 C 422.160156 357.96875 421.90625 358.800781 421.570312 359.609375 C 421.238281 360.414062 420.828125 361.183594 420.339844 361.910156 C 419.855469 362.636719 419.300781 363.308594 418.683594 363.925781 C 418.0625 364.542969 417.390625 365.097656 416.664062 365.582031 C 415.9375 366.066406 415.167969 366.476562 414.359375 366.8125 C 413.550781 367.148438 412.71875 367.398438 411.859375 367.570312 C 411.003906 367.738281 410.136719 367.824219 409.261719 367.824219 C 408.386719 367.824219 407.519531 367.738281 406.660156 367.570312 C 405.804688 367.398438 404.96875 367.148438 404.160156 366.8125 C 403.351562 366.476562 402.585938 366.066406 401.859375 365.582031 C 401.128906 365.097656 400.457031 364.542969 399.839844 363.925781 C 399.21875 363.308594 398.667969 362.636719 398.179688 361.910156 C 397.695312 361.183594 397.285156 360.414062 396.949219 359.609375 C 396.613281 358.800781 396.363281 357.96875 396.191406 357.113281 C 396.019531 356.253906 395.933594 355.390625 395.933594 354.515625 C 395.933594 353.640625 396.019531 352.773438 396.191406 351.917969 C 396.363281 351.0625 396.613281 350.226562 396.949219 349.421875 C 397.285156 348.613281 397.695312 347.847656 398.179688 347.121094 C 398.667969 346.394531 399.21875 345.722656 399.839844 345.101562 C 400.457031 344.484375 401.128906 343.933594 401.859375 343.449219 C 402.585938 342.960938 403.351562 342.550781 404.160156 342.21875 C 404.96875 341.882812 405.804688 341.628906 406.660156 341.460938 C 407.519531 341.289062 408.386719 341.203125 409.261719 341.203125 C 410.136719 341.203125 411.003906 341.289062 411.859375 341.460938 C 412.71875 341.628906 413.550781 341.882812 414.359375 342.21875 C 415.167969 342.550781 415.9375 342.960938 416.664062 343.449219 C 417.390625 343.933594 418.0625 344.484375 418.683594 345.101562 C 419.300781 345.722656 419.855469 346.394531 420.339844 347.121094 C 420.828125 347.847656 421.238281 348.613281 421.570312 349.421875 C 421.90625 350.226562 422.160156 351.0625 422.328125 351.917969 C 422.5 352.773438 422.585938 353.640625 422.585938 354.515625 Z M 422.585938 354.515625 " fill-opacity="1" fill-rule="nonzero"/><path fill="#a5d8dc" d="M 460.78125 441.835938 C 460.769531 441.160156 460.75 440.484375 460.722656 439.8125 C 458.878906 394.039062 417.652344 361.097656 376.046875 353.753906 C 318.960938 343.683594 243.148438 381.371094 256.425781 448.554688 C 263.535156 484.523438 289.054688 517.128906 325.1875 527.117188 C 335.152344 529.871094 346.410156 531.644531 356.765625 531.644531 C 378.421875 531.644531 395.507812 520.398438 415.429688 534.765625 C 421.253906 538.96875 427.28125 553.71875 436.519531 550.46875 C 443.273438 548.09375 444.6875 534.417969 445.144531 528.714844 C 447.5 499.449219 461.300781 471.300781 460.78125 441.835938 Z M 460.78125 441.835938 " fill-opacity="1" fill-rule="nonzero"/><path fill="#ffffff" d="M 322.304688 442.277344 C 322.300781 443.152344 322.21875 444.019531 322.046875 444.875 C 321.875 445.730469 321.625 446.566406 321.289062 447.371094 C 320.953125 448.179688 320.542969 448.945312 320.058594 449.671875 C 319.570312 450.398438 319.019531 451.070312 318.398438 451.691406 C 317.78125 452.308594 317.109375 452.859375 316.378906 453.34375 C 315.652344 453.832031 314.886719 454.242188 314.078125 454.574219 C 313.269531 454.910156 312.433594 455.164062 311.578125 455.332031 C 310.71875 455.503906 309.851562 455.589844 308.976562 455.589844 C 308.101562 455.589844 307.234375 455.503906 306.378906 455.332031 C 305.519531 455.164062 304.6875 454.910156 303.878906 454.574219 C 303.070312 454.242188 302.300781 453.832031 301.574219 453.34375 C 300.847656 452.859375 300.171875 452.308594 299.554688 451.691406 C 298.9375 451.070312 298.382812 450.398438 297.898438 449.671875 C 297.410156 448.945312 297 448.179688 296.667969 447.371094 C 296.332031 446.5625 296.078125 445.730469 295.90625 444.875 C 295.738281 444.019531 295.652344 443.152344 295.652344 442.277344 C 295.652344 441.402344 295.738281 440.539062 295.90625 439.679688 C 296.078125 438.824219 296.332031 437.992188 296.667969 437.183594 C 297 436.378906 297.410156 435.609375 297.898438 434.882812 C 298.382812 434.15625 298.9375 433.484375 299.554688 432.867188 C 300.171875 432.25 300.847656 431.695312 301.574219 431.210938 C 302.300781 430.726562 303.070312 430.316406 303.878906 429.980469 C 304.6875 429.644531 305.519531 429.394531 306.378906 429.222656 C 307.234375 429.054688 308.101562 428.96875 308.976562 428.96875 C 309.851562 428.96875 310.71875 429.054688 311.578125 429.222656 C 312.433594 429.394531 313.269531 429.644531 314.078125 429.980469 C 314.886719 430.316406 315.652344 430.726562 316.378906 431.210938 C 317.109375 431.695312 317.78125 432.25 318.398438 432.867188 C 319.019531 433.484375 319.570312 434.15625 320.058594 434.882812 C 320.542969 435.609375 320.953125 436.378906 321.289062 437.183594 C 321.625 437.992188 321.875 438.824219 322.046875 439.679688 C 322.21875 440.539062 322.300781 441.402344 322.304688 442.277344 Z M 322.304688 442.277344 " fill-opacity="1" fill-rule="nonzero"/><path fill="#ffffff" d="M 369.371094 442.277344 C 369.371094 443.152344 369.289062 444.019531 369.117188 444.875 C 368.945312 445.734375 368.695312 446.566406 368.359375 447.371094 C 368.023438 448.179688 367.613281 448.945312 367.128906 449.671875 C 366.640625 450.402344 366.089844 451.074219 365.46875 451.691406 C 364.851562 452.308594 364.179688 452.859375 363.449219 453.347656 C 362.722656 453.832031 361.953125 454.242188 361.144531 454.578125 C 360.335938 454.910156 359.503906 455.164062 358.644531 455.335938 C 357.789062 455.503906 356.921875 455.589844 356.046875 455.589844 C 355.171875 455.589844 354.304688 455.503906 353.445312 455.335938 C 352.589844 455.164062 351.753906 454.910156 350.945312 454.578125 C 350.136719 454.242188 349.371094 453.832031 348.644531 453.347656 C 347.914062 452.859375 347.242188 452.308594 346.625 451.691406 C 346.003906 451.074219 345.453125 450.402344 344.964844 449.671875 C 344.480469 448.945312 344.070312 448.179688 343.734375 447.371094 C 343.398438 446.566406 343.148438 445.734375 342.976562 444.875 C 342.804688 444.019531 342.71875 443.152344 342.71875 442.277344 C 342.71875 441.402344 342.804688 440.539062 342.976562 439.679688 C 343.148438 438.824219 343.398438 437.992188 343.734375 437.183594 C 344.070312 436.375 344.480469 435.609375 344.964844 434.882812 C 345.453125 434.15625 346.003906 433.484375 346.625 432.867188 C 347.242188 432.246094 347.914062 431.695312 348.644531 431.210938 C 349.371094 430.722656 350.136719 430.3125 350.945312 429.980469 C 351.753906 429.644531 352.589844 429.394531 353.445312 429.222656 C 354.304688 429.050781 355.171875 428.964844 356.046875 428.964844 C 356.921875 428.964844 357.789062 429.050781 358.644531 429.222656 C 359.503906 429.394531 360.335938 429.644531 361.144531 429.980469 C 361.953125 430.3125 362.722656 430.722656 363.449219 431.210938 C 364.179688 431.695312 364.851562 432.246094 365.46875 432.867188 C 366.089844 433.484375 366.640625 434.15625 367.128906 434.882812 C 367.613281 435.609375 368.023438 436.375 368.359375 437.183594 C 368.695312 437.992188 368.945312 438.824219 369.117188 439.679688 C 369.289062 440.539062 369.371094 441.402344 369.371094 442.277344 Z M 369.371094 442.277344 " fill-opacity="1" fill-rule="nonzero"/><path fill="#ffffff" d="M 413.945312 442.277344 C 413.945312 443.152344 413.863281 444.019531 413.691406 444.875 C 413.519531 445.730469 413.265625 446.566406 412.933594 447.371094 C 412.597656 448.179688 412.1875 448.945312 411.703125 449.671875 C 411.214844 450.398438 410.664062 451.070312 410.042969 451.691406 C 409.425781 452.308594 408.753906 452.859375 408.023438 453.34375 C 407.296875 453.832031 406.53125 454.242188 405.722656 454.574219 C 404.914062 454.910156 404.078125 455.164062 403.222656 455.332031 C 402.363281 455.503906 401.496094 455.589844 400.621094 455.589844 C 399.746094 455.589844 398.878906 455.503906 398.023438 455.332031 C 397.164062 455.164062 396.332031 454.910156 395.523438 454.574219 C 394.714844 454.242188 393.945312 453.832031 393.21875 453.34375 C 392.492188 452.859375 391.816406 452.308594 391.199219 451.691406 C 390.582031 451.070312 390.027344 450.398438 389.542969 449.671875 C 389.054688 448.945312 388.644531 448.179688 388.3125 447.371094 C 387.976562 446.5625 387.722656 445.730469 387.550781 444.875 C 387.382812 444.019531 387.296875 443.152344 387.296875 442.277344 C 387.296875 441.402344 387.382812 440.539062 387.550781 439.679688 C 387.722656 438.824219 387.976562 437.992188 388.3125 437.183594 C 388.644531 436.378906 389.054688 435.609375 389.542969 434.882812 C 390.027344 434.15625 390.582031 433.484375 391.199219 432.867188 C 391.816406 432.25 392.492188 431.695312 393.21875 431.210938 C 393.945312 430.726562 394.714844 430.316406 395.523438 429.980469 C 396.332031 429.644531 397.164062 429.394531 398.023438 429.222656 C 398.878906 429.054688 399.746094 428.96875 400.621094 428.96875 C 401.496094 428.96875 402.363281 429.054688 403.222656 429.222656 C 404.078125 429.394531 404.914062 429.644531 405.722656 429.980469 C 406.53125 430.316406 407.296875 430.726562 408.023438 431.210938 C 408.753906 431.695312 409.425781 432.25 410.042969 432.867188 C 410.664062 433.484375 411.214844 434.15625 411.703125 434.882812 C 412.1875 435.609375 412.597656 436.378906 412.933594 437.183594 C 413.265625 437.992188 413.519531 438.824219 413.691406 439.679688 C 413.863281 440.539062 413.945312 441.402344 413.945312 442.277344 Z M 413.945312 442.277344 " fill-opacity="1" fill-rule="nonzero"/></svg>