<svg xmlns="http://www.w3.org/2000/svg" xmlns:xlink="http://www.w3.org/1999/xlink" width="816" zoomAndPan="magnify" viewBox="0 0 612 791.999994" height="1056" preserveAspectRatio="xMidYMid meet" version="1.0"><defs><clipPath id="f2a720c44a"><path d="M 46.503906 129 L 369 129 L 369 371.824219 L 46.503906 371.824219 Z M 46.503906 129 " clip-rule="nonzero"/></clipPath></defs><g clip-path="url(#f2a720c44a)"><path fill="#abe7ec" d="M 325.171875 285.335938 L 328.285156 270.515625 C 328.3125 270.441406 328.285156 270.390625 328.285156 270.316406 L 330.796875 270.316406 L 330.796875 267.101562 C 332.378906 268.207031 334.011719 269.234375 335.746094 270.089844 C 340.667969 272.5 345.992188 273.707031 351.492188 273.707031 C 356.414062 273.707031 361.488281 272.75 366.585938 270.84375 C 366.941406 270.71875 367.191406 270.367188 367.191406 269.988281 C 367.566406 260.820312 363.851562 253.058594 356.414062 247.535156 C 351.617188 243.96875 345.664062 241.683594 339.234375 240.679688 C 339.234375 239.898438 339.160156 239.09375 338.984375 238.316406 C 341.320312 237.613281 343.507812 236.632812 345.339844 235.351562 C 349.886719 232.238281 351.96875 227.84375 351.292969 222.492188 C 349.507812 217.042969 345.765625 213.601562 340.691406 212.496094 C 350.1875 204.160156 353.777344 195.519531 346.996094 188.835938 C 341.472656 183.386719 335.191406 183.460938 329.238281 187.03125 C 330.621094 179.847656 330.972656 172.5625 330.292969 165.90625 C 328.386719 147.195312 319.445312 133.832031 305.78125 129.210938 C 305.582031 129.136719 305.378906 129.136719 305.179688 129.210938 C 291.515625 133.832031 282.574219 147.21875 280.664062 165.933594 C 279.8125 174.269531 280.589844 183.589844 283 192.453125 C 276.796875 188.359375 270.191406 188.007812 264.363281 193.710938 C 257.808594 200.164062 260.921875 208.429688 269.714844 216.492188 C 268.609375 217.292969 267.554688 218.25 266.601562 219.429688 C 265.996094 220.183594 265.519531 221.035156 265.242188 221.914062 C 263.738281 226.539062 264.816406 231.109375 268.410156 235.152344 C 273.707031 241.105469 283.578125 244.773438 293.296875 244.773438 C 295.683594 244.773438 298.070312 244.546875 300.355469 244.09375 C 300.480469 244.070312 300.582031 243.992188 300.683594 243.917969 C 301.761719 245.097656 302.816406 246.328125 303.847656 247.558594 L 303.796875 251.730469 C 303.070312 251.730469 302.339844 251.777344 301.613281 251.828125 C 301.511719 251.753906 301.386719 251.703125 301.261719 251.679688 C 296.4375 250.648438 291.890625 250.347656 287.722656 250.5 L 287.722656 247.660156 L 256.476562 247.660156 L 256.476562 232.617188 L 244.949219 232.617188 L 244.949219 234.25 C 244.898438 234.25 244.824219 234.222656 244.773438 234.222656 C 241.507812 234.222656 238.871094 236.859375 238.871094 240.125 C 238.871094 243.390625 241.507812 246.054688 244.773438 246.054688 C 244.824219 246.054688 244.898438 246.027344 244.949219 246.027344 L 244.949219 247.660156 L 233.796875 247.660156 L 233.796875 242.6875 C 233.796875 242.234375 233.445312 241.859375 233.019531 241.78125 L 239.023438 206.34375 C 239.148438 205.566406 238.644531 204.863281 237.941406 204.863281 L 188.414062 204.863281 C 187.886719 204.863281 187.433594 205.289062 187.332031 205.867188 L 181.230469 241.734375 L 162.871094 241.734375 C 162.417969 239.195312 161.863281 236.484375 161.085938 233.542969 C 155.960938 213.953125 146.542969 199.839844 135.292969 194.789062 C 129.289062 192.101562 123.109375 192.226562 117.433594 195.117188 C 105.402344 201.246094 112.761719 219.453125 118.664062 234.046875 C 120.800781 239.296875 122.785156 244.246094 123.410156 247.609375 L 111.582031 247.609375 C 111.253906 247.132812 110.902344 246.679688 110.476562 246.253906 C 108.417969 244.167969 105.128906 243.089844 101.335938 243.191406 C 94.90625 243.339844 88.449219 246.480469 83.550781 251.703125 C 83.175781 248.113281 82.421875 245.199219 81.191406 242.738281 C 79.132812 238.644531 75.640625 235.753906 71.824219 234.976562 C 67.328125 234.074219 62.605469 236.433594 61.074219 240.351562 C 59.816406 243.617188 60.871094 247.082031 62.027344 249.394531 C 62.832031 251 63.835938 252.507812 64.816406 253.9375 C 65.441406 254.84375 66.046875 255.773438 66.625 256.703125 C 67.125 257.53125 67.578125 258.410156 68.003906 259.3125 C 66.976562 258.988281 65.921875 258.761719 64.839844 258.660156 C 61.800781 258.386719 58.988281 259.214844 57.15625 260.921875 C 55.144531 262.804688 54.164062 265.945312 54.519531 269.285156 C 55.046875 273.933594 57.757812 277.773438 60.394531 281.515625 L 61.25 282.746094 C 64.464844 287.417969 67.125 292.039062 69.410156 296.964844 L 63.558594 296.964844 L 63.558594 297.464844 C 52.886719 304.5 46.832031 312.285156 46.832031 320.546875 C 46.832031 349.15625 118.839844 372.289062 207.578125 372.289062 C 296.3125 372.289062 368.320312 349.15625 368.320312 320.546875 C 368.320312 306.933594 351.894531 294.578125 325.171875 285.335938 Z M 244.773438 244.773438 C 242.238281 244.773438 240.175781 242.6875 240.175781 240.152344 C 240.175781 237.613281 242.238281 235.554688 244.773438 235.554688 C 244.824219 235.554688 244.898438 235.578125 244.949219 235.578125 L 244.949219 244.773438 C 244.875 244.746094 244.824219 244.773438 244.773438 244.773438 Z M 85.863281 325.21875 L 74.636719 325.21875 C 72.703125 324.84375 71.042969 324.339844 70.089844 323.613281 L 68.082031 304.148438 L 88.023438 304.148438 Z M 124.441406 256.675781 C 124.492188 257.253906 124.542969 257.832031 124.59375 258.410156 C 125.21875 266.773438 125.773438 273.980469 130.769531 277.625 C 132.929688 279.179688 135.71875 279.960938 139.308594 279.960938 C 139.660156 279.960938 140.039062 279.933594 140.390625 279.910156 C 140.390625 280.136719 140.390625 280.363281 140.390625 280.613281 C 140.414062 281.515625 140.441406 282.496094 140.992188 283.226562 C 141.746094 284.179688 143.101562 284.328125 144.332031 284.378906 C 144.433594 284.378906 144.535156 284.378906 144.609375 284.378906 C 145.136719 285.9375 145.992188 287.167969 147.171875 287.996094 C 147.195312 288.023438 147.222656 288.023438 147.246094 288.046875 C 138.253906 289.503906 129.363281 291.488281 121.703125 293.75 L 121.703125 256.675781 Z M 287.722656 256.675781 L 287.722656 255.347656 C 291.691406 254.289062 295.785156 253.664062 299.878906 253.460938 C 297.242188 263.582031 292.746094 271.195312 286.492188 276.269531 C 286.542969 276.015625 286.542969 275.765625 286.59375 275.539062 C 282.371094 274.761719 277.976562 274.082031 273.507812 273.429688 L 273.507812 261.222656 C 274.761719 260.496094 276.042969 259.765625 277.347656 259.136719 C 279.308594 258.210938 281.292969 257.378906 283.328125 256.675781 Z M 307.113281 246.304688 C 307.789062 246.078125 308.492188 245.902344 309.171875 245.726562 C 308.492188 248.085938 307.839844 250.648438 307.210938 253.386719 Z M 322.007812 258.636719 C 323.136719 260.117188 324.316406 261.550781 325.625 262.832031 L 311.355469 262.832031 C 315.175781 261.625 318.742188 260.21875 322.007812 258.636719 Z M 311.484375 235.328125 C 311.859375 235.527344 312.285156 235.679688 312.664062 235.855469 C 311.609375 238.191406 310.628906 240.878906 309.675781 243.96875 C 308.820312 244.167969 307.941406 244.34375 307.085938 244.597656 L 306.988281 237.816406 C 308.367188 236.886719 309.800781 235.980469 311.230469 235.101562 C 311.308594 235.175781 311.355469 235.277344 311.484375 235.328125 Z M 306.960938 235.929688 L 306.886719 231.636719 C 308.644531 230.957031 310.351562 230.253906 312.058594 229.550781 C 311.582031 230.855469 311.257812 232.1875 311.082031 233.542969 C 309.699219 234.296875 308.316406 235.101562 306.960938 235.929688 Z M 306.785156 223.875 C 306.988281 223.75 307.1875 223.597656 307.390625 223.472656 C 307.1875 224.453125 306.988281 225.40625 306.835938 226.386719 Z M 304.097656 228.671875 C 303.695312 226.714844 303.167969 224.753906 302.589844 222.820312 C 303.117188 223.171875 303.644531 223.523438 304.171875 223.875 Z M 320.902344 296.488281 L 318.390625 297.691406 L 313.214844 295.207031 L 308.042969 297.71875 L 302.894531 295.230469 L 297.71875 297.71875 L 292.546875 295.230469 L 290.035156 296.4375 L 288.550781 289.429688 L 292.546875 287.496094 L 297.71875 290.007812 L 302.894531 287.496094 L 308.042969 290.007812 L 313.214844 287.496094 L 318.390625 290.007812 L 322.710938 287.921875 Z M 233.699219 298.445312 L 267.175781 298.445312 L 267.175781 314.496094 L 233.699219 314.496094 Z M 267.175781 296.308594 L 233.699219 296.308594 L 233.699219 280.261719 L 267.175781 280.261719 Z M 267.175781 278.101562 L 233.699219 278.101562 L 233.699219 262.351562 L 267.175781 262.351562 Z M 229.277344 262.351562 L 231.5625 262.351562 L 231.5625 316.65625 L 269.335938 316.65625 L 269.335938 262.351562 L 271.625 262.351562 L 271.625 318.941406 L 229.277344 318.941406 Z M 273.507812 286.339844 C 278.078125 287.144531 282.421875 287.996094 286.542969 288.953125 L 288.074219 296.308594 C 283.804688 294.703125 278.90625 293.222656 273.480469 291.863281 L 273.480469 286.339844 Z M 323.035156 286.363281 L 318.390625 288.625 L 313.214844 286.113281 L 308.042969 288.625 L 302.894531 286.113281 L 297.71875 288.625 L 292.546875 286.113281 L 288.300781 288.171875 L 286.71875 280.585938 L 287.394531 280.914062 L 292.570312 278.402344 L 297.742188 280.914062 L 302.917969 278.402344 L 308.066406 280.914062 L 313.242188 278.402344 L 318.414062 280.914062 L 323.589844 278.402344 L 324.617188 278.878906 Z M 276.996094 258.433594 C 275.792969 259.0625 274.636719 259.742188 273.507812 260.445312 L 273.507812 256.675781 L 280.714844 256.675781 C 279.460938 257.230469 278.203125 257.808594 276.996094 258.433594 Z M 163.796875 256.675781 L 227.367188 256.675781 L 227.367188 285.132812 C 222.996094 284.832031 217.523438 284.683594 212.777344 284.554688 C 213.277344 284.253906 213.804688 284.003906 214.308594 283.675781 C 216.089844 282.523438 220.109375 279.433594 219.179688 275.339844 C 218.753906 273.378906 217.121094 271.671875 214.933594 270.867188 C 213.027344 270.140625 210.96875 270.089844 209.160156 270.140625 C 204.160156 270.164062 199.0625 270.566406 194.140625 270.96875 C 184.695312 271.722656 174.925781 272.476562 165.582031 270.566406 C 164.753906 270.390625 163.722656 270.113281 162.59375 269.8125 C 161.941406 269.636719 161.1875 269.4375 160.484375 269.261719 C 162.066406 266.347656 163.398438 262.253906 163.796875 256.675781 Z M 148.855469 278.652344 C 148.90625 278.628906 148.980469 278.628906 149.03125 278.605469 C 149.28125 278.828125 149.480469 279.082031 149.785156 279.28125 C 152.496094 281.164062 156.113281 280.9375 159.402344 280.636719 C 173.621094 279.308594 187.785156 278.027344 201.976562 276.71875 C 205.164062 276.417969 208.503906 276.167969 211.496094 277.371094 C 213.050781 278 214.40625 279.15625 215.289062 280.5625 C 214.507812 281.289062 213.730469 281.84375 213.304688 282.121094 C 202.753906 288.976562 189.167969 289.226562 177.234375 288.925781 C 169.171875 288.726562 160.984375 288.296875 152.898438 287.644531 C 151.164062 287.519531 149.480469 287.34375 148.203125 286.464844 C 145.839844 284.859375 145.789062 281.265625 145.964844 279.257812 C 146.921875 279.082031 147.875 278.878906 148.855469 278.652344 Z M 114.246094 262.351562 L 119.84375 262.351562 L 119.84375 318.941406 L 114.246094 318.941406 Z M 112.359375 258.308594 L 112.359375 278.929688 C 105.832031 280.488281 99.675781 282.195312 93.949219 284.027344 C 97.214844 278.804688 105.78125 268.105469 105.78125 268.105469 C 108.214844 265.316406 110.726562 262.429688 112.160156 258.914062 C 112.234375 258.710938 112.285156 258.511719 112.359375 258.308594 Z M 113.289062 320.824219 L 120.773438 320.824219 C 121.300781 320.824219 121.730469 320.398438 121.730469 319.871094 L 121.730469 295.734375 C 130.445312 293.121094 140.894531 290.859375 151.242188 289.351562 C 151.769531 289.429688 152.296875 289.480469 152.796875 289.503906 C 159.679688 290.054688 166.636719 290.40625 173.542969 290.632812 C 173.570312 295.457031 173.570312 300.253906 173.59375 305.050781 C 162.265625 309.195312 151.140625 313.867188 140.316406 319.140625 L 140.316406 323.335938 C 138.382812 323.988281 137 325.773438 137 327.90625 C 137 330.59375 139.160156 332.753906 141.847656 332.753906 C 144.535156 332.753906 146.695312 330.59375 146.695312 327.90625 C 146.695312 325.847656 145.414062 324.089844 143.578125 323.386719 L 143.578125 320.976562 C 153.625 316.101562 163.347656 313.691406 173.621094 310.375 C 173.621094 311.457031 173.621094 312.535156 173.621094 313.617188 C 173.621094 316.128906 179.320312 316.753906 182.207031 315.523438 L 191.25 323.058594 L 191.25 325.671875 C 190.269531 326.273438 189.566406 327.832031 189.566406 329.691406 C 189.566406 332.027344 190.722656 333.960938 192.128906 333.960938 L 194.238281 333.960938 C 195.644531 333.960938 196.800781 332.027344 196.800781 329.691406 C 196.800781 327.304688 195.644531 325.394531 194.238281 325.394531 L 193.359375 325.394531 L 193.359375 320.246094 L 184.417969 309.972656 C 195.195312 313.515625 205.265625 315.925781 215.714844 321 L 215.714844 323.410156 C 213.90625 324.113281 212.601562 325.871094 212.601562 327.933594 C 212.601562 330.621094 214.757812 332.78125 217.445312 332.78125 C 220.109375 332.78125 222.292969 330.621094 222.292969 327.933594 C 222.292969 325.796875 220.886719 323.988281 218.953125 323.359375 L 218.953125 319.167969 C 207.5 313.617188 195.746094 308.691406 183.765625 304.371094 C 183.742188 299.878906 183.742188 295.355469 183.714844 290.859375 C 192.304688 290.808594 201.296875 289.929688 209.285156 286.363281 C 214.609375 286.488281 221.894531 286.664062 227.34375 287.042969 L 227.34375 319.894531 C 227.34375 320.421875 227.769531 320.847656 228.296875 320.847656 L 272.527344 320.847656 C 273.054688 320.847656 273.480469 320.421875 273.480469 319.894531 L 273.480469 293.800781 C 278.855469 295.15625 283.730469 296.636719 287.921875 298.246094 C 288.023438 298.292969 288.148438 298.292969 288.25 298.292969 C 288.324219 298.292969 288.375 298.246094 288.449219 298.21875 L 290.183594 306.433594 C 290.285156 306.859375 290.660156 307.1875 291.113281 307.1875 L 303.269531 307.1875 C 305.230469 309.269531 306.257812 311.378906 306.257812 313.464844 C 306.257812 328.332031 258.085938 340.867188 201.070312 340.867188 C 144.082031 340.867188 95.910156 328.308594 95.910156 313.464844 C 95.910156 308.417969 101.585938 303.394531 112.308594 298.972656 L 112.308594 319.820312 C 112.359375 320.398438 112.761719 320.824219 113.289062 320.824219 Z M 141.796875 325.421875 C 143.203125 325.421875 144.332031 326.550781 144.332031 327.933594 C 144.332031 329.339844 143.203125 330.46875 141.796875 330.46875 C 140.414062 330.46875 139.285156 329.339844 139.285156 327.933594 C 139.285156 326.550781 140.414062 325.421875 141.796875 325.421875 Z M 193.210938 328.761719 C 193.285156 329.035156 193.335938 329.363281 193.335938 329.714844 C 193.335938 330.972656 192.707031 332 191.929688 332 C 191.175781 332 190.546875 330.972656 190.546875 329.714844 C 190.546875 328.859375 190.824219 328.183594 191.226562 327.757812 L 191.226562 328.761719 Z M 217.445312 325.421875 C 218.828125 325.421875 219.957031 326.550781 219.957031 327.933594 C 219.957031 329.339844 218.828125 330.46875 217.445312 330.46875 C 216.039062 330.46875 214.910156 329.339844 214.910156 327.933594 C 214.910156 326.550781 216.039062 325.421875 217.445312 325.421875 Z M 303.722656 305.328125 L 291.917969 305.328125 L 290.308594 297.691406 L 292.570312 296.613281 L 297.742188 299.125 L 302.917969 296.613281 L 308.066406 299.125 L 313.242188 296.613281 L 318.414062 299.125 L 320.601562 298.070312 L 319.066406 305.351562 L 303.722656 305.351562 Z M 324.871094 277.625 L 323.5625 276.996094 L 318.390625 279.507812 L 313.214844 276.996094 L 308.042969 279.507812 L 302.894531 276.996094 L 297.71875 279.507812 L 292.546875 276.996094 L 287.371094 279.507812 L 286.367188 279.03125 L 286.316406 278.78125 C 289.128906 276.71875 291.640625 274.234375 293.800781 271.269531 L 326.175781 271.269531 Z M 365.355469 269.308594 C 355.183594 272.976562 345.265625 272.652344 336.574219 268.429688 C 334.539062 267.425781 332.605469 266.195312 330.796875 264.839844 L 330.796875 262.855469 L 328.4375 262.855469 C 326.726562 261.324219 325.171875 259.640625 323.738281 257.808594 C 329.238281 254.96875 333.636719 251.703125 336.324219 248.210938 C 336.5 248.289062 336.699219 248.339844 336.875 248.4375 C 341.796875 250.574219 346.417969 253.410156 350.789062 256.550781 C 355.183594 259.714844 359.304688 263.230469 363.246094 266.925781 C 359.40625 263.132812 355.359375 259.515625 351.039062 256.226562 C 346.746094 252.960938 342.148438 249.996094 337.203125 247.683594 C 337.101562 247.636719 336.976562 247.585938 336.875 247.535156 C 337.980469 245.953125 338.707031 244.320312 339.058594 242.660156 C 345.1875 243.617188 350.863281 245.777344 355.335938 249.09375 C 362.066406 254.066406 365.507812 261.046875 365.355469 269.308594 Z M 349.484375 222.945312 C 350.160156 228.546875 347.046875 231.960938 344.285156 233.847656 C 336.75 239.019531 323.1875 239.070312 313.066406 234.023438 C 317.082031 231.6875 321.226562 229.625 325.574219 227.96875 C 332.480469 225.332031 339.839844 223.75 347.273438 223.597656 C 339.839844 223.472656 332.378906 224.777344 325.296875 227.191406 C 321.101562 228.597656 317.082031 230.40625 313.164062 232.441406 C 313.441406 231.058594 313.894531 229.726562 314.496094 228.472656 C 324.039062 224.203125 332.503906 219.253906 338.808594 214.128906 C 342.800781 214.558594 347.375 216.542969 349.484375 222.945312 Z M 282.546875 166.15625 C 284.355469 148.351562 292.722656 135.617188 305.480469 131.144531 C 318.265625 135.617188 326.628906 148.351562 328.4375 166.15625 C 330.421875 185.621094 323.5625 210.464844 306.761719 221.640625 L 305.503906 137.300781 L 304.222656 221.640625 C 287.421875 210.4375 280.539062 185.621094 282.546875 166.15625 Z M 269.789062 233.945312 C 267.605469 231.484375 265.367188 227.515625 267 222.542969 C 267.226562 221.890625 267.578125 221.238281 268.03125 220.636719 C 270.566406 217.445312 273.933594 215.8125 277.675781 215.8125 C 279.886719 215.8125 282.273438 216.390625 284.707031 217.546875 C 292.871094 221.4375 300.28125 231.410156 299.527344 240.878906 C 296.363281 237.816406 292.996094 234.925781 289.378906 232.390625 C 283.300781 228.070312 276.519531 224.703125 269.363281 222.695312 C 276.445312 224.957031 283.027344 228.570312 288.902344 233.042969 C 292.59375 235.878906 296.011719 239.046875 299.199219 242.410156 C 288.351562 244.320312 275.84375 240.753906 269.789062 233.945312 Z M 301.210938 242.535156 C 301.613281 240.050781 301.511719 237.511719 300.957031 235.027344 C 301.964844 235.429688 302.96875 235.832031 303.972656 236.230469 L 303.847656 245.273438 C 302.992188 244.34375 302.089844 243.441406 301.210938 242.535156 Z M 303.597656 262.855469 L 298.625 262.855469 C 299.878906 259.96875 300.957031 256.828125 301.8125 253.410156 C 302.464844 253.410156 303.09375 253.386719 303.746094 253.386719 Z M 294.605469 252.609375 C 292.269531 252.984375 289.984375 253.511719 287.722656 254.164062 L 287.722656 252.382812 C 289.90625 252.308594 292.21875 252.382812 294.605469 252.609375 Z M 190.222656 208.605469 L 235.28125 208.605469 L 230.132812 239.019531 L 185.070312 239.019531 Z M 163.699219 243.640625 L 231.914062 243.640625 L 231.914062 246.730469 L 163.699219 246.730469 Z M 118.3125 196.851562 C 123.488281 194.210938 129.089844 194.113281 134.539062 196.546875 C 145.261719 201.347656 154.28125 215.035156 159.277344 234.074219 C 164.351562 253.460938 161.5625 263.984375 158.324219 269.386719 C 155.988281 273.277344 152.570312 275.839844 148.425781 276.820312 C 140.515625 278.703125 135.117188 278.453125 131.875 276.09375 C 131.273438 275.640625 130.769531 275.113281 130.292969 274.535156 C 133.207031 276.445312 137.828125 276.871094 145.3125 275.085938 C 155.660156 272.625 161.714844 259.691406 155.535156 236.183594 C 148.25 208.453125 131.953125 195.570312 118.035156 202.652344 C 115.074219 204.160156 113.566406 206.621094 113.039062 209.632812 C 112.460938 203.933594 113.667969 199.210938 118.3125 196.851562 Z M 110.902344 256.675781 C 110.753906 257.203125 110.601562 257.707031 110.402344 258.183594 C 109.070312 261.425781 106.683594 264.1875 104.347656 266.847656 C 104.347656 266.847656 90.132812 282.246094 84.832031 297.039062 L 76.167969 297.039062 C 75.664062 289.832031 76.191406 282.546875 77.925781 275.539062 C 79.734375 268.179688 82.875 260.972656 88.097656 255.472656 C 93.347656 249.996094 100.882812 246.429688 108.441406 247.132812 C 108.492188 247.132812 108.519531 247.15625 108.566406 247.15625 C 108.769531 247.308594 108.945312 247.460938 109.121094 247.636719 C 109.121094 247.636719 109.121094 247.660156 109.144531 247.660156 L 104.023438 247.660156 L 104.023438 256.675781 Z M 79.535156 243.667969 C 80.863281 246.304688 81.617188 249.542969 81.871094 253.789062 C 81.71875 253.964844 81.566406 254.140625 81.417969 254.339844 C 79.15625 257.355469 77.375 260.871094 75.992188 264.839844 C 75.214844 263.9375 74.359375 263.15625 73.457031 262.429688 C 73.078125 259.917969 72.476562 257.480469 71.546875 255.121094 C 70.492188 252.457031 69.058594 249.945312 68.207031 247.207031 C 67.402344 244.46875 67.226562 241.355469 68.707031 238.894531 C 69.210938 238.066406 69.914062 237.414062 70.691406 236.835938 C 70.945312 236.859375 71.21875 236.859375 71.472656 236.910156 C 74.710938 237.5625 77.726562 240.074219 79.535156 243.667969 Z M 75.289062 266.949219 C 74.484375 269.738281 73.855469 272.703125 73.480469 275.890625 C 72.601562 282.898438 72.878906 290.007812 74.160156 297.0625 L 71.921875 297.0625 C 70.242188 291.363281 68.082031 285.761719 65.417969 280.4375 C 63.207031 276.042969 60.597656 271.546875 60.746094 266.621094 C 60.796875 264.464844 61.523438 262.253906 62.90625 260.644531 C 63.484375 260.59375 64.085938 260.59375 64.714844 260.644531 C 68.609375 260.972656 72.425781 263.28125 75.289062 266.949219 Z M 204.890625 348.601562 C 153.175781 348.601562 106.960938 338.632812 87.46875 326.625 C 87.546875 326.5 87.644531 326.398438 87.644531 326.273438 L 89.929688 304.171875 L 92.542969 304.171875 L 92.542969 299.375 C 97.84375 296.585938 104.5 294.023438 112.359375 291.738281 L 112.359375 297.191406 C 112.160156 297.140625 111.984375 297.140625 111.78125 297.214844 C 100.203125 301.960938 94.074219 307.585938 94.074219 313.488281 C 94.074219 329.917969 141.09375 342.777344 201.121094 342.777344 C 261.148438 342.777344 308.191406 329.917969 308.191406 313.488281 C 308.191406 311.355469 307.363281 309.246094 305.78125 307.210938 L 319.847656 307.210938 C 320.296875 307.210938 320.675781 306.910156 320.777344 306.457031 L 321.730469 301.9375 C 327.707031 305.878906 331.046875 310.175781 331.046875 314.695312 C 330.996094 333.457031 274.511719 348.601562 204.890625 348.601562 Z M 204.890625 348.601562 " fill-opacity="1" fill-rule="nonzero"/></g><path fill="#abe7ec" d="M 247.660156 265.644531 L 253.210938 265.644531 L 253.210938 267.804688 L 247.660156 267.804688 Z M 247.660156 265.644531 " fill-opacity="1" fill-rule="nonzero"/><path fill="#abe7ec" d="M 247.660156 284.027344 L 253.210938 284.027344 L 253.210938 286.1875 L 247.660156 286.1875 Z M 247.660156 284.027344 " fill-opacity="1" fill-rule="nonzero"/><path fill="#abe7ec" d="M 247.660156 302.390625 L 253.210938 302.390625 L 253.210938 304.546875 L 247.660156 304.546875 Z M 247.660156 302.390625 " fill-opacity="1" fill-rule="nonzero"/><path fill="#abe7ec" d="M 188.664062 120.871094 L 188.664062 133.933594 L 182.285156 133.933594 L 182.285156 138.90625 L 234.550781 138.90625 L 234.550781 133.933594 L 230.257812 133.933594 C 231.511719 133.03125 232.367188 131.546875 232.367188 129.890625 L 232.367188 121.527344 C 232.367188 121 231.9375 120.570312 231.410156 120.570312 L 228.898438 120.570312 C 229.050781 118.6875 229.300781 116.777344 229.601562 114.921875 C 229.953125 112.9375 230.433594 110.925781 230.308594 108.941406 C 230.179688 106.933594 229.378906 104.847656 227.695312 103.71875 C 226.011719 102.5625 223.574219 102.636719 221.894531 103.871094 C 220.234375 105.074219 219.382812 107.285156 219.734375 109.320312 C 219.832031 109.898438 220.007812 110.5 219.957031 111.078125 C 219.882812 111.679688 219.429688 112.308594 218.828125 112.285156 C 218.050781 112.285156 217.671875 111.328125 217.648438 110.574219 C 217.597656 109.796875 217.671875 108.890625 217.121094 108.363281 C 216.292969 107.5625 214.835938 108.316406 214.332031 109.371094 C 213.578125 110.976562 214.28125 113.164062 215.863281 114.015625 C 216.769531 114.519531 217.898438 114.59375 218.804688 115.121094 C 220.484375 116.074219 221.011719 118.261719 221.011719 120.195312 C 221.011719 120.320312 221.011719 120.445312 221.011719 120.570312 L 217.875 120.570312 C 217.347656 120.570312 216.917969 121 216.917969 121.527344 L 216.917969 129.914062 C 216.917969 131.597656 217.75 133.054688 219.03125 133.957031 L 204.058594 133.957031 L 204.058594 119.742188 C 206.746094 119.113281 209.484375 117.28125 209.460938 115.019531 C 209.460938 113.890625 208.78125 112.410156 205.84375 111.355469 C 214.207031 104.171875 215.5625 97.515625 213.050781 93.972656 C 211.46875 91.738281 208.105469 90.582031 203.734375 92.390625 C 206.070312 86.136719 205.089844 81.816406 203.207031 79.78125 C 201.851562 78.324219 199.914062 77.875 198.007812 78.578125 C 194.691406 79.832031 191.074219 84.855469 190.320312 95.128906 C 188.1875 92.367188 186.429688 91.863281 185.199219 91.988281 C 183.839844 92.140625 182.761719 93.167969 182.257812 94.828125 C 181.078125 98.59375 182.710938 104.847656 187.835938 110.347656 C 184.269531 110.023438 182.609375 110.976562 181.855469 111.929688 C 181.003906 113.011719 180.953125 114.519531 181.707031 116.074219 C 182.8125 118.234375 185.449219 120.445312 188.664062 120.871094 Z M 218.777344 122.457031 L 230.457031 122.457031 L 230.457031 129.890625 C 230.457031 131.597656 229.074219 132.980469 227.367188 132.980469 L 221.894531 132.980469 C 220.183594 132.980469 218.804688 131.597656 218.804688 129.890625 L 218.804688 122.457031 Z M 202.175781 133.933594 L 190.523438 133.933594 L 190.523438 120.921875 C 192.230469 120.746094 194.390625 119.992188 196.398438 117.65625 C 197.882812 119.464844 200.089844 120.070312 202.175781 119.96875 Z M 183.390625 113.0625 C 183.617188 112.785156 184.34375 112.132812 186.527344 112.132812 C 187.207031 112.132812 188.035156 112.207031 189.015625 112.359375 C 190.648438 112.960938 192.382812 113.289062 194.089844 113.289062 C 194.667969 113.289062 195.246094 113.261719 195.820312 113.1875 C 196.148438 113.136719 196.375 112.859375 196.375 112.535156 C 196.347656 112.207031 196.074219 111.929688 195.746094 111.929688 C 194.238281 111.90625 192.734375 111.578125 191.300781 111.003906 C 184.367188 105.023438 183.1875 98.21875 184.09375 95.355469 C 184.269531 94.828125 184.644531 93.898438 185.449219 93.824219 C 186.253906 93.746094 187.632812 94.527344 189.242188 96.785156 C 190.222656 100.554688 191.601562 104.171875 193.359375 107.535156 C 193.460938 107.761719 193.6875 107.886719 193.914062 107.886719 C 194.011719 107.886719 194.089844 107.863281 194.164062 107.835938 C 194.492188 107.6875 194.617188 107.335938 194.492188 107.035156 C 193.386719 104.144531 192.582031 101.183594 192.054688 98.167969 C 192.054688 98.117188 192.105469 98.09375 192.105469 98.042969 C 192.332031 86.714844 195.796875 81.414062 198.710938 80.308594 C 199.890625 79.859375 201.019531 80.109375 201.851562 81.011719 C 203.40625 82.722656 204.136719 86.914062 201.324219 93.246094 C 199.941406 94.777344 198.910156 96.734375 198.234375 99.273438 L 198.234375 99.296875 C 197.53125 101.859375 197.304688 104.496094 197.078125 107.132812 C 197.050781 107.460938 197.304688 107.738281 197.628906 107.789062 L 197.707031 107.789062 C 198.007812 107.789062 198.285156 107.5625 198.332031 107.261719 C 198.761719 104.773438 199.210938 102.1875 200.042969 99.851562 C 200.894531 97.539062 202.074219 95.757812 203.484375 94.578125 C 206.949219 92.816406 210.089844 92.945312 211.570312 95.003906 C 213.578125 97.839844 211.972656 103.84375 203.933594 110.449219 C 201.824219 110.800781 199.839844 111.605469 198.109375 112.8125 C 197.855469 112.988281 197.757812 113.363281 197.933594 113.640625 C 198.058594 113.839844 198.257812 113.941406 198.484375 113.941406 C 198.558594 113.941406 198.660156 113.914062 198.761719 113.867188 C 200.269531 113.113281 201.898438 112.683594 203.609375 112.558594 C 203.632812 112.558594 203.660156 112.609375 203.683594 112.609375 C 206.570312 113.289062 207.601562 114.265625 207.601562 114.945312 C 207.601562 115.875 206.019531 117.28125 203.632812 117.832031 C 202.554688 118.085938 198.859375 118.6875 197.304688 115.546875 C 197.152344 115.246094 196.851562 115.046875 196.523438 115.019531 C 196.199219 115.019531 195.871094 115.148438 195.695312 115.421875 C 194.039062 117.785156 192.003906 119.015625 189.742188 119.015625 C 186.957031 119.015625 184.34375 117.054688 183.441406 115.148438 C 183.1875 114.71875 182.863281 113.738281 183.390625 113.0625 Z M 183.390625 113.0625 " fill-opacity="1" fill-rule="nonzero"/><path fill="#abe7ec" d="M 166.109375 162.691406 L 159.253906 162.691406 L 159.253906 148.324219 C 159.253906 147.796875 158.824219 147.371094 158.296875 147.371094 L 153.351562 147.371094 C 153.226562 147.34375 153.148438 147.296875 153 147.269531 C 162.140625 139.910156 157.894531 133.507812 151.84375 137.324219 C 156.691406 127 146.621094 124.0625 145.839844 138.378906 C 145.589844 138.304688 145.3125 138.253906 145.035156 138.253906 C 144.285156 137.199219 143.554688 136.671875 142.953125 136.519531 C 144.207031 130.566406 138.429688 129.488281 137.175781 138.078125 C 136.472656 136.070312 133.933594 135.441406 130.921875 137.324219 C 135.769531 127 125.695312 124.0625 124.917969 138.378906 C 124.667969 138.304688 124.390625 138.253906 124.113281 138.253906 C 123.363281 137.199219 122.632812 136.671875 122.03125 136.519531 C 123.410156 129.964844 116.253906 129.285156 116.027344 140.941406 C 112.460938 134.5625 109.621094 141.871094 115.675781 147.394531 L 111.15625 147.394531 C 110.628906 147.394531 110.199219 147.824219 110.199219 148.351562 L 110.199219 162.71875 L 105.101562 162.71875 L 105.101562 167.691406 L 166.109375 167.691406 Z M 112.085938 161.285156 L 157.367188 161.285156 L 157.367188 161.738281 L 112.085938 161.738281 Z M 157.367188 151.917969 L 112.085938 151.917969 L 112.085938 150.410156 L 157.367188 150.410156 Z M 157.367188 152.59375 L 157.367188 154.101562 L 112.085938 154.101562 L 112.085938 152.59375 Z M 157.367188 154.78125 L 157.367188 156.285156 L 112.085938 156.285156 L 112.085938 154.78125 Z M 157.367188 156.941406 L 157.367188 158.445312 L 112.085938 158.445312 L 112.085938 156.941406 Z M 157.367188 159.125 L 157.367188 160.632812 L 112.085938 160.632812 L 112.085938 159.125 Z M 157.367188 149.730469 L 112.085938 149.730469 L 112.085938 149.28125 L 157.367188 149.28125 Z M 124.640625 147.296875 C 123.9375 147.144531 123.335938 147.070312 122.808594 147.019531 C 123.085938 146.769531 123.363281 146.515625 123.613281 146.289062 C 123.9375 146.617188 124.265625 146.96875 124.640625 147.296875 Z M 145.539062 147.296875 C 144.835938 147.144531 144.234375 147.070312 143.707031 147.019531 C 143.980469 146.769531 144.257812 146.515625 144.507812 146.289062 C 144.835938 146.617188 145.164062 146.96875 145.539062 147.296875 Z M 134.539062 145.011719 C 135.066406 145.8125 135.71875 146.617188 136.574219 147.394531 L 135.667969 147.394531 C 135.039062 147.320312 134.539062 147.320312 134.109375 147.394531 L 132.480469 147.394531 C 132.351562 147.371094 132.277344 147.320312 132.128906 147.296875 C 133.082031 146.515625 133.859375 145.761719 134.539062 145.011719 Z M 134.539062 145.011719 " fill-opacity="1" fill-rule="nonzero"/><path fill="#abe7ec" d="M 235.28125 151.917969 C 225.734375 151.917969 218.023438 159.628906 218.023438 169.171875 C 218.023438 178.742188 225.734375 186.453125 235.28125 186.453125 C 244.824219 186.453125 252.535156 178.742188 252.535156 169.171875 C 252.535156 159.628906 244.824219 151.917969 235.28125 151.917969 Z M 235.28125 184.066406 C 227.066406 184.066406 220.410156 177.410156 220.410156 169.171875 C 220.410156 160.957031 227.066406 154.304688 235.28125 154.304688 C 243.519531 154.304688 250.148438 160.957031 250.148438 169.171875 C 250.148438 177.410156 243.519531 184.066406 235.28125 184.066406 Z M 235.28125 184.066406 " fill-opacity="1" fill-rule="nonzero"/><path fill="#abe7ec" d="M 236.308594 156.863281 C 236.308594 157.441406 235.832031 157.871094 235.28125 157.871094 C 234.726562 157.871094 234.273438 157.441406 234.273438 156.863281 C 234.273438 156.3125 234.726562 155.835938 235.28125 155.835938 C 235.832031 155.835938 236.308594 156.3125 236.308594 156.863281 Z M 236.308594 156.863281 " fill-opacity="1" fill-rule="nonzero"/><path fill="#abe7ec" d="M 244.722656 177.183594 C 245.125 177.585938 245.125 178.214844 244.722656 178.617188 C 244.320312 179.015625 243.695312 179.015625 243.292969 178.617188 C 242.890625 178.214844 242.890625 177.5625 243.292969 177.183594 C 243.667969 176.78125 244.320312 176.78125 244.722656 177.183594 Z M 244.722656 177.183594 " fill-opacity="1" fill-rule="nonzero"/><path fill="#abe7ec" d="M 227.292969 159.753906 C 227.695312 160.15625 227.695312 160.78125 227.292969 161.183594 C 226.890625 161.585938 226.261719 161.585938 225.859375 161.183594 C 225.460938 160.78125 225.460938 160.15625 225.859375 159.753906 C 226.238281 159.351562 226.890625 159.351562 227.292969 159.753906 Z M 227.292969 159.753906 " fill-opacity="1" fill-rule="nonzero"/><path fill="#abe7ec" d="M 236.308594 181.503906 C 236.308594 182.082031 235.832031 182.535156 235.28125 182.535156 C 234.726562 182.535156 234.273438 182.082031 234.273438 181.503906 C 234.273438 180.953125 234.726562 180.5 235.28125 180.5 C 235.832031 180.5 236.308594 180.953125 236.308594 181.503906 Z M 236.308594 181.503906 " fill-opacity="1" fill-rule="nonzero"/><path fill="#abe7ec" d="M 244.722656 159.753906 C 245.125 160.15625 245.125 160.78125 244.722656 161.183594 C 244.320312 161.585938 243.667969 161.585938 243.292969 161.183594 C 242.890625 160.78125 242.863281 160.15625 243.292969 159.753906 C 243.667969 159.351562 244.320312 159.351562 244.722656 159.753906 Z M 244.722656 159.753906 " fill-opacity="1" fill-rule="nonzero"/><path fill="#abe7ec" d="M 248.617188 169.171875 C 248.617188 169.75 248.191406 170.203125 247.613281 170.203125 C 247.058594 170.203125 246.605469 169.75 246.605469 169.171875 C 246.605469 168.621094 247.058594 168.167969 247.613281 168.167969 C 248.191406 168.167969 248.617188 168.621094 248.617188 169.171875 Z M 248.617188 169.171875 " fill-opacity="1" fill-rule="nonzero"/><path fill="#abe7ec" d="M 223.976562 169.171875 C 223.976562 169.75 223.550781 170.203125 222.972656 170.203125 C 222.421875 170.203125 221.941406 169.75 221.941406 169.171875 C 221.941406 168.621094 222.421875 168.167969 222.972656 168.167969 C 223.550781 168.167969 223.976562 168.621094 223.976562 169.171875 Z M 223.976562 169.171875 " fill-opacity="1" fill-rule="nonzero"/><path fill="#abe7ec" d="M 227.292969 177.183594 C 227.695312 177.5625 227.695312 178.214844 227.292969 178.617188 C 226.890625 179.015625 226.238281 179.015625 225.859375 178.617188 C 225.460938 178.214844 225.460938 177.585938 225.859375 177.183594 C 226.238281 176.78125 226.890625 176.78125 227.292969 177.183594 Z M 227.292969 177.183594 " fill-opacity="1" fill-rule="nonzero"/><path fill="#abe7ec" d="M 235.882812 161.5625 C 235.882812 161.234375 235.632812 160.984375 235.304688 160.984375 C 234.976562 160.984375 234.726562 161.234375 234.726562 161.5625 L 234.726562 169.171875 C 234.726562 169.5 234.976562 169.75 235.304688 169.75 L 241.332031 169.75 C 241.660156 169.75 241.910156 169.5 241.910156 169.171875 C 241.910156 168.84375 241.660156 168.59375 241.332031 168.59375 L 235.90625 168.59375 L 235.90625 161.5625 Z M 235.882812 161.5625 " fill-opacity="1" fill-rule="nonzero"/></svg>