<svg xmlns="http://www.w3.org/2000/svg" xmlns:xlink="http://www.w3.org/1999/xlink" width="816" zoomAndPan="magnify" viewBox="0 0 612 791.999994" height="1056" preserveAspectRatio="xMidYMid meet" version="1.0"><defs><clipPath id="e74db78bde"><path d="M 67.476562 382 L 338 382 L 338 428 L 67.476562 428 Z M 67.476562 382 " clip-rule="nonzero"/></clipPath><clipPath id="de088bb4ed"><path d="M 67.476562 274 L 209 274 L 209 396 L 67.476562 396 Z M 67.476562 274 " clip-rule="nonzero"/></clipPath><clipPath id="3ed8abb78e"><path d="M 67.476562 465 L 443.226562 465 L 443.226562 511.546875 L 67.476562 511.546875 Z M 67.476562 465 " clip-rule="nonzero"/></clipPath><clipPath id="70a9ae3c7c"><path d="M 303 135.796875 L 443.226562 135.796875 L 443.226562 276 L 303 276 Z M 303 135.796875 " clip-rule="nonzero"/></clipPath><clipPath id="245cfee7a2"><path d="M 366 135.796875 L 380 135.796875 L 380 163 L 366 163 Z M 366 135.796875 " clip-rule="nonzero"/></clipPath><clipPath id="22106f4de4"><path d="M 416 199 L 443.226562 199 L 443.226562 213 L 416 213 Z M 416 199 " clip-rule="nonzero"/></clipPath><clipPath id="24c85158ca"><path d="M 67.476562 175 L 110 175 L 110 230 L 67.476562 230 Z M 67.476562 175 " clip-rule="nonzero"/></clipPath><clipPath id="dce0833bc6"><path d="M 119 135.796875 L 162 135.796875 L 162 230 L 119 230 Z M 119 135.796875 " clip-rule="nonzero"/></clipPath><clipPath id="0e704ba695"><path d="M 67.476562 238 L 215 238 L 215 252 L 67.476562 252 Z M 67.476562 238 " clip-rule="nonzero"/></clipPath></defs><path fill="#ffd6f5" d="M 261.105469 478.941406 L 143.828125 478.941406 C 140.085938 478.941406 137.226562 476.082031 137.226562 472.339844 L 137.226562 448.796875 C 137.226562 445.273438 140.085938 442.195312 143.828125 442.195312 L 261.105469 442.195312 C 264.625 442.195312 267.707031 445.273438 267.707031 448.796875 L 267.707031 472.339844 C 267.707031 476.082031 264.625 478.941406 261.105469 478.941406 Z M 150.429688 465.738281 L 254.503906 465.738281 L 254.503906 455.398438 L 150.429688 455.398438 Z M 150.429688 465.738281 " fill-opacity="1" fill-rule="evenodd"/><path fill="#ffd6f5" d="M 237.5625 455.398438 L 167.371094 455.398438 C 163.628906 455.398438 160.769531 452.535156 160.769531 448.796875 L 160.769531 420.851562 C 160.769531 417.332031 163.628906 414.25 167.371094 414.25 L 237.5625 414.25 C 241.082031 414.25 244.164062 417.332031 244.164062 420.851562 L 244.164062 448.796875 C 244.164062 452.535156 241.082031 455.398438 237.5625 455.398438 Z M 173.972656 442.195312 L 230.960938 442.195312 L 230.960938 427.453125 L 173.972656 427.453125 Z M 173.972656 442.195312 " fill-opacity="1" fill-rule="evenodd"/><g clip-path="url(#e74db78bde)"><path fill="#ffd6f5" d="M 330.636719 427.453125 L 74.078125 427.453125 C 70.554688 427.453125 67.476562 424.59375 67.476562 420.851562 L 67.476562 389.386719 C 67.476562 385.867188 70.554688 382.785156 74.078125 382.785156 L 330.636719 382.785156 C 334.378906 382.785156 337.238281 385.867188 337.238281 389.386719 L 337.238281 420.851562 C 337.238281 424.59375 334.378906 427.453125 330.636719 427.453125 Z M 80.675781 414.25 L 324.035156 414.25 L 324.035156 395.988281 L 80.675781 395.988281 Z M 80.675781 414.25 " fill-opacity="1" fill-rule="evenodd"/></g><path fill="#ffd6f5" d="M 330.636719 395.988281 L 202.355469 395.988281 C 198.835938 395.988281 195.753906 393.128906 195.753906 389.386719 L 195.753906 281.347656 C 195.753906 277.828125 198.835938 274.746094 202.355469 274.746094 L 330.636719 274.746094 C 334.378906 274.746094 337.238281 277.828125 337.238281 281.347656 L 337.238281 389.386719 C 337.238281 393.128906 334.378906 395.988281 330.636719 395.988281 Z M 208.957031 382.785156 L 324.035156 382.785156 L 324.035156 287.949219 L 208.957031 287.949219 Z M 208.957031 382.785156 " fill-opacity="1" fill-rule="evenodd"/><g clip-path="url(#de088bb4ed)"><path fill="#ffd6f5" d="M 202.355469 395.988281 L 74.078125 395.988281 C 70.554688 395.988281 67.476562 393.128906 67.476562 389.386719 L 67.476562 281.347656 C 67.476562 277.828125 70.554688 274.746094 74.078125 274.746094 L 202.355469 274.746094 C 206.097656 274.746094 208.957031 277.828125 208.957031 281.347656 L 208.957031 389.386719 C 208.957031 393.128906 206.097656 395.988281 202.355469 395.988281 Z M 80.675781 382.785156 L 195.753906 382.785156 L 195.753906 287.949219 L 80.675781 287.949219 Z M 80.675781 382.785156 " fill-opacity="1" fill-rule="evenodd"/></g><g clip-path="url(#3ed8abb78e)"><path fill="#ffd6f5" d="M 436.472656 511.507812 L 74.078125 511.507812 C 70.554688 511.507812 67.476562 508.425781 67.476562 504.90625 L 67.476562 472.339844 C 67.476562 468.820312 70.554688 465.738281 74.078125 465.738281 L 436.472656 465.738281 C 439.996094 465.738281 443.074219 468.820312 443.074219 472.339844 L 443.074219 504.90625 C 443.074219 508.425781 439.996094 511.507812 436.472656 511.507812 Z M 80.675781 498.304688 L 429.875 498.304688 L 429.875 478.941406 L 80.675781 478.941406 Z M 80.675781 498.304688 " fill-opacity="1" fill-rule="evenodd"/></g><path fill="#ffd6f5" d="M 299.832031 395.988281 L 233.160156 395.988281 C 229.640625 395.988281 226.5625 393.128906 226.5625 389.386719 L 226.5625 376.40625 C 226.5625 365.84375 235.363281 357.042969 246.144531 357.042969 L 287.070312 357.042969 C 297.851562 357.042969 306.433594 365.84375 306.433594 376.40625 L 306.433594 389.386719 C 306.433594 393.128906 303.574219 395.988281 299.832031 395.988281 Z M 239.761719 382.785156 L 293.230469 382.785156 L 293.230469 376.40625 C 293.230469 373.105469 290.589844 370.242188 287.070312 370.242188 L 246.144531 370.242188 C 242.625 370.242188 239.761719 373.105469 239.761719 376.40625 Z M 239.761719 382.785156 " fill-opacity="1" fill-rule="evenodd"/><path fill="#ffd6f5" d="M 266.605469 350.878906 C 253.625 350.878906 243.0625 340.320312 243.0625 327.335938 C 243.0625 314.355469 253.625 303.792969 266.605469 303.792969 C 279.589844 303.792969 290.152344 314.355469 290.152344 327.335938 C 290.152344 340.320312 279.589844 350.878906 266.605469 350.878906 Z M 266.605469 316.996094 C 260.886719 316.996094 256.265625 321.617188 256.265625 327.335938 C 256.265625 333.058594 260.886719 337.679688 266.605469 337.679688 C 272.328125 337.679688 276.949219 333.058594 276.949219 327.335938 C 276.949219 321.617188 272.328125 316.996094 266.605469 316.996094 Z M 266.605469 316.996094 " fill-opacity="1" fill-rule="evenodd"/><path fill="#ffd6f5" d="M 423.933594 478.941406 L 383.886719 478.941406 C 380.585938 478.941406 377.945312 476.519531 377.285156 473.441406 L 364.964844 398.628906 C 364.742188 396.867188 365.183594 394.886719 366.503906 393.347656 C 367.824219 391.808594 369.582031 391.148438 371.5625 391.148438 L 436.253906 391.148438 C 438.234375 391.148438 440.214844 391.808594 441.316406 393.347656 C 442.636719 394.886719 443.296875 396.867188 442.855469 398.628906 L 430.535156 473.441406 C 429.875 476.742188 427.234375 478.941406 423.933594 478.941406 Z M 389.386719 465.738281 L 418.429688 465.738281 L 428.554688 404.347656 L 379.265625 404.347656 Z M 389.386719 465.738281 " fill-opacity="1" fill-rule="evenodd"/><path fill="#ffd6f5" d="M 432.953125 424.152344 L 374.863281 424.152344 C 371.125 424.152344 368.261719 421.292969 368.261719 417.550781 C 368.261719 414.03125 371.125 410.949219 374.863281 410.949219 L 432.953125 410.949219 C 436.695312 410.949219 439.554688 414.03125 439.554688 417.550781 C 439.554688 421.292969 436.695312 424.152344 432.953125 424.152344 Z M 432.953125 424.152344 " fill-opacity="1" fill-rule="evenodd"/><path fill="#ffd6f5" d="M 390.925781 387.1875 C 387.40625 387.1875 384.324219 384.324219 384.324219 380.585938 C 384.324219 377.285156 385.867188 374.425781 387.1875 372.222656 C 387.40625 371.785156 387.847656 371.125 388.066406 370.464844 C 387.847656 370.023438 387.40625 369.363281 387.1875 368.703125 C 385.867188 366.503906 384.324219 363.863281 384.324219 360.5625 C 384.324219 357.042969 385.867188 354.402344 387.1875 352.199219 C 387.40625 351.539062 388.066406 350.660156 388.066406 350.21875 C 388.285156 346.699219 391.148438 343.839844 394.667969 343.839844 C 398.410156 343.839844 401.269531 346.917969 401.269531 350.441406 C 401.269531 353.960938 399.730469 356.601562 398.628906 358.800781 C 398.1875 359.242188 397.96875 360.121094 397.75 360.5625 C 397.75 361 398.1875 361.660156 398.628906 362.320312 C 399.730469 364.523438 401.269531 367.164062 401.269531 370.464844 C 401.269531 373.984375 399.730469 376.625 398.628906 378.824219 C 398.1875 379.484375 397.75 380.363281 397.527344 380.804688 C 397.527344 384.324219 394.449219 387.1875 390.925781 387.1875 Z M 390.925781 387.1875 " fill-opacity="1" fill-rule="evenodd"/><path fill="#ffd6f5" d="M 413.152344 387.1875 C 409.410156 387.1875 406.550781 384.324219 406.550781 380.585938 C 406.550781 377.285156 408.089844 374.425781 409.191406 372.222656 C 409.628906 371.785156 410.070312 371.125 410.289062 370.464844 C 410.070312 370.023438 409.628906 369.363281 409.191406 368.703125 C 408.089844 366.503906 406.550781 363.863281 406.550781 360.5625 C 406.550781 357.042969 408.089844 354.402344 409.191406 352.199219 C 409.628906 351.539062 410.070312 350.660156 410.289062 350.21875 C 410.511719 346.699219 413.371094 343.839844 416.890625 343.839844 C 420.632812 343.839844 423.492188 346.917969 423.492188 350.441406 C 423.492188 353.960938 421.953125 356.601562 420.851562 358.800781 C 420.410156 359.242188 419.972656 360.121094 419.75 360.5625 C 419.972656 361 420.410156 361.660156 420.851562 362.320312 C 421.953125 364.523438 423.492188 367.164062 423.492188 370.464844 C 423.492188 373.984375 421.953125 376.625 420.851562 378.824219 C 420.410156 379.484375 419.972656 380.363281 419.75 380.804688 C 419.53125 384.324219 416.671875 387.1875 413.152344 387.1875 Z M 413.152344 387.1875 " fill-opacity="1" fill-rule="evenodd"/><path fill="#ffd6f5" d="M 171.550781 395.988281 L 104.882812 395.988281 C 101.140625 395.988281 98.28125 393.128906 98.28125 389.386719 L 98.28125 376.40625 C 98.28125 365.84375 107.082031 357.042969 117.863281 357.042969 L 158.789062 357.042969 C 169.570312 357.042969 178.152344 365.84375 178.152344 376.40625 L 178.152344 389.386719 C 178.152344 393.128906 175.292969 395.988281 171.550781 395.988281 Z M 111.480469 382.785156 L 164.949219 382.785156 L 164.949219 376.40625 C 164.949219 373.105469 162.308594 370.242188 158.789062 370.242188 L 117.863281 370.242188 C 114.34375 370.242188 111.480469 373.105469 111.480469 376.40625 Z M 111.480469 382.785156 " fill-opacity="1" fill-rule="evenodd"/><path fill="#ffd6f5" d="M 138.328125 350.878906 C 125.34375 350.878906 114.78125 340.320312 114.78125 327.335938 C 114.78125 314.355469 125.34375 303.792969 138.328125 303.792969 C 151.308594 303.792969 161.871094 314.355469 161.871094 327.335938 C 161.871094 340.320312 151.308594 350.878906 138.328125 350.878906 Z M 138.328125 316.996094 C 132.605469 316.996094 127.984375 321.617188 127.984375 327.335938 C 127.984375 333.058594 132.605469 337.679688 138.328125 337.679688 C 144.046875 337.679688 148.667969 333.058594 148.667969 327.335938 C 148.667969 321.617188 144.046875 316.996094 138.328125 316.996094 Z M 138.328125 316.996094 " fill-opacity="1" fill-rule="evenodd"/><g clip-path="url(#70a9ae3c7c)"><path fill="#ffd6f5" d="M 373.324219 275.40625 C 334.816406 275.40625 303.574219 244.164062 303.574219 205.65625 C 303.574219 167.152344 334.816406 135.90625 373.324219 135.90625 C 411.609375 135.90625 443.074219 167.152344 443.074219 205.65625 C 443.074219 244.164062 411.609375 275.40625 373.324219 275.40625 Z M 373.324219 149.109375 C 342.078125 149.109375 316.554688 174.410156 316.554688 205.65625 C 316.554688 236.902344 342.078125 262.207031 373.324219 262.207031 C 404.347656 262.207031 429.875 236.902344 429.875 205.65625 C 429.875 174.410156 404.347656 149.109375 373.324219 149.109375 Z M 373.324219 149.109375 " fill-opacity="1" fill-rule="evenodd"/></g><g clip-path="url(#245cfee7a2)"><path fill="#ffd6f5" d="M 373.324219 162.53125 C 369.582031 162.53125 366.722656 159.667969 366.722656 155.929688 L 366.722656 142.507812 C 366.722656 138.984375 369.582031 135.90625 373.324219 135.90625 C 376.84375 135.90625 379.707031 138.984375 379.707031 142.507812 L 379.707031 155.929688 C 379.707031 159.667969 376.84375 162.53125 373.324219 162.53125 Z M 373.324219 162.53125 " fill-opacity="1" fill-rule="evenodd"/></g><path fill="#ffd6f5" d="M 408.308594 177.050781 C 406.769531 177.050781 405.007812 176.390625 403.6875 175.292969 C 401.046875 172.652344 401.046875 168.472656 403.6875 165.832031 L 413.152344 156.367188 C 415.792969 153.730469 419.972656 153.730469 422.613281 156.367188 C 425.03125 159.007812 425.03125 163.191406 422.613281 165.609375 L 412.929688 175.292969 C 411.832031 176.390625 410.070312 177.050781 408.308594 177.050781 Z M 408.308594 177.050781 " fill-opacity="1" fill-rule="evenodd"/><g clip-path="url(#22106f4de4)"><path fill="#ffd6f5" d="M 436.472656 212.257812 L 422.832031 212.257812 C 419.3125 212.257812 416.230469 209.398438 416.230469 205.65625 C 416.230469 202.136719 419.3125 199.054688 422.832031 199.054688 L 436.472656 199.054688 C 439.996094 199.054688 443.074219 202.136719 443.074219 205.65625 C 443.074219 209.398438 439.996094 212.257812 436.472656 212.257812 Z M 436.472656 212.257812 " fill-opacity="1" fill-rule="evenodd"/></g><path fill="#ffd6f5" d="M 417.769531 256.925781 C 416.230469 256.925781 414.472656 256.265625 413.152344 254.945312 L 403.6875 245.484375 C 401.046875 242.84375 401.046875 238.664062 403.6875 236.242188 C 406.328125 233.601562 410.511719 233.601562 412.929688 236.242188 L 422.613281 245.703125 C 425.03125 248.34375 425.03125 252.523438 422.613281 254.945312 C 421.292969 256.265625 419.53125 256.925781 417.769531 256.925781 Z M 417.769531 256.925781 " fill-opacity="1" fill-rule="evenodd"/><path fill="#ffd6f5" d="M 373.324219 275.40625 C 369.582031 275.40625 366.722656 272.546875 366.722656 268.808594 L 366.722656 255.386719 C 366.722656 251.863281 369.582031 248.785156 373.324219 248.785156 C 376.84375 248.785156 379.707031 251.863281 379.707031 255.386719 L 379.707031 268.808594 C 379.707031 272.546875 376.84375 275.40625 373.324219 275.40625 Z M 373.324219 275.40625 " fill-opacity="1" fill-rule="evenodd"/><path fill="#ffd6f5" d="M 328.65625 256.925781 C 326.898438 256.925781 325.136719 256.265625 323.816406 254.945312 C 321.394531 252.523438 321.394531 248.34375 323.816406 245.703125 L 333.496094 236.242188 C 335.917969 233.601562 340.097656 233.601562 342.738281 236.242188 C 345.378906 238.664062 345.378906 242.84375 342.738281 245.484375 L 333.277344 254.945312 C 331.957031 256.265625 330.199219 256.925781 328.65625 256.925781 Z M 328.65625 256.925781 " fill-opacity="1" fill-rule="evenodd"/><path fill="#ffd6f5" d="M 323.597656 212.257812 L 310.175781 212.257812 C 306.433594 212.257812 303.574219 209.398438 303.574219 205.65625 C 303.574219 202.136719 306.433594 199.054688 310.175781 199.054688 L 323.597656 199.054688 C 327.117188 199.054688 330.199219 202.136719 330.199219 205.65625 C 330.199219 209.398438 327.117188 212.257812 323.597656 212.257812 Z M 323.597656 212.257812 " fill-opacity="1" fill-rule="evenodd"/><path fill="#ffd6f5" d="M 338.117188 177.050781 C 336.359375 177.050781 334.597656 176.390625 333.496094 175.292969 L 323.816406 165.609375 C 321.394531 163.191406 321.394531 159.007812 323.816406 156.367188 C 326.457031 153.730469 330.636719 153.730469 333.277344 156.367188 L 342.738281 165.832031 C 345.378906 168.472656 345.378906 172.652344 342.738281 175.292969 C 341.417969 176.390625 339.660156 177.050781 338.117188 177.050781 Z M 338.117188 177.050781 " fill-opacity="1" fill-rule="evenodd"/><path fill="#ffd6f5" d="M 373.324219 212.257812 C 369.582031 212.257812 366.722656 209.398438 366.722656 205.65625 L 366.722656 183.652344 C 366.722656 180.132812 369.582031 177.050781 373.324219 177.050781 C 376.84375 177.050781 379.707031 180.132812 379.707031 183.652344 L 379.707031 205.65625 C 379.707031 209.398438 376.84375 212.257812 373.324219 212.257812 Z M 373.324219 212.257812 " fill-opacity="1" fill-rule="evenodd"/><path fill="#ffd6f5" d="M 384.984375 224.140625 C 383.226562 224.140625 381.6875 223.480469 380.367188 222.160156 L 368.484375 210.277344 C 366.0625 207.855469 366.0625 203.675781 368.484375 201.035156 C 371.125 198.394531 375.304688 198.394531 377.945312 201.035156 L 389.605469 212.917969 C 392.246094 215.339844 392.246094 219.519531 389.605469 222.160156 C 388.285156 223.480469 386.746094 224.140625 384.984375 224.140625 Z M 384.984375 224.140625 " fill-opacity="1" fill-rule="evenodd"/><g clip-path="url(#24c85158ca)"><path fill="#ffd6f5" d="M 102.902344 229.640625 L 74.078125 229.640625 C 70.554688 229.640625 67.476562 226.78125 67.476562 223.257812 L 67.476562 182.554688 C 67.476562 178.8125 70.554688 175.953125 74.078125 175.953125 L 102.902344 175.953125 C 106.421875 175.953125 109.503906 178.8125 109.503906 182.554688 L 109.503906 223.257812 C 109.503906 226.78125 106.421875 229.640625 102.902344 229.640625 Z M 80.675781 216.660156 L 96.300781 216.660156 L 96.300781 189.152344 L 80.675781 189.152344 Z M 80.675781 216.660156 " fill-opacity="1" fill-rule="evenodd"/></g><g clip-path="url(#dce0833bc6)"><path fill="#ffd6f5" d="M 155.050781 229.640625 L 126.445312 229.640625 C 122.703125 229.640625 119.84375 226.78125 119.84375 223.257812 L 119.84375 142.507812 C 119.84375 138.984375 122.703125 135.90625 126.445312 135.90625 L 155.050781 135.90625 C 158.789062 135.90625 161.648438 138.984375 161.648438 142.507812 L 161.648438 223.257812 C 161.648438 226.78125 158.789062 229.640625 155.050781 229.640625 Z M 133.046875 216.660156 L 148.449219 216.660156 L 148.449219 149.109375 L 133.046875 149.109375 Z M 133.046875 216.660156 " fill-opacity="1" fill-rule="evenodd"/></g><path fill="#ffd6f5" d="M 207.417969 229.640625 L 178.59375 229.640625 C 175.074219 229.640625 171.992188 226.78125 171.992188 223.257812 L 171.992188 165.832031 C 171.992188 162.089844 175.074219 159.230469 178.59375 159.230469 L 207.417969 159.230469 C 211.160156 159.230469 214.019531 162.089844 214.019531 165.832031 L 214.019531 223.257812 C 214.019531 226.78125 211.160156 229.640625 207.417969 229.640625 Z M 185.195312 216.660156 L 200.816406 216.660156 L 200.816406 172.429688 L 185.195312 172.429688 Z M 185.195312 216.660156 " fill-opacity="1" fill-rule="evenodd"/><g clip-path="url(#0e704ba695)"><path fill="#ffd6f5" d="M 207.417969 251.644531 L 74.078125 251.644531 C 70.554688 251.644531 67.476562 248.785156 67.476562 245.042969 C 67.476562 241.523438 70.554688 238.441406 74.078125 238.441406 L 207.417969 238.441406 C 211.160156 238.441406 214.019531 241.523438 214.019531 245.042969 C 214.019531 248.785156 211.160156 251.644531 207.417969 251.644531 Z M 207.417969 251.644531 " fill-opacity="1" fill-rule="evenodd"/></g></svg>