<svg version="1.0" preserveAspectRatio="xMidYMid meet" viewBox="225.18 236.519997956 349.92 340.19999706" zoomAndPan="magnify" xmlns:xlink="http://www.w3.org/1999/xlink" xmlns="http://www.w3.org/2000/svg" style="max-height: 500px" width="349.92" height="340.19999706"><rect fill-opacity="1" height="971.999992" y="-80.999999" fill="#ffffff" width="972" x="-81"/><rect fill-opacity="1" height="971.999992" y="-80.999999" fill="#ffffff" width="972" x="-81"/><path fill-rule="nonzero" fill-opacity="1" d="M 316.160156 530.417969 C 316.160156 531.617188 316.101562 532.8125 315.984375 534.003906 C 315.867188 535.195312 315.691406 536.378906 315.457031 537.554688 C 315.226562 538.730469 314.933594 539.890625 314.585938 541.039062 C 314.238281 542.183594 313.835938 543.3125 313.375 544.417969 C 312.917969 545.523438 312.40625 546.605469 311.84375 547.664062 C 311.277344 548.71875 310.660156 549.746094 309.996094 550.742188 C 309.332031 551.738281 308.617188 552.699219 307.859375 553.625 C 307.097656 554.550781 306.292969 555.4375 305.445312 556.285156 C 304.601562 557.132812 303.714844 557.9375 302.789062 558.695312 C 301.859375 559.457031 300.898438 560.167969 299.902344 560.835938 C 298.90625 561.5 297.882812 562.117188 296.824219 562.679688 C 295.769531 563.246094 294.6875 563.757812 293.578125 564.214844 C 292.472656 564.675781 291.347656 565.078125 290.199219 565.425781 C 289.054688 565.773438 287.890625 566.0625 286.71875 566.296875 C 285.542969 566.53125 284.359375 566.707031 283.167969 566.824219 C 281.972656 566.941406 280.777344 567 279.582031 567 C 278.382812 567 277.1875 566.941406 275.996094 566.824219 C 274.804688 566.707031 273.621094 566.53125 272.445312 566.296875 C 271.269531 566.0625 270.109375 565.773438 268.960938 565.425781 C 267.816406 565.078125 266.6875 564.675781 265.582031 564.214844 C 264.476562 563.757812 263.394531 563.246094 262.335938 562.679688 C 261.28125 562.117188 260.253906 561.5 259.257812 560.835938 C 258.261719 560.167969 257.300781 559.457031 256.375 558.695312 C 255.449219 557.9375 254.5625 557.132812 253.714844 556.285156 C 252.867188 555.4375 252.0625 554.550781 251.304688 553.625 C 250.542969 552.699219 249.832031 551.738281 249.164062 550.742188 C 248.5 549.746094 247.882812 548.71875 247.320312 547.664062 C 246.753906 546.605469 246.242188 545.523438 245.785156 544.417969 C 245.324219 543.3125 244.921875 542.183594 244.574219 541.039062 C 244.226562 539.890625 243.9375 538.730469 243.703125 537.554688 C 243.46875 536.378906 243.292969 535.195312 243.175781 534.003906 C 243.058594 532.8125 243 531.617188 243 530.417969 C 243 529.222656 243.058594 528.027344 243.175781 526.832031 C 243.292969 525.640625 243.46875 524.457031 243.703125 523.28125 C 243.9375 522.109375 244.226562 520.945312 244.574219 519.800781 C 244.921875 518.652344 245.324219 517.527344 245.785156 516.421875 C 246.242188 515.3125 246.753906 514.230469 247.320312 513.175781 C 247.882812 512.117188 248.5 511.09375 249.164062 510.097656 C 249.832031 509.101562 250.542969 508.140625 251.304688 507.210938 C 252.0625 506.285156 252.867188 505.398438 253.714844 504.554688 C 254.5625 503.707031 255.449219 502.902344 256.375 502.140625 C 257.300781 501.382812 258.261719 500.667969 259.257812 500.003906 C 260.253906 499.339844 261.28125 498.722656 262.335938 498.15625 C 263.394531 497.59375 264.476562 497.082031 265.582031 496.625 C 266.6875 496.164062 267.816406 495.761719 268.960938 495.414062 C 270.109375 495.066406 271.269531 494.773438 272.445312 494.542969 C 273.621094 494.308594 274.804688 494.132812 275.996094 494.015625 C 277.1875 493.898438 278.382812 493.839844 279.582031 493.839844 C 280.777344 493.839844 281.972656 493.898438 283.167969 494.015625 C 284.359375 494.132812 285.542969 494.308594 286.71875 494.542969 C 287.890625 494.773438 289.054688 495.066406 290.199219 495.414062 C 291.347656 495.761719 292.472656 496.164062 293.578125 496.625 C 294.6875 497.082031 295.769531 497.59375 296.824219 498.15625 C 297.882812 498.722656 298.90625 499.339844 299.902344 500.003906 C 300.898438 500.667969 301.859375 501.382812 302.789062 502.140625 C 303.714844 502.902344 304.601562 503.707031 305.445312 504.554688 C 306.292969 505.398438 307.097656 506.285156 307.859375 507.210938 C 308.617188 508.140625 309.332031 509.101562 309.996094 510.097656 C 310.660156 511.09375 311.277344 512.117188 311.84375 513.175781 C 312.40625 514.230469 312.917969 515.3125 313.375 516.421875 C 313.835938 517.527344 314.238281 518.652344 314.585938 519.800781 C 314.933594 520.945312 315.226562 522.109375 315.457031 523.28125 C 315.691406 524.457031 315.867188 525.640625 315.984375 526.832031 C 316.101562 528.027344 316.160156 529.222656 316.160156 530.417969 Z M 316.160156 530.417969" fill="#2a99d5"/><path fill-rule="nonzero" fill-opacity="1" d="M 478.160156 530.417969 C 478.160156 531.617188 478.101562 532.8125 477.984375 534.003906 C 477.867188 535.195312 477.691406 536.378906 477.457031 537.554688 C 477.226562 538.730469 476.933594 539.890625 476.585938 541.039062 C 476.238281 542.183594 475.835938 543.3125 475.375 544.417969 C 474.917969 545.523438 474.40625 546.605469 473.84375 547.664062 C 473.277344 548.71875 472.660156 549.746094 471.996094 550.742188 C 471.332031 551.738281 470.617188 552.699219 469.859375 553.625 C 469.097656 554.550781 468.292969 555.4375 467.445312 556.285156 C 466.601562 557.132812 465.714844 557.9375 464.789062 558.695312 C 463.859375 559.457031 462.898438 560.167969 461.902344 560.835938 C 460.90625 561.5 459.882812 562.117188 458.824219 562.679688 C 457.769531 563.246094 456.6875 563.757812 455.578125 564.214844 C 454.472656 564.675781 453.347656 565.078125 452.199219 565.425781 C 451.054688 565.773438 449.890625 566.0625 448.71875 566.296875 C 447.542969 566.53125 446.359375 566.707031 445.167969 566.824219 C 443.972656 566.941406 442.777344 567 441.582031 567 C 440.382812 567 439.1875 566.941406 437.996094 566.824219 C 436.804688 566.707031 435.617188 566.53125 434.445312 566.296875 C 433.269531 566.0625 432.109375 565.773438 430.960938 565.425781 C 429.816406 565.078125 428.6875 564.675781 427.582031 564.214844 C 426.476562 563.757812 425.394531 563.246094 424.335938 562.679688 C 423.28125 562.117188 422.253906 561.5 421.257812 560.835938 C 420.261719 560.167969 419.300781 559.457031 418.375 558.695312 C 417.449219 557.9375 416.5625 557.132812 415.714844 556.285156 C 414.867188 555.4375 414.0625 554.550781 413.304688 553.625 C 412.542969 552.699219 411.832031 551.738281 411.164062 550.742188 C 410.5 549.746094 409.882812 548.71875 409.320312 547.664062 C 408.753906 546.605469 408.242188 545.523438 407.785156 544.417969 C 407.324219 543.3125 406.921875 542.183594 406.574219 541.039062 C 406.226562 539.890625 405.9375 538.730469 405.703125 537.554688 C 405.46875 536.378906 405.292969 535.195312 405.175781 534.003906 C 405.058594 532.8125 405 531.617188 405 530.417969 C 405 529.222656 405.058594 528.027344 405.175781 526.832031 C 405.292969 525.640625 405.46875 524.457031 405.703125 523.28125 C 405.9375 522.109375 406.226562 520.945312 406.574219 519.800781 C 406.921875 518.652344 407.324219 517.527344 407.785156 516.421875 C 408.242188 515.3125 408.753906 514.230469 409.320312 513.175781 C 409.882812 512.117188 410.5 511.09375 411.164062 510.097656 C 411.832031 509.101562 412.542969 508.140625 413.304688 507.210938 C 414.0625 506.285156 414.867188 505.398438 415.714844 504.554688 C 416.5625 503.707031 417.449219 502.902344 418.375 502.140625 C 419.300781 501.382812 420.261719 500.667969 421.257812 500.003906 C 422.253906 499.339844 423.28125 498.722656 424.335938 498.15625 C 425.394531 497.59375 426.476562 497.082031 427.582031 496.625 C 428.6875 496.164062 429.816406 495.761719 430.960938 495.414062 C 432.109375 495.066406 433.269531 494.773438 434.445312 494.542969 C 435.617188 494.308594 436.804688 494.132812 437.996094 494.015625 C 439.1875 493.898438 440.382812 493.839844 441.582031 493.839844 C 442.777344 493.839844 443.972656 493.898438 445.167969 494.015625 C 446.359375 494.132812 447.542969 494.308594 448.71875 494.542969 C 449.890625 494.773438 451.054688 495.066406 452.199219 495.414062 C 453.347656 495.761719 454.472656 496.164062 455.578125 496.625 C 456.6875 497.082031 457.769531 497.59375 458.824219 498.15625 C 459.882812 498.722656 460.90625 499.339844 461.902344 500.003906 C 462.898438 500.667969 463.859375 501.382812 464.789062 502.140625 C 465.714844 502.902344 466.601562 503.707031 467.445312 504.554688 C 468.292969 505.398438 469.097656 506.285156 469.859375 507.210938 C 470.617188 508.140625 471.332031 509.101562 471.996094 510.097656 C 472.660156 511.09375 473.277344 512.117188 473.84375 513.175781 C 474.40625 514.230469 474.917969 515.3125 475.375 516.421875 C 475.835938 517.527344 476.238281 518.652344 476.585938 519.800781 C 476.933594 520.945312 477.226562 522.109375 477.457031 523.28125 C 477.691406 524.457031 477.867188 525.640625 477.984375 526.832031 C 478.101562 528.027344 478.160156 529.222656 478.160156 530.417969 Z M 478.160156 530.417969" fill="#d94941"/><path fill-rule="nonzero" fill-opacity="1" d="M 399.773438 389.324219 C 399.773438 390.519531 399.714844 391.714844 399.597656 392.90625 C 399.480469 394.101562 399.304688 395.285156 399.070312 396.460938 C 398.835938 397.632812 398.546875 398.792969 398.199219 399.941406 C 397.851562 401.085938 397.449219 402.214844 396.988281 403.320312 C 396.53125 404.429688 396.019531 405.511719 395.453125 406.566406 C 394.890625 407.625 394.273438 408.648438 393.609375 409.644531 C 392.945312 410.640625 392.230469 411.601562 391.472656 412.527344 C 390.710938 413.457031 389.90625 414.34375 389.058594 415.1875 C 388.210938 416.035156 387.324219 416.839844 386.398438 417.601562 C 385.472656 418.359375 384.511719 419.074219 383.515625 419.738281 C 382.519531 420.402344 381.492188 421.019531 380.4375 421.582031 C 379.382812 422.148438 378.300781 422.660156 377.191406 423.117188 C 376.085938 423.578125 374.957031 423.980469 373.8125 424.328125 C 372.664062 424.675781 371.503906 424.964844 370.328125 425.199219 C 369.15625 425.433594 367.972656 425.609375 366.777344 425.726562 C 365.585938 425.84375 364.390625 425.902344 363.195312 425.902344 C 361.996094 425.902344 360.800781 425.84375 359.609375 425.726562 C 358.414062 425.609375 357.230469 425.433594 356.058594 425.199219 C 354.882812 424.964844 353.722656 424.675781 352.574219 424.328125 C 351.429688 423.980469 350.300781 423.578125 349.195312 423.117188 C 348.085938 422.660156 347.007812 422.148438 345.949219 421.582031 C 344.894531 421.019531 343.867188 420.402344 342.871094 419.738281 C 341.875 419.074219 340.914062 418.359375 339.988281 417.601562 C 339.0625 416.839844 338.175781 416.035156 337.328125 415.1875 C 336.480469 414.34375 335.675781 413.457031 334.917969 412.527344 C 334.15625 411.601562 333.445312 410.640625 332.777344 409.644531 C 332.113281 408.648438 331.496094 407.625 330.933594 406.566406 C 330.367188 405.511719 329.855469 404.429688 329.398438 403.320312 C 328.9375 402.214844 328.535156 401.085938 328.1875 399.941406 C 327.839844 398.792969 327.550781 397.632812 327.316406 396.460938 C 327.082031 395.285156 326.90625 394.101562 326.789062 392.90625 C 326.671875 391.714844 326.613281 390.519531 326.613281 389.324219 C 326.613281 388.125 326.671875 386.929688 326.789062 385.738281 C 326.90625 384.542969 327.082031 383.359375 327.316406 382.1875 C 327.550781 381.011719 327.839844 379.851562 328.1875 378.703125 C 328.535156 377.558594 328.9375 376.429688 329.398438 375.324219 C 329.855469 374.21875 330.367188 373.136719 330.933594 372.078125 C 331.496094 371.023438 332.113281 369.996094 332.777344 369 C 333.445312 368.003906 334.15625 367.042969 334.917969 366.117188 C 335.675781 365.191406 336.480469 364.304688 337.328125 363.457031 C 338.175781 362.609375 339.0625 361.804688 339.988281 361.046875 C 340.914062 360.285156 341.875 359.574219 342.871094 358.90625 C 343.867188 358.242188 344.894531 357.625 345.949219 357.0625 C 347.007812 356.496094 348.085938 355.984375 349.195312 355.527344 C 350.300781 355.066406 351.429688 354.664062 352.574219 354.316406 C 353.722656 353.96875 354.882812 353.679688 356.058594 353.445312 C 357.230469 353.210938 358.414062 353.035156 359.609375 352.917969 C 360.800781 352.800781 361.996094 352.742188 363.195312 352.742188 C 364.390625 352.742188 365.585938 352.800781 366.777344 352.917969 C 367.972656 353.035156 369.15625 353.210938 370.328125 353.445312 C 371.503906 353.679688 372.664062 353.96875 373.8125 354.316406 C 374.957031 354.664062 376.085938 355.066406 377.191406 355.527344 C 378.300781 355.984375 379.382812 356.496094 380.4375 357.0625 C 381.492188 357.625 382.519531 358.242188 383.515625 358.90625 C 384.511719 359.574219 385.472656 360.285156 386.398438 361.046875 C 387.324219 361.804688 388.210938 362.609375 389.058594 363.457031 C 389.90625 364.304688 390.710938 365.191406 391.472656 366.117188 C 392.230469 367.042969 392.945312 368.003906 393.609375 369 C 394.273438 369.996094 394.890625 371.023438 395.453125 372.078125 C 396.019531 373.136719 396.53125 374.21875 396.988281 375.324219 C 397.449219 376.429688 397.851562 377.558594 398.199219 378.703125 C 398.546875 379.851562 398.835938 381.011719 399.070312 382.1875 C 399.304688 383.359375 399.480469 384.542969 399.597656 385.738281 C 399.714844 386.929688 399.773438 388.125 399.773438 389.324219 Z M 399.773438 389.324219" fill="#009f87"/><path fill-rule="nonzero" fill-opacity="1" d="M 274.355469 544.789062 C 273.363281 544.789062 272.367188 544.425781 271.585938 543.640625 L 261.132812 533.1875 L 266.671875 527.648438 L 274.355469 535.332031 L 292.488281 517.199219 L 298.027344 522.738281 L 277.125 543.640625 C 276.339844 544.425781 275.347656 544.789062 274.355469 544.789062 Z M 274.355469 544.789062" fill="#dae6f2"/><path fill-rule="nonzero" fill-opacity="1" d="M 436.355469 544.789062 C 435.363281 544.789062 434.367188 544.425781 433.585938 543.640625 L 423.132812 533.1875 L 428.671875 527.648438 L 436.355469 535.332031 L 454.488281 517.199219 L 460.027344 522.738281 L 439.125 543.640625 C 438.339844 544.425781 437.347656 544.789062 436.355469 544.789062 Z M 436.355469 544.789062" fill="#dae6f2"/><path fill-rule="nonzero" fill-opacity="1" d="M 357.96875 403.695312 C 356.976562 403.695312 355.980469 403.328125 355.199219 402.542969 L 344.746094 392.09375 L 350.285156 386.554688 L 357.96875 394.234375 L 376.101562 376.101562 L 381.640625 381.640625 L 360.738281 402.542969 C 359.953125 403.328125 358.960938 403.695312 357.96875 403.695312 Z M 357.96875 403.695312" fill="#dae6f2"/><path fill-rule="nonzero" fill-opacity="1" d="M 321.386719 526.5 L 399.773438 526.5 L 399.773438 534.339844 L 321.386719 534.339844 Z M 321.386719 526.5" fill="#7e8c8d"/><path fill-rule="nonzero" fill-opacity="1" d="M 509.515625 534.339844 L 483.386719 534.339844 L 483.386719 526.5 L 509.515625 526.5 C 518.871094 526.5 526.5 518.871094 526.5 509.515625 L 526.5 478.160156 C 526.5 468.808594 518.871094 461.175781 509.515625 461.175781 L 290.03125 461.175781 C 276.339844 461.175781 265.210938 450.046875 265.210938 436.355469 L 265.210938 410.226562 C 265.210938 396.535156 276.339844 385.402344 290.03125 385.402344 L 321.386719 385.402344 L 321.386719 393.242188 L 290.03125 393.242188 C 280.679688 393.242188 273.046875 400.871094 273.046875 410.226562 L 273.046875 436.355469 C 273.046875 445.710938 280.679688 453.339844 290.03125 453.339844 L 509.515625 453.339844 C 523.207031 453.339844 534.339844 464.46875 534.339844 478.160156 L 534.339844 509.515625 C 534.339844 523.207031 523.207031 534.339844 509.515625 534.339844 Z M 509.515625 534.339844" fill="#7e8c8d"/><path fill-rule="nonzero" fill-opacity="1" d="M 405 385.402344 L 462.484375 385.402344 L 462.484375 393.242188 L 405 393.242188 Z M 405 385.402344" fill="#7e8c8d"/><path fill-rule="nonzero" fill-opacity="1" d="M 519.96875 363.195312 L 478.160156 363.195312 C 473.824219 363.195312 470.324219 366.695312 470.324219 371.03125 C 470.324219 375.371094 473.824219 378.871094 478.160156 378.871094 C 478.160156 387.546875 485.164062 394.546875 493.839844 394.546875 L 504.289062 394.546875 C 512.964844 394.546875 519.96875 387.546875 519.96875 378.871094 C 524.304688 378.871094 527.804688 375.371094 527.804688 371.03125 C 527.804688 366.695312 524.304688 363.195312 519.96875 363.195312 Z M 519.96875 363.195312" fill="#456580"/><path fill-rule="nonzero" fill-opacity="1" d="M 493.890625 265.472656 C 472.933594 267.71875 456.054688 284.546875 453.964844 305.082031 C 452.449219 320.5 458.984375 334.453125 469.90625 343.441406 C 473.980469 346.785156 476.382812 351.75 476.382812 356.976562 L 476.382812 363.195312 L 521.691406 363.195312 L 521.691406 356.976562 C 521.691406 351.800781 523.992188 346.835938 528.066406 343.542969 C 537.996094 335.445312 544.371094 323.214844 544.371094 309.523438 C 544.371094 283.394531 521.222656 262.492188 493.890625 265.472656 Z M 493.890625 265.472656" fill="#ffcc46"/><path fill-rule="nonzero" fill-opacity="1" d="M 502.984375 363.195312 L 495.144531 363.195312 L 495.144531 344.902344 C 495.144531 342.917969 494.203125 340.984375 492.636719 339.78125 L 477.011719 327.554688 C 474.136719 325.304688 472.515625 321.960938 472.515625 318.355469 L 472.515625 316.683594 C 472.515625 310.203125 477.898438 304.925781 484.484375 304.925781 L 485.738281 304.925781 C 489.710938 304.925781 493.421875 306.859375 495.667969 310.152344 C 497.234375 312.449219 500.945312 312.449219 502.511719 310.152344 C 504.761719 306.910156 508.472656 304.925781 512.441406 304.925781 L 513.695312 304.925781 C 520.28125 304.925781 525.664062 310.203125 525.664062 316.683594 L 525.664062 318.878906 C 525.664062 322.015625 524.359375 325.046875 522.109375 327.238281 L 510.875 338.265625 L 505.386719 332.675781 L 516.625 321.648438 C 517.355469 320.917969 517.773438 319.925781 517.773438 318.878906 L 517.773438 316.683594 C 517.773438 314.488281 515.945312 312.765625 513.644531 312.765625 L 512.390625 312.765625 C 510.980469 312.765625 509.726562 313.445312 508.941406 314.542969 C 506.695312 317.832031 502.984375 319.765625 499.011719 319.765625 C 495.039062 319.765625 491.332031 317.78125 489.082031 314.542969 C 488.300781 313.445312 487.046875 312.765625 485.632812 312.765625 L 484.378906 312.765625 C 482.132812 312.765625 480.25 314.542969 480.25 316.683594 L 480.25 318.355469 C 480.25 319.558594 480.828125 320.65625 481.765625 321.386719 L 497.390625 333.617188 C 500.894531 336.386719 502.878906 340.460938 502.878906 344.957031 L 502.878906 363.246094 Z M 502.984375 363.195312" fill="#889899"/><path fill-rule="nonzero" fill-opacity="1" d="M 495.144531 243 L 502.984375 243 L 502.984375 256.324219 L 495.144531 256.324219 Z M 495.144531 243" fill="#94a5a6"/><path fill-rule="nonzero" fill-opacity="1" d="M 448.347656 265.28125 L 453.910156 259.757812 L 463.371094 269.289062 L 457.808594 274.8125 Z M 448.347656 265.28125" fill="#94a5a6"/><path fill-rule="nonzero" fill-opacity="1" d="M 534.753906 269.0625 L 544.480469 259.800781 L 549.886719 265.476562 L 540.160156 274.738281 Z M 534.753906 269.0625" fill="#94a5a6"/><path fill-rule="nonzero" fill-opacity="1" d="M 431.128906 305.605469 L 444.714844 305.605469 L 444.714844 313.445312 L 431.128906 313.445312 Z M 431.128906 305.605469" fill="#94a5a6"/><path fill-rule="nonzero" fill-opacity="1" d="M 553.414062 305.605469 L 567 305.605469 L 567 313.445312 L 553.414062 313.445312 Z M 553.414062 305.605469" fill="#94a5a6"/><path fill-rule="nonzero" fill-opacity="1" d="M 478.160156 363.195312 L 519.96875 363.195312 C 520.480469 363.195312 520.992188 363.242188 521.496094 363.34375 C 522 363.445312 522.492188 363.59375 522.96875 363.789062 C 523.441406 363.988281 523.894531 364.230469 524.324219 364.515625 C 524.75 364.800781 525.148438 365.125 525.511719 365.488281 C 525.875 365.851562 526.199219 366.25 526.484375 366.675781 C 526.769531 367.105469 527.011719 367.558594 527.210938 368.03125 C 527.40625 368.507812 527.554688 369 527.65625 369.503906 C 527.757812 370.007812 527.804688 370.515625 527.804688 371.03125 C 527.804688 371.546875 527.757812 372.058594 527.65625 372.5625 C 527.554688 373.066406 527.40625 373.554688 527.210938 374.03125 C 527.011719 374.507812 526.769531 374.960938 526.484375 375.386719 C 526.199219 375.816406 525.875 376.210938 525.511719 376.574219 C 525.148438 376.9375 524.75 377.265625 524.324219 377.550781 C 523.894531 377.835938 523.441406 378.078125 522.96875 378.273438 C 522.492188 378.472656 522 378.621094 521.496094 378.71875 C 520.992188 378.820312 520.480469 378.871094 519.96875 378.871094 L 478.160156 378.871094 C 477.648438 378.871094 477.136719 378.820312 476.632812 378.71875 C 476.128906 378.621094 475.636719 378.472656 475.160156 378.273438 C 474.6875 378.078125 474.234375 377.835938 473.804688 377.550781 C 473.378906 377.265625 472.980469 376.9375 472.617188 376.574219 C 472.253906 376.210938 471.929688 375.816406 471.644531 375.386719 C 471.359375 374.960938 471.117188 374.507812 470.917969 374.03125 C 470.722656 373.554688 470.574219 373.066406 470.472656 372.5625 C 470.371094 372.058594 470.324219 371.546875 470.324219 371.03125 C 470.324219 370.515625 470.371094 370.007812 470.472656 369.503906 C 470.574219 369 470.722656 368.507812 470.917969 368.03125 C 471.117188 367.558594 471.359375 367.105469 471.644531 366.675781 C 471.929688 366.25 472.253906 365.851562 472.617188 365.488281 C 472.980469 365.125 473.378906 364.800781 473.804688 364.515625 C 474.234375 364.230469 474.6875 363.988281 475.160156 363.789062 C 475.636719 363.59375 476.128906 363.445312 476.632812 363.34375 C 477.136719 363.242188 477.648438 363.195312 478.160156 363.195312 Z M 478.160156 363.195312" fill="#4b6f8c"/></svg>