<svg version="1.0" preserveAspectRatio="xMidYMid meet" viewBox="230.04 231.659997998 345.06 341.81999704599997" zoomAndPan="magnify" xmlns:xlink="http://www.w3.org/1999/xlink" xmlns="http://www.w3.org/2000/svg" style="max-height: 500px" width="345.06" height="341.81999704599997"><defs><clipPath id="120a7e44ab"><path clip-rule="nonzero" d="M 253 340 L 544 340 L 544 560.527344 L 253 560.527344 Z M 253 340"/></clipPath></defs><rect fill-opacity="1" height="971.999992" y="-80.999999" fill="#ffffff" width="972" x="-81"/><rect fill-opacity="1" height="971.999992" y="-80.999999" fill="#ffffff" width="972" x="-81"/><path fill-rule="nonzero" fill-opacity="1" d="M 559.203125 254.542969 C 552.574219 249.277344 542.933594 250.371094 537.664062 257 L 381.296875 453.65625 L 322.460938 394.816406 C 316.476562 388.835938 306.765625 388.835938 300.785156 394.816406 C 294.800781 400.800781 294.800781 410.511719 300.785156 416.492188 L 383.917969 499.625 L 561.660156 276.082031 C 566.925781 269.457031 565.820312 259.816406 559.203125 254.542969 Z M 559.203125 254.542969" fill="#c2dcf2"/><path fill-rule="nonzero" fill-opacity="1" d="M 265.414062 410.351562 C 265.414062 393.058594 268.796875 376.300781 275.46875 360.515625 C 278.679688 352.929688 282.640625 345.621094 287.269531 338.769531 C 291.851562 331.988281 297.117188 325.613281 302.910156 319.808594 C 308.703125 314.015625 315.078125 308.753906 321.867188 304.171875 C 328.710938 299.542969 336.027344 295.578125 343.613281 292.367188 C 359.390625 285.695312 376.160156 282.316406 393.449219 282.316406 C 410.738281 282.316406 427.5 285.695312 443.285156 292.367188 C 450.871094 295.578125 458.179688 299.542969 465.03125 304.171875 C 469.039062 306.878906 472.894531 309.820312 476.582031 312.96875 L 490.492188 295.472656 C 486.347656 291.964844 482.015625 288.683594 477.53125 285.660156 C 469.496094 280.226562 460.898438 275.5625 451.984375 271.796875 C 433.4375 263.949219 413.742188 259.976562 393.449219 259.976562 C 373.15625 259.976562 353.453125 263.96875 334.90625 271.804688 C 325.992188 275.570312 317.402344 280.242188 309.355469 285.667969 C 301.394531 291.050781 293.914062 297.21875 287.109375 304.027344 C 280.300781 310.832031 274.132812 318.3125 268.75 326.277344 C 263.332031 334.3125 258.660156 342.910156 254.894531 351.816406 C 247.046875 370.363281 243.074219 390.054688 243.074219 410.351562 C 243.074219 416.519531 248.078125 421.515625 254.242188 421.515625 C 260.402344 421.515625 265.414062 416.519531 265.414062 410.351562 Z M 265.414062 410.351562" fill="#c2dcf2"/><g clip-path="url(#120a7e44ab)"><path fill-rule="nonzero" fill-opacity="1" d="M 526.390625 340.050781 L 510.957031 359.457031 C 511.109375 359.808594 511.261719 360.164062 511.414062 360.515625 C 518.085938 376.289062 521.464844 393.058594 521.464844 410.351562 C 521.464844 427.640625 518.085938 444.402344 511.414062 460.183594 C 508.203125 467.773438 504.238281 475.082031 499.613281 481.933594 C 495.027344 488.710938 489.765625 495.085938 483.972656 500.890625 C 478.179688 506.683594 471.800781 511.949219 465.011719 516.53125 C 458.171875 521.15625 450.851562 525.121094 443.265625 528.332031 C 427.492188 535.003906 410.722656 538.386719 393.429688 538.386719 C 383.109375 538.386719 372.851562 537.15625 362.929688 534.734375 C 353.300781 532.386719 343.929688 528.886719 335.09375 524.359375 C 326.40625 519.902344 318.21875 514.433594 310.738281 508.109375 C 309.132812 506.746094 307.554688 505.339844 306.011719 503.902344 L 323.464844 486.453125 C 325.382812 484.53125 324.414062 481.257812 321.761719 480.695312 L 258.035156 467.070312 C 255.613281 466.550781 253.460938 468.703125 253.980469 471.125 L 267.574219 534.859375 C 268.140625 537.515625 271.421875 538.484375 273.332031 536.5625 L 290.21875 519.679688 C 292.203125 521.550781 294.226562 523.371094 296.308594 525.128906 C 305.078125 532.566406 314.703125 538.976562 324.90625 544.214844 C 335.300781 549.539062 346.304688 553.648438 357.640625 556.417969 C 369.296875 559.269531 381.34375 560.714844 393.449219 560.714844 C 413.742188 560.714844 433.4375 556.742188 451.984375 548.894531 C 460.898438 545.128906 469.488281 540.457031 477.53125 535.03125 C 485.496094 529.648438 492.976562 523.480469 499.78125 516.671875 C 506.578125 509.875 512.757812 502.386719 518.140625 494.425781 C 523.574219 486.390625 528.238281 477.789062 532.003906 468.875 C 539.851562 450.328125 543.824219 430.636719 543.824219 410.339844 C 543.824219 390.046875 539.851562 370.351562 532.003906 351.808594 C 530.289062 347.824219 528.425781 343.898438 526.390625 340.050781 Z M 526.390625 340.050781" fill="#c2dcf2"/></g></svg>