<svg xmlns="http://www.w3.org/2000/svg" xmlns:xlink="http://www.w3.org/1999/xlink" width="1080" zoomAndPan="magnify" viewBox="0 0 810 809.999993" height="1080" preserveAspectRatio="xMidYMid meet" version="1.0"><rect x="-81" width="972" fill="#ffffff" y="-80.999999" height="971.999992" fill-opacity="1"/><rect x="-81" width="972" fill="#ffffff" y="-80.999999" height="971.999992" fill-opacity="1"/><path fill="#c2dcf2" d="M 520.320312 412.546875 L 467.164062 480.144531 C 454.394531 496.367188 437.191406 494.179688 428.851562 475.308594 L 425.746094 468.292969 L 432.304688 518.398438 L 455.660156 518.398438 C 458.765625 518.398438 461.238281 520.757812 461.238281 523.863281 L 461.238281 546.070312 C 461.238281 549.0625 458.707031 551.535156 455.71875 551.535156 L 267.945312 551.535156 C 264.894531 551.535156 262.421875 549.175781 262.421875 546.070312 L 262.421875 523.863281 C 262.421875 520.871094 264.894531 518.398438 268 518.398438 L 291.359375 518.398438 L 297.917969 468.292969 L 286.8125 497.285156 C 284.628906 502.980469 277.953125 508.390625 272.027344 509.308594 L 268.460938 509.886719 C 262.480469 510.804688 254.539062 507.757812 250.742188 503.097656 L 248.5 500.277344 C 244.703125 495.617188 243.320312 487.21875 245.507812 481.523438 L 282.84375 384.359375 C 287.214844 372.96875 300.734375 363.761719 312.816406 363.761719 L 410.84375 363.761719 C 423.039062 363.761719 436.503906 373.082031 440.875 384.414062 L 455.832031 423.363281 L 485.402344 385.449219 C 489.199219 380.617188 497.078125 377.398438 503.179688 378.203125 L 512.210938 379.527344 L 556.277344 328.671875 C 558.289062 326.371094 561.800781 326.195312 564.042969 328.152344 C 566.34375 330.109375 566.632812 333.617188 564.617188 335.917969 L 520.265625 387.0625 L 522.96875 393.675781 C 525.269531 399.316406 524.0625 407.773438 520.320312 412.546875 Z M 407.164062 412.433594 C 406.816406 409.957031 408.542969 407.945312 411.015625 407.945312 C 412.914062 407.945312 414.929688 409.382812 415.621094 411.050781 L 438.746094 471.285156 C 442.65625 481.582031 451.34375 482.847656 458.132812 474.21875 L 511 406.5625 C 512.84375 404.148438 513.476562 399.949219 512.324219 397.128906 L 511.632812 395.460938 C 510.542969 392.640625 507.148438 390.054688 504.15625 389.652344 L 502.429688 389.363281 C 499.382812 388.960938 495.410156 390.628906 493.628906 392.929688 L 460.433594 435.386719 L 452.496094 445.566406 L 430.460938 388.097656 C 427.644531 380.792969 418.898438 374.808594 411.015625 374.808594 L 312.644531 374.808594 C 304.761719 374.808594 296.019531 380.847656 293.199219 388.210938 L 256.265625 484.457031 C 255.117188 487.332031 255.804688 491.589844 257.703125 493.949219 L 258.796875 495.332031 C 260.695312 497.6875 264.664062 499.183594 267.65625 498.722656 L 269.441406 498.4375 C 272.429688 497.976562 275.710938 495.386719 276.804688 492.511719 L 308.042969 411.109375 C 308.730469 409.382812 310.804688 407.945312 312.644531 407.945312 C 315.117188 407.945312 316.84375 409.84375 316.5 412.433594 L 302.519531 518.398438 L 421.199219 518.398438 Z M 450.195312 529.445312 L 273.46875 529.445312 L 273.46875 540.488281 L 450.195312 540.488281 Z M 361.832031 347.195312 C 337.4375 347.195312 317.648438 327.40625 317.648438 303.011719 C 317.648438 278.621094 337.4375 258.832031 361.832031 258.832031 C 386.222656 258.832031 406.011719 278.621094 406.011719 303.011719 C 406.011719 327.40625 386.222656 347.195312 361.832031 347.195312 Z M 361.832031 336.148438 C 380.125 336.148438 394.96875 321.308594 394.96875 303.011719 C 394.96875 284.71875 380.125 269.875 361.832031 269.875 C 343.535156 269.875 328.695312 284.71875 328.695312 303.011719 C 328.695312 321.308594 343.535156 336.148438 361.832031 336.148438 Z M 361.832031 336.148438 " fill-opacity="1" fill-rule="evenodd"/></svg>