<svg version="1.0" preserveAspectRatio="xMidYMid meet" viewBox="225.18 236.519997956 349.92 340.19999706" zoomAndPan="magnify" xmlns:xlink="http://www.w3.org/1999/xlink" xmlns="http://www.w3.org/2000/svg" style="max-height: 500px" width="349.92" height="340.19999706"><defs><clipPath id="813a3ce794"><path clip-rule="nonzero" d="M 339 367 L 471 367 L 471 558.945312 L 339 558.945312 Z M 339 367"/></clipPath><clipPath id="420eebdd2f"><path clip-rule="nonzero" d="M 324 250.695312 L 486 250.695312 L 486 342 L 324 342 Z M 324 250.695312"/></clipPath></defs><rect fill-opacity="1" height="971.999992" y="-80.999999" fill="#ffffff" width="972" x="-81"/><rect fill-opacity="1" height="971.999992" y="-80.999999" fill="#ffffff" width="972" x="-81"/><path fill-rule="nonzero" fill-opacity="1" d="M 248.167969 498.613281 L 339.234375 498.613281 C 342.03125 498.613281 344.292969 496.351562 344.292969 493.554688 L 344.292969 473.296875 C 344.292969 462.136719 335.214844 453.0625 324.054688 453.0625 C 324 453.0625 323.960938 453.09375 323.910156 453.09375 L 313.9375 453.09375 L 313.9375 442.503906 C 326.007812 435.496094 334.164062 422.464844 334.171875 407.535156 C 334.171875 407.535156 334.171875 407.53125 334.171875 407.53125 L 334.171875 384.757812 C 334.171875 373.640625 329.894531 363.527344 322.941406 355.886719 C 322.832031 355.742188 322.699219 355.609375 322.566406 355.472656 C 314.710938 347.058594 303.5625 341.757812 291.167969 341.757812 C 267.460938 341.757812 248.167969 361.046875 248.167969 384.757812 L 248.167969 387.269531 C 248.167969 387.480469 248.269531 387.667969 248.292969 387.875 C 248.332031 388.214844 248.382812 388.539062 248.488281 388.859375 C 248.59375 389.171875 248.730469 389.445312 248.894531 389.722656 C 249.050781 390.003906 249.210938 390.269531 249.425781 390.515625 C 249.636719 390.765625 249.871094 390.96875 250.128906 391.167969 C 250.378906 391.371094 250.628906 391.550781 250.917969 391.699219 C 251.214844 391.859375 251.523438 391.957031 251.859375 392.050781 C 252.058594 392.109375 252.222656 392.230469 252.433594 392.261719 C 252.710938 392.308594 252.949219 392.3125 253.222656 392.359375 L 253.222656 407.523438 C 253.222656 407.523438 253.222656 407.53125 253.222656 407.53125 C 253.234375 422.460938 261.390625 435.492188 273.460938 442.5 L 273.460938 453.085938 L 263.492188 453.085938 C 263.4375 453.085938 263.398438 453.058594 263.347656 453.058594 C 252.1875 453.058594 243.109375 462.132812 243.109375 473.292969 L 243.109375 493.550781 C 243.109375 496.351562 245.371094 498.613281 248.167969 498.613281 Z M 293.699219 463.777344 L 299.679688 466.765625 L 293.699219 480.71875 L 287.722656 466.765625 Z M 334.171875 473.296875 L 334.171875 488.496094 L 301.375 488.496094 L 312.21875 463.210938 L 324.054688 463.210938 C 324.089844 463.210938 324.121094 463.191406 324.15625 463.191406 C 329.6875 463.246094 334.171875 467.753906 334.171875 473.296875 Z M 319.851562 368.71875 C 321.527344 371.707031 322.753906 374.976562 323.433594 378.441406 C 321.121094 376.683594 318.9375 375.566406 316.796875 374.925781 Z M 291.167969 351.875 C 299.464844 351.875 307.03125 354.988281 312.820312 360.078125 L 305.328125 375.34375 C 303.324219 375.9375 301.25 376.714844 299.042969 377.589844 C 290.644531 380.917969 279.222656 385.300781 258.390625 382.808594 C 259.410156 365.585938 273.699219 351.875 291.167969 351.875 Z M 263.347656 407.511719 L 263.347656 393.460938 C 282.980469 394.75 294.671875 390.199219 302.765625 386.996094 C 312.296875 383.222656 315.140625 382.132812 324.054688 393.445312 L 324.054688 407.515625 C 324.054688 424.25 310.441406 437.863281 293.699219 437.863281 C 276.960938 437.863281 263.347656 424.246094 263.347656 407.511719 Z M 293.699219 447.976562 C 297.195312 447.976562 300.578125 447.480469 303.820312 446.640625 L 303.820312 456.019531 L 302.824219 457.019531 L 295.96875 453.585938 C 295.855469 453.53125 295.730469 453.539062 295.613281 453.492188 C 295.292969 453.359375 294.976562 453.292969 294.640625 453.230469 C 294.324219 453.167969 294.023438 453.105469 293.707031 453.105469 C 293.386719 453.105469 293.089844 453.171875 292.769531 453.230469 C 292.4375 453.292969 292.113281 453.355469 291.792969 453.492188 C 291.683594 453.539062 291.554688 453.53125 291.445312 453.585938 L 284.589844 457.019531 L 283.582031 456.027344 L 283.582031 446.648438 C 286.824219 447.480469 290.207031 447.976562 293.699219 447.976562 Z M 263.246094 463.191406 C 263.28125 463.191406 263.3125 463.210938 263.347656 463.210938 L 275.191406 463.210938 L 286.03125 488.496094 L 253.230469 488.496094 L 253.230469 473.296875 C 253.230469 467.753906 257.714844 463.246094 263.246094 463.191406 Z M 263.246094 463.191406" fill="#dfc7c5"/><g clip-path="url(#813a3ce794)"><path fill-rule="nonzero" fill-opacity="1" d="M 440.414062 498.613281 L 430.296875 498.613281 L 430.296875 486.703125 C 445.390625 477.945312 455.589844 461.640625 455.589844 442.964844 L 455.589844 412.585938 C 455.589844 400.367188 446.882812 390.148438 435.355469 387.796875 L 435.355469 372.113281 C 435.355469 369.320312 433.09375 367.054688 430.296875 367.054688 L 399.941406 367.054688 C 374.832031 367.054688 354.410156 387.480469 354.410156 412.589844 L 354.410156 443.21875 C 354.410156 443.246094 354.425781 443.273438 354.425781 443.304688 C 354.546875 461.839844 364.699219 478.003906 379.703125 486.714844 L 379.703125 498.617188 L 369.585938 498.617188 C 352.847656 498.617188 339.234375 512.230469 339.234375 528.972656 L 339.234375 549.207031 C 339.234375 554.789062 343.769531 559.328125 349.351562 559.328125 L 460.648438 559.328125 C 466.230469 559.328125 470.765625 554.789062 470.765625 549.207031 L 470.765625 528.972656 C 470.765625 512.226562 457.152344 498.613281 440.414062 498.613281 Z M 460.648438 528.96875 L 460.648438 549.203125 L 412.476562 549.203125 L 428.660156 508.730469 L 440.414062 508.730469 C 451.574219 508.730469 460.648438 517.808594 460.648438 528.96875 Z M 396.964844 518.355469 C 397.027344 518.328125 397.082031 518.34375 397.144531 518.3125 L 405 514.386719 L 412.855469 518.3125 C 412.917969 518.34375 412.972656 518.328125 413.035156 518.355469 C 413.292969 518.46875 413.550781 518.519531 413.816406 518.597656 L 405 540.644531 L 396.183594 518.601562 C 396.457031 518.519531 396.707031 518.476562 396.964844 518.355469 Z M 399.941406 377.171875 L 425.234375 377.171875 L 425.234375 392.347656 C 425.234375 395.140625 427.496094 397.40625 430.296875 397.40625 C 438.664062 397.40625 445.472656 404.214844 445.472656 412.589844 L 445.472656 418.382812 L 438.1875 413.460938 C 437.976562 413.316406 437.730469 413.289062 437.503906 413.175781 C 437.230469 413.042969 436.972656 412.914062 436.679688 412.835938 C 436.324219 412.734375 435.980469 412.710938 435.621094 412.691406 C 435.328125 412.675781 435.054688 412.65625 434.761719 412.691406 C 434.398438 412.734375 434.058594 412.84375 433.714844 412.964844 C 433.519531 413.03125 433.316406 413.023438 433.125 413.117188 C 433.027344 413.167969 423.605469 417.652344 407.53125 417.652344 C 390.949219 417.652344 376.386719 412.902344 376.234375 412.851562 C 376.128906 412.816406 376.027344 412.84375 375.921875 412.8125 C 375.578125 412.722656 375.234375 412.707031 374.878906 412.691406 C 374.566406 412.675781 374.265625 412.648438 373.957031 412.691406 C 373.644531 412.734375 373.355469 412.84375 373.046875 412.949219 C 372.722656 413.054688 372.410156 413.160156 372.109375 413.332031 C 372.011719 413.394531 371.898438 413.398438 371.800781 413.460938 L 364.527344 418.382812 L 364.527344 412.589844 C 364.527344 393.0625 380.417969 377.171875 399.941406 377.171875 Z M 364.527344 442.96875 L 364.527344 430.59375 L 375.484375 423.191406 C 380.609375 424.65625 393.21875 427.773438 407.53125 427.773438 C 420.976562 427.773438 430.359375 425 434.761719 423.359375 L 445.472656 430.59375 L 445.472656 442.96875 C 445.472656 465.285156 427.316406 483.4375 404.996094 483.4375 C 382.679688 483.4375 364.527344 465.285156 364.527344 442.96875 Z M 404.996094 493.554688 C 410.28125 493.554688 415.382812 492.734375 420.175781 491.222656 L 420.175781 501.578125 L 414.121094 507.632812 L 407.265625 504.203125 C 407.15625 504.148438 407.027344 504.152344 406.917969 504.109375 C 406.597656 503.976562 406.273438 503.910156 405.941406 503.84375 C 405.621094 503.785156 405.324219 503.722656 405.003906 503.722656 C 404.6875 503.722656 404.386719 503.789062 404.070312 503.84375 C 403.734375 503.910156 403.40625 503.972656 403.09375 504.109375 C 402.980469 504.152344 402.855469 504.148438 402.742188 504.203125 L 395.886719 507.632812 L 389.824219 501.578125 L 389.824219 491.222656 C 394.613281 492.734375 399.707031 493.554688 404.996094 493.554688 Z M 369.585938 508.730469 L 381.339844 508.730469 L 397.523438 549.203125 L 349.371094 549.203125 C 349.359375 549.203125 349.355469 549.199219 349.34375 549.199219 L 349.34375 528.96875 C 349.351562 517.808594 358.425781 508.730469 369.585938 508.730469 Z M 369.585938 508.730469" fill="#dfc7c5"/></g><path fill-rule="nonzero" fill-opacity="1" d="M 521.359375 336.679688 C 512.3125 336.679688 502.929688 340.261719 494.121094 346.992188 C 483.886719 347.984375 475.828125 356.539062 475.828125 367.03125 L 475.828125 407.53125 C 475.828125 407.53125 475.828125 407.535156 475.828125 407.535156 C 475.835938 422.464844 483.992188 435.496094 496.0625 442.503906 L 496.0625 453.09375 L 486.089844 453.09375 C 486.035156 453.09375 485.996094 453.0625 485.945312 453.0625 C 474.785156 453.0625 465.707031 462.136719 465.707031 473.296875 L 465.707031 493.554688 C 465.707031 496.351562 467.96875 498.613281 470.765625 498.613281 L 561.832031 498.613281 C 564.628906 498.613281 566.890625 496.351562 566.890625 493.554688 L 566.890625 473.296875 C 566.890625 462.136719 557.8125 453.0625 546.652344 453.0625 C 546.597656 453.0625 546.558594 453.09375 546.507812 453.09375 L 536.535156 453.09375 L 536.535156 442.503906 C 544.902344 437.640625 551.367188 429.886719 554.558594 420.601562 C 555.96875 424.417969 556.769531 428.515625 556.769531 432.816406 C 556.769531 435.613281 559.03125 437.875 561.832031 437.875 C 564.628906 437.875 566.890625 435.613281 566.890625 432.816406 L 566.890625 382.210938 C 566.890625 357.105469 546.464844 336.679688 521.359375 336.679688 Z M 491.003906 358.320312 L 491.003906 377.152344 C 491.003906 380.878906 488.953125 384.105469 485.945312 385.863281 L 485.945312 367.03125 C 485.945312 363.304688 487.992188 360.078125 491.003906 358.320312 Z M 516.300781 463.777344 L 522.277344 466.765625 L 516.300781 480.71875 L 510.320312 466.765625 Z M 485.84375 463.191406 C 485.878906 463.191406 485.910156 463.210938 485.945312 463.210938 L 497.789062 463.210938 L 508.628906 488.496094 L 475.828125 488.496094 L 475.828125 473.296875 C 475.828125 467.753906 480.3125 463.246094 485.84375 463.191406 Z M 556.769531 473.296875 L 556.769531 488.496094 L 523.972656 488.496094 L 534.816406 463.210938 L 546.652344 463.210938 C 546.6875 463.210938 546.71875 463.191406 546.753906 463.191406 C 552.285156 463.246094 556.769531 467.753906 556.769531 473.296875 Z M 526.417969 456.027344 L 525.421875 457.023438 L 518.566406 453.59375 C 518.453125 453.539062 518.328125 453.542969 518.214844 453.496094 C 517.898438 453.367188 517.574219 453.300781 517.238281 453.234375 C 516.921875 453.171875 516.621094 453.113281 516.304688 453.113281 C 515.984375 453.113281 515.6875 453.179688 515.367188 453.234375 C 515.035156 453.300781 514.710938 453.359375 514.398438 453.496094 C 514.28125 453.542969 514.152344 453.539062 514.042969 453.59375 L 507.1875 457.023438 L 506.179688 456.027344 L 506.179688 446.648438 C 509.421875 447.488281 512.804688 447.984375 516.300781 447.984375 C 519.792969 447.984375 523.175781 447.488281 526.417969 446.648438 Z M 516.300781 437.859375 C 499.558594 437.859375 485.945312 424.246094 485.945312 407.511719 L 485.945312 396.667969 C 489.941406 395.632812 493.425781 393.414062 496.0625 390.394531 C 499.769531 394.644531 505.167969 397.386719 511.238281 397.386719 L 521.359375 397.386719 C 531.25 397.386719 540.199219 401.476562 546.628906 408.035156 C 546.339844 424.523438 532.855469 437.859375 516.300781 437.859375 Z M 556.769531 404.253906 C 556.367188 403.75 555.9375 403.28125 555.511719 402.800781 C 555.375 402.636719 555.25 402.476562 555.089844 402.335938 C 546.753906 393.105469 534.738281 387.269531 521.359375 387.269531 L 511.238281 387.269531 C 505.660156 387.269531 501.121094 382.730469 501.121094 377.152344 L 501.121094 354.355469 C 506.214844 350.625 513.386719 346.796875 521.359375 346.796875 C 540.878906 346.796875 556.769531 362.683594 556.769531 382.210938 Z M 556.769531 404.253906" fill="#dfc7c5"/><g clip-path="url(#420eebdd2f)"><path fill-rule="nonzero" fill-opacity="1" d="M 327.515625 285.824219 L 359.46875 296.472656 L 359.46875 326.550781 C 359.46875 334.917969 366.277344 341.726562 374.644531 341.726562 L 435.328125 341.726562 C 435.339844 341.726562 435.34375 341.734375 435.355469 341.734375 C 443.722656 341.734375 450.535156 334.921875 450.535156 326.550781 L 450.535156 296.472656 L 475.828125 288.046875 L 475.828125 311.375 C 475.828125 314.164062 478.089844 316.433594 480.886719 316.433594 C 483.683594 316.433594 485.945312 314.164062 485.945312 311.375 L 485.945312 281.023438 C 485.945312 281.019531 485.941406 281.015625 485.941406 281.007812 C 485.941406 280.386719 485.796875 279.800781 485.585938 279.242188 C 485.515625 279.050781 485.414062 278.894531 485.316406 278.710938 C 485.128906 278.359375 484.917969 278.035156 484.65625 277.734375 C 484.511719 277.570312 484.359375 277.417969 484.195312 277.269531 C 483.90625 277.015625 483.582031 276.808594 483.238281 276.621094 C 483.050781 276.519531 482.878906 276.40625 482.671875 276.328125 C 482.605469 276.304688 482.558594 276.253906 482.488281 276.234375 L 406.605469 250.9375 C 405.566406 250.59375 404.4375 250.59375 403.402344 250.9375 L 327.515625 276.234375 C 325.445312 276.917969 324.054688 278.84375 324.054688 281.023438 C 324.054688 283.203125 325.445312 285.136719 327.515625 285.824219 Z M 440.417969 326.550781 C 440.417969 329.335938 438.152344 331.605469 435.363281 331.609375 C 435.363281 331.609375 435.359375 331.609375 435.355469 331.609375 L 374.644531 331.609375 C 371.851562 331.609375 369.585938 329.335938 369.585938 326.550781 L 369.585938 299.847656 L 403.402344 311.121094 C 403.921875 311.292969 404.464844 311.378906 405 311.378906 C 405.535156 311.378906 406.082031 311.292969 406.597656 311.121094 L 440.417969 299.847656 Z M 405 261.0625 L 449.695312 275.960938 L 405 275.960938 C 402.203125 275.960938 399.941406 278.226562 399.941406 281.019531 C 399.941406 283.8125 402.203125 286.078125 405 286.078125 L 449.726562 286.078125 L 405 300.988281 L 345.109375 281.023438 Z M 405 261.0625" fill="#dfc7c5"/></g></svg>