<svg xmlns="http://www.w3.org/2000/svg" xmlns:xlink="http://www.w3.org/1999/xlink" zoomAndPan="magnify" preserveAspectRatio="xMidYMid meet" version="1.0" viewBox="243.31 250.02 310.48 309.95"><path fill="#c1ff72" d="M 307.015625 354.539062 C 307.34375 354.539062 307.34375 354.539062 307.667969 354.539062 C 308.648438 354.539062 309.628906 353.882812 309.957031 352.90625 C 319.101562 323.507812 362.867188 281.050781 418.71875 281.050781 C 448.765625 281.375 477.835938 291.5 501.351562 309.792969 C 493.511719 312.40625 468.035156 314.039062 445.828125 314.691406 C 444.519531 314.691406 443.539062 315.996094 443.539062 317.304688 C 443.539062 318.285156 444.519531 319.265625 445.828125 319.589844 C 462.484375 319.265625 501.675781 317.957031 507.230469 312.078125 L 507.230469 311.75 C 507.230469 311.75 507.230469 311.425781 507.554688 311.425781 C 507.882812 311.425781 507.554688 311.097656 507.554688 311.097656 C 511.476562 303.257812 507.554688 264.394531 506.25 252.308594 C 506.25 251 504.945312 250.023438 503.636719 250.023438 C 502.332031 250.023438 501.351562 251.328125 501.351562 252.632812 C 503.636719 273.539062 504.945312 297.378906 503.964844 305.871094 C 479.792969 286.601562 449.746094 276.152344 418.71875 276.152344 C 360.582031 276.152344 314.855469 320.570312 305.382812 351.597656 C 305.054688 352.578125 305.710938 353.882812 307.015625 354.539062 Z M 307.015625 354.539062 " fill-opacity="1" fill-rule="nonzero"/><path fill="#c1ff72" d="M 537.929688 471.464844 C 567 421.167969 551.324219 359.109375 529.113281 335.59375 C 528.132812 334.613281 526.5 334.613281 525.519531 335.59375 C 524.539062 336.574219 524.539062 337.878906 525.195312 338.859375 C 525.195312 338.859375 525.195312 338.859375 525.519531 339.1875 C 546.421875 361.722656 561.449219 420.839844 533.359375 469.503906 C 518.007812 495.308594 494.820312 515.230469 467.054688 526.664062 C 468.691406 518.496094 479.792969 495.632812 490.574219 476.039062 C 491.226562 474.730469 490.898438 473.425781 489.59375 472.773438 C 488.285156 472.117188 486.980469 472.445312 486.328125 473.75 C 478.160156 488.121094 460.199219 522.089844 462.15625 530.253906 C 462.15625 530.253906 462.15625 530.582031 462.15625 530.582031 C 462.15625 530.582031 462.15625 530.582031 462.15625 530.910156 L 462.484375 531.234375 C 467.054688 538.421875 502.65625 554.75 513.761719 559.652344 C 514.089844 559.652344 514.414062 559.976562 514.742188 559.976562 C 515.722656 559.976562 516.703125 559.324219 517.027344 558.671875 C 517.679688 557.363281 517.027344 556.058594 515.722656 555.40625 C 496.453125 546.914062 475.222656 536.132812 468.363281 530.910156 C 497.757812 519.152344 522.253906 498.246094 537.929688 471.464844 Z M 537.929688 471.464844 " fill-opacity="1" fill-rule="nonzero"/><path fill="#c1ff72" d="M 429.824219 532.542969 C 399.773438 539.402344 340.984375 522.742188 313.222656 474.40625 C 298.523438 448.277344 292.644531 417.902344 296.566406 388.179688 C 302.769531 393.730469 317.140625 414.632812 328.574219 433.90625 C 328.898438 434.558594 329.878906 435.210938 330.53125 435.210938 C 330.859375 435.210938 331.511719 435.210938 331.839844 434.882812 C 332.820312 434.230469 333.472656 432.597656 332.820312 431.617188 C 324.328125 417.246094 304.078125 384.914062 295.910156 382.300781 L 295.257812 382.300781 C 295.257812 382.300781 294.929688 382.300781 294.929688 382.300781 L 294.605469 382.300781 C 286.113281 382.625 254.105469 405.488281 244.304688 412.675781 C 243.328125 413.328125 243 414.960938 243.652344 415.941406 C 244.304688 416.921875 245.941406 417.246094 246.917969 416.59375 C 263.902344 404.183594 283.828125 391.117188 291.664062 387.851562 C 287.09375 418.554688 293.296875 449.910156 308.648438 477.019531 C 333.472656 520.128906 382.136719 539.074219 415.125 539.074219 C 420.351562 539.074219 425.25 538.746094 430.476562 537.441406 C 431.78125 537.113281 432.433594 535.808594 432.433594 534.5 C 432.433594 533.195312 431.128906 532.214844 429.824219 532.542969 Z M 429.824219 532.542969 " fill-opacity="1" fill-rule="nonzero"/><path fill="#c1ff72" d="M 418.71875 336.246094 C 401.40625 336.246094 387.363281 352.90625 387.363281 373.480469 C 387.363281 394.058594 401.40625 410.714844 418.71875 410.714844 C 436.027344 410.714844 450.074219 394.058594 450.074219 373.480469 C 450.074219 352.90625 436.027344 336.246094 418.71875 336.246094 Z M 418.71875 405.816406 C 404.019531 405.816406 392.261719 391.445312 392.261719 373.480469 C 392.261719 355.519531 404.019531 341.148438 418.71875 341.148438 C 433.414062 341.148438 445.171875 355.84375 445.171875 373.480469 C 445.171875 391.117188 433.414062 405.816406 418.71875 405.816406 Z M 418.71875 405.816406 " fill-opacity="1" fill-rule="nonzero"/><path fill="#c1ff72" d="M 471.957031 456.113281 C 472.28125 449.253906 471.957031 442.070312 470.976562 435.210938 C 469.667969 429.332031 464.769531 424.757812 456.929688 423.125 C 450.398438 420.515625 444.195312 417.246094 438.316406 413.328125 C 437.335938 412.347656 435.703125 412.675781 435.046875 413.65625 C 434.070312 414.632812 434.394531 416.269531 435.375 416.921875 C 435.375 416.921875 435.703125 416.921875 435.703125 417.246094 C 436.355469 417.574219 449.09375 426.066406 455.953125 427.699219 C 459.542969 428.351562 465.421875 430.640625 466.402344 436.191406 C 467.382812 442.398438 467.710938 448.929688 467.382812 455.132812 C 467.054688 456.113281 464.117188 459.054688 455.296875 462.320312 C 443.867188 465.914062 431.78125 468.199219 419.699219 468.527344 C 407.285156 467.871094 394.875 465.914062 383.117188 462.320312 C 373.972656 459.054688 371.03125 455.789062 371.03125 455.132812 C 370.707031 448.929688 371.03125 442.398438 372.011719 436.191406 C 372.992188 430.640625 379.199219 428.679688 382.464844 427.699219 C 389.324219 426.066406 402.058594 417.574219 402.714844 417.246094 C 404.019531 416.59375 404.347656 414.960938 403.695312 413.980469 C 403.039062 413 401.40625 412.347656 400.425781 413 C 400.425781 413 400.101562 413 400.101562 413.328125 C 394.222656 417.246094 388.015625 420.515625 381.484375 423.125 C 373.644531 425.085938 368.417969 429.332031 367.441406 435.210938 C 366.460938 442.070312 366.132812 449.253906 366.460938 456.113281 C 367.441406 459.707031 372.992188 463.625 381.808594 466.894531 C 394.222656 470.484375 407.285156 472.773438 420.023438 473.097656 C 432.761719 472.773438 445.171875 470.484375 457.257812 466.566406 C 465.421875 463.953125 470.976562 459.707031 471.957031 456.113281 Z M 471.957031 456.113281 " fill-opacity="1" fill-rule="nonzero"/></svg>