<svg version="1.0" preserveAspectRatio="xMidYMid meet" viewBox="131.22 149.039998712 554.0400000000001 529.739995422" zoomAndPan="magnify" xmlns:xlink="http://www.w3.org/1999/xlink" xmlns="http://www.w3.org/2000/svg" style="max-height: 500px" width="554.0400000000001" height="529.739995422"><defs><clipPath id="4e3938a8af"><path clip-rule="nonzero" d="M 144.523438 165.65625 L 665.773438 165.65625 L 665.773438 660 L 144.523438 660 Z M 144.523438 165.65625"/></clipPath></defs><rect fill-opacity="1" height="971.999992" y="-80.999999" fill="#ffffff" width="972" x="-81"/><rect fill-opacity="1" height="971.999992" y="-80.999999" fill="#ffffff" width="972" x="-81"/><g clip-path="url(#4e3938a8af)"><path fill-rule="nonzero" fill-opacity="1" d="M 404.996094 165.726562 C 400.710938 165.726562 397.304688 169.242188 397.304688 173.417969 L 397.304688 253.976562 C 397.304688 258.261719 400.710938 261.667969 404.996094 261.667969 C 409.285156 261.667969 412.691406 258.261719 412.691406 253.976562 L 412.691406 173.417969 C 412.691406 169.132812 409.285156 165.726562 404.996094 165.726562 Z M 276.0625 216.941406 C 274.828125 216.957031 273.585938 217.277344 272.453125 217.929688 C 268.71875 220.015625 267.398438 224.742188 269.484375 228.371094 C 269.484375 228.371094 269.488281 228.480469 269.597656 228.480469 L 301.027344 283.101562 C 302.347656 285.628906 304.875 287.058594 307.625 287.058594 C 311.910156 287.058594 315.316406 283.648438 315.316406 279.363281 C 315.316406 278.046875 314.988281 276.726562 314.328125 275.515625 L 282.894531 220.894531 C 281.460938 218.328125 278.777344 216.902344 276.0625 216.941406 Z M 535.859375 217.132812 C 533.136719 217.0625 530.480469 218.4375 528.96875 221.003906 L 497.535156 275.628906 C 495.449219 279.257812 496.65625 283.980469 500.285156 286.179688 C 503.910156 288.265625 508.636719 287.058594 510.835938 283.433594 L 510.835938 283.324219 L 542.378906 228.589844 C 544.464844 224.960938 543.257812 220.238281 539.519531 218.148438 C 538.351562 217.496094 537.101562 217.164062 535.859375 217.132812 Z M 404.886719 276.960938 C 374.199219 276.976562 343.503906 288.652344 320.042969 312.007812 C 297.289062 334.316406 284.433594 364.761719 284.542969 396.632812 C 284.542969 423.667969 298.0625 447.628906 310.039062 468.621094 C 315.753906 478.621094 321.03125 488.074219 323.777344 495.988281 C 328.722656 510.714844 332.351562 525.878906 334.660156 541.265625 C 334.988281 562.699219 352.355469 580.832031 373.015625 580.832031 L 436.871094 580.832031 C 457.421875 580.832031 474.898438 562.699219 475.226562 541.265625 C 477.535156 525.878906 481.164062 510.824219 486.109375 496.097656 C 488.855469 488.074219 494.128906 478.730469 499.734375 468.839844 C 511.714844 447.628906 525.34375 423.558594 525.34375 396.410156 C 525.34375 364.648438 512.59375 334.097656 489.734375 311.898438 C 466.269531 288.597656 435.578125 276.945312 404.886719 276.960938 Z M 404.902344 292.253906 C 431.675781 292.226562 458.46875 302.390625 478.964844 322.777344 C 498.746094 342.121094 509.957031 368.605469 509.957031 396.300781 C 509.957031 419.492188 497.425781 441.691406 486.328125 461.253906 C 480.390625 471.804688 474.785156 481.699219 471.488281 491.039062 C 466.214844 506.867188 462.367188 523.023438 459.949219 539.507812 C 459.949219 539.949219 459.839844 540.277344 459.839844 540.714844 C 459.839844 553.796875 449.070312 565.445312 436.871094 565.445312 L 373.125 565.445312 C 360.925781 565.445312 350.15625 553.796875 350.15625 540.714844 C 350.15625 540.386719 350.15625 539.949219 350.046875 539.617188 C 347.628906 523.132812 343.671875 506.867188 338.394531 491.152344 C 335.210938 481.808594 329.496094 471.695312 323.449219 461.035156 C 312.460938 441.582031 299.929688 419.601562 299.929688 396.632812 C 299.929688 368.9375 311.140625 342.339844 330.921875 322.886719 C 351.363281 302.5 378.125 292.28125 404.902344 292.253906 Z M 184.328125 311.464844 C 181.605469 311.351562 178.898438 312.699219 177.386719 315.195312 C 175.1875 318.820312 176.398438 323.546875 180.023438 325.746094 L 180.132812 325.855469 L 234.539062 357.394531 C 238.164062 359.484375 242.890625 358.273438 245.085938 354.648438 C 247.285156 351.019531 245.964844 346.296875 242.339844 344.097656 L 187.9375 312.554688 C 186.804688 311.871094 185.5625 311.515625 184.328125 311.464844 Z M 628.632812 311.535156 C 627.398438 311.574219 626.160156 311.902344 625.023438 312.554688 L 570.621094 344.097656 C 566.996094 346.1875 565.675781 350.910156 567.765625 354.648438 C 569.195312 356.957031 571.722656 358.386719 574.46875 358.386719 C 575.789062 358.386719 577.105469 358.054688 578.316406 357.394531 L 632.71875 325.855469 C 636.34375 323.65625 637.554688 318.929688 635.464844 315.304688 C 634.03125 312.808594 631.347656 311.457031 628.632812 311.535156 Z M 152.21875 441.253906 C 147.933594 441.253906 144.523438 444.660156 144.523438 448.945312 C 144.523438 453.234375 147.933594 456.640625 152.21875 456.640625 L 232.449219 456.640625 C 236.734375 456.640625 240.140625 453.234375 240.140625 448.945312 C 240.140625 444.660156 236.734375 441.253906 232.449219 441.253906 Z M 577.546875 441.253906 C 573.261719 441.253906 569.855469 444.660156 569.855469 448.945312 C 569.855469 453.234375 573.261719 456.640625 577.546875 456.640625 L 657.777344 456.640625 C 662.0625 456.640625 665.46875 453.234375 665.46875 448.945312 C 665.46875 444.660156 662.0625 441.253906 657.777344 441.253906 Z M 353.34375 591.820312 C 349.058594 591.820312 345.648438 595.230469 345.648438 599.515625 C 345.648438 603.800781 349.058594 607.207031 353.34375 607.207031 L 456.652344 607.207031 C 460.9375 607.207031 464.347656 603.800781 464.347656 599.515625 C 464.347656 595.230469 460.9375 591.820312 456.652344 591.820312 Z M 364.332031 618.199219 C 360.046875 618.199219 356.640625 621.605469 356.640625 625.890625 C 356.640625 630.179688 360.046875 633.585938 364.332031 633.585938 L 445.664062 633.585938 C 449.949219 633.585938 453.355469 630.179688 453.355469 625.890625 C 453.355469 621.605469 449.949219 618.199219 445.664062 618.199219 Z M 375.324219 644.574219 C 371.039062 644.574219 367.628906 647.984375 367.628906 652.269531 C 367.628906 656.554688 371.039062 659.960938 375.324219 659.960938 L 434.671875 659.960938 C 438.957031 659.960938 442.367188 656.554688 442.367188 652.269531 C 442.367188 647.984375 438.957031 644.574219 434.671875 644.574219 Z M 375.324219 644.574219" fill="#38b6ff"/></g></svg>