<svg version="1.0" preserveAspectRatio="xMidYMid meet" viewBox="183.06 176.579998474 477.9 413.09999643000003" zoomAndPan="magnify" xmlns:xlink="http://www.w3.org/1999/xlink" xmlns="http://www.w3.org/2000/svg" style="max-height: 500px" width="477.9" height="413.09999643000003"><defs><clipPath id="fe440568ee"><path clip-rule="nonzero" d="M 194.011719 378 L 649.261719 378 L 649.261719 580 L 194.011719 580 Z M 194.011719 378"/></clipPath></defs><rect fill-opacity="1" height="971.999992" y="-80.999999" fill="#ffffff" width="972" x="-81"/><rect fill-opacity="1" height="971.999992" y="-80.999999" fill="#ffffff" width="972" x="-81"/><g clip-path="url(#fe440568ee)"><path fill-rule="evenodd" fill-opacity="1" d="M 612.414062 579.515625 L 231.015625 579.515625 C 210.121094 579.515625 193.121094 562.523438 193.121094 541.621094 L 193.121094 416.839844 C 193.121094 395.949219 210.121094 378.945312 231.015625 378.945312 L 248.921875 378.945312 L 239.75 388.6875 C 237.160156 387.996094 234.441406 387.625 231.636719 387.625 C 214.273438 387.625 200.160156 401.738281 200.160156 419.101562 C 200.160156 436.464844 214.273438 450.578125 231.636719 450.578125 C 248.996094 450.578125 263.113281 436.460938 263.113281 419.101562 C 263.113281 416.183594 262.714844 413.359375 261.96875 410.675781 L 291.84375 378.945312 L 549.144531 378.949219 L 581.386719 410.949219 C 580.6875 413.550781 580.3125 416.28125 580.3125 419.101562 C 580.3125 436.464844 594.425781 450.578125 611.789062 450.578125 C 629.144531 450.578125 643.265625 436.457031 643.265625 419.101562 C 643.265625 401.746094 629.144531 387.625 611.789062 387.625 C 608.882812 387.625 606.070312 388.023438 603.394531 388.765625 L 593.503906 378.949219 L 612.414062 378.949219 C 633.304688 378.949219 650.308594 395.949219 650.308594 416.84375 L 650.308594 541.632812 C 650.308594 562.523438 633.3125 579.515625 612.414062 579.515625 Z M 611.789062 418.878906 C 611.667969 418.878906 611.566406 418.980469 611.566406 419.101562 C 611.566406 419.226562 611.667969 419.324219 611.789062 419.324219 C 611.914062 419.324219 612.011719 419.226562 612.011719 419.101562 C 612.011719 418.988281 611.902344 418.878906 611.789062 418.878906 Z M 464.992188 548.644531 C 454.84375 548.644531 446.585938 540.382812 446.585938 530.238281 C 446.585938 526.535156 449.582031 523.539062 453.28125 523.539062 C 456.984375 523.539062 459.980469 526.535156 459.980469 530.238281 C 459.980469 533 462.230469 535.25 464.992188 535.25 C 467.757812 535.25 470.007812 533 470.007812 530.238281 C 470.007812 527.472656 467.757812 525.222656 464.992188 525.222656 C 454.84375 525.222656 446.585938 516.964844 446.585938 506.816406 C 446.585938 496.667969 454.84375 488.40625 464.992188 488.40625 C 475.140625 488.40625 483.402344 496.667969 483.402344 506.816406 C 483.402344 510.519531 480.40625 513.511719 476.703125 513.511719 C 473.003906 513.511719 470.007812 510.515625 470.007812 506.816406 C 470.007812 504.054688 467.757812 501.800781 464.992188 501.800781 C 462.230469 501.800781 459.980469 504.054688 459.980469 506.816406 C 459.980469 509.578125 462.230469 511.828125 464.992188 511.828125 C 475.140625 511.828125 483.402344 520.089844 483.402344 530.238281 C 483.402344 540.382812 475.152344 548.644531 464.992188 548.644531 Z M 413.203125 548.644531 C 409.5 548.644531 406.507812 545.648438 406.507812 541.949219 L 406.507812 495.847656 C 406.507812 492.148438 409.5 489.152344 413.203125 489.152344 L 425.472656 489.152344 C 435.925781 489.152344 444.4375 497.664062 444.4375 508.117188 L 444.4375 511.464844 C 444.4375 521.921875 435.925781 530.433594 425.472656 530.433594 L 419.898438 530.433594 L 419.898438 541.949219 C 419.898438 545.648438 416.90625 548.644531 413.203125 548.644531 Z M 419.898438 517.039062 L 425.472656 517.039062 C 428.542969 517.039062 431.042969 514.535156 431.042969 511.464844 L 431.042969 508.117188 C 431.042969 505.046875 428.539062 502.546875 425.472656 502.546875 L 419.898438 502.546875 Z M 397.492188 548.644531 C 393.789062 548.644531 390.796875 545.648438 390.796875 541.949219 L 390.796875 495.847656 C 390.796875 492.148438 393.789062 489.152344 397.492188 489.152344 C 401.195312 489.152344 404.191406 492.148438 404.191406 495.847656 L 404.191406 541.949219 C 404.191406 545.648438 401.195312 548.644531 397.492188 548.644531 Z M 367.011719 548.644531 C 363.308594 548.644531 360.316406 545.648438 360.316406 541.949219 L 360.316406 502.546875 L 353.625 502.546875 C 349.925781 502.546875 346.929688 499.550781 346.929688 495.847656 C 346.929688 492.148438 349.925781 489.152344 353.625 489.152344 L 381.886719 489.152344 C 385.585938 489.152344 388.582031 492.148438 388.582031 495.847656 C 388.582031 499.550781 385.585938 502.546875 381.886719 502.546875 L 373.707031 502.546875 L 373.707031 541.949219 C 373.707031 545.648438 370.714844 548.644531 367.011719 548.644531 Z M 516.078125 469.785156 C 504.765625 469.785156 495.558594 460.585938 495.558594 449.265625 L 495.558594 418.496094 C 495.558594 414.796875 498.554688 411.800781 502.253906 411.800781 C 505.957031 411.800781 508.953125 414.796875 508.953125 418.496094 L 508.953125 449.265625 C 508.953125 453.191406 512.144531 456.390625 516.078125 456.390625 C 520.011719 456.390625 523.203125 453.203125 523.203125 449.265625 L 523.203125 418.496094 C 523.203125 414.796875 526.199219 411.800781 529.898438 411.800781 C 533.601562 411.800781 536.597656 414.796875 536.597656 418.496094 L 536.597656 449.265625 C 536.597656 460.585938 527.386719 469.785156 516.078125 469.785156 Z M 385.269531 470.949219 L 368.9375 470.949219 C 365.234375 470.949219 362.238281 467.953125 362.238281 464.25 L 362.238281 417.679688 C 362.238281 413.976562 365.234375 410.980469 368.9375 410.980469 C 372.640625 410.980469 375.632812 413.976562 375.632812 417.679688 L 375.632812 457.554688 L 385.269531 457.554688 C 388.972656 457.554688 391.96875 460.550781 391.96875 464.25 C 391.96875 467.953125 388.972656 470.949219 385.269531 470.949219 Z M 324.78125 470.949219 C 321.082031 470.949219 318.085938 467.953125 318.085938 464.25 L 318.085938 417.679688 C 318.085938 413.976562 321.082031 410.980469 324.78125 410.980469 L 342.882812 410.980469 C 346.585938 410.980469 349.582031 413.976562 349.582031 417.679688 C 349.582031 421.382812 346.585938 424.375 342.882812 424.375 L 331.480469 424.375 L 331.480469 434.265625 L 339.359375 434.265625 C 343.0625 434.265625 346.054688 437.257812 346.054688 440.960938 C 346.054688 444.664062 343.050781 447.660156 339.359375 447.660156 L 331.480469 447.660156 L 331.480469 457.554688 L 342.882812 457.554688 C 346.585938 457.554688 349.582031 460.550781 349.582031 464.253906 C 349.582031 467.953125 346.585938 470.949219 342.882812 470.949219 Z M 298.738281 470.949219 C 295.035156 470.949219 292.042969 467.953125 292.042969 464.25 L 292.042969 447.65625 L 276.964844 447.65625 L 276.964844 464.25 C 276.964844 467.953125 273.960938 470.949219 270.265625 470.949219 C 266.566406 470.949219 263.570312 467.953125 263.570312 464.25 L 263.570312 417.679688 C 263.570312 413.976562 266.566406 410.980469 270.265625 410.980469 C 273.96875 410.980469 276.964844 413.976562 276.964844 417.679688 L 276.964844 434.265625 L 292.042969 434.265625 L 292.042969 417.679688 C 292.042969 413.976562 295.035156 410.980469 298.738281 410.980469 C 302.441406 410.980469 305.4375 413.976562 305.4375 417.679688 L 305.4375 464.25 C 305.4375 467.953125 302.441406 470.949219 298.738281 470.949219 Z M 573.160156 469.785156 L 555.945312 469.785156 C 552.242188 469.785156 549.246094 466.792969 549.246094 463.089844 L 549.246094 416.515625 C 549.246094 412.8125 552.242188 409.820312 555.945312 409.820312 C 559.644531 409.820312 562.640625 412.8125 562.640625 416.515625 L 562.640625 456.390625 L 573.160156 456.390625 C 576.863281 456.390625 579.859375 459.386719 579.859375 463.089844 C 579.859375 466.792969 576.863281 469.785156 573.160156 469.785156 Z M 460.761719 470.949219 C 457.058594 470.949219 454.066406 467.953125 454.066406 464.25 L 454.066406 417.679688 C 454.066406 417.558594 454.066406 417.441406 454.074219 417.320312 C 454.066406 417.203125 454.066406 417.082031 454.066406 416.964844 C 454.066406 413.261719 457.058594 410.265625 460.761719 410.265625 L 479.746094 410.265625 C 483.449219 410.265625 486.441406 413.261719 486.441406 416.964844 C 486.441406 420.664062 483.449219 423.660156 479.746094 423.660156 L 467.457031 423.660156 L 467.457031 434.273438 L 476.210938 434.273438 C 479.914062 434.273438 482.910156 437.269531 482.910156 440.96875 C 482.910156 444.671875 479.914062 447.667969 476.210938 447.667969 L 467.457031 447.667969 L 467.457031 464.253906 C 467.457031 467.953125 464.464844 470.949219 460.761719 470.949219 Z M 411.316406 470.949219 C 407.613281 470.949219 404.617188 467.953125 404.617188 464.25 L 404.617188 417.679688 C 404.617188 413.976562 407.613281 410.980469 411.316406 410.980469 L 423.015625 410.980469 C 433.164062 410.980469 441.414062 419.234375 441.414062 429.378906 L 441.414062 434.898438 C 441.414062 445.042969 433.164062 453.292969 423.015625 453.292969 L 418.011719 453.292969 L 418.011719 464.25 C 418.011719 467.953125 415.015625 470.949219 411.316406 470.949219 Z M 418.011719 439.902344 L 423.015625 439.902344 C 425.777344 439.902344 428.019531 437.660156 428.019531 434.898438 L 428.019531 429.378906 C 428.019531 426.617188 425.777344 424.375 423.015625 424.375 L 418.011719 424.375 Z M 418.011719 439.902344" fill="#cb6ce6"/></g><path fill-rule="evenodd" fill-opacity="1" d="M 242.613281 414.367188 C 240.957031 414.367188 239.300781 413.753906 238 412.527344 C 235.320312 409.976562 235.210938 405.734375 237.757812 403.058594 L 392.210938 240.394531 C 394.757812 237.714844 398.992188 237.601562 401.679688 240.152344 C 404.359375 242.699219 404.46875 246.933594 401.921875 249.621094 L 247.476562 412.285156 C 246.15625 413.671875 244.390625 414.367188 242.613281 414.367188 Z M 242.613281 414.367188" fill="#cb6ce6"/><path fill-rule="evenodd" fill-opacity="1" d="M 600.535156 414.636719 C 598.832031 414.636719 597.121094 413.988281 595.820312 412.695312 L 431.089844 249.183594 C 428.464844 246.578125 428.449219 242.335938 431.050781 239.714844 C 433.65625 237.089844 437.898438 237.070312 440.519531 239.675781 L 605.25 403.1875 C 607.875 405.792969 607.890625 410.035156 605.289062 412.65625 C 603.984375 413.976562 602.265625 414.636719 600.535156 414.636719 Z M 600.535156 414.636719" fill="#cb6ce6"/><path fill-rule="evenodd" fill-opacity="1" d="M 611.789062 441.648438 C 599.355469 441.648438 589.242188 431.539062 589.242188 419.101562 C 589.242188 406.667969 599.363281 396.554688 611.789062 396.554688 C 624.214844 396.554688 634.335938 406.675781 634.335938 419.101562 C 634.335938 431.527344 624.214844 441.648438 611.789062 441.648438 Z M 231.636719 441.648438 C 219.203125 441.648438 209.089844 431.539062 209.089844 419.101562 C 209.089844 406.667969 219.203125 396.554688 231.636719 396.554688 C 244.074219 396.554688 254.183594 406.675781 254.183594 419.101562 C 254.183594 431.527344 244.074219 441.648438 231.636719 441.648438 Z M 231.636719 441.648438" fill="#cb6ce6"/><path fill-rule="evenodd" fill-opacity="1" d="M 416.140625 259.3125 C 397.175781 259.3125 381.734375 243.878906 381.734375 224.90625 C 381.734375 205.929688 397.167969 190.5 416.140625 190.5 C 435.117188 190.5 450.546875 205.929688 450.546875 224.90625 C 450.546875 243.878906 435.117188 259.3125 416.140625 259.3125 Z M 416.140625 259.3125" fill="#cb6ce6"/><path fill-rule="evenodd" fill-opacity="1" d="M 219.359375 426.199219 C 219.3125 424.5 219.917969 422.769531 221.179688 421.433594 L 380.296875 252.457031 C 382.832031 249.765625 387.070312 249.636719 389.761719 252.171875 C 392.449219 254.707031 392.582031 258.945312 390.046875 261.636719 L 230.929688 430.613281 C 228.394531 433.304688 224.15625 433.433594 221.464844 430.898438 C 220.109375 429.632812 219.40625 427.929688 219.359375 426.199219 Z M 219.359375 426.199219" fill="#cb6ce6"/></svg>